<?xml version="1.0" encoding="utf-8"?>
<!-- Generator: Adobe Illustrator 16.0.0, SVG Export Plug-In . SVG Version: 6.00 Build 0)  -->
<!DOCTYPE svg PUBLIC "-//W3C//DTD SVG 1.1//EN" "http://www.w3.org/Graphics/SVG/1.1/DTD/svg11.dtd">
<svg version="1.1" id="Layer_4" xmlns="http://www.w3.org/2000/svg" xmlns:xlink="http://www.w3.org/1999/xlink" x="0px" y="0px"
	 width="245.284px" height="212.138px" viewBox="191.987 305.227 245.284 212.138"
	 enable-background="new 191.987 305.227 245.284 212.138" xml:space="preserve">
<path d="M435.887,394.37l-5.061-0.844c-2.594-10.223-6.993-19.662-13.107-27.92c-4.864-6.57-10.708-12.246-17.381-16.936
	l10.519-14.728c1.088-1.522-0.785-3.394-2.303-2.306l-16.638,11.883c-6.423-3.41-13.435-6.037-20.947-7.801l-2.516,10.709
	c4.653,1.093,9.075,2.57,13.251,4.386l-21.266,15.189c-0.989,0.711-2.391,0.132-2.587-1.074l-9.723-58.321
	c-0.153-0.92-0.893-1.381-1.63-1.381c-0.736,0-1.479,0.461-1.631,1.381l-9.718,58.321c-0.202,1.206-1.596,1.785-2.592,1.074
	l-16.752-11.965c3.426-2.517,7.162-4.622,11.129-6.233l-4.141-10.19c-5.923,2.407-11.416,5.728-16.309,9.766l-22.041-15.743
	c-1.522-1.089-3.396,0.784-2.307,2.306c0,0,8.969,12.559,15.739,22.041c-3.851,4.664-7.049,9.875-9.424,15.489l10.131,4.286
	c1.572-3.715,3.587-7.212,5.959-10.44c0.406,0.568,0.658,0.922,0.721,1.01l11.239,15.732c0.71,0.99,0.132,2.39-1.073,2.587
	l-35.108,5.853l-88.305,0c-0.01,0-0.02,0-0.03,0c0,0,10.346,10.333,21.247,41.747l0.15,0.517
	c17.435,50.603,65.13,84.602,118.683,84.602c55.968,0,101.5-45.532,101.5-101.5c0-6.03-0.565-11.904-1.664-17.567l3.988-0.665
	C437.732,397.327,437.732,394.677,435.887,394.37z M376.492,382.06l17.449-24.432c5.749,4.029,10.771,8.897,14.938,14.524
	c4.307,5.816,7.626,12.337,9.922,19.369l-41.235-6.875C376.36,384.45,375.781,383.05,376.492,382.06z M422.566,415.865
	c0,49.902-40.598,90.5-90.5,90.5c-48.777,0-92.227-30.911-108.2-76.947c-0.401-1.623-2.495-9.792-6.011-18.08
	c-1.616-3.808-3.29-7.085-5.029-9.838c18.281,0,45.062,0,67.48,0l35.124,5.855c1.206,0.196,1.784,1.597,1.074,2.587l-11.966,16.753
	c-2.519-3.428-4.625-7.167-6.237-11.136l-10.191,4.141c2.408,5.926,5.73,11.421,9.771,16.315l-15.744,22.042
	c-1.088,1.523,0.785,3.396,2.307,2.308l22.04-15.742c4.662,3.849,9.872,7.047,15.483,9.421l4.287-10.131
	c-3.714-1.571-7.21-3.587-10.437-5.957l16.742-11.959c0.996-0.71,2.391-0.132,2.593,1.074l9.718,58.32
	c0.153,0.922,0.893,1.383,1.631,1.383c0.735,0,1.477-0.461,1.63-1.383l9.723-58.32c0.196-1.206,1.597-1.784,2.588-1.074
	l16.752,11.965c-3.427,2.518-7.164,4.623-11.132,6.235l4.141,10.191c5.924-2.407,11.418-5.729,16.312-9.769l22.045,15.745
	c1.521,1.089,3.393-0.785,2.304-2.308l-15.742-22.039c3.852-4.665,7.051-9.878,9.426-15.492l-10.131-4.285
	c-1.572,3.717-3.589,7.215-5.961,10.444l-11.959-16.743c-0.71-0.99-0.131-2.391,1.074-2.587l43.472-7.247
	C422.045,405.174,422.566,410.442,422.566,415.865z"/>
</svg>
