<?xml version="1.0" encoding="utf-8"?>
<!-- Generator: Adobe Illustrator 16.0.0, SVG Export Plug-In . SVG Version: 6.00 Build 0)  -->
<!DOCTYPE svg PUBLIC "-//W3C//DTD SVG 1.1//EN" "http://www.w3.org/Graphics/SVG/1.1/DTD/svg11.dtd">
<svg version="1.1" id="Layer_1" xmlns="http://www.w3.org/2000/svg" xmlns:xlink="http://www.w3.org/1999/xlink" x="0px" y="0px"
	 width="525.18px" height="525.18px" viewBox="0 0 525.18 525.18" enable-background="new 0 0 525.18 525.18" xml:space="preserve">
<path fill="none" stroke="#2BB673" stroke-width="2" stroke-miterlimit="10" d="M100.005,260.372
	c0.578-43.225,18.023-82.379,46.054-111.18"/>
<path fill="none" stroke="#2BB673" stroke-width="2" stroke-miterlimit="10" d="M146.059,375.985
	c-28.027-28.798-45.475-67.951-46.053-111.18"/>
<path fill="none" stroke="#2BB673" stroke-width="2" stroke-miterlimit="10" d="M260.369,425.175
	c-43.229-0.577-82.386-18.027-111.185-46.063"/>
<path fill="none" stroke="#2BB673" stroke-width="2" stroke-miterlimit="10" d="M375.986,379.123
	c-28.799,28.029-67.954,45.473-111.18,46.051"/>
<path fill="none" stroke="#2BB673" stroke-width="2" stroke-miterlimit="10" d="M425.175,264.807
	c-0.577,43.226-18.022,82.381-46.054,111.18"/>
<path fill="none" stroke="#2BB673" stroke-width="2" stroke-miterlimit="10" d="M379.116,149.19
	c28.031,28.797,45.479,67.954,46.059,111.181"/>
<path fill="none" stroke="#2BB673" stroke-width="2" stroke-miterlimit="10" d="M264.806,100.005
	c43.226,0.578,82.375,18.02,111.176,46.047"/>
<path fill="none" stroke="#2BB673" stroke-width="2" stroke-miterlimit="10" d="M149.194,146.06
	c28.798-28.031,67.953-45.476,111.178-46.054"/>
<circle fill="none" stroke="#2BB673" stroke-width="0.5" stroke-miterlimit="10" cx="262.59" cy="262.59" r="157.978"/>
<line fill="none" stroke="#2BB673" stroke-width="0.5" stroke-miterlimit="10" x1="255.938" y1="94.357" x2="255.938" y2="109.508"/>
<line fill="none" stroke="#2BB673" stroke-width="0.5" stroke-miterlimit="10" x1="269.333" y1="94.357" x2="269.333" y2="109.508"/>
<line fill="none" stroke="#2BB673" stroke-width="0.5" stroke-miterlimit="10" x1="138.927" y1="376.844" x2="149.641" y2="366.131"/>
<line fill="none" stroke="#2BB673" stroke-width="0.5" stroke-miterlimit="10" x1="148.399" y1="386.317" x2="159.113" y2="375.604"/>
<line fill="none" stroke="#2BB673" stroke-width="0.5" stroke-miterlimit="10" x1="376.844" y1="386.252" x2="366.131" y2="375.539"/>
<line fill="none" stroke="#2BB673" stroke-width="0.5" stroke-miterlimit="10" x1="386.315" y1="376.782" x2="375.602" y2="366.065"/>
<path opacity="0.4" fill="#2BB673" stroke="#2BB673" stroke-miterlimit="10" d="M448.066,262.59
	c0,102.434-83.041,185.477-185.477,185.477c-102.437,0-185.477-83.043-185.477-185.477c0-102.438,83.041-185.477,185.477-185.477
	C365.025,77.113,448.066,160.152,448.066,262.59z M262.59,12.813c-137.947,0-249.776,111.829-249.776,249.776
	c0,137.946,111.829,249.777,249.776,249.777c137.946,0,249.776-111.831,249.776-249.777
	C512.366,124.643,400.536,12.813,262.59,12.813z"/>
<circle fill="none" stroke="#2BB673" stroke-miterlimit="10" cx="262.59" cy="262.59" r="195.823"/>
<line fill="none" stroke="#2BB673" stroke-width="0.5" stroke-miterlimit="10" x1="138.927" y1="148.334" x2="149.641" y2="159.048"/>
<line fill="none" stroke="#2BB673" stroke-width="0.5" stroke-miterlimit="10" x1="148.399" y1="138.863" x2="159.113" y2="149.577"/>
<line fill="none" stroke="#2BB673" stroke-width="0.5" stroke-miterlimit="10" x1="94.357" y1="269.241" x2="109.508" y2="269.241"/>
<line fill="none" stroke="#2BB673" stroke-width="0.5" stroke-miterlimit="10" x1="94.357" y1="255.847" x2="109.508" y2="255.847"/>
<line fill="none" stroke="#2BB673" stroke-width="0.5" stroke-miterlimit="10" x1="376.844" y1="138.927" x2="366.131" y2="149.641"/>
<line fill="none" stroke="#2BB673" stroke-width="0.5" stroke-miterlimit="10" x1="386.317" y1="148.399" x2="375.604" y2="159.113"/>
<line fill="none" stroke="#2BB673" stroke-width="0.5" stroke-miterlimit="10" x1="430.822" y1="255.938" x2="415.67" y2="255.938"/>
<line fill="none" stroke="#2BB673" stroke-width="0.5" stroke-miterlimit="10" x1="430.822" y1="269.333" x2="415.67" y2="269.333"/>
<line fill="none" stroke="#2BB673" stroke-width="0.5" stroke-miterlimit="10" x1="269.241" y1="430.822" x2="269.241" y2="415.67"/>
<line fill="none" stroke="#2BB673" stroke-width="0.5" stroke-miterlimit="10" x1="255.847" y1="430.822" x2="255.847" y2="415.67"/>
<path fill="none" stroke="#2BB673" stroke-width="0.5" stroke-miterlimit="10" d="M262.59,262.59"/>
<path opacity="0.4" fill="#2BB673" stroke="#2BB673" stroke-width="0.5" stroke-miterlimit="10" d="M517.54,262.59
	c0,140.803-114.147,254.95-254.95,254.95c-140.804,0-254.949-114.147-254.949-254.95C7.641,121.786,121.786,7.642,262.59,7.642
	C403.393,7.642,517.54,121.786,517.54,262.59z M262.59,0.25C117.704,0.25,0.25,117.704,0.25,262.59
	c0,144.885,117.454,262.34,262.34,262.34c144.885,0,262.34-117.455,262.34-262.34C524.93,117.704,407.475,0.25,262.59,0.25z"/>
<path fill="none" stroke="#2BB673" stroke-width="0.5" stroke-miterlimit="10" d="M272.774,439.067"/>
<path fill="none" stroke="#2BB673" stroke-width="0.5" stroke-miterlimit="10" d="M253.375,439.067"/>
<line fill="none" stroke="#2BB673" stroke-miterlimit="10" x1="262.586" y1="428.468" x2="262.586" y2="445.512"/>
<path fill="#2BB673" stroke="#2BB673" stroke-width="0.5" stroke-miterlimit="10" d="M269.012,439.043
	c0.209-0.648,0.321-1.313,0.321-2.031c0-3.725-3.019-6.745-6.743-6.745c-3.726,0-6.745,3.021-6.745,6.745
	c0,0.695,0.106,1.396,0.303,2.031H269.012z"/>
<path fill="#2BB673" stroke="#2BB673" stroke-miterlimit="10" d="M269.328,441.771c-3.372,0-3.016,3.74-6.742,3.74
	c-3.725,0-3.37-3.74-6.741-3.74h13.396"/>
<g>
	<path fill="#2BB673" d="M231.643,262.615c-0.411,0-0.791-0.07-1.14-0.212c-0.35-0.141-0.653-0.34-0.912-0.596
		c-0.259-0.256-0.46-0.555-0.604-0.896s-0.216-0.714-0.216-1.12s0.072-0.779,0.216-1.12s0.345-0.64,0.604-0.896
		s0.563-0.455,0.912-0.596c0.349-0.141,0.729-0.212,1.14-0.212c0.368,0,0.717,0.059,1.048,0.176
		c0.331,0.118,0.616,0.296,0.856,0.536l-0.096,0.112c-0.256-0.246-0.536-0.419-0.84-0.52c-0.304-0.102-0.627-0.152-0.968-0.152
		c-0.384,0-0.742,0.068-1.072,0.204c-0.331,0.136-0.619,0.326-0.864,0.568c-0.246,0.243-0.436,0.525-0.572,0.848
		c-0.136,0.323-0.204,0.673-0.204,1.052c0,0.378,0.068,0.729,0.204,1.052c0.136,0.323,0.327,0.605,0.572,0.848
		c0.245,0.243,0.533,0.432,0.864,0.568c0.331,0.136,0.688,0.204,1.072,0.204c0.341,0,0.664-0.052,0.968-0.156
		s0.584-0.278,0.84-0.524l0.096,0.112c-0.24,0.24-0.525,0.42-0.856,0.54C232.36,262.555,232.011,262.615,231.643,262.615z"/>
	<path fill="#2BB673" d="M235.211,262.591h-0.16v-5.6h0.16V262.591z M239.331,259.823h-4.16v-0.152h4.16V259.823z M239.291,256.991
		h0.16v5.6h-0.16V256.991z"/>
	<path fill="#2BB673" d="M240.586,262.591l2.6-5.6h0.16l2.6,5.6h-0.184l-2.536-5.472h0.08l-2.536,5.472H240.586z M241.443,260.903
		l0.08-0.152h3.48l0.08,0.152H241.443z"/>
	<path fill="#2BB673" d="M247.083,262.591v-5.6h1.896c0.458,0,0.852,0.073,1.18,0.22c0.328,0.146,0.58,0.356,0.756,0.628
		s0.264,0.603,0.264,0.992c0,0.384-0.088,0.713-0.264,0.988c-0.176,0.275-0.428,0.485-0.756,0.632
		c-0.328,0.147-0.722,0.22-1.18,0.22h-1.808l0.072-0.072v1.992H247.083z M247.243,260.583l-0.072-0.064h1.824
		c0.656,0,1.157-0.148,1.504-0.444s0.52-0.71,0.52-1.244c0-0.539-0.173-0.955-0.52-1.248c-0.347-0.293-0.848-0.44-1.504-0.44h-1.824
		l0.072-0.064V260.583z"/>
	<path fill="#2BB673" d="M252.843,262.439h3.568v0.152h-3.728v-5.6h3.608v0.152h-3.448V262.439z M252.803,259.671h3.128v0.152
		h-3.128V259.671z"/>
	<path fill="#2BB673" d="M258.027,262.591v-5.6h0.16v5.448h3.336v0.152H258.027z"/>
	<path fill="#2BB673" d="M264.826,262.615c-0.41,0-0.791-0.07-1.14-0.212c-0.35-0.141-0.653-0.34-0.912-0.596
		c-0.259-0.256-0.46-0.555-0.604-0.896s-0.216-0.714-0.216-1.12s0.072-0.779,0.216-1.12s0.345-0.64,0.604-0.896
		s0.563-0.455,0.912-0.596c0.349-0.141,0.729-0.212,1.14-0.212c0.368,0,0.718,0.059,1.048,0.176
		c0.331,0.118,0.616,0.296,0.856,0.536l-0.096,0.112c-0.256-0.246-0.536-0.419-0.841-0.52c-0.304-0.102-0.626-0.152-0.968-0.152
		c-0.384,0-0.741,0.068-1.072,0.204c-0.33,0.136-0.618,0.326-0.863,0.568c-0.246,0.243-0.436,0.525-0.572,0.848
		c-0.136,0.323-0.204,0.673-0.204,1.052c0,0.378,0.068,0.729,0.204,1.052c0.136,0.323,0.327,0.605,0.572,0.848
		c0.245,0.243,0.533,0.432,0.863,0.568c0.331,0.136,0.688,0.204,1.072,0.204c0.342,0,0.664-0.052,0.968-0.156
		c0.305-0.104,0.585-0.278,0.841-0.524l0.096,0.112c-0.24,0.24-0.525,0.42-0.856,0.54
		C265.544,262.555,265.194,262.615,264.826,262.615z"/>
	<path fill="#2BB673" d="M270.395,262.615c-0.41,0-0.79-0.07-1.14-0.212c-0.35-0.141-0.653-0.34-0.912-0.596
		c-0.259-0.256-0.46-0.555-0.604-0.896c-0.145-0.341-0.217-0.714-0.217-1.12s0.072-0.779,0.217-1.12
		c0.144-0.341,0.345-0.64,0.604-0.896s0.563-0.455,0.912-0.596c0.35-0.141,0.729-0.212,1.14-0.212c0.411,0,0.791,0.071,1.141,0.212
		c0.349,0.142,0.653,0.34,0.912,0.596c0.258,0.256,0.46,0.555,0.604,0.896s0.216,0.715,0.216,1.12s-0.072,0.778-0.216,1.12
		s-0.346,0.64-0.604,0.896c-0.259,0.256-0.563,0.455-0.912,0.596C271.186,262.544,270.806,262.615,270.395,262.615z
		 M270.395,262.463c0.384,0,0.741-0.067,1.072-0.2s0.618-0.321,0.864-0.564c0.245-0.243,0.436-0.525,0.571-0.848
		c0.137-0.322,0.204-0.676,0.204-1.06c0-0.384-0.067-0.737-0.204-1.06c-0.136-0.323-0.326-0.605-0.571-0.848
		c-0.246-0.243-0.533-0.431-0.864-0.564s-0.688-0.2-1.072-0.2s-0.741,0.067-1.071,0.2c-0.331,0.133-0.619,0.321-0.864,0.564
		s-0.437,0.525-0.572,0.848s-0.204,0.676-0.204,1.06c0,0.384,0.068,0.737,0.204,1.06c0.136,0.323,0.327,0.605,0.572,0.848
		s0.533,0.431,0.864,0.564C269.653,262.396,270.011,262.463,270.395,262.463z"/>
	<path fill="#2BB673" d="M279.106,262.615c-0.416,0-0.8-0.07-1.152-0.212c-0.352-0.141-0.658-0.34-0.92-0.596
		c-0.262-0.256-0.464-0.555-0.607-0.896c-0.145-0.341-0.217-0.714-0.217-1.12s0.072-0.779,0.217-1.12
		c0.144-0.341,0.346-0.64,0.607-0.896s0.568-0.455,0.92-0.596c0.353-0.141,0.736-0.212,1.152-0.212c0.379,0,0.734,0.059,1.067,0.176
		c0.334,0.118,0.62,0.296,0.86,0.536l-0.096,0.112c-0.256-0.246-0.537-0.419-0.844-0.52c-0.308-0.102-0.637-0.152-0.988-0.152
		c-0.39,0-0.751,0.068-1.084,0.204c-0.334,0.136-0.624,0.326-0.872,0.568c-0.248,0.243-0.44,0.525-0.576,0.848
		s-0.204,0.673-0.204,1.052c0,0.378,0.068,0.729,0.204,1.052s0.328,0.605,0.576,0.848s0.538,0.432,0.872,0.568
		c0.333,0.136,0.694,0.204,1.084,0.204c0.352,0,0.684-0.053,0.996-0.16c0.312-0.106,0.591-0.283,0.836-0.528l0.096,0.12
		c-0.24,0.24-0.526,0.42-0.86,0.54C279.841,262.555,279.485,262.615,279.106,262.615z M280.882,261.895v-2.048h0.152v2.048H280.882z
		"/>
	<path fill="#2BB673" d="M282.003,262.591l2.6-5.6h0.16l2.6,5.6h-0.184l-2.536-5.472h0.08l-2.536,5.472H282.003z M282.858,260.903
		l0.08-0.152h3.48l0.08,0.152H282.858z"/>
	<path fill="#2BB673" d="M289.267,262.591v-5.448h-2.08v-0.152h4.319v0.152h-2.079v5.448H289.267z"/>
	<path fill="#2BB673" d="M292.762,262.439h3.568v0.152h-3.728v-5.6h3.607v0.152h-3.448V262.439z M292.722,259.671h3.128v0.152
		h-3.128V259.671z"/>
</g>
<line opacity="0.5" fill="none" stroke="#2BB673" stroke-width="2" stroke-miterlimit="10" x1="198.835" y1="112.962" x2="189.828" y2="91.937"/>
<line opacity="0.5" fill="none" stroke="#2BB673" stroke-width="2" stroke-miterlimit="10" x1="92.371" y1="336.377" x2="113.407" y2="327.365"/>
<line opacity="0.5" fill="none" stroke="#2BB673" stroke-width="2" stroke-miterlimit="10" x1="90.218" y1="193.975" x2="111.46" y2="202.475"/>
<line opacity="0.5" fill="none" stroke="#2BB673" stroke-width="2" stroke-miterlimit="10" x1="196.249" y1="114.096" x2="186.876" y2="93.223"/>
<line opacity="0.5" fill="none" stroke="#2BB673" stroke-width="2" stroke-miterlimit="10" x1="93.676" y1="339.313" x2="114.552" y2="329.938"/>
<line opacity="0.5" fill="none" stroke="#2BB673" stroke-width="2" stroke-miterlimit="10" x1="89.052" y1="196.976" x2="110.438" y2="205.107"/>
<line opacity="0.5" fill="none" stroke="#2BB673" stroke-width="2" stroke-miterlimit="10" x1="201.429" y1="111.883" x2="192.782" y2="90.699"/>
<line opacity="0.5" fill="none" stroke="#2BB673" stroke-width="2" stroke-miterlimit="10" x1="91.125" y1="333.436" x2="112.312" y2="324.786"/>
<line opacity="0.5" fill="none" stroke="#2BB673" stroke-width="2" stroke-miterlimit="10" x1="91.422" y1="191.007" x2="112.527" y2="199.876"/>
<line opacity="0.5" fill="none" stroke="#2BB673" stroke-width="2" stroke-miterlimit="10" x1="432.653" y1="336.377" x2="411.617" y2="327.365"/>
<line opacity="0.5" fill="none" stroke="#2BB673" stroke-width="2" stroke-miterlimit="10" x1="434.807" y1="193.975" x2="413.564" y2="202.475"/>
<line opacity="0.5" fill="none" stroke="#2BB673" stroke-width="2" stroke-miterlimit="10" x1="431.349" y1="339.313" x2="410.473" y2="329.938"/>
<line opacity="0.5" fill="none" stroke="#2BB673" stroke-width="2" stroke-miterlimit="10" x1="435.973" y1="196.976" x2="414.587" y2="205.107"/>
<line opacity="0.5" fill="none" stroke="#2BB673" stroke-width="2" stroke-miterlimit="10" x1="433.9" y1="333.436" x2="412.713" y2="324.786"/>
<line opacity="0.5" fill="none" stroke="#2BB673" stroke-width="2" stroke-miterlimit="10" x1="433.603" y1="191.007" x2="412.497" y2="199.876"/>
<line opacity="0.5" fill="none" stroke="#2BB673" stroke-width="2" stroke-miterlimit="10" x1="328.189" y1="411.84" x2="337.197" y2="432.865"/>
<line opacity="0.5" fill="none" stroke="#2BB673" stroke-width="2" stroke-miterlimit="10" x1="330.775" y1="410.706" x2="340.148" y2="431.579"/>
<line opacity="0.5" fill="none" stroke="#2BB673" stroke-width="2" stroke-miterlimit="10" x1="325.596" y1="412.919" x2="334.242" y2="434.103"/>
<line opacity="0.5" fill="none" stroke="#2BB673" stroke-width="2" stroke-miterlimit="10" x1="323.449" y1="111.998" x2="331.946" y2="90.761"/>
<line opacity="0.5" fill="none" stroke="#2BB673" stroke-width="2" stroke-miterlimit="10" x1="320.818" y1="110.971" x2="328.949" y2="89.584"/>
<line opacity="0.5" fill="none" stroke="#2BB673" stroke-width="2" stroke-miterlimit="10" x1="326.046" y1="113.068" x2="334.91" y2="91.975"/>
<line opacity="0.5" fill="none" stroke="#2BB673" stroke-width="2" stroke-miterlimit="10" x1="203.576" y1="413.803" x2="195.079" y2="435.041"/>
<line opacity="0.5" fill="none" stroke="#2BB673" stroke-width="2" stroke-miterlimit="10" x1="206.207" y1="414.83" x2="198.075" y2="436.217"/>
<line opacity="0.5" fill="none" stroke="#2BB673" stroke-width="2" stroke-miterlimit="10" x1="200.979" y1="412.732" x2="192.114" y2="433.826"/>
<polygon opacity="0.5" fill="#2BB673" points="252.59,12.59 252.59,8.012 263.167,7.834 272.59,8.027 272.59,12.559 263.121,12.371 
	"/>
<polygon opacity="0.5" fill="#2BB673" points="272.59,512.59 272.59,517.168 262.012,517.346 252.59,517.152 252.59,512.621 
	262.059,512.809 "/>
<polygon opacity="0.5" fill="#2BB673" points="512.59,252.59 517.168,252.59 517.346,263.167 517.152,272.59 512.621,272.59 
	512.809,263.121 "/>
<polygon opacity="0.5" fill="#2BB673" points="12.59,272.59 8.012,272.59 7.834,262.012 8.027,252.59 12.559,252.59 12.371,262.059 
	"/>
<polygon opacity="0.5" fill="#2BB673" points="78.741,92.884 75.505,89.647 82.858,82.042 89.657,75.516 92.862,78.72 
	86.034,85.283 "/>
<polygon opacity="0.5" fill="#2BB673" points="432.295,78.741 435.533,75.505 443.138,82.858 449.664,89.657 446.459,92.862 
	439.896,86.034 "/>
<polygon opacity="0.5" fill="#2BB673" points="446.439,432.295 449.676,435.533 442.322,443.138 435.523,449.664 432.318,446.459 
	439.146,439.896 "/>
<polygon opacity="0.5" fill="#2BB673" points="92.884,446.439 89.647,449.676 82.042,442.322 75.516,435.523 78.72,432.318 
	85.283,439.146 "/>
<path fill="none" stroke="#000000" stroke-miterlimit="10" d="M195.084,96.341"/>
<path fill="none" stroke="#000000" stroke-miterlimit="10" d="M225.706,69.774"/>
<path opacity="0.5" fill="#2BB673" d="M236.648,79.14c11.358-1.384,17.882-1.696,25.92-1.766c9.493-0.082,16.603,0.34,25.712,1.674
	c0,0-4.338,4.664-4.338,4.663c-7.712-0.936-13.354-1.405-21.331-1.337c-6.501,0.057-15.138,0.474-21.455,1.197L236.648,79.14z"/>
<line fill="none" stroke="#2BB673" stroke-miterlimit="10" x1="169.491" y1="169.492" x2="138.895" y2="138.896"/>
<circle fill="none" stroke="#2BB673" stroke-miterlimit="10" cx="262.59" cy="262.591" r="131.667"/>
<line fill="none" stroke="#2BB673" stroke-width="0.25" stroke-miterlimit="10" x1="262.59" y1="390.226" x2="262.59" y2="386.174"/>
<line fill="none" stroke="#2BB673" stroke-miterlimit="10" x1="262.59" y1="433.826" x2="262.59" y2="390.226"/>
<line fill="none" stroke="#2BB673" stroke-miterlimit="10" x1="262.59" y1="130.929" x2="262.59" y2="87.659"/>
<line fill="none" stroke="#2BB673" stroke-miterlimit="10" x1="355.689" y1="169.492" x2="386.286" y2="138.896"/>
<line fill="none" stroke="#2BB673" stroke-miterlimit="10" x1="130.928" y1="262.591" x2="87.659" y2="262.591"/>
<line fill="none" stroke="#2BB673" stroke-miterlimit="10" x1="169.491" y1="355.69" x2="138.895" y2="386.287"/>
<line fill="none" stroke="#2BB673" stroke-miterlimit="10" x1="355.689" y1="355.689" x2="386.285" y2="386.286"/>
<line fill="none" stroke="#2BB673" stroke-miterlimit="10" x1="394.252" y1="262.591" x2="437.521" y2="262.591"/>
<path fill="none" stroke="#2BB673" stroke-miterlimit="10" d="M311.938,380.336c-15.181,6.37-31.854,9.89-49.348,9.89
	c-15.592,0-30.531-2.796-44.343-7.913"/>
<circle fill="none" stroke="#2BB673" stroke-width="0.25" stroke-miterlimit="10" cx="262.59" cy="385.174" r="1"/>
<g>
	<circle fill="none" cx="262.59" cy="262.59" r="220.5"/>
	<path fill="#00A79D" d="M223.173,45.627c-0.412,0.076-0.805,0.074-1.181-0.003c-0.376-0.077-0.717-0.221-1.023-0.43
		c-0.306-0.209-0.563-0.472-0.77-0.787c-0.207-0.315-0.347-0.676-0.421-1.083s-0.071-0.793,0.011-1.162
		c0.082-0.368,0.229-0.705,0.441-1.008c0.212-0.304,0.48-0.559,0.804-0.764c0.324-0.206,0.692-0.346,1.104-0.421
		c0.369-0.067,0.729-0.073,1.082-0.016c0.353,0.057,0.671,0.184,0.956,0.38l-0.076,0.13c-0.302-0.199-0.614-0.321-0.937-0.367
		c-0.323-0.045-0.656-0.037-0.998,0.025c-0.385,0.07-0.73,0.204-1.037,0.401c-0.307,0.197-0.561,0.439-0.762,0.727
		s-0.34,0.606-0.417,0.955s-0.081,0.712-0.012,1.091s0.202,0.718,0.397,1.017c0.196,0.298,0.438,0.546,0.729,0.745
		c0.291,0.198,0.613,0.335,0.97,0.411s0.727,0.079,1.111,0.008c0.342-0.063,0.656-0.174,0.941-0.334
		c0.286-0.16,0.534-0.386,0.746-0.679l0.117,0.095c-0.197,0.284-0.45,0.517-0.759,0.698C223.88,45.436,223.542,45.56,223.173,45.627
		z"/>
	<path fill="#00A79D" d="M226.7,44.986l-0.161,0.025l-0.868-5.637l0.161-0.025L226.7,44.986z M230.418,41.561l-4.188,0.645
		l-0.023-0.153l4.188-0.645L230.418,41.561z M229.938,38.716l0.161-0.024l0.868,5.637l-0.161,0.025L229.938,38.716z"/>
	<path fill="#00A79D" d="M232.1,44.164l1.916-5.989l0.162-0.02l3.339,5.329l-0.186,0.023l-3.258-5.208l0.081-0.01l-1.867,5.852
		L232.1,44.164z M232.75,42.349l0.062-0.164l3.517-0.442l0.101,0.144L232.75,42.349z"/>
	<path fill="#00A79D" d="M238.635,43.369l-0.566-5.675l1.921-0.192c0.465-0.046,0.871-0.012,1.218,0.104
		c0.347,0.116,0.624,0.302,0.83,0.56c0.206,0.258,0.329,0.584,0.368,0.979c0.039,0.389-0.017,0.731-0.167,1.028
		c-0.151,0.296-0.385,0.535-0.702,0.717c-0.318,0.182-0.709,0.296-1.174,0.342l-1.833,0.183l0.066-0.08l0.201,2.019L238.635,43.369z
		 M238.595,41.317l-0.08-0.058l1.849-0.185c0.665-0.066,1.158-0.267,1.479-0.602c0.322-0.335,0.456-0.772,0.401-1.313
		c-0.054-0.546-0.272-0.95-0.653-1.212c-0.381-0.262-0.904-0.36-1.568-0.294l-1.849,0.185l0.066-0.072L238.595,41.317z"/>
	<path fill="#00A79D" d="M244.404,42.669l3.624-0.271l0.011,0.154l-3.786,0.284l-0.426-5.688l3.664-0.274l0.012,0.154l-3.502,0.262
		L244.404,42.669z M244.153,39.861l3.177-0.238l0.012,0.154l-3.177,0.238L244.153,39.861z"/>
	<path fill="#00A79D" d="M249.657,42.459l-0.296-5.696l0.163-0.009l0.289,5.542l3.393-0.177l0.008,0.154L249.657,42.459z"/>
	<path fill="#00A79D" d="M256.544,42.195c-0.418,0.012-0.807-0.048-1.167-0.182s-0.675-0.327-0.946-0.58s-0.485-0.551-0.642-0.895
		c-0.157-0.343-0.241-0.721-0.253-1.134c-0.012-0.413,0.05-0.794,0.187-1.146c0.136-0.352,0.333-0.662,0.588-0.93
		c0.255-0.268,0.559-0.479,0.911-0.634c0.351-0.154,0.736-0.237,1.154-0.25c0.375-0.011,0.732,0.039,1.072,0.148
		c0.34,0.109,0.636,0.283,0.888,0.52l-0.095,0.117c-0.268-0.242-0.558-0.411-0.871-0.504c-0.313-0.094-0.643-0.136-0.99-0.126
		c-0.391,0.011-0.753,0.091-1.085,0.239c-0.333,0.148-0.62,0.35-0.862,0.604c-0.243,0.254-0.429,0.548-0.557,0.88
		c-0.129,0.333-0.188,0.691-0.177,1.077c0.011,0.385,0.091,0.74,0.239,1.065c0.148,0.324,0.35,0.606,0.607,0.846
		c0.257,0.24,0.556,0.424,0.896,0.553c0.34,0.128,0.707,0.187,1.097,0.176c0.348-0.01,0.675-0.073,0.981-0.188
		c0.307-0.115,0.586-0.301,0.839-0.558l0.101,0.111c-0.237,0.251-0.522,0.443-0.855,0.575
		C257.272,42.113,256.918,42.184,256.544,42.195z"/>
	<path fill="#00A79D" d="M262.188,42.114c-0.418,0.007-0.807-0.059-1.165-0.197c-0.358-0.138-0.671-0.335-0.938-0.592
		s-0.478-0.557-0.63-0.902s-0.232-0.724-0.238-1.137c-0.007-0.413,0.061-0.794,0.201-1.144c0.141-0.35,0.341-0.657,0.601-0.922
		c0.259-0.265,0.565-0.472,0.919-0.622c0.353-0.149,0.739-0.228,1.157-0.234c0.418-0.007,0.807,0.059,1.164,0.197
		c0.358,0.138,0.671,0.335,0.938,0.592c0.268,0.257,0.478,0.558,0.63,0.903s0.232,0.724,0.239,1.137
		c0.006,0.413-0.061,0.794-0.202,1.144c-0.141,0.35-0.341,0.658-0.6,0.922c-0.26,0.265-0.566,0.473-0.919,0.622
		C262.992,42.029,262.606,42.107,262.188,42.114z M262.186,41.959c0.391-0.006,0.754-0.08,1.088-0.221
		c0.335-0.142,0.625-0.337,0.871-0.589c0.245-0.251,0.436-0.542,0.568-0.873c0.133-0.331,0.196-0.692,0.19-1.083
		c-0.007-0.391-0.082-0.75-0.226-1.076s-0.343-0.611-0.597-0.854s-0.55-0.43-0.889-0.56s-0.704-0.192-1.095-0.186
		s-0.754,0.08-1.088,0.221s-0.625,0.337-0.871,0.589c-0.246,0.251-0.435,0.542-0.568,0.873c-0.133,0.331-0.197,0.692-0.19,1.083
		s0.082,0.75,0.226,1.076c0.144,0.326,0.342,0.611,0.596,0.854s0.55,0.43,0.889,0.56S261.794,41.966,262.186,41.959z"/>
	<path fill="#00A79D" d="M270.036,42.238c-0.412-0.014-0.8-0.103-1.161-0.267s-0.633-0.366-0.815-0.606l0.117-0.102
		c0.173,0.218,0.426,0.405,0.761,0.563c0.334,0.158,0.699,0.243,1.096,0.256c0.412,0.014,0.752-0.032,1.02-0.137
		c0.267-0.105,0.468-0.252,0.602-0.441s0.205-0.399,0.213-0.633c0.009-0.271-0.05-0.492-0.174-0.662
		c-0.125-0.17-0.295-0.306-0.509-0.408c-0.214-0.102-0.447-0.188-0.7-0.259c-0.254-0.071-0.508-0.144-0.764-0.217
		c-0.256-0.074-0.49-0.167-0.704-0.28c-0.214-0.113-0.383-0.264-0.507-0.453c-0.124-0.188-0.181-0.432-0.171-0.731
		c0.008-0.25,0.082-0.481,0.223-0.694c0.14-0.212,0.352-0.382,0.636-0.509s0.649-0.182,1.094-0.167
		c0.305,0.01,0.603,0.067,0.896,0.172c0.293,0.105,0.54,0.24,0.741,0.404l-0.095,0.127c-0.222-0.176-0.471-0.309-0.744-0.4
		c-0.274-0.09-0.539-0.14-0.794-0.148c-0.396-0.013-0.728,0.035-0.991,0.143c-0.265,0.108-0.463,0.256-0.594,0.445
		c-0.132,0.189-0.201,0.402-0.209,0.642c-0.009,0.277,0.049,0.5,0.174,0.67s0.294,0.306,0.508,0.408s0.449,0.189,0.705,0.26
		s0.51,0.145,0.763,0.221c0.253,0.077,0.486,0.171,0.7,0.284c0.214,0.113,0.383,0.261,0.507,0.445
		c0.125,0.183,0.182,0.421,0.172,0.715c-0.008,0.25-0.084,0.481-0.227,0.693c-0.143,0.213-0.36,0.381-0.652,0.504
		S270.487,42.252,270.036,42.238z"/>
	<path fill="#00A79D" d="M274.515,42.407l0.298-5.541l-2.115-0.114l0.008-0.154l4.394,0.236l-0.008,0.154l-2.115-0.113l-0.298,5.541
		L274.515,42.407z"/>
	<path fill="#00A79D" d="M276.571,42.509l3.066-5.49l0.163,0.012l2.214,5.885l-0.187-0.014l-2.159-5.75l0.081,0.006l-2.992,5.365
		L276.571,42.509z M277.569,40.86l0.093-0.148l3.534,0.265l0.069,0.161L277.569,40.86z"/>
	<path fill="#00A79D" d="M283.924,43.109l0.533-5.523l-2.109-0.203l0.015-0.154l4.38,0.422l-0.015,0.154l-2.108-0.204l-0.532,5.523
		L283.924,43.109z"/>
	<path fill="#00A79D" d="M287.266,43.455l0.633-5.668l0.162,0.018l-0.633,5.668L287.266,43.455z"/>
	<path fill="#00A79D" d="M291.876,44.042c-0.415-0.055-0.789-0.177-1.123-0.367c-0.333-0.189-0.613-0.431-0.841-0.724
		c-0.227-0.293-0.39-0.622-0.489-0.985s-0.122-0.75-0.068-1.16c0.055-0.409,0.177-0.776,0.368-1.102
		c0.191-0.325,0.435-0.6,0.73-0.823c0.295-0.224,0.629-0.384,1-0.48c0.372-0.096,0.765-0.116,1.18-0.061
		c0.414,0.055,0.789,0.177,1.122,0.367c0.334,0.189,0.614,0.431,0.842,0.724c0.227,0.293,0.39,0.622,0.489,0.985
		c0.1,0.364,0.122,0.75,0.068,1.16c-0.055,0.41-0.178,0.777-0.368,1.102c-0.191,0.325-0.435,0.6-0.73,0.824
		c-0.295,0.224-0.629,0.384-1,0.479C292.684,44.077,292.29,44.097,291.876,44.042z M291.896,43.889
		c0.388,0.051,0.757,0.032,1.109-0.058c0.352-0.09,0.667-0.242,0.947-0.454c0.28-0.212,0.511-0.472,0.691-0.78
		s0.297-0.655,0.348-1.043c0.052-0.388,0.03-0.753-0.063-1.097c-0.095-0.344-0.249-0.655-0.464-0.933
		c-0.216-0.278-0.481-0.506-0.797-0.685c-0.316-0.179-0.668-0.294-1.056-0.346c-0.388-0.051-0.758-0.032-1.109,0.059
		s-0.667,0.241-0.947,0.454c-0.28,0.212-0.511,0.472-0.691,0.779s-0.297,0.655-0.348,1.043c-0.052,0.388-0.03,0.753,0.063,1.098
		c0.094,0.344,0.249,0.655,0.464,0.933s0.48,0.506,0.797,0.685C291.156,43.722,291.509,43.837,291.896,43.889z"/>
	<path fill="#00A79D" d="M296.263,44.634l0.921-5.628l0.137,0.022l3.323,6.133l-0.089-0.015l0.891-5.443l0.161,0.026l-0.921,5.628
		l-0.137-0.022l-3.322-6.133l0.088,0.015l-0.891,5.443L296.263,44.634z"/>
</g>
<g>
	<circle fill="none" cx="262.589" cy="262.589" r="257.333"/>
	<path fill="#00A79D" d="M228.318,7.533c-0.255,0.034-0.498,0.022-0.728-0.037c-0.229-0.059-0.435-0.157-0.618-0.295
		s-0.333-0.307-0.451-0.507c-0.119-0.201-0.194-0.427-0.229-0.679c-0.034-0.252-0.02-0.491,0.041-0.716s0.162-0.427,0.301-0.608
		s0.312-0.33,0.518-0.447c0.206-0.117,0.436-0.193,0.692-0.228c0.229-0.031,0.452-0.023,0.667,0.022
		c0.215,0.045,0.408,0.133,0.578,0.262l-0.05,0.078c-0.18-0.131-0.369-0.216-0.567-0.253s-0.403-0.042-0.615-0.014
		c-0.239,0.032-0.456,0.104-0.65,0.217c-0.195,0.112-0.358,0.254-0.491,0.426c-0.132,0.172-0.228,0.364-0.285,0.576
		s-0.071,0.436-0.039,0.672s0.104,0.449,0.215,0.638c0.111,0.189,0.254,0.35,0.427,0.48c0.173,0.131,0.368,0.225,0.585,0.281
		c0.217,0.057,0.446,0.07,0.685,0.038c0.213-0.028,0.409-0.088,0.59-0.178c0.181-0.09,0.34-0.222,0.479-0.396l0.069,0.062
		c-0.129,0.169-0.292,0.305-0.488,0.408C228.76,7.435,228.548,7.502,228.318,7.533z"/>
	<path fill="#00A79D" d="M230.531,7.23l-0.1,0.012l-0.417-3.494l0.1-0.012L230.531,7.23z M232.896,5.197L230.3,5.506l-0.011-0.095
		l2.595-0.31L232.896,5.197z M232.66,3.433l0.1-0.012l0.417,3.494l-0.1,0.012L232.66,3.433z"/>
	<path fill="#00A79D" d="M233.869,6.834l1.259-3.669l0.1-0.01l1.99,3.33l-0.115,0.012l-1.942-3.254l0.05-0.005l-1.228,3.585
		L233.869,6.834z M234.293,5.724l0.04-0.1l2.174-0.228l0.06,0.09L234.293,5.724z"/>
	<path fill="#00A79D" d="M237.908,6.421l-0.318-3.504l1.186-0.107c0.287-0.026,0.538-0.002,0.751,0.07
		c0.213,0.073,0.383,0.19,0.509,0.35s0.199,0.362,0.222,0.606c0.021,0.24-0.015,0.451-0.109,0.633
		c-0.094,0.182-0.24,0.328-0.437,0.438s-0.439,0.179-0.726,0.205l-1.131,0.103l0.041-0.049l0.113,1.247L237.908,6.421z
		 M237.894,5.156l-0.049-0.036l1.141-0.104c0.411-0.038,0.716-0.159,0.916-0.363c0.2-0.205,0.285-0.474,0.255-0.808
		c-0.031-0.337-0.163-0.587-0.396-0.751c-0.233-0.164-0.556-0.227-0.966-0.189l-1.142,0.104l0.042-0.044L237.894,5.156z"/>
	<path fill="#00A79D" d="M241.492,6.01l2.235-0.173l0.007,0.095l-2.335,0.181l-0.272-3.508l2.26-0.175l0.007,0.095l-2.16,0.167
		L241.492,6.01z M241.333,4.278l1.959-0.152l0.007,0.095l-1.959,0.152L241.333,4.278z"/>
	<path fill="#00A79D" d="M244.738,5.864l-0.23-3.511l0.101-0.007l0.224,3.416l2.091-0.137l0.006,0.095L244.738,5.864z"/>
	<path fill="#00A79D" d="M248.993,5.623c-0.258,0.014-0.499-0.018-0.722-0.095c-0.224-0.077-0.421-0.192-0.592-0.344
		s-0.307-0.333-0.409-0.542c-0.102-0.209-0.159-0.441-0.173-0.695s0.019-0.491,0.098-0.71c0.079-0.219,0.195-0.413,0.349-0.582
		c0.154-0.169,0.338-0.304,0.552-0.404c0.214-0.101,0.451-0.158,0.708-0.171c0.23-0.012,0.452,0.013,0.663,0.076
		s0.396,0.165,0.555,0.308l-0.057,0.073c-0.169-0.145-0.35-0.245-0.544-0.298c-0.194-0.053-0.398-0.074-0.612-0.063
		c-0.241,0.013-0.463,0.068-0.666,0.164c-0.203,0.096-0.377,0.225-0.523,0.385c-0.146,0.161-0.256,0.344-0.331,0.551
		c-0.074,0.207-0.105,0.429-0.093,0.667c0.013,0.238,0.067,0.456,0.163,0.653c0.096,0.198,0.226,0.369,0.387,0.513
		c0.162,0.144,0.349,0.253,0.561,0.328c0.212,0.074,0.438,0.105,0.68,0.092c0.214-0.012,0.415-0.055,0.602-0.13
		c0.187-0.075,0.357-0.194,0.509-0.357l0.064,0.067c-0.143,0.158-0.315,0.281-0.519,0.367C249.441,5.561,249.224,5.61,248.993,5.623
		z"/>
	<path fill="#00A79D" d="M252.488,5.465c-0.258,0.01-0.499-0.025-0.721-0.105s-0.418-0.198-0.587-0.352s-0.302-0.337-0.401-0.548
		s-0.153-0.443-0.163-0.698s0.026-0.491,0.108-0.708s0.201-0.41,0.357-0.577s0.342-0.299,0.558-0.396s0.453-0.15,0.71-0.161
		c0.258-0.01,0.498,0.025,0.721,0.105c0.223,0.081,0.418,0.198,0.587,0.352c0.168,0.154,0.302,0.337,0.401,0.548
		c0.099,0.211,0.153,0.443,0.163,0.698c0.01,0.255-0.026,0.491-0.108,0.708s-0.201,0.41-0.357,0.577s-0.342,0.299-0.558,0.396
		S252.746,5.456,252.488,5.465z M252.484,5.37c0.241-0.009,0.464-0.06,0.668-0.151c0.205-0.092,0.381-0.217,0.529-0.375
		c0.148-0.158,0.261-0.34,0.339-0.546c0.077-0.206,0.111-0.429,0.102-0.67c-0.009-0.241-0.061-0.461-0.154-0.66
		c-0.093-0.199-0.22-0.372-0.379-0.519c-0.16-0.146-0.345-0.257-0.556-0.333s-0.437-0.109-0.678-0.1s-0.464,0.06-0.668,0.151
		c-0.204,0.092-0.38,0.217-0.528,0.375c-0.148,0.158-0.261,0.34-0.339,0.546c-0.078,0.206-0.111,0.429-0.102,0.67
		c0.009,0.241,0.061,0.461,0.153,0.66c0.093,0.2,0.22,0.372,0.38,0.519c0.16,0.146,0.345,0.258,0.556,0.333
		S252.243,5.379,252.484,5.37z"/>
	<path fill="#00A79D" d="M256.482,5.322l-0.063-3.518l1.332-0.024c0.372-0.006,0.698,0.064,0.979,0.211s0.5,0.352,0.66,0.614
		c0.159,0.262,0.241,0.563,0.247,0.901c0.006,0.338-0.065,0.641-0.215,0.909c-0.149,0.267-0.362,0.479-0.637,0.637
		c-0.275,0.157-0.599,0.239-0.971,0.246L256.482,5.322z M256.581,5.225l1.221-0.022c0.358-0.006,0.669-0.084,0.931-0.232
		c0.262-0.149,0.463-0.35,0.603-0.602s0.207-0.539,0.201-0.861c-0.005-0.321-0.083-0.606-0.231-0.853
		c-0.148-0.247-0.356-0.44-0.624-0.579c-0.267-0.14-0.58-0.206-0.938-0.2l-1.221,0.022L256.581,5.225z"/>
	<path fill="#00A79D" d="M262.069,5.271c-0.258,0.004-0.498-0.036-0.718-0.122c-0.221-0.085-0.414-0.207-0.579-0.365
		s-0.295-0.343-0.389-0.557c-0.094-0.213-0.143-0.447-0.147-0.701c-0.004-0.254,0.037-0.49,0.124-0.706s0.21-0.406,0.371-0.569
		c0.16-0.163,0.349-0.291,0.567-0.384c0.218-0.092,0.456-0.14,0.714-0.145c0.258-0.004,0.497,0.036,0.718,0.122
		c0.221,0.085,0.414,0.207,0.579,0.365s0.294,0.344,0.388,0.557s0.143,0.447,0.146,0.701c0.004,0.255-0.037,0.49-0.123,0.706
		c-0.088,0.216-0.211,0.405-0.371,0.569c-0.16,0.164-0.349,0.292-0.567,0.384S262.327,5.267,262.069,5.271z M262.067,5.176
		c0.241-0.004,0.465-0.05,0.671-0.137c0.207-0.087,0.386-0.208,0.537-0.363c0.151-0.155,0.269-0.334,0.351-0.539
		c0.082-0.204,0.121-0.427,0.117-0.668s-0.051-0.462-0.139-0.664c-0.089-0.201-0.211-0.377-0.369-0.527
		c-0.156-0.15-0.339-0.265-0.548-0.346c-0.209-0.08-0.434-0.118-0.675-0.114s-0.465,0.049-0.671,0.136
		c-0.207,0.087-0.385,0.208-0.537,0.363c-0.151,0.155-0.269,0.334-0.351,0.539s-0.121,0.427-0.117,0.668s0.05,0.462,0.139,0.664
		c0.089,0.201,0.211,0.377,0.368,0.527c0.156,0.15,0.339,0.265,0.548,0.346C261.601,5.141,261.826,5.18,262.067,5.176z"/>
	<path fill="#00A79D" d="M266.254,5.297c-0.258-0.004-0.496-0.053-0.714-0.145c-0.219-0.092-0.407-0.22-0.567-0.384
		c-0.16-0.163-0.283-0.353-0.37-0.569s-0.128-0.451-0.124-0.706c0.004-0.255,0.053-0.489,0.146-0.702
		c0.095-0.213,0.224-0.398,0.389-0.557s0.358-0.28,0.579-0.365c0.221-0.085,0.46-0.125,0.719-0.122
		c0.23,0.004,0.449,0.044,0.656,0.122c0.206,0.077,0.384,0.192,0.532,0.345l-0.062,0.069c-0.158-0.157-0.332-0.268-0.522-0.335
		c-0.189-0.067-0.392-0.102-0.606-0.105c-0.241-0.004-0.467,0.035-0.676,0.117s-0.392,0.198-0.548,0.348
		c-0.157,0.15-0.279,0.326-0.368,0.527s-0.135,0.421-0.139,0.659s0.035,0.459,0.117,0.663s0.199,0.383,0.351,0.539
		c0.151,0.155,0.331,0.276,0.537,0.365s0.43,0.135,0.671,0.139c0.215,0.003,0.418-0.026,0.61-0.088
		c0.191-0.063,0.369-0.169,0.532-0.321l0.06,0.071c-0.153,0.148-0.334,0.258-0.543,0.331C266.705,5.267,266.484,5.301,266.254,5.297
		z"/>
	<path fill="#00A79D" d="M268.392,5.318l0.093-3.517l0.101,0.002l-0.093,3.517L268.392,5.318z M268.496,4.405L268.5,4.27
		l2.466-2.404l0.136,0.004l-1.62,1.581l-0.062,0.054L268.496,4.405z M270.989,5.386l-1.623-1.938l0.077-0.063l1.682,2.005
		L270.989,5.386z"/>
	<path fill="#00A79D" d="M271.867,5.419l0.125-3.516l0.101,0.003l-0.125,3.516L271.867,5.419z"/>
	<path fill="#00A79D" d="M273.293,5.47l0.162-3.514l0.086,0.004l2.474,3.521l-0.056-0.002l0.157-3.399l0.101,0.005l-0.163,3.515
		l-0.085-0.004l-2.474-3.521l0.056,0.003l-0.157,3.399L273.293,5.47z"/>
	<path fill="#00A79D" d="M278.824,5.774c-0.261-0.016-0.499-0.075-0.715-0.177c-0.215-0.102-0.399-0.239-0.554-0.409
		c-0.154-0.171-0.27-0.366-0.347-0.585s-0.107-0.457-0.092-0.711c0.016-0.254,0.075-0.485,0.179-0.694s0.242-0.388,0.416-0.538
		s0.373-0.263,0.6-0.338s0.47-0.104,0.73-0.088c0.237,0.015,0.458,0.065,0.663,0.151c0.204,0.086,0.377,0.21,0.519,0.37
		l-0.064,0.066c-0.151-0.164-0.321-0.283-0.51-0.359c-0.188-0.075-0.393-0.12-0.613-0.133c-0.244-0.015-0.474,0.014-0.688,0.086
		c-0.214,0.073-0.404,0.18-0.568,0.323c-0.165,0.143-0.297,0.313-0.395,0.509c-0.098,0.197-0.153,0.415-0.168,0.652
		c-0.015,0.238,0.014,0.46,0.087,0.667c0.073,0.208,0.183,0.393,0.328,0.554c0.146,0.162,0.321,0.292,0.525,0.39
		c0.203,0.098,0.428,0.155,0.672,0.17c0.221,0.014,0.431-0.007,0.631-0.062c0.199-0.055,0.381-0.154,0.544-0.299l0.056,0.079
		c-0.159,0.141-0.347,0.243-0.56,0.306C279.287,5.765,279.062,5.789,278.824,5.774z M279.966,5.391l0.079-1.284l0.095,0.006
		l-0.079,1.284L279.966,5.391z"/>
	<path fill="#00A79D" d="M282.485,6.01l0.284-3.507l1.187,0.096c0.288,0.023,0.53,0.089,0.729,0.198
		c0.197,0.108,0.345,0.252,0.441,0.431s0.135,0.391,0.115,0.635c-0.02,0.24-0.092,0.442-0.216,0.605s-0.292,0.282-0.505,0.357
		s-0.463,0.101-0.75,0.078l-1.133-0.092l0.049-0.042l-0.101,1.248L282.485,6.01z M282.688,4.761l-0.042-0.044l1.143,0.092
		c0.41,0.033,0.732-0.034,0.964-0.202c0.232-0.168,0.362-0.419,0.389-0.753c0.027-0.337-0.061-0.606-0.263-0.808
		s-0.509-0.318-0.919-0.352l-1.143-0.093l0.049-0.036L282.688,4.761z M284.976,6.212l-0.814-1.347l0.126,0.01l0.813,1.346
		L284.976,6.212z"/>
	<path fill="#00A79D" d="M286.059,6.311l0.317-3.504l0.1,0.009l-0.317,3.504L286.059,6.311z"/>
	<path fill="#00A79D" d="M287.475,6.439l0.354-3.5l0.085,0.009l2.277,3.651l-0.055-0.005l0.343-3.385l0.101,0.01l-0.355,3.5
		l-0.085-0.009l-2.277-3.651l0.056,0.006l-0.344,3.385L287.475,6.439z"/>
	<path fill="#00A79D" d="M292.988,7.047c-0.26-0.03-0.494-0.103-0.703-0.216s-0.386-0.26-0.53-0.439s-0.249-0.38-0.314-0.604
		c-0.064-0.224-0.082-0.462-0.053-0.715s0.102-0.48,0.217-0.683c0.114-0.202,0.263-0.374,0.444-0.515s0.388-0.242,0.618-0.305
		c0.229-0.063,0.475-0.079,0.734-0.048c0.236,0.028,0.454,0.09,0.653,0.188s0.365,0.23,0.497,0.397l-0.067,0.063
		c-0.143-0.171-0.305-0.3-0.489-0.386c-0.184-0.086-0.386-0.142-0.605-0.167c-0.243-0.029-0.474-0.013-0.691,0.048
		s-0.413,0.158-0.585,0.291c-0.173,0.133-0.313,0.295-0.422,0.487s-0.176,0.405-0.204,0.642c-0.027,0.236-0.011,0.46,0.051,0.671
		c0.062,0.211,0.16,0.402,0.298,0.571c0.137,0.169,0.304,0.309,0.502,0.418c0.198,0.109,0.419,0.178,0.662,0.207
		c0.22,0.026,0.431,0.017,0.633-0.027c0.202-0.044,0.39-0.133,0.561-0.269l0.051,0.082c-0.167,0.132-0.359,0.224-0.576,0.274
		C293.451,7.063,293.225,7.075,292.988,7.047z M294.149,6.728l0.149-1.278l0.095,0.011l-0.149,1.278L294.149,6.728z"/>
</g>
<g>
</g>
<g>
</g>
<g>
</g>
<g>
</g>
<g>
</g>
<g>
</g>
</svg>
