<?xml version="1.0" encoding="utf-8"?>
<!-- Generator: Adobe Illustrator 16.0.0, SVG Export Plug-In . SVG Version: 6.00 Build 0)  -->
<!DOCTYPE svg PUBLIC "-//W3C//DTD SVG 1.1//EN" "http://www.w3.org/Graphics/SVG/1.1/DTD/svg11.dtd">
<svg version="1.1" id="Layer_1" xmlns="http://www.w3.org/2000/svg" xmlns:xlink="http://www.w3.org/1999/xlink" x="0px" y="0px"
	 width="525.18px" height="525.18px" viewBox="0 0 525.18 525.18" enable-background="new 0 0 525.18 525.18" xml:space="preserve">
<path fill="none" stroke="#2BB673" stroke-width="2" stroke-miterlimit="10" d="M100.005,260.372
	c0.578-43.225,18.023-82.379,46.054-111.18"/>
<path fill="none" stroke="#2BB673" stroke-width="2" stroke-miterlimit="10" d="M146.059,375.985
	c-28.027-28.798-45.475-67.951-46.053-111.18"/>
<path fill="none" stroke="#2BB673" stroke-width="2" stroke-miterlimit="10" d="M260.369,425.175
	c-43.229-0.577-82.386-18.027-111.185-46.063"/>
<path fill="none" stroke="#2BB673" stroke-width="2" stroke-miterlimit="10" d="M375.986,379.123
	c-28.799,28.029-67.954,45.473-111.18,46.051"/>
<path fill="none" stroke="#2BB673" stroke-width="2" stroke-miterlimit="10" d="M425.175,264.807
	c-0.577,43.226-18.022,82.381-46.054,111.18"/>
<path fill="none" stroke="#2BB673" stroke-width="2" stroke-miterlimit="10" d="M379.116,149.19
	c28.031,28.797,45.479,67.954,46.059,111.181"/>
<path fill="none" stroke="#2BB673" stroke-width="2" stroke-miterlimit="10" d="M264.806,100.005
	c43.226,0.578,82.375,18.02,111.176,46.047"/>
<path fill="none" stroke="#2BB673" stroke-width="2" stroke-miterlimit="10" d="M149.194,146.06
	c28.798-28.031,67.953-45.476,111.178-46.054"/>
<circle fill="none" stroke="#2BB673" stroke-width="0.5" stroke-miterlimit="10" cx="262.59" cy="262.59" r="157.978"/>
<line fill="none" stroke="#2BB673" stroke-width="0.5" stroke-miterlimit="10" x1="255.938" y1="94.357" x2="255.938" y2="109.508"/>
<line fill="none" stroke="#2BB673" stroke-width="0.5" stroke-miterlimit="10" x1="269.333" y1="94.357" x2="269.333" y2="109.508"/>
<line fill="none" stroke="#2BB673" stroke-width="0.5" stroke-miterlimit="10" x1="138.927" y1="376.844" x2="149.641" y2="366.131"/>
<line fill="none" stroke="#2BB673" stroke-width="0.5" stroke-miterlimit="10" x1="148.399" y1="386.317" x2="159.113" y2="375.604"/>
<line fill="none" stroke="#2BB673" stroke-width="0.5" stroke-miterlimit="10" x1="376.844" y1="386.252" x2="366.131" y2="375.539"/>
<line fill="none" stroke="#2BB673" stroke-width="0.5" stroke-miterlimit="10" x1="386.315" y1="376.782" x2="375.602" y2="366.065"/>
<path opacity="0.4" fill="#2BB673" stroke="#2BB673" stroke-miterlimit="10" d="M448.066,262.59
	c0,102.434-83.041,185.477-185.477,185.477c-102.437,0-185.477-83.043-185.477-185.477c0-102.438,83.041-185.477,185.477-185.477
	C365.025,77.113,448.066,160.152,448.066,262.59z M262.59,12.813c-137.947,0-249.776,111.829-249.776,249.776
	c0,137.946,111.829,249.777,249.776,249.777c137.946,0,249.776-111.831,249.776-249.777
	C512.366,124.643,400.536,12.813,262.59,12.813z"/>
<circle fill="none" stroke="#2BB673" stroke-miterlimit="10" cx="262.59" cy="262.59" r="195.823"/>
<line fill="none" stroke="#2BB673" stroke-width="0.5" stroke-miterlimit="10" x1="138.927" y1="148.334" x2="149.641" y2="159.048"/>
<line fill="none" stroke="#2BB673" stroke-width="0.5" stroke-miterlimit="10" x1="148.399" y1="138.863" x2="159.113" y2="149.577"/>
<line fill="none" stroke="#2BB673" stroke-width="0.5" stroke-miterlimit="10" x1="94.357" y1="269.241" x2="109.508" y2="269.241"/>
<line fill="none" stroke="#2BB673" stroke-width="0.5" stroke-miterlimit="10" x1="94.357" y1="255.847" x2="109.508" y2="255.847"/>
<line fill="none" stroke="#2BB673" stroke-width="0.5" stroke-miterlimit="10" x1="376.844" y1="138.927" x2="366.131" y2="149.641"/>
<line fill="none" stroke="#2BB673" stroke-width="0.5" stroke-miterlimit="10" x1="386.317" y1="148.399" x2="375.604" y2="159.113"/>
<line fill="none" stroke="#2BB673" stroke-width="0.5" stroke-miterlimit="10" x1="430.822" y1="255.938" x2="415.67" y2="255.938"/>
<line fill="none" stroke="#2BB673" stroke-width="0.5" stroke-miterlimit="10" x1="430.822" y1="269.333" x2="415.67" y2="269.333"/>
<line fill="none" stroke="#2BB673" stroke-width="0.5" stroke-miterlimit="10" x1="269.241" y1="430.822" x2="269.241" y2="415.67"/>
<line fill="none" stroke="#2BB673" stroke-width="0.5" stroke-miterlimit="10" x1="255.847" y1="430.822" x2="255.847" y2="415.67"/>
<path fill="none" stroke="#2BB673" stroke-width="0.5" stroke-miterlimit="10" d="M262.59,262.59"/>
<path opacity="0.4" fill="#2BB673" stroke="#2BB673" stroke-width="0.5" stroke-miterlimit="10" d="M517.54,262.59
	c0,140.803-114.147,254.95-254.95,254.95c-140.804,0-254.949-114.147-254.949-254.95C7.641,121.786,121.786,7.642,262.59,7.642
	C403.393,7.642,517.54,121.786,517.54,262.59z M262.59,0.25C117.704,0.25,0.25,117.704,0.25,262.59
	c0,144.885,117.454,262.34,262.34,262.34c144.885,0,262.34-117.455,262.34-262.34C524.93,117.704,407.475,0.25,262.59,0.25z"/>
<path fill="none" stroke="#2BB673" stroke-width="0.5" stroke-miterlimit="10" d="M272.774,439.067"/>
<path fill="none" stroke="#2BB673" stroke-width="0.5" stroke-miterlimit="10" d="M253.375,439.067"/>
<line fill="none" stroke="#2BB673" stroke-miterlimit="10" x1="262.586" y1="428.468" x2="262.586" y2="445.512"/>
<path fill="#2BB673" stroke="#2BB673" stroke-width="0.5" stroke-miterlimit="10" d="M269.012,439.043
	c0.209-0.648,0.321-1.313,0.321-2.031c0-3.725-3.019-6.745-6.743-6.745c-3.726,0-6.745,3.021-6.745,6.745
	c0,0.695,0.106,1.396,0.303,2.031H269.012z"/>
<path fill="#2BB673" stroke="#2BB673" stroke-miterlimit="10" d="M269.328,441.771c-3.372,0-3.016,3.74-6.742,3.74
	c-3.725,0-3.37-3.74-6.741-3.74h13.396"/>
<line opacity="0.5" fill="none" stroke="#2BB673" stroke-width="2" stroke-miterlimit="10" x1="198.835" y1="112.962" x2="189.828" y2="91.937"/>
<line opacity="0.5" fill="none" stroke="#2BB673" stroke-width="2" stroke-miterlimit="10" x1="92.371" y1="336.377" x2="113.407" y2="327.365"/>
<line opacity="0.5" fill="none" stroke="#2BB673" stroke-width="2" stroke-miterlimit="10" x1="90.218" y1="193.975" x2="111.46" y2="202.475"/>
<line opacity="0.5" fill="none" stroke="#2BB673" stroke-width="2" stroke-miterlimit="10" x1="196.249" y1="114.096" x2="186.876" y2="93.223"/>
<line opacity="0.5" fill="none" stroke="#2BB673" stroke-width="2" stroke-miterlimit="10" x1="93.676" y1="339.313" x2="114.552" y2="329.938"/>
<line opacity="0.5" fill="none" stroke="#2BB673" stroke-width="2" stroke-miterlimit="10" x1="89.052" y1="196.976" x2="110.438" y2="205.107"/>
<line opacity="0.5" fill="none" stroke="#2BB673" stroke-width="2" stroke-miterlimit="10" x1="201.429" y1="111.883" x2="192.782" y2="90.699"/>
<line opacity="0.5" fill="none" stroke="#2BB673" stroke-width="2" stroke-miterlimit="10" x1="91.125" y1="333.436" x2="112.312" y2="324.786"/>
<line opacity="0.5" fill="none" stroke="#2BB673" stroke-width="2" stroke-miterlimit="10" x1="91.422" y1="191.007" x2="112.527" y2="199.876"/>
<line opacity="0.5" fill="none" stroke="#2BB673" stroke-width="2" stroke-miterlimit="10" x1="432.653" y1="336.377" x2="411.617" y2="327.365"/>
<line opacity="0.5" fill="none" stroke="#2BB673" stroke-width="2" stroke-miterlimit="10" x1="434.807" y1="193.975" x2="413.564" y2="202.475"/>
<line opacity="0.5" fill="none" stroke="#2BB673" stroke-width="2" stroke-miterlimit="10" x1="431.349" y1="339.313" x2="410.473" y2="329.938"/>
<line opacity="0.5" fill="none" stroke="#2BB673" stroke-width="2" stroke-miterlimit="10" x1="435.973" y1="196.976" x2="414.587" y2="205.107"/>
<line opacity="0.5" fill="none" stroke="#2BB673" stroke-width="2" stroke-miterlimit="10" x1="433.9" y1="333.436" x2="412.713" y2="324.786"/>
<line opacity="0.5" fill="none" stroke="#2BB673" stroke-width="2" stroke-miterlimit="10" x1="433.603" y1="191.007" x2="412.497" y2="199.876"/>
<line opacity="0.5" fill="none" stroke="#2BB673" stroke-width="2" stroke-miterlimit="10" x1="328.189" y1="411.84" x2="337.197" y2="432.865"/>
<line opacity="0.5" fill="none" stroke="#2BB673" stroke-width="2" stroke-miterlimit="10" x1="330.775" y1="410.706" x2="340.148" y2="431.579"/>
<line opacity="0.5" fill="none" stroke="#2BB673" stroke-width="2" stroke-miterlimit="10" x1="325.596" y1="412.919" x2="334.242" y2="434.103"/>
<line opacity="0.5" fill="none" stroke="#2BB673" stroke-width="2" stroke-miterlimit="10" x1="323.449" y1="111.998" x2="331.946" y2="90.761"/>
<line opacity="0.5" fill="none" stroke="#2BB673" stroke-width="2" stroke-miterlimit="10" x1="320.818" y1="110.971" x2="328.949" y2="89.584"/>
<line opacity="0.5" fill="none" stroke="#2BB673" stroke-width="2" stroke-miterlimit="10" x1="326.046" y1="113.068" x2="334.91" y2="91.975"/>
<line opacity="0.5" fill="none" stroke="#2BB673" stroke-width="2" stroke-miterlimit="10" x1="203.576" y1="413.803" x2="195.079" y2="435.041"/>
<line opacity="0.5" fill="none" stroke="#2BB673" stroke-width="2" stroke-miterlimit="10" x1="206.207" y1="414.83" x2="198.075" y2="436.217"/>
<line opacity="0.5" fill="none" stroke="#2BB673" stroke-width="2" stroke-miterlimit="10" x1="200.979" y1="412.732" x2="192.114" y2="433.826"/>
<polygon opacity="0.5" fill="#2BB673" points="252.59,12.59 252.59,8.012 263.167,7.834 272.59,8.027 272.59,12.559 263.121,12.371 
	"/>
<polygon opacity="0.5" fill="#2BB673" points="272.59,512.59 272.59,517.168 262.012,517.346 252.59,517.152 252.59,512.621 
	262.059,512.809 "/>
<polygon opacity="0.5" fill="#2BB673" points="512.59,252.59 517.168,252.59 517.346,263.167 517.152,272.59 512.621,272.59 
	512.809,263.121 "/>
<polygon opacity="0.5" fill="#2BB673" points="12.59,272.59 8.012,272.59 7.834,262.012 8.027,252.59 12.559,252.59 12.371,262.059 
	"/>
<polygon opacity="0.5" fill="#2BB673" points="78.741,92.884 75.505,89.647 82.858,82.042 89.657,75.516 92.862,78.72 
	86.034,85.283 "/>
<polygon opacity="0.5" fill="#2BB673" points="432.295,78.741 435.533,75.505 443.138,82.858 449.664,89.657 446.459,92.862 
	439.896,86.034 "/>
<polygon opacity="0.5" fill="#2BB673" points="446.439,432.295 449.676,435.533 442.322,443.138 435.523,449.664 432.318,446.459 
	439.146,439.896 "/>
<polygon opacity="0.5" fill="#2BB673" points="92.884,446.439 89.647,449.676 82.042,442.322 75.516,435.523 78.72,432.318 
	85.283,439.146 "/>
<path fill="none" stroke="#000000" stroke-miterlimit="10" d="M195.084,96.341"/>
<path fill="none" stroke="#000000" stroke-miterlimit="10" d="M225.706,69.774"/>
<path opacity="0.5" fill="#2BB673" d="M236.648,79.14c11.358-1.384,17.882-1.696,25.92-1.766c9.493-0.082,16.603,0.34,25.712,1.674
	l-4.338,4.663c-7.712-0.936-13.354-1.405-21.331-1.337c-6.501,0.057-15.138,0.474-21.455,1.197L236.648,79.14z"/>
<line fill="none" stroke="#2BB673" stroke-miterlimit="10" x1="169.491" y1="169.492" x2="138.895" y2="138.896"/>
<circle fill="none" stroke="#2BB673" stroke-miterlimit="10" cx="262.59" cy="262.591" r="131.667"/>
<line fill="none" stroke="#2BB673" stroke-width="0.25" stroke-miterlimit="10" x1="262.59" y1="390.226" x2="262.59" y2="386.174"/>
<line fill="none" stroke="#2BB673" stroke-miterlimit="10" x1="262.59" y1="433.826" x2="262.59" y2="390.226"/>
<line fill="none" stroke="#2BB673" stroke-miterlimit="10" x1="262.59" y1="130.929" x2="262.59" y2="87.659"/>
<line fill="none" stroke="#2BB673" stroke-miterlimit="10" x1="355.689" y1="169.492" x2="386.286" y2="138.896"/>
<line fill="none" stroke="#2BB673" stroke-miterlimit="10" x1="130.928" y1="262.591" x2="87.659" y2="262.591"/>
<line fill="none" stroke="#2BB673" stroke-miterlimit="10" x1="169.491" y1="355.69" x2="138.895" y2="386.287"/>
<line fill="none" stroke="#2BB673" stroke-miterlimit="10" x1="355.689" y1="355.689" x2="386.285" y2="386.286"/>
<line fill="none" stroke="#2BB673" stroke-miterlimit="10" x1="394.252" y1="262.591" x2="437.521" y2="262.591"/>
<path fill="none" stroke="#2BB673" stroke-miterlimit="10" d="M311.938,380.336c-15.181,6.37-31.854,9.89-49.348,9.89
	c-15.592,0-30.531-2.796-44.343-7.913"/>
<circle fill="none" stroke="#2BB673" stroke-width="0.25" stroke-miterlimit="10" cx="262.59" cy="385.174" r="1"/>
<g>
</g>
<g>
</g>
<g>
</g>
<g>
</g>
<g>
</g>
<g>
</g>
</svg>
