<?xml version="1.0" encoding="utf-8"?>
<!-- Generator: Adobe Illustrator 16.0.0, SVG Export Plug-In . SVG Version: 6.00 Build 0)  -->
<!DOCTYPE svg PUBLIC "-//W3C//DTD SVG 1.1//EN" "http://www.w3.org/Graphics/SVG/1.1/DTD/svg11.dtd">
<svg version="1.1" id="Layer_1" xmlns="http://www.w3.org/2000/svg" xmlns:xlink="http://www.w3.org/1999/xlink" x="0px" y="0px"
	 width="525.18px" height="526.509px" viewBox="0 0 525.18 526.509" enable-background="new 0 0 525.18 526.509"
	 xml:space="preserve">
<path fill="none" stroke="#2BB673" stroke-width="2" stroke-miterlimit="10" d="M100.005,261.701
	c0.578-43.225,18.023-82.379,46.054-111.18"/>
<path fill="none" stroke="#2BB673" stroke-width="2" stroke-miterlimit="10" d="M146.059,377.314
	c-28.027-28.798-45.475-67.951-46.053-111.18"/>
<path fill="none" stroke="#2BB673" stroke-width="2" stroke-miterlimit="10" d="M260.369,426.504
	c-43.229-0.577-82.386-18.027-111.185-46.063"/>
<path fill="none" stroke="#2BB673" stroke-width="2" stroke-miterlimit="10" d="M375.986,380.452
	c-28.799,28.029-67.954,45.473-111.18,46.051"/>
<path fill="none" stroke="#2BB673" stroke-width="2" stroke-miterlimit="10" d="M425.175,266.136
	c-0.577,43.226-18.022,82.381-46.054,111.18"/>
<path fill="none" stroke="#2BB673" stroke-width="2" stroke-miterlimit="10" d="M379.116,150.52
	c28.031,28.797,45.479,67.954,46.059,111.181"/>
<path fill="none" stroke="#2BB673" stroke-width="2" stroke-miterlimit="10" d="M264.806,101.334
	c43.226,0.578,82.375,18.02,111.176,46.047"/>
<path fill="none" stroke="#2BB673" stroke-width="2" stroke-miterlimit="10" d="M149.194,147.389
	c28.798-28.031,67.953-45.476,111.178-46.054"/>
<circle fill="none" stroke="#2BB673" stroke-width="0.5" stroke-miterlimit="10" cx="262.59" cy="263.919" r="157.978"/>
<line fill="none" stroke="#2BB673" stroke-width="0.5" stroke-miterlimit="10" x1="255.938" y1="95.686" x2="255.938" y2="110.837"/>
<line fill="none" stroke="#2BB673" stroke-width="0.5" stroke-miterlimit="10" x1="269.333" y1="95.686" x2="269.333" y2="110.837"/>
<line fill="none" stroke="#2BB673" stroke-width="0.5" stroke-miterlimit="10" x1="138.927" y1="378.173" x2="149.641" y2="367.46"/>
<line fill="none" stroke="#2BB673" stroke-width="0.5" stroke-miterlimit="10" x1="148.399" y1="387.646" x2="159.113" y2="376.933"/>
<line fill="none" stroke="#2BB673" stroke-width="0.5" stroke-miterlimit="10" x1="376.844" y1="387.581" x2="366.131" y2="376.868"/>
<line fill="none" stroke="#2BB673" stroke-width="0.5" stroke-miterlimit="10" x1="386.315" y1="378.111" x2="375.602" y2="367.395"/>
<path opacity="0.4" fill="#2BB673" stroke="#2BB673" stroke-miterlimit="10" d="M448.066,263.919
	c0,102.434-83.041,185.477-185.477,185.477c-102.437,0-185.477-83.043-185.477-185.477c0-102.438,83.041-185.477,185.477-185.477
	C365.025,78.442,448.066,161.481,448.066,263.919z M262.59,14.143c-137.947,0-249.776,111.829-249.776,249.776
	c0,137.946,111.829,249.777,249.776,249.777c137.946,0,249.776-111.831,249.776-249.777
	C512.366,125.972,400.536,14.143,262.59,14.143z"/>
<circle fill="none" stroke="#2BB673" stroke-miterlimit="10" cx="262.59" cy="263.919" r="195.823"/>
<line fill="none" stroke="#2BB673" stroke-width="0.5" stroke-miterlimit="10" x1="138.927" y1="149.664" x2="149.641" y2="160.377"/>
<line fill="none" stroke="#2BB673" stroke-width="0.5" stroke-miterlimit="10" x1="148.399" y1="140.192" x2="159.113" y2="150.906"/>
<line fill="none" stroke="#2BB673" stroke-width="0.5" stroke-miterlimit="10" x1="94.357" y1="270.57" x2="109.508" y2="270.57"/>
<line fill="none" stroke="#2BB673" stroke-width="0.5" stroke-miterlimit="10" x1="94.357" y1="257.176" x2="109.508" y2="257.176"/>
<line fill="none" stroke="#2BB673" stroke-width="0.5" stroke-miterlimit="10" x1="376.844" y1="140.256" x2="366.131" y2="150.97"/>
<line fill="none" stroke="#2BB673" stroke-width="0.5" stroke-miterlimit="10" x1="386.317" y1="149.729" x2="375.604" y2="160.442"/>
<line fill="none" stroke="#2BB673" stroke-width="0.5" stroke-miterlimit="10" x1="430.822" y1="257.267" x2="415.67" y2="257.267"/>
<line fill="none" stroke="#2BB673" stroke-width="0.5" stroke-miterlimit="10" x1="430.822" y1="270.662" x2="415.67" y2="270.662"/>
<line fill="none" stroke="#2BB673" stroke-width="0.5" stroke-miterlimit="10" x1="269.241" y1="432.151" x2="269.241" y2="416.999"/>
<line fill="none" stroke="#2BB673" stroke-width="0.5" stroke-miterlimit="10" x1="255.847" y1="432.151" x2="255.847" y2="416.999"/>
<path fill="none" stroke="#2BB673" stroke-width="0.5" stroke-miterlimit="10" d="M262.59,263.919"/>
<path opacity="0.4" fill="#2BB673" stroke="#2BB673" stroke-width="0.5" stroke-miterlimit="10" d="M517.54,263.919
	c0,140.803-114.147,254.95-254.95,254.95c-140.804,0-254.949-114.147-254.949-254.95C7.641,123.115,121.786,8.971,262.59,8.971
	C403.393,8.971,517.54,123.115,517.54,263.919z M262.59,1.579c-144.886,0-262.34,117.454-262.34,262.34
	c0,144.885,117.454,262.34,262.34,262.34c144.885,0,262.34-117.455,262.34-262.34C524.93,119.033,407.475,1.579,262.59,1.579z"/>
<path fill="none" stroke="#2BB673" stroke-width="0.5" stroke-miterlimit="10" d="M272.774,440.396"/>
<path fill="none" stroke="#2BB673" stroke-width="0.5" stroke-miterlimit="10" d="M253.375,440.396"/>
<line fill="none" stroke="#2BB673" stroke-miterlimit="10" x1="262.586" y1="429.797" x2="262.586" y2="446.841"/>
<path fill="#2BB673" stroke="#2BB673" stroke-width="0.5" stroke-miterlimit="10" d="M269.012,440.372
	c0.209-0.648,0.321-1.313,0.321-2.031c0-3.725-3.019-6.745-6.743-6.745c-3.726,0-6.745,3.021-6.745,6.745
	c0,0.695,0.106,1.396,0.303,2.031H269.012z"/>
<path fill="#2BB673" stroke="#2BB673" stroke-miterlimit="10" d="M269.328,443.101c-3.372,0-3.016,3.74-6.742,3.74
	c-3.725,0-3.37-3.74-6.741-3.74h13.396"/>
<g>
	<circle fill="none" cx="262.591" cy="263.919" r="257.126"/>
	<path fill="#2BB673" d="M235.848,8.217c-0.339,0.035-0.63,0.006-0.874-0.087s-0.438-0.24-0.581-0.44
		c-0.144-0.199-0.229-0.438-0.259-0.717c-0.028-0.278-0.009-0.548,0.06-0.811c0.068-0.262,0.183-0.5,0.342-0.717
		c0.16-0.216,0.364-0.394,0.61-0.533c0.248-0.14,0.535-0.227,0.863-0.261c0.262-0.027,0.496-0.014,0.706,0.042
		c0.208,0.055,0.378,0.147,0.508,0.273l-0.063,0.072c-0.134-0.123-0.296-0.209-0.487-0.258c-0.19-0.049-0.412-0.06-0.664-0.034
		c-0.302,0.032-0.569,0.114-0.805,0.245c-0.234,0.131-0.427,0.299-0.581,0.502c-0.152,0.205-0.263,0.432-0.33,0.683
		c-0.068,0.252-0.088,0.514-0.059,0.786c0.026,0.258,0.105,0.48,0.237,0.667c0.132,0.186,0.313,0.323,0.543,0.411
		c0.23,0.088,0.508,0.116,0.833,0.082c0.255-0.027,0.48-0.088,0.677-0.184c0.196-0.095,0.36-0.219,0.491-0.371l0.068,0.074
		c-0.129,0.147-0.301,0.273-0.519,0.378C236.349,8.124,236.109,8.19,235.848,8.217z"/>
	<path fill="#2BB673" d="M237.96,7.987l-0.1,0.009l0.386-3.548l0.099-0.009L237.96,7.987z M240.714,6.004l-2.59,0.231l0.012-0.096
		l2.59-0.232L240.714,6.004z M240.885,4.211l0.1-0.009L240.6,7.75l-0.1,0.009L240.885,4.211z"/>
	<path fill="#2BB673" d="M241.268,7.689l2.056-3.665l0.1-0.007l1.185,3.421l-0.104,0.008l-1.153-3.344l0.045-0.003l-2.008,3.58
		L241.268,7.689z M241.931,6.582l0.063-0.101l2.169-0.163l0.036,0.093L241.931,6.582z"/>
	<path fill="#2BB673" d="M245.322,7.404l0.451-3.542l1.172-0.083c0.369-0.026,0.661,0.035,0.878,0.182
		c0.215,0.146,0.334,0.368,0.354,0.664c0.021,0.299-0.024,0.555-0.139,0.766c-0.113,0.212-0.284,0.378-0.514,0.498
		c-0.229,0.12-0.506,0.191-0.832,0.215l-1.161,0.082l0.052-0.048l-0.162,1.259L245.322,7.404z M245.583,6.126l-0.038-0.037
		l1.137-0.081c0.473-0.033,0.831-0.166,1.075-0.396c0.244-0.232,0.352-0.559,0.321-0.98c-0.019-0.266-0.125-0.465-0.317-0.597
		c-0.193-0.131-0.462-0.186-0.804-0.161l-1.143,0.081l0.052-0.054L245.583,6.126z"/>
	<path fill="#2BB673" d="M248.912,7.069l2.229-0.085l-0.017,0.096l-2.328,0.089l0.566-3.524l2.252-0.087l-0.016,0.096l-2.153,0.083
		L248.912,7.069z M249.166,5.328l1.953-0.075l-0.016,0.096l-1.954,0.075L249.166,5.328z"/>
	<path fill="#2BB673" d="M252.125,7.025l0.57-3.524l0.099-0.003l-0.553,3.428l2.083-0.077l-0.017,0.095L252.125,7.025z"/>
	<path fill="#2BB673" d="M256.476,6.9c-0.34,0.009-0.628-0.043-0.864-0.155c-0.235-0.113-0.417-0.274-0.544-0.485
		c-0.128-0.21-0.193-0.455-0.201-0.735c-0.007-0.28,0.033-0.548,0.122-0.803c0.089-0.256,0.223-0.485,0.399-0.688
		c0.177-0.203,0.393-0.364,0.65-0.483c0.257-0.121,0.55-0.185,0.88-0.193c0.264-0.006,0.496,0.026,0.701,0.098
		c0.203,0.071,0.364,0.176,0.484,0.313l-0.067,0.067c-0.124-0.133-0.279-0.233-0.466-0.296s-0.407-0.092-0.659-0.086
		c-0.304,0.008-0.577,0.068-0.821,0.18c-0.244,0.113-0.45,0.265-0.619,0.456s-0.297,0.41-0.384,0.655
		c-0.088,0.245-0.127,0.505-0.121,0.778c0.007,0.26,0.068,0.488,0.186,0.683c0.115,0.195,0.285,0.346,0.508,0.453
		c0.224,0.106,0.498,0.155,0.824,0.147c0.257-0.007,0.486-0.05,0.689-0.13s0.377-0.19,0.52-0.33l0.063,0.078
		c-0.141,0.137-0.323,0.249-0.547,0.336C256.982,6.847,256.738,6.894,256.476,6.9z"/>
	<path fill="#2BB673" d="M259.928,6.84c-0.34,0.004-0.628-0.052-0.861-0.169c-0.234-0.116-0.414-0.28-0.538-0.492
		s-0.188-0.458-0.189-0.738c-0.004-0.28,0.041-0.547,0.134-0.801c0.092-0.254,0.228-0.482,0.405-0.682s0.395-0.358,0.649-0.474
		c0.256-0.116,0.545-0.176,0.868-0.179c0.341-0.004,0.628,0.052,0.864,0.168c0.236,0.115,0.417,0.279,0.539,0.489
		c0.121,0.21,0.184,0.458,0.187,0.74c0.003,0.28-0.042,0.547-0.134,0.802s-0.228,0.481-0.405,0.682
		c-0.178,0.201-0.395,0.359-0.65,0.474C260.54,6.777,260.25,6.837,259.928,6.84z M259.937,6.745c0.3-0.003,0.57-0.059,0.812-0.168
		c0.24-0.109,0.445-0.258,0.615-0.447c0.169-0.188,0.3-0.405,0.391-0.649c0.091-0.245,0.135-0.503,0.131-0.777
		c-0.002-0.263-0.06-0.492-0.173-0.688c-0.115-0.195-0.282-0.348-0.503-0.457c-0.222-0.109-0.495-0.163-0.821-0.159
		c-0.301,0.003-0.571,0.06-0.812,0.168c-0.24,0.109-0.445,0.258-0.615,0.446c-0.17,0.189-0.3,0.405-0.391,0.649
		c-0.091,0.244-0.135,0.503-0.132,0.776c0.003,0.261,0.061,0.489,0.174,0.686c0.114,0.198,0.281,0.351,0.503,0.46
		C259.336,6.695,259.61,6.748,259.937,6.745z"/>
	<path fill="#2BB673" d="M263.824,6.806l0.735-3.492l1.255,0.013c0.351,0.003,0.644,0.064,0.881,0.184
		c0.237,0.119,0.415,0.284,0.535,0.495c0.119,0.212,0.178,0.457,0.175,0.737c-0.004,0.303-0.058,0.583-0.161,0.838
		c-0.104,0.256-0.252,0.477-0.445,0.664c-0.192,0.186-0.422,0.33-0.692,0.43c-0.269,0.1-0.569,0.149-0.902,0.145L263.824,6.806z
		 M263.945,6.713l1.27,0.013c0.423,0.004,0.789-0.078,1.1-0.246s0.552-0.402,0.725-0.702s0.262-0.645,0.266-1.035
		c0.003-0.26-0.051-0.489-0.161-0.687c-0.108-0.198-0.274-0.353-0.497-0.462c-0.223-0.111-0.503-0.168-0.843-0.172l-1.165-0.012
		L263.945,6.713z"/>
	<path fill="#2BB673" d="M269.468,6.91c-0.34-0.009-0.625-0.076-0.855-0.2c-0.23-0.125-0.403-0.295-0.52-0.512
		s-0.171-0.464-0.163-0.744c0.007-0.28,0.062-0.546,0.164-0.796c0.102-0.251,0.245-0.473,0.43-0.667
		c0.186-0.193,0.408-0.344,0.667-0.451c0.261-0.106,0.551-0.155,0.874-0.146c0.34,0.009,0.626,0.076,0.858,0.2
		c0.231,0.124,0.405,0.294,0.52,0.509c0.113,0.215,0.168,0.464,0.16,0.747c-0.007,0.28-0.063,0.545-0.164,0.796
		s-0.245,0.473-0.43,0.667c-0.186,0.193-0.408,0.343-0.667,0.449C270.081,6.87,269.791,6.919,269.468,6.91z M269.479,6.815
		c0.301,0.008,0.572-0.038,0.816-0.138c0.244-0.101,0.455-0.242,0.631-0.423c0.178-0.183,0.314-0.394,0.415-0.634
		c0.1-0.241,0.153-0.498,0.161-0.771c0.006-0.263-0.043-0.495-0.149-0.694c-0.107-0.199-0.269-0.358-0.485-0.476
		c-0.218-0.117-0.489-0.18-0.815-0.189c-0.301-0.008-0.572,0.038-0.816,0.139c-0.244,0.1-0.455,0.241-0.631,0.423
		c-0.178,0.182-0.314,0.394-0.415,0.634c-0.1,0.241-0.153,0.498-0.161,0.771c-0.006,0.259,0.044,0.49,0.149,0.691
		c0.107,0.201,0.269,0.36,0.485,0.478C268.882,6.744,269.153,6.807,269.479,6.815z"/>
	<path fill="#2BB673" d="M273.63,7.052c-0.341-0.015-0.623-0.085-0.852-0.213c-0.229-0.128-0.398-0.301-0.512-0.52
		c-0.113-0.218-0.163-0.467-0.152-0.746c0.013-0.28,0.07-0.544,0.176-0.794c0.104-0.249,0.253-0.469,0.442-0.66
		c0.19-0.19,0.416-0.337,0.681-0.44s0.563-0.146,0.892-0.133c0.263,0.011,0.495,0.059,0.692,0.144
		c0.198,0.085,0.353,0.2,0.464,0.344l-0.072,0.062c-0.114-0.142-0.263-0.25-0.445-0.326c-0.182-0.076-0.399-0.119-0.652-0.13
		c-0.304-0.012-0.58,0.03-0.831,0.126c-0.251,0.096-0.467,0.234-0.646,0.413c-0.182,0.18-0.324,0.389-0.428,0.628
		c-0.103,0.239-0.16,0.495-0.171,0.768c-0.011,0.26,0.035,0.491,0.139,0.694c0.104,0.203,0.263,0.364,0.478,0.485
		c0.216,0.121,0.485,0.188,0.813,0.201c0.256,0.011,0.488-0.018,0.696-0.084c0.207-0.066,0.388-0.165,0.541-0.295l0.056,0.083
		c-0.148,0.128-0.338,0.227-0.567,0.299C274.14,7.032,273.893,7.063,273.63,7.052z"/>
	<path fill="#2BB673" d="M275.634,7.125l0.891-3.457l0.101,0.005l-0.891,3.456L275.634,7.125z M275.943,6.23l0.044-0.153
		l2.988-2.274l0.15,0.008l-1.991,1.513l-0.042,0.033L275.943,6.23z M278.23,7.268l-1.2-1.953l0.087-0.045l1.233,2.005L278.23,7.268z
		"/>
	<path fill="#2BB673" d="M279.109,7.324l0.925-3.447l0.1,0.006l-0.925,3.448L279.109,7.324z"/>
	<path fill="#2BB673" d="M280.52,7.413l0.962-3.438l0.083,0.006l1.672,3.525l-0.039-0.018l0.927-3.315l0.099,0.007l-0.96,3.438
		l-0.085-0.006l-1.67-3.525l0.038,0.018L280.62,7.42L280.52,7.413z"/>
	<path fill="#2BB673" d="M286.075,7.875c-0.339-0.03-0.618-0.115-0.841-0.254c-0.222-0.139-0.383-0.32-0.485-0.543
		c-0.102-0.223-0.14-0.475-0.114-0.753c0.025-0.279,0.097-0.541,0.214-0.784c0.117-0.244,0.275-0.457,0.475-0.637
		c0.198-0.182,0.433-0.317,0.702-0.406c0.269-0.089,0.568-0.119,0.896-0.089c0.267,0.024,0.5,0.084,0.699,0.181
		c0.201,0.097,0.354,0.22,0.457,0.37l-0.075,0.059c-0.107-0.147-0.254-0.264-0.438-0.351c-0.185-0.087-0.405-0.143-0.661-0.166
		c-0.301-0.027-0.58,0.001-0.834,0.085c-0.257,0.084-0.479,0.212-0.668,0.382c-0.189,0.17-0.342,0.372-0.457,0.606
		c-0.114,0.234-0.184,0.487-0.209,0.759c-0.023,0.259,0.011,0.493,0.104,0.7s0.244,0.377,0.453,0.508
		c0.21,0.131,0.477,0.211,0.803,0.241c0.234,0.021,0.449,0.002,0.646-0.058c0.194-0.059,0.373-0.148,0.537-0.268l0.044,0.079
		c-0.158,0.12-0.345,0.212-0.56,0.275C286.547,7.876,286.318,7.897,286.075,7.875z M287.227,7.528l0.368-1.251l0.096,0.008
		l-0.369,1.251L287.227,7.528z"/>
	<path fill="#2BB673" d="M289.646,8.206l1.08-3.402l1.168,0.128c0.367,0.041,0.645,0.153,0.831,0.336
		c0.186,0.184,0.262,0.422,0.23,0.717c-0.034,0.298-0.126,0.541-0.274,0.729c-0.15,0.188-0.349,0.321-0.594,0.397
		c-0.248,0.077-0.533,0.097-0.857,0.062l-1.158-0.128l0.06-0.039l-0.386,1.21L289.646,8.206z M290.133,6.996l-0.03-0.043
		l1.133,0.125c0.471,0.052,0.847-0.014,1.129-0.198c0.281-0.184,0.446-0.486,0.492-0.907c0.028-0.265-0.04-0.48-0.206-0.644
		c-0.167-0.164-0.421-0.265-0.761-0.303l-1.139-0.125l0.059-0.034L290.133,6.996z M292.128,8.478l-0.577-1.341l0.114,0.013
		l0.577,1.341L292.128,8.478z"/>
	<path fill="#2BB673" d="M293.188,8.604l1.113-3.392l0.1,0.012l-1.113,3.392L293.188,8.604z"/>
	<path fill="#2BB673" d="M294.618,8.772l1.148-3.379l0.084,0.011l1.474,3.612l-0.037-0.021l1.106-3.258l0.1,0.013l-1.148,3.379
		l-0.085-0.011l-1.473-3.611l0.038,0.02l-1.108,3.259L294.618,8.772z"/>
	<path fill="#2BB673" d="M300.153,9.544c-0.337-0.049-0.612-0.15-0.825-0.3c-0.214-0.151-0.366-0.341-0.455-0.569
		c-0.089-0.229-0.114-0.482-0.073-0.759c0.04-0.277,0.126-0.534,0.257-0.771c0.131-0.236,0.301-0.439,0.509-0.61
		c0.21-0.169,0.45-0.292,0.724-0.366c0.274-0.074,0.574-0.087,0.901-0.04c0.263,0.039,0.492,0.112,0.688,0.22
		c0.194,0.108,0.339,0.24,0.434,0.395l-0.078,0.054c-0.1-0.153-0.237-0.277-0.417-0.375s-0.396-0.164-0.65-0.201
		c-0.301-0.044-0.58-0.031-0.84,0.039s-0.488,0.184-0.688,0.343c-0.198,0.16-0.361,0.354-0.489,0.581
		c-0.127,0.227-0.212,0.476-0.251,0.746c-0.038,0.257-0.016,0.493,0.066,0.705c0.081,0.212,0.223,0.39,0.425,0.532
		c0.2,0.142,0.463,0.237,0.787,0.285c0.234,0.034,0.45,0.027,0.647-0.021c0.197-0.049,0.382-0.128,0.553-0.238l0.039,0.082
		c-0.165,0.11-0.357,0.191-0.574,0.244C300.623,9.571,300.394,9.58,300.153,9.544z M301.321,9.261l0.438-1.23l0.094,0.014
		l-0.438,1.23L301.321,9.261z"/>
</g>
<g>
	<circle fill="none" cx="262.591" cy="263.921" r="215.619"/>
	<path fill="#2BB673" d="M222.485,52.063c-0.534,0.103-1.002,0.095-1.404-0.021c-0.402-0.117-0.731-0.324-0.985-0.623
		c-0.255-0.3-0.425-0.67-0.508-1.109s-0.088-0.874-0.014-1.3c0.073-0.427,0.223-0.823,0.45-1.189
		c0.227-0.365,0.527-0.677,0.901-0.932c0.375-0.256,0.822-0.434,1.341-0.533c0.414-0.077,0.791-0.087,1.131-0.026
		c0.34,0.06,0.622,0.183,0.847,0.368l-0.09,0.123c-0.23-0.179-0.5-0.295-0.811-0.347c-0.312-0.052-0.667-0.041-1.064,0.034
		c-0.477,0.092-0.893,0.257-1.249,0.499c-0.356,0.241-0.643,0.534-0.859,0.879c-0.216,0.347-0.362,0.724-0.436,1.134
		s-0.07,0.831,0.012,1.26c0.078,0.408,0.233,0.752,0.469,1.031c0.234,0.277,0.541,0.473,0.92,0.582
		c0.379,0.11,0.825,0.116,1.339,0.019c0.403-0.077,0.755-0.205,1.055-0.384c0.3-0.179,0.544-0.397,0.734-0.655l0.118,0.106
		c-0.185,0.253-0.444,0.477-0.776,0.673S222.899,51.985,222.485,52.063z"/>
	<path fill="#2BB673" d="M225.792,51.429l-0.158,0.025l0.217-5.707l0.158-0.024L225.792,51.429z M229.965,47.955l-4.107,0.66
		l0.008-0.155l4.107-0.66L229.965,47.955z M230.037,45.075l0.158-0.025l-0.217,5.706l-0.158,0.025L230.037,45.075z"/>
	<path fill="#2BB673" d="M231.07,50.578l2.954-6.039l0.158-0.021l2.201,5.357l-0.166,0.022l-2.145-5.236l0.071-0.009l-2.883,5.899
		L231.07,50.578z M232.03,48.749l0.091-0.166l3.45-0.456l0.068,0.145L232.03,48.749z"/>
	<path fill="#2BB673" d="M237.468,49.747l0.523-5.687l1.87-0.198c0.589-0.063,1.06,0.018,1.413,0.241
		c0.354,0.222,0.556,0.569,0.605,1.041c0.05,0.478-0.009,0.889-0.179,1.234c-0.17,0.345-0.435,0.619-0.794,0.824
		c-0.359,0.203-0.798,0.334-1.318,0.389l-1.854,0.196l0.08-0.081l-0.188,2.023L237.468,49.747z M237.813,47.691l-0.063-0.058
		l1.813-0.192c0.753-0.08,1.319-0.312,1.696-0.695c0.378-0.382,0.531-0.912,0.459-1.585c-0.045-0.424-0.225-0.736-0.542-0.936
		c-0.316-0.2-0.748-0.271-1.293-0.213l-1.822,0.192l0.08-0.088L237.813,47.691z"/>
	<path fill="#2BB673" d="M243.187,49.01l3.557-0.287l-0.02,0.154l-3.716,0.3l0.666-5.672l3.596-0.291l-0.02,0.154l-3.437,0.278
		L243.187,49.01z M243.474,46.209l3.118-0.251l-0.02,0.153l-3.118,0.253L243.474,46.209z"/>
	<path fill="#2BB673" d="M248.299,48.768l0.796-5.654l0.16-0.01l-0.773,5.501l3.331-0.191l-0.023,0.153L248.299,48.768z"/>
	<path fill="#2BB673" d="M255.228,48.457c-0.543,0.02-1.005-0.059-1.385-0.236c-0.379-0.176-0.672-0.431-0.879-0.767
		c-0.207-0.333-0.317-0.725-0.333-1.172c-0.015-0.448,0.046-0.877,0.185-1.288c0.138-0.41,0.346-0.779,0.626-1.105
		c0.279-0.328,0.624-0.588,1.033-0.784c0.41-0.195,0.878-0.303,1.406-0.32c0.421-0.015,0.795,0.034,1.122,0.145
		c0.327,0.112,0.587,0.276,0.782,0.494l-0.108,0.108c-0.199-0.213-0.449-0.368-0.749-0.467c-0.3-0.1-0.652-0.143-1.057-0.129
		c-0.485,0.018-0.922,0.117-1.31,0.302c-0.389,0.186-0.716,0.43-0.984,0.738c-0.266,0.308-0.468,0.659-0.604,1.053
		c-0.136,0.396-0.197,0.811-0.181,1.248c0.014,0.415,0.116,0.779,0.306,1.09c0.189,0.312,0.463,0.55,0.821,0.716
		c0.358,0.167,0.798,0.241,1.32,0.223c0.411-0.014,0.777-0.086,1.102-0.219c0.323-0.13,0.599-0.309,0.826-0.536l0.101,0.125
		c-0.222,0.222-0.512,0.403-0.87,0.547C256.039,48.364,255.649,48.443,255.228,48.457z"/>
	<path fill="#2BB673" d="M260.759,48.343c-0.544,0.004-1.003-0.088-1.377-0.274c-0.375-0.187-0.661-0.45-0.857-0.79
		c-0.197-0.341-0.297-0.734-0.3-1.184c-0.002-0.447,0.07-0.874,0.22-1.28s0.367-0.769,0.653-1.089
		c0.286-0.318,0.633-0.571,1.043-0.754c0.41-0.185,0.873-0.278,1.39-0.282c0.544-0.003,1.004,0.089,1.382,0.275
		c0.377,0.187,0.663,0.449,0.856,0.786c0.195,0.337,0.293,0.732,0.297,1.187c0.003,0.448-0.07,0.875-0.22,1.28
		c-0.149,0.407-0.367,0.77-0.652,1.089c-0.286,0.319-0.633,0.571-1.043,0.756C261.74,48.246,261.276,48.339,260.759,48.343z
		 M260.773,48.191c0.48-0.004,0.913-0.091,1.299-0.266c0.385-0.173,0.715-0.409,0.987-0.71s0.482-0.646,0.629-1.036
		s0.218-0.804,0.216-1.242c-0.003-0.42-0.094-0.788-0.275-1.102c-0.181-0.313-0.447-0.559-0.801-0.734
		c-0.353-0.177-0.791-0.263-1.314-0.259c-0.48,0.003-0.912,0.091-1.298,0.264c-0.385,0.174-0.715,0.41-0.988,0.711
		c-0.272,0.3-0.482,0.645-0.628,1.036c-0.147,0.39-0.219,0.805-0.216,1.241c0.002,0.416,0.094,0.782,0.275,1.099
		c0.181,0.315,0.448,0.562,0.801,0.738C259.813,48.108,260.251,48.195,260.773,48.191z"/>
	<path fill="#2BB673" d="M268.406,48.417c-0.262-0.008-0.518-0.051-0.769-0.127s-0.474-0.176-0.668-0.299s-0.339-0.26-0.437-0.412
		l0.131-0.101c0.098,0.142,0.237,0.271,0.421,0.388s0.392,0.211,0.624,0.282c0.232,0.07,0.47,0.109,0.709,0.116
		c0.379,0.011,0.717-0.034,1.013-0.136c0.296-0.101,0.53-0.255,0.701-0.463c0.171-0.21,0.262-0.465,0.271-0.77
		c0.006-0.218-0.044-0.396-0.149-0.535c-0.104-0.14-0.245-0.255-0.422-0.345c-0.176-0.091-0.37-0.169-0.581-0.233
		c-0.212-0.065-0.424-0.133-0.635-0.206c-0.211-0.072-0.404-0.158-0.581-0.257c-0.176-0.098-0.316-0.227-0.421-0.384
		c-0.105-0.157-0.154-0.356-0.146-0.597c0.01-0.347,0.108-0.636,0.296-0.868c0.188-0.231,0.438-0.404,0.751-0.519
		c0.313-0.113,0.664-0.165,1.054-0.154c0.304,0.009,0.599,0.061,0.884,0.153c0.285,0.094,0.524,0.224,0.717,0.389l-0.107,0.134
		c-0.193-0.16-0.418-0.285-0.674-0.376c-0.256-0.09-0.531-0.139-0.824-0.147c-0.367-0.011-0.697,0.036-0.988,0.14
		s-0.521,0.261-0.689,0.468c-0.169,0.21-0.258,0.466-0.266,0.77c-0.007,0.219,0.043,0.399,0.148,0.541s0.245,0.258,0.422,0.352
		c0.176,0.093,0.371,0.174,0.585,0.241s0.427,0.137,0.639,0.207c0.211,0.069,0.404,0.155,0.581,0.256
		c0.176,0.101,0.315,0.228,0.421,0.38c0.104,0.153,0.153,0.349,0.147,0.589c-0.011,0.353-0.113,0.642-0.309,0.871
		c-0.196,0.23-0.455,0.398-0.775,0.506C269.158,48.38,268.801,48.428,268.406,48.417z"/>
	<path fill="#2BB673" d="M272.708,48.559l1.278-5.407l-2.08-0.073l0.037-0.15l4.318,0.151l-0.037,0.15l-2.079-0.072l-1.277,5.406
		L272.708,48.559z"/>
	<path fill="#2BB673" d="M274.743,48.635l4.103-5.325l0.16,0.011l1.084,5.691l-0.168-0.013l-1.053-5.56l0.071,0.005l-4.007,5.204
		L274.743,48.635z M276.051,47.034l0.121-0.144l3.473,0.243l0.037,0.156L276.051,47.034z"/>
	<path fill="#2BB673" d="M281.956,49.182l1.58-5.327l-2.071-0.189l0.046-0.149l4.302,0.395l-0.045,0.148l-2.072-0.189l-1.58,5.326
		L281.956,49.182z"/>
	<path fill="#2BB673" d="M285.242,49.5l1.709-5.45l0.158,0.017l-1.708,5.451L285.242,49.5z"/>
	<path fill="#2BB673" d="M289.897,50.061c-0.54-0.068-0.982-0.222-1.329-0.456c-0.346-0.234-0.595-0.534-0.744-0.897
		c-0.15-0.363-0.197-0.767-0.141-1.212c0.057-0.444,0.187-0.856,0.389-1.24c0.202-0.382,0.466-0.713,0.792-0.992
		c0.325-0.278,0.704-0.48,1.134-0.609c0.431-0.127,0.902-0.158,1.416-0.094c0.539,0.07,0.983,0.221,1.332,0.456
		c0.35,0.236,0.598,0.533,0.746,0.895c0.147,0.359,0.191,0.766,0.135,1.214c-0.057,0.445-0.186,0.859-0.389,1.242
		c-0.201,0.383-0.465,0.714-0.791,0.99c-0.326,0.279-0.704,0.483-1.135,0.61C290.882,50.095,290.411,50.126,289.897,50.061z
		 M289.933,49.911c0.477,0.061,0.917,0.031,1.321-0.089c0.406-0.12,0.764-0.312,1.074-0.573c0.31-0.261,0.563-0.575,0.762-0.942
		c0.196-0.368,0.322-0.768,0.379-1.202c0.053-0.418,0.011-0.795-0.127-1.129c-0.137-0.335-0.369-0.613-0.696-0.835
		c-0.326-0.222-0.749-0.366-1.267-0.433c-0.477-0.061-0.918-0.03-1.322,0.09c-0.405,0.12-0.764,0.312-1.073,0.573
		s-0.563,0.577-0.762,0.942c-0.196,0.368-0.323,0.77-0.378,1.202c-0.054,0.413-0.012,0.787,0.126,1.125
		c0.137,0.337,0.368,0.617,0.695,0.84C288.992,49.702,289.414,49.845,289.933,49.911z"/>
	<path fill="#2BB673" d="M294.092,50.593l1.982-5.355l0.135,0.021l2.2,5.84l-0.06-0.033l1.912-5.164l0.158,0.025l-1.982,5.355
		l-0.135-0.021l-2.201-5.84l0.061,0.033l-1.913,5.165L294.092,50.593z"/>
</g>
<g>
	<path fill="#2BB673" d="M231.387,263.944c-0.544,0-1.002-0.095-1.376-0.284c-0.373-0.189-0.657-0.455-0.852-0.796
		s-0.292-0.736-0.292-1.184c0-0.448,0.076-0.875,0.228-1.28c0.152-0.405,0.374-0.767,0.664-1.084s0.644-0.566,1.06-0.748
		c0.416-0.181,0.888-0.272,1.416-0.272c0.421,0,0.793,0.062,1.116,0.184c0.323,0.123,0.578,0.296,0.764,0.52l-0.112,0.104
		c-0.192-0.219-0.436-0.383-0.732-0.492c-0.296-0.109-0.647-0.164-1.052-0.164c-0.485,0-0.925,0.085-1.32,0.256
		c-0.395,0.17-0.731,0.405-1.008,0.704c-0.277,0.299-0.491,0.643-0.64,1.032c-0.149,0.389-0.224,0.803-0.224,1.24
		c0,0.416,0.089,0.783,0.268,1.1c0.179,0.317,0.444,0.565,0.796,0.744s0.789,0.268,1.312,0.268c0.411,0,0.78-0.06,1.108-0.18
		s0.609-0.289,0.844-0.508l0.096,0.128c-0.229,0.213-0.525,0.385-0.888,0.516C232.2,263.879,231.808,263.944,231.387,263.944z"/>
	<path fill="#2BB673" d="M234.795,263.92h-0.16l1.12-5.6h0.16L234.795,263.92z M239.467,261.152h-4.16l0.032-0.152h4.16
		L239.467,261.152z M239.995,258.32h0.16l-1.12,5.6h-0.16L239.995,258.32z"/>
	<path fill="#2BB673" d="M240.17,263.92l3.72-5.6h0.16l1.48,5.6h-0.168l-1.44-5.472h0.072l-3.632,5.472H240.17z M241.363,262.232
		l0.112-0.152h3.48l0.048,0.152H241.363z"/>
	<path fill="#2BB673" d="M246.667,263.92l1.12-5.6h1.88c0.592,0,1.052,0.129,1.38,0.388c0.328,0.259,0.492,0.625,0.492,1.1
		c0,0.48-0.103,0.882-0.308,1.208c-0.205,0.325-0.497,0.571-0.876,0.736c-0.379,0.166-0.829,0.248-1.352,0.248h-1.864l0.088-0.072
		l-0.4,1.992H246.667z M247.227,261.912l-0.056-0.064h1.824c0.757,0,1.344-0.171,1.76-0.512s0.624-0.851,0.624-1.528
		c0-0.427-0.146-0.756-0.44-0.988s-0.715-0.348-1.264-0.348h-1.832l0.088-0.08L247.227,261.912z"/>
	<path fill="#2BB673" d="M252.458,263.768h3.568l-0.032,0.152h-3.728l1.12-5.6h3.608l-0.032,0.152h-3.448L252.458,263.768z
		 M252.971,261h3.128l-0.032,0.152h-3.128L252.971,261z"/>
	<path fill="#2BB673" d="M257.611,263.92l1.12-5.6h0.16l-1.088,5.448h3.336l-0.032,0.152H257.611z"/>
	<path fill="#2BB673" d="M264.57,263.944c-0.544,0-1.002-0.095-1.376-0.284c-0.373-0.189-0.657-0.455-0.852-0.796
		s-0.292-0.736-0.292-1.184c0-0.448,0.076-0.875,0.228-1.28c0.152-0.405,0.374-0.767,0.664-1.084s0.644-0.566,1.06-0.748
		c0.416-0.181,0.889-0.272,1.416-0.272c0.422,0,0.794,0.062,1.116,0.184c0.323,0.123,0.577,0.296,0.765,0.52l-0.112,0.104
		c-0.192-0.219-0.437-0.383-0.732-0.492s-0.646-0.164-1.052-0.164c-0.485,0-0.926,0.085-1.32,0.256
		c-0.395,0.17-0.73,0.405-1.008,0.704c-0.277,0.299-0.491,0.643-0.64,1.032c-0.149,0.389-0.224,0.803-0.224,1.24
		c0,0.416,0.089,0.783,0.268,1.1c0.179,0.317,0.444,0.565,0.796,0.744c0.353,0.179,0.789,0.268,1.312,0.268
		c0.411,0,0.78-0.06,1.108-0.18s0.609-0.289,0.844-0.508l0.097,0.128c-0.229,0.213-0.525,0.385-0.889,0.516
		C265.384,263.879,264.991,263.944,264.57,263.944z"/>
	<path fill="#2BB673" d="M270.139,263.944c-0.544,0-1.003-0.095-1.376-0.284c-0.373-0.189-0.657-0.455-0.852-0.796
		c-0.195-0.341-0.292-0.736-0.292-1.184c0-0.448,0.075-0.875,0.228-1.28s0.372-0.767,0.66-1.084s0.637-0.566,1.048-0.748
		c0.411-0.181,0.875-0.272,1.393-0.272c0.544,0,1.004,0.095,1.38,0.284s0.659,0.453,0.852,0.792
		c0.192,0.338,0.288,0.734,0.288,1.188c0,0.448-0.076,0.875-0.228,1.28c-0.152,0.405-0.372,0.767-0.66,1.084
		s-0.638,0.567-1.048,0.748C271.12,263.854,270.656,263.944,270.139,263.944z M270.154,263.792c0.48,0,0.914-0.085,1.301-0.256
		c0.387-0.171,0.717-0.405,0.992-0.704c0.274-0.299,0.486-0.643,0.636-1.032c0.149-0.389,0.224-0.803,0.224-1.24
		c0-0.421-0.089-0.79-0.268-1.104c-0.179-0.315-0.444-0.562-0.796-0.74c-0.353-0.179-0.79-0.268-1.313-0.268
		c-0.479,0-0.913,0.085-1.3,0.256c-0.387,0.17-0.718,0.405-0.992,0.704c-0.274,0.299-0.486,0.643-0.636,1.032
		s-0.225,0.803-0.225,1.24c0,0.416,0.09,0.783,0.269,1.1c0.179,0.317,0.444,0.565,0.796,0.744S269.632,263.792,270.154,263.792z"/>
	<path fill="#2BB673" d="M278.826,263.944c-0.544,0-1.003-0.095-1.376-0.284c-0.373-0.189-0.657-0.455-0.852-0.796
		c-0.195-0.341-0.292-0.736-0.292-1.184c0-0.448,0.075-0.875,0.228-1.28s0.373-0.767,0.664-1.084s0.644-0.566,1.06-0.748
		c0.416-0.181,0.889-0.272,1.416-0.272c0.427,0,0.807,0.063,1.141,0.188c0.333,0.125,0.593,0.3,0.78,0.524l-0.112,0.104
		c-0.192-0.219-0.441-0.384-0.748-0.496c-0.307-0.112-0.665-0.168-1.076-0.168c-0.485,0-0.926,0.085-1.32,0.256
		c-0.395,0.17-0.73,0.405-1.008,0.704c-0.277,0.299-0.49,0.643-0.64,1.032s-0.225,0.803-0.225,1.24c0,0.416,0.09,0.783,0.269,1.1
		c0.179,0.317,0.444,0.565,0.796,0.744s0.789,0.268,1.312,0.268c0.379,0,0.719-0.062,1.021-0.184
		c0.301-0.123,0.574-0.291,0.82-0.504l0.08,0.12c-0.235,0.213-0.52,0.387-0.853,0.52S279.216,263.944,278.826,263.944z
		 M280.61,263.224l0.408-2.048h0.151l-0.407,2.048H280.61z"/>
	<path fill="#2BB673" d="M281.587,263.92l3.72-5.6h0.16l1.479,5.6h-0.168l-1.439-5.472h0.072l-3.633,5.472H281.587z
		 M282.778,262.232l0.112-0.152h3.48l0.048,0.152H282.778z"/>
	<path fill="#2BB673" d="M288.851,263.92l1.088-5.448h-2.08l0.032-0.152h4.319l-0.031,0.152h-2.08l-1.088,5.448H288.851z"/>
	<path fill="#2BB673" d="M292.378,263.768h3.568l-0.032,0.152h-3.728l1.119-5.6h3.608l-0.032,0.152h-3.447L292.378,263.768z
		 M292.89,261h3.129l-0.032,0.152h-3.128L292.89,261z"/>
	<path fill="#2BB673" d="M252.75,275.071c-0.069-0.208-0.128-0.424-0.176-0.647c-0.048-0.225-0.084-0.451-0.108-0.681
		c-0.024-0.229-0.036-0.45-0.036-0.664c0-0.495,0.042-0.997,0.128-1.504c0.085-0.506,0.208-1.001,0.368-1.483
		c0.16-0.482,0.349-0.938,0.568-1.364s0.464-0.808,0.736-1.144h0.16c-0.267,0.325-0.511,0.702-0.732,1.132
		c-0.221,0.429-0.414,0.889-0.576,1.38c-0.163,0.49-0.288,0.99-0.376,1.5c-0.088,0.509-0.132,1.004-0.132,1.483
		c0,0.342,0.025,0.673,0.076,0.992c0.051,0.32,0.129,0.653,0.236,1H252.75z"/>
	<path fill="#2BB673" d="M255.183,273.544c-0.315,0-0.591-0.073-0.828-0.221c-0.237-0.146-0.407-0.337-0.508-0.571l0.144-0.08
		c0.102,0.219,0.256,0.393,0.464,0.523s0.458,0.196,0.752,0.196c0.373,0,0.676-0.106,0.908-0.32c0.232-0.213,0.401-0.586,0.508-1.12
		l0.776-3.88h-2.096l0.032-0.151h2.256l-0.816,4.08c-0.075,0.373-0.183,0.673-0.324,0.899c-0.141,0.227-0.317,0.391-0.528,0.492
		S255.465,273.544,255.183,273.544z"/>
	<path fill="#2BB673" d="M259.623,273.544c-0.438,0-0.819-0.075-1.144-0.225c-0.326-0.149-0.558-0.339-0.696-0.567l0.136-0.104
		c0.123,0.214,0.332,0.391,0.628,0.532s0.657,0.212,1.084,0.212c0.4,0,0.747-0.066,1.04-0.2c0.293-0.133,0.519-0.32,0.676-0.56
		c0.157-0.24,0.236-0.521,0.236-0.84c0-0.396-0.131-0.696-0.392-0.904s-0.664-0.313-1.208-0.313h-0.224l0.024-0.12l2.32-2.432
		l0.024,0.048h-3.224l0.032-0.151h3.384l-0.024,0.119l-2.328,2.44l-0.024-0.056h0.04c0.389,0,0.713,0.053,0.972,0.16
		c0.259,0.106,0.455,0.261,0.588,0.464c0.133,0.202,0.2,0.45,0.2,0.744c0,0.347-0.088,0.651-0.264,0.916
		c-0.176,0.264-0.423,0.469-0.74,0.615C260.421,273.471,260.049,273.544,259.623,273.544z"/>
	<path fill="#2BB673" d="M262.798,271.479l0.032-0.152h2l-0.032,0.152H262.798z"/>
	<path fill="#2BB673" d="M268.494,273.544c-0.544,0-1.003-0.095-1.376-0.284s-0.657-0.455-0.852-0.796
		c-0.195-0.342-0.292-0.736-0.292-1.185s0.075-0.874,0.228-1.279s0.373-0.768,0.664-1.084c0.291-0.317,0.644-0.567,1.06-0.748
		c0.416-0.182,0.889-0.272,1.416-0.272c0.422,0,0.794,0.062,1.116,0.184c0.323,0.123,0.577,0.297,0.765,0.521l-0.112,0.104
		c-0.192-0.218-0.437-0.382-0.732-0.491s-0.646-0.164-1.052-0.164c-0.485,0-0.926,0.085-1.32,0.256s-0.73,0.405-1.008,0.704
		s-0.49,0.643-0.64,1.031c-0.149,0.39-0.225,0.803-0.225,1.24c0,0.416,0.09,0.783,0.269,1.101s0.444,0.565,0.796,0.743
		c0.352,0.18,0.789,0.269,1.312,0.269c0.411,0,0.78-0.061,1.108-0.18c0.328-0.12,0.609-0.29,0.844-0.509l0.097,0.128
		c-0.229,0.214-0.525,0.386-0.889,0.517C269.308,273.479,268.915,273.544,268.494,273.544z"/>
	<path fill="#2BB673" d="M271.357,275.071c0.267-0.325,0.511-0.702,0.732-1.132c0.221-0.429,0.413-0.89,0.576-1.38
		c0.162-0.49,0.288-0.99,0.376-1.5s0.132-1.004,0.132-1.484c0-0.341-0.025-0.672-0.076-0.991c-0.051-0.32-0.129-0.653-0.236-1h0.137
		c0.069,0.202,0.128,0.417,0.176,0.644s0.084,0.453,0.108,0.68c0.023,0.228,0.035,0.449,0.035,0.668
		c0,0.496-0.042,0.998-0.128,1.504c-0.085,0.507-0.208,1.002-0.368,1.484c-0.159,0.482-0.349,0.938-0.567,1.364
		s-0.464,0.808-0.736,1.144H271.357z"/>
</g>
<g>
</g>
<g>
</g>
<g>
</g>
<g>
</g>
<g>
</g>
<g>
</g>
</svg>
