<?xml version="1.0" encoding="utf-8"?>
<!-- Generator: Adobe Illustrator 16.0.0, SVG Export Plug-In . SVG Version: 6.00 Build 0)  -->
<!DOCTYPE svg PUBLIC "-//W3C//DTD SVG 1.1//EN" "http://www.w3.org/Graphics/SVG/1.1/DTD/svg11.dtd">
<svg version="1.1" id="Layer_2" xmlns="http://www.w3.org/2000/svg" xmlns:xlink="http://www.w3.org/1999/xlink" x="0px" y="0px"
	 width="548.428px" height="536.745px" viewBox="0 0 548.428 536.745" enable-background="new 0 0 548.428 536.745"
	 xml:space="preserve">
<path opacity="0.4" fill="#27AAE1" d="M327.431,1.501c0,0-234.184,7.089-309.03,200.416
	c-74.846,193.328,122.657,290.837,131.031,294.125c62.865,24.684,184.349,89.979,305.015-34.809s105.277-272.362,54.978-328.5
	C459.124,76.593,495.047,10.458,327.431,1.501z"/>
<path fill="none" stroke="#27AAE1" stroke-width="3" stroke-miterlimit="10" d="M327.431,1.501c0,0-234.184,7.089-309.03,200.416
	c-74.846,193.328,122.657,290.837,131.031,294.125c62.865,24.684,184.349,89.979,305.015-34.809s105.277-272.362,54.978-328.5
	C459.124,76.593,495.047,10.458,327.431,1.501z"/>
<ellipse transform="matrix(0.9959 -0.0902 0.0902 0.9959 -26.8788 4.1738)" opacity="0.2" fill="#27AAE1" cx="32.729" cy="299.404" rx="5.715" ry="31"/>
<ellipse transform="matrix(0.9567 -0.291 0.291 0.9567 -105.4388 41.7804)" opacity="0.2" fill="#27AAE1" cx="87.768" cy="375.431" rx="8.089" ry="19.333"/>
<ellipse transform="matrix(0.908 0.419 -0.419 0.908 69.9854 -24.5022)" opacity="0.2" fill="#27AAE1" cx="90.787" cy="147.115" rx="8.333" ry="12"/>
<circle opacity="0.2" fill="#27AAE1" cx="206.121" cy="208.115" r="11.667"/>
<ellipse transform="matrix(0.9757 -0.2189 0.2189 0.9757 -27.6946 56.2798)" opacity="0.2" fill="#27AAE1" cx="240.121" cy="153.115" rx="9.667" ry="6"/>
<ellipse transform="matrix(0.9062 0.4229 -0.4229 0.9062 81.6693 -180.5646)" opacity="0.2" fill="#27AAE1" cx="447.787" cy="93.782" rx="18" ry="10"/>
<path opacity="0.2" fill="#27AAE1" d="M501.787,144.789c0,0,0-15.259-85.333,23.333c-36.243,16.391-81.333,107.334-78,113.334
	s25.333,7.332,31.333,21.332s-6.666,64.668-18.666,75.334s32.666,14,96.666-96.666C447.787,281.456,484.487,162.196,501.787,144.789
	z"/>
<ellipse transform="matrix(0.9926 0.1213 -0.1213 0.9926 28.1262 -6.0596)" opacity="0.2" fill="#27AAE1" cx="63.826" cy="227.949" rx="5.458" ry="15.168"/>
<g>
</g>
<g>
</g>
<g>
</g>
<g>
</g>
<g>
</g>
<g>
</g>
</svg>
