<?xml version="1.0" encoding="utf-8"?>
<!-- Generator: Adobe Illustrator 16.0.0, SVG Export Plug-In . SVG Version: 6.00 Build 0)  -->
<!DOCTYPE svg PUBLIC "-//W3C//DTD SVG 1.1//EN" "http://www.w3.org/Graphics/SVG/1.1/DTD/svg11.dtd">
<svg version="1.1" id="Layer_1" xmlns="http://www.w3.org/2000/svg" xmlns:xlink="http://www.w3.org/1999/xlink" x="0px" y="0px"
	 width="534px" height="534px" viewBox="0 0 534 534" enable-background="new 0 0 534 534" xml:space="preserve">
<circle opacity="0.5" fill="#27AAE1" cx="267" cy="267" r="266"/>
<circle fill="none" stroke="#27AAE1" stroke-width="2" stroke-miterlimit="10" cx="267" cy="267" r="266"/>
<path opacity="0.2" fill="#27AAE1" d="M528,309.996c-2.465,14.696-14.438-14.47-21.869-23.823
	c-6.802-8.561-14.772-4.856-15.464-6.177c-7.333-14.004-16.409-3.688-33.333-16.667c-5.868-4.5-23.246-76.785-28.579-59.452
	S450,268.667,434,259.333S343.334,72,340,70s8-20,6.667-26S335.02,12.591,330.354,8.591C321.5,1,568,71.5,528,309.996z"/>
<path opacity="0.2" fill="#27AAE1" d="M298,78.663l-45.333-33.333c0,0-57.333-18-68,5.333s-18,48.667-7.333,58.667
	s67.333-5.333,85.333,11.333s42,33.333,44,46s-8-42.667,0-38.667S298,78.663,298,78.663z"/>
<path opacity="0.2" fill="#27AAE1" d="M154.667,123.329c0,0,106.666,10,112.333,26.667s29.668,42.667,36.334,45.333
	s17.883,28,14.941,31.333S330,241.329,338,243.329s27.334,1.333,30.667,8.667s14.001,18.667,12.667,22s-8,24.666,3.333,20.666
	s32-10.666,34-4.666S422,319.328,426,320.662s34.667,13.333,40.667,8s-4-11.999,0-14.666s14.666,9.383,15.333,16.024
	s-15.999,42.642-6.666,39.309S436,457.33,430,443.996s-76-52-94-50s-151.333-24-140.667-34s8.667-28.666,4.667-26
	s-16.666,31.333-21.333,23.333s-12-40.667-20-40.667S107.333,225.329,86,233.329s-8.667-60-28.667-46s-24,2.667-20.667-0.667
	S90,135.329,105.333,143.996S152.667,127.329,154.667,123.329z"/>
<path opacity="0.2" fill="#27AAE1" d="M1,275.996c0,0,43-13.336,61,8.332s46,32.335,54,33.668s0,17.332,2.667,16.666
	s7.333-4,14,8.667s70.667,85.333,62.667,96s37.333,21.334,50,10.667s14,14.667,9.333,18s-108-8.666-90,6
	s-35.798,25.562-21.566,28.447S13.333,455.33,1,275.996z"/>
<path opacity="0.2" fill="#27AAE1" d="M214,491.329c-12.667,2.667-39.333,0.461-34.667,11.23s38,17.437,45.333,16.77
	s6.667-13.955,20-13.978S270,497.996,272,491.329s-23.333-11.333-36.667-10S214,491.329,214,491.329z"/>
<path opacity="0.2" fill="#27AAE1" d="M267,512.662c-9.667,1.334-9.863,6.713-9.863,6.713s-4.197,0.621,0,3.954
	s22.863,2.667,28.863,4s4-8.666,4-11.333S267,512.662,267,512.662z"/>
<path opacity="0.2" fill="#27AAE1" d="M284,495.996c0,0-15.075,1.794-11.204,6.563s15.845,8.771,17.524,7.437
	S284,495.996,284,495.996z"/>
<path opacity="0.2" fill="#27AAE1" d="M197.333,411.329c0,0,4,21.999,10,23.333s12-3.333,12-3.333S204,408.662,197.333,411.329z"/>
<path opacity="0.2" fill="#27AAE1" d="M225.452,437.996c0,0-14.119,3.329-9.452,7.331s17.333,1.998,13.333,0
	S225.452,437.996,225.452,437.996z"/>
<path opacity="0.2" fill="#27AAE1" d="M58,117.996c0,0,44-38.667,53.333-38.667S139.42,56.983,142.5,50.5
	c4.75-10,18.025-19.094,23.948-22.75c5.67-3.5-19.448,5.156-29.198,10.953s-39.048,20.18-37.399,21.363S74.742,74.23,37.246,132.865
	C37.246,132.865,52.75,118.491,58,117.996z"/>
<g>
</g>
<g>
</g>
<g>
</g>
<g>
</g>
<g>
</g>
<g>
</g>
</svg>
