<?xml version="1.0" encoding="utf-8"?>
<!-- Generator: Adobe Illustrator 16.0.0, SVG Export Plug-In . SVG Version: 6.00 Build 0)  -->
<!DOCTYPE svg PUBLIC "-//W3C//DTD SVG 1.1//EN" "http://www.w3.org/Graphics/SVG/1.1/DTD/svg11.dtd">
<svg version="1.1" id="Layer_1" xmlns="http://www.w3.org/2000/svg" xmlns:xlink="http://www.w3.org/1999/xlink" x="0px" y="0px"
	 width="465.28px" height="417.121px" viewBox="0 0 465.28 417.121" enable-background="new 0 0 465.28 417.121"
	 xml:space="preserve">
<path opacity="0.5" fill="#2BB673" d="M427.01,187.36v-4.69l-4.97-4.96h-70.21V97.34l16.67-16.67V30l12.92-12.91l-6.17-6.17
	l-8.75,8.75V9.087l-2.36-2.817L357.88,0h-21.05v19.67h-6.66l-1.68-0.75v-6H333V9.79h-4.51V7.05H333V3.92h-4.51V1.43L327.06,0h-7.569
	v31h3.01l2.17-2.16h19.58V31h20.16v49.67L348.08,97v75.71h-5.22l-26.74,26.74H77.5v2.21h185.33v3.9h15.34l12.91,12.92h25.42V233
	l7.58,7.58l-6.48,6.49H184.67l8.35,8.35h15.88l2.119-2.12H311.37l-9.811,9.811h-7.06v40.96h29.58l7.55,7.55l-44.43,44.42
	l15.33,15.33l30.85-30.851h4.45l3.77,3.771l5.551-5.55h0.02v-4.13l-5.28-5.271v-9.92H365l2.2-2.2h20.46l1.04-0.84
	c2.74,0.34,5.53,0.51,8.359,0.51c37.671,0,68.221-30.54,68.221-68.22C465.28,221.74,449.67,198.45,427.01,187.36z M310.88,251.24
	h-99.86v-1.82h99.86v0.02h1.8L310.88,251.24z M318.75,300.75h-14.16v-9.32l2.08-2.08v-24.93h12.08V300.75z M363.28,318.32h-9.23
	l0.021-0.181l1.319-1.06h9.431L363.28,318.32z M385.27,316.09h-31.22l-1.83,1.82h-8.63V296.89l-9.09-9.09h-4.66l5.91-5.899h1.79
	c4.89,8.739,11.65,16.289,19.74,22.109l-0.04,0.061c8.22,5.92,17.8,10.05,28.189,11.84L385.27,316.09z"/>
<circle opacity="0.5" fill="#2BB673" stroke="#006838" stroke-width="0.5" stroke-miterlimit="10" cx="397.056" cy="248.67" r="54.167"/>
<g>
	<g>
		<path fill="#2BB673" stroke="#006838" stroke-width="0.25" stroke-miterlimit="10" d="M397.056,197.726
			c-28.159,0-50.945,22.786-50.945,50.944c0,28.158,22.786,50.944,50.945,50.944S448,276.828,448,248.67
			C448,220.511,425.215,197.726,397.056,197.726z"/>
		<path fill="#2BB673" stroke="#006838" stroke-width="0.25" stroke-miterlimit="10" d="M446.035,248.67
			c0,27.064-21.915,48.979-48.979,48.979s-48.98-21.914-48.98-48.979c0-27.064,21.916-48.979,48.98-48.979
			S446.035,221.606,446.035,248.67z"/>
		<path fill="#2BB673" stroke="#006838" stroke-width="0.25" stroke-miterlimit="10" d="M397.056,201.656
			c-25.995,0-47.015,21.02-47.015,47.014c0,25.994,21.02,47.014,47.015,47.014c25.994,0,47.015-21.02,47.015-47.014
			C444.07,222.675,423.05,201.656,397.056,201.656z"/>
		<path fill="#2BB673" stroke="#006838" stroke-width="0.25" stroke-miterlimit="10" d="M442.13,248.67
			c0,24.9-20.174,45.074-45.074,45.074S351.98,273.57,351.98,248.67c0-24.9,20.175-45.074,45.075-45.074
			S442.13,223.77,442.13,248.67z"/>
		<path fill="#2BB673" stroke="#006838" stroke-width="0.25" stroke-miterlimit="10" d="M397.056,205.561
			c-23.831,0-43.109,19.278-43.109,43.109c0,23.83,19.278,43.108,43.109,43.108c23.83,0,43.108-19.278,43.108-43.108
			C440.164,224.839,420.886,205.561,397.056,205.561z"/>
		<path fill="#2BB673" stroke="#006838" stroke-width="0.25" stroke-miterlimit="10" d="M438.199,248.67
			c0,22.736-18.407,41.144-41.144,41.144s-41.145-18.407-41.145-41.144c0-22.736,18.408-41.144,41.145-41.144
			S438.199,225.934,438.199,248.67z"/>
		<path fill="#2BB673" stroke="#006838" stroke-width="0.25" stroke-miterlimit="10" d="M397.056,209.492
			c-21.667,0-39.179,17.512-39.179,39.178s17.512,39.178,39.179,39.178c21.666,0,39.179-17.512,39.179-39.178
			S418.722,209.492,397.056,209.492z"/>
		<path fill="#2BB673" stroke="#006838" stroke-width="0.25" stroke-miterlimit="10" d="M434.294,248.67
			c0,20.572-16.667,37.238-37.238,37.238c-20.572,0-37.239-16.666-37.239-37.238c0-20.572,16.667-37.238,37.239-37.238
			C417.627,211.432,434.294,228.098,434.294,248.67z"/>
		<path fill="#2BB673" stroke="#006838" stroke-width="0.25" stroke-miterlimit="10" d="M397.056,213.397
			c-19.503,0-35.273,15.771-35.273,35.273s15.771,35.273,35.273,35.273c19.502,0,35.273-15.771,35.273-35.273
			S416.558,213.397,397.056,213.397z"/>
		<path fill="#2BB673" stroke="#006838" stroke-width="0.25" stroke-miterlimit="10" d="M430.363,248.67
			c0,18.408-14.9,33.308-33.308,33.308c-18.408,0-33.309-14.899-33.309-33.308c0-18.408,14.9-33.308,33.309-33.308
			C415.463,215.362,430.363,230.262,430.363,248.67z"/>
		<path fill="#2BB673" stroke="#006838" stroke-width="0.25" stroke-miterlimit="10" d="M397.056,217.327
			c-17.339,0-31.344,14.005-31.344,31.343s14.005,31.343,31.344,31.343c17.338,0,31.343-14.005,31.343-31.343
			S414.394,217.327,397.056,217.327z"/>
		<path fill="#2BB673" stroke="#006838" stroke-width="0.25" stroke-miterlimit="10" d="M426.458,248.67
			c0,16.244-13.159,29.402-29.402,29.402c-16.244,0-29.403-13.158-29.403-29.402c0-16.244,13.159-29.402,29.403-29.402
			C413.299,219.268,426.458,232.426,426.458,248.67z"/>
		<path fill="#2BB673" stroke="#006838" stroke-width="0.25" stroke-miterlimit="10" d="M397.056,221.232
			c-15.175,0-27.438,12.264-27.438,27.438s12.264,27.438,27.438,27.438c15.174,0,27.438-12.264,27.438-27.438
			S412.229,221.232,397.056,221.232z"/>
		<path fill="#2BB673" stroke="#006838" stroke-width="0.25" stroke-miterlimit="10" d="M422.527,248.67
			c0,14.079-11.393,25.473-25.472,25.473c-14.08,0-25.473-11.394-25.473-25.473s11.393-25.472,25.473-25.472
			C411.135,223.198,422.527,234.591,422.527,248.67z"/>
		<circle fill="#2BB673" stroke="#006838" stroke-width="0.25" stroke-miterlimit="10" cx="397.056" cy="248.67" r="23.507"/>
		<path fill="#2BB673" stroke="#006838" stroke-width="0.25" stroke-miterlimit="10" d="M418.598,248.67
			c0,11.915-9.627,21.542-21.542,21.542c-11.916,0-21.542-9.627-21.542-21.542s9.626-21.542,21.542-21.542
			C408.971,227.128,418.598,236.755,418.598,248.67z"/>
		<path fill="#2BB673" stroke="#006838" stroke-width="0.25" stroke-miterlimit="10" d="M397.056,229.068
			c-10.821,0-19.603,8.781-19.603,19.602c0,10.82,8.781,19.602,19.603,19.602c10.82,0,19.602-8.781,19.602-19.602
			C416.657,237.849,407.876,229.068,397.056,229.068z"/>
		<path fill="#2BB673" stroke="#006838" stroke-width="0.25" stroke-miterlimit="10" d="M414.692,248.67
			c0,9.751-7.886,17.637-17.637,17.637c-9.752,0-17.637-7.886-17.637-17.637s7.885-17.637,17.637-17.637
			C406.807,231.033,414.692,238.919,414.692,248.67z"/>
		<circle fill="#2BB673" stroke="#006838" stroke-width="0.25" stroke-miterlimit="10" cx="397.056" cy="248.67" r="15.672"/>
		<path fill="#2BB673" stroke="#006838" stroke-width="0.25" stroke-miterlimit="10" d="M410.762,248.67
			c0,7.587-6.119,13.706-13.706,13.706s-13.707-6.119-13.707-13.706s6.12-13.706,13.707-13.706S410.762,241.083,410.762,248.67z"/>
		<path fill="#2BB673" stroke="#006838" stroke-width="0.25" stroke-miterlimit="10" d="M397.056,236.904
			c-6.493,0-11.767,5.274-11.767,11.766s5.273,11.766,11.767,11.766c6.492,0,11.766-5.273,11.766-11.766
			S403.548,236.904,397.056,236.904z"/>
		<path fill="#2BB673" stroke="#006838" stroke-width="0.25" stroke-miterlimit="10" d="M406.856,248.67
			c0,5.423-4.378,9.801-9.801,9.801s-9.802-4.378-9.802-9.801s4.379-9.801,9.802-9.801S406.856,243.247,406.856,248.67z"/>
		<circle fill="#2BB673" stroke="#006838" stroke-width="0.25" stroke-miterlimit="10" cx="397.056" cy="248.67" r="7.836"/>
		<path fill="#2BB673" stroke="#006838" stroke-width="0.25" stroke-miterlimit="10" d="M402.926,248.67
			c0,3.259-2.611,5.871-5.87,5.871s-5.871-2.612-5.871-5.871s2.612-5.871,5.871-5.871S402.926,245.411,402.926,248.67z"/>
		<path fill="#2BB673" stroke="#006838" stroke-width="0.25" stroke-miterlimit="10" d="M397.056,244.74
			c-2.164,0-3.931,1.766-3.931,3.93s1.767,3.93,3.931,3.93s3.93-1.766,3.93-3.93S399.22,244.74,397.056,244.74z"/>
		<path fill="#2BB673" stroke="#006838" stroke-width="0.25" stroke-miterlimit="10" d="M399.021,248.67
			c0,1.095-0.87,1.965-1.965,1.965s-1.966-0.87-1.966-1.965s0.871-1.965,1.966-1.965S399.021,247.575,399.021,248.67z"/>
	</g>
	<g>
		
			<line fill="#2BB673" stroke="#006838" stroke-width="0.25" stroke-miterlimit="10" x1="397.056" y1="248.67" x2="397.056" y2="197.726"/>
		
			<line fill="#2BB673" stroke="#006838" stroke-width="0.25" stroke-miterlimit="10" x1="397.056" y1="248.67" x2="409.717" y2="199.317"/>
		
			<line fill="#2BB673" stroke="#006838" stroke-width="0.25" stroke-miterlimit="10" x1="397.056" y1="248.67" x2="421.607" y2="204.019"/>
		
			<line fill="#2BB673" stroke="#006838" stroke-width="0.25" stroke-miterlimit="10" x1="397.056" y1="248.67" x2="431.931" y2="211.531"/>
		
			<line fill="#2BB673" stroke="#006838" stroke-width="0.25" stroke-miterlimit="10" x1="397.056" y1="248.67" x2="440.065" y2="221.382"/>
		
			<line fill="#2BB673" stroke="#006838" stroke-width="0.25" stroke-miterlimit="10" x1="397.056" y1="248.67" x2="445.513" y2="232.924"/>
		
			<line fill="#2BB673" stroke="#006838" stroke-width="0.25" stroke-miterlimit="10" x1="397.056" y1="248.67" x2="447.9" y2="245.461"/>
		
			<line fill="#2BB673" stroke="#006838" stroke-width="0.25" stroke-miterlimit="10" x1="397.056" y1="248.67" x2="447.104" y2="258.223"/>
		
			<line fill="#2BB673" stroke="#006838" stroke-width="0.25" stroke-miterlimit="10" x1="397.056" y1="248.67" x2="443.149" y2="270.361"/>
		
			<line fill="#2BB673" stroke="#006838" stroke-width="0.25" stroke-miterlimit="10" x1="397.056" y1="248.67" x2="436.309" y2="281.132"/>
		
			<line fill="#2BB673" stroke="#006838" stroke-width="0.25" stroke-miterlimit="10" x1="397.056" y1="248.67" x2="427.006" y2="289.889"/>
		
			<line fill="#2BB673" stroke="#006838" stroke-width="0.25" stroke-miterlimit="10" x1="397.056" y1="248.67" x2="415.812" y2="296.032"/>
		
			<line fill="#2BB673" stroke="#006838" stroke-width="0.25" stroke-miterlimit="10" x1="397.056" y1="248.67" x2="403.448" y2="299.217"/>
		
			<line fill="#2BB673" stroke="#006838" stroke-width="0.25" stroke-miterlimit="10" x1="397.056" y1="248.67" x2="390.662" y2="299.217"/>
		
			<line fill="#2BB673" stroke="#006838" stroke-width="0.25" stroke-miterlimit="10" x1="397.056" y1="248.67" x2="378.299" y2="296.032"/>
		
			<line fill="#2BB673" stroke="#006838" stroke-width="0.25" stroke-miterlimit="10" x1="397.056" y1="248.67" x2="367.105" y2="289.889"/>
		
			<line fill="#2BB673" stroke="#006838" stroke-width="0.25" stroke-miterlimit="10" x1="397.056" y1="248.67" x2="357.802" y2="281.132"/>
		
			<line fill="#2BB673" stroke="#006838" stroke-width="0.25" stroke-miterlimit="10" x1="397.056" y1="248.67" x2="350.961" y2="270.361"/>
		
			<line fill="#2BB673" stroke="#006838" stroke-width="0.25" stroke-miterlimit="10" x1="397.056" y1="248.67" x2="347.006" y2="258.223"/>
		
			<line fill="#2BB673" stroke="#006838" stroke-width="0.25" stroke-miterlimit="10" x1="397.056" y1="248.67" x2="346.21" y2="245.461"/>
		
			<line fill="#2BB673" stroke="#006838" stroke-width="0.25" stroke-miterlimit="10" x1="397.056" y1="248.67" x2="348.598" y2="232.924"/>
		
			<line fill="#2BB673" stroke="#006838" stroke-width="0.25" stroke-miterlimit="10" x1="397.056" y1="248.67" x2="354.046" y2="221.382"/>
		
			<line fill="#2BB673" stroke="#006838" stroke-width="0.25" stroke-miterlimit="10" x1="397.056" y1="248.67" x2="362.18" y2="211.531"/>
		
			<line fill="#2BB673" stroke="#006838" stroke-width="0.25" stroke-miterlimit="10" x1="397.056" y1="248.67" x2="372.503" y2="204.019"/>
		
			<line fill="#2BB673" stroke="#006838" stroke-width="0.25" stroke-miterlimit="10" x1="397.056" y1="248.67" x2="384.394" y2="199.317"/>
	</g>
</g>
<g opacity="0.5">
	<path fill="#2BB673" stroke="#006838" stroke-width="0.5" stroke-miterlimit="10" d="M397.06,184.48
		c-35.46,0-64.199,28.74-64.199,64.19s28.739,64.19,64.199,64.19c35.45,0,64.19-28.74,64.19-64.19S432.51,184.48,397.06,184.48z
		 M397.06,306.36c-31.869,0-57.699-25.83-57.699-57.69c0-31.86,25.83-57.69,57.699-57.69c31.86,0,57.69,25.83,57.69,57.69
		C454.75,280.53,428.92,306.36,397.06,306.36z"/>
</g>
<path opacity="0.5" fill="#2BB673" stroke="#006838" stroke-width="0.25" stroke-miterlimit="10" d="M382.515,320.754
	c2.506,2.506,2.506,6.568,0,9.075l-18.647,18.646c-2.506,2.506-6.568,2.506-9.074,0l0,0c-2.506-2.506-2.506-6.568,0-9.074
	l18.646-18.647C375.946,318.248,380.009,318.248,382.515,320.754L382.515,320.754z"/>
<path opacity="0.5" fill="#2BB673" stroke="#006838" stroke-width="0.25" stroke-miterlimit="10" d="M402.515,320.754
	c2.506,2.506,2.506,6.568,0,9.075l-18.647,18.646c-2.506,2.506-6.568,2.506-9.074,0l0,0c-2.506-2.506-2.506-6.568,0-9.074
	l18.646-18.647C395.946,318.248,400.009,318.248,402.515,320.754L402.515,320.754z"/>
<path opacity="0.5" fill="#2BB673" stroke="#006838" stroke-width="0.25" stroke-miterlimit="10" d="M422.515,320.754
	c2.506,2.506,2.506,6.568,0,9.075l-18.647,18.646c-2.506,2.506-6.568,2.506-9.074,0l0,0c-2.506-2.506-2.506-6.568,0-9.074
	l18.646-18.647C415.946,318.248,420.009,318.248,422.515,320.754L422.515,320.754z"/>
<path opacity="0.5" fill="#2BB673" stroke="#006838" stroke-width="0.25" stroke-miterlimit="10" d="M311.986,281.637
	c0,0.11-0.09,0.2-0.2,0.2H307.7c-0.11,0-0.2-0.09-0.2-0.2v-4.086c0-0.11,0.09-0.199,0.2-0.199h4.086c0.11,0,0.2,0.089,0.2,0.199
	V281.637z"/>
<path opacity="0.5" fill="#2BB673" stroke="#006838" stroke-width="0.25" stroke-miterlimit="10" d="M311.986,287.65
	c0,0.11-0.09,0.2-0.2,0.2H307.7c-0.11,0-0.2-0.09-0.2-0.2v-4.086c0-0.11,0.09-0.199,0.2-0.199h4.086c0.11,0,0.2,0.089,0.2,0.199
	V287.65z"/>
<path opacity="0.5" fill="#2BB673" stroke="#006838" stroke-width="0.25" stroke-miterlimit="10" d="M317.986,281.637
	c0,0.11-0.09,0.2-0.2,0.2H313.7c-0.11,0-0.2-0.09-0.2-0.2v-4.086c0-0.11,0.09-0.199,0.2-0.199h4.086c0.11,0,0.2,0.089,0.2,0.199
	V281.637z"/>
<path opacity="0.5" fill="#2BB673" stroke="#006838" stroke-width="0.25" stroke-miterlimit="10" d="M317.986,287.637
	c0,0.11-0.09,0.2-0.2,0.2H313.7c-0.11,0-0.2-0.09-0.2-0.2v-4.086c0-0.11,0.09-0.199,0.2-0.199h4.086c0.11,0,0.2,0.089,0.2,0.199
	V287.637z"/>
<path opacity="0.5" fill="#2BB673" stroke="#006838" stroke-width="0.25" stroke-miterlimit="10" d="M311.986,299.382
	c0,0.259-0.09,0.469-0.2,0.469H307.7c-0.11,0-0.2-0.21-0.2-0.469v-9.563c0-0.259,0.09-0.467,0.2-0.467h4.086
	c0.11,0,0.2,0.208,0.2,0.467V299.382z"/>
<path opacity="0.5" fill="#2BB673" stroke="#006838" stroke-width="0.25" stroke-miterlimit="10" d="M317.986,293.637
	c0,0.11-0.09,0.2-0.2,0.2H313.7c-0.11,0-0.2-0.09-0.2-0.2v-4.086c0-0.11,0.09-0.199,0.2-0.199h4.086c0.11,0,0.2,0.089,0.2,0.199
	V293.637z"/>
<path opacity="0.5" fill="#2BB673" stroke="#006838" stroke-width="0.25" stroke-miterlimit="10" d="M317.986,299.637
	c0,0.11-0.09,0.2-0.2,0.2H313.7c-0.11,0-0.2-0.09-0.2-0.2v-4.086c0-0.11,0.09-0.199,0.2-0.199h4.086c0.11,0,0.2,0.089,0.2,0.199
	V299.637z"/>
<path opacity="0.5" fill="#2BB673" stroke="#006838" stroke-width="0.25" stroke-miterlimit="10" d="M311.986,269.637
	c0,0.11-0.09,0.2-0.2,0.2H307.7c-0.11,0-0.2-0.09-0.2-0.2v-4.086c0-0.11,0.09-0.199,0.2-0.199h4.086c0.11,0,0.2,0.089,0.2,0.199
	V269.637z"/>
<path opacity="0.5" fill="#2BB673" stroke="#006838" stroke-width="0.25" stroke-miterlimit="10" d="M311.986,275.65
	c0,0.11-0.09,0.2-0.2,0.2H307.7c-0.11,0-0.2-0.09-0.2-0.2v-4.086c0-0.11,0.09-0.199,0.2-0.199h4.086c0.11,0,0.2,0.089,0.2,0.199
	V275.65z"/>
<path opacity="0.5" fill="#2BB673" stroke="#006838" stroke-width="0.25" stroke-miterlimit="10" d="M317.986,269.637
	c0,0.11-0.09,0.2-0.2,0.2H313.7c-0.11,0-0.2-0.09-0.2-0.2v-4.086c0-0.11,0.09-0.199,0.2-0.199h4.086c0.11,0,0.2,0.089,0.2,0.199
	V269.637z"/>
<path opacity="0.5" fill="#2BB673" stroke="#006838" stroke-width="0.25" stroke-miterlimit="10" d="M317.986,275.637
	c0,0.11-0.09,0.2-0.2,0.2H313.7c-0.11,0-0.2-0.09-0.2-0.2v-4.086c0-0.11,0.09-0.199,0.2-0.199h4.086c0.11,0,0.2,0.089,0.2,0.199
	V275.637z"/>
<g opacity="0.5">
	<circle fill="#2BB673" stroke="#006838" stroke-width="0.25" stroke-miterlimit="10" cx="347.479" cy="301.045" r="2.563"/>
	<path fill="#2BB673" stroke="#006838" stroke-width="0.25" stroke-miterlimit="10" d="M349.584,298.482
		c0,2.521-2.144,4.563-4.792,4.563"/>
	<circle fill="#2BB673" stroke="#006838" stroke-width="0.1" stroke-miterlimit="10" cx="347.479" cy="301.045" r="2.105"/>
	<path fill="#2BB673" stroke="#006838" stroke-width="0.1" stroke-miterlimit="10" d="M347.396,302.313
		c0-0.856,0.691-1.55,1.547-1.55"/>
</g>
<g opacity="0.5">
	<circle fill="#2BB673" stroke="#006838" stroke-width="0.25" stroke-miterlimit="10" cx="348.956" cy="308.862" r="2.563"/>
	<path fill="#2BB673" stroke="#006838" stroke-width="0.25" stroke-miterlimit="10" d="M346.889,306.269
		c2.466,0.525,4.016,3.048,3.463,5.638"/>
	<circle fill="#2BB673" stroke="#006838" stroke-width="0.1" stroke-miterlimit="10" cx="348.956" cy="308.862" r="2.106"/>
	<path fill="#2BB673" stroke="#006838" stroke-width="0.1" stroke-miterlimit="10" d="M350.18,309.207
		c-0.838-0.179-1.372-1-1.193-1.836"/>
</g>
<g opacity="0.5">
	<circle fill="#2BB673" stroke="#006838" stroke-width="0.25" stroke-miterlimit="10" cx="356.403" cy="311.224" r="2.563"/>
	<path fill="#2BB673" stroke="#006838" stroke-width="0.25" stroke-miterlimit="10" d="M355.7,314.465
		c-1.151-2.243-0.176-5.038,2.181-6.247"/>
	<circle fill="#2BB673" stroke="#006838" stroke-width="0.1" stroke-miterlimit="10" cx="356.403" cy="311.224" r="2.105"/>
	<path fill="#2BB673" stroke="#006838" stroke-width="0.1" stroke-miterlimit="10" d="M355.897,310.058
		c0.391,0.762,0.092,1.694-0.669,2.085"/>
</g>
<circle opacity="0.5" fill="#2BB673" stroke="#006838" stroke-width="0.1" stroke-miterlimit="10" cx="349.75" cy="305.898" r="0.291"/>
<circle opacity="0.5" fill="#2BB673" stroke="#006838" stroke-width="0.1" stroke-miterlimit="10" cx="354.298" cy="308.862" r="0.291"/>
<circle opacity="0.5" fill="#2BB673" stroke="#006838" stroke-width="0.1" stroke-miterlimit="10" cx="350.18" cy="302.604" r="0.291"/>
<path opacity="0.5" fill="#2BB673" stroke="#006838" stroke-width="0.1" stroke-miterlimit="10" d="M322.5,31.004"/>
<polygon opacity="0.5" fill="#2BB673" stroke="#006838" stroke-miterlimit="10" points="333,3.95 331.214,3.95 332.458,4.364 
	332.461,4.365 332.461,6.605 332.463,6.611 331.214,7.045 333,7.045 "/>
<polygon opacity="0.5" fill="#2BB673" stroke="#006838" stroke-miterlimit="10" points="333,9.809 331.214,9.809 332.458,10.224 
	332.461,10.225 332.461,12.464 332.463,12.471 331.214,12.904 333,12.904 "/>
<path opacity="0.5" fill="#2BB673" stroke="#006838" stroke-width="0.1" stroke-miterlimit="10" d="M311.369,253.299"/>
<circle opacity="0.5" fill="#2BB673" stroke="#006838" stroke-width="0.1" stroke-miterlimit="10" cx="349.875" cy="11.356" r="8.063"/>
<circle opacity="0.5" fill="#2BB673" stroke="#006838" stroke-width="0.1" stroke-miterlimit="10" cx="349.875" cy="11.356" r="9.063"/>
<line opacity="0.5" fill="#2BB673" stroke="#006838" stroke-miterlimit="10" x1="341.813" y1="11.356" x2="339.5" y2="11.356"/>
<line opacity="0.5" fill="#2BB673" stroke="#006838" stroke-miterlimit="10" x1="349.875" y1="3.294" x2="349.875" y2="0.981"/>
<line opacity="0.5" fill="#2BB673" stroke="#006838" stroke-miterlimit="10" x1="357.938" y1="11.356" x2="360.25" y2="11.356"/>
<line opacity="0.5" fill="#2BB673" stroke="#006838" stroke-miterlimit="10" x1="349.875" y1="19.419" x2="349.875" y2="21.731"/>
<circle opacity="0.5" fill="#2BB673" stroke="#006838" stroke-width="0.1" stroke-miterlimit="10" cx="340.813" cy="2.294" r="1"/>
<g opacity="0.5">
	<path fill="#2BB673" stroke="#006838" stroke-width="0.25" stroke-miterlimit="10" d="M332.842,36.169
		c0,0.161-0.09,0.292-0.2,0.292h-4.086c-0.11,0-0.2-0.131-0.2-0.292V30.21c0-0.161,0.09-0.291,0.2-0.291h4.086
		c0.11,0,0.2,0.129,0.2,0.291V36.169z"/>
	<polyline fill="#2BB673" stroke="#006838" stroke-width="0.3" stroke-miterlimit="10" points="328.355,35.107 329.107,35.859 
		332.09,35.859 332.842,35.107 	"/>
	<line fill="#2BB673" stroke="#006838" stroke-miterlimit="10" x1="331.25" y1="36.461" x2="331.25" y2="32.967"/>
</g>
<g opacity="0.5">
	<path fill="#2BB673" stroke="#006838" stroke-width="0.25" stroke-miterlimit="10" d="M339.842,36.169
		c0,0.161-0.09,0.292-0.2,0.292h-4.086c-0.11,0-0.2-0.131-0.2-0.292V30.21c0-0.161,0.09-0.291,0.2-0.291h4.086
		c0.11,0,0.2,0.129,0.2,0.291V36.169z"/>
	<polyline fill="#2BB673" stroke="#006838" stroke-width="0.3" stroke-miterlimit="10" points="335.355,35.107 336.107,35.859 
		339.09,35.859 339.842,35.107 	"/>
	<line fill="#2BB673" stroke="#006838" stroke-miterlimit="10" x1="338.25" y1="36.461" x2="338.25" y2="32.967"/>
</g>
<polyline opacity="0.5" fill="none" stroke="#006838" stroke-width="0.5" stroke-miterlimit="10" points="247.306,129.003 
	247.306,135.197 297.834,185.726 329.842,185.726 "/>
<line opacity="0.5" fill="#2BB673" stroke="#006838" stroke-width="0.5" stroke-miterlimit="10" x1="250.834" y1="147.67" x2="250.834" y2="138.726"/>
<line opacity="0.5" fill="#2BB673" stroke="#006838" stroke-width="0.5" stroke-miterlimit="10" x1="260.834" y1="140.336" x2="260.834" y2="148.393"/>
<line opacity="0.5" fill="#2BB673" stroke="#006838" stroke-width="0.5" stroke-miterlimit="10" x1="280.834" y1="160.336" x2="280.834" y2="168.726"/>
<line opacity="0.5" fill="#2BB673" stroke="#006838" stroke-width="0.5" stroke-miterlimit="10" x1="270.834" y1="167.67" x2="270.834" y2="159.28"/>
<line opacity="0.5" fill="#2BB673" stroke="#006838" stroke-width="0.5" stroke-miterlimit="10" x1="300.834" y1="180.336" x2="300.834" y2="185.726"/>
<path opacity="0.5" fill="#2BB673" stroke="#006838" stroke-width="0.25" stroke-miterlimit="10" d="M246.5,134.595
	c0,0.111-0.09,0.2-0.2,0.2h-2.225c-0.11,0-0.2-0.089-0.2-0.2v-7.725c0-0.111,0.09-0.2,0.2-0.2h2.225c0.11,0,0.2,0.089,0.2,0.2
	V134.595z"/>
<g opacity="0.5">
	<circle fill="#2BB673" stroke="#006838" stroke-width="0.25" stroke-miterlimit="10" cx="250.834" cy="158.003" r="10.333"/>
	<polygon fill="#2BB673" stroke="#006838" stroke-width="0.25" stroke-miterlimit="10" points="247.839,167.222 242.992,163.701 
		241.141,158.003 242.992,152.306 247.839,148.785 253.829,148.785 258.676,152.306 260.527,158.003 258.676,163.701 
		253.829,167.222 	"/>
</g>
<g opacity="0.5">
	<circle fill="#2BB673" stroke="#006838" stroke-width="0.25" stroke-miterlimit="10" cx="260.527" cy="130.118" r="10.333"/>
	<polygon fill="#2BB673" stroke="#006838" stroke-width="0.25" stroke-miterlimit="10" points="257.532,139.336 252.686,135.815 
		250.834,130.118 252.686,124.42 257.532,120.899 263.522,120.899 268.369,124.42 270.221,130.118 268.369,135.815 263.522,139.336 
			"/>
</g>
<g opacity="0.5">
	<circle fill="#2BB673" stroke="#006838" stroke-width="0.25" stroke-miterlimit="10" cx="280.834" cy="149.669" r="10.333"/>
	<polygon fill="#2BB673" stroke="#006838" stroke-width="0.25" stroke-miterlimit="10" points="277.839,158.888 272.992,155.367 
		271.141,149.669 272.992,143.972 277.839,140.451 283.829,140.451 288.676,143.972 290.527,149.669 288.676,155.367 
		283.829,158.888 	"/>
</g>
<g opacity="0.5">
	<circle fill="#2BB673" stroke="#006838" stroke-width="0.25" stroke-miterlimit="10" cx="300.834" cy="170.335" r="10.333"/>
	<polygon fill="#2BB673" stroke="#006838" stroke-width="0.25" stroke-miterlimit="10" points="297.839,179.554 292.992,176.033 
		291.141,170.335 292.992,164.638 297.839,161.117 303.829,161.117 308.676,164.638 310.527,170.335 308.676,176.033 
		303.829,179.554 	"/>
</g>
<g opacity="0.5">
	<circle fill="#2BB673" stroke="#006838" stroke-width="0.25" stroke-miterlimit="10" cx="270.834" cy="178.003" r="10.333"/>
	<polygon fill="#2BB673" stroke="#006838" stroke-width="0.25" stroke-miterlimit="10" points="267.839,187.222 262.992,183.701 
		261.141,178.003 262.992,172.306 267.839,168.785 273.829,168.785 278.676,172.306 280.527,178.003 278.676,183.701 
		273.829,187.222 	"/>
</g>
<circle opacity="0.5" fill="#2BB673" stroke="#006838" stroke-width="0.25" stroke-miterlimit="10" cx="327.531" cy="183.045" r="2.031"/>
<line opacity="0.5" fill="#2BB673" stroke="#006838" stroke-width="0.5" stroke-miterlimit="10" x1="329.563" y1="185.918" x2="331.247" y2="184.233"/>
<line opacity="0.5" fill="#2BB673" stroke="#006838" stroke-miterlimit="10" x1="260.834" y1="203.596" x2="0" y2="203.596"/>
<line opacity="0.5" fill="#2BB673" stroke="#006838" stroke-miterlimit="10" x1="260.834" y1="205.596" x2="0" y2="205.596"/>
<line opacity="0.5" fill="#2BB673" stroke="#006838" stroke-width="2" stroke-miterlimit="10" x1="3.583" y1="202.253" x2="3.583" y2="206.92"/>
<line opacity="0.5" fill="#2BB673" stroke="#006838" stroke-width="2" stroke-miterlimit="10" x1="23.583" y1="202.253" x2="23.583" y2="206.92"/>
<line opacity="0.5" fill="#2BB673" stroke="#006838" stroke-width="2" stroke-miterlimit="10" x1="43.583" y1="202.253" x2="43.583" y2="206.92"/>
<line opacity="0.5" fill="#2BB673" stroke="#006838" stroke-width="2" stroke-miterlimit="10" x1="63.583" y1="202.253" x2="63.583" y2="206.92"/>
<line opacity="0.5" fill="#2BB673" stroke="#006838" stroke-width="2" stroke-miterlimit="10" x1="63.583" y1="202.253" x2="63.583" y2="206.92"/>
<line opacity="0.5" fill="#2BB673" stroke="#006838" stroke-width="2" stroke-miterlimit="10" x1="83.583" y1="202.253" x2="83.583" y2="206.92"/>
<line opacity="0.5" fill="#2BB673" stroke="#006838" stroke-width="2" stroke-miterlimit="10" x1="103.583" y1="202.253" x2="103.583" y2="206.92"/>
<line opacity="0.5" fill="#2BB673" stroke="#006838" stroke-width="2" stroke-miterlimit="10" x1="123.583" y1="202.253" x2="123.583" y2="206.92"/>
<line opacity="0.5" fill="#2BB673" stroke="#006838" stroke-width="2" stroke-miterlimit="10" x1="143.583" y1="202.253" x2="143.583" y2="206.92"/>
<line opacity="0.5" fill="#2BB673" stroke="#006838" stroke-width="2" stroke-miterlimit="10" x1="163.583" y1="202.253" x2="163.583" y2="206.92"/>
<line opacity="0.5" fill="#2BB673" stroke="#006838" stroke-width="2" stroke-miterlimit="10" x1="183.583" y1="202.253" x2="183.583" y2="206.92"/>
<line opacity="0.5" fill="#2BB673" stroke="#006838" stroke-width="2" stroke-miterlimit="10" x1="203.583" y1="202.253" x2="203.583" y2="206.92"/>
<line opacity="0.5" fill="#2BB673" stroke="#006838" stroke-width="2" stroke-miterlimit="10" x1="203.583" y1="202.253" x2="203.583" y2="206.92"/>
<line opacity="0.5" fill="#2BB673" stroke="#006838" stroke-width="2" stroke-miterlimit="10" x1="223.584" y1="202.253" x2="223.584" y2="206.92"/>
<line opacity="0.5" fill="#2BB673" stroke="#006838" stroke-width="2" stroke-miterlimit="10" x1="243.584" y1="202.253" x2="243.584" y2="206.92"/>
<line opacity="0.5" fill="#2BB673" stroke="#006838" stroke-width="2" stroke-miterlimit="10" x1="247.584" y1="202.253" x2="247.584" y2="206.92"/>
<line opacity="0.5" fill="#2BB673" stroke="#006838" stroke-width="2" stroke-miterlimit="10" x1="251.584" y1="202.253" x2="251.584" y2="206.92"/>
<line opacity="0.5" fill="#2BB673" stroke="#006838" stroke-width="2" stroke-miterlimit="10" x1="255.584" y1="202.253" x2="255.584" y2="206.92"/>
<line opacity="0.5" fill="#2BB673" stroke="#006838" stroke-width="2" stroke-miterlimit="10" x1="261.584" y1="202.253" x2="261.584" y2="206.92"/>
<rect x="263" y="198.066" opacity="0.5" fill="#2BB673" stroke="#006838" stroke-width="0.25" stroke-miterlimit="10" width="9.458" height="0.875"/>
<rect x="263" y="206.066" opacity="0.5" fill="#2BB673" stroke="#006838" stroke-width="0.25" stroke-miterlimit="10" width="9.458" height="0.875"/>
<line opacity="0.5" fill="#2BB673" stroke="#006838" stroke-width="0.25" stroke-miterlimit="10" x1="268.5" y1="198.066" x2="268.5" y2="206.92"/>
<g opacity="0.5">
	<circle fill="#2BB673" stroke="#006838" stroke-width="0.25" stroke-miterlimit="10" cx="286.791" cy="326.663" r="10.333"/>
	<polygon fill="#2BB673" stroke="#006838" stroke-width="0.25" stroke-miterlimit="10" points="283.796,335.882 278.949,332.361 
		277.098,326.663 278.949,320.965 283.796,317.444 289.786,317.444 294.633,320.965 296.484,326.663 294.633,332.361 
		289.786,335.882 	"/>
</g>
<g opacity="0.5">
	<circle fill="#2BB673" stroke="#006838" stroke-width="0.25" stroke-miterlimit="10" cx="266.791" cy="346.663" r="10.333"/>
	<polygon fill="#2BB673" stroke="#006838" stroke-width="0.25" stroke-miterlimit="10" points="263.796,355.882 258.949,352.361 
		257.098,346.663 258.949,340.965 263.796,337.444 269.786,337.444 274.633,340.965 276.484,346.663 274.633,352.361 
		269.786,355.882 	"/>
</g>
<g opacity="0.5">
	<circle fill="#2BB673" stroke="#006838" stroke-width="0.25" stroke-miterlimit="10" cx="246.791" cy="366.663" r="10.333"/>
	<polygon fill="#2BB673" stroke="#006838" stroke-width="0.25" stroke-miterlimit="10" points="243.796,375.882 238.949,372.361 
		237.098,366.663 238.949,360.965 243.796,357.444 249.786,357.444 254.633,360.965 256.484,366.663 254.633,372.361 
		249.786,375.882 	"/>
</g>
<g opacity="0.5">
	<circle fill="#2BB673" stroke="#006838" stroke-width="0.25" stroke-miterlimit="10" cx="226.791" cy="386.663" r="10.333"/>
	<polygon fill="#2BB673" stroke="#006838" stroke-width="0.25" stroke-miterlimit="10" points="223.796,395.882 218.949,392.361 
		217.098,386.663 218.949,380.965 223.796,377.444 229.786,377.444 234.633,380.965 236.484,386.663 234.633,392.361 
		229.786,395.882 	"/>
</g>
<g opacity="0.5">
	<circle fill="#2BB673" stroke="#006838" stroke-width="0.25" stroke-miterlimit="10" cx="206.791" cy="406.663" r="10.333"/>
	<polygon fill="#2BB673" stroke="#006838" stroke-width="0.25" stroke-miterlimit="10" points="203.796,415.882 198.949,412.361 
		197.098,406.663 198.949,400.965 203.796,397.444 209.786,397.444 214.633,400.965 216.484,406.663 214.633,412.361 
		209.786,415.882 	"/>
</g>
<g opacity="0.5">
	<circle fill="#2BB673" stroke="#006838" stroke-width="0.25" stroke-miterlimit="10" cx="196.791" cy="376.663" r="10.333"/>
	<polygon fill="#2BB673" stroke="#006838" stroke-width="0.25" stroke-miterlimit="10" points="193.796,385.882 188.949,382.361 
		187.098,376.663 188.949,370.965 193.796,367.444 199.786,367.444 204.633,370.965 206.484,376.663 204.633,382.361 
		199.786,385.882 	"/>
</g>
<g opacity="0.5">
	<circle fill="#2BB673" stroke="#006838" stroke-width="0.25" stroke-miterlimit="10" cx="216.791" cy="356.663" r="10.333"/>
	<polygon fill="#2BB673" stroke="#006838" stroke-width="0.25" stroke-miterlimit="10" points="213.796,365.882 208.949,362.361 
		207.098,356.663 208.949,350.965 213.796,347.444 219.786,347.444 224.633,350.965 226.484,356.663 224.633,362.361 
		219.786,365.882 	"/>
</g>
<g opacity="0.5">
	<circle fill="#2BB673" stroke="#006838" stroke-width="0.25" stroke-miterlimit="10" cx="236.791" cy="336.663" r="10.333"/>
	<polygon fill="#2BB673" stroke="#006838" stroke-width="0.25" stroke-miterlimit="10" points="233.796,345.882 228.949,342.361 
		227.098,336.663 228.949,330.965 233.796,327.444 239.786,327.444 244.633,330.965 246.484,336.663 244.633,342.361 
		239.786,345.882 	"/>
</g>
<g opacity="0.5">
	<circle fill="#2BB673" stroke="#006838" stroke-width="0.25" stroke-miterlimit="10" cx="256.791" cy="316.663" r="10.333"/>
	<polygon fill="#2BB673" stroke="#006838" stroke-width="0.25" stroke-miterlimit="10" points="253.796,325.882 248.949,322.361 
		247.098,316.663 248.949,310.965 253.796,307.444 259.786,307.444 264.633,310.965 266.484,316.663 264.633,322.361 
		259.786,325.882 	"/>
</g>
<g opacity="0.5">
	<circle fill="#2BB673" stroke="#006838" stroke-width="0.25" stroke-miterlimit="10" cx="276.791" cy="296.663" r="10.333"/>
	<polygon fill="#2BB673" stroke="#006838" stroke-width="0.25" stroke-miterlimit="10" points="273.796,305.882 268.949,302.361 
		267.098,296.663 268.949,290.965 273.796,287.444 279.786,287.444 284.633,290.965 286.484,296.663 284.633,302.361 
		279.786,305.882 	"/>
</g>
<line opacity="0.5" fill="#2BB673" stroke="#006838" stroke-width="0.5" stroke-miterlimit="10" x1="276.791" y1="306.996" x2="276.791" y2="315.549"/>
<line opacity="0.5" fill="#2BB673" stroke="#006838" stroke-width="0.5" stroke-miterlimit="10" x1="236.791" y1="346.996" x2="236.791" y2="355.216"/>
<line opacity="0.5" fill="#2BB673" stroke="#006838" stroke-width="0.5" stroke-miterlimit="10" x1="216.791" y1="366.996" x2="216.791" y2="375.549"/>
<line opacity="0.5" fill="#2BB673" stroke="#006838" stroke-width="0.5" stroke-miterlimit="10" x1="196.791" y1="386.996" x2="196.791" y2="395.882"/>
<line opacity="0.5" fill="#2BB673" stroke="#006838" stroke-width="0.5" stroke-miterlimit="10" x1="206.791" y1="396.33" x2="206.791" y2="385.216"/>
<line opacity="0.5" fill="#2BB673" stroke="#006838" stroke-width="0.5" stroke-miterlimit="10" x1="226.791" y1="376.33" x2="226.791" y2="365.549"/>
<line opacity="0.5" fill="#2BB673" stroke="#006838" stroke-width="0.5" stroke-miterlimit="10" x1="246.791" y1="356.33" x2="246.791" y2="345.855"/>
<line opacity="0.5" fill="#2BB673" stroke="#006838" stroke-width="0.5" stroke-miterlimit="10" x1="266.791" y1="336.33" x2="266.791" y2="325.549"/>
<line opacity="0.5" fill="#2BB673" stroke="#006838" stroke-width="0.5" stroke-miterlimit="10" x1="286.791" y1="316.33" x2="286.791" y2="308.621"/>
<line opacity="0.5" fill="#2BB673" stroke="#006838" stroke-width="0.5" stroke-miterlimit="10" x1="256.791" y1="326.996" x2="256.791" y2="335.242"/>
<line opacity="0.5" fill="#2BB673" stroke="#006838" stroke-width="0.5" stroke-miterlimit="10" x1="196.458" y1="395.882" x2="189.835" y2="402.505"/>
<line opacity="0.5" fill="#2BB673" stroke="#006838" stroke-width="0.5" stroke-miterlimit="10" x1="189.835" y1="402.505" x2="181.875" y2="402.505"/>
<line opacity="0.5" fill="#2BB673" stroke="#006838" stroke-width="0.5" stroke-miterlimit="10" x1="181.875" y1="402.505" x2="180.083" y2="400.713"/>
<line opacity="0.5" fill="#2BB673" stroke="#006838" stroke-width="0.5" stroke-miterlimit="10" x1="180.083" y1="400.713" x2="180.083" y2="397.444"/>
<line opacity="0.5" fill="#2BB673" stroke="#006838" stroke-width="0.5" stroke-miterlimit="10" x1="180.083" y1="397.444" x2="183.179" y2="394.349"/>
<line opacity="0.5" fill="#2BB673" stroke="#006838" stroke-width="0.5" stroke-miterlimit="10" x1="183.179" y1="394.349" x2="194.75" y2="394.349"/>
<line opacity="0.5" fill="#2BB673" stroke="#006838" stroke-width="0.5" stroke-miterlimit="10" x1="194.75" y1="394.349" x2="200.277" y2="388.822"/>
<line opacity="0.5" fill="#2BB673" stroke="#006838" stroke-width="0.5" stroke-miterlimit="10" x1="200.277" y1="388.822" x2="203.518" y2="388.822"/>
<rect x="75.125" y="197.357" opacity="0.5" fill="#2BB673" stroke="#006838" stroke-width="0.25" stroke-miterlimit="10" width="7.563" height="1.688"/>
<circle opacity="0.5" fill="#2BB673" stroke="#006838" stroke-width="0.25" stroke-miterlimit="10" cx="75.328" cy="200.186" r="0.578"/>
<circle opacity="0.5" fill="#2BB673" stroke="#006838" stroke-width="0.25" stroke-miterlimit="10" cx="76.616" cy="201.056" r="0.578"/>
<polyline opacity="0.5" fill="none" stroke="#006838" stroke-width="0.5" stroke-miterlimit="10" points="318.192,303.929 
	313.5,308.621 283.719,308.621 196.458,395.882 "/>
<path opacity="0.5" fill="#2BB673" stroke="#006838" stroke-width="0.25" stroke-miterlimit="10" d="M334.002,348.027
	c-0.078,0.078-0.205,0.078-0.283,0l-2.889-2.89c-0.078-0.078-0.078-0.205,0-0.283l2.889-2.889c0.078-0.078,0.205-0.078,0.283,0
	l2.889,2.89c0.078,0.078,0.079,0.204,0.001,0.282L334.002,348.027z"/>
<path opacity="0.5" fill="#2BB673" stroke="#006838" stroke-width="0.25" stroke-miterlimit="10" d="M330.002,352.027
	c-0.078,0.078-0.205,0.078-0.283,0l-2.889-2.89c-0.078-0.078-0.078-0.205,0-0.283l2.889-2.889c0.078-0.078,0.205-0.078,0.283,0
	l2.889,2.89c0.078,0.078,0.079,0.204,0.001,0.282L330.002,352.027z"/>
<path opacity="0.5" fill="#2BB673" stroke="#006838" stroke-width="0.25" stroke-miterlimit="10" d="M326.002,356.027
	c-0.078,0.078-0.205,0.078-0.283,0l-2.889-2.89c-0.078-0.078-0.078-0.205,0-0.283l2.889-2.889c0.078-0.078,0.205-0.078,0.283,0
	l2.889,2.89c0.078,0.078,0.079,0.204,0.001,0.282L326.002,356.027z"/>
<path opacity="0.5" fill="#2BB673" stroke="#006838" stroke-width="0.25" stroke-miterlimit="10" d="M322.002,360.027
	c-0.078,0.078-0.205,0.078-0.283,0l-2.889-2.89c-0.078-0.078-0.078-0.205,0-0.283l2.889-2.889c0.078-0.078,0.205-0.078,0.283,0
	l2.889,2.89c0.078,0.078,0.079,0.204,0.001,0.282L322.002,360.027z"/>
<path opacity="0.5" fill="#2BB673" stroke="#006838" stroke-width="0.25" stroke-miterlimit="10" d="M318.002,364.027
	c-0.078,0.078-0.205,0.078-0.283,0l-2.889-2.89c-0.078-0.078-0.078-0.205,0-0.283l2.889-2.889c0.078-0.078,0.205-0.078,0.283,0
	l2.889,2.89c0.078,0.078,0.079,0.204,0.001,0.282L318.002,364.027z"/>
<path opacity="0.5" fill="#2BB673" stroke="#006838" stroke-width="0.25" stroke-miterlimit="10" d="M314.002,368.027
	c-0.078,0.078-0.205,0.078-0.283,0l-2.889-2.89c-0.078-0.078-0.078-0.205,0-0.283l2.889-2.889c0.078-0.078,0.205-0.078,0.283,0
	l2.889,2.89c0.078,0.078,0.079,0.204,0.001,0.282L314.002,368.027z"/>
<path opacity="0.5" fill="#2BB673" stroke="#006838" stroke-width="0.25" stroke-miterlimit="10" d="M310.002,372.027
	c-0.078,0.078-0.205,0.078-0.283,0l-2.889-2.89c-0.078-0.078-0.078-0.205,0-0.283l2.889-2.889c0.078-0.078,0.205-0.078,0.283,0
	l2.889,2.89c0.078,0.078,0.079,0.204,0.001,0.282L310.002,372.027z"/>
<path opacity="0.5" fill="#2BB673" stroke="#006838" stroke-width="0.25" stroke-miterlimit="10" d="M306.002,376.027
	c-0.078,0.078-0.205,0.078-0.283,0l-2.889-2.89c-0.078-0.078-0.078-0.205,0-0.283l2.889-2.889c0.078-0.078,0.205-0.078,0.283,0
	l2.889,2.89c0.078,0.078,0.079,0.204,0.001,0.282L306.002,376.027z"/>
<path opacity="0.5" fill="#2BB673" stroke="#006838" stroke-width="0.25" stroke-miterlimit="10" d="M290.667,356.736
	c0,0.345-0.28,0.625-0.625,0.625l0,0c-0.345,0-0.625-0.28-0.625-0.625v-1.708c0-0.345,0.28-0.625,0.625-0.625l0,0
	c0.345,0,0.625,0.28,0.625,0.625V356.736z"/>
<path opacity="0.5" fill="#2BB673" stroke="#006838" stroke-width="0.25" stroke-miterlimit="10" d="M292.667,354.736
	c0,0.345-0.28,0.625-0.625,0.625l0,0c-0.345,0-0.625-0.28-0.625-0.625v-1.708c0-0.345,0.28-0.625,0.625-0.625l0,0
	c0.345,0,0.625,0.28,0.625,0.625V354.736z"/>
<path opacity="0.5" fill="#2BB673" stroke="#006838" stroke-width="0.25" stroke-miterlimit="10" d="M294.667,352.736
	c0,0.345-0.28,0.625-0.625,0.625l0,0c-0.345,0-0.625-0.28-0.625-0.625v-1.708c0-0.345,0.28-0.625,0.625-0.625l0,0
	c0.345,0,0.625,0.28,0.625,0.625V352.736z"/>
<path opacity="0.5" fill="#2BB673" stroke="#006838" stroke-width="0.25" stroke-miterlimit="10" d="M296.667,350.736
	c0,0.345-0.28,0.625-0.625,0.625l0,0c-0.345,0-0.625-0.28-0.625-0.625v-1.708c0-0.345,0.28-0.625,0.625-0.625l0,0
	c0.345,0,0.625,0.28,0.625,0.625V350.736z"/>
<path opacity="0.5" fill="#2BB673" stroke="#006838" stroke-width="0.25" stroke-miterlimit="10" d="M323.761,318.598
	c-0.183,0.183-0.395,0.268-0.473,0.189l-2.889-2.89c-0.077-0.078,0.008-0.291,0.19-0.474l6.761-6.761
	c0.183-0.183,0.395-0.268,0.473-0.189l2.888,2.891c0.078,0.078-0.004,0.287-0.188,0.471L323.761,318.598z"/>
<path opacity="0.5" fill="#2BB673" stroke="#006838" stroke-width="0.25" stroke-miterlimit="10" d="M193.792,253.519
	c0.244,0.244,0.244,0.641,0,0.884l0,0c-0.244,0.244-0.64,0.244-0.884,0l-1.208-1.207c-0.244-0.244-0.244-0.641,0-0.884l0,0
	c0.244-0.244,0.64-0.244,0.884,0L193.792,253.519z"/>
<g opacity="0.5">
	<circle fill="#2BB673" stroke="#006838" stroke-width="0.25" stroke-miterlimit="10" cx="181.021" cy="248.477" r="2.562"/>
	<path fill="#2BB673" stroke="#006838" stroke-width="0.25" stroke-miterlimit="10" d="M181.747,245.241
		c1.136,2.251,0.141,5.039-2.223,6.231"/>
	<circle fill="#2BB673" stroke="#006838" stroke-width="0.1" stroke-miterlimit="10" cx="181.021" cy="248.477" r="2.106"/>
	<path fill="#2BB673" stroke="#006838" stroke-width="0.1" stroke-miterlimit="10" d="M181.519,249.647
		c-0.386-0.765-0.081-1.696,0.683-2.08"/>
</g>
<g opacity="0.5">
	<g>
		<circle fill="#2BB673" stroke="#006838" stroke-width="0.25" stroke-miterlimit="10" cx="193" cy="239.068" r="5.896"/>
		<circle fill="#2BB673" stroke="#006838" stroke-width="0.1" stroke-miterlimit="10" cx="193" cy="239.068" r="5.293"/>
		<path fill="#2BB673" stroke="#006838" stroke-width="0.1" stroke-miterlimit="10" d="M198.293,238.738
			c0,2.741-2.37,4.963-5.293,4.963s-5.293-2.222-5.293-4.963"/>
	</g>
	<g>
		<circle fill="#2BB673" stroke="#006838" stroke-width="0.25" stroke-miterlimit="10" cx="213" cy="239.068" r="5.896"/>
		<circle fill="#2BB673" stroke="#006838" stroke-width="0.1" stroke-miterlimit="10" cx="213" cy="239.068" r="5.293"/>
		<path fill="#2BB673" stroke="#006838" stroke-width="0.1" stroke-miterlimit="10" d="M218.293,238.738
			c0,2.741-2.369,4.963-5.293,4.963s-5.293-2.222-5.293-4.963"/>
	</g>
	<g>
		<circle fill="#2BB673" stroke="#006838" stroke-width="0.25" stroke-miterlimit="10" cx="203" cy="229.068" r="5.896"/>
		<circle fill="#2BB673" stroke="#006838" stroke-width="0.1" stroke-miterlimit="10" cx="203" cy="229.068" r="5.293"/>
		<path fill="#2BB673" stroke="#006838" stroke-width="0.1" stroke-miterlimit="10" d="M208.293,228.738
			c0,2.741-2.37,4.963-5.293,4.963s-5.293-2.222-5.293-4.963"/>
	</g>
</g>
<g opacity="0.5">
	<g>
		<circle fill="#2BB673" stroke="#006838" stroke-width="0.25" stroke-miterlimit="10" cx="233" cy="239.068" r="5.896"/>
		<circle fill="#2BB673" stroke="#006838" stroke-width="0.1" stroke-miterlimit="10" cx="233" cy="239.068" r="5.293"/>
		<path fill="#2BB673" stroke="#006838" stroke-width="0.1" stroke-miterlimit="10" d="M238.293,238.738
			c0,2.741-2.369,4.963-5.293,4.963s-5.293-2.222-5.293-4.963"/>
	</g>
	<g>
		<circle fill="#2BB673" stroke="#006838" stroke-width="0.25" stroke-miterlimit="10" cx="253" cy="239.068" r="5.896"/>
		<circle fill="#2BB673" stroke="#006838" stroke-width="0.1" stroke-miterlimit="10" cx="253" cy="239.068" r="5.293"/>
		<path fill="#2BB673" stroke="#006838" stroke-width="0.1" stroke-miterlimit="10" d="M258.293,238.738
			c0,2.741-2.369,4.963-5.293,4.963s-5.293-2.222-5.293-4.963"/>
	</g>
	<g>
		<circle fill="#2BB673" stroke="#006838" stroke-width="0.25" stroke-miterlimit="10" cx="243" cy="229.068" r="5.896"/>
		<circle fill="#2BB673" stroke="#006838" stroke-width="0.1" stroke-miterlimit="10" cx="243" cy="229.068" r="5.293"/>
		<path fill="#2BB673" stroke="#006838" stroke-width="0.1" stroke-miterlimit="10" d="M248.293,228.738
			c0,2.741-2.369,4.963-5.293,4.963s-5.293-2.222-5.293-4.963"/>
	</g>
</g>
<g opacity="0.5">
	<g>
		<circle fill="#2BB673" stroke="#006838" stroke-width="0.25" stroke-miterlimit="10" cx="273" cy="239.068" r="5.896"/>
		<circle fill="#2BB673" stroke="#006838" stroke-width="0.1" stroke-miterlimit="10" cx="273" cy="239.068" r="5.293"/>
		<path fill="#2BB673" stroke="#006838" stroke-width="0.1" stroke-miterlimit="10" d="M278.293,238.738
			c0,2.741-2.369,4.963-5.293,4.963s-5.293-2.222-5.293-4.963"/>
	</g>
	<g>
		<circle fill="#2BB673" stroke="#006838" stroke-width="0.25" stroke-miterlimit="10" cx="293" cy="239.068" r="5.896"/>
		<circle fill="#2BB673" stroke="#006838" stroke-width="0.1" stroke-miterlimit="10" cx="293" cy="239.068" r="5.293"/>
		<path fill="#2BB673" stroke="#006838" stroke-width="0.1" stroke-miterlimit="10" d="M298.293,238.738
			c0,2.741-2.369,4.963-5.293,4.963s-5.293-2.222-5.293-4.963"/>
	</g>
	<g>
		<circle fill="#2BB673" stroke="#006838" stroke-width="0.25" stroke-miterlimit="10" cx="283" cy="229.068" r="5.896"/>
		<circle fill="#2BB673" stroke="#006838" stroke-width="0.1" stroke-miterlimit="10" cx="283" cy="229.068" r="5.293"/>
		<path fill="#2BB673" stroke="#006838" stroke-width="0.1" stroke-miterlimit="10" d="M288.293,228.738
			c0,2.741-2.369,4.963-5.293,4.963s-5.293-2.222-5.293-4.963"/>
	</g>
</g>
<g opacity="0.5">
	<g>
		<circle fill="#2BB673" stroke="#006838" stroke-width="0.25" stroke-miterlimit="10" cx="223" cy="262.068" r="5.895"/>
		<circle fill="#2BB673" stroke="#006838" stroke-width="0.1" stroke-miterlimit="10" cx="223" cy="262.068" r="5.293"/>
		<path fill="#2BB673" stroke="#006838" stroke-width="0.1" stroke-miterlimit="10" d="M217.707,261.738
			c0,2.74,2.369,4.963,5.293,4.963s5.293-2.223,5.293-4.963"/>
	</g>
	<g>
		<circle fill="#2BB673" stroke="#006838" stroke-width="0.25" stroke-miterlimit="10" cx="233" cy="272.068" r="5.896"/>
		<circle fill="#2BB673" stroke="#006838" stroke-width="0.1" stroke-miterlimit="10" cx="233" cy="272.068" r="5.293"/>
		<path fill="#2BB673" stroke="#006838" stroke-width="0.1" stroke-miterlimit="10" d="M227.707,271.738
			c0,2.74,2.369,4.963,5.293,4.963s5.293-2.223,5.293-4.963"/>
	</g>
	<g>
		<circle fill="#2BB673" stroke="#006838" stroke-width="0.25" stroke-miterlimit="10" cx="243" cy="262.068" r="5.895"/>
		<circle fill="#2BB673" stroke="#006838" stroke-width="0.1" stroke-miterlimit="10" cx="243" cy="262.068" r="5.293"/>
		<path fill="#2BB673" stroke="#006838" stroke-width="0.1" stroke-miterlimit="10" d="M237.707,261.738
			c0,2.74,2.369,4.963,5.293,4.963s5.293-2.223,5.293-4.963"/>
	</g>
</g>
<g opacity="0.5">
	<g>
		<circle fill="#2BB673" stroke="#006838" stroke-width="0.25" stroke-miterlimit="10" cx="263" cy="262.068" r="5.895"/>
		<circle fill="#2BB673" stroke="#006838" stroke-width="0.1" stroke-miterlimit="10" cx="263" cy="262.068" r="5.293"/>
		<path fill="#2BB673" stroke="#006838" stroke-width="0.1" stroke-miterlimit="10" d="M257.707,261.738
			c0,2.74,2.369,4.963,5.293,4.963s5.293-2.223,5.293-4.963"/>
	</g>
	<g>
		<circle fill="#2BB673" stroke="#006838" stroke-width="0.25" stroke-miterlimit="10" cx="273" cy="272.068" r="5.896"/>
		<circle fill="#2BB673" stroke="#006838" stroke-width="0.1" stroke-miterlimit="10" cx="273" cy="272.068" r="5.293"/>
		<path fill="#2BB673" stroke="#006838" stroke-width="0.1" stroke-miterlimit="10" d="M267.707,271.738
			c0,2.74,2.369,4.963,5.293,4.963s5.293-2.223,5.293-4.963"/>
	</g>
	<g>
		<circle fill="#2BB673" stroke="#006838" stroke-width="0.25" stroke-miterlimit="10" cx="283" cy="262.068" r="5.895"/>
		<circle fill="#2BB673" stroke="#006838" stroke-width="0.1" stroke-miterlimit="10" cx="283" cy="262.068" r="5.293"/>
		<path fill="#2BB673" stroke="#006838" stroke-width="0.1" stroke-miterlimit="10" d="M277.707,261.738
			c0,2.74,2.369,4.963,5.293,4.963s5.293-2.223,5.293-4.963"/>
	</g>
</g>
<rect x="267" y="198.066" opacity="0.5" fill="#2BB673" stroke="#006838" stroke-width="0.25" stroke-miterlimit="10" width="0.729" height="8.875"/>
<path opacity="0.5" fill="#2BB673" stroke="#006838" stroke-width="0.25" stroke-miterlimit="10" d="M381.245,24.639
	c-0.078,0.078-0.205,0.078-0.283,0l-2.89-2.889c-0.078-0.078-0.078-0.205,0-0.283l2.89-2.889c0.078-0.078,0.204-0.077,0.282,0.001
	l2.89,2.889c0.078,0.078,0.078,0.204,0,0.282L381.245,24.639z"/>
<path opacity="0.5" fill="#2BB673" stroke="#006838" stroke-width="0.25" stroke-miterlimit="10" d="M372.949,32.934
	c-0.183,0.183-0.395,0.268-0.473,0.19l-2.89-2.889c-0.078-0.078,0.008-0.29,0.19-0.473L376.54,23
	c0.183-0.183,0.394-0.267,0.471-0.188l2.89,2.889c0.078,0.078-0.006,0.289-0.188,0.472L372.949,32.934z"/>
<path opacity="0.5" fill="#2BB673" stroke="#006838" stroke-width="0.25" stroke-miterlimit="10" d="M381.728,16.299
	c-0.344,0-0.625-0.28-0.625-0.625l0,0c0-0.345,0.281-0.625,0.625-0.625h1.709c0.344,0,0.625,0.28,0.625,0.625l0,0
	c0,0.345-0.281,0.625-0.625,0.625H381.728z"/>
<path opacity="0.5" fill="#2BB673" stroke="#006838" stroke-width="0.25" stroke-miterlimit="10" d="M379.728,14.299
	c-0.344,0-0.625-0.28-0.625-0.625l0,0c0-0.345,0.281-0.625,0.625-0.625h1.709c0.344,0,0.625,0.28,0.625,0.625l0,0
	c0,0.345-0.281,0.625-0.625,0.625H379.728z"/>
<path opacity="0.5" fill="#2BB673" stroke="#006838" stroke-width="0.25" stroke-miterlimit="10" d="M377.728,12.299
	c-0.344,0-0.625-0.28-0.625-0.625l0,0c0-0.345,0.281-0.625,0.625-0.625h1.709c0.344,0,0.625,0.28,0.625,0.625l0,0
	c0,0.345-0.281,0.625-0.625,0.625H377.728z"/>
<circle opacity="0.5" fill="#2BB673" stroke="#006838" stroke-width="0.1" stroke-miterlimit="10" cx="375.229" cy="13.299" r="1"/>
<circle opacity="0.5" fill="#2BB673" stroke="#006838" stroke-width="0.1" stroke-miterlimit="10" cx="373.229" cy="15.049" r="1"/>
<circle opacity="0.5" fill="#2BB673" stroke="#006838" stroke-width="0.1" stroke-miterlimit="10" cx="367.391" cy="17.384" r="0.623"/>
<g>
</g>
<g>
</g>
<g>
</g>
<g>
</g>
<g>
</g>
<g>
</g>
</svg>
