<?xml version="1.0" encoding="utf-8"?>
<!-- Generator: Adobe Illustrator 16.0.0, SVG Export Plug-In . SVG Version: 6.00 Build 0)  -->
<!DOCTYPE svg PUBLIC "-//W3C//DTD SVG 1.1//EN" "http://www.w3.org/Graphics/SVG/1.1/DTD/svg11.dtd">
<svg version="1.1" id="Layer_1" xmlns="http://www.w3.org/2000/svg" xmlns:xlink="http://www.w3.org/1999/xlink" x="0px" y="0px"
	 width="287.25px" height="287.25px" viewBox="0 0 287.25 287.25" enable-background="new 0 0 287.25 287.25" xml:space="preserve">
<pattern  x="-165.875" y="-213.875" width="72" height="74.8" patternUnits="userSpaceOnUse" id="USGS_8_Sewage_Disposal" viewBox="72.15 -74.8 72 74.8" overflow="visible">
	<g>
		<polygon fill="none" points="72.15,-74.8 144.15,-74.8 144.15,0 72.15,0 		"/>
		<g>
			<line fill="none" stroke="#000000" stroke-width="0.3" stroke-linecap="square" x1="144.15" y1="-0.85" x2="216.15" y2="-0.85"/>
			<line fill="none" stroke="#000000" stroke-width="0.3" stroke-linecap="square" x1="144.15" y1="-2.55" x2="216.15" y2="-2.55"/>
			<line fill="none" stroke="#000000" stroke-width="0.3" stroke-linecap="square" x1="144.15" y1="-4.25" x2="216.15" y2="-4.25"/>
			<line fill="none" stroke="#000000" stroke-width="0.3" stroke-linecap="square" x1="144.15" y1="-5.95" x2="216.15" y2="-5.95"/>
			<line fill="none" stroke="#000000" stroke-width="0.3" stroke-linecap="square" x1="144.15" y1="-7.65" x2="216.15" y2="-7.65"/>
			<line fill="none" stroke="#000000" stroke-width="0.3" stroke-linecap="square" x1="144.15" y1="-9.35" x2="216.15" y2="-9.35"/>
			
				<line fill="none" stroke="#000000" stroke-width="0.3" stroke-linecap="square" x1="144.15" y1="-11.05" x2="216.15" y2="-11.05"/>
			
				<line fill="none" stroke="#000000" stroke-width="0.3" stroke-linecap="square" x1="144.15" y1="-12.75" x2="216.15" y2="-12.75"/>
			
				<line fill="none" stroke="#000000" stroke-width="0.3" stroke-linecap="square" x1="144.15" y1="-14.45" x2="216.15" y2="-14.45"/>
			
				<line fill="none" stroke="#000000" stroke-width="0.3" stroke-linecap="square" x1="144.15" y1="-16.15" x2="216.15" y2="-16.15"/>
			
				<line fill="none" stroke="#000000" stroke-width="0.3" stroke-linecap="square" x1="144.15" y1="-17.85" x2="216.15" y2="-17.85"/>
			
				<line fill="none" stroke="#000000" stroke-width="0.3" stroke-linecap="square" x1="144.15" y1="-19.55" x2="216.15" y2="-19.55"/>
			
				<line fill="none" stroke="#000000" stroke-width="0.3" stroke-linecap="square" x1="144.15" y1="-21.25" x2="216.15" y2="-21.25"/>
			
				<line fill="none" stroke="#000000" stroke-width="0.3" stroke-linecap="square" x1="144.15" y1="-22.949" x2="216.15" y2="-22.949"/>
			
				<line fill="none" stroke="#000000" stroke-width="0.3" stroke-linecap="square" x1="144.15" y1="-24.649" x2="216.15" y2="-24.649"/>
			
				<line fill="none" stroke="#000000" stroke-width="0.3" stroke-linecap="square" x1="144.15" y1="-26.349" x2="216.15" y2="-26.349"/>
			
				<line fill="none" stroke="#000000" stroke-width="0.3" stroke-linecap="square" x1="144.15" y1="-28.049" x2="216.15" y2="-28.049"/>
			
				<line fill="none" stroke="#000000" stroke-width="0.3" stroke-linecap="square" x1="144.15" y1="-29.749" x2="216.15" y2="-29.749"/>
			
				<line fill="none" stroke="#000000" stroke-width="0.3" stroke-linecap="square" x1="144.15" y1="-31.449" x2="216.15" y2="-31.449"/>
			
				<line fill="none" stroke="#000000" stroke-width="0.3" stroke-linecap="square" x1="144.15" y1="-33.149" x2="216.15" y2="-33.149"/>
			
				<line fill="none" stroke="#000000" stroke-width="0.3" stroke-linecap="square" x1="144.15" y1="-34.849" x2="216.15" y2="-34.849"/>
			
				<line fill="none" stroke="#000000" stroke-width="0.3" stroke-linecap="square" x1="144.15" y1="-36.549" x2="216.15" y2="-36.549"/>
			
				<line fill="none" stroke="#000000" stroke-width="0.3" stroke-linecap="square" x1="144.15" y1="-38.249" x2="216.15" y2="-38.249"/>
			
				<line fill="none" stroke="#000000" stroke-width="0.3" stroke-linecap="square" x1="144.15" y1="-39.949" x2="216.15" y2="-39.949"/>
			
				<line fill="none" stroke="#000000" stroke-width="0.3" stroke-linecap="square" x1="144.15" y1="-41.649" x2="216.15" y2="-41.649"/>
			
				<line fill="none" stroke="#000000" stroke-width="0.3" stroke-linecap="square" x1="144.15" y1="-43.349" x2="216.15" y2="-43.349"/>
			
				<line fill="none" stroke="#000000" stroke-width="0.3" stroke-linecap="square" x1="144.15" y1="-45.049" x2="216.15" y2="-45.049"/>
			
				<line fill="none" stroke="#000000" stroke-width="0.3" stroke-linecap="square" x1="144.15" y1="-46.749" x2="216.15" y2="-46.749"/>
			
				<line fill="none" stroke="#000000" stroke-width="0.3" stroke-linecap="square" x1="144.15" y1="-48.449" x2="216.15" y2="-48.449"/>
			
				<line fill="none" stroke="#000000" stroke-width="0.3" stroke-linecap="square" x1="144.15" y1="-50.149" x2="216.15" y2="-50.149"/>
			
				<line fill="none" stroke="#000000" stroke-width="0.3" stroke-linecap="square" x1="144.15" y1="-51.849" x2="216.15" y2="-51.849"/>
			
				<line fill="none" stroke="#000000" stroke-width="0.3" stroke-linecap="square" x1="144.15" y1="-53.549" x2="216.15" y2="-53.549"/>
			
				<line fill="none" stroke="#000000" stroke-width="0.3" stroke-linecap="square" x1="144.15" y1="-55.249" x2="216.15" y2="-55.249"/>
			
				<line fill="none" stroke="#000000" stroke-width="0.3" stroke-linecap="square" x1="144.15" y1="-56.949" x2="216.15" y2="-56.949"/>
			
				<line fill="none" stroke="#000000" stroke-width="0.3" stroke-linecap="square" x1="144.15" y1="-58.649" x2="216.15" y2="-58.649"/>
			
				<line fill="none" stroke="#000000" stroke-width="0.3" stroke-linecap="square" x1="144.15" y1="-60.349" x2="216.15" y2="-60.349"/>
			
				<line fill="none" stroke="#000000" stroke-width="0.3" stroke-linecap="square" x1="144.15" y1="-62.049" x2="216.15" y2="-62.049"/>
			
				<line fill="none" stroke="#000000" stroke-width="0.3" stroke-linecap="square" x1="144.15" y1="-63.749" x2="216.15" y2="-63.749"/>
			
				<line fill="none" stroke="#000000" stroke-width="0.3" stroke-linecap="square" x1="144.15" y1="-65.449" x2="216.15" y2="-65.449"/>
			
				<line fill="none" stroke="#000000" stroke-width="0.3" stroke-linecap="square" x1="144.15" y1="-67.149" x2="216.15" y2="-67.149"/>
			
				<line fill="none" stroke="#000000" stroke-width="0.3" stroke-linecap="square" x1="144.15" y1="-68.849" x2="216.15" y2="-68.849"/>
			
				<line fill="none" stroke="#000000" stroke-width="0.3" stroke-linecap="square" x1="144.15" y1="-70.549" x2="216.15" y2="-70.549"/>
			
				<line fill="none" stroke="#000000" stroke-width="0.3" stroke-linecap="square" x1="144.15" y1="-72.249" x2="216.15" y2="-72.249"/>
			
				<line fill="none" stroke="#000000" stroke-width="0.3" stroke-linecap="square" x1="144.15" y1="-73.949" x2="216.15" y2="-73.949"/>
		</g>
		<g>
			<line fill="none" stroke="#000000" stroke-width="0.3" stroke-linecap="square" x1="72.15" y1="-0.85" x2="144.15" y2="-0.85"/>
			<line fill="none" stroke="#000000" stroke-width="0.3" stroke-linecap="square" x1="72.15" y1="-2.55" x2="144.15" y2="-2.55"/>
			<line fill="none" stroke="#000000" stroke-width="0.3" stroke-linecap="square" x1="72.15" y1="-4.25" x2="144.15" y2="-4.25"/>
			<line fill="none" stroke="#000000" stroke-width="0.3" stroke-linecap="square" x1="72.15" y1="-5.95" x2="144.15" y2="-5.95"/>
			<line fill="none" stroke="#000000" stroke-width="0.3" stroke-linecap="square" x1="72.15" y1="-7.65" x2="144.15" y2="-7.65"/>
			<line fill="none" stroke="#000000" stroke-width="0.3" stroke-linecap="square" x1="72.15" y1="-9.35" x2="144.15" y2="-9.35"/>
			
				<line fill="none" stroke="#000000" stroke-width="0.3" stroke-linecap="square" x1="72.15" y1="-11.05" x2="144.15" y2="-11.05"/>
			
				<line fill="none" stroke="#000000" stroke-width="0.3" stroke-linecap="square" x1="72.15" y1="-12.75" x2="144.15" y2="-12.75"/>
			
				<line fill="none" stroke="#000000" stroke-width="0.3" stroke-linecap="square" x1="72.15" y1="-14.45" x2="144.15" y2="-14.45"/>
			
				<line fill="none" stroke="#000000" stroke-width="0.3" stroke-linecap="square" x1="72.15" y1="-16.15" x2="144.15" y2="-16.15"/>
			
				<line fill="none" stroke="#000000" stroke-width="0.3" stroke-linecap="square" x1="72.15" y1="-17.85" x2="144.15" y2="-17.85"/>
			
				<line fill="none" stroke="#000000" stroke-width="0.3" stroke-linecap="square" x1="72.15" y1="-19.55" x2="144.15" y2="-19.55"/>
			
				<line fill="none" stroke="#000000" stroke-width="0.3" stroke-linecap="square" x1="72.15" y1="-21.25" x2="144.15" y2="-21.25"/>
			
				<line fill="none" stroke="#000000" stroke-width="0.3" stroke-linecap="square" x1="72.15" y1="-22.949" x2="144.15" y2="-22.949"/>
			
				<line fill="none" stroke="#000000" stroke-width="0.3" stroke-linecap="square" x1="72.15" y1="-24.649" x2="144.15" y2="-24.649"/>
			
				<line fill="none" stroke="#000000" stroke-width="0.3" stroke-linecap="square" x1="72.15" y1="-26.349" x2="144.15" y2="-26.349"/>
			
				<line fill="none" stroke="#000000" stroke-width="0.3" stroke-linecap="square" x1="72.15" y1="-28.049" x2="144.15" y2="-28.049"/>
			
				<line fill="none" stroke="#000000" stroke-width="0.3" stroke-linecap="square" x1="72.15" y1="-29.749" x2="144.15" y2="-29.749"/>
			
				<line fill="none" stroke="#000000" stroke-width="0.3" stroke-linecap="square" x1="72.15" y1="-31.449" x2="144.15" y2="-31.449"/>
			
				<line fill="none" stroke="#000000" stroke-width="0.3" stroke-linecap="square" x1="72.15" y1="-33.149" x2="144.15" y2="-33.149"/>
			
				<line fill="none" stroke="#000000" stroke-width="0.3" stroke-linecap="square" x1="72.15" y1="-34.849" x2="144.15" y2="-34.849"/>
			
				<line fill="none" stroke="#000000" stroke-width="0.3" stroke-linecap="square" x1="72.15" y1="-36.549" x2="144.15" y2="-36.549"/>
			
				<line fill="none" stroke="#000000" stroke-width="0.3" stroke-linecap="square" x1="72.15" y1="-38.249" x2="144.15" y2="-38.249"/>
			
				<line fill="none" stroke="#000000" stroke-width="0.3" stroke-linecap="square" x1="72.15" y1="-39.949" x2="144.15" y2="-39.949"/>
			
				<line fill="none" stroke="#000000" stroke-width="0.3" stroke-linecap="square" x1="72.15" y1="-41.649" x2="144.15" y2="-41.649"/>
			
				<line fill="none" stroke="#000000" stroke-width="0.3" stroke-linecap="square" x1="72.15" y1="-43.349" x2="144.15" y2="-43.349"/>
			
				<line fill="none" stroke="#000000" stroke-width="0.3" stroke-linecap="square" x1="72.15" y1="-45.049" x2="144.15" y2="-45.049"/>
			
				<line fill="none" stroke="#000000" stroke-width="0.3" stroke-linecap="square" x1="72.15" y1="-46.749" x2="144.15" y2="-46.749"/>
			
				<line fill="none" stroke="#000000" stroke-width="0.3" stroke-linecap="square" x1="72.15" y1="-48.449" x2="144.15" y2="-48.449"/>
			
				<line fill="none" stroke="#000000" stroke-width="0.3" stroke-linecap="square" x1="72.15" y1="-50.149" x2="144.15" y2="-50.149"/>
			
				<line fill="none" stroke="#000000" stroke-width="0.3" stroke-linecap="square" x1="72.15" y1="-51.849" x2="144.15" y2="-51.849"/>
			
				<line fill="none" stroke="#000000" stroke-width="0.3" stroke-linecap="square" x1="72.15" y1="-53.549" x2="144.15" y2="-53.549"/>
			
				<line fill="none" stroke="#000000" stroke-width="0.3" stroke-linecap="square" x1="72.15" y1="-55.249" x2="144.15" y2="-55.249"/>
			
				<line fill="none" stroke="#000000" stroke-width="0.3" stroke-linecap="square" x1="72.15" y1="-56.949" x2="144.15" y2="-56.949"/>
			
				<line fill="none" stroke="#000000" stroke-width="0.3" stroke-linecap="square" x1="72.15" y1="-58.649" x2="144.15" y2="-58.649"/>
			
				<line fill="none" stroke="#000000" stroke-width="0.3" stroke-linecap="square" x1="72.15" y1="-60.349" x2="144.15" y2="-60.349"/>
			
				<line fill="none" stroke="#000000" stroke-width="0.3" stroke-linecap="square" x1="72.15" y1="-62.049" x2="144.15" y2="-62.049"/>
			
				<line fill="none" stroke="#000000" stroke-width="0.3" stroke-linecap="square" x1="72.15" y1="-63.749" x2="144.15" y2="-63.749"/>
			
				<line fill="none" stroke="#000000" stroke-width="0.3" stroke-linecap="square" x1="72.15" y1="-65.449" x2="144.15" y2="-65.449"/>
			
				<line fill="none" stroke="#000000" stroke-width="0.3" stroke-linecap="square" x1="72.15" y1="-67.149" x2="144.15" y2="-67.149"/>
			
				<line fill="none" stroke="#000000" stroke-width="0.3" stroke-linecap="square" x1="72.15" y1="-68.849" x2="144.15" y2="-68.849"/>
			
				<line fill="none" stroke="#000000" stroke-width="0.3" stroke-linecap="square" x1="72.15" y1="-70.549" x2="144.15" y2="-70.549"/>
			
				<line fill="none" stroke="#000000" stroke-width="0.3" stroke-linecap="square" x1="72.15" y1="-72.249" x2="144.15" y2="-72.249"/>
			
				<line fill="none" stroke="#000000" stroke-width="0.3" stroke-linecap="square" x1="72.15" y1="-73.949" x2="144.15" y2="-73.949"/>
		</g>
		<g>
			<line fill="none" stroke="#000000" stroke-width="0.3" stroke-linecap="square" x1="0.15" y1="-0.85" x2="72.15" y2="-0.85"/>
			<line fill="none" stroke="#000000" stroke-width="0.3" stroke-linecap="square" x1="0.15" y1="-2.55" x2="72.15" y2="-2.55"/>
			<line fill="none" stroke="#000000" stroke-width="0.3" stroke-linecap="square" x1="0.15" y1="-4.25" x2="72.15" y2="-4.25"/>
			<line fill="none" stroke="#000000" stroke-width="0.3" stroke-linecap="square" x1="0.15" y1="-5.95" x2="72.15" y2="-5.95"/>
			<line fill="none" stroke="#000000" stroke-width="0.3" stroke-linecap="square" x1="0.15" y1="-7.65" x2="72.15" y2="-7.65"/>
			<line fill="none" stroke="#000000" stroke-width="0.3" stroke-linecap="square" x1="0.15" y1="-9.35" x2="72.15" y2="-9.35"/>
			<line fill="none" stroke="#000000" stroke-width="0.3" stroke-linecap="square" x1="0.15" y1="-11.05" x2="72.15" y2="-11.05"/>
			<line fill="none" stroke="#000000" stroke-width="0.3" stroke-linecap="square" x1="0.15" y1="-12.75" x2="72.15" y2="-12.75"/>
			<line fill="none" stroke="#000000" stroke-width="0.3" stroke-linecap="square" x1="0.15" y1="-14.45" x2="72.15" y2="-14.45"/>
			<line fill="none" stroke="#000000" stroke-width="0.3" stroke-linecap="square" x1="0.15" y1="-16.15" x2="72.15" y2="-16.15"/>
			<line fill="none" stroke="#000000" stroke-width="0.3" stroke-linecap="square" x1="0.15" y1="-17.85" x2="72.15" y2="-17.85"/>
			<line fill="none" stroke="#000000" stroke-width="0.3" stroke-linecap="square" x1="0.15" y1="-19.55" x2="72.15" y2="-19.55"/>
			<line fill="none" stroke="#000000" stroke-width="0.3" stroke-linecap="square" x1="0.15" y1="-21.25" x2="72.15" y2="-21.25"/>
			
				<line fill="none" stroke="#000000" stroke-width="0.3" stroke-linecap="square" x1="0.15" y1="-22.949" x2="72.15" y2="-22.949"/>
			
				<line fill="none" stroke="#000000" stroke-width="0.3" stroke-linecap="square" x1="0.15" y1="-24.649" x2="72.15" y2="-24.649"/>
			
				<line fill="none" stroke="#000000" stroke-width="0.3" stroke-linecap="square" x1="0.15" y1="-26.349" x2="72.15" y2="-26.349"/>
			
				<line fill="none" stroke="#000000" stroke-width="0.3" stroke-linecap="square" x1="0.15" y1="-28.049" x2="72.15" y2="-28.049"/>
			
				<line fill="none" stroke="#000000" stroke-width="0.3" stroke-linecap="square" x1="0.15" y1="-29.749" x2="72.15" y2="-29.749"/>
			
				<line fill="none" stroke="#000000" stroke-width="0.3" stroke-linecap="square" x1="0.15" y1="-31.449" x2="72.15" y2="-31.449"/>
			
				<line fill="none" stroke="#000000" stroke-width="0.3" stroke-linecap="square" x1="0.15" y1="-33.149" x2="72.15" y2="-33.149"/>
			
				<line fill="none" stroke="#000000" stroke-width="0.3" stroke-linecap="square" x1="0.15" y1="-34.849" x2="72.15" y2="-34.849"/>
			
				<line fill="none" stroke="#000000" stroke-width="0.3" stroke-linecap="square" x1="0.15" y1="-36.549" x2="72.15" y2="-36.549"/>
			
				<line fill="none" stroke="#000000" stroke-width="0.3" stroke-linecap="square" x1="0.15" y1="-38.249" x2="72.15" y2="-38.249"/>
			
				<line fill="none" stroke="#000000" stroke-width="0.3" stroke-linecap="square" x1="0.15" y1="-39.949" x2="72.15" y2="-39.949"/>
			
				<line fill="none" stroke="#000000" stroke-width="0.3" stroke-linecap="square" x1="0.15" y1="-41.649" x2="72.15" y2="-41.649"/>
			
				<line fill="none" stroke="#000000" stroke-width="0.3" stroke-linecap="square" x1="0.15" y1="-43.349" x2="72.15" y2="-43.349"/>
			
				<line fill="none" stroke="#000000" stroke-width="0.3" stroke-linecap="square" x1="0.15" y1="-45.049" x2="72.15" y2="-45.049"/>
			
				<line fill="none" stroke="#000000" stroke-width="0.3" stroke-linecap="square" x1="0.15" y1="-46.749" x2="72.15" y2="-46.749"/>
			
				<line fill="none" stroke="#000000" stroke-width="0.3" stroke-linecap="square" x1="0.15" y1="-48.449" x2="72.15" y2="-48.449"/>
			
				<line fill="none" stroke="#000000" stroke-width="0.3" stroke-linecap="square" x1="0.15" y1="-50.149" x2="72.15" y2="-50.149"/>
			
				<line fill="none" stroke="#000000" stroke-width="0.3" stroke-linecap="square" x1="0.15" y1="-51.849" x2="72.15" y2="-51.849"/>
			
				<line fill="none" stroke="#000000" stroke-width="0.3" stroke-linecap="square" x1="0.15" y1="-53.549" x2="72.15" y2="-53.549"/>
			
				<line fill="none" stroke="#000000" stroke-width="0.3" stroke-linecap="square" x1="0.15" y1="-55.249" x2="72.15" y2="-55.249"/>
			
				<line fill="none" stroke="#000000" stroke-width="0.3" stroke-linecap="square" x1="0.15" y1="-56.949" x2="72.15" y2="-56.949"/>
			
				<line fill="none" stroke="#000000" stroke-width="0.3" stroke-linecap="square" x1="0.15" y1="-58.649" x2="72.15" y2="-58.649"/>
			
				<line fill="none" stroke="#000000" stroke-width="0.3" stroke-linecap="square" x1="0.15" y1="-60.349" x2="72.15" y2="-60.349"/>
			
				<line fill="none" stroke="#000000" stroke-width="0.3" stroke-linecap="square" x1="0.15" y1="-62.049" x2="72.15" y2="-62.049"/>
			
				<line fill="none" stroke="#000000" stroke-width="0.3" stroke-linecap="square" x1="0.15" y1="-63.749" x2="72.15" y2="-63.749"/>
			
				<line fill="none" stroke="#000000" stroke-width="0.3" stroke-linecap="square" x1="0.15" y1="-65.449" x2="72.15" y2="-65.449"/>
			
				<line fill="none" stroke="#000000" stroke-width="0.3" stroke-linecap="square" x1="0.15" y1="-67.149" x2="72.15" y2="-67.149"/>
			
				<line fill="none" stroke="#000000" stroke-width="0.3" stroke-linecap="square" x1="0.15" y1="-68.849" x2="72.15" y2="-68.849"/>
			
				<line fill="none" stroke="#000000" stroke-width="0.3" stroke-linecap="square" x1="0.15" y1="-70.549" x2="72.15" y2="-70.549"/>
			
				<line fill="none" stroke="#000000" stroke-width="0.3" stroke-linecap="square" x1="0.15" y1="-72.249" x2="72.15" y2="-72.249"/>
			
				<line fill="none" stroke="#000000" stroke-width="0.3" stroke-linecap="square" x1="0.15" y1="-73.949" x2="72.15" y2="-73.949"/>
		</g>
	</g>
</pattern>
<path opacity="0.5" fill="#27AAE1" stroke="#1C75BC" stroke-width="0.25" stroke-miterlimit="10" d="M28.99,229.975
	C-13.474,173.748-9.086,93.396,42.155,42.155S173.748-13.474,229.975,28.99"/>
<path opacity="0.5" fill="#27AAE1" stroke="#1C75BC" stroke-width="0.25" stroke-miterlimit="10" d="M258.26,57.275
	c42.464,56.227,38.076,136.579-13.165,187.82s-131.593,55.629-187.82,13.164"/>
<path opacity="0.5" fill="#27AAE1" stroke="#1C75BC" stroke-width="0.25" stroke-miterlimit="10" d="M229.975,28.99
	c5.267,3.977,10.321,8.366,15.12,13.165s9.188,9.853,13.165,15.12"/>
<path opacity="0.5" fill="#27AAE1" stroke="#1C75BC" stroke-width="0.25" stroke-miterlimit="10" d="M258.26,57.275L57.275,258.259
	c-5.266-3.978-10.32-8.364-15.12-13.164c-4.799-4.799-9.188-9.854-13.165-15.12L229.975,28.99"/>
<path opacity="0.5" fill="#27AAE1" stroke="#1C75BC" stroke-width="0.25" stroke-miterlimit="10" d="M229.975,28.99L28.99,229.975
	L229.975,28.99z"/>
<path opacity="0.5" fill="#27AAE1" stroke="#1C75BC" stroke-width="0.25" stroke-miterlimit="10" d="M258.26,57.275L57.275,258.259
	L258.26,57.275z"/>
<pattern  id="SVGID_1_" xlink:href="#USGS_8_Sewage_Disposal" patternTransform="matrix(0.7071 0.7071 -0.7071 0.7071 -7392.4893 3265.6484)">
</pattern>
<path opacity="0.8" fill="url(#SVGID_1_)" stroke="#1C75BC" stroke-width="0.25" stroke-miterlimit="10" d="M28.99,229.975
	C-13.474,173.748-9.086,93.396,42.155,42.155S173.748-13.474,229.975,28.99"/>
<pattern  id="SVGID_2_" xlink:href="#USGS_8_Sewage_Disposal" patternTransform="matrix(0.7071 0.7071 -0.7071 0.7071 -7392.4893 3265.6484)">
</pattern>
<path opacity="0.8" fill="url(#SVGID_2_)" stroke="#1C75BC" stroke-width="0.25" stroke-miterlimit="10" d="M258.26,57.275
	c42.464,56.227,38.076,136.579-13.165,187.82s-131.593,55.629-187.82,13.164"/>
</svg>
