<?xml version="1.0" encoding="utf-8"?>
<!-- Generator: Adobe Illustrator 16.0.0, SVG Export Plug-In . SVG Version: 6.00 Build 0)  -->
<!DOCTYPE svg PUBLIC "-//W3C//DTD SVG 1.1//EN" "http://www.w3.org/Graphics/SVG/1.1/DTD/svg11.dtd">
<svg version="1.1" id="Layer_1" xmlns="http://www.w3.org/2000/svg" xmlns:xlink="http://www.w3.org/1999/xlink" x="0px" y="0px"
	 width="57.031px" height="490.666px" viewBox="60 0 57.031 490.666" enable-background="new 60 0 57.031 490.666"
	 xml:space="preserve">
<pattern  x="-246.985" y="641.833" width="24.806" height="24.81" patternUnits="userSpaceOnUse" id="SVGID_2_" viewBox="0 -24.811 24.806 24.81" overflow="visible">
	<g>
		<polygon fill="none" points="0,-0.001 24.806,-0.001 24.806,-24.811 0,-24.811 		"/>
		<g>
			<polygon fill="none" points="0,-24.811 24.806,-24.811 24.806,0 0,0 			"/>
			<g>
				<polygon fill="none" points="0,-24.811 24.806,-24.811 24.806,0 0,0 				"/>
				<polygon opacity="0.1" fill="#29AAE2" enable-background="new    " points="10.984,-10.988 13.82,-10.988 13.82,-13.825 
					10.984,-13.825 				"/>
				<polygon opacity="0.25" fill="#29AAE2" enable-background="new    " points="15.385,-14.838 24.806,-24.445 24.806,-24.809 
					24.442,-24.809 14.834,-15.389 				"/>
				<polygon opacity="0.25" fill="#29AAE2" enable-background="new    " points="9.972,-15.389 0.361,-24.811 0,-24.811 0,-24.445 
					9.421,-14.838 				"/>
				<polygon opacity="0.25" fill="#29AAE2" enable-background="new    " points="14.834,-9.424 24.443,0 24.806,0 24.806,-0.366 
					15.385,-9.975 				"/>
				<polygon opacity="0.25" fill="#29AAE2" enable-background="new    " points="9.421,-9.975 0,-0.368 0,-0.004 0.363,-0.004 
					9.972,-9.424 				"/>
			</g>
		</g>
	</g>
</pattern>
<pattern  id="SVGID_1_" xlink:href="#SVGID_2_" patternTransform="matrix(0.125 0 0 0.125 -20481.4766 -4887.0898)">
</pattern>
<path opacity="0.75" fill="url(#SVGID_1_)" enable-background="new    " d="M71.989,0c26.802,46.437,45.042,138.134,45.042,243.666
	c0,108.12-19.146,201.72-47.031,247H60c27.885-45.28,47.031-138.88,47.031-247c0-105.532-18.24-197.229-45.042-243.666H71.989z"/>
</svg>
