<?xml version="1.0" encoding="utf-8"?>
<!-- Generator: Adobe Illustrator 16.0.0, SVG Export Plug-In . SVG Version: 6.00 Build 0)  -->
<!DOCTYPE svg PUBLIC "-//W3C//DTD SVG 1.1//EN" "http://www.w3.org/Graphics/SVG/1.1/DTD/svg11.dtd">
<svg version="1.1" id="Layer_1" xmlns="http://www.w3.org/2000/svg" xmlns:xlink="http://www.w3.org/1999/xlink" x="0px" y="0px"
	 width="181.67px" height="191.004px" viewBox="0 0 181.67 191.004" enable-background="new 0 0 181.67 191.004"
	 xml:space="preserve">
<path fill="#2AAAE2" stroke="#2E368F" stroke-miterlimit="10" d="M179.928,123.204l1.021-7.272l-1.653-8.044l-1.472-6.086
	l-0.612-3.129l-0.182-4.831l-2.239-6.323l-2.233-5.12l-0.776-4.422l-0.537-2.085l-0.732-5.733l-1.801-6.264l-3.058-4.172
	l-0.895-2.802l-2.938-6.327l-2.514-2.067l-1.335-3.174l-2.257-4.512l-1.349-1.742l-3.782-6l-1.896-1.945l-1.471-2.117l-2.012-2.17
	l-4.293-4.096l-1.429-2.686l-4.625-4.363l-3.25-1.34l-5.229-3.411l-3.683-1.798l-2.297-1.485l-3.562-2.077l-3.273-1.513
	l-3.707-0.546l-3.977-0.201l-4.555-0.201l-1.367,0.078l-6.865,0.224l-4.289,1.149l-4.779-0.026l-0.167-0.007l-1.153-0.504
	l-7.409-3.438l-9.028,0.68l-8.962,0.096l-9.644,1.302l-8.838,5.039l-6.033,7.296l-5.522,6.691l-5.519,6.633l-4.64,7.127
	l-4.216,7.161l-2.566,7.869l-4.543,6.838l-2.947,7.566l-0.668,8.268l-1.258,7.744l-0.293,6.658l1.193,7.014l1.008,4.804l0.975,4.983
	l3.007,8.488l3.727,7.777l0.954,2.348l0.621,2.017l1.085,2.177l3.574,6.788l4.411,6.271l4.282,3.88l2.134,2.295l5.267,4.759
	l5.366,4.154l6.995,1.371l4.982,4.65l5.231,3.061l4.89,3.128l4.831,2.239L70,171.37l4.747,1.469l2.529,1.396l1.049,0.931
	l4.333,2.856l2.398,0.709l0.394,0.259l2.502,2.714l2.601,1.804l7.578,4.201l1.764,0.493l1.25,1.04l6.804,1.139l6.558-0.731
	l6.515-2.363l0.673-0.207l5.237-0.952l1.229-0.442l5.552-0.289l2.322-1.626l3.825-0.994l4.132-4.655l0.381-0.348l4.56-3.06
	l0.266-0.22l4.787-2.633l4.914-4.347l6.341-3.088l6.637-3.756l2.249-3.035l3.363-3.114l2.229-8.524l0.114-2.027l0.686-6.383
	l0.524-7.773l-0.238-0.77l-0.813-3.063L179.928,123.204z"/>
<path fill="#2AAAE2" stroke="#2E368F" stroke-width="1.25" stroke-linecap="round" stroke-linejoin="round" stroke-opacity="0.5" d="
	M87.409,6.114l-3.545-1.547l-1.153-0.504l-7.409-3.438l-9.028,0.68l-8.962,0.096l-9.644,1.302L38.83,7.742l-6.033,7.296
	l-5.522,6.691l-5.519,6.633l-4.64,7.127L12.9,42.65l-2.566,7.869l-4.543,6.838l-2.947,7.566l-0.668,8.268l-1.258,7.744l-0.293,6.658
	l1.193,7.014l1.008,4.804l0.975,4.983l3.007,8.489l3.727,7.776l0.954,2.347"/>
<path fill="#2AAAE2" stroke="#2E368F" stroke-width="1.25" stroke-linecap="round" stroke-linejoin="round" stroke-opacity="0.5" d="
	M10.03,118.262l1.459,4.744l0.621,2.018l1.085,2.177l3.574,6.788l4.411,6.27l4.282,3.881l1.567,1.42"/>
<path fill="#2AAAE2" stroke="#2E368F" stroke-width="1.25" stroke-linecap="round" stroke-linejoin="round" stroke-opacity="0.5" d="
	M25.462,144.139l2.134,2.295l5.267,4.759l5.366,4.154l6.995,1.37l0.24,0.048"/>
<path fill="#2AAAE2" stroke="#2E368F" stroke-width="1.25" stroke-linecap="round" stroke-linejoin="round" stroke-opacity="0.5" d="
	M45.224,156.717l4.982,4.651l5.231,3.06l4.89,3.129"/>
<path fill="#2AAAE2" stroke="#2E368F" stroke-width="1.25" stroke-linecap="round" stroke-linejoin="round" stroke-opacity="0.5" d="
	M78.99,175.176l-1.711-0.943l-2.529-1.396l-4.747-1.468l-4.845-1.573l-4.831-2.238l2.952,1.316l5.851,1.621"/>
<path fill="#2AAAE2" stroke="#2E368F" stroke-width="1.25" stroke-linecap="round" stroke-linejoin="round" stroke-opacity="0.5" d="
	M105.887,3.35l-4.261-0.177l-1.662,0.054l-6.866,0.224L88.81,4.6l-4.779-0.026l-0.167-0.007"/>
<path fill="#2AAAE2" stroke="#2E368F" stroke-width="1.25" stroke-linecap="round" stroke-linejoin="round" stroke-opacity="0.5" d="
	M165.207,104.647l-2.285-8.503l-2.218-5.041"/>
<path fill="#2AAAE2" stroke="#2E368F" stroke-width="1.25" stroke-linecap="round" stroke-linejoin="round" stroke-opacity="0.5" d="
	M146.088,36.449l-4.423-8.065l-3.358-4.557l-2.71-2.54l-3.711-1.984"/>
<path fill="#2AAAE2" stroke="#2E368F" stroke-width="1.25" stroke-linecap="round" stroke-linejoin="round" stroke-opacity="0.5" d="
	M77.279,174.233l1.049,0.93l4.333,2.857l2.398,0.709l1.768,0.523"/>
<path fill="#2AAAE2" stroke="#2E368F" stroke-width="1.25" stroke-linecap="round" stroke-linejoin="round" stroke-opacity="0.5" d="
	M163.729,85.525l-3.658-5.706l-1.956-5.952l-0.09-0.277l-0.114-1.408l-0.227-2.771l-0.017-0.221l-0.048-0.586"/>
<path fill="#2AAAE2" stroke="#2E368F" stroke-width="1.25" stroke-linecap="round" stroke-linejoin="round" stroke-opacity="0.5" d="
	M172.143,100.481l-2.375-7.304l-0.539-1.006l-3.315-4.633l-0.257-0.359"/>
<path fill="#2AAAE2" stroke="#2E368F" stroke-width="1.25" stroke-linecap="round" stroke-linejoin="round" stroke-opacity="0.5" d="
	M157.684,69.412l-0.02-5.935"/>
<path fill="#2AAAE2" stroke="#2E368F" stroke-width="1.25" stroke-linecap="round" stroke-linejoin="round" stroke-opacity="0.5" d="
	M158.113,73.867l-0.204-1.685"/>
<path fill="#2AAAE2" stroke="#2E368F" stroke-width="1.25" stroke-linecap="round" stroke-linejoin="round" stroke-opacity="0.5" d="
	M161.54,53.508l-0.707-1.359l-0.028-0.064l-0.009-0.023l-1.488-3.536l-1.335-3.174l-2.257-4.512l-1.349-1.742l-3.782-6l-1.896-1.945
	l-1.471-2.117l-2.012-2.17l-4.293-4.096l-1.718-1.638l-2.441-2.588l-5.58-4.358l-5.339-2.986l-3.137-2.028l-2.297-1.485
	l-3.562-2.077l-3.274-1.513l-3.705-0.546l-3.977-0.201l-4.556-0.201l-1.367,0.078"/>
<path fill="#2AAAE2" stroke="#2E368F" stroke-width="1.25" stroke-linecap="round" stroke-linejoin="round" stroke-opacity="0.5" d="
	M85.059,178.729l0.394,0.259l2.502,2.714l2.601,1.805l7.579,4.199l1.762,0.494l6.257,1.75l1.798,0.43"/>
<path fill="#2AAAE2" stroke="#2E368F" stroke-width="1.25" stroke-linecap="round" stroke-linejoin="round" stroke-opacity="0.5" d="
	M165.912,87.538l-3.176-5.027l-3.328-4.972"/>
<path fill="#2AAAE2" stroke="#2E368F" stroke-width="1.25" stroke-linecap="round" stroke-linejoin="round" stroke-opacity="0.5" d="
	M140.915,22.77l-1.429-2.686l-4.625-4.363l-3.25-1.34l-5.229-3.411l-3.683-1.798"/>
<path fill="#2AAAE2" stroke="#2E368F" stroke-width="1.25" stroke-linecap="round" stroke-linejoin="round" stroke-opacity="0.5" d="
	M99.896,188.2l1.25,1.04l6.805,1.14l6.558-0.732l6.515-2.363l0.47-0.17l0.203-0.037l5.237-0.953l1.229-0.441l5.552-0.289
	l2.322-1.626l2.437-1.707"/>
<path fill="#2AAAE2" stroke="#2E368F" stroke-width="1.25" stroke-linecap="round" stroke-linejoin="round" stroke-opacity="0.5" d="
	M177.748,111.045l-1.797-5.918"/>
<path fill="#2AAAE2" stroke="#2E368F" stroke-width="1.25" stroke-linecap="round" stroke-linejoin="round" stroke-opacity="0.5" d="
	M121.022,187.284l0.673-0.207"/>
<path fill="#2AAAE2" stroke="#2E368F" stroke-width="1.25" stroke-linecap="round" stroke-linejoin="round" stroke-opacity="0.5" d="
	M179.612,146.053l0.223-2.088l0.685-6.381l0.525-7.774l-0.238-0.771l-0.813-3.062l-1.507-5.677l-0.289-7.775l-0.35-1.225
	l-0.102-0.256l-0.715-1.811l-2.624-6.634l-1.877-5.776"/>
<path fill="#2AAAE2" stroke="#2E368F" stroke-width="1.25" stroke-linecap="round" stroke-linejoin="round" stroke-opacity="0.5" d="
	M163.294,55.939l-0.79-1.244l-1.708-2.633"/>
<path fill="#2AAAE2" stroke="#2E368F" stroke-width="1.25" stroke-linecap="round" stroke-linejoin="round" stroke-opacity="0.5" d="
	M136.037,183.767l3.825-0.994l4.132-4.655l0.381-0.348l3.938-3.594l4.668-3.028l4.695-4.464l6.124-3.331"/>
<path fill="#2AAAE2" stroke="#2E368F" stroke-width="1.25" stroke-linecap="round" stroke-linejoin="round" stroke-opacity="0.5" d="
	M176.586,100.012l-0.183-1.273l-1.839-5.491"/>
<path fill="#2AAAE2" stroke="#2E368F" stroke-width="1.25" stroke-linecap="round" stroke-linejoin="round" stroke-opacity="0.5" d="
	M166.72,63.08l-1.067-3.358l-0.895-2.802l-2.938-6.327l-2.514-2.067"/>
<path fill="#2AAAE2" stroke="#2E368F" stroke-width="1.25" stroke-linecap="round" stroke-linejoin="round" stroke-opacity="0.5" d="
	M144.375,177.77l4.56-3.059l0.266-0.221l4.423-3.676"/>
<path fill="#2AAAE2" stroke="#2E368F" stroke-width="1.25" stroke-linecap="round" stroke-linejoin="round" stroke-opacity="0.5" d="
	M177.297,100.967l-0.086-2.297l-0.182-4.83l-2.239-6.323l-2.233-5.12l-0.388-0.888"/>
<path fill="#2AAAE2" stroke="#2E368F" stroke-width="1.25" stroke-linecap="round" stroke-linejoin="round" stroke-opacity="0.5" d="
	M171.322,76.515l-0.08-0.624l-0.732-5.733l-1.801-6.264l-3.058-4.172"/>
<path fill="#2AAAE2" stroke="#2E368F" stroke-width="1.25" stroke-linecap="round" stroke-linejoin="round" stroke-opacity="0.5" d="
	M149.199,174.491l4.787-2.633l4.914-4.348l6.341-3.086l6.637-3.758l2.249-3.033l2.595-3.5"/>
<path fill="#2AAAE2" stroke="#2E368F" stroke-width="1.25" stroke-linecap="round" stroke-linejoin="round" stroke-opacity="0.5" d="
	M179.994,125.978l-0.066-2.774l1.021-7.272l-1.653-8.044l-1.472-6.086l-0.612-3.129"/>
<path fill="#2AAAE2" stroke="#2E368F" stroke-width="1.25" stroke-linecap="round" stroke-linejoin="round" stroke-opacity="0.5" d="
	M172.557,82.398l-0.776-4.422l-0.537-2.085"/>
<path fill="#2AAAE2" stroke="#2E368F" stroke-width="1.25" stroke-linecap="round" stroke-linejoin="round" stroke-opacity="0.5" d="
	M174.127,157.633l3.363-3.115l2.229-8.524l0.114-2.028"/>
</svg>
