<?xml version="1.0" encoding="utf-8"?>
<!-- Generator: Adobe Illustrator 16.0.0, SVG Export Plug-In . SVG Version: 6.00 Build 0)  -->
<!DOCTYPE svg PUBLIC "-//W3C//DTD SVG 1.1//EN" "http://www.w3.org/Graphics/SVG/1.1/DTD/svg11.dtd">
<svg version="1.1" id="Layer_1" xmlns="http://www.w3.org/2000/svg" xmlns:xlink="http://www.w3.org/1999/xlink" x="0px" y="0px"
	 width="155.355px" height="136.118px" viewBox="0 0 155.355 136.118" enable-background="new 0 0 155.355 136.118"
	 xml:space="preserve">
<path fill="#2AAAE2" stroke="#2E368F" stroke-miterlimit="10" d="M147.296,88.066l0.436-2.346l1.383-4.553l0.307-2.189l0.801-2.305
	l1.115-3.576l1.369-1.925l0.35-1.779l1.674-2.936l-0.164-2.858l-0.264-4.438l-2.377-3.748l-0.078-3.963l-2.771-3.299l0.57-4.509
	l0.041-4.453l-4.063-2.64l-2.285-1.915l-0.062-2.912l-2.053-2.382l-1.138-5.137l-3.924-2.281l-4.348-3.742l-1.959-1.192
	l-2.273-3.326l-2.029-0.467l-1.622-1.691l-4.148-0.86l-5.214-0.594l-4.54-2.358l-3.953,0.44l-1.323,0.337l-1.645-0.867l-3.689,0.865
	L97.63,8.441l-3.642-1.125l-0.875-0.813l-3.662-1.465l-4.364-1.886L81.35,4.149l-2.201-1.485l-4.427-2.037L70.56,2.183l-5.39-1.458
	L61.797,4.86l-0.172-0.146l-4.572,2.34l-2.742-0.021l-5.53,1.63L42.633,9.65l-0.361,0.55l-2.176,0.955L38.9,10.935l-6.112,1.999
	l-5.824,3.834l-5.76,4.824l-1.603,0.91l-2.009,5.197l-4.149,5.124l-0.644,4.759l-2.135,3.599l-2.39,2.926l-1.325,3.612l0.186,2.865
	l-0.156,2.574l-3.12,5.763l-1.144,5.65l-2.09,5.729l1.378,3.352l0.035,0.204L0.8,78.073l1.113,3.016l-1.189,3.795l1.92,1.389
	l1.659,2.022l0.372,4.901l5.267,1.618l0.047,0.095l0.236,0.256l-0.278,5.058l2.335,2.212l-0.383,2.601l2.806,0.768l0.988,1.883
	l3.943,2.517l4.31,2.85l1.813,6.652l7.711-2.281l1.534,1.74l2.224,3.078l4.659-1.597l3.492,1.212l1.834,0.816l3.84,1.356
	l2.244,5.388l3.919-1.021l2.02,2.7l3.55,2.561l5.696-1.943l4.5,3.467l1.925-0.25l2.602,0.567l4.612-2.172l4.608-0.956l4.807,0.016
	l3.744-1.049l1.075-0.808l4.438-0.729l5.021-1.214l2.825-1.521l1.705-0.588l1.092-0.787l0.386,0.016l3.06-1.421l0.834,0.283
	l3.99,0.775l2.164-4.448l2.248-3.095l6.116-0.655l2.78-4.745l1.094-1.353l1.006-3.066l2.311-0.783l-0.209-2.847l1.264-2.007
	l2.183-4.162l3.384-3.53l1.82-4.717L147.296,88.066z"/>
<path fill="#2AAAE2" stroke="#2E368F" stroke-width="1.25" stroke-linecap="round" stroke-linejoin="round" stroke-opacity="0.5" d="
	M95.7,116.721l7.72-0.453l9.33-4.39"/>
<path fill="#2AAAE2" stroke="#2E368F" stroke-width="1.25" stroke-linecap="round" stroke-linejoin="round" stroke-opacity="0.5" d="
	M67.669,125.659l3.592,1.07l0.021,0.006l0.387,0.115l0.345,0.104l5.399,0.896"/>
<path fill="#2AAAE2" stroke="#2E368F" stroke-width="1.25" stroke-linecap="round" stroke-linejoin="round" stroke-opacity="0.5" d="
	M66.328,29.153l-8.79,1.185"/>
<path fill="#2AAAE2" stroke="#2E368F" stroke-width="1.25" stroke-linecap="round" stroke-linejoin="round" stroke-opacity="0.5" d="
	M9.824,92.043l0.308,2.331l0.068,0.518l0.028,0.212l0.01,0.072l0.44,3.34"/>
<path fill="#2AAAE2" stroke="#2E368F" stroke-width="1.25" stroke-linecap="round" stroke-linejoin="round" stroke-opacity="0.5" d="
	M50.697,120.838l3.086,2.357l1.143,0.531"/>
<path fill="#2AAAE2" stroke="#2E368F" stroke-width="1.25" stroke-linecap="round" stroke-linejoin="round" stroke-opacity="0.5" d="
	M20.369,35.562l-5.834,4.57l3.759,8.072"/>
<path fill="#2AAAE2" stroke="#2E368F" stroke-width="1.25" stroke-linecap="round" stroke-linejoin="round" stroke-opacity="0.5" d="
	M2.035,67.193L1.762,72.26l0.241,1.391l0.035,0.204l0.835,4.839"/>
<path fill="#2AAAE2" stroke="#2E368F" stroke-width="1.25" stroke-linecap="round" stroke-linejoin="round" stroke-opacity="0.5" d="
	M95.023,128.996l0.475-0.427l0.868-0.777l1.988-0.536l0.833-0.224l2.074-0.562l4.384-4.697"/>
<path fill="#2AAAE2" stroke="#2E368F" stroke-width="1.25" stroke-linecap="round" stroke-linejoin="round" stroke-opacity="0.5" d="
	M2.038,73.854L0.8,78.07l1.113,3.017l-1.189,3.795l1.92,1.389l2.155,1.562"/>
<path fill="#2AAAE2" stroke="#2E368F" stroke-width="1.25" stroke-linecap="round" stroke-linejoin="round" stroke-opacity="0.5" d="
	M10.228,95.104l-0.003,0.06l-0.278,5.058l2.335,2.212l1.305,1.235l1.118,2.132l0.988,1.883l3.943,2.518l4.31,2.849l1.813,6.653
	l7.711-2.282"/>
<path fill="#2AAAE2" stroke="#2E368F" stroke-width="1.25" stroke-linecap="round" stroke-linejoin="round" stroke-opacity="0.5" d="
	M32.694,116.538l0.776,0.88l1.534,1.741l1.115,1.265"/>
<path fill="#2AAAE2" stroke="#2E368F" stroke-width="1.25" stroke-linecap="round" stroke-linejoin="round" stroke-opacity="0.5" d="
	M41.173,120.393l0.714,0.248l3.492,1.212l0.938,0.325"/>
<path fill="#2AAAE2" stroke="#2E368F" stroke-width="1.25" stroke-linecap="round" stroke-linejoin="round" stroke-opacity="0.5" d="
	M60.029,125.436l2.83,3.404l1.054,0.961"/>
<path fill="#2AAAE2" stroke="#2E368F" stroke-width="1.25" stroke-linecap="round" stroke-linejoin="round" stroke-opacity="0.5" d="
	M50.597,122.932l0.456,1.095l2.244,5.387l3.919-1.021l3.005-0.783"/>
<path fill="#2AAAE2" stroke="#2E368F" stroke-width="1.25" stroke-linecap="round" stroke-linejoin="round" stroke-opacity="0.5" d="
	M106.935,125.497l4.25,0.177l0.25,0.011l0.386,0.016l3.06-1.421l1.905-0.884l0.101-0.047l1.227-0.57"/>
<path fill="#2AAAE2" stroke="#2E368F" stroke-width="1.25" stroke-linecap="round" stroke-linejoin="round" stroke-opacity="0.5" d="
	M2.644,86.27l1.659,2.022l0.372,4.901l5.267,1.618l0.258,0.079"/>
<path fill="#2AAAE2" stroke="#2E368F" stroke-width="1.25" stroke-linecap="round" stroke-linejoin="round" stroke-opacity="0.5" d="
	M129.632,102.953l-0.287-1.928l0.468-5.7"/>
<path fill="#2AAAE2" stroke="#2E368F" stroke-width="1.25" stroke-linecap="round" stroke-linejoin="round" stroke-opacity="0.5" d="
	M12.799,37.579l-2.135,3.599l-2.39,2.926l-1.325,3.612l0.186,2.865l0.253,3.893l-3.274,5.035L3.59,65.817"/>
<path fill="#2AAAE2" stroke="#2E368F" stroke-width="1.25" stroke-linecap="round" stroke-linejoin="round" stroke-opacity="0.5" d="
	M72.463,134.392l2.444,0.534l2.602,0.567l4.612-2.172l4.608-0.955l4.807,0.015l3.744-1.049l1.075-0.808l0.719-0.54l1.514-1.135
	l0.315-0.099l3.683-1.147l3.799,0.234l2.254-0.779l1.705-0.588l1.092-0.787"/>
<path fill="#2AAAE2" stroke="#2E368F" stroke-width="1.25" stroke-linecap="round" stroke-linejoin="round" stroke-opacity="0.5" d="
	M35.004,119.159l2.224,3.078l4.659-1.597"/>
<path fill="#2AAAE2" stroke="#2E368F" stroke-width="1.25" stroke-linecap="round" stroke-linejoin="round" stroke-opacity="0.5" d="
	M45.379,121.853l1.834,0.816l3.84,1.356"/>
<path fill="#2AAAE2" stroke="#2E368F" stroke-width="1.25" stroke-linecap="round" stroke-linejoin="round" stroke-opacity="0.5" d="
	M125.093,114.378l3.524-3.682l3.802-3.128"/>
<path fill="#2AAAE2" stroke="#2E368F" stroke-width="1.25" stroke-linecap="round" stroke-linejoin="round" stroke-opacity="0.5" d="
	M7.135,50.581l-0.156,2.573l-3.12,5.764l-1.144,5.65l-2.09,5.729l1.378,3.352"/>
<path fill="#2AAAE2" stroke="#2E368F" stroke-width="1.25" stroke-linecap="round" stroke-linejoin="round" stroke-opacity="0.5" d="
	M114.88,124.279l0.834,0.283l3.989,0.775l2.165-4.448l2.248-3.095l0.715-0.982l0.618-0.756l2.144-3.726"/>
<path fill="#2AAAE2" stroke="#2E368F" stroke-width="1.25" stroke-linecap="round" stroke-linejoin="round" stroke-opacity="0.5" d="
	M12.282,102.432l-0.383,2.601l2.806,0.768"/>
<path fill="#2AAAE2" stroke="#2E368F" stroke-width="1.25" stroke-linecap="round" stroke-linejoin="round" stroke-opacity="0.5" d="
	M57.216,128.393l2.02,2.7l3.55,2.561l5.696-1.943l4.5,3.467l1.925-0.25"/>
<path fill="#2AAAE2" stroke="#2E368F" stroke-width="1.25" stroke-linecap="round" stroke-linejoin="round" stroke-opacity="0.5" d="
	M9.942,94.813l0.047,0.095l0.236,0.256"/>
<path fill="#2AAAE2" stroke="#2E368F" stroke-width="1.25" stroke-linecap="round" stroke-linejoin="round" stroke-opacity="0.5" d="
	M111.333,13.652l-0.957-0.492l-3.181,0.554"/>
<path fill="#2AAAE2" stroke="#2E368F" stroke-width="1.25" stroke-linecap="round" stroke-linejoin="round" stroke-opacity="0.5" d="
	M58.155,7.06l-1.102-0.009l-2.742-0.021l-5.53,1.631l-6.148,0.987l-0.361,0.549l-0.795,1.211l-0.26,0.396l-2.771,4.214"/>
<path fill="#2AAAE2" stroke="#2E368F" stroke-width="1.25" stroke-linecap="round" stroke-linejoin="round" stroke-opacity="0.5" d="
	M42.272,10.196l-2.176,0.955l-2.607,1.146l-3.721,0.736l-3.055,7.19"/>
<path fill="#2AAAE2" stroke="#2E368F" stroke-width="1.25" stroke-linecap="round" stroke-linejoin="round" stroke-opacity="0.5" d="
	M84.21,6.082l-2.861-1.935l-2.2-1.486l-4.427-2.036L70.56,2.181l-5.39-1.458l-3.373,4.136l-0.715,0.876L58.155,7.06l-0.148,0.066
	l-0.189,0.086"/>
<path fill="#2AAAE2" stroke="#2E368F" stroke-width="1.25" stroke-linecap="round" stroke-linejoin="round" stroke-opacity="0.5" d="
	M96.355,130.525l4.438-0.729l5.021-1.214l2.825-1.521"/>
<path fill="#2AAAE2" stroke="#2E368F" stroke-width="1.25" stroke-linecap="round" stroke-linejoin="round" stroke-opacity="0.5" d="
	M40.096,11.151l-1.196-0.22l-6.112,1.999l-5.824,3.834l-5.76,4.824l-1.603,0.91l-2.009,5.196l-4.149,5.124l-0.644,4.76l-0.226,1.666
	"/>
<path fill="#2AAAE2" stroke="#2E368F" stroke-width="1.25" stroke-linecap="round" stroke-linejoin="round" stroke-opacity="0.5" d="
	M124.117,117.795l6.116-0.655l2.78-4.745l1.094-1.353l1.006-3.066l0.691-2.107l1.295-1.711l0.093-0.12l1.286-1.697l2.183-4.162
	l0.396-0.753"/>
<path fill="#2AAAE2" stroke="#2E368F" stroke-width="1.25" stroke-linecap="round" stroke-linejoin="round" stroke-opacity="0.5" d="
	M143.394,37.276l-0.055-2.641l-0.062-2.912l-2.053-2.382l-0.69-0.8"/>
<path fill="#2AAAE2" stroke="#2E368F" stroke-width="1.25" stroke-linecap="round" stroke-linejoin="round" stroke-opacity="0.5" d="
	M136.333,103.746l0.698-0.89l0.067-0.086l2.886-3.666l0.146-0.375l0.095-0.247l1.692-4.374l3.559-4.023l0.525-0.595l0.152-0.31
	l1.367-2.769l0.211-0.692l1.383-4.553l0.307-2.189l0.801-2.305l1.115-3.576l0.475-1.519l1.244-2.187l1.674-2.936l-0.164-2.858
	l-0.264-4.438l-2.377-3.748"/>
<path fill="#2AAAE2" stroke="#2E368F" stroke-width="1.25" stroke-linecap="round" stroke-linejoin="round" stroke-opacity="0.5" d="
	M141.224,29.342l-1.137-5.137l-3.924-2.281l-4.348-3.742l-1.959-1.193l-1.604-0.976l-2.699-2.816l-1.623-1.691l-4.147-0.86
	l-5.214-0.594l-4.54-2.358l-3.953,0.44l-1.323,0.337l-1.084,0.276l-0.442,0.111l-2.06,0.524l-4.412,0.509l-1.586-1.476l-0.397-0.37
	l-0.783-0.729l-0.875-0.813l-3.662-1.465l-4.364-1.886l-3.738,0.996"/>
<path fill="#2AAAE2" stroke="#2E368F" stroke-width="1.25" stroke-linecap="round" stroke-linejoin="round" stroke-opacity="0.5" d="
	M61.797,4.858l-0.172-0.146l-4.572,2.34"/>
<path fill="#2AAAE2" stroke="#2E368F" stroke-width="1.25" stroke-linecap="round" stroke-linejoin="round" stroke-opacity="0.5" d="
	M137.117,104.5l0.098-0.154l1.264-2.007"/>
<path fill="#2AAAE2" stroke="#2E368F" stroke-width="1.25" stroke-linecap="round" stroke-linejoin="round" stroke-opacity="0.5" d="
	M151.941,56.233l-0.016-0.819l-0.078-3.964l-2.771-3.298l0.57-4.509l0.041-4.453l-4.063-2.64l-2.285-1.915"/>
<path fill="#2AAAE2" stroke="#2E368F" stroke-width="1.25" stroke-linecap="round" stroke-linejoin="round" stroke-opacity="0.5" d="
	M135.113,107.976l2.311-0.783l-0.209-2.847"/>
<path fill="#2AAAE2" stroke="#2E368F" stroke-width="1.25" stroke-linecap="round" stroke-linejoin="round" stroke-opacity="0.5" d="
	M103.669,8.745l-0.996-0.232l-3.254-0.046L97.63,8.44l-3.642-1.125"/>
<path fill="#2AAAE2" stroke="#2E368F" stroke-width="1.25" stroke-linecap="round" stroke-linejoin="round" stroke-opacity="0.5" d="
	M143.837,92.568l2.027-2.639l1.432-1.863l0.436-2.346"/>
<path fill="#2AAAE2" stroke="#2E368F" stroke-width="1.25" stroke-linecap="round" stroke-linejoin="round" stroke-opacity="0.5" d="
	M151.337,73.098l1.369-1.925l0.35-1.779"/>
<path fill="#2AAAE2" stroke="#2E368F" stroke-width="1.25" stroke-linecap="round" stroke-linejoin="round" stroke-opacity="0.5" d="
	M140.661,98.177l3.384-3.53l1.82-4.717"/>
<path fill="#2AAAE2" stroke="#2E368F" stroke-width="1.25" stroke-linecap="round" stroke-linejoin="round" stroke-opacity="0.5" d="
	M104.753,8.469l-1.645-0.867l-3.689,0.865"/>
<path fill="#2AAAE2" stroke="#2E368F" stroke-width="1.25" stroke-linecap="round" stroke-linejoin="round" stroke-opacity="0.5" d="
	M129.857,16.988l-2.273-3.325l-2.029-0.467"/>
</svg>
