<?xml version="1.0" encoding="utf-8"?>
<!-- Generator: Adobe Illustrator 16.0.0, SVG Export Plug-In . SVG Version: 6.00 Build 0)  -->
<!DOCTYPE svg PUBLIC "-//W3C//DTD SVG 1.1//EN" "http://www.w3.org/Graphics/SVG/1.1/DTD/svg11.dtd">
<svg version="1.1" id="Layer_1" xmlns="http://www.w3.org/2000/svg" xmlns:xlink="http://www.w3.org/1999/xlink" x="0px" y="0px"
	 width="163.834px" height="164.968px" viewBox="0 0 163.834 164.968" enable-background="new 0 0 163.834 164.968"
	 xml:space="preserve">
<path fill="#2AAAE2" stroke="#2E368F" stroke-miterlimit="10" d="M84.414,156.179l0.188-0.112l0.554-0.083l1.348-0.218l0.406-0.868
	l0.408-0.091l3.966-2.059l3.511-1.263l0.551-0.805l2.93-0.34l0.794-1.438l1.939-3.088l1.4-0.747l0.078-0.02l4.399-0.038l1.393-1.811
	l0.984-1.347l3.374-2.203l4.204-1.979l1.742-2.829l3.743-0.199l0.948-3.139l3.343-2.773l0.084-0.633l2.72,0.162l1.098-3.524
	l0.26-0.071l0.021-0.829l0.393-1.264l0.818-0.478l1.767-2.303l3.128-1.193l0.756-4.457l0.25-1.567l0.826-0.478l0.591-6.177
	l2.143-5.472l4.148-6.247l2.898-2.718l0.582-4.518l3.125-2.396l0.989-3.397l0.099-2.112l-0.029-0.606l0.455-0.768l1.876-3.579
	l0.334-3.839l0.146-0.6l1.994-1.994l1.947-2.765l1.085-4.261l0.028-0.105l1.804-2.098l0.138-3.155l0.122-3.887l-0.28-4.146
	l-3.049-3.254l-1.491-3.771l-3.319-1.979l-1.903-4.41l-3.681-0.192l-3.373-1.34l-0.396-0.075l-2.696-1.083l-5.388,0.33l-4.887-2.705
	l-1.113,0.186l-4.348,1.246l-6.433-0.487l-4.743,2.063l-4.834-0.146l-7.599,2.938l-3.091,0.731l-2.027-0.837l-2.165,0.251
	l-0.284-0.224l-2.418-0.312l-1.286-0.544l-0.649-0.453l-0.625-0.087l-0.427-0.18l-1.146-0.038l-1.578-0.218l-0.243-0.035
	l-1.809-0.931l-1.753-0.563l-3.924-2.784l-2.996-1.409l-6.094-2.938l-4.452-3.305l-3.531-2.598l-1.79-0.229l-4.197-1.131
	l-1.759-5.254l-5.63-0.473l-3.728-1.151l-0.906-0.989l-1.825-0.241l-0.256-0.112l-2.441-1.731l-1.998-0.73l-2.543-2.146
	l-0.526-0.145l-2.957-2.883l-2.863-0.058L29.475,0.62l-2.268,0.16l-2.319,0.741l-3.506,2.442L16.53,6.847l-1.773,2.197L14.05,9.613
	l-1.079,2.056l-0.396,0.295l-2.682,3.012l-0.527,4.315l-2.313,3.591l-1.408,3.598l-1.24,3.181l-0.059,0.465l-1.146,2.478
	l-1.339,3.814l0.041,1.185l-0.348,1.875l0.042,2.332l-0.555,2.83l-0.24,3.064l-0.176,0.76l0.109,0.496l0.033,3.265l1.646,3.075
	l0.779,2.399l0.172,0.382l0.354,4.478l3.063,6.005l4.479,6.313l3.604,4.493l1.256,6.344l2.354,1.956l2.085,3.467l-1.145,3.615
	l-0.252,4.613l-1.169,3.017l4.267,3.204l-0.636,2.917l1.328,1.753l-0.026,0.44l0.483,3.898l-0.421,8.984l1.604,4.124l-0.016,0.056
	l0.547,6.146l0.938,1.063L26,135.655l2.526,7.136l3.631,3.811l1.224,1.118l0.235,0.156l1.566,1.365l3.025,2.8l3.846,2.383
	l0.16,0.247l0.904,0.372l2.66,1.541l0.704,0.199l1.479,1.278l0.657,0.374l0.336,0.101l1.68,0.802l3.015,2.336l0.654,0.315
	l1.025,0.688l0.655,0.123l3.262,1.001l3.349,0.208l3.166,0.326l2.969-0.402l3.098-1.162l1.384-0.279l2.431-1.06l1.881-1.466
	l0.106-0.045l0.211-0.203l2.727-2.563l1.655-0.706l0.442,0.225L84.414,156.179z"/>
<path fill="#2AAAE2" stroke="#2E368F" stroke-width="1.25" stroke-linecap="round" stroke-linejoin="round" stroke-opacity="0.5" d="
	M108.032,116.074l1.25-0.055l4.684-0.655"/>
<path fill="#2AAAE2" stroke="#2E368F" stroke-width="1.25" stroke-linecap="round" stroke-linejoin="round" stroke-opacity="0.5" d="
	M91.132,115.158l5.127-0.324l3.642,1.623"/>
<path fill="#2AAAE2" stroke="#2E368F" stroke-width="1.25" stroke-linecap="round" stroke-linejoin="round" stroke-opacity="0.5" d="
	M109.423,118.846l1.657-0.423l3.567-0.246l0.301-0.249l0.137-0.113l0.174-0.144l0.51-0.421l0.049-0.041l0.703-0.582l2.154-0.694
	l0.045-0.014l0.521-0.169l0.104-0.034l0.114-0.037l0.72-0.231l0.063-0.066l2.671-2.775l0.716-0.37l0.041-0.021l0.476-0.245
	l1.88-0.97l1.291-0.688l1.701-0.908l0.891-2.84l0.021-0.059l0.098-0.313"/>
<path fill="#2AAAE2" stroke="#2E368F" stroke-width="1.25" stroke-linecap="round" stroke-linejoin="round" stroke-opacity="0.5" d="
	M129.908,106.563l0.405-0.279l0.077-0.053l0.153-0.105l1.02-0.7l0.97-2.978l0.386-1.183l1.507-5.227l2.123-5.271l0.125-0.306
	l-0.272-1.467l-0.402-2.17l-0.123-0.672l-0.682-3.673l-0.037-0.201l-0.695-0.611l-5.002-6.375l-0.758-0.142l-4.595-0.844
	l-0.526-0.224l-3.243-1.545l-0.938-0.447l-4.079-0.459l-0.719-0.108"/>
<path fill="#2AAAE2" stroke="#2E368F" stroke-width="1.25" stroke-linecap="round" stroke-linejoin="round" stroke-opacity="0.5" d="
	M92.102,115.685l3.294,2.254l3.858,1.563l3.406,2.041l2.887,0.092"/>
<path fill="#2AAAE2" stroke="#2E368F" stroke-width="1.25" stroke-linecap="round" stroke-linejoin="round" stroke-opacity="0.5" d="
	M119.2,73.113l-4.184-1.442l-0.417-0.146l-0.679-0.231l-2.979-2.05l-2.15,0.37l-2.688,1.112l-0.319,0.131"/>
<path fill="#2AAAE2" stroke="#2E368F" stroke-width="1.25" stroke-linecap="round" stroke-linejoin="round" stroke-opacity="0.5" d="
	M132.533,102.447l0.188-0.292l2.37-3.589l0.102-0.151l0.132-0.2l1.302-3.41l0.538-1.411l-0.047-0.201l-0.568-2.424"/>
<path fill="#2AAAE2" stroke="#2E368F" stroke-width="1.25" stroke-linecap="round" stroke-linejoin="round" stroke-opacity="0.5" d="
	M76.978,108.265l0.838,0.763l1.141,1.038l4.86,2.913l3.852,1.733"/>
<path fill="#2AAAE2" stroke="#2E368F" stroke-width="1.25" stroke-linecap="round" stroke-linejoin="round" stroke-opacity="0.5" d="
	M81.563,89.742l-0.14,2.88l-0.76,3.095l0.478,3.322"/>
<path fill="#2AAAE2" stroke="#2E368F" stroke-width="1.25" stroke-linecap="round" stroke-linejoin="round" stroke-opacity="0.5" d="
	M81.348,80.289l-0.238,1.33l-0.123,0.69l0.062,0.84l0.204,2.806"/>
<path fill="#2AAAE2" stroke="#2E368F" stroke-width="1.25" stroke-linecap="round" stroke-linejoin="round" stroke-opacity="0.5" d="
	M106.104,70.727l-2.646,0.401l-5.088-0.153l-3.713-0.179l-3.383,0.507l-3.856,0.984"/>
<path fill="#2AAAE2" stroke="#2E368F" stroke-width="1.25" stroke-linecap="round" stroke-linejoin="round" stroke-opacity="0.5" d="
	M78.609,104.66l-1.632,3.604l0.646,1.711"/>
<path fill="#2AAAE2" stroke="#2E368F" stroke-width="1.25" stroke-linecap="round" stroke-linejoin="round" stroke-opacity="0.5" d="
	M89.464,127.975l0.133,0.021l2.361,0.345l0.289,0.042l1.816,0.264l5.551,1.904l4.482,1.951l0.002,0.001h0.009l4.365,0.097
	l4.015-0.695l3.391-1.463l2.485-2.535l0.15-1.761l0.211-2.494l0.905-3.109l0.302-1.04l1.651-2.339l1.158-2.662l0.525-1.336
	l0.341-0.871l0.021-0.058"/>
<path fill="#2AAAE2" stroke="#2E368F" stroke-width="1.25" stroke-linecap="round" stroke-linejoin="round" stroke-opacity="0.5" d="
	M118.514,126.144l0.976-1.664l0.141-3.939"/>
<path fill="#2AAAE2" stroke="#2E368F" stroke-width="1.25" stroke-linecap="round" stroke-linejoin="round" stroke-opacity="0.5" d="
	M81.622,73.376l-0.355,1.386l-0.148,3.359l-0.853,5.362l0.584,3.859"/>
<path fill="#2AAAE2" stroke="#2E368F" stroke-width="1.25" stroke-linecap="round" stroke-linejoin="round" stroke-opacity="0.5" d="
	M128.701,75.152l-0.813-1.812l-1.01-0.25l-3.651-0.453l-1.462-0.181"/>
<path fill="#2AAAE2" stroke="#2E368F" stroke-width="1.25" stroke-linecap="round" stroke-linejoin="round" stroke-opacity="0.5" d="
	M72.498,97.223l1.645,5.355l0.184,4.068l-0.625,4.271l-0.138,0.94"/>
<path fill="#2AAAE2" stroke="#2E368F" stroke-width="1.25" stroke-linecap="round" stroke-linejoin="round" stroke-opacity="0.5" d="
	M85.505,69.902l-2.754,1.223l-1.891,1.004"/>
<path fill="#2AAAE2" stroke="#2E368F" stroke-width="1.25" stroke-linecap="round" stroke-linejoin="round" stroke-opacity="0.5" d="
	M73.281,110.309l0.281,1.552l2.729,4.88l1.531,3.802l0.021,0.045"/>
<path fill="#2AAAE2" stroke="#2E368F" stroke-width="1.25" stroke-linecap="round" stroke-linejoin="round" stroke-opacity="0.5" d="
	M77.003,119.775l0.842,0.812l3.076,3.008"/>
<path fill="#2AAAE2" stroke="#2E368F" stroke-width="1.25" stroke-linecap="round" stroke-linejoin="round" stroke-opacity="0.5" d="
	M78.298,123.396l2.197,1.646l1.465,0.699l0.377,0.182l1.221,1.657l4.17,0.641l1.869-0.225"/>
<path fill="#2AAAE2" stroke="#2E368F" stroke-width="1.25" stroke-linecap="round" stroke-linejoin="round" stroke-opacity="0.5" d="
	M123.228,72.638l-2.392-2.258l-1.159-3.302l-0.625-2.044l-0.19-0.558l-0.688-2l-0.464-1.351l-1.135-0.146l-0.61-0.078l-4.093-0.525"
	/>
<path fill="#2AAAE2" stroke="#2E368F" stroke-width="1.25" stroke-linecap="round" stroke-linejoin="round" stroke-opacity="0.5" d="
	M112.408,63.109l-5.119-0.188l-3.966-1.711l-3.882,0.696l-6.144-1.174"/>
<path fill="#2AAAE2" stroke="#2E368F" stroke-width="1.25" stroke-linecap="round" stroke-linejoin="round" stroke-opacity="0.5" d="
	M121.038,67.049l-1.859-3.633l-1.004-0.938"/>
<path fill="#2AAAE2" stroke="#2E368F" stroke-width="1.25" stroke-linecap="round" stroke-linejoin="round" stroke-opacity="0.5" d="
	M80.495,125.04l1.735,0.874"/>
<path fill="#2AAAE2" stroke="#2E368F" stroke-width="1.25" stroke-linecap="round" stroke-linejoin="round" stroke-opacity="0.5" d="
	M116.576,60.98l-1.925-1.803"/>
<path fill="#2AAAE2" stroke="#2E368F" stroke-width="1.25" stroke-linecap="round" stroke-linejoin="round" stroke-opacity="0.5" d="
	M131.388,72.412l-1.62-1.992l-4.603-6.03"/>
<path fill="#2AAAE2" stroke="#2E368F" stroke-width="1.25" stroke-linecap="round" stroke-linejoin="round" stroke-opacity="0.5" d="
	M90.16,131.934l2.087-3.553"/>
<path fill="#2AAAE2" stroke="#2E368F" stroke-width="1.25" stroke-linecap="round" stroke-linejoin="round" stroke-opacity="0.5" d="
	M123.268,113.162l0.791-1.012l0.087-0.183"/>
<path fill="#2AAAE2" stroke="#2E368F" stroke-width="1.25" stroke-linecap="round" stroke-linejoin="round" stroke-opacity="0.5" d="
	M136.4,88.996l1.502-3.932l0.239-2.797l-0.151-1.412l0.568-4.095"/>
<path fill="#2AAAE2" stroke="#2E368F" stroke-width="1.25" stroke-linecap="round" stroke-linejoin="round" stroke-opacity="0.5" d="
	M130.521,108.052l-0.113-1.568l-0.018-0.253"/>
<path fill="#2AAAE2" stroke="#2E368F" stroke-width="1.25" stroke-linecap="round" stroke-linejoin="round" stroke-opacity="0.5" d="
	M129.751,62.052l-3.646-5.457l-4.681-4.508l-1.636-1.954l-2.344-1.268l-5.087-3.164l-0.13-0.076l-0.206-0.121l-3.419-2.02"/>
<path fill="#2AAAE2" stroke="#2E368F" stroke-width="1.25" stroke-linecap="round" stroke-linejoin="round" stroke-opacity="0.5" d="
	M104.042,132.612l0.065-0.11"/>
<path fill="#2AAAE2" stroke="#2E368F" stroke-width="1.25" stroke-linecap="round" stroke-linejoin="round" stroke-opacity="0.5" d="
	M112.229,45.625l-1.536-1.264"/>
<path fill="#2AAAE2" stroke="#2E368F" stroke-width="1.25" stroke-linecap="round" stroke-linejoin="round" stroke-opacity="0.5" d="
	M101.191,38.57l-0.178-0.09l0,0l-0.007-0.004l-1.881-0.95"/>
<path fill="#2AAAE2" stroke="#2E368F" stroke-width="1.25" stroke-linecap="round" stroke-linejoin="round" stroke-opacity="0.5" d="
	M105.955,40.191l-1.505-1.365l-0.558-0.505l-2.782,0.15l-0.104,0.005"/>
<path fill="#2AAAE2" stroke="#2E368F" stroke-width="1.25" stroke-linecap="round" stroke-linejoin="round" stroke-opacity="0.5" d="
	M136.646,105.692l-0.343-2.965l-0.007-0.053l-0.095-0.813l-0.229-1.979"/>
<path fill="#2AAAE2" stroke="#2E368F" stroke-width="1.25" stroke-linecap="round" stroke-linejoin="round" stroke-opacity="0.5" d="
	M99.472,37.966l-0.346-0.439l-1.183-1.509l-0.003-0.004l-0.135-0.171l-1.413-1.117l-0.284-0.224L93.69,34.19l-0.619-0.079"/>
<path fill="#2AAAE2" stroke="#2E368F" stroke-width="1.25" stroke-linecap="round" stroke-linejoin="round" stroke-opacity="0.5" d="
	M131.189,122.573l0.819-0.478l1.766-2.303l3.128-1.193l0.756-4.457l0.25-1.566l0.193-1.202l-0.304-1.186l-1.152-4.496l-0.028-0.106
	l-0.244-0.953"/>
<path fill="#2AAAE2" stroke="#2E368F" stroke-width="1.25" stroke-linecap="round" stroke-linejoin="round" stroke-opacity="0.5" d="
	M86.632,34.339l-5.151-0.874l-1.338,0.201l-0.573,0.085l-2.53,0.379"/>
<path fill="#2AAAE2" stroke="#2E368F" stroke-width="1.25" stroke-linecap="round" stroke-linejoin="round" stroke-opacity="0.5" d="
	M136.303,102.728l0.316-1.842l0.896-5.191"/>
<path fill="#2AAAE2" stroke="#2E368F" stroke-width="1.25" stroke-linecap="round" stroke-linejoin="round" stroke-opacity="0.5" d="
	M94.841,35.345l-1.77-1.232l-0.668-0.465l-0.649-0.453l-0.625-0.087l-1.571-0.218l-1.578-0.218l-0.243-0.035L83.96,32.09
	l-5.416,0.705l-0.233,0.029l-0.117,0.017l-1.065-0.243l-3.811-0.869"/>
<path fill="#2AAAE2" stroke="#2E368F" stroke-width="1.25" stroke-linecap="round" stroke-linejoin="round" stroke-opacity="0.5" d="
	M36.395,123.872l1.527,1.878l0.033,0.041l0.931,1.143l1.323,1.627l0.283,0.514l1.864,3.392l2.144,3.082l5.127,5.885l2.879,1.573
	l2.691,1.024l2.377,3.937l1.092,1.558l4.854-0.537l5.854,1.104"/>
<path fill="#2AAAE2" stroke="#2E368F" stroke-width="1.25" stroke-linecap="round" stroke-linejoin="round" stroke-opacity="0.5" d="
	M118.583,134.844l3.743-0.199l0.948-3.139l0.245-0.813l1.968-2.667l0.521,0.031l0.135,0.008l0.56,0.033l2.721,0.162l1.097-3.524
	l0.28-0.9l0.392-1.264l0.078-0.249"/>
<path fill="#2AAAE2" stroke="#2E368F" stroke-width="1.25" stroke-linecap="round" stroke-linejoin="round" stroke-opacity="0.5" d="
	M73.475,154.609l0.215,0.157l0.003,0.001l0.411,0.3l0.041,0.03l2.616,1.907l1.775-1.42l0.729-0.582l0.619-0.495l2.427,0.311
	l0.074,0.01l0.38,0.05l1.354-1.007l1.918-1.425l0.24-0.123l0.213-0.107l1.951-1.001l0.456-0.19l0.017-0.008l0.262-0.108l0.816-0.341
	l0.006-0.003l0.257-0.105l0.517-0.216l0.229-0.097l1.367-0.569l3.602-3.866l3.035-0.984l2.053-0.289l0.426-0.059l0.871-0.123
	l0.038-0.01l4.223-0.975l2.559-5.075l0.403-0.799l0.077-0.151l0.013-0.026"/>
<path fill="#2AAAE2" stroke="#2E368F" stroke-width="1.25" stroke-linecap="round" stroke-linejoin="round" stroke-opacity="0.5" d="
	M116.521,42.032l-2.869-1.848l-3.431-1.031"/>
<path fill="#2AAAE2" stroke="#2E368F" stroke-width="1.25" stroke-linecap="round" stroke-linejoin="round" stroke-opacity="0.5" d="
	M18.335,69.336l-1.042,4.472l0.877,4.653l0.474,6.18l-0.171,1.077v0.002l-0.142,0.882l-0.033,0.213l-0.069,0.443l0.249,0.415
	l2.085,3.467l0.004,0.007l0.357,0.718l0.036,0.074l1.589,3.194l1.491,3.04l1.405,2.769l0.127,4.039l0.954,3.216l0.538,2.624
	l-0.165,3.583l3.236,3.368l0.446,0.466l0.202,0.211l0.274,0.285l0.956,0.995l0.499,0.466l0.793,0.738l1.193,1.115l1.894,1.823
	l0.931,0.898l1.159,1.118l0.055,0.053l2.061,1.987"/>
<path fill="#2AAAE2" stroke="#2E368F" stroke-width="1.25" stroke-linecap="round" stroke-linejoin="round" stroke-opacity="0.5" d="
	M137.798,110.188v-0.033l1.006-3.698l-0.289-4.916l3.012-3.611l2.662-2.29l-0.018-3.79"/>
<path fill="#2AAAE2" stroke="#2E368F" stroke-width="1.25" stroke-linecap="round" stroke-linejoin="round" stroke-opacity="0.5" d="
	M145.739,75.893l2.147-2.764"/>
<path fill="#2AAAE2" stroke="#2E368F" stroke-width="1.25" stroke-linecap="round" stroke-linejoin="round" stroke-opacity="0.5" d="
	M39.298,128.007l1.195,1.066"/>
<path fill="#2AAAE2" stroke="#2E368F" stroke-width="1.25" stroke-linecap="round" stroke-linejoin="round" stroke-opacity="0.5" d="
	M37.956,125.791l1.342,2.216l-1.375-2.257"/>
<path fill="#2AAAE2" stroke="#2E368F" stroke-width="1.25" stroke-linecap="round" stroke-linejoin="round" stroke-opacity="0.5" d="
	M148.204,60.751l3.365-6.139"/>
<path fill="#2AAAE2" stroke="#2E368F" stroke-width="1.25" stroke-linecap="round" stroke-linejoin="round" stroke-opacity="0.5" d="
	M110.605,37.172l-3.146-0.153l-1.054,0.479l-1.438,0.65l-3.855,0.324"/>
<path fill="#2AAAE2" stroke="#2E368F" stroke-width="1.25" stroke-linecap="round" stroke-linejoin="round" stroke-opacity="0.5" d="
	M77.127,32.598l-2.546-1.327l-5.619-2.544l-2.979-2.261"/>
<path fill="#2AAAE2" stroke="#2E368F" stroke-width="1.25" stroke-linecap="round" stroke-linejoin="round" stroke-opacity="0.5" d="
	M42.831,19.804L38.6,17.6"/>
<path fill="#2AAAE2" stroke="#2E368F" stroke-width="1.25" stroke-linecap="round" stroke-linejoin="round" stroke-opacity="0.5" d="
	M14.55,54.752l1.48,2.882l2.413,4.476l-0.323,5.052l0.214,2.176l0.213,2.155"/>
<path fill="#2AAAE2" stroke="#2E368F" stroke-width="1.25" stroke-linecap="round" stroke-linejoin="round" stroke-opacity="0.5" d="
	M109.132,141.939l0.132-0.085l3.374-2.203l4.203-1.979l1.742-2.829l0.642-1.039"/>
<path fill="#2AAAE2" stroke="#2E368F" stroke-width="1.25" stroke-linecap="round" stroke-linejoin="round" stroke-opacity="0.5" d="
	M16.815,33.303l-0.147,2.207l0.646,5.121"/>
<path fill="#2AAAE2" stroke="#2E368F" stroke-width="1.25" stroke-linecap="round" stroke-linejoin="round" stroke-opacity="0.5" d="
	M148.286,73.804l2.224-2.026l-0.398-2.128"/>
<path fill="#2AAAE2" stroke="#2E368F" stroke-width="1.25" stroke-linecap="round" stroke-linejoin="round" stroke-opacity="0.5" d="
	M78.537,155.585l1.36-0.301l0.021-0.006l0.593-0.131l0.35-0.077l0.093-0.02"/>
<path fill="#2AAAE2" stroke="#2E368F" stroke-width="1.25" stroke-linecap="round" stroke-linejoin="round" stroke-opacity="0.5" d="
	M86.208,154.033l1.056-0.561l0.101-0.054l0.315-0.167l1.526-0.814l1.532-1.565l4.332-0.158l0.272-0.031l2.93-0.34l0.794-1.438
	l1.939-3.088l1.4-0.746l0.036-0.02l0.292-0.156l1.17-0.624"/>
<path fill="#2AAAE2" stroke="#2E368F" stroke-width="1.25" stroke-linecap="round" stroke-linejoin="round" stroke-opacity="0.5" d="
	M78.544,32.795l-1.072-0.586"/>
<path fill="#2AAAE2" stroke="#2E368F" stroke-width="1.25" stroke-linecap="round" stroke-linejoin="round" stroke-opacity="0.5" d="
	M67.443,152.992l4.787,1.655l1.325,0.114l0.137,0.006"/>
<path fill="#2AAAE2" stroke="#2E368F" stroke-width="1.25" stroke-linecap="round" stroke-linejoin="round" stroke-opacity="0.5" d="
	M130.518,124.737l0.26-0.071l0.021-0.829"/>
<path fill="#2AAAE2" stroke="#2E368F" stroke-width="1.25" stroke-linecap="round" stroke-linejoin="round" stroke-opacity="0.5" d="
	M135.772,34.932l-3.289,0.376l-2.104-1.719l-7.096,1.4l-6.41-0.955l-0.019,0.005l-0.38,0.055l-6.036,0.877l-4.123,1.882
	l-3.486-0.613l-2.245-0.928l-2.026-0.837l-2.165,0.251"/>
<path fill="#2AAAE2" stroke="#2E368F" stroke-width="1.25" stroke-linecap="round" stroke-linejoin="round" stroke-opacity="0.5" d="
	M137.908,112.575l0.826-0.478l0.591-6.177l0.13-1.365"/>
<path fill="#2AAAE2" stroke="#2E368F" stroke-width="1.25" stroke-linecap="round" stroke-linejoin="round" stroke-opacity="0.5" d="
	M102.443,145.05l0.042-0.001l4.4-0.038l1.392-1.81l0.985-1.348"/>
<path fill="#2AAAE2" stroke="#2E368F" stroke-width="1.25" stroke-linecap="round" stroke-linejoin="round" stroke-opacity="0.5" d="
	M139.325,105.921l2.143-5.472l4.148-6.246l2.899-2.719l0.582-4.518l3.125-2.396l0.988-3.397l0.099-2.112l-0.029-0.606l-0.152-3.221"
	/>
<path fill="#2AAAE2" stroke="#2E368F" stroke-width="1.25" stroke-linecap="round" stroke-linejoin="round" stroke-opacity="0.5" d="
	M79.897,155.285l0.183,0.093l0.536,0.27l0.072,0.037l0.225,0.113l0.331,0.167l0.112,0.056l0.017,0.009l0.801,0.402l0.049,0.025
	l0.442,0.224l1.749-0.501l0.188-0.112l1.417-0.854l0.104-0.14l0.312-0.412l0.447-0.598l0.482-0.645"/>
<path fill="#2AAAE2" stroke="#2E368F" stroke-width="1.25" stroke-linecap="round" stroke-linejoin="round" stroke-opacity="0.5" d="
	M102.407,145.068l0.078-0.02"/>
<path fill="#2AAAE2" stroke="#2E368F" stroke-width="1.25" stroke-linecap="round" stroke-linejoin="round" stroke-opacity="0.5" d="
	M158.95,63.1l2.196-2.554l1.803-2.098l0.138-3.155l0.122-3.887l-0.28-4.146l-3.049-3.254l-1.49-3.771l-3.32-1.979l-1.903-4.41
	l-3.681-0.192l-3.373-1.34l-0.396-0.075l-2.191-0.411"/>
<path fill="#2AAAE2" stroke="#2E368F" stroke-width="1.25" stroke-linecap="round" stroke-linejoin="round" stroke-opacity="0.5" d="
	M20.923,91.864l0.041,0.173"/>
<path fill="#2AAAE2" stroke="#2E368F" stroke-width="1.25" stroke-linecap="round" stroke-linejoin="round" stroke-opacity="0.5" d="
	M117.483,33.63l-1.007,0.464"/>
<path fill="#2AAAE2" stroke="#2E368F" stroke-width="1.25" stroke-linecap="round" stroke-linejoin="round" stroke-opacity="0.5" d="
	M85.928,31.707l-1.753-0.563"/>
<path fill="#2AAAE2" stroke="#2E368F" stroke-width="1.25" stroke-linecap="round" stroke-linejoin="round" stroke-opacity="0.5" d="
	M60.537,18.445l-1.857-0.88l-0.098-0.046l-1.349-0.638l-0.398-0.189l-0.184-0.087l-0.754-0.355l-0.384-0.184l-0.219-0.021
	l-0.379-0.041l-0.332-0.035l-3.157-0.338l-0.69-0.074"/>
<path fill="#2AAAE2" stroke="#2E368F" stroke-width="1.25" stroke-linecap="round" stroke-linejoin="round" stroke-opacity="0.5" d="
	M26.946,129.055l0.294,0.465l4.224,6.671l0.045,0.073l0.726,1.143l2.239,2.141"/>
<path fill="#2AAAE2" stroke="#2E368F" stroke-width="1.25" stroke-linecap="round" stroke-linejoin="round" stroke-opacity="0.5" d="
	M87.736,32.637l-1.809-0.93l-1.639-0.479l-0.114-0.083l-3.924-2.784l-2.996-1.409l-6.095-2.938l-4.452-3.304l-3.53-2.599
	l-1.79-0.229"/>
<path fill="#2AAAE2" stroke="#2E368F" stroke-width="1.25" stroke-linecap="round" stroke-linejoin="round" stroke-opacity="0.5" d="
	M93.691,34.191l-1.287-0.544"/>
<path fill="#2AAAE2" stroke="#2E368F" stroke-width="1.25" stroke-linecap="round" stroke-linejoin="round" stroke-opacity="0.5" d="
	M125.968,128.28l0.174-0.214"/>
<path fill="#2AAAE2" stroke="#2E368F" stroke-width="1.25" stroke-linecap="round" stroke-linejoin="round" stroke-opacity="0.5" d="
	M72.281,155.445l1.863-0.348"/>
<path fill="#2AAAE2" stroke="#2E368F" stroke-width="1.25" stroke-linecap="round" stroke-linejoin="round" stroke-opacity="0.5" d="
	M152.637,77.153l0.485-1.896l0.005-0.021l0.899-3.5l2.063-2.063l1.994-1.994l1.947-2.764l1.085-4.262l0.029-0.105"/>
<path fill="#2AAAE2" stroke="#2E368F" stroke-width="1.25" stroke-linecap="round" stroke-linejoin="round" stroke-opacity="0.5" d="
	M20.562,91.14l-1.146,3.615l-0.252,4.614l-1.169,3.016l4.268,3.204l0.009,0.007"/>
<path fill="#2AAAE2" stroke="#2E368F" stroke-width="1.25" stroke-linecap="round" stroke-linejoin="round" stroke-opacity="0.5" d="
	M91.13,33.107l-0.427-0.18l-1.146-0.038"/>
<path fill="#2AAAE2" stroke="#2E368F" stroke-width="1.25" stroke-linecap="round" stroke-linejoin="round" stroke-opacity="0.5" d="
	M62.22,18.104l-0.832-0.224l-4.197-1.13l-0.429-0.116l-0.11-0.029"/>
<path fill="#2AAAE2" stroke="#2E368F" stroke-width="1.25" stroke-linecap="round" stroke-linejoin="round" stroke-opacity="0.5" d="
	M78.986,155.958l0.539,0.001l0.076,0.001l1.017,0.002l0.626,0.002"/>
<path fill="#2AAAE2" stroke="#2E368F" stroke-width="1.25" stroke-linecap="round" stroke-linejoin="round" stroke-opacity="0.5" d="
	M55.296,16.044l-1.146-0.48l-1.854-0.772l-1.842-1.265l-2.777-1.904l-0.031-0.021"/>
<path fill="#2AAAE2" stroke="#2E368F" stroke-width="1.25" stroke-linecap="round" stroke-linejoin="round" stroke-opacity="0.5" d="
	M54.189,156.104l3.228,1.438l3.396,1.605l2.329,0.316l2.593,0.748l2.546-1.5"/>
<path fill="#2AAAE2" stroke="#2E368F" stroke-width="1.25" stroke-linecap="round" stroke-linejoin="round" stroke-opacity="0.5" d="
	M47.675,11.621l-1.602-1.748l-0.906-0.99l-1.824-0.241l-0.119-0.016l-0.137-0.098l-2.441-1.731l-1.998-0.73L37.67,5.711l-1.585-0.58
	l-1.063-0.389l-0.698-0.519l-1.682-1.247l-2.888-2.141l-0.283-0.211"/>
<path fill="#2AAAE2" stroke="#2E368F" stroke-width="1.25" stroke-linecap="round" stroke-linejoin="round" stroke-opacity="0.5" d="
	M22.263,105.589l-0.637,2.917l1.328,1.753l0.745,0.984"/>
<path fill="#2AAAE2" stroke="#2E368F" stroke-width="1.25" stroke-linecap="round" stroke-linejoin="round" stroke-opacity="0.5" d="
	M145.716,32.24l-2.696-1.083l-5.388,0.33l-4.888-2.705l-1.112,0.186l-4.349,1.246l-6.432-0.487l-4.743,2.063l-4.835-0.147
	l-7.599,2.938l-3.091,0.73"/>
<path fill="#2AAAE2" stroke="#2E368F" stroke-width="1.25" stroke-linecap="round" stroke-linejoin="round" stroke-opacity="0.5" d="
	M54.148,15.563l-1.169-0.667l-2.526-1.37"/>
<path fill="#2AAAE2" stroke="#2E368F" stroke-width="1.25" stroke-linecap="round" stroke-linejoin="round" stroke-opacity="0.5" d="
	M153.28,78.456l0.455-0.769l1.876-3.579l0.334-3.839l0.146-0.6"/>
<path fill="#2AAAE2" stroke="#2E368F" stroke-width="1.25" stroke-linecap="round" stroke-linejoin="round" stroke-opacity="0.5" d="
	M10.591,27.617l-0.63,4.308L9.943,32.05l-0.169,1.159"/>
<path fill="#2AAAE2" stroke="#2E368F" stroke-width="1.25" stroke-linecap="round" stroke-linejoin="round" stroke-opacity="0.5" d="
	M43.343,8.642l-0.257-0.112"/>
<path fill="#2AAAE2" stroke="#2E368F" stroke-width="1.25" stroke-linecap="round" stroke-linejoin="round" stroke-opacity="0.5" d="
	M78.925,156.131l0.677-0.171"/>
<path fill="#2AAAE2" stroke="#2E368F" stroke-width="1.25" stroke-linecap="round" stroke-linejoin="round" stroke-opacity="0.5" d="
	M7.181,39.813L6.159,43.45"/>
<path fill="#2AAAE2" stroke="#2E368F" stroke-width="1.25" stroke-linecap="round" stroke-linejoin="round" stroke-opacity="0.5" d="
	M7.654,38.374l-0.474,1.438L7.5,38.893l0.848-2.421l1.613-4.549"/>
<path fill="#2AAAE2" stroke="#2E368F" stroke-width="1.25" stroke-linecap="round" stroke-linejoin="round" stroke-opacity="0.5" d="
	M1.798,47.989l0.136-0.031l0.378-0.095l0.006-0.002l0.701-0.172"/>
<path fill="#2AAAE2" stroke="#2E368F" stroke-width="1.25" stroke-linecap="round" stroke-linejoin="round" stroke-opacity="0.5" d="
	M64.251,161.23l3.935,0.229l2.813-0.835"/>
<path fill="#2AAAE2" stroke="#2E368F" stroke-width="1.25" stroke-linecap="round" stroke-linejoin="round" stroke-opacity="0.5" d="
	M22.955,110.259l-0.025,0.44l0.482,3.898l-0.421,8.985l1.604,4.124l0.167,0.43l0.005,0.076l0.03,0.485l0.328,5.21"/>
<path fill="#2AAAE2" stroke="#2E368F" stroke-width="1.25" stroke-linecap="round" stroke-linejoin="round" stroke-opacity="0.5" d="
	M52.257,159.502l1.054,0.989l0.181,0.173l1.522,1.432l2.331,0.509l0.035,0.008"/>
<path fill="#2AAAE2" stroke="#2E368F" stroke-width="1.25" stroke-linecap="round" stroke-linejoin="round" stroke-opacity="0.5" d="
	M17.604,81.012l0.303,3.754l0.073,0.902l0.044,0.555l0.272,0.592"/>
<path fill="#2AAAE2" stroke="#2E368F" stroke-width="1.25" stroke-linecap="round" stroke-linejoin="round" stroke-opacity="0.5" d="
	M14.755,9.049l1.774-2.197l4.851-2.883l0.179-0.106l2.591-1.479l0.316-0.105l0.384-0.126l3.087-1.019l0.952-0.315l0.585-0.191
	l-2.269,0.16"/>
<path fill="#2AAAE2" stroke="#2E368F" stroke-width="1.25" stroke-linecap="round" stroke-linejoin="round" stroke-opacity="0.5" d="
	M24.596,127.708l-0.017,0.055l0.547,6.146l0.938,1.063l2.235,2.537l0.002,0.002l0.591,0.668l0.263,0.221l0.286,0.24l1.632,1.368
	l0.28,0.233l1.12,0.939l2.222,1.855l4.52,3.416"/>
<path fill="#2AAAE2" stroke="#2E368F" stroke-width="1.25" stroke-linecap="round" stroke-linejoin="round" stroke-opacity="0.5" d="
	M40.444,151.948l0.153,0.236l1.107,1.707v0.001l0.351,0.537l0.16,0.247l0.903,0.372l2.577,1.06l0.788,0.683l1.479,1.277l0.656,0.374
	l0.336,0.101l1.768,0.524l0.841,0.25"/>
<path fill="#2AAAE2" stroke="#2E368F" stroke-width="1.25" stroke-linecap="round" stroke-linejoin="round" stroke-opacity="0.5" d="
	M3.069,45.696L2.46,46.798l-0.037,0.064l-0.625,1.127l2.686,2.063"/>
<path fill="#2AAAE2" stroke="#2E368F" stroke-width="1.25" stroke-linecap="round" stroke-linejoin="round" stroke-opacity="0.5" d="
	M84.601,156.066l0.554-0.083l1.348-0.218l0.406-0.868l0.771-1.646"/>
<path fill="#2AAAE2" stroke="#2E368F" stroke-width="1.25" stroke-linecap="round" stroke-linejoin="round" stroke-opacity="0.5" d="
	M18.435,6.08l-3.681,2.969l-0.707,0.57l-1.079,2.055l-1.49,2.839l-1.351,4.903l-2.297,4.22l-1.525,3.209"/>
<path fill="#2AAAE2" stroke="#2E368F" stroke-width="1.25" stroke-linecap="round" stroke-linejoin="round" stroke-opacity="0.5" d="
	M77.841,159.726l2.726-2.563l0.619-0.582l0.987-0.148"/>
<path fill="#2AAAE2" stroke="#2E368F" stroke-width="1.25" stroke-linecap="round" stroke-linejoin="round" stroke-opacity="0.5" d="
	M123.274,131.506l3.343-2.773l0.084-0.633"/>
<path fill="#2AAAE2" stroke="#2E368F" stroke-width="1.25" stroke-linecap="round" stroke-linejoin="round" stroke-opacity="0.5" d="
	M37.671,5.71l-0.248-0.136l-1.846-1.8L32.62,0.892l-2.863-0.057"/>
<path fill="#2AAAE2" stroke="#2E368F" stroke-width="1.25" stroke-linecap="round" stroke-linejoin="round" stroke-opacity="0.5" d="
	M56.777,162.644l0.603-0.031l2.646-0.19"/>
<path fill="#2AAAE2" stroke="#2E368F" stroke-width="1.25" stroke-linecap="round" stroke-linejoin="round" stroke-opacity="0.5" d="
	M56.762,16.635l-2.794-2.163"/>
<path fill="#2AAAE2" stroke="#2E368F" stroke-width="1.25" stroke-linecap="round" stroke-linejoin="round" stroke-opacity="0.5" d="
	M77.522,159.974l0.107-0.045l0.211-0.203l-0.063,0.05l-0.09,0.069L77.522,159.974l-1.88,1.466l-2.432,1.061l-1.384,0.278
	l-2.364,0.479"/>
<path fill="#2AAAE2" stroke="#2E368F" stroke-width="1.25" stroke-linecap="round" stroke-linejoin="round" stroke-opacity="0.5" d="
	M21.38,3.969l3.507-2.442l2.318-0.741l-2.739,1.492"/>
<path fill="#2AAAE2" stroke="#2E368F" stroke-width="1.25" stroke-linecap="round" stroke-linejoin="round" stroke-opacity="0.5" d="
	M17.173,83.521l0.809,2.147"/>
<path fill="#2AAAE2" stroke="#2E368F" stroke-width="1.25" stroke-linecap="round" stroke-linejoin="round" stroke-opacity="0.5" d="
	M80.566,157.162l1.655-0.707"/>
<path fill="#2AAAE2" stroke="#2E368F" stroke-width="1.25" stroke-linecap="round" stroke-linejoin="round" stroke-opacity="0.5" d="
	M29.156,138.401l0.379,0.571"/>
<path fill="#2AAAE2" stroke="#2E368F" stroke-width="1.25" stroke-linecap="round" stroke-linejoin="round" stroke-opacity="0.5" d="
	M55.986,162.808l3.262,1.001l3.35,0.208l3.166,0.326l2.968-0.402l3.098-1.162"/>
<path fill="#2AAAE2" stroke="#2E368F" stroke-width="1.25" stroke-linecap="round" stroke-linejoin="round" stroke-opacity="0.5" d="
	M54.306,161.996l1.024,0.688l0.655,0.123L54.306,161.996l-0.655-0.316l-3.015-2.336l-1.68-0.801"/>
<path fill="#2AAAE2" stroke="#2E368F" stroke-width="1.25" stroke-linecap="round" stroke-linejoin="round" stroke-opacity="0.5" d="
	M9.908,65.694l-0.03,6.184l1.113,1.562"/>
<path fill="#2AAAE2" stroke="#2E368F" stroke-width="1.25" stroke-linecap="round" stroke-linejoin="round" stroke-opacity="0.5" d="
	M57.19,16.751l-1.759-5.255l-5.63-0.473l-3.729-1.15"/>
<path fill="#2AAAE2" stroke="#2E368F" stroke-width="1.25" stroke-linecap="round" stroke-linejoin="round" stroke-opacity="0.5" d="
	M38.647,6.066l-2.543-2.146l-0.527-0.146"/>
<path fill="#2AAAE2" stroke="#2E368F" stroke-width="1.25" stroke-linecap="round" stroke-linejoin="round" stroke-opacity="0.5" d="
	M26.065,134.974l-0.064,0.688l2.527,7.136l3.63,3.81l1.224,1.118l0.236,0.156l0.559,0.37l0.23,0.15l4.013,2.659l2.179,1.122"/>
<path fill="#2AAAE2" stroke="#2E368F" stroke-width="1.25" stroke-linecap="round" stroke-linejoin="round" stroke-opacity="0.5" d="
	M86.908,154.897l0.408-0.091l3.966-2.059l3.511-1.263l0.552-0.805"/>
<path fill="#2AAAE2" stroke="#2E368F" stroke-width="1.25" stroke-linecap="round" stroke-linejoin="round" stroke-opacity="0.5" d="
	M14.665,78.362l0.2,1.012l1.256,6.344l2.355,1.956"/>
<path fill="#2AAAE2" stroke="#2E368F" stroke-width="1.25" stroke-linecap="round" stroke-linejoin="round" stroke-opacity="0.5" d="
	M4.345,30.129l-1.146,2.478L1.86,36.421l0.041,1.185l0.079,2.241l-0.385,1.966l-0.556,2.83L0.8,47.707l-0.068,0.875l0.004,0.381
	l0.033,3.265l1.645,3.075l0.859,1.604l0.093,1.178l0.354,4.478l3.063,6.005l4.479,6.313l3.603,4.493"/>
<path fill="#2AAAE2" stroke="#2E368F" stroke-width="1.25" stroke-linecap="round" stroke-linejoin="round" stroke-opacity="0.5" d="
	M12.969,11.674l-0.396,0.295L9.892,14.98l-0.528,4.316l-2.312,3.59l-1.408,3.598l-1.24,3.182L4.345,30.13l-0.379,2.98"/>
<path fill="#2AAAE2" stroke="#2E368F" stroke-width="1.25" stroke-linecap="round" stroke-linejoin="round" stroke-opacity="0.5" d="
	M33.618,147.882l1.566,1.366l0.313,0.272"/>
<path fill="#2AAAE2" stroke="#2E368F" stroke-width="1.25" stroke-linecap="round" stroke-linejoin="round" stroke-opacity="0.5" d="
	M0.802,47.707l-0.177,0.76l0.11,0.496"/>
<path fill="#2AAAE2" stroke="#2E368F" stroke-width="1.25" stroke-linecap="round" stroke-linejoin="round" stroke-opacity="0.5" d="
	M1.902,37.605L1.555,39.48l0.042,2.332"/>
<path fill="#2AAAE2" stroke="#2E368F" stroke-width="1.25" stroke-linecap="round" stroke-linejoin="round" stroke-opacity="0.5" d="
	M43.12,155.049l2.661,1.542l0.704,0.198"/>
<path fill="#2AAAE2" stroke="#2E368F" stroke-width="1.25" stroke-linecap="round" stroke-linejoin="round" stroke-opacity="0.5" d="
	M2.414,55.303l0.78,2.4l0.172,0.381"/>
<path fill="#2AAAE2" stroke="#2E368F" stroke-width="1.25" stroke-linecap="round" stroke-linejoin="round" stroke-opacity="0.5" d="
	M35.185,149.248l3.024,2.799l3.847,2.383"/>
</svg>
