<?xml version="1.0" encoding="utf-8"?>
<!-- Generator: Adobe Illustrator 16.0.0, SVG Export Plug-In . SVG Version: 6.00 Build 0)  -->
<!DOCTYPE svg PUBLIC "-//W3C//DTD SVG 1.1//EN" "http://www.w3.org/Graphics/SVG/1.1/DTD/svg11.dtd">
<svg version="1.1" id="Layer_1" xmlns="http://www.w3.org/2000/svg" xmlns:xlink="http://www.w3.org/1999/xlink" x="0px" y="0px"
	 width="153.479px" height="176.146px" viewBox="0 0 153.479 176.146" enable-background="new 0 0 153.479 176.146"
	 xml:space="preserve">
<path fill="#2AAAE2" stroke="#2E368F" stroke-miterlimit="10" d="M26.987,71.383l-1.515,1.551l-1.063,4.639l-1.836,5.904
	l-1.721,3.66l-0.433,5.93l-2.383,2.641l-3.382,1.757l-2.365,2.225l-4.969,3.368l-2.908,1.479l-0.078,1.638l-0.002,0.002
	l-3.707,2.568l0.215,2.306l2.093,8.274l0.927,2.266l0.541,2.444l6.482,1.493l2.639,1.237l6.636,9.799l2.972,1.741l3.779,2.555
	l4.604,1.686l0.523,0.538l1.027,2.258l0.319,0.378l0.248,0.558l3.526,7.492l9.048,1.879l0.033-0.005l7.073,2.437l3.407,1.606
	l3.185,1.784l0.774,0.084l3.292-1.655l0.801-0.309l0.365,0.107l1.362,0.416l1.839,2.167l2.72,3.586l4.08-0.107l0.111,0.088
	l3.546-1.099l1.887,1.565l2.827,4.494l5.584,2.088l7.13,2.012l4.468,0.23l0.676,0.246l0.444-0.145l1.011,0.28l5.174-0.485
	l1.366-1.166l2.45-1.198l0.402-0.115l0.664-0.017l0.854,0.288l0.989,0.515l1.824-0.916l2.783,1.063l1.881-1.045l1.661,0.195
	l3.678-1.082l0.993-0.578l4.132-3.471l0.371-0.638l5.325-5.405l0.742-2.117l1.393-1.327l1.249-4.111l0.773-0.91l2.415-1.771
	l0.267-0.376l0.209-0.138l0.085-0.276l2.201-3.101l-0.276-1.957l2.675-3.64l0.152-5.861l1.311-3.294l-0.077-1.289l0.715-1.502
	l0.958-5.032l0.541-2.893l0.155-4.813l-0.461-7.104l-0.724-2.702l0.821-2.574l-2.039-7.927l-2.635-6.217l-0.199-0.383l-0.197-0.231
	l-1.03-0.722l-2.582-2.003l0.397-4.117l0.457-2.179l-0.745-5.5l-1.646-3.019l-1.171-2.587l0.803-5.442l1.065-5.137l-2.771-3.476
	l-3.794-3.981l-3.18-2.892l0.575-1.286l0.185-2.691l-3.279-3.499l-1.748-1.901l-0.526-1.635l-0.031-0.06l-0.204-2.201l-3.183-3.184
	l-2.188-2.691l-2.04-1.422l-0.252-0.489l-0.53-0.216l-1.447-4.125l-2.401-4.08l-4.61-2.333l-3.752-2.592l-1.033-1.857l-1.198,0.314
	l-5.71-3.943l-3.388,1.504l-6.914-7.603L78.189,4.547l-5.914-3.924l-5.7,2.293L66.13,3.373l-6.333,2.835l-9.492,9.512l-0.849,6.142
	l0.995,5.248l-0.477,5.8L47.74,42.76l-1.351,1.418l-0.77,2.083l-1.043,1.332l-0.233,0.293l-1.409,1.318l-0.676,0.42l-0.185,0.386
	l-0.848,0.795l-3.816,4.594l-0.198,1.321l-0.545,0.907l-1.892,1.98l-1.973,1.422l-1.325,0.736l-1.705,2.582l0.016,2.241l0.145,1.574
	l-0.116,1.799L26.987,71.383z"/>
<path fill="#2AAAE2" stroke="#2E368F" stroke-width="1.25" stroke-linecap="round" stroke-linejoin="round" stroke-opacity="0.5" d="
	M51.923,104.968l-4.217,4.09l0.077,4.33"/>
<path fill="#2AAAE2" stroke="#2E368F" stroke-width="1.25" stroke-linecap="round" stroke-linejoin="round" stroke-opacity="0.5" d="
	M75.434,54.211l-4.909,4.484"/>
<path fill="#2AAAE2" stroke="#2E368F" stroke-width="1.25" stroke-linecap="round" stroke-linejoin="round" stroke-opacity="0.5" d="
	M29.015,131.295l0.47,0.996l0.065,0.137l0.305,0.648l2.604,5.518l0.431,1.004l1.648,3.837l0.055,0.127l0.031,0.072l0.025,0.06
	l0.065,0.15l0.054,0.125l0.085,0.198l0.583,1.357l4.022,3.721"/>
<path fill="#2AAAE2" stroke="#2E368F" stroke-width="1.25" stroke-linecap="round" stroke-linejoin="round" stroke-opacity="0.5" d="
	M78.265,146.657l4.74-0.903"/>
<path fill="#2AAAE2" stroke="#2E368F" stroke-width="1.25" stroke-linecap="round" stroke-linejoin="round" stroke-opacity="0.5" d="
	M55.155,86.358l-1.683,3.437l-0.02,0.043l-0.959,1.959"/>
<path fill="#2AAAE2" stroke="#2E368F" stroke-width="1.25" stroke-linecap="round" stroke-linejoin="round" stroke-opacity="0.5" d="
	M44.353,152.501l5.075-0.277l4.955-0.209l1.449-0.061l0.979-0.042l0.964-0.041l0.52-0.021l0.355-0.015l1.167-0.05l0.157-0.006"/>
<path fill="#2AAAE2" stroke="#2E368F" stroke-width="1.25" stroke-linecap="round" stroke-linejoin="round" stroke-opacity="0.5" d="
	M115.374,138.596l6.133,0.157"/>
<path fill="#2AAAE2" stroke="#2E368F" stroke-width="1.25" stroke-linecap="round" stroke-linejoin="round" stroke-opacity="0.5" d="
	M55.297,83.462l-0.437,1.313l-1.408,5.063"/>
<path fill="#2AAAE2" stroke="#2E368F" stroke-width="1.25" stroke-linecap="round" stroke-linejoin="round" stroke-opacity="0.5" d="
	M66.606,56.3l-0.816,4.707"/>
<path fill="#2AAAE2" stroke="#2E368F" stroke-width="1.25" stroke-linecap="round" stroke-linejoin="round" stroke-opacity="0.5" d="
	M57.775,151.871l1.044,0.182l0.612,0.107l0.551,0.096l0.486,0.085l3.717,0.647l2.86,0.347l0.426-0.104l2.544-0.622l0.35-0.085
	l2.033-0.326l0.764-0.122"/>
<path fill="#2AAAE2" stroke="#2E368F" stroke-width="1.25" stroke-linecap="round" stroke-linejoin="round" stroke-opacity="0.5" d="
	M31.134,91.83l-2.416,3.154l-6.265,5.012"/>
<path fill="#2AAAE2" stroke="#2E368F" stroke-width="1.25" stroke-linecap="round" stroke-linejoin="round" stroke-opacity="0.5" d="
	M53.091,153.146l1.943-0.212l4.071-0.443l0.046-0.005l1.317-0.145"/>
<path fill="#2AAAE2" stroke="#2E368F" stroke-width="1.25" stroke-linecap="round" stroke-linejoin="round" stroke-opacity="0.5" d="
	M22.945,130.483l1.871,2.41l3.261,4.204l0.404,0.441l0.315,0.344l0.217,0.237l0.422,0.46l1.102,1.203l0.386,0.422l0.504,0.55
	l0.382,0.416l0.147,0.162l0.164,0.179l0.182,0.392l0.062,0.131l0.042,0.09l0.26,0.556l0.101,0.218l0.059,0.128l0.17,0.362
	l0.042,0.09l0.019,0.04l0.314,0.673l1.577,3.379l0.281,0.602l0.117,0.249l0.076,0.164l0.01,0.021l0.606,1.299l0.681,0.356
	l0.007,0.004l0.642,0.338l0.267,0.142l0.195,0.103l0.596,0.314l2.99,1.573"/>
<path fill="#2AAAE2" stroke="#2E368F" stroke-width="1.25" stroke-linecap="round" stroke-linejoin="round" stroke-opacity="0.5" d="
	M37.804,82.555l-1.458,1.104l-1.53,1.159l-0.032,0.032l-4.006,4.271l-1.14,1.293l-2.655,3.011"/>
<path fill="#2AAAE2" stroke="#2E368F" stroke-width="1.25" stroke-linecap="round" stroke-linejoin="round" stroke-opacity="0.5" d="
	M41.302,68.055l-0.177,0.311l-0.009,0.015l-0.398,0.695l-0.151,0.264l-0.88,1.537l-1.062,3.958l0.186,1.736l0.017,0.153l0.089,0.827
	l0.029,0.273l0.007,0.065l0.193,1.794l0.008,0.076"/>
<path fill="#2AAAE2" stroke="#2E368F" stroke-width="1.25" stroke-linecap="round" stroke-linejoin="round" stroke-opacity="0.5" d="
	M44.944,154.878l0.468,0.241l0.461,0.1l0.264,0.059l0.457,0.1l-0.325-0.099l-0.184-0.057l-0.049-0.015l-1.083-0.327L44.944,154.878
	l-3.333-1.007l-2.471-0.746l-0.241-0.344l-0.088-0.125l-1.443-2.057"/>
<path fill="#2AAAE2" stroke="#2E368F" stroke-width="1.25" stroke-linecap="round" stroke-linejoin="round" stroke-opacity="0.5" d="
	M46.594,155.376l0.478,0.069l0.364,0.052l0.202,0.029l7.831,1.131"/>
<path fill="#2AAAE2" stroke="#2E368F" stroke-width="1.25" stroke-linecap="round" stroke-linejoin="round" stroke-opacity="0.5" d="
	M38.946,77.824l-0.996,2.237l-0.179,0.337l-1.439,2.709l-3.895,3.339"/>
<path fill="#2AAAE2" stroke="#2E368F" stroke-width="1.25" stroke-linecap="round" stroke-linejoin="round" stroke-opacity="0.5" d="
	M82.746,36.065l-0.603-4.387"/>
<path fill="#2AAAE2" stroke="#2E368F" stroke-width="1.25" stroke-linecap="round" stroke-linejoin="round" stroke-opacity="0.5" d="
	M31.427,140.756l0.665,1.175l0.367,0.649l0.113,0.199l0.109,0.191l0.23,0.406l0.047,0.082l0.02,0.037l0.393,0.692"/>
<path fill="#2AAAE2" stroke="#2E368F" stroke-width="1.25" stroke-linecap="round" stroke-linejoin="round" stroke-opacity="0.5" d="
	M68.252,49.377l-3.813,1.743l-2.395,1.465"/>
<path fill="#2AAAE2" stroke="#2E368F" stroke-width="1.25" stroke-linecap="round" stroke-linejoin="round" stroke-opacity="0.5" d="
	M41.116,68.271v0.108"/>
<path fill="#2AAAE2" stroke="#2E368F" stroke-width="1.25" stroke-linecap="round" stroke-linejoin="round" stroke-opacity="0.5" d="
	M71.91,154.728l2.266,1.147l1.166,0.59l0.562,0.283l0.271,0.138l1.226,0.619l3.876-0.238"/>
<path fill="#2AAAE2" stroke="#2E368F" stroke-width="1.25" stroke-linecap="round" stroke-linejoin="round" stroke-opacity="0.5" d="
	M71.2,156.108l0.536,0.084l3.705,0.577l0.731,0.115"/>
<path fill="#2AAAE2" stroke="#2E368F" stroke-width="1.25" stroke-linecap="round" stroke-linejoin="round" stroke-opacity="0.5" d="
	M77.413,156.203l3.861,1.063l1.398,0.387l6.235,2.194l0.358,0.126l1.099,0.15l1.62,0.222"/>
<path fill="#2AAAE2" stroke="#2E368F" stroke-width="1.25" stroke-linecap="round" stroke-linejoin="round" stroke-opacity="0.5" d="
	M52.232,59.094l-2.158,1.311"/>
<path fill="#2AAAE2" stroke="#2E368F" stroke-width="1.25" stroke-linecap="round" stroke-linejoin="round" stroke-opacity="0.5" d="
	M41.611,153.871l3.091,1.242l1.535,0.527l7.073,2.437l3.407,1.606l3.489,1.646l0.024,0.011l0.446,0.211"/>
<path fill="#2AAAE2" stroke="#2E368F" stroke-width="1.25" stroke-linecap="round" stroke-linejoin="round" stroke-opacity="0.5" d="
	M23.31,134.788l4.84,2.997l0.414,0.257l0.871,0.539"/>
<path fill="#2AAAE2" stroke="#2E368F" stroke-width="1.25" stroke-linecap="round" stroke-linejoin="round" stroke-opacity="0.5" d="
	M62.43,158.46l0.043-0.008l0.029-0.005l0.054-0.011l0.012-0.003l0.015-0.002l0.124-0.021l0.053-0.01l1.187-0.212l4.394-0.775
	l0.138-0.024l0.642-0.111l0.096-0.019l0.532-0.094l0.889-0.157l0.389-0.02l0.211-0.012l4.207-0.208"/>
<path fill="#2AAAE2" stroke="#2E368F" stroke-width="1.25" stroke-linecap="round" stroke-linejoin="round" stroke-opacity="0.5" d="
	M41.042,63.214l-0.803,3.846l0.328,2.278"/>
<path fill="#2AAAE2" stroke="#2E368F" stroke-width="1.25" stroke-linecap="round" stroke-linejoin="round" stroke-opacity="0.5" d="
	M88.181,158.519l3.806,1.827l1.535,0.737l0.911-0.169l0.721-0.134l1.892-0.353l2.813-0.521l1.981-0.368"/>
<path fill="#2AAAE2" stroke="#2E368F" stroke-width="1.25" stroke-linecap="round" stroke-linejoin="round" stroke-opacity="0.5" d="
	M97.447,156.359l5.834,0.231l9.181-0.431"/>
<path fill="#2AAAE2" stroke="#2E368F" stroke-width="1.25" stroke-linecap="round" stroke-linejoin="round" stroke-opacity="0.5" d="
	M29.241,82.391l-0.659,1.116l-0.228,0.386l-0.146,0.247l-0.056,0.098l-0.02,0.03l-0.083,0.143l-0.08,0.136l-0.082,0.139l-0.004,0.01
	l-0.122,0.205l-0.109,0.184l-0.024,0.042l-0.025,0.043l-1.251,2.118l-0.056,0.523l-0.221,2.094l-0.002,0.021l-0.009,0.084
	l-0.085,0.801l-0.016,0.149l-0.006,0.063l-0.065,0.609l-0.019,0.187l-0.084,0.047l-0.809,0.443l-0.303,0.166l-0.846,0.959
	l-0.503,0.57l-0.522,0.592l-0.299,0.339l-0.054,0.063l-0.073,0.082l-0.645,0.73l-0.331,0.374l-2.173,2.306l-1.704,1.806"/>
<path fill="#2AAAE2" stroke="#2E368F" stroke-width="1.25" stroke-linecap="round" stroke-linejoin="round" stroke-opacity="0.5" d="
	M30.537,139.784l0.751,1.651l0.334,0.735l0.019,0.041l0.206,0.453l0.189,0.416l1.027,2.258l0.319,0.378l1.566,1.852"/>
<path fill="#2AAAE2" stroke="#2E368F" stroke-width="1.25" stroke-linecap="round" stroke-linejoin="round" stroke-opacity="0.5" d="
	M74.504,41.988l-4.173,4.661"/>
<path fill="#2AAAE2" stroke="#2E368F" stroke-width="1.25" stroke-linecap="round" stroke-linejoin="round" stroke-opacity="0.5" d="
	M48.33,56.349l-2.487,2.346l-1.704,0.6l-1.953,0.51l-0.165,0.043l-0.644,0.168l-0.096,0.025l-1.291,0.338l-0.214,0.056l-0.736,0.192
	l0.88,3.434"/>
<path fill="#2AAAE2" stroke="#2E368F" stroke-width="1.25" stroke-linecap="round" stroke-linejoin="round" stroke-opacity="0.5" d="
	M29.638,90.416l-3.434,1.277l-0.331,0.122"/>
<path fill="#2AAAE2" stroke="#2E368F" stroke-width="1.25" stroke-linecap="round" stroke-linejoin="round" stroke-opacity="0.5" d="
	M37.337,152.154l1.243,0.499l0.001,0.001l0.318,0.127"/>
<path fill="#2AAAE2" stroke="#2E368F" stroke-width="1.25" stroke-linecap="round" stroke-linejoin="round" stroke-opacity="0.5" d="
	M138.587,80.073l-0.983-1.553l-0.564-0.886l-0.336-0.528l-1.052-1.012l-2.113-2.031l-0.417-0.4l-0.079-0.076l-1.052-1.012
	l-0.325-0.313l-0.274-0.519l-2.454-4.61"/>
<path fill="#2AAAE2" stroke="#2E368F" stroke-width="1.25" stroke-linecap="round" stroke-linejoin="round" stroke-opacity="0.5" d="
	M56.717,159.685l3.185,1.784l0.774,0.084l3.292-1.655l0.684-0.343l0.009-0.005l0.005-0.002l0.451-0.227l0.109-0.057l0.065-0.034
	l0.081-0.039l0.036-0.019l0.001-0.001l0.289-0.146l0.014-0.008l0.352-0.176l0.8-0.401l1.678-0.845l0.13-0.063l0.545-0.274"/>
<path fill="#2AAAE2" stroke="#2E368F" stroke-width="1.25" stroke-linecap="round" stroke-linejoin="round" stroke-opacity="0.5" d="
	M65.141,45.776l-5.97,2.698l-2.98,1.329l-2.237,2.289l-1.529,2.319"/>
<path fill="#2AAAE2" stroke="#2E368F" stroke-width="1.25" stroke-linecap="round" stroke-linejoin="round" stroke-opacity="0.5" d="
	M22.507,94.933l-0.438,0.29l-1.176,0.78l-0.513,0.34l-0.175,0.116l-0.287,0.19l-0.078,0.052l-0.281,0.186l-0.71,0.47l-0.595,0.396
	l-1.267,0.84l-0.474,0.341l-5.276,3.805l-0.781,0.94l-0.119,0.146l-1.699,2.046l-2.713,3.269l-0.144,0.175l-0.335,0.403"/>
<path fill="#2AAAE2" stroke="#2E368F" stroke-width="1.25" stroke-linecap="round" stroke-linejoin="round" stroke-opacity="0.5" d="
	M149.015,123.853l0.418-0.724l0.668-1.159l0.1-0.173l0.031-0.054l0.186-0.322l2.237-3.878l-3.792-8.161l-0.224-0.411l-0.192-0.354
	l-0.02-0.035l-0.552-1.011l-3.076-5.652"/>
<path fill="#2AAAE2" stroke="#2E368F" stroke-width="1.25" stroke-linecap="round" stroke-linejoin="round" stroke-opacity="0.5" d="
	M149.785,130.083l-0.478-3.729l-0.293-2.501l-0.032-0.269l-0.161-1.37l-0.03-0.258l-0.068-0.596l-0.271-2.302l-0.006-0.051"/>
<path fill="#2AAAE2" stroke="#2E368F" stroke-width="1.25" stroke-linecap="round" stroke-linejoin="round" stroke-opacity="0.5" d="
	M26.075,89.901l-0.67,1.055l-0.755,1.187l-0.819,1.289"/>
<path fill="#2AAAE2" stroke="#2E368F" stroke-width="1.25" stroke-linecap="round" stroke-linejoin="round" stroke-opacity="0.5" d="
	M131.989,72.575l-0.305-4.881"/>
<path fill="#2AAAE2" stroke="#2E368F" stroke-width="1.25" stroke-linecap="round" stroke-linejoin="round" stroke-opacity="0.5" d="
	M63.968,159.897l0.801-0.309l0.008-0.003l0.008-0.003l0.579-0.224l0.087-0.033l0.006-0.003l0.218-0.084l0.04-0.018l0.32-0.123
	l0.034-0.013l0.747-0.289l1.033-0.397l0.79-0.307"/>
<path fill="#2AAAE2" stroke="#2E368F" stroke-width="1.25" stroke-linecap="round" stroke-linejoin="round" stroke-opacity="0.5" d="
	M150.223,111.796l1.447-4.545l0.821-2.574l-2.039-7.927l-2.635-6.217l-0.199-0.382l-0.175-0.138l-0.022-0.017l-1.03-0.8
	l-2.582-2.003l-1.203-0.934l-0.362-0.616l-0.197-0.336l-2.555-4.346l-0.904-0.892l-1.971-1.947l-1.305-1.289"/>
<path fill="#2AAAE2" stroke="#2E368F" stroke-width="1.25" stroke-linecap="round" stroke-linejoin="round" stroke-opacity="0.5" d="
	M9.395,102.575l-0.083,0.148l-0.014,0.024l-0.838,1.515l-0.049,0.089l-0.119,0.218l-0.198,0.355l-0.152,0.276l-0.097,0.175
	l-0.01,0.018l-1.947,3.521l-0.124,0.223l-0.318,0.577l0.94,5.95l7.136,11.1"/>
<path fill="#2AAAE2" stroke="#2E368F" stroke-width="1.25" stroke-linecap="round" stroke-linejoin="round" stroke-opacity="0.5" d="
	M86.96,20.293l-0.649,0.185l-0.726,0.206l-4.454,1.268"/>
<path fill="#2AAAE2" stroke="#2E368F" stroke-width="1.25" stroke-linecap="round" stroke-linejoin="round" stroke-opacity="0.5" d="
	M33.382,145.718l0.248,0.558l3.526,7.492l9.048,1.878l0.033-0.004"/>
<path fill="#2AAAE2" stroke="#2E368F" stroke-width="1.25" stroke-linecap="round" stroke-linejoin="round" stroke-opacity="0.5" d="
	M32.416,70.868l-0.467,0.504l-0.569,0.615l-0.25,0.27l-0.16,0.173l-0.332,0.359l-0.152,0.164l-0.168,0.182l-0.34,0.367"/>
<path fill="#2AAAE2" stroke="#2E368F" stroke-width="1.25" stroke-linecap="round" stroke-linejoin="round" stroke-opacity="0.5" d="
	M95.153,160.78l1.685,0.229l5.124,1.375l2.96,0.795"/>
<path fill="#2AAAE2" stroke="#2E368F" stroke-width="1.25" stroke-linecap="round" stroke-linejoin="round" stroke-opacity="0.5" d="
	M22.892,89.14l-0.471,1.189l-1.292,3.261l-0.254,0.643l-0.043,0.107l-0.189,0.479L20.21,95.91l-0.19,0.479l-0.028,0.07l-0.055,0.141
	l-0.019,0.049"/>
<path fill="#2AAAE2" stroke="#2E368F" stroke-width="1.25" stroke-linecap="round" stroke-linejoin="round" stroke-opacity="0.5" d="
	M148.446,108.617l-0.287-1.755l-0.014-0.081"/>
<path fill="#2AAAE2" stroke="#2E368F" stroke-width="1.25" stroke-linecap="round" stroke-linejoin="round" stroke-opacity="0.5" d="
	M51.639,44.765l-1.651,2.766l-1.438,2.04l-0.366,3.668"/>
<path fill="#2AAAE2" stroke="#2E368F" stroke-width="1.25" stroke-linecap="round" stroke-linejoin="round" stroke-opacity="0.5" d="
	M66.814,158.798l1.585-0.424"/>
<path fill="#2AAAE2" stroke="#2E368F" stroke-width="1.25" stroke-linecap="round" stroke-linejoin="round" stroke-opacity="0.5" d="
	M19.992,96.461l-0.081,0.047l-1.422,0.821l-6.972,4.021l-0.058,0.033l-0.866,0.5l-1.198,0.691l-0.128,0.181l-0.023,0.032
	l-1.598,2.262l-0.318,0.45l-0.074,0.104l-0.198,0.281l-0.007,0.01"/>
<path fill="#2AAAE2" stroke="#2E368F" stroke-width="1.25" stroke-linecap="round" stroke-linejoin="round" stroke-opacity="0.5" d="
	M28.564,138.042l-5.177-0.91l-0.047-0.008l-3.182-0.561l2.972,1.74l3.779,2.555l4.604,1.686l0.334,0.122"/>
<path fill="#2AAAE2" stroke="#2E368F" stroke-width="1.25" stroke-linecap="round" stroke-linejoin="round" stroke-opacity="0.5" d="
	M7.328,105.5l-0.331,0.248l-1.452,1.088l0.041,0.43v0.003l0.178,1.869"/>
<path fill="#2AAAE2" stroke="#2E368F" stroke-width="1.25" stroke-linecap="round" stroke-linejoin="round" stroke-opacity="0.5" d="
	M27.875,72.836l-1.978,2.477"/>
<path fill="#2AAAE2" stroke="#2E368F" stroke-width="1.25" stroke-linecap="round" stroke-linejoin="round" stroke-opacity="0.5" d="
	M65.713,159.223l1.596,0.149l0.604,0.056"/>
<path fill="#2AAAE2" stroke="#2E368F" stroke-width="1.25" stroke-linecap="round" stroke-linejoin="round" stroke-opacity="0.5" d="
	M147.619,90.151l-0.197-0.232l-1.03-0.721"/>
<path fill="#2AAAE2" stroke="#2E368F" stroke-width="1.25" stroke-linecap="round" stroke-linejoin="round" stroke-opacity="0.5" d="
	M8.945,124.617l1.938,0.909l2.639,1.237l6.636,9.799"/>
<path fill="#2AAAE2" stroke="#2E368F" stroke-width="1.25" stroke-linecap="round" stroke-linejoin="round" stroke-opacity="0.5" d="
	M41.402,57.2l-0.558,0.146l-0.037,0.011l-1.186,0.313l-0.298,0.078l-0.133,0.035l-0.248,0.063l-0.14,0.037l-0.083,0.022
	l-0.118,0.029l-0.16,0.042l-0.138,0.037l-0.417,0.109l-0.079,0.021l-0.084,0.022l-0.106,0.028l-0.013,0.004l-0.294,0.077
	l-0.195,0.051l-0.153,0.04l-0.051,0.014l-0.184,0.049l-0.129,0.033l0,0l-0.003,0.001l-0.007,0.002l-0.046,0.012l-0.318,0.084
	l-0.216,0.156l-1.236,0.892l-1.973,1.422l-1.325,0.735l-1.705,2.582l0.016,2.241l0.145,1.574l0.153,1.664l0.076,0.833l-0.415,0.395
	l-0.587,0.561l-0.41,0.39l-0.872,0.83l-1.316,1.754l-0.598,0.798l-0.023,3.96"/>
<path fill="#2AAAE2" stroke="#2E368F" stroke-width="1.25" stroke-linecap="round" stroke-linejoin="round" stroke-opacity="0.5" d="
	M114.173,25.219l-2.421-3.638l-1.933-2.905l-0.34-0.511l-0.085-0.127l-4.762-1.995l-3.939-1.652l-0.289-0.121l-0.798-0.334
	L99.283,13.8l-2.552-0.2l-1.223-0.096l-1.596-0.126l-1.032,0.473l-4.896,2.242"/>
<path fill="#2AAAE2" stroke="#2E368F" stroke-width="1.25" stroke-linecap="round" stroke-linejoin="round" stroke-opacity="0.5" d="
	M56.73,35.546l-1.909,7.014"/>
<path fill="#2AAAE2" stroke="#2E368F" stroke-width="1.25" stroke-linecap="round" stroke-linejoin="round" stroke-opacity="0.5" d="
	M65.449,159.326l0.019,0.004l0.402,0.104l1.62,0.427l0.558-0.021l0.699-0.024l2.732-0.102l0.455-0.017l2.192-0.081"/>
<path fill="#2AAAE2" stroke="#2E368F" stroke-width="1.25" stroke-linecap="round" stroke-linejoin="round" stroke-opacity="0.5" d="
	M22.573,83.477l-1.721,3.66l-0.433,5.929l-0.067,0.908l-0.04,0.552L20.3,94.691l-0.025,0.331l-0.065,0.889"/>
<path fill="#2AAAE2" stroke="#2E368F" stroke-width="1.25" stroke-linecap="round" stroke-linejoin="round" stroke-opacity="0.5" d="
	M88.909,159.848l2.445,1.639l7.425,2.225l5.556,5.363l0.57,0.55"/>
<path fill="#2AAAE2" stroke="#2E368F" stroke-width="1.25" stroke-linecap="round" stroke-linejoin="round" stroke-opacity="0.5" d="
	M19.546,95.425l-2.243,1.24l-0.262,0.145L13.2,98.933l-0.3,0.34l-0.576,0.652l-0.942,1.066l-0.124,0.14l-0.665,0.753"/>
<path fill="#2AAAE2" stroke="#2E368F" stroke-width="1.25" stroke-linecap="round" stroke-linejoin="round" stroke-opacity="0.5" d="
	M65.362,159.359l0.215,0.031l0.293,0.044"/>
<path fill="#2AAAE2" stroke="#2E368F" stroke-width="1.25" stroke-linecap="round" stroke-linejoin="round" stroke-opacity="0.5" d="
	M30.083,69.829l-0.269,0.135l-2.827,1.419l-1.515,1.551l-1.063,4.639l-1.836,5.904l-0.343,1.104"/>
<path fill="#2AAAE2" stroke="#2E368F" stroke-width="1.25" stroke-linecap="round" stroke-linejoin="round" stroke-opacity="0.5" d="
	M132.858,63.427l2.271-5.67l-0.502-2.32"/>
<path fill="#2AAAE2" stroke="#2E368F" stroke-width="1.25" stroke-linecap="round" stroke-linejoin="round" stroke-opacity="0.5" d="
	M20.352,93.974l-0.413,0.744l-0.184,0.332l-0.209,0.375l-1.057,1.904"/>
<path fill="#2AAAE2" stroke="#2E368F" stroke-width="1.25" stroke-linecap="round" stroke-linejoin="round" stroke-opacity="0.5" d="
	M68.048,159.841l5.047,1.324"/>
<path fill="#2AAAE2" stroke="#2E368F" stroke-width="1.25" stroke-linecap="round" stroke-linejoin="round" stroke-opacity="0.5" d="
	M133.537,74.063l-0.101-1.31l-0.001-0.009l-0.003-0.05l-0.181-2.321l0.908-5.586"/>
<path fill="#2AAAE2" stroke="#2E368F" stroke-width="1.25" stroke-linecap="round" stroke-linejoin="round" stroke-opacity="0.5" d="
	M82.432,159.808l5.085,0.972l0.461,0.088l2.544,0.484l6.888,2.78"/>
<path fill="#2AAAE2" stroke="#2E368F" stroke-width="1.25" stroke-linecap="round" stroke-linejoin="round" stroke-opacity="0.5" d="
	M122.405,31.43l-1.619-3.134l-0.252-0.489l-0.53-0.216l-5.831-2.372l-0.056-0.021l-2.709-1.104"/>
<path fill="#2AAAE2" stroke="#2E368F" stroke-width="1.25" stroke-linecap="round" stroke-linejoin="round" stroke-opacity="0.5" d="
	M11.382,100.991l-0.66,0.335l-0.386,0.194l-3.016,1.534l-2.908,1.479l-0.078,1.638v0.001l-0.066,1.372l-0.267,5.577"/>
<path fill="#2AAAE2" stroke="#2E368F" stroke-width="1.25" stroke-linecap="round" stroke-linejoin="round" stroke-opacity="0.5" d="
	M80.834,161.459l1.021-0.085l6.123-0.508"/>
<path fill="#2AAAE2" stroke="#2E368F" stroke-width="1.25" stroke-linecap="round" stroke-linejoin="round" stroke-opacity="0.5" d="
	M0.84,111.049l2.093,8.274l0.927,2.266l0.541,2.444l6.482,1.493"/>
<path fill="#2AAAE2" stroke="#2E368F" stroke-width="1.25" stroke-linecap="round" stroke-linejoin="round" stroke-opacity="0.5" d="
	M41.428,54.346l-0.001,0.002l-0.142,0.221l-0.054,0.081l-0.123,0.188l-0.014,0.022l-0.181,0.276l-0.097,0.149l-0.121,0.186
	l-0.096,0.147l-0.989,1.519l-0.42,0.646"/>
<path fill="#2AAAE2" stroke="#2E368F" stroke-width="1.25" stroke-linecap="round" stroke-linejoin="round" stroke-opacity="0.5" d="
	M75.64,12.193l-3.668,1.109l-4.123,2.498l-0.73,0.688l-2.326,2.188"/>
<path fill="#2AAAE2" stroke="#2E368F" stroke-width="1.25" stroke-linecap="round" stroke-linejoin="round" stroke-opacity="0.5" d="
	M62.409,21.848l-2.993,3.04l-0.443,3.946l-1.662,0.616l-2.177,0.806l-0.145,0.054l-0.122,0.045l-1.453,2.801l-0.28,0.54
	l-0.013,0.054l-0.067,0.296l-0.028,0.121l-0.37,1.626l-0.14,0.611l-0.045,0.198l-0.229,1.005"/>
<path fill="#2AAAE2" stroke="#2E368F" stroke-width="1.25" stroke-linecap="round" stroke-linejoin="round" stroke-opacity="0.5" d="
	M46.199,47.178l-0.216,0.134l-0.227,0.143l-0.147,0.091l-0.289,0.179l-0.094,0.06l-0.016,0.011l-0.013,0.008l-0.03,0.02
	l-0.053,0.031l-0.11,0.068l-1.046,0.649l-0.321,0.198l-0.705,0.438l-0.676,0.42l-0.185,0.386l-0.789,1.651l-0.004,0.061l-0.005,0.1
	l-0.136,2.303l-0.024,0.401l-0.009,0.151l-0.002,0.049l-0.008,0.121v0.012"/>
<path fill="#2AAAE2" stroke="#2E368F" stroke-width="1.25" stroke-linecap="round" stroke-linejoin="round" stroke-opacity="0.5" d="
	M139.366,79.231l-2.328-1.596"/>
<path fill="#2AAAE2" stroke="#2E368F" stroke-width="1.25" stroke-linecap="round" stroke-linejoin="round" stroke-opacity="0.5" d="
	M4.332,106.175l-3.707,2.568l0.215,2.306L4.332,106.175l0.002-0.002"/>
<path fill="#2AAAE2" stroke="#2E368F" stroke-width="1.25" stroke-linecap="round" stroke-linejoin="round" stroke-opacity="0.5" d="
	M141.042,152.953l0.077-0.051l1.12-0.743l1.968-1.308l0.209-0.138l0.085-0.276l1.493-4.838l0.318-1.026l0.161-0.523l-0.328-0.657
	l-0.104-0.209l-0.21-0.419l-0.119-0.237l-0.109-0.224l-1.43-2.856l-1.146-2.295"/>
<path fill="#2AAAE2" stroke="#2E368F" stroke-width="1.25" stroke-linecap="round" stroke-linejoin="round" stroke-opacity="0.5" d="
	M64.775,159.586l0.357,0.11l1.362,0.416l0.105,0.03"/>
<path fill="#2AAAE2" stroke="#2E368F" stroke-width="1.25" stroke-linecap="round" stroke-linejoin="round" stroke-opacity="0.5" d="
	M133.099,52.284l0.475,1.29l1.054,1.861l-0.937-1.478l-0.126-0.199l-0.413-1.306L133.099,52.284l-0.581-1.839l-0.222-0.696"/>
<path fill="#2AAAE2" stroke="#2E368F" stroke-width="1.25" stroke-linecap="round" stroke-linejoin="round" stroke-opacity="0.5" d="
	M105.477,168.524l3.5,1.823l0.205,0.107l0.429,0.223l0.003,0.001l0.01,0.006l0.218,0.113l0.71,0.371l0.405,0.211l0.04,0.021
	l1.37,0.715l0.079,0.041l0.003,0.002l0.072,0.036l0.147,0.077l0.188,0.1l0.308,0.16l0.565,0.295l0.989,0.515l1.824-0.916
	l0.273-0.138l0.732-0.368l0.299-0.15l2.962-1.486l0.666-0.336l0.417-0.209l0.06-0.029l0.042-0.021l1.229-0.616l5.637-2.978
	l1.188-0.628l0.146-0.077l2.643-1.395l0.081-0.044l0.79-0.528l0.119-0.08l0.298-0.199l0.017-0.01"/>
<path fill="#2AAAE2" stroke="#2E368F" stroke-width="1.25" stroke-linecap="round" stroke-linejoin="round" stroke-opacity="0.5" d="
	M76.726,162.507l0.183,0.128l1.66,1.164l0.54,0.379l0.466,0.327l1.367,0.958l0.076,0.02l1.026,0.25l2.798,0.679l0.521,0.126"/>
<path fill="#2AAAE2" stroke="#2E368F" stroke-width="1.25" stroke-linecap="round" stroke-linejoin="round" stroke-opacity="0.5" d="
	M31.513,142.544l0.523,0.538"/>
<path fill="#2AAAE2" stroke="#2E368F" stroke-width="1.25" stroke-linecap="round" stroke-linejoin="round" stroke-opacity="0.5" d="
	M40.565,54.446l-0.56,0.71l-0.308,0.391l-0.046,0.058l-0.131,0.167l-0.581,0.736l-0.006,0.008l-0.154,0.194l-0.3,0.38l-0.686,0.87
	l-0.166,0.21l-0.023,0.03"/>
<path fill="#2AAAE2" stroke="#2E368F" stroke-width="1.25" stroke-linecap="round" stroke-linejoin="round" stroke-opacity="0.5" d="
	M101.652,168.307l1.979,1.121l2.778,0.937l0.281,0.094l2.348,0.79l0.002,0.001l0.276,0.093l0.113,0.038l0.065,0.021l0.152,0.053
	l2.43,0.815l0.189,0.064l0.139,0.047l0.19,0.064l0.276,0.093l0.854,0.288"/>
<path fill="#2AAAE2" stroke="#2E368F" stroke-width="1.25" stroke-linecap="round" stroke-linejoin="round" stroke-opacity="0.5" d="
	M64.768,159.589l0.365,0.107"/>
<path fill="#2AAAE2" stroke="#2E368F" stroke-width="1.25" stroke-linecap="round" stroke-linejoin="round" stroke-opacity="0.5" d="
	M135.65,76.096l-2.212-3.346l-0.003-0.005"/>
<path fill="#2AAAE2" stroke="#2E368F" stroke-width="1.25" stroke-linecap="round" stroke-linejoin="round" stroke-opacity="0.5" d="
	M12.9,99.272l-0.611,0.414l-4.969,3.369"/>
<path fill="#2AAAE2" stroke="#2E368F" stroke-width="1.25" stroke-linecap="round" stroke-linejoin="round" stroke-opacity="0.5" d="
	M52.471,36.602l-1.28,2.537l-0.211,0.417l-0.185,0.367l-0.421,0.834l-0.172,0.341l-0.121,0.241"/>
<path fill="#2AAAE2" stroke="#2E368F" stroke-width="1.25" stroke-linecap="round" stroke-linejoin="round" stroke-opacity="0.5" d="
	M83.35,163.625l1.322,0.303l6.158,1.413l7.977,3.455"/>
<path fill="#2AAAE2" stroke="#2E368F" stroke-width="1.25" stroke-linecap="round" stroke-linejoin="round" stroke-opacity="0.5" d="
	M66.496,160.112l1.839,2.167l2.721,3.586l4.079-0.107l0.286-0.007"/>
<path fill="#2AAAE2" stroke="#2E368F" stroke-width="1.25" stroke-linecap="round" stroke-linejoin="round" stroke-opacity="0.5" d="
	M51.191,39.139l-0.149,0.156l-0.207,0.217l-1.766,1.854l-0.378,0.396l-0.588,0.617l-0.365,0.383l-1.351,1.418l-0.77,2.083
	l-0.243,0.657l-0.008,0.021l-0.362,0.979"/>
<path fill="#2AAAE2" stroke="#2E368F" stroke-width="1.25" stroke-linecap="round" stroke-linejoin="round" stroke-opacity="0.5" d="
	M29.93,68.165l-0.116,1.799"/>
<path fill="#2AAAE2" stroke="#2E368F" stroke-width="1.25" stroke-linecap="round" stroke-linejoin="round" stroke-opacity="0.5" d="
	M145.831,142.765l0.481-1.694l0.553-1.95l0.152-0.537l3.468-7.285l0.715-1.502l0.958-5.032l0.541-2.893l0.155-4.813l-0.461-7.104
	l-0.724-2.702"/>
<path fill="#2AAAE2" stroke="#2E368F" stroke-width="1.25" stroke-linecap="round" stroke-linejoin="round" stroke-opacity="0.5" d="
	M45.366,46.94l-1.408,1.629"/>
<path fill="#2AAAE2" stroke="#2E368F" stroke-width="1.25" stroke-linecap="round" stroke-linejoin="round" stroke-opacity="0.5" d="
	M67.118,16.489l-2.411,1.661l-4.421,1.8"/>
<path fill="#2AAAE2" stroke="#2E368F" stroke-width="1.25" stroke-linecap="round" stroke-linejoin="round" stroke-opacity="0.5" d="
	M111.752,21.581l-1.521-2.735l-0.29-0.521l-2.149-3.864l-1.033-1.857l-1.198,0.314l-5.155,1.352"/>
<path fill="#2AAAE2" stroke="#2E368F" stroke-width="1.25" stroke-linecap="round" stroke-linejoin="round" stroke-opacity="0.5" d="
	M132.518,50.445l0.708-1.579l0.575-1.286l0.185-2.691l-3.279-3.499l-1.748-1.9l-0.448-0.487l-0.109-1.207l-0.204-2.201l-3.183-3.184
	l-2.188-2.691l-2.04-1.422"/>
<path fill="#2AAAE2" stroke="#2E368F" stroke-width="1.25" stroke-linecap="round" stroke-linejoin="round" stroke-opacity="0.5" d="
	M142.243,85.646l0.384-2.313l0.55-2.654l-1.604-1.081l-2.836-1.327"/>
<path fill="#2AAAE2" stroke="#2E368F" stroke-width="1.25" stroke-linecap="round" stroke-linejoin="round" stroke-opacity="0.5" d="
	M141.459,151.58l-0.417,1.373l-0.007,0.022l-0.148,0.49l-0.135,0.441l-1.249,4.111l-1.393,1.327l-2.688,2.563l-0.016,0.015
	l-0.044,0.042l-0.387,0.369l-0.642,0.61l-0.016,0.015l-0.179,0.171l0.146-0.117l1.021-0.807l0.111-0.298"/>
<path fill="#2AAAE2" stroke="#2E368F" stroke-width="1.25" stroke-linecap="round" stroke-linejoin="round" stroke-opacity="0.5" d="
	M133.438,72.75l3.275-5.483l0.849-4.77"/>
<path fill="#2AAAE2" stroke="#2E368F" stroke-width="1.25" stroke-linecap="round" stroke-linejoin="round" stroke-opacity="0.5" d="
	M19.939,94.718l-1.903,0.988l-3.382,1.757l-2.365,2.224"/>
<path fill="#2AAAE2" stroke="#2E368F" stroke-width="1.25" stroke-linecap="round" stroke-linejoin="round" stroke-opacity="0.5" d="
	M41.278,51.723l-0.269,0.338l-0.504,0.812l-0.842,2.479l-0.094,0.275l-0.012,0.036l-0.037,0.108"/>
<path fill="#2AAAE2" stroke="#2E368F" stroke-width="1.25" stroke-linecap="round" stroke-linejoin="round" stroke-opacity="0.5" d="
	M108.875,171.481l0.383-0.014l0.205-0.008l0.188-0.007"/>
<path fill="#2AAAE2" stroke="#2E368F" stroke-width="1.25" stroke-linecap="round" stroke-linejoin="round" stroke-opacity="0.5" d="
	M38.328,56.374l-0.009,0.021l-0.007,0.021l-0.349,0.895l-0.007,0.02l-0.025,0.063l-0.054,0.14l-0.25,0.64"/>
<path fill="#2AAAE2" stroke="#2E368F" stroke-width="1.25" stroke-linecap="round" stroke-linejoin="round" stroke-opacity="0.5" d="
	M75.135,165.758l0.111,0.088l3.546-1.099l0.782-0.242"/>
<path fill="#2AAAE2" stroke="#2E368F" stroke-width="1.25" stroke-linecap="round" stroke-linejoin="round" stroke-opacity="0.5" d="
	M42.071,50.011l-0.848,0.795l-3.816,4.594l-0.198,1.321l-0.059,0.397v0.001v0.001l0,0l-0.147,0.979l-0.004,0.025l-0.003,0.019
	l-0.005,0.033l-0.029,0.191"/>
<path fill="#2AAAE2" stroke="#2E368F" stroke-width="1.25" stroke-linecap="round" stroke-linejoin="round" stroke-opacity="0.5" d="
	M81.018,165.481l1.377,1.077l1.812,0.563l3.663,1.136l1.329,0.412l1.617,0.992l0.858,0.525l1.543,0.947l2.99,1.834l1.502,0.624
	l2.136,0.886l1.561,0.648l0.025,0.011l-0.116-0.036l-2.999-0.925l-1.876-0.58"/>
<path fill="#2AAAE2" stroke="#2E368F" stroke-width="1.25" stroke-linecap="round" stroke-linejoin="round" stroke-opacity="0.5" d="
	M20.419,93.065l-2.383,2.642"/>
<path fill="#2AAAE2" stroke="#2E368F" stroke-width="1.25" stroke-linecap="round" stroke-linejoin="round" stroke-opacity="0.5" d="
	M87.869,168.257l3.419,1.735l0.387,0.194"/>
<path fill="#2AAAE2" stroke="#2E368F" stroke-width="1.25" stroke-linecap="round" stroke-linejoin="round" stroke-opacity="0.5" d="
	M49.154,41.017l-1.051,1.361"/>
<path fill="#2AAAE2" stroke="#2E368F" stroke-width="1.25" stroke-linecap="round" stroke-linejoin="round" stroke-opacity="0.5" d="
	M37.209,56.721l-0.545,0.907l-0.656,1.091"/>
<path fill="#2AAAE2" stroke="#2E368F" stroke-width="1.25" stroke-linecap="round" stroke-linejoin="round" stroke-opacity="0.5" d="
	M100.656,172.008l1.989,0.286l2.284,0.329l3.775,0.026h0.078l1.986,0.014l0.573,0.004l0.286,0.002h0.075l0.103,0.001"/>
<path fill="#2AAAE2" stroke="#2E368F" stroke-width="1.25" stroke-linecap="round" stroke-linejoin="round" stroke-opacity="0.5" d="
	M45.617,46.262l-1.043,1.332l-0.233,0.293l-0.704,0.881"/>
<path fill="#2AAAE2" stroke="#2E368F" stroke-width="1.25" stroke-linecap="round" stroke-linejoin="round" stroke-opacity="0.5" d="
	M60.003,15.978l-2.962,3.351l-1.528,3.267l-0.185,0.396l-0.395,0.839l-1.239,2.628l-0.734,2.019l-0.1,0.275l-0.015,0.043
	l-0.004,0.011l-0.877,2.412l-0.436,1.201l-0.824,2.266l-1.55,6.333l-0.008,0.034l-0.077,0.314"/>
<path fill="#2AAAE2" stroke="#2E368F" stroke-width="1.25" stroke-linecap="round" stroke-linejoin="round" stroke-opacity="0.5" d="
	M105.56,12.918l-5.71-3.943l-3.388,1.504l-1.94,0.864l-1.014,0.45l-0.596,0.265l-1.222,0.543l-0.819,0.364l-0.051,0.023
	l-0.831,0.368"/>
<path fill="#2AAAE2" stroke="#2E368F" stroke-width="1.25" stroke-linecap="round" stroke-linejoin="round" stroke-opacity="0.5" d="
	M101.431,175.138h0.013l0.688-0.004l0.987-0.006l0.732-0.005l0.641-0.004l2.335-0.016l2.529-1.235l2.45-1.198l0.402-0.115
	l0.388-0.108"/>
<path fill="#2AAAE2" stroke="#2E368F" stroke-width="1.25" stroke-linecap="round" stroke-linejoin="round" stroke-opacity="0.5" d="
	M44.341,47.887l-1.409,1.318"/>
<path fill="#2AAAE2" stroke="#2E368F" stroke-width="1.25" stroke-linecap="round" stroke-linejoin="round" stroke-opacity="0.5" d="
	M36.664,57.628l-1.892,1.981"/>
<path fill="#2AAAE2" stroke="#2E368F" stroke-width="1.25" stroke-linecap="round" stroke-linejoin="round" stroke-opacity="0.5" d="
	M84.206,167.121l1.873,1.193l2.566,2.233l2.821,0.972l1.524-0.336"/>
<path fill="#2AAAE2" stroke="#2E368F" stroke-width="1.25" stroke-linecap="round" stroke-linejoin="round" stroke-opacity="0.5" d="
	M91.288,169.992l1.704,1.191l3.447,2.412l1.259,0.457l0.48,0.175l2.508,0.909l0.676,0.246l0.445-0.145l0.112-0.037l0.212-0.068"/>
<path fill="#2AAAE2" stroke="#2E368F" stroke-width="1.25" stroke-linecap="round" stroke-linejoin="round" stroke-opacity="0.5" d="
	M126.997,168.505l2.305-1.746l3.456-2.619l0.951-0.72"/>
<path fill="#2AAAE2" stroke="#2E368F" stroke-width="1.25" stroke-linecap="round" stroke-linejoin="round" stroke-opacity="0.5" d="
	M94.521,11.343l-1.947-0.255l-2.657-0.348l-2.987-0.394l-0.258-0.034"/>
<path fill="#2AAAE2" stroke="#2E368F" stroke-width="1.25" stroke-linecap="round" stroke-linejoin="round" stroke-opacity="0.5" d="
	M128.958,39.488l-0.526-1.636l-0.031-0.06"/>
<path fill="#2AAAE2" stroke="#2E368F" stroke-width="1.25" stroke-linecap="round" stroke-linejoin="round" stroke-opacity="0.5" d="
	M120.004,27.591l-1.447-4.125l-2.401-4.08l-4.61-2.333l-3.752-2.592"/>
<path fill="#2AAAE2" stroke="#2E368F" stroke-width="1.25" stroke-linecap="round" stroke-linejoin="round" stroke-opacity="0.5" d="
	M143.809,87.195l0.397-4.118l0.457-2.178l-0.745-5.5l-1.646-3.02l-1.171-2.587"/>
<path fill="#2AAAE2" stroke="#2E368F" stroke-width="1.25" stroke-linecap="round" stroke-linejoin="round" stroke-opacity="0.5" d="
	M140.896,71.186l0.206-1.392l0.803-5.442l1.065-5.137l-2.771-3.476l-3.794-3.981l-3.18-2.892"/>
<path fill="#2AAAE2" stroke="#2E368F" stroke-width="1.25" stroke-linecap="round" stroke-linejoin="round" stroke-opacity="0.5" d="
	M121.477,169.946l0.97,0.187l0.421,0.08l2.231,0.429l1.963-0.438l2.239-3.443"/>
<path fill="#2AAAE2" stroke="#2E368F" stroke-width="1.25" stroke-linecap="round" stroke-linejoin="round" stroke-opacity="0.5" d="
	M96.463,10.479l-6.914-7.603L78.189,4.549l-0.317,0.047l-5.081,0.002"/>
<path fill="#2AAAE2" stroke="#2E368F" stroke-width="1.25" stroke-linecap="round" stroke-linejoin="round" stroke-opacity="0.5" d="
	M145.987,145.979l0.438-0.598l2.675-3.64l0.152-5.861l1.311-3.294l-0.077-1.289"/>
<path fill="#2AAAE2" stroke="#2E368F" stroke-width="1.25" stroke-linecap="round" stroke-linejoin="round" stroke-opacity="0.5" d="
	M140.886,153.467l0.641-0.469l2.415-1.771l0.267-0.376"/>
<path fill="#2AAAE2" stroke="#2E368F" stroke-width="1.25" stroke-linecap="round" stroke-linejoin="round" stroke-opacity="0.5" d="
	M131.635,166.587l2.491-3.446"/>
<path fill="#2AAAE2" stroke="#2E368F" stroke-width="1.25" stroke-linecap="round" stroke-linejoin="round" stroke-opacity="0.5" d="
	M117.849,171.769l0.864-0.037l4.153-1.519"/>
<path fill="#2AAAE2" stroke="#2E368F" stroke-width="1.25" stroke-linecap="round" stroke-linejoin="round" stroke-opacity="0.5" d="
	M144.501,150.438l2.201-3.101l-0.276-1.957"/>
<path fill="#2AAAE2" stroke="#2E368F" stroke-width="1.25" stroke-linecap="round" stroke-linejoin="round" stroke-opacity="0.5" d="
	M52.841,28.805l-0.012-0.294l-0.027-1.674l0.044,1.446l0.014,0.468"/>
<path fill="#2AAAE2" stroke="#2E368F" stroke-width="1.25" stroke-linecap="round" stroke-linejoin="round" stroke-opacity="0.5" d="
	M78.188,4.549l-5.914-3.924l-5.7,2.293l-0.445,0.457l-5.528,5.684l-5.968,7.145l-0.606,0.724l0.16,0.865l0.677,3.665l0.069,2.373"/>
<path fill="#2AAAE2" stroke="#2E368F" stroke-width="1.25" stroke-linecap="round" stroke-linejoin="round" stroke-opacity="0.5" d="
	M140.752,153.908l0.773-0.91"/>
<path fill="#2AAAE2" stroke="#2E368F" stroke-width="1.25" stroke-linecap="round" stroke-linejoin="round" stroke-opacity="0.5" d="
	M53.914,14.028l-0.261,3.004l-0.336,3.867l-0.515,5.938"/>
<path fill="#2AAAE2" stroke="#2E368F" stroke-width="1.25" stroke-linecap="round" stroke-linejoin="round" stroke-opacity="0.5" d="
	M78.792,164.747l1.888,1.565l2.826,4.494l5.584,2.088l7.131,2.012l4.467,0.23"/>
<path fill="#2AAAE2" stroke="#2E368F" stroke-width="1.25" stroke-linecap="round" stroke-linejoin="round" stroke-opacity="0.5" d="
	M116.544,172.425l2.783,1.063l1.881-1.045l2.134-1.188"/>
<path fill="#2AAAE2" stroke="#2E368F" stroke-width="1.25" stroke-linecap="round" stroke-linejoin="round" stroke-opacity="0.5" d="
	M121.208,172.443l1.661,0.194l3.678-1.082l0.993-0.578l4.132-3.471l0.371-0.638l2.246-3.856"/>
<path fill="#2AAAE2" stroke="#2E368F" stroke-width="1.25" stroke-linecap="round" stroke-linejoin="round" stroke-opacity="0.5" d="
	M66.129,3.375L59.795,6.21l-9.492,9.512l-0.849,6.143l0.995,5.248l0.763,4.027l0.317,1.278"/>
<path fill="#2AAAE2" stroke="#2E368F" stroke-width="1.25" stroke-linecap="round" stroke-linejoin="round" stroke-opacity="0.5" d="
	M50.448,27.111l-0.477,5.8l-2.233,9.85"/>
<path fill="#2AAAE2" stroke="#2E368F" stroke-width="1.25" stroke-linecap="round" stroke-linejoin="round" stroke-opacity="0.5" d="
	M104.059,175.313l0.435-0.192"/>
<path fill="#2AAAE2" stroke="#2E368F" stroke-width="1.25" stroke-linecap="round" stroke-linejoin="round" stroke-opacity="0.5" d="
	M101.808,175.239l1.01,0.28l1.241-0.208l-0.617-0.03l-1.521-0.079"/>
<path fill="#2AAAE2" stroke="#2E368F" stroke-width="1.25" stroke-linecap="round" stroke-linejoin="round" stroke-opacity="0.5" d="
	M102.817,175.521l5.174-0.485l1.366-1.166"/>
<path fill="#2AAAE2" stroke="#2E368F" stroke-width="1.25" stroke-linecap="round" stroke-linejoin="round" stroke-opacity="0.5" d="
	M112.211,172.555l0.664-0.017"/>
<path fill="#2AAAE2" stroke="#2E368F" stroke-width="1.25" stroke-linecap="round" stroke-linejoin="round" stroke-opacity="0.5" d="
	M132.043,166.87l5.325-5.405l0.742-2.117"/>
</svg>
