<?xml version="1.0" encoding="utf-8"?>
<!-- Generator: Adobe Illustrator 16.0.0, SVG Export Plug-In . SVG Version: 6.00 Build 0)  -->
<!DOCTYPE svg PUBLIC "-//W3C//DTD SVG 1.1//EN" "http://www.w3.org/Graphics/SVG/1.1/DTD/svg11.dtd">
<svg version="1.1" id="Layer_1" xmlns="http://www.w3.org/2000/svg" xmlns:xlink="http://www.w3.org/1999/xlink" x="0px" y="0px"
	 width="182.626px" height="194.876px" viewBox="0 0 182.626 194.876" enable-background="new 0 0 182.626 194.876"
	 xml:space="preserve">
<path fill="#2AAAE2" stroke="#2E368F" stroke-miterlimit="10" d="M74.455,190.77l0.89,0.054l1.604,1.009l1.861-0.575l2.528,1.476
	l2.854-1.239l3.835,0.067l4.592-2.333l2.038-0.481l0.998-0.37l0.383,0.098l2.374-1.114l4.208,0.227l1.688-0.25l3.801,0.749
	l2.476-1.473l0.017,0.005l2.598-0.219l3.184-0.368l2.791-1.554l2.145-0.359l1.141-0.753l1.146-1.856l1.291-0.703l4.795,0.431
	l1.771-1.97l5.077-3.229l4.755-6.889l0.536-1.263l1.269-1.957l4.265-8.536l-0.613-2.316l-1.415-5.263l0.851-5.129l0.662-0.675
	l3.435-8.536l7.214-7.576l4.916-10.08l1.495-2.351l3.188-8.622l0.566-3.253L167.3,95.25l2.183-9.108l3.246-8.84l1.489-2.628
	l1.317-10.362l2.283-10.332l-1.364-6.095v-0.136l0.998-7.584l0.566-1.81l1.382-8.742l0.294-3.031l2.313-10.55l-2.972-3.039
	l-6.565-7.978l-5.748-2.854l-4.853,1.316l-4.76,0.091l-4.841,0.012l-4.982-0.833l-5.785-2.12l-6.795,0.277l-5.179,2.35l-5.267,0.109
	l-2.367,3.267l-1.967,1.677l-0.654-0.039l-1.367,0.172L116.8,8.895l-2.015-0.175l-4.461,1.013l-4.48,0.707l-4.358,1.68l-1.76,1.217
	l-1.117-0.19l-4.955,0.337l-2.267-2.753l-6.481,1.09l-5.805,0.031l-6.071,3.988l-3.359,0.5l-5.259,0.347l-7.294,0.679l-4.984-0.625
	l-4.246,3.047l-1.224,1.188l-0.245-0.03l-5.627,1.746l-4.048,4.949l-3.22,4.691l-2.582,0.177l-3.308,4.453l-6.438,4.299l-3.943,5.59
	l-3.474,4.786l-0.186,0.319L13.456,52.1l-1.641,2.454l-1.116,2.41l-0.399,0.69l0.038,0.091l-0.091,0.195l-3.22,7.084l-1.437,4.962
	l-0.367,2.709l-0.576,4.636L2.95,84.029l0.03,1.865l-0.57,4.08l0.557,7.016l0.103,7.96l-2.438,10.68l2.155,7.962l4.266,6.76
	l1.204,2.265l0.544,5.313l3.073,7.038l0.58,7.521l0.872,7.347l3.058,6.282l2.39,6.359l4.471,8.016l1.507,2.072l1.58,2.448
	l8.369,8.189l5.304-0.223l2.686,1.272l3.901-0.436l4.239-0.572l0.176-0.097l2.743-0.05l3.529-1.126l2.403-0.386l1.945,0.288
	l2.317-0.823l2.881,0.272l2.797-0.523l2.479-0.838L74.455,190.77z"/>
<path fill="#2AAAE2" stroke="#2E368F" stroke-width="1.25" stroke-linecap="round" stroke-linejoin="round" stroke-opacity="0.5" d="
	M169.042,83.786l3.681-6.486l1.488-2.628l1.318-10.362l2.283-10.332l-1.364-6.095l-0.59-2.639l-0.021-0.087l-0.061-0.269"/>
<path fill="#2AAAE2" stroke="#2E368F" stroke-width="1.25" stroke-linecap="round" stroke-linejoin="round" stroke-opacity="0.5" d="
	M139.753,151.229l1.688-1.719l0.046-0.046l1.563-1.591l0.659-0.672l0.128-0.131l0.647-0.66l1.697-1.729l0.662-0.675l3.435-8.536
	l7.214-7.577l4.916-10.079l1.495-2.351l3.188-8.622l0.566-3.253l-0.364-8.342l-0.094-2.172"/>
<path fill="#2AAAE2" stroke="#2E368F" stroke-width="1.25" stroke-linecap="round" stroke-linejoin="round" stroke-opacity="0.5" d="
	M179.429,27.762l0.26-1.182l2.313-10.55l-2.972-3.039l-2.282-2.333"/>
<path fill="#2AAAE2" stroke="#2E368F" stroke-width="1.25" stroke-linecap="round" stroke-linejoin="round" stroke-opacity="0.5" d="
	M99.296,20.35l-2.665-3.238l-1.852-2.253l-0.088-0.107l-1.045-1.27l-2.267-2.753l-6.481,1.09l-5.805,0.031l-6.071,3.988"/>
<path fill="#2AAAE2" stroke="#2E368F" stroke-width="1.25" stroke-linecap="round" stroke-linejoin="round" stroke-opacity="0.5" d="
	M167.294,95.248l2.183-9.108l3.245-8.84"/>
<path fill="#2AAAE2" stroke="#2E368F" stroke-width="1.25" stroke-linecap="round" stroke-linejoin="round" stroke-opacity="0.5" d="
	M179.029,12.991l-6.565-7.978l-5.748-2.854l-4.853,1.316l-4.76,0.091l-4.841,0.012l-4.982-0.833l-5.785-2.12L134.7,0.902
	l-5.179,2.35l-5.267,0.109l-2.367,3.267l-0.995,1.373l-0.561,0.329l-1.29,0.757l-0.122,0.072l-1.386,0.814l-0.718,0.422"/>
<path fill="#2AAAE2" stroke="#2E368F" stroke-width="1.25" stroke-linecap="round" stroke-linejoin="round" stroke-opacity="0.5" d="
	M112.601,13.01l-1.062-0.119l-1.997-0.224l-0.499-0.057l-0.201-0.022l-0.813-0.092l-4.544,1.477l-3.768-0.638l-1.117-0.19
	l-4.955,0.337"/>
<path fill="#2AAAE2" stroke="#2E368F" stroke-width="1.25" stroke-linecap="round" stroke-linejoin="round" stroke-opacity="0.5" d="
	M175.858,45.244l1.588-5.081l0.566-1.81l1.382-8.742l0.294-3.031"/>
<path fill="#2AAAE2" stroke="#2E368F" stroke-width="1.25" stroke-linecap="round" stroke-linejoin="round" stroke-opacity="0.5" d="
	M29.223,42.747l-0.024,0.662l-0.006,0.175l-0.3,8.266l5.281,6.865"/>
<path fill="#2AAAE2" stroke="#2E368F" stroke-width="1.25" stroke-linecap="round" stroke-linejoin="round" stroke-opacity="0.5" d="
	M33.448,58.78l0.521,7.071l1.875,6.903l2.798,7.473"/>
<path fill="#2AAAE2" stroke="#2E368F" stroke-width="1.25" stroke-linecap="round" stroke-linejoin="round" stroke-opacity="0.5" d="
	M34.882,37.53l-0.169,0.156l-0.034,0.031l-4.9,4.518l-0.375,0.346l-0.18,0.166l-0.619,1.463"/>
<path fill="#2AAAE2" stroke="#2E368F" stroke-width="1.25" stroke-linecap="round" stroke-linejoin="round" stroke-opacity="0.5" d="
	M74.48,15.621l-1.458,0.217l-3.359,0.5l-5.259,0.347l-7.294,0.679l-1.365,0.127"/>
<path fill="#2AAAE2" stroke="#2E368F" stroke-width="1.25" stroke-linecap="round" stroke-linejoin="round" stroke-opacity="0.5" d="
	M176.448,47.883v-0.136l0.998-7.584"/>
<path fill="#2AAAE2" stroke="#2E368F" stroke-width="1.25" stroke-linecap="round" stroke-linejoin="round" stroke-opacity="0.5" d="
	M121.888,6.628l-1.967,1.677l-0.912,0.779l-0.089,0.075"/>
<path fill="#2AAAE2" stroke="#2E368F" stroke-width="1.25" stroke-linecap="round" stroke-linejoin="round" stroke-opacity="0.5" d="
	M123.507,181.235l0.49-0.42l0.063-0.054l0.036-0.031l0.014-0.012l2.322-1.991l0.048-0.042l1.201-1.027l4.262-6.925l7.685-8.126
	l0.461-1.49"/>
<path fill="#2AAAE2" stroke="#2E368F" stroke-width="1.25" stroke-linecap="round" stroke-linejoin="round" stroke-opacity="0.5" d="
	M131.64,174.626l4.46-4.002l4.952-10.488l0.862-1.788l1.736-3.592l1.312-2.716l0.368-2.229l0.851-5.129"/>
<path fill="#2AAAE2" stroke="#2E368F" stroke-width="1.25" stroke-linecap="round" stroke-linejoin="round" stroke-opacity="0.5" d="
	M57.11,17.364l-4.984-0.625l-4.246,3.047l-1.224,1.188"/>
<path fill="#2AAAE2" stroke="#2E368F" stroke-width="1.25" stroke-linecap="round" stroke-linejoin="round" stroke-opacity="0.5" d="
	M119.009,9.084l-2.215-0.191l-2.015-0.175l-4.461,1.013l-4.48,0.707l-4.358,1.68l-1.76,1.217"/>
<path fill="#2AAAE2" stroke="#2E368F" stroke-width="1.25" stroke-linecap="round" stroke-linejoin="round" stroke-opacity="0.5" d="
	M30.119,39.669l-0.594,1.189l-0.087,0.174l-0.246,0.492l-0.083,0.167l-0.601,1.201l-1.162,2.328l-0.183,1.075l-1.038,6.179
	l1.204,7.256l6.222,5.377"/>
<path fill="#2AAAE2" stroke="#2E368F" stroke-width="1.25" stroke-linecap="round" stroke-linejoin="round" stroke-opacity="0.5" d="
	M122.456,183.361l0.834-1.687l0.125-0.253l0.092-0.188l-0.062,0.011l-2.914,0.404l-3.004,0.419l-1.42,0.198"/>
<path fill="#2AAAE2" stroke="#2E368F" stroke-width="1.25" stroke-linecap="round" stroke-linejoin="round" stroke-opacity="0.5" d="
	M29.834,80.926l4.444,7.684l6.159,7.243"/>
<path fill="#2AAAE2" stroke="#2E368F" stroke-width="1.25" stroke-linecap="round" stroke-linejoin="round" stroke-opacity="0.5" d="
	M52.224,21.663l-2.475-0.306l-0.212-0.026l-2.882-0.357l-0.245-0.03l-5.627,1.746l-4.048,4.949l-3.22,4.691l-0.079,0.114
	l-1.436,2.09l-2.022,3.24l-0.234,0.376l-1.792,2.869l-0.273,1.215l-0.057,0.248l-0.005,0.02l-0.022,0.106l-0.168,0.741l-1.041,4.61
	l-2.832,5.404l-0.607,6.859"/>
<path fill="#2AAAE2" stroke="#2E368F" stroke-width="1.25" stroke-linecap="round" stroke-linejoin="round" stroke-opacity="0.5" d="
	M143.651,154.756l-0.773,4.563l-1.378,8.53l-0.116,0.719l-0.094,0.579l0.537-1.263l0.211-0.496"/>
<path fill="#2AAAE2" stroke="#2E368F" stroke-width="1.25" stroke-linecap="round" stroke-linejoin="round" stroke-opacity="0.5" d="
	M91.042,184.134l2.056,1.326l0.144,0.093l0.5,0.322l0.521,0.337l0.832,0.536l0.562,0.361l0.271,0.177l0.156,0.102l0.348-0.094
	l0.134-0.036l3.329-0.897l0.117-0.03l1.353-0.365l0.295-0.079l1.967-0.53"/>
<path fill="#2AAAE2" stroke="#2E368F" stroke-width="1.25" stroke-linecap="round" stroke-linejoin="round" stroke-opacity="0.5" d="
	M124.097,180.73l0.796,0.071l4.795,0.431l1.771-1.97l5.078-3.229l4.754-6.889"/>
<path fill="#2AAAE2" stroke="#2E368F" stroke-width="1.25" stroke-linecap="round" stroke-linejoin="round" stroke-opacity="0.5" d="
	M96.563,187.258l1.01,0.054l0.824,0.045l0.016,0.001l4.208,0.227l1.688-0.25l3.841-0.568l0.066-0.011l1.856-0.275l0.976-0.144"/>
<path fill="#2AAAE2" stroke="#2E368F" stroke-width="1.25" stroke-linecap="round" stroke-linejoin="round" stroke-opacity="0.5" d="
	M46.155,132.415l7.877,8.225l8.056,4.698"/>
<path fill="#2AAAE2" stroke="#2E368F" stroke-width="1.25" stroke-linecap="round" stroke-linejoin="round" stroke-opacity="0.5" d="
	M104.308,187.333l3.801,0.749l2.476-1.473l0.464-0.274l5.358-1.016l0.34-0.427l0.039-0.048l1.368-1.714"/>
<path fill="#2AAAE2" stroke="#2E368F" stroke-width="1.25" stroke-linecap="round" stroke-linejoin="round" stroke-opacity="0.5" d="
	M119.922,8.305l-0.654-0.039L117.9,8.438l-1.105,0.455"/>
<path fill="#2AAAE2" stroke="#2E368F" stroke-width="1.25" stroke-linecap="round" stroke-linejoin="round" stroke-opacity="0.5" d="
	M33.438,32.444l-1.836,1.71l-2.457,3.919l-1.355,2.16l-0.401,0.677l-0.019,0.031l-1.181,1.992l-0.677,1.141l-0.101,0.168
	l-0.015,0.042l-0.046,0.131l-0.67,1.908l-1.58,4.507"/>
<path fill="#2AAAE2" stroke="#2E368F" stroke-width="1.25" stroke-linecap="round" stroke-linejoin="round" stroke-opacity="0.5" d="
	M116.746,184.894l0.07-0.021l2.354-0.396l2.146-0.359l1.141-0.754l1.146-1.855l0.459-0.743"/>
<path fill="#2AAAE2" stroke="#2E368F" stroke-width="1.25" stroke-linecap="round" stroke-linejoin="round" stroke-opacity="0.5" d="
	M141.827,167.884l1.268-1.957l4.266-8.536l-0.613-2.316l-1.415-5.263"/>
<path fill="#2AAAE2" stroke="#2E368F" stroke-width="1.25" stroke-linecap="round" stroke-linejoin="round" stroke-opacity="0.5" d="
	M90.59,185.862l1.423,0.353l0.531,0.131l0.901,0.222l1.373,0.338l0.836,0.206"/>
<path fill="#2AAAE2" stroke="#2E368F" stroke-width="1.25" stroke-linecap="round" stroke-linejoin="round" stroke-opacity="0.5" d="
	M123.602,181.505l1.291-0.703"/>
<path fill="#2AAAE2" stroke="#2E368F" stroke-width="1.25" stroke-linecap="round" stroke-linejoin="round" stroke-opacity="0.5" d="
	M22.716,56.149l-1.27,4.981l-0.141,0.867"/>
<path fill="#2AAAE2" stroke="#2E368F" stroke-width="1.25" stroke-linecap="round" stroke-linejoin="round" stroke-opacity="0.5" d="
	M33.517,32.33l-2.582,0.177l-3.308,4.453l-6.438,4.299l-3.943,5.59l-3.474,4.786l-0.186,0.319l-2.895,5.008l-0.399,0.69l0.038,0.091
	l0.658,1.616l0.568,1.398l0.158,0.39l0.072,0.177l1.352,3.315"/>
<path fill="#2AAAE2" stroke="#2E368F" stroke-width="1.25" stroke-linecap="round" stroke-linejoin="round" stroke-opacity="0.5" d="
	M110.584,186.61l0.017,0.004l2.598-0.218l3.184-0.368l2.79-1.554"/>
<path fill="#2AAAE2" stroke="#2E368F" stroke-width="1.25" stroke-linecap="round" stroke-linejoin="round" stroke-opacity="0.5" d="
	M78.377,191.004l0.434,0.252l2.528,1.476l2.854-1.239l4.131-1.8l4.596-1.697l0.391-0.225l0.894-0.513l0.616-0.354"/>
<path fill="#2AAAE2" stroke="#2E368F" stroke-width="1.25" stroke-linecap="round" stroke-linejoin="round" stroke-opacity="0.5" d="
	M70.938,189.564l1.156,0.397l2.359,0.808l0.891,0.055l3.031,0.181l0.35,0.021l2.105-0.393l0.223-0.042l0.141-0.026l3.46-0.645
	l5.044-2.458l2.846-1.116"/>
<path fill="#2AAAE2" stroke="#2E368F" stroke-width="1.25" stroke-linecap="round" stroke-linejoin="round" stroke-opacity="0.5" d="
	M11.56,60.757l-0.198,3.373L11.251,66l-0.163,5.242l0.393,1.131"/>
<path fill="#2AAAE2" stroke="#2E368F" stroke-width="1.25" stroke-linecap="round" stroke-linejoin="round" stroke-opacity="0.5" d="
	M49.268,180.256l6.563,3.914l6.633,1.912"/>
<path fill="#2AAAE2" stroke="#2E368F" stroke-width="1.25" stroke-linecap="round" stroke-linejoin="round" stroke-opacity="0.5" d="
	M59.686,186.999l4.493,0.413l1.57-0.247l0.274-0.043l0.107,0.054l0.03,0.016l3.274,1.652l0.481,0.243l0.113,0.058l0.611-0.212
	l0.635,0.201l0.391,0.124l1.604,0.507l0.778,0.246l0.911,0.289"/>
<path fill="#2AAAE2" stroke="#2E368F" stroke-width="1.25" stroke-linecap="round" stroke-linejoin="round" stroke-opacity="0.5" d="
	M84.192,191.491l3.835,0.067l4.592-2.333l2.038-0.481l0.998-0.37l2.741-1.019"/>
<path fill="#2AAAE2" stroke="#2E368F" stroke-width="1.25" stroke-linecap="round" stroke-linejoin="round" stroke-opacity="0.5" d="
	M9.701,75.198L10.264,80l0.241,1.287l1.6,5.346l0.648,6.299l1.569,7.654l5.21,7.69"/>
<path fill="#2AAAE2" stroke="#2E368F" stroke-width="1.25" stroke-linecap="round" stroke-linejoin="round" stroke-opacity="0.5" d="
	M19.16,135.913l4.37,8.043l7.999,6.578"/>
<path fill="#2AAAE2" stroke="#2E368F" stroke-width="1.25" stroke-linecap="round" stroke-linejoin="round" stroke-opacity="0.5" d="
	M63.218,189.335l4.768,0.164l1.935-0.412"/>
<path fill="#2AAAE2" stroke="#2E368F" stroke-width="1.25" stroke-linecap="round" stroke-linejoin="round" stroke-opacity="0.5" d="
	M95.655,188.374l0.383,0.098l2.374-1.114"/>
<path fill="#2AAAE2" stroke="#2E368F" stroke-width="1.25" stroke-linecap="round" stroke-linejoin="round" stroke-opacity="0.5" d="
	M75.345,190.823l1.604,1.008l1.861-0.575"/>
<path fill="#2AAAE2" stroke="#2E368F" stroke-width="1.25" stroke-linecap="round" stroke-linejoin="round" stroke-opacity="0.5" d="
	M10.99,59.359l-0.522,4.036l-1.071,5.716l-0.412,1.724"/>
<path fill="#2AAAE2" stroke="#2E368F" stroke-width="1.25" stroke-linecap="round" stroke-linejoin="round" stroke-opacity="0.5" d="
	M51.74,189.895l3.752,0.615l6.305,0.339l2.142,0.202l2.881,0.271l2.797-0.522l2.479-0.838"/>
<path fill="#2AAAE2" stroke="#2E368F" stroke-width="1.25" stroke-linecap="round" stroke-linejoin="round" stroke-opacity="0.5" d="
	M16.226,135.896l4.104,7.305l1.999,7.293l4.856,5.658"/>
<path fill="#2AAAE2" stroke="#2E368F" stroke-width="1.25" stroke-linecap="round" stroke-linejoin="round" stroke-opacity="0.5" d="
	M8.229,69.338l-1.236,1.535L6.544,71.43l-0.612,0.764l2.142,5.673"/>
<path fill="#2AAAE2" stroke="#2E368F" stroke-width="1.25" stroke-linecap="round" stroke-linejoin="round" stroke-opacity="0.5" d="
	M13.588,51.954l-0.138,0.144l-1.641,2.454l-1.116,2.41"/>
<path fill="#2AAAE2" stroke="#2E368F" stroke-width="1.25" stroke-linecap="round" stroke-linejoin="round" stroke-opacity="0.5" d="
	M30.657,180.101l2.198,1.621l3.487,2.34"/>
<path fill="#2AAAE2" stroke="#2E368F" stroke-width="1.25" stroke-linecap="round" stroke-linejoin="round" stroke-opacity="0.5" d="
	M5.692,79.064l0.342,5.183l0.922,5.191l-0.438,6.786"/>
<path fill="#2AAAE2" stroke="#2E368F" stroke-width="1.25" stroke-linecap="round" stroke-linejoin="round" stroke-opacity="0.5" d="
	M6.945,68.265l-0.527,2.426l0.126,0.739"/>
<path fill="#2AAAE2" stroke="#2E368F" stroke-width="1.25" stroke-linecap="round" stroke-linejoin="round" stroke-opacity="0.5" d="
	M5.126,90.771l-1.398,6.588l-0.219,8.715l0.545,8.942"/>
<path fill="#2AAAE2" stroke="#2E368F" stroke-width="1.25" stroke-linecap="round" stroke-linejoin="round" stroke-opacity="0.5" d="
	M30.773,185.58l3.178,1.539l3.257,1.483"/>
<path fill="#2AAAE2" stroke="#2E368F" stroke-width="1.25" stroke-linecap="round" stroke-linejoin="round" stroke-opacity="0.5" d="
	M10.332,57.743l-0.091,0.195l-3.22,7.084l-1.437,4.962l-0.367,2.709l-0.576,4.636l-0.08,0.645"/>
<path fill="#2AAAE2" stroke="#2E368F" stroke-width="1.25" stroke-linecap="round" stroke-linejoin="round" stroke-opacity="0.5" d="
	M59.675,191.586l1.945,0.288l2.317-0.823"/>
<path fill="#2AAAE2" stroke="#2E368F" stroke-width="1.25" stroke-linecap="round" stroke-linejoin="round" stroke-opacity="0.5" d="
	M4.642,77.329l-1.697,6.698l0.03,1.865l0.079,4.83"/>
<path fill="#2AAAE2" stroke="#2E368F" stroke-width="1.25" stroke-linecap="round" stroke-linejoin="round" stroke-opacity="0.5" d="
	M8.25,132.614l0.544,5.313l3.073,7.038l0.58,7.521l0.872,7.347l3.058,6.281l2.39,6.36l4.471,8.015l1.507,2.073l1.58,2.448
	l8.369,8.188l5.304-0.222l3.273-0.136l2.554,0.113l0.655,0.027l3.944,0.176l0.574-0.013l2.743-0.05l3.529-1.126l2.403-0.386
	l1.896-0.305"/>
<path fill="#2AAAE2" stroke="#2E368F" stroke-width="1.25" stroke-linecap="round" stroke-linejoin="round" stroke-opacity="0.5" d="
	M42.682,194.251l3.798-1.268"/>
<path fill="#2AAAE2" stroke="#2E368F" stroke-width="1.25" stroke-linecap="round" stroke-linejoin="round" stroke-opacity="0.5" d="
	M2.975,85.892l-0.57,4.08l0.557,7.016l0.103,7.96l-2.438,10.68l2.155,7.962l4.266,6.76l1.204,2.265l2.512,4.724l5.668,6.059"/>
<path fill="#2AAAE2" stroke="#2E368F" stroke-width="1.25" stroke-linecap="round" stroke-linejoin="round" stroke-opacity="0.5" d="
	M39.996,192.979l2.687,1.272l3.9-0.436l4.239-0.572l0.176-0.097"/>
</svg>
