<?xml version="1.0" encoding="utf-8"?>
<!-- Generator: Adobe Illustrator 16.0.0, SVG Export Plug-In . SVG Version: 6.00 Build 0)  -->
<!DOCTYPE svg PUBLIC "-//W3C//DTD SVG 1.1//EN" "http://www.w3.org/Graphics/SVG/1.1/DTD/svg11.dtd">
<svg version="1.1" id="Layer_1" xmlns="http://www.w3.org/2000/svg" xmlns:xlink="http://www.w3.org/1999/xlink" x="0px" y="0px"
	 width="161.885px" height="163.579px" viewBox="0 0 161.885 163.579" enable-background="new 0 0 161.885 163.579"
	 xml:space="preserve">
<path fill="#2AAAE2" stroke="#2E368F" stroke-miterlimit="10" d="M54.98,160.608l4.987-0.515l3.806,0.788l2.789,1.097l7.225-0.019
	l6.79-0.717l6.509-0.81l3.974-0.06l5.871,2.578l8.253-3.078l7.098-3.73l7.353-4.678l8.245-5.415l4.404-5.83l5.291-5.5l6.402-5.494
	l7.799-7.138l0.144-0.127l2.871-1.735l1.648-1.356l1.028-1.838l2.639-2.346l0.874-1.504l-0.375-3.416l0.656-6.469l-1.163-8.93
	l-3.389-8.17l-0.08-0.299l-0.489-5.74l-0.009-0.878l-0.104-0.442l-2.756-7.989l-1.957-4.416l0.178-1.043l-1.174-1.053l-3.736-4.962
	l-0.066-0.69l-1.004-0.854l-1.527-5.036l-2.786-3.079l-0.141-1.293l-2.376-2.161l-4.326-4.852l-4.996-4.67l-3.646-0.867
	l-0.911-0.455l-1.163-2.29l-1.748-4.328l-5.756-4.251l-4.604-4.238l-5.123-4.177l-1.52-1.008l-6.207-1.724l-0.723-0.439
	l-3.357-3.458l-7.004-5.324l-7.7-3.559L69.71,2.567l-2.284,2.178l-1.292-0.354l-7.722,1.138l-8.565,3.034l-3.019,2.333l-0.436,0.12
	l-0.134,0.319l-4.36,3.369l-5.248,4.753l-3.135,6.217l-1.238,2.627l-0.814,0.581l-1.142,2.279l-2.164,1.818l-1.288,1.654
	l-0.16,0.096l-4.61,4.313l-4.44,4.257l-6.467,4.187l-3.085,9.28l-1.186,2.332l-2.559,3.635l-0.374,2.13l0.193,1.406L3.965,70.49
	l-0.006,0.536l-1.61,2.982l-0.132,1.551l-1.59,5.465l1.303,6.014l0.125,2.886l2.407,3.351l0.729,2.032l0.15,0.884l-1.204,6.057
	l2.889,5.486l0.149,1.222l1.651,5.995l2.143,6.399l4.561,5.513l0.543,0.34l1.018,2.494l4.787,2.334l4.677,4.579l2.81,6.095
	l5.135,6.057l5.342,2.045l2.052,3.307l7.361,4.588l2.139,0.349l1.98,0.194L54.98,160.608z"/>
<path fill="#2AAAE2" stroke="#2E368F" stroke-width="1.25" stroke-linecap="round" stroke-linejoin="round" stroke-opacity="0.5" d="
	M151.078,79.386l-2.21-2.496l-3.565-7.723l-0.383-4.793l-0.956-3.999"/>
<path fill="#2AAAE2" stroke="#2E368F" stroke-width="1.25" stroke-linecap="round" stroke-linejoin="round" stroke-opacity="0.5" d="
	M153.431,96.237l-0.378-2.556l-0.249-1.264l-0.831-4.222l-0.359-1.832"/>
<path fill="#2AAAE2" stroke="#2E368F" stroke-width="1.25" stroke-linecap="round" stroke-linejoin="round" stroke-opacity="0.5" d="
	M146.643,64.602l-0.529-2.331l-0.096-0.415l-0.317-1.399l-0.074-0.331l-0.005-0.019l-1.617-2.882l-1.115-1.624l-1.252-1.824
	l-0.126-1.162l-0.059-0.547l-0.256-2.349l-0.141-1.293l-2.376-2.161l-4.326-4.852l-4.996-4.67l-3.646-0.867l-0.737-0.175
	l-0.036-0.008l-0.15-0.037l-0.114-0.027l-0.173-0.041l-0.393-0.093l-1.012-0.24"/>
<path fill="#2AAAE2" stroke="#2E368F" stroke-width="1.25" stroke-linecap="round" stroke-linejoin="round" stroke-opacity="0.5" d="
	M62.389,11.271l-1.912,0.292l-1.188,0.181L57,12.734l-5.606,2.422l-0.521,0.523l-1.103,1.105l-3.008,3.02l-1.626,1.544l-1.131,1.073
	l-0.032,0.031l-0.612,0.581l-1.805,1.714l-0.443,0.396l-0.181,0.161l-0.538,0.482l-3.335,2.98l-0.928,0.829l-0.058,0.051
	l-2.521,2.353l-0.282,0.264l-3.394,3.166l-0.881,1.348l-1.887,2.885l-0.347,0.531l-0.25,0.383l-1.053,1.611l-1.193,1.162
	l-1.793,1.747l-1.177,1.146l-2.888,2.815l-0.063,0.061"/>
<path fill="#2AAAE2" stroke="#2E368F" stroke-width="1.25" stroke-linecap="round" stroke-linejoin="round" stroke-opacity="0.5" d="
	M151.973,88.196l-0.142-6.162"/>
<path fill="#2AAAE2" stroke="#2E368F" stroke-width="1.25" stroke-linecap="round" stroke-linejoin="round" stroke-opacity="0.5" d="
	M103.675,149.472l4.442-1.466l0.889-0.116l1.058-0.138l0.247-0.032l0.005-0.001l2.948-0.383l4.853-3.058l4.949-4.517"/>
<path fill="#2AAAE2" stroke="#2E368F" stroke-width="1.25" stroke-linecap="round" stroke-linejoin="round" stroke-opacity="0.5" d="
	M125.71,35.876l-0.911-0.455l-0.166-0.084l-0.131-0.065l-0.003-0.002l-0.436-0.216l-1.628-0.815"/>
<path fill="#2AAAE2" stroke="#2E368F" stroke-width="1.25" stroke-linecap="round" stroke-linejoin="round" stroke-opacity="0.5" d="
	M154.166,98.203l-1.362-5.785"/>
<path fill="#2AAAE2" stroke="#2E368F" stroke-width="1.25" stroke-linecap="round" stroke-linejoin="round" stroke-opacity="0.5" d="
	M122.499,141.656l0.006-0.006l2.16-1.525l0.881-0.622l0.346-0.244l1.488-1.051l1.918-1.355l0.717-0.677l2.939-2.776l0.012-0.011
	l0.021-0.02l0.574-0.543l1.383-1.306"/>
<path fill="#2AAAE2" stroke="#2E368F" stroke-width="1.25" stroke-linecap="round" stroke-linejoin="round" stroke-opacity="0.5" d="
	M124.633,35.337l-0.184-0.196l-0.021-0.022l-2.279-2.433l-3.518-3.371l-4.555-4.924l-4.68-5.126"/>
<path fill="#2AAAE2" stroke="#2E368F" stroke-width="1.25" stroke-linecap="round" stroke-linejoin="round" stroke-opacity="0.5" d="
	M152.854,76.663l-0.106-0.369l-0.005-0.012l-0.282-0.963l-0.413-1.405l-1.266-4.307l-0.012-0.036l-0.397-1.058l-0.304-0.799
	l-0.216-0.571l-0.128-0.339l-0.802-2.124l-0.068-0.179l-0.011-0.028l-0.068-0.181l-0.147-0.132l-0.022-0.019l-0.287-0.255
	l-1.408-1.244l-0.02-0.016l-0.871-0.77"/>
<path fill="#2AAAE2" stroke="#2E368F" stroke-width="1.25" stroke-linecap="round" stroke-linejoin="round" stroke-opacity="0.5" d="
	M97.956,12.966l-3.357-3.458l-7.004-5.324l-7.7-3.559L69.707,2.568l-2.284,2.178L65.081,6.98l-0.182,0.171l-0.291,0.278
	l-4.836,2.117l-0.974,1.118l-0.301,0.346l-1.5,1.724"/>
<path fill="#2AAAE2" stroke="#2E368F" stroke-width="1.25" stroke-linecap="round" stroke-linejoin="round" stroke-opacity="0.5" d="
	M50.872,15.679l-3.378,0.664l-3.479,5.662l-0.116,0.19l-0.05,0.081l-0.067,0.107l-0.087,0.133l-0.334,0.517"/>
<path fill="#2AAAE2" stroke="#2E368F" stroke-width="1.25" stroke-linecap="round" stroke-linejoin="round" stroke-opacity="0.5" d="
	M28.042,112.743l0.414,0.523l0.638,0.807l2.482,3.139l3.908,4.961l2.933,6.221"/>
<path fill="#2AAAE2" stroke="#2E368F" stroke-width="1.25" stroke-linecap="round" stroke-linejoin="round" stroke-opacity="0.5" d="
	M132.979,133.381l2.774-1.554l1.021-0.572l2.044-1.145l0.233-0.131l0.947-0.531l1.15-0.645l0.452-0.462l0.041-0.042l0.214-0.218
	l2.21-2.257l3.083-3.147"/>
<path fill="#2AAAE2" stroke="#2E368F" stroke-width="1.25" stroke-linecap="round" stroke-linejoin="round" stroke-opacity="0.5" d="
	M112.432,21.963l-4.308-4.355l-1.72-1.471l-5.268-1.238l-2.459-1.494l-0.723-0.439l-2.874-1.746"/>
<path fill="#2AAAE2" stroke="#2E368F" stroke-width="1.25" stroke-linecap="round" stroke-linejoin="round" stroke-opacity="0.5" d="
	M132.954,133.399l0.024-0.019l0.201-0.148l0.816-0.602"/>
<path fill="#2AAAE2" stroke="#2E368F" stroke-width="1.25" stroke-linecap="round" stroke-linejoin="round" stroke-opacity="0.5" d="
	M141.971,128.088l2.627-1.702l4.59-2.773l2.729-1.649l2.871-1.735l1.648-1.356l1.028-1.839l0.126-0.225l-0.16-1.642l-0.005-0.046
	l-0.094-0.957l-0.059-0.582l-0.729-7.473"/>
<path fill="#2AAAE2" stroke="#2E368F" stroke-width="1.25" stroke-linecap="round" stroke-linejoin="round" stroke-opacity="0.5" d="
	M159.159,108.552l-2.108-8.881"/>
<path fill="#2AAAE2" stroke="#2E368F" stroke-width="1.25" stroke-linecap="round" stroke-linejoin="round" stroke-opacity="0.5" d="
	M107.107,150.674l2.62-2.589l0.001-0.002l0.335-0.331"/>
<path fill="#2AAAE2" stroke="#2E368F" stroke-width="1.25" stroke-linecap="round" stroke-linejoin="round" stroke-opacity="0.5" d="
	M157.432,115.166l2.235-4.28l-0.509-2.334l-0.02,0.074l-1.257,4.765l-0.456,1.729"/>
<path fill="#2AAAE2" stroke="#2E368F" stroke-width="1.25" stroke-linecap="round" stroke-linejoin="round" stroke-opacity="0.5" d="
	M23.874,109.455l4.192,3.793l1.026,0.825"/>
<path fill="#2AAAE2" stroke="#2E368F" stroke-width="1.25" stroke-linecap="round" stroke-linejoin="round" stroke-opacity="0.5" d="
	M45.606,130.616l4.349,5.371l4.835,5.033l5.345,5.438l4.959,5.47"/>
<path fill="#2AAAE2" stroke="#2E368F" stroke-width="1.25" stroke-linecap="round" stroke-linejoin="round" stroke-opacity="0.5" d="
	M121.856,142.717l2.81-2.592"/>
<path fill="#2AAAE2" stroke="#2E368F" stroke-width="1.25" stroke-linecap="round" stroke-linejoin="round" stroke-opacity="0.5" d="
	M150.068,67.714l-0.16-1.264l-0.031-0.253l-0.022-0.18l-0.198-1.57"/>
<path fill="#2AAAE2" stroke="#2E368F" stroke-width="1.25" stroke-linecap="round" stroke-linejoin="round" stroke-opacity="0.5" d="
	M106.404,16.137l-1.519-1.008l-6.207-1.724"/>
<path fill="#2AAAE2" stroke="#2E368F" stroke-width="1.25" stroke-linecap="round" stroke-linejoin="round" stroke-opacity="0.5" d="
	M109.728,148.085l0.588-0.366"/>
<path fill="#2AAAE2" stroke="#2E368F" stroke-width="1.25" stroke-linecap="round" stroke-linejoin="round" stroke-opacity="0.5" d="
	M34.875,122.728l3.074,5.805l4.452,4.369"/>
<path fill="#2AAAE2" stroke="#2E368F" stroke-width="1.25" stroke-linecap="round" stroke-linejoin="round" stroke-opacity="0.5" d="
	M157.466,117.032l2.639-2.344l0.874-1.504l-0.375-3.416l-0.969-8.824l-2.959-7.898l-1.261-8.785l-2.067-6.628l-0.274-0.786
	l-0.334-0.957l-0.692-1.976"/>
<path fill="#2AAAE2" stroke="#2E368F" stroke-width="1.25" stroke-linecap="round" stroke-linejoin="round" stroke-opacity="0.5" d="
	M153.871,78.212l-1.134-2.322"/>
<path fill="#2AAAE2" stroke="#2E368F" stroke-width="1.25" stroke-linecap="round" stroke-linejoin="round" stroke-opacity="0.5" d="
	M141.603,128.342l0.368-0.254l3.63-2.504"/>
<path fill="#2AAAE2" stroke="#2E368F" stroke-width="1.25" stroke-linecap="round" stroke-linejoin="round" stroke-opacity="0.5" d="
	M124.799,35.421l-1.163-2.29l-1.637-3.225"/>
<path fill="#2AAAE2" stroke="#2E368F" stroke-width="1.25" stroke-linecap="round" stroke-linejoin="round" stroke-opacity="0.5" d="
	M156.025,78.841l-2.755-7.989l-1.957-4.416l-0.831-1.875l-0.166-0.221l-3.735-4.962l-0.206-0.274l-0.811-1.088l-0.271-0.368
	l-2.551-3.434"/>
<path fill="#2AAAE2" stroke="#2E368F" stroke-width="1.25" stroke-linecap="round" stroke-linejoin="round" stroke-opacity="0.5" d="
	M18.41,49.057l-1.072,0.927l-0.25,0.217l-0.979,1.255l-2.865,3.689l-0.209,0.268l-0.84,1.08l-2.28,5.466L9.639,62.62l-0.342,0.819
	l-2.333,8.696"/>
<path fill="#2AAAE2" stroke="#2E368F" stroke-width="1.25" stroke-linecap="round" stroke-linejoin="round" stroke-opacity="0.5" d="
	M44.932,19.645l-2.423,2.562l-1.873,1.98l-1.299,1.664l-0.953,1.22l-0.745,0.954l-0.579,0.741"/>
<path fill="#2AAAE2" stroke="#2E368F" stroke-width="1.25" stroke-linecap="round" stroke-linejoin="round" stroke-opacity="0.5" d="
	M123.636,33.131l-1.748-4.328l-5.756-4.251l-4.604-4.238l-5.123-4.177"/>
<path fill="#2AAAE2" stroke="#2E368F" stroke-width="1.25" stroke-linecap="round" stroke-linejoin="round" stroke-opacity="0.5" d="
	M7.477,72.053l-0.258,8.653l0.998,6.867"/>
<path fill="#2AAAE2" stroke="#2E368F" stroke-width="1.25" stroke-linecap="round" stroke-linejoin="round" stroke-opacity="0.5" d="
	M145.564,58.016l-0.055-0.182l-1.527-5.036l-2.787-3.079"/>
<path fill="#2AAAE2" stroke="#2E368F" stroke-width="1.25" stroke-linecap="round" stroke-linejoin="round" stroke-opacity="0.5" d="
	M132.253,134.985l2.83-2.033l1.165-0.838l1.137-0.817l1.588-1.14l1.026-0.709"/>
<path fill="#2AAAE2" stroke="#2E368F" stroke-width="1.25" stroke-linecap="round" stroke-linejoin="round" stroke-opacity="0.5" d="
	M126.797,141.34l3.005-3.5l1.724-2.008l0.729-0.847l0.063-0.075l0.052-0.06"/>
<path fill="#2AAAE2" stroke="#2E368F" stroke-width="1.25" stroke-linecap="round" stroke-linejoin="round" stroke-opacity="0.5" d="
	M114.463,149.638l8.083-4.307l3.346-6.072"/>
<path fill="#2AAAE2" stroke="#2E368F" stroke-width="1.25" stroke-linecap="round" stroke-linejoin="round" stroke-opacity="0.5" d="
	M65.08,6.98l-3.11,0.623l-7.151,1.085l-7.994,2.21l-0.435,0.12l-0.134,0.319l-0.913,2.184l-2.128,4.839l-0.024,0.056l-1.122,2.553"
	/>
<path fill="#2AAAE2" stroke="#2E368F" stroke-width="1.25" stroke-linecap="round" stroke-linejoin="round" stroke-opacity="0.5" d="
	M160.604,109.769l0.656-6.47l-1.163-8.929l-3.389-8.172l-0.08-0.299l-0.447-1.681l-0.042-0.161l-1.446-5.437"/>
<path fill="#2AAAE2" stroke="#2E368F" stroke-width="1.25" stroke-linecap="round" stroke-linejoin="round" stroke-opacity="0.5" d="
	M33.271,32.263l-3.33,2.306l-0.067,0.048l-2.522,3.809l-1.006,1.521l-0.272,0.413l-0.491,0.574l-0.714,0.833l-1.582,1.851
	l-0.477,0.555l-1.948,2.278l-0.048,0.054"/>
<path fill="#2AAAE2" stroke="#2E368F" stroke-width="1.25" stroke-linecap="round" stroke-linejoin="round" stroke-opacity="0.5" d="
	M63.465,153.952l7.752,2.522l0.107,0.034l0.018,0.007l1.556,0.542l0.677,0.236l4.42,1.541l0.918,0.101l6.298,0.698l1.724,0.335
	l0.892,0.045l2.727,0.137l1.33,0.067l1.472-0.134l4.841-0.438l1.906,0.103l1.028,0.055l1.709,0.091l5.743-3.207l6.783-2.793
	l5.16-6.011"/>
<path fill="#2AAAE2" stroke="#2E368F" stroke-width="1.25" stroke-linecap="round" stroke-linejoin="round" stroke-opacity="0.5" d="
	M132.07,138.001l0.845-1.064l1.375-1.732l0.288-0.364l2.808-3.542"/>
<path fill="#2AAAE2" stroke="#2E368F" stroke-width="1.25" stroke-linecap="round" stroke-linejoin="round" stroke-opacity="0.5" d="
	M42.886,20.179l-0.735,0.71l-0.082,0.08l-3.173,3.065l-1.555,1.503l-0.278,0.268L36.1,26.793l-3.084,3.167l-0.544,0.558
	l-0.755,1.188l-0.257,0.406"/>
<path fill="#2AAAE2" stroke="#2E368F" stroke-width="1.25" stroke-linecap="round" stroke-linejoin="round" stroke-opacity="0.5" d="
	M67.422,4.746L66.13,4.392L58.408,5.53l-8.565,3.034l-3.019,2.333"/>
<path fill="#2AAAE2" stroke="#2E368F" stroke-width="1.25" stroke-linecap="round" stroke-linejoin="round" stroke-opacity="0.5" d="
	M156.139,80.161l-0.009-0.878l-0.104-0.442L156.139,80.161l0.489,5.739"/>
<path fill="#2AAAE2" stroke="#2E368F" stroke-width="1.25" stroke-linecap="round" stroke-linejoin="round" stroke-opacity="0.5" d="
	M69.222,156.215l2.12,0.302"/>
<path fill="#2AAAE2" stroke="#2E368F" stroke-width="1.25" stroke-linecap="round" stroke-linejoin="round" stroke-opacity="0.5" d="
	M36.712,136.876l5.472,4.262"/>
<path fill="#2AAAE2" stroke="#2E368F" stroke-width="1.25" stroke-linecap="round" stroke-linejoin="round" stroke-opacity="0.5" d="
	M22.808,44.173l-0.401,0.226l-1.246,0.704l-0.01,0.005L19.34,46.13l-0.328,0.184l-0.776,0.856l-5.005,5.521l-1.228,2.164"/>
<path fill="#2AAAE2" stroke="#2E368F" stroke-width="1.25" stroke-linecap="round" stroke-linejoin="round" stroke-opacity="0.5" d="
	M46.256,11.337l-4.36,3.369l-5.248,4.753l-3.135,6.217l-1.238,2.627l-0.95,2.015l-0.678,1.437l-0.393,0.835l-0.162,0.342"/>
<path fill="#2AAAE2" stroke="#2E368F" stroke-width="1.25" stroke-linecap="round" stroke-linejoin="round" stroke-opacity="0.5" d="
	M151.313,66.436l0.177-1.043l-1.174-1.053"/>
<path fill="#2AAAE2" stroke="#2E368F" stroke-width="1.25" stroke-linecap="round" stroke-linejoin="round" stroke-opacity="0.5" d="
	M14.529,52.108l-2.525,2.747l-1.165,1.267L10.82,56.14l-1.483,1.614l-0.312,0.935l-1.494,4.506l-0.488,1.474L6.49,66.335
	l-1.656,3.067l-0.18,0.33l-0.697,1.296l-1.61,2.982l-0.132,1.551"/>
<path fill="#2AAAE2" stroke="#2E368F" stroke-width="1.25" stroke-linecap="round" stroke-linejoin="round" stroke-opacity="0.5" d="
	M25.579,40.934l-2.475,2.054l-1.955,2.12"/>
<path fill="#2AAAE2" stroke="#2E368F" stroke-width="1.25" stroke-linecap="round" stroke-linejoin="round" stroke-opacity="0.5" d="
	M17.705,126.396l4.412,4.607l0.852,0.891l4.199,2.492l1.856,1.104l1.543,0.981l3.168,2.021"/>
<path fill="#2AAAE2" stroke="#2E368F" stroke-width="1.25" stroke-linecap="round" stroke-linejoin="round" stroke-opacity="0.5" d="
	M90.55,160.151l0.509,0.225l5.871,2.578l8.253-3.078l7.098-3.73l7.353-4.678l8.245-5.415l4.404-5.83l5.291-5.5l6.402-5.493
	l7.8-7.139l0.143-0.127"/>
<path fill="#2AAAE2" stroke="#2E368F" stroke-width="1.25" stroke-linecap="round" stroke-linejoin="round" stroke-opacity="0.5" d="
	M2.865,88.842l0.563,1.567l0.73,2.033l0.3,0.834l0.729,2.033l0.15,0.883l0.97,5.696l0.715,5.847l0.149,1.222l1.651,5.995l2.143,6.4
	l4.561,5.512l0.543,0.341l6.047,3.798"/>
<path fill="#2AAAE2" stroke="#2E368F" stroke-width="1.25" stroke-linecap="round" stroke-linejoin="round" stroke-opacity="0.5" d="
	M2.947,73.044l-0.732,2.517l-1.59,5.465l1.303,6.014l0.427,1.973l1.807,3.43"/>
<path fill="#2AAAE2" stroke="#2E368F" stroke-width="1.25" stroke-linecap="round" stroke-linejoin="round" stroke-opacity="0.5" d="
	M70.713,159.78l-5.129-0.269l0.429-0.087l1.947-0.394l5.614-1.737"/>
<path fill="#2AAAE2" stroke="#2E368F" stroke-width="1.25" stroke-linecap="round" stroke-linejoin="round" stroke-opacity="0.5" d="
	M146.58,59.378l-0.066-0.69l-1.004-0.854"/>
<path fill="#2AAAE2" stroke="#2E368F" stroke-width="1.25" stroke-linecap="round" stroke-linejoin="round" stroke-opacity="0.5" d="
	M97.523,160.429l1.438,0.109l2.166-0.734"/>
<path fill="#2AAAE2" stroke="#2E368F" stroke-width="1.25" stroke-linecap="round" stroke-linejoin="round" stroke-opacity="0.5" d="
	M54.98,160.608l4.987-0.515l1.427-0.146l0.171-0.02l4.02-0.415"/>
<path fill="#2AAAE2" stroke="#2E368F" stroke-width="1.25" stroke-linecap="round" stroke-linejoin="round" stroke-opacity="0.5" d="
	M31.324,30.318l-1.007,0.845l-2.163,1.818l-1.289,1.654l-3.23,4.141"/>
<path fill="#2AAAE2" stroke="#2E368F" stroke-width="1.25" stroke-linecap="round" stroke-linejoin="round" stroke-opacity="0.5" d="
	M77.788,159.242l6.563,1.13l3.473-0.357"/>
<path fill="#2AAAE2" stroke="#2E368F" stroke-width="1.25" stroke-linecap="round" stroke-linejoin="round" stroke-opacity="0.5" d="
	M5.339,96.192l-1.204,6.057l2.889,5.486"/>
<path fill="#2AAAE2" stroke="#2E368F" stroke-width="1.25" stroke-linecap="round" stroke-linejoin="round" stroke-opacity="0.5" d="
	M37.93,147.737l1.906,3.068l2.052,3.307l7.361,4.588l2.139,0.349l1.98,0.194l1.611,1.364l-0.726-1.327l-0.021-0.04l-0.045-0.081
	l-0.179-0.326l-3.388-6.198l-3.89-7.152"/>
<path fill="#2AAAE2" stroke="#2E368F" stroke-width="1.25" stroke-linecap="round" stroke-linejoin="round" stroke-opacity="0.5" d="
	M1.927,87.04l0.125,2.886l2.407,3.351"/>
<path fill="#2AAAE2" stroke="#2E368F" stroke-width="1.25" stroke-linecap="round" stroke-linejoin="round" stroke-opacity="0.5" d="
	M12.507,46.952l-2.709,8.051l-1.761,2.504l-1.104,1.568l-0.017,0.024l-2.559,3.635"/>
<path fill="#2AAAE2" stroke="#2E368F" stroke-width="1.25" stroke-linecap="round" stroke-linejoin="round" stroke-opacity="0.5" d="
	M27.168,134.386l3.852,3.716l1.62,4.574"/>
<path fill="#2AAAE2" stroke="#2E368F" stroke-width="1.25" stroke-linecap="round" stroke-linejoin="round" stroke-opacity="0.5" d="
	M26.865,34.635l-0.16,0.096l-4.61,4.312l-4.44,4.257l-6.467,4.187l-3.085,9.28l-1.186,2.332"/>
<path fill="#2AAAE2" stroke="#2E368F" stroke-width="1.25" stroke-linecap="round" stroke-linejoin="round" stroke-opacity="0.5" d="
	M4.179,66.27l-0.193-1.406l0.374-2.13l-0.078,1.549l-0.013,0.234L4.179,66.27l-0.217,4.222l-0.006,0.536"/>
<path fill="#2AAAE2" stroke="#2E368F" stroke-width="1.25" stroke-linecap="round" stroke-linejoin="round" stroke-opacity="0.5" d="
	M61.395,159.946l2.379,0.936l2.789,1.097l7.225-0.019l6.79-0.717l6.509-0.81l3.974-0.06"/>
<path fill="#2AAAE2" stroke="#2E368F" stroke-width="1.25" stroke-linecap="round" stroke-linejoin="round" stroke-opacity="0.5" d="
	M16.07,127.205l1.018,2.493l4.787,2.334l4.677,4.58l2.81,6.094l5.135,6.057l5.342,2.045"/>
<path fill="#2AAAE2" stroke="#2E368F" stroke-width="1.25" stroke-linecap="round" stroke-linejoin="round" stroke-opacity="0.5" d="
	M32.274,28.303l-0.814,0.581l-1.142,2.279"/>
<path fill="#2AAAE2" stroke="#2E368F" stroke-width="1.25" stroke-linecap="round" stroke-linejoin="round" stroke-opacity="0.5" d="
	M59.968,160.094l3.806,0.788"/>
</svg>
