<?xml version="1.0" encoding="utf-8"?>
<!-- Generator: Adobe Illustrator 16.0.0, SVG Export Plug-In . SVG Version: 6.00 Build 0)  -->
<!DOCTYPE svg PUBLIC "-//W3C//DTD SVG 1.1//EN" "http://www.w3.org/Graphics/SVG/1.1/DTD/svg11.dtd">
<svg version="1.1" id="Layer_1" xmlns="http://www.w3.org/2000/svg" xmlns:xlink="http://www.w3.org/1999/xlink" x="0px" y="0px"
	 width="162.806px" height="139.956px" viewBox="0 0 162.806 139.956" enable-background="new 0 0 162.806 139.956"
	 xml:space="preserve">
<path fill="#2AAAE2" stroke="#2E368F" stroke-miterlimit="10" d="M151.596,79.052l2.753-4.203l0.173-0.192l0.046-0.14l2.338-3.569
	l2.861-8.872l-3.244-4.735l5.658-7.589l-2.621-4.991l-1.444-5.699l-9.844-3.75l-0.526-0.538l-0.312-3.386l-4.594-1.189l-5.679-4.105
	l-4.405-1.062l-5.59-1.88l-6.215-1.959l-2.559,0.488l-2.383-0.685l-1.86-1.856l-6.793-4.462l-8.004-6.648L90.488,5.07l-8.645,0.437
	l-2.931,0.586l-0.215-0.188l-7.872-4.463l-4.202,2.16l-2.185-0.73l-2.563-1.321l-7.595-0.926l-1.263,0.482l-6.611,4.158l-5.94,3.34
	l-7.141,2.474l-2.087,7.011l-4.492,2.776l-2.399,4.026l-3.828,1.914l-1.509,4.719l-0.41,0.474l-0.204,1.444l-0.038,0.119
	l-1.67,5.351l-6.763,2.978L7.2,49.83l-3.287,7.625l2.206,7.162l-0.026,0.104l-0.275,0.48l-0.886,0.256l0.293,0.776L2.918,70.25
	l0.813,3.415L0.623,77.4l1.818,7.487l0.366,0.486l-0.382,2.178l0.111,0.527l3.778,6.253l0.729,0.78l1.15,6.846l2.012,0.995
	l3.767,5.222l5.162,2.245l0.57,0.706l1.124,0.598l2.695,4.522l0.438,1.796l0.923,0.732l0.585,2.676l1.905,0.249l0.011,0.026
	l1.664,0.355l0.786,0.624l3.135,0.213l0.152,0.033l1.049,1.573l0.224,1.111l6.886,7.194l9.236-1.678l2.624,1.353l4.063,0.967
	l0.313,0.18l7.223,4.675l4.643-0.338l7.786-0.025l8.757,1.368l7.907-3.253l7.034-3.931l5.416-1.172l5.104-6.381l2.48-3.047
	l6.119-5.008l3.729-2.959l9.551-1.203l0.554-2.703l3.467-6.615l2.13-0.844l0.354-2.929l3.591-5.005l2.927-7.469l3.96-4.576
	l-0.104-1.73L151.596,79.052z"/>
<path fill="#2AAAE2" stroke="#2E368F" stroke-width="1.25" stroke-linecap="round" stroke-linejoin="round" stroke-opacity="0.5" d="
	M42.719,68.853l-6.487-0.104"/>
<path fill="#2AAAE2" stroke="#2E368F" stroke-width="1.25" stroke-linecap="round" stroke-linejoin="round" stroke-opacity="0.5" d="
	M81.182,20.154l-6.225,2.234l-5.285-1.423"/>
<path fill="#2AAAE2" stroke="#2E368F" stroke-width="1.25" stroke-linecap="round" stroke-linejoin="round" stroke-opacity="0.5" d="
	M105.848,21.429l-0.215-0.358l-0.168-0.28l-0.433-0.717l-0.749-1.248l-3.066-5.109l-4.283-1.472l-4.571-1.57"/>
<path fill="#2AAAE2" stroke="#2E368F" stroke-width="1.25" stroke-linecap="round" stroke-linejoin="round" stroke-opacity="0.5" d="
	M60.107,26.859l-3.007,0.529l-6.663,0.233l-1.996,0.65l-3.695,1.476l-3.69,3.091l-3.69,3.211l-2.293,2.57l-5.097,3.426"/>
<path fill="#2AAAE2" stroke="#2E368F" stroke-width="1.25" stroke-linecap="round" stroke-linejoin="round" stroke-opacity="0.5" d="
	M95.344,111.318l5.963-1.216l0.551-0.111l1.64-0.334l6.229-1.268l2.604-0.531l-0.857-5.408l-0.041-0.253l-0.714-4.493l-0.135-0.834
	l-0.338-2.132l-0.049-0.306l-0.014-0.09l-1.763-12.965"/>
<path fill="#2AAAE2" stroke="#2E368F" stroke-width="1.25" stroke-linecap="round" stroke-linejoin="round" stroke-opacity="0.5" d="
	M82.844,13.96l-8.558-1.708L70.435,18.6"/>
<path fill="#2AAAE2" stroke="#2E368F" stroke-width="1.25" stroke-linecap="round" stroke-linejoin="round" stroke-opacity="0.5" d="
	M21.681,76.577l0.334,0.695l6.235,4.984l2.974,1.971l0.31,0.205l3.267,2.168l2.932,2.455"/>
<path fill="#2AAAE2" stroke="#2E368F" stroke-width="1.25" stroke-linecap="round" stroke-linejoin="round" stroke-opacity="0.5" d="
	M92.703,112.89l2.642-1.571l-1.993,0.854l-6.405,2.746l-0.885,0.369"/>
<path fill="#2AAAE2" stroke="#2E368F" stroke-width="1.25" stroke-linecap="round" stroke-linejoin="round" stroke-opacity="0.5" d="
	M51.748,21.223l-0.645,0.076l-1.331,0.157l-0.626,0.074l-0.034,0.004l-1.617,0.191l-0.854,0.1l-0.063,0.008l-0.053,0.076
	l-0.112,0.16l-0.008,0.011l-0.274,0.392l-0.142,0.204l-0.137,0.197"/>
<path fill="#2AAAE2" stroke="#2E368F" stroke-width="1.25" stroke-linecap="round" stroke-linejoin="round" stroke-opacity="0.5" d="
	M70.402,19.035l-6.36-2.852L58.267,19.1l-4.766-0.868l-0.688-0.126l-1.463,1.612l-1.577,1.738"/>
<path fill="#2AAAE2" stroke="#2E368F" stroke-width="1.25" stroke-linecap="round" stroke-linejoin="round" stroke-opacity="0.5" d="
	M29.062,41.053l-1.619,2.301l-2.368,6.229l-1.193,6.214"/>
<path fill="#2AAAE2" stroke="#2E368F" stroke-width="1.25" stroke-linecap="round" stroke-linejoin="round" stroke-opacity="0.5" d="
	M110.246,94.738l0.983-1.312l0.651-0.869l3.387-4.52l6.52-9.96l2.352-5.28l-2.229-7.375l0.02-4.997l-2.259-4.551l0.326-5.898
	l-2.326-4.279"/>
<path fill="#2AAAE2" stroke="#2E368F" stroke-width="1.25" stroke-linecap="round" stroke-linejoin="round" stroke-opacity="0.5" d="
	M91.709,8.713l-4.83-0.168l-1.057-0.037l-0.305-0.01l-2.149-0.075l-1.454,0.3L81.249,8.86l-0.233,0.049l-0.036,0.007l-0.19,0.039
	L80.233,9.07l-0.939,0.194l-0.098,0.02l-0.549,0.113l-3.396,0.701l-5.883-1.25L68.814,8.73l-0.066-0.014l-0.074,0.045l-0.808,0.477
	l-4.929,2.917"/>
<path fill="#2AAAE2" stroke="#2E368F" stroke-width="1.25" stroke-linecap="round" stroke-linejoin="round" stroke-opacity="0.5" d="
	M121.715,41.458l3.447-6.748l0.066-0.131l-1.612-4.94l-1.096-1.883l-0.017-0.029l-0.793-1.364l-0.067-0.116l-0.349-0.599
	l-0.309-0.528l-0.156-0.269l-0.46-0.79l-1.265-2.176l-0.714-0.205l-2.383-0.685"/>
<path fill="#2AAAE2" stroke="#2E368F" stroke-width="1.25" stroke-linecap="round" stroke-linejoin="round" stroke-opacity="0.5" d="
	M21.967,82.728l1.236,0.738l8.329,0.967"/>
<path fill="#2AAAE2" stroke="#2E368F" stroke-width="1.25" stroke-linecap="round" stroke-linejoin="round" stroke-opacity="0.5" d="
	M46.405,22.08h-0.002l-1.698,0.115l-0.581,1.112l-0.895,1.713l-0.244,0.468l-0.213,0.406l-0.53,0.296l-1.051,0.588l-2.049,1.146"/>
<path fill="#2AAAE2" stroke="#2E368F" stroke-width="1.25" stroke-linecap="round" stroke-linejoin="round" stroke-opacity="0.5" d="
	M22.743,56.85l-4.649,1.259l-0.063,0.017l-2.958,0.801l-1.243,0.336l-5.415,1.466l2.225,2.476l0.43,0.479l0.246,0.274l0.837,0.933
	l1.823,2.03l0.281,0.314l0.421,0.469l0.047,0.052l0.167,0.187l0.531,0.593l1.87,2.084"/>
<path fill="#2AAAE2" stroke="#2E368F" stroke-width="1.25" stroke-linecap="round" stroke-linejoin="round" stroke-opacity="0.5" d="
	M26.379,85.501l3.45,5.73l4.006,5.135l5.74,3.37l1.177,1.399l0.205,0.243l2.836,3.37l3.866,1.355l0.443,0.154l1.307,0.459"/>
<path fill="#2AAAE2" stroke="#2E368F" stroke-width="1.25" stroke-linecap="round" stroke-linejoin="round" stroke-opacity="0.5" d="
	M123.617,29.639l2.123,5.285l0.74,1.841l-0.112-4.085"/>
<path fill="#2AAAE2" stroke="#2E368F" stroke-width="1.25" stroke-linecap="round" stroke-linejoin="round" stroke-opacity="0.5" d="
	M120.959,25.933l-1.389-1.386l-0.137-0.137l-0.079-0.078l-0.079-0.079l-2.306-2.302l-0.959-0.956l-1.86-1.856l-6.793-4.462
	l-8.004-6.648L90.489,5.07l-8.645,0.437l-2.931,0.586l-0.511,0.102l-0.049,0.01l-2.176,0.436L76.07,6.663l-0.122,0.024l-1.834,0.367
	"/>
<path fill="#2AAAE2" stroke="#2E368F" stroke-width="1.25" stroke-linecap="round" stroke-linejoin="round" stroke-opacity="0.5" d="
	M41.191,26.778l-3.889,0.834l-2.054,4.966"/>
<path fill="#2AAAE2" stroke="#2E368F" stroke-width="1.25" stroke-linecap="round" stroke-linejoin="round" stroke-opacity="0.5" d="
	M49.163,21.518l-0.051,0.016"/>
<path fill="#2AAAE2" stroke="#2E368F" stroke-width="1.25" stroke-linecap="round" stroke-linejoin="round" stroke-opacity="0.5" d="
	M44.124,23.307l-1.243,1.905l-0.295,0.451l-0.344,0.527"/>
<path fill="#2AAAE2" stroke="#2E368F" stroke-width="1.25" stroke-linecap="round" stroke-linejoin="round" stroke-opacity="0.5" d="
	M47.659,106.104l1.106,1.509l6.121,4.56"/>
<path fill="#2AAAE2" stroke="#2E368F" stroke-width="1.25" stroke-linecap="round" stroke-linejoin="round" stroke-opacity="0.5" d="
	M124.629,53.062l0.457-5.585l1.396-10.712"/>
<path fill="#2AAAE2" stroke="#2E368F" stroke-width="1.25" stroke-linecap="round" stroke-linejoin="round" stroke-opacity="0.5" d="
	M110.718,97.704l1.163-5.146"/>
<path fill="#2AAAE2" stroke="#2E368F" stroke-width="1.25" stroke-linecap="round" stroke-linejoin="round" stroke-opacity="0.5" d="
	M57.061,14.984l-4.65,2.667l-4.439,2.756l-1.328,1.418"/>
<path fill="#2AAAE2" stroke="#2E368F" stroke-width="1.25" stroke-linecap="round" stroke-linejoin="round" stroke-opacity="0.5" d="
	M91.082,123.947l2.376-1.808l6.581-9.996l1.818-2.152"/>
<path fill="#2AAAE2" stroke="#2E368F" stroke-width="1.25" stroke-linecap="round" stroke-linejoin="round" stroke-opacity="0.5" d="
	M14.723,67.756l0.033,0.399l0.273,3.369"/>
<path fill="#2AAAE2" stroke="#2E368F" stroke-width="1.25" stroke-linecap="round" stroke-linejoin="round" stroke-opacity="0.5" d="
	M18.188,57.862l-0.157,0.264"/>
<path fill="#2AAAE2" stroke="#2E368F" stroke-width="1.25" stroke-linecap="round" stroke-linejoin="round" stroke-opacity="0.5" d="
	M38.433,100.826l2.523,0.553"/>
<path fill="#2AAAE2" stroke="#2E368F" stroke-width="1.25" stroke-linecap="round" stroke-linejoin="round" stroke-opacity="0.5" d="
	M46.413,22.069l-0.01,0.011"/>
<path fill="#2AAAE2" stroke="#2E368F" stroke-width="1.25" stroke-linecap="round" stroke-linejoin="round" stroke-opacity="0.5" d="
	M129.909,44.348l-0.205-5.07l-2.95-8.892l-0.399-1.208l-0.185-0.138l-3.559-2.692l-0.113-0.086l-1.51-1.142"/>
<path fill="#2AAAE2" stroke="#2E368F" stroke-width="1.25" stroke-linecap="round" stroke-linejoin="round" stroke-opacity="0.5" d="
	M22.213,42.06l-0.045,0.103l-1.453,3.389l-0.995,3.422l-0.843,2.888"/>
<path fill="#2AAAE2" stroke="#2E368F" stroke-width="1.25" stroke-linecap="round" stroke-linejoin="round" stroke-opacity="0.5" d="
	M40.324,108.283l6.987,1.012l6.147,5.659l8.786-1.292"/>
<path fill="#2AAAE2" stroke="#2E368F" stroke-width="1.25" stroke-linecap="round" stroke-linejoin="round" stroke-opacity="0.5" d="
	M42.881,25.212l-2.904,1.602"/>
<path fill="#2AAAE2" stroke="#2E368F" stroke-width="1.25" stroke-linecap="round" stroke-linejoin="round" stroke-opacity="0.5" d="
	M121.065,83.388l9.631-6.463l-0.687-6.427"/>
<path fill="#2AAAE2" stroke="#2E368F" stroke-width="1.25" stroke-linecap="round" stroke-linejoin="round" stroke-opacity="0.5" d="
	M111.473,102.45l3.347-3.17"/>
<path fill="#2AAAE2" stroke="#2E368F" stroke-width="1.25" stroke-linecap="round" stroke-linejoin="round" stroke-opacity="0.5" d="
	M29.564,33.25l-3.173,3.828l-0.375,0.608"/>
<path fill="#2AAAE2" stroke="#2E368F" stroke-width="1.25" stroke-linecap="round" stroke-linejoin="round" stroke-opacity="0.5" d="
	M75.03,7.377l-1.37,0.298L68.813,8.73"/>
<path fill="#2AAAE2" stroke="#2E368F" stroke-width="1.25" stroke-linecap="round" stroke-linejoin="round" stroke-opacity="0.5" d="
	M53.483,114.968l7.726,0.043l7.199,3.17"/>
<path fill="#2AAAE2" stroke="#2E368F" stroke-width="1.25" stroke-linecap="round" stroke-linejoin="round" stroke-opacity="0.5" d="
	M13.974,66.921l-1.627,2.817l-1.222,2.11l-0.675,5.492l-0.044,0.356"/>
<path fill="#2AAAE2" stroke="#2E368F" stroke-width="1.25" stroke-linecap="round" stroke-linejoin="round" stroke-opacity="0.5" d="
	M68.672,8.761l-0.711,0.155l-6.317,2.428l-6.453,0.765"/>
<path fill="#2AAAE2" stroke="#2E368F" stroke-width="1.25" stroke-linecap="round" stroke-linejoin="round" stroke-opacity="0.5" d="
	M88.193,129.731l2.056-2.019l7.524-8.799l11.628-4.427l0.325-6.098"/>
<path fill="#2AAAE2" stroke="#2E368F" stroke-width="1.25" stroke-linecap="round" stroke-linejoin="round" stroke-opacity="0.5" d="
	M129.131,32.288l-1.125-2.968l-0.801-2.116l-0.146-0.391l-3.835-1.209l-0.184-0.057l-0.034-0.011l-2.174-0.685"/>
<path fill="#2AAAE2" stroke="#2E368F" stroke-width="1.25" stroke-linecap="round" stroke-linejoin="round" stroke-opacity="0.5" d="
	M9.193,73.616l-0.591,1.396L8.57,75.087L6.61,79.72l3.151,2.791l0.919,0.813l0.245,0.217l3.222,2.852"/>
<path fill="#2AAAE2" stroke="#2E368F" stroke-width="1.25" stroke-linecap="round" stroke-linejoin="round" stroke-opacity="0.5" d="
	M121.172,92.441l9.257-8.123l0.37-5.359"/>
<path fill="#2AAAE2" stroke="#2E368F" stroke-width="1.25" stroke-linecap="round" stroke-linejoin="round" stroke-opacity="0.5" d="
	M10.681,83.323l-0.009,0.754l-0.052,4.641l6.919,2.203l1.942,0.618l0.802,0.295l6.61,2.431l5.853,2.894l4.919,4.373"/>
<path fill="#2AAAE2" stroke="#2E368F" stroke-width="1.25" stroke-linecap="round" stroke-linejoin="round" stroke-opacity="0.5" d="
	M21.653,37.799l-2.624,4.524l0.584,5.874l-4.939,4.893l-0.358,1.57l-0.485,4.603"/>
<path fill="#2AAAE2" stroke="#2E368F" stroke-width="1.25" stroke-linecap="round" stroke-linejoin="round" stroke-opacity="0.5" d="
	M138.23,42.471l4.147-7.977l-5.618-3.014l-5.653-3.033l-2.569-2.05l-0.713-0.569l-0.021-0.017l-3.5-2.795l-3.931,1.045"/>
<path fill="#2AAAE2" stroke="#2E368F" stroke-width="1.25" stroke-linecap="round" stroke-linejoin="round" stroke-opacity="0.5" d="
	M64.875,126.267l6.963,3.271l10.377-1.135"/>
<path fill="#2AAAE2" stroke="#2E368F" stroke-width="1.25" stroke-linecap="round" stroke-linejoin="round" stroke-opacity="0.5" d="
	M54.239,11.077l-6.276,1.552l-5.93,2.914l-2.973,5.767l-3.541,4.078L30.82,26.71l-2.118,6.754"/>
<path fill="#2AAAE2" stroke="#2E368F" stroke-width="1.25" stroke-linecap="round" stroke-linejoin="round" stroke-opacity="0.5" d="
	M10.638,63.205l-1.198,0.95l-0.957,0.759"/>
<path fill="#2AAAE2" stroke="#2E368F" stroke-width="1.25" stroke-linecap="round" stroke-linejoin="round" stroke-opacity="0.5" d="
	M78.915,6.093L78.7,5.905l-7.872-4.463l-4.201,2.16L66.241,3.8l-0.116,0.06l-2.337,1.201"/>
<path fill="#2AAAE2" stroke="#2E368F" stroke-width="1.25" stroke-linecap="round" stroke-linejoin="round" stroke-opacity="0.5" d="
	M17.54,90.921l1.255,0.76l5.416,4.496"/>
<path fill="#2AAAE2" stroke="#2E368F" stroke-width="1.25" stroke-linecap="round" stroke-linejoin="round" stroke-opacity="0.5" d="
	M9.439,64.155l-3.155,0.912l-0.246,0.071l-0.219,0.063l-0.886,0.256l0.293,0.776l0.678,1.794l1.794,4.75l0.872,2.31"/>
<path fill="#2AAAE2" stroke="#2E368F" stroke-width="1.25" stroke-linecap="round" stroke-linejoin="round" stroke-opacity="0.5" d="
	M139.891,32.558l-5.237-2.958l-6.116-3.203"/>
<path fill="#2AAAE2" stroke="#2E368F" stroke-width="1.25" stroke-linecap="round" stroke-linejoin="round" stroke-opacity="0.5" d="
	M56.066,126.281l8.119,1.56l7.863,1.893"/>
<path fill="#2AAAE2" stroke="#2E368F" stroke-width="1.25" stroke-linecap="round" stroke-linejoin="round" stroke-opacity="0.5" d="
	M26.604,28.166l-5.784,2.851l-0.281,0.139l-0.079,0.381l-1.366,6.63"/>
<path fill="#2AAAE2" stroke="#2E368F" stroke-width="1.25" stroke-linecap="round" stroke-linejoin="round" stroke-opacity="0.5" d="
	M18.028,38.221l-0.813,2.013l-1.076,2.661l-3.283,5.835l0.923,7.739"/>
<path fill="#2AAAE2" stroke="#2E368F" stroke-width="1.25" stroke-linecap="round" stroke-linejoin="round" stroke-opacity="0.5" d="
	M146.617,82.679l0.302-1.388l0.58-2.668l-0.146-1.497"/>
<path fill="#2AAAE2" stroke="#2E368F" stroke-width="1.25" stroke-linecap="round" stroke-linejoin="round" stroke-opacity="0.5" d="
	M131.553,104.622l4.801-4.832l1.07-1.076l0.025-0.074l0.663-1.819l0.034-0.093l2.095-5.743l0.571-4.905"/>
<path fill="#2AAAE2" stroke="#2E368F" stroke-width="1.25" stroke-linecap="round" stroke-linejoin="round" stroke-opacity="0.5" d="
	M66.626,3.602l-2.185-0.73l-2.049-0.685"/>
<path fill="#2AAAE2" stroke="#2E368F" stroke-width="1.25" stroke-linecap="round" stroke-linejoin="round" stroke-opacity="0.5" d="
	M112.06,123.031l1.811-1.483l6.119-5.008l3.73-2.959l0.647-0.516l2.619-2.076l2.556-2.027l1.606-3.47l0.2-0.433l0.202-0.438
	l0.574-1.242"/>
<path fill="#2AAAE2" stroke="#2E368F" stroke-width="1.25" stroke-linecap="round" stroke-linejoin="round" stroke-opacity="0.5" d="
	M66.476,137.998l2.91-0.01l7.786-0.025l8.757,1.368l7.906-3.253l7.034-3.931l0.875-0.489l8.946-7.462l1.077-2.82l0.086-0.224
	l1.743-4.566"/>
<path fill="#2AAAE2" stroke="#2E368F" stroke-width="1.25" stroke-linecap="round" stroke-linejoin="round" stroke-opacity="0.5" d="
	M111.769,121.376l0.976-1.26"/>
<path fill="#2AAAE2" stroke="#2E368F" stroke-width="1.25" stroke-linecap="round" stroke-linejoin="round" stroke-opacity="0.5" d="
	M148.011,37.647l-0.065-0.711l-0.066-0.729l-0.134-1.434l-0.312-3.386l-4.594-1.189l-4.784-1.238"/>
<path fill="#2AAAE2" stroke="#2E368F" stroke-width="1.25" stroke-linecap="round" stroke-linejoin="round" stroke-opacity="0.5" d="
	M7.049,95.112l1.149,6.846l2.012,0.995l4.81,2.379l4.119,5.088l0.57,0.706l1.124,0.598l1.832,0.975l0.089,0.047l1.512,0.805
	l0.632,1.652l1.963,5.137l0.521,1.36l0.011,0.026l1.664,0.355l3.921,0.837l0.152,0.033l0.768,0.163l0.479,0.104l4.021,0.857
	l0.578,0.123l3.73,0.078l5.643,0.117"/>
<path fill="#2AAAE2" stroke="#2E368F" stroke-width="1.25" stroke-linecap="round" stroke-linejoin="round" stroke-opacity="0.5" d="
	M64.441,2.872l-2.563-1.321l-7.596-0.926l-1.263,0.482l-6.611,4.158l-5.94,3.34l-7.141,2.474l-2.087,7.011l-4.491,2.776l-2.4,4.026
	l-0.877,1.472l-4.46,5.161l-0.41,0.474l-0.204,1.444l-0.7,4.967l-4.702,3.839"/>
<path fill="#2AAAE2" stroke="#2E368F" stroke-width="1.25" stroke-linecap="round" stroke-linejoin="round" stroke-opacity="0.5" d="
	M155.536,58.663l0.986-1.323l5.658-7.589l-2.621-4.991l-1.444-5.699l-9.844-3.75l-0.526-0.538"/>
<path fill="#2AAAE2" stroke="#2E368F" stroke-width="1.25" stroke-linecap="round" stroke-linejoin="round" stroke-opacity="0.5" d="
	M133.823,109.675l3.467-6.615l0.605-1.154l1.879-2.618l3.591-5.005l2.927-7.469l3.96-4.576l-0.104-1.73l-0.157-2.609"/>
<path fill="#2AAAE2" stroke="#2E368F" stroke-width="1.25" stroke-linecap="round" stroke-linejoin="round" stroke-opacity="0.5" d="
	M6.656,63.743L6.33,64.311l-0.197,0.342l-0.037,0.068l-0.275,0.48"/>
<path fill="#2AAAE2" stroke="#2E368F" stroke-width="1.25" stroke-linecap="round" stroke-linejoin="round" stroke-opacity="0.5" d="
	M5.227,66.233L2.919,70.25l0.813,3.415l0.786,3.301"/>
<path fill="#2AAAE2" stroke="#2E368F" stroke-width="1.25" stroke-linecap="round" stroke-linejoin="round" stroke-opacity="0.5" d="
	M142.84,30.198l-5.679-4.105l-4.405-1.062l-2.188-0.527l-1.845-0.41"/>
<path fill="#2AAAE2" stroke="#2E368F" stroke-width="1.25" stroke-linecap="round" stroke-linejoin="round" stroke-opacity="0.5" d="
	M152.583,76.824l1.767-1.976l0.173-0.192l0.046-0.14l1.776-5.459"/>
<path fill="#2AAAE2" stroke="#2E368F" stroke-width="1.25" stroke-linecap="round" stroke-linejoin="round" stroke-opacity="0.5" d="
	M3.732,73.665L0.625,77.4l1.818,7.487l0.366,0.486l4.793,6.381l6.25,5.086"/>
<path fill="#2AAAE2" stroke="#2E368F" stroke-width="1.25" stroke-linecap="round" stroke-linejoin="round" stroke-opacity="0.5" d="
	M33.129,122.951l1.05,1.573l0.958,1.437"/>
<path fill="#2AAAE2" stroke="#2E368F" stroke-width="1.25" stroke-linecap="round" stroke-linejoin="round" stroke-opacity="0.5" d="
	M100.87,132.147l5.416-1.172l5.104-6.381l2.48-3.047"/>
<path fill="#2AAAE2" stroke="#2E368F" stroke-width="1.25" stroke-linecap="round" stroke-linejoin="round" stroke-opacity="0.5" d="
	M154.567,74.517l2.338-3.569l2.861-8.872l-3.244-4.735"/>
<path fill="#2AAAE2" stroke="#2E368F" stroke-width="1.25" stroke-linecap="round" stroke-linejoin="round" stroke-opacity="0.5" d="
	M18.398,33.443l-0.038,0.119l-1.67,5.351l-6.763,2.978L7.202,49.83l-3.287,7.625l2.206,7.162l0.012,0.036"/>
<path fill="#2AAAE2" stroke="#2E368F" stroke-width="1.25" stroke-linecap="round" stroke-linejoin="round" stroke-opacity="0.5" d="
	M34.178,124.524l0.223,1.111l6.886,7.194l9.236-1.678l2.024-0.369l0.102,0.047l6.446,2.966"/>
<path fill="#2AAAE2" stroke="#2E368F" stroke-width="1.25" stroke-linecap="round" stroke-linejoin="round" stroke-opacity="0.5" d="
	M24.35,24.892l-3.828,1.914l-1.509,4.719"/>
<path fill="#2AAAE2" stroke="#2E368F" stroke-width="1.25" stroke-linecap="round" stroke-linejoin="round" stroke-opacity="0.5" d="
	M123.72,113.581l9.55-1.203l0.554-2.703l-6.377,1.563l-3.078,1.827"/>
<path fill="#2AAAE2" stroke="#2E368F" stroke-width="1.25" stroke-linecap="round" stroke-linejoin="round" stroke-opacity="0.5" d="
	M132.756,25.031l-5.589-1.88l-6.215-1.959l-2.559,0.488"/>
<path fill="#2AAAE2" stroke="#2E368F" stroke-width="1.25" stroke-linecap="round" stroke-linejoin="round" stroke-opacity="0.5" d="
	M150.147,80.507l1.448-1.455l2.753-4.203"/>
<path fill="#2AAAE2" stroke="#2E368F" stroke-width="1.25" stroke-linecap="round" stroke-linejoin="round" stroke-opacity="0.5" d="
	M52.648,130.83l4.561,2.642l0.313,0.18l7.223,4.675l4.644-0.338"/>
<path fill="#2AAAE2" stroke="#2E368F" stroke-width="1.25" stroke-linecap="round" stroke-linejoin="round" stroke-opacity="0.5" d="
	M6.122,64.617l-0.026,0.104"/>
<path fill="#2AAAE2" stroke="#2E368F" stroke-width="1.25" stroke-linecap="round" stroke-linejoin="round" stroke-opacity="0.5" d="
	M2.81,85.374l-0.382,2.178l0.111,0.527l3.778,6.253l0.729,0.78l3.918,4.175"/>
<path fill="#2AAAE2" stroke="#2E368F" stroke-width="1.25" stroke-linecap="round" stroke-linejoin="round" stroke-opacity="0.5" d="
	M137.29,103.06l2.13-0.844l0.354-2.929"/>
<path fill="#2AAAE2" stroke="#2E368F" stroke-width="1.25" stroke-linecap="round" stroke-linejoin="round" stroke-opacity="0.5" d="
	M29.055,122.081l0.787,0.624l3.134,0.213"/>
<path fill="#2AAAE2" stroke="#2E368F" stroke-width="1.25" stroke-linecap="round" stroke-linejoin="round" stroke-opacity="0.5" d="
	M20.834,111.724l2.695,4.522l0.749,1.256"/>
<path fill="#2AAAE2" stroke="#2E368F" stroke-width="1.25" stroke-linecap="round" stroke-linejoin="round" stroke-opacity="0.5" d="
	M10.211,102.953l3.767,5.222l5.162,2.245"/>
<path fill="#2AAAE2" stroke="#2E368F" stroke-width="1.25" stroke-linecap="round" stroke-linejoin="round" stroke-opacity="0.5" d="
	M23.529,116.246l0.438,1.796l0.922,0.732l1.971,1.564"/>
<path fill="#2AAAE2" stroke="#2E368F" stroke-width="1.25" stroke-linecap="round" stroke-linejoin="round" stroke-opacity="0.5" d="
	M50.522,131.152l2.624,1.353l4.063,0.967"/>
<path fill="#2AAAE2" stroke="#2E368F" stroke-width="1.25" stroke-linecap="round" stroke-linejoin="round" stroke-opacity="0.5" d="
	M24.89,118.774l0.585,2.676l1.906,0.249"/>
</svg>
