<?xml version="1.0" encoding="utf-8"?>
<!-- Generator: Adobe Illustrator 16.0.0, SVG Export Plug-In . SVG Version: 6.00 Build 0)  -->
<!DOCTYPE svg PUBLIC "-//W3C//DTD SVG 1.1//EN" "http://www.w3.org/Graphics/SVG/1.1/DTD/svg11.dtd">
<svg version="1.1" id="Layer_1" xmlns="http://www.w3.org/2000/svg" xmlns:xlink="http://www.w3.org/1999/xlink" x="0px" y="0px"
	 width="179.202px" height="207.41px" viewBox="0 0 179.202 207.41" enable-background="new 0 0 179.202 207.41"
	 xml:space="preserve">
<path fill="#2AAAE2" stroke="#2E368F" stroke-miterlimit="10" d="M8.766,75.205l0.709,0.714l-0.884,4.877l0.546,4.667l-0.926,2.878
	l1.187,2.702l0.019,0.79l0.16,0.881l0.903,2.812l-0.308,4.075l1.591,1.154l-0.029,0.363l2.052,3.538l-0.053,0.842l-0.345,0.953
	l0.864,4.783l0.005,0.09l0.124,8.66l2.239,4.809l3.922,7.444l0.845,1.255l1.598,7.535l10.422,12.562l6.856,6.037l6.015,5.237
	l7.855,7.95l15.47,16.507l2.447,6.828l13.073,3.792l12.266,6.845l5.721-4.479l1.421-0.392l6.588-5.451l1.083-2.097l4.435-4.785
	l9.006-3.901l4.616-8.391l7.595-5.237l0.24-3.834l0.998-1.022l4.775-4.615l0.02-0.575l0.119-0.081l2.115-0.757l2.893-3.469
	l1.631-0.444l4.506-0.646l8.063-0.666l3.792-6.892l5.655-5.464l5.917-11.237l-7.161-7.955l-0.023-6.385l0.733-6.664l-0.498-8.753
	l0.269-9.053l-0.501-5.595l1.222-10.228l-0.688-7.038l-1.877-2.22l0.011-0.23l-3.299-9.028l-1.313-0.78l-2.988-1.663l-1.895-1.075
	l-0.69-5.979l-9.391-5.607l-5.319-2.253l-3.664-3.25l-2.059-1.683l-3.814-5.25l-2.725-8.321l-9.449-5.452l-2.963-1.031l-7.192-0.344
	l-3.746-0.925l-5.423-0.32l-4.143-3.861l-2.77-1.08l-2.798-3.418l-9.302-1.642l-7.068-3.653l-7.96-0.988l-7.406,0.854l-1.696,0.255
	l-8.716,1.764l-9.064,0.393l-4.331,1.03l-2.832-0.363L24.119,4.815l-3.756,10.947l-4.622,7.235l-5.616,2.885l-2.38,6.899
	l-0.549,2.014l-2.134,3.168l-0.901,4.448l-2.675,7.32l-0.859,8.063l0.818,0.908l0.969,10.616l5.791,4.908L8.766,75.205z"/>
<path fill="#2AAAE2" stroke="#2E368F" stroke-width="1.25" stroke-linecap="round" stroke-linejoin="round" stroke-opacity="0.5" d="
	M45.756,5.804l-6.878-0.883l-2.832-0.363L24.117,4.815l-3.756,10.947l-4.622,7.235l-0.188,0.294"/>
<path fill="#2AAAE2" stroke="#2E368F" stroke-width="1.25" stroke-linecap="round" stroke-linejoin="round" stroke-opacity="0.5" d="
	M11.724,71.825l1.49,2.687l0.007,0.013l2.554,4.608l4.03,4.883"/>
<path fill="#2AAAE2" stroke="#2E368F" stroke-width="1.25" stroke-linecap="round" stroke-linejoin="round" stroke-opacity="0.5" d="
	M26.155,88.289l0.688,2.312l0.746,2.503l0.944,3.171l8.491,5.826l7.637,7.708l0.496,0.5l1.444,1.457l3.367,5.588l2.085,3.463
	l0.864,1.433"/>
<path fill="#2AAAE2" stroke="#2E368F" stroke-width="1.25" stroke-linecap="round" stroke-linejoin="round" stroke-opacity="0.5" d="
	M118.506,40.074l-2.099-2.734l-4.526-8.595l-7.813-2.292l-5.011-4.449l-6.091-1.6"/>
<path fill="#2AAAE2" stroke="#2E368F" stroke-width="1.25" stroke-linecap="round" stroke-linejoin="round" stroke-opacity="0.5" d="
	M5.946,70.305l2.257,3.921l0.563,0.979L8.47,74.453l-1.186-3.016l-1.609-4.092L5.272,62.95l-0.009-0.097l-0.248-2.7"/>
<path fill="#2AAAE2" stroke="#2E368F" stroke-width="1.25" stroke-linecap="round" stroke-linejoin="round" stroke-opacity="0.5" d="
	M10.043,30.565l-2.849,4.23L5.06,37.963l-0.901,4.448l-2.675,7.32l-0.859,8.063l0.818,0.908"/>
<path fill="#2AAAE2" stroke="#2E368F" stroke-width="1.25" stroke-linecap="round" stroke-linejoin="round" stroke-opacity="0.5" d="
	M13.938,79.394l0.314,0.492l0.171,0.267l1.341,2.098l5.603,8.765l6.222,2.088"/>
<path fill="#2AAAE2" stroke="#2E368F" stroke-width="1.25" stroke-linecap="round" stroke-linejoin="round" stroke-opacity="0.5" d="
	M15.739,22.997l-5.616,2.885l-2.38,6.899l-0.549,2.014"/>
<path fill="#2AAAE2" stroke="#2E368F" stroke-width="1.25" stroke-linecap="round" stroke-linejoin="round" stroke-opacity="0.5" d="
	M8.766,75.205l0.709,0.714l0.681,0.686l1.305,1.314l2.017,2.031l0.004,0.004l1.05,1.057l0.126,0.126l1.106,1.114"/>
<path fill="#2AAAE2" stroke="#2E368F" stroke-width="1.25" stroke-linecap="round" stroke-linejoin="round" stroke-opacity="0.5" d="
	M49.968,117.354l3.009,7.713l1.947,2.121"/>
<path fill="#2AAAE2" stroke="#2E368F" stroke-width="1.25" stroke-linecap="round" stroke-linejoin="round" stroke-opacity="0.5" d="
	M130.989,158.543l3.996-2.382l0.652-0.41l0.411-0.258l6.111-3.841l2.592,0.098l1.647,0.063l1.015,0.039l2.854,0.108l0.039,0.001
	l0.279,0.012l0.628-0.871l0.716-0.992l0.649-0.9l1.429-1.98l0.733-1.02l1.566-2.17l0.091-0.127l0.602-0.83l0.34-0.473l0.003-0.004
	l2.903-4.023l-0.121-4.85l-0.188-7.523l-0.06-2.423"/>
<path fill="#2AAAE2" stroke="#2E368F" stroke-width="1.25" stroke-linecap="round" stroke-linejoin="round" stroke-opacity="0.5" d="
	M1.421,58.459l0.022,0.243l0.969,10.616l5.791,4.908"/>
<path fill="#2AAAE2" stroke="#2E368F" stroke-width="1.25" stroke-linecap="round" stroke-linejoin="round" stroke-opacity="0.5" d="
	M44.661,109.809l0.68,0.959"/>
<path fill="#2AAAE2" stroke="#2E368F" stroke-width="1.25" stroke-linecap="round" stroke-linejoin="round" stroke-opacity="0.5" d="
	M107.461,18.533l-0.478-0.486l-0.164-0.166l-1.215-1.237l-0.044-0.042l-0.928-0.865l-0.504-0.47l-4.143-3.861l-2.77-1.08
	l-2.798-3.418l-9.302-1.642l-7.068-3.653l-7.96-0.988l-7.406,0.854l-1.696,0.255l-8.716,1.764l-9.064,0.393l-4.331,1.03"/>
<path fill="#2AAAE2" stroke="#2E368F" stroke-width="1.25" stroke-linecap="round" stroke-linejoin="round" stroke-opacity="0.5" d="
	M143.449,93.755l-1.232-11.257l-8.664-5.026"/>
<path fill="#2AAAE2" stroke="#2E368F" stroke-width="1.25" stroke-linecap="round" stroke-linejoin="round" stroke-opacity="0.5" d="
	M148.703,103.528l-1.089-9.769l-3.354-5.966"/>
<path fill="#2AAAE2" stroke="#2E368F" stroke-width="1.25" stroke-linecap="round" stroke-linejoin="round" stroke-opacity="0.5" d="
	M42.518,109.221l3.57,6.342l4.926,9.481l1.441,5.791l0.026,0.103l0.768,3.09l4.188,6.686l5.708,4.998l4.984,5.999l6.843,5.239
	l6.541,5.247l6.378,4.717"/>
<path fill="#2AAAE2" stroke="#2E368F" stroke-width="1.25" stroke-linecap="round" stroke-linejoin="round" stroke-opacity="0.5" d="
	M157.001,143.082l2.738-1.277l0.049-0.021l2.882-1.343l4.058-15.086l-6.035-6.061l-2.745-4.841l-0.372-0.656l-0.025-0.047
	l-0.226-0.396l-0.461-0.813"/>
<path fill="#2AAAE2" stroke="#2E368F" stroke-width="1.25" stroke-linecap="round" stroke-linejoin="round" stroke-opacity="0.5" d="
	M50.429,125.184l2.052,5.754"/>
<path fill="#2AAAE2" stroke="#2E368F" stroke-width="1.25" stroke-linecap="round" stroke-linejoin="round" stroke-opacity="0.5" d="
	M129.174,163.536l4.129-5.364l2.745-2.679"/>
<path fill="#2AAAE2" stroke="#2E368F" stroke-width="1.25" stroke-linecap="round" stroke-linejoin="round" stroke-opacity="0.5" d="
	M40.935,111.007l2.527,5.111l3.703,5.766"/>
<path fill="#2AAAE2" stroke="#2E368F" stroke-width="1.25" stroke-linecap="round" stroke-linejoin="round" stroke-opacity="0.5" d="
	M14.532,81.011l0.925,3.719l0.063,0.256l0.56,2.249"/>
<path fill="#2AAAE2" stroke="#2E368F" stroke-width="1.25" stroke-linecap="round" stroke-linejoin="round" stroke-opacity="0.5" d="
	M156.49,105.648l-0.31-0.657l-1.055-2.234l-4.154-4.927"/>
<path fill="#2AAAE2" stroke="#2E368F" stroke-width="1.25" stroke-linecap="round" stroke-linejoin="round" stroke-opacity="0.5" d="
	M31.142,98.482l6.949,8.827"/>
<path fill="#2AAAE2" stroke="#2E368F" stroke-width="1.25" stroke-linecap="round" stroke-linejoin="round" stroke-opacity="0.5" d="
	M157.549,113.751l-1.061-8.103l-0.215-7.223"/>
<path fill="#2AAAE2" stroke="#2E368F" stroke-width="1.25" stroke-linecap="round" stroke-linejoin="round" stroke-opacity="0.5" d="
	M13.478,79.95l-0.93,4.176"/>
<path fill="#2AAAE2" stroke="#2E368F" stroke-width="1.25" stroke-linecap="round" stroke-linejoin="round" stroke-opacity="0.5" d="
	M50.579,135.168l2.676,2.532l2.988,1.875"/>
<path fill="#2AAAE2" stroke="#2E368F" stroke-width="1.25" stroke-linecap="round" stroke-linejoin="round" stroke-opacity="0.5" d="
	M107.493,17.434l-2.857-1.697"/>
<path fill="#2AAAE2" stroke="#2E368F" stroke-width="1.25" stroke-linecap="round" stroke-linejoin="round" stroke-opacity="0.5" d="
	M142.125,72.556l0.61-8.196l2.001-7.993l0.834-10.156l0.009-0.086"/>
<path fill="#2AAAE2" stroke="#2E368F" stroke-width="1.25" stroke-linecap="round" stroke-linejoin="round" stroke-opacity="0.5" d="
	M147.035,47.339l-0.017-0.014l-1.438-1.2l-0.372-2.123l-0.002-0.01l-0.015-0.072l-0.063-0.067l-0.01-0.009l-3.1-3.305l-0.044-0.046
	l-5.895-6.285l-2.956-1.959l-10.044-1.667"/>
<path fill="#2AAAE2" stroke="#2E368F" stroke-width="1.25" stroke-linecap="round" stroke-linejoin="round" stroke-opacity="0.5" d="
	M151.19,89.27l-3.378-8.126l-1.572-6.231"/>
<path fill="#2AAAE2" stroke="#2E368F" stroke-width="1.25" stroke-linecap="round" stroke-linejoin="round" stroke-opacity="0.5" d="
	M15.457,84.73l-0.223,7.747l2.786,5.376"/>
<path fill="#2AAAE2" stroke="#2E368F" stroke-width="1.25" stroke-linecap="round" stroke-linejoin="round" stroke-opacity="0.5" d="
	M157.948,114.454l-0.464-4.739"/>
<path fill="#2AAAE2" stroke="#2E368F" stroke-width="1.25" stroke-linecap="round" stroke-linejoin="round" stroke-opacity="0.5" d="
	M116.927,17.513l-2.012-0.602l-1.616-0.399l-3.746-0.925l-5.423-0.32"/>
<path fill="#2AAAE2" stroke="#2E368F" stroke-width="1.25" stroke-linecap="round" stroke-linejoin="round" stroke-opacity="0.5" d="
	M19.965,98.433l-0.164,3.787l7.153,4.525"/>
<path fill="#2AAAE2" stroke="#2E368F" stroke-width="1.25" stroke-linecap="round" stroke-linejoin="round" stroke-opacity="0.5" d="
	M10.156,76.605l0.25,0.656l-0.065,4.458l-1.204,3.744l-0.926,2.878l1.187,2.702l1.212,2.761l0.315,0.718"/>
<path fill="#2AAAE2" stroke="#2E368F" stroke-width="1.25" stroke-linecap="round" stroke-linejoin="round" stroke-opacity="0.5" d="
	M14.246,96.952l0.735,5.1l0.034,0.235l0.003,0.024l0.115,0.8l0.017,0.113"/>
<path fill="#2AAAE2" stroke="#2E368F" stroke-width="1.25" stroke-linecap="round" stroke-linejoin="round" stroke-opacity="0.5" d="
	M92.869,187.38l3.541,3.543l12.74-3.585l3.157-0.545l0.336-0.058l0,0l0.463-0.08l2.868-0.494l0.368-0.064l0.142-0.022l0.337-0.06
	l5.144-0.887l2.118-6.379l3.923-2.238l1.45-0.827l0.551-1.687l0.095-0.29l0.354-1.087l0.461-1.412l4.571-3.208l0.156-0.11
	l0.019-0.062l0.003-0.007l0.108-0.379l0.365-1.261"/>
<path fill="#2AAAE2" stroke="#2E368F" stroke-width="1.25" stroke-linecap="round" stroke-linejoin="round" stroke-opacity="0.5" d="
	M147.974,49.078l-0.939-1.739l-1.828-3.347"/>
<path fill="#2AAAE2" stroke="#2E368F" stroke-width="1.25" stroke-linecap="round" stroke-linejoin="round" stroke-opacity="0.5" d="
	M150.125,156.375l3.382-3.247l2.526-4.424"/>
<path fill="#2AAAE2" stroke="#2E368F" stroke-width="1.25" stroke-linecap="round" stroke-linejoin="round" stroke-opacity="0.5" d="
	M11.665,88.564l-0.704,5.667l-0.005,0.043l-0.031,0.248l-0.214,1.724l-0.005,0.038l0.024,0.023l0.616,0.577l0.679,0.636l0.405,0.38
	l1.812,1.698l0.22,3.887"/>
<path fill="#2AAAE2" stroke="#2E368F" stroke-width="1.25" stroke-linecap="round" stroke-linejoin="round" stroke-opacity="0.5" d="
	M9.475,75.919l-0.884,4.877l0.546,4.667"/>
<path fill="#2AAAE2" stroke="#2E368F" stroke-width="1.25" stroke-linecap="round" stroke-linejoin="round" stroke-opacity="0.5" d="
	M145.759,43.738l-1.7-1.937l-0.137-0.157l0.059,0.109l0.169,0.309l0.979,1.791"/>
<path fill="#2AAAE2" stroke="#2E368F" stroke-width="1.25" stroke-linecap="round" stroke-linejoin="round" stroke-opacity="0.5" d="
	M26.742,133.596l0.515,5.305l6.575,9.166"/>
<path fill="#2AAAE2" stroke="#2E368F" stroke-width="1.25" stroke-linecap="round" stroke-linejoin="round" stroke-opacity="0.5" d="
	M63.488,150.703l0.916,9.691l1.799,8.642"/>
<path fill="#2AAAE2" stroke="#2E368F" stroke-width="1.25" stroke-linecap="round" stroke-linejoin="round" stroke-opacity="0.5" d="
	M135.662,167.828l0.061-0.017l0.613-0.184l1.586-0.472l0.271-0.551l0.538-1.092l5.155-3.512l0.119-0.081l2.115-0.757l2.893-3.469
	l1.252-1.502"/>
<path fill="#2AAAE2" stroke="#2E368F" stroke-width="1.25" stroke-linecap="round" stroke-linejoin="round" stroke-opacity="0.5" d="
	M143.922,41.644l-0.575-0.571l-3.161-3.142l-0.742-1.021l-3.814-5.25l-2.725-8.321l-9.448-5.452l-2.964-1.031l-7.192-0.344"/>
<path fill="#2AAAE2" stroke="#2E368F" stroke-width="1.25" stroke-linecap="round" stroke-linejoin="round" stroke-opacity="0.5" d="
	M14.981,102.052l-0.019,0.052l-0.5,1.381l-0.139,0.385l-0.013,0.034l-0.227,0.629l-0.142,0.391l-0.208,0.574l-0.345,0.953
	l0.864,4.783l0.004,0.023l0.26,1.438"/>
<path fill="#2AAAE2" stroke="#2E368F" stroke-width="1.25" stroke-linecap="round" stroke-linejoin="round" stroke-opacity="0.5" d="
	M88.775,188.551l17.313,8.028l1.605-2.162l1.288-1.733l3.109-4.182l1.014-1.847"/>
<path fill="#2AAAE2" stroke="#2E368F" stroke-width="1.25" stroke-linecap="round" stroke-linejoin="round" stroke-opacity="0.5" d="
	M10.61,93.804l-0.13,1.722l-0.308,4.075l1.591,1.154l2.17,1.573l-0.147,2.328l-0.053,0.842"/>
<path fill="#2AAAE2" stroke="#2E368F" stroke-width="1.25" stroke-linecap="round" stroke-linejoin="round" stroke-opacity="0.5" d="
	M9.398,91.043l0.019,0.79l0.16,0.881l0.903,2.812"/>
<path fill="#2AAAE2" stroke="#2E368F" stroke-width="1.25" stroke-linecap="round" stroke-linejoin="round" stroke-opacity="0.5" d="
	M165.826,110.826l5.025-10.317l-1.301-8.414l-0.068-0.438"/>
<path fill="#2AAAE2" stroke="#2E368F" stroke-width="1.25" stroke-linecap="round" stroke-linejoin="round" stroke-opacity="0.5" d="
	M147.562,43.97l-2.396-2.127l-3.664-3.25l-2.059-1.683"/>
<path fill="#2AAAE2" stroke="#2E368F" stroke-width="1.25" stroke-linecap="round" stroke-linejoin="round" stroke-opacity="0.5" d="
	M14.256,111.258l0.001,0.066l0.124,8.66l2.239,4.809l3.922,7.444l0.845,1.255"/>
<path fill="#2AAAE2" stroke="#2E368F" stroke-width="1.25" stroke-linecap="round" stroke-linejoin="round" stroke-opacity="0.5" d="
	M149.012,157.697l1.631-0.444l4.506-0.646l8.063-0.666l3.792-6.893l5.655-5.463l5.917-11.238l-7.161-7.953l-0.023-6.386l0.733-6.665
	l-0.498-8.753l0.269-9.053l-0.501-5.595l-0.286-3.194"/>
<path fill="#2AAAE2" stroke="#2E368F" stroke-width="1.25" stroke-linecap="round" stroke-linejoin="round" stroke-opacity="0.5" d="
	M20.24,128.08l1.147,5.412l1.598,7.535l10.422,12.562l6.856,6.037l6.015,5.237l6.156,5.357l8.447,8.552"/>
<path fill="#2AAAE2" stroke="#2E368F" stroke-width="1.25" stroke-linecap="round" stroke-linejoin="round" stroke-opacity="0.5" d="
	M130.005,173.997l0.691-0.521l0.357-0.27l1.958-1.495l0.636-0.485l2.687-3.599"/>
<path fill="#2AAAE2" stroke="#2E368F" stroke-width="1.25" stroke-linecap="round" stroke-linejoin="round" stroke-opacity="0.5" d="
	M11.763,100.755l-0.029,0.363l2.052,3.538"/>
<path fill="#2AAAE2" stroke="#2E368F" stroke-width="1.25" stroke-linecap="round" stroke-linejoin="round" stroke-opacity="0.5" d="
	M169.865,93.034l-0.383-1.377l-2.692-7.795"/>
<path fill="#2AAAE2" stroke="#2E368F" stroke-width="1.25" stroke-linecap="round" stroke-linejoin="round" stroke-opacity="0.5" d="
	M161.012,59.523l-0.44-3.8l-0.002-0.017l-0.003-0.024l-0.69-5.979l-9.391-5.607l-5.319-2.253"/>
<path fill="#2AAAE2" stroke="#2E368F" stroke-width="1.25" stroke-linecap="round" stroke-linejoin="round" stroke-opacity="0.5" d="
	M14.252,111.234l0.005,0.09"/>
<path fill="#2AAAE2" stroke="#2E368F" stroke-width="1.25" stroke-linecap="round" stroke-linejoin="round" stroke-opacity="0.5" d="
	M116.484,186.073l-0.691,1.341l-3.591,6.952l-1.083,2.097l-6.588,5.451l-1.421,0.392l-2.045,0.565l-3.676,3.914l5.721-4.479"/>
<path fill="#2AAAE2" stroke="#2E368F" stroke-width="1.25" stroke-linecap="round" stroke-linejoin="round" stroke-opacity="0.5" d="
	M130.698,173.477l1.489-0.572l2.141-0.825l3.766-3.86l0.998-1.022l4.775-4.615l0.02-0.575"/>
<path fill="#2AAAE2" stroke="#2E368F" stroke-width="1.25" stroke-linecap="round" stroke-linejoin="round" stroke-opacity="0.5" d="
	M115.792,187.414l1.028-1.399"/>
<path fill="#2AAAE2" stroke="#2E368F" stroke-width="1.25" stroke-linecap="round" stroke-linejoin="round" stroke-opacity="0.5" d="
	M65.899,178.988l3.704,10.332l2.447,6.828l13.073,3.792l12.266,6.845"/>
<path fill="#2AAAE2" stroke="#2E368F" stroke-width="1.25" stroke-linecap="round" stroke-linejoin="round" stroke-opacity="0.5" d="
	M46.278,164.863l7.855,7.95l13.676,14.593l1.794,1.914"/>
<path fill="#2AAAE2" stroke="#2E368F" stroke-width="1.25" stroke-linecap="round" stroke-linejoin="round" stroke-opacity="0.5" d="
	M169.68,76.58l0.369-8.122l0.011-0.23l-3.299-9.028l-1.313-0.78l-2.988-1.663l-1.892-1.051"/>
<path fill="#2AAAE2" stroke="#2E368F" stroke-width="1.25" stroke-linecap="round" stroke-linejoin="round" stroke-opacity="0.5" d="
	M125.518,181.332l1.509-1.814l4.729-5.992l0.431-0.621"/>
<path fill="#2AAAE2" stroke="#2E368F" stroke-width="1.25" stroke-linecap="round" stroke-linejoin="round" stroke-opacity="0.5" d="
	M162.46,56.757l-1.895-1.075"/>
<path fill="#2AAAE2" stroke="#2E368F" stroke-width="1.25" stroke-linecap="round" stroke-linejoin="round" stroke-opacity="0.5" d="
	M112.202,194.366l4.435-4.785l9.006-3.901l4.616-8.391l7.595-5.237l0.24-3.834"/>
<path fill="#2AAAE2" stroke="#2E368F" stroke-width="1.25" stroke-linecap="round" stroke-linejoin="round" stroke-opacity="0.5" d="
	M171.394,87.944l1.222-10.228l-0.688-7.038l-1.877-2.22"/>
</svg>
