<?xml version="1.0" encoding="utf-8"?>
<!-- Generator: Adobe Illustrator 16.0.0, SVG Export Plug-In . SVG Version: 6.00 Build 0)  -->
<!DOCTYPE svg PUBLIC "-//W3C//DTD SVG 1.1//EN" "http://www.w3.org/Graphics/SVG/1.1/DTD/svg11.dtd">
<svg version="1.1" id="Layer_1" xmlns="http://www.w3.org/2000/svg" xmlns:xlink="http://www.w3.org/1999/xlink" x="0px" y="0px"
	 width="168.627px" height="196.657px" viewBox="0 0 168.627 196.657" enable-background="new 0 0 168.627 196.657"
	 xml:space="preserve">
<path fill="#2AAAE2" stroke="#2E368F" stroke-miterlimit="10" d="M24.871,157.93l5.735,5.841l5.759,6.358l12.362,10.108
	l10.772,6.152l3.034,1.163l2.636,3.104l6.111,2.928l3.98,0.061l0.414,0.133l0.365,0.005l6.116,1.067l0.065,0.017l1.151,0.589
	l3.975,0.577l4.766-1.415l0.515,0.02l1.282-0.553l0.729-0.217l8.664,0.254l7.864-1.878l2.523-0.125l5.362,1.311l3.858-2.803
	l4.451-0.422l8.037-2.46l4.558-2.879l5.828-1.781l12.985-5.296l6.006-11.492l1.092-1.358l-0.91-9.648l-1.803-7.104l0.455-6.685
	l0.117-0.734l1.433-7.782l0.835-9.25l-0.025-0.136l2.033-4.053l-1.768-8.095l0.812-8.522l0.671-2.827l-2.572-5.621l0.279-3.4
	l-0.632-10.361l-2.756-2.903l-0.099-0.371l-0.994-8.987l-1.694-5.545l-0.138-7.755l-1.252-8.573l-1.362-1.881l-1.403-2.651
	l-6.591-12.074l-2.248-0.944l-1.72-1.653l-0.863-3.012l-3.62-0.66l-11.93-5.289l-3.647-0.68l-5.355-0.997l-9.598-0.294l-0.313,0.123
	l-1.912-0.718l-6.91-2.942l-7.748-5.097l-8.783-1.1l-7.474-0.304l-7.529-3.539L60.01,0.627L50.745,2.16L39.851,3.692l-5.379,1.931
	l-7.933,6.898l-6.953,5.236l-6.119,5.819L9.339,29.86L4.6,37.087l0.185,8.09l-0.578,8.662l0.571,5.47L3.576,66.64l-1.489,2.3
	l1.849,5.324l-0.274,2.699l-0.395,2.288l0.034,0.09l-0.557,0.968l-0.351,2.675l-0.482,4.074l-0.24,3.09l-1.046,3.348l0.231,11.33
	l0.01,0.098l-0.037,0.898l0.705,5.608l0.001,0.003l0.153,1.221l2.762,5.877l2.209,4.594l1.5,5.531l6.093,12.731l4.077,5.728
	L24.871,157.93z"/>
<path fill="#2AAAE2" stroke="#2E368F" stroke-width="1.25" stroke-linecap="round" stroke-linejoin="round" stroke-opacity="0.5" d="
	M26.406,95.301l0.328,1.006l1.254,3.847l2.43,7.457l5.093,10.975"/>
<path fill="#2AAAE2" stroke="#2E368F" stroke-width="1.25" stroke-linecap="round" stroke-linejoin="round" stroke-opacity="0.5" d="
	M18.819,81.046l1.36,6.185l0.262,1.196l0.941,2.354l0.904,2.263l2.503,3.121l3.199,3.988"/>
<path fill="#2AAAE2" stroke="#2E368F" stroke-width="1.25" stroke-linecap="round" stroke-linejoin="round" stroke-opacity="0.5" d="
	M117.021,19.335l-2.736-0.855l-5.076-1.907l-1.912-0.718l-6.91-2.942l-7.748-5.097l-8.783-1.1l-7.474-0.304l-7.529-3.539
	L60.01,0.625l-9.265,1.533L39.851,3.69l-5.379,1.931l-7.933,6.898l-6.953,5.236l-6.119,5.819l-4.128,6.284L4.6,37.085l0.185,8.09
	l-0.578,8.662l0.836,4.669l0.546,3.054l0.587,1.898l0.278,0.899l0.859,2.777l0.104,0.334l0.692,2.238l0.067,0.216l3.516,6.437
	l1.357,1.727l6.345,8.072l1.856,4.42l1.036,2.466"/>
<path fill="#2AAAE2" stroke="#2E368F" stroke-width="1.25" stroke-linecap="round" stroke-linejoin="round" stroke-opacity="0.5" d="
	M4.207,53.837l0.571,5.47L5.195,63.3l0.789,1.753l0.921,2.045l0.419,0.931l0.852,1.893"/>
<path fill="#2AAAE2" stroke="#2E368F" stroke-width="1.25" stroke-linecap="round" stroke-linejoin="round" stroke-opacity="0.5" d="
	M17.769,85.207l2.955,5.685l6.44,9.382"/>
<path fill="#2AAAE2" stroke="#2E368F" stroke-width="1.25" stroke-linecap="round" stroke-linejoin="round" stroke-opacity="0.5" d="
	M29.826,106.415l-0.788,10.439l1.054,7.438l4.838,8.797"/>
<path fill="#2AAAE2" stroke="#2E368F" stroke-width="1.25" stroke-linecap="round" stroke-linejoin="round" stroke-opacity="0.5" d="
	M6.905,67.098l0.286,1.743l1.172,7.13l2.489,5.769l0.364,6.586l0.003,0.045"/>
<path fill="#2AAAE2" stroke="#2E368F" stroke-width="1.25" stroke-linecap="round" stroke-linejoin="round" stroke-opacity="0.5" d="
	M27.363,105.036l-0.025,0.888l-0.001,0.051l-0.249,8.781"/>
<path fill="#2AAAE2" stroke="#2E368F" stroke-width="1.25" stroke-linecap="round" stroke-linejoin="round" stroke-opacity="0.5" d="
	M23.985,100.705l2.91,4.575l0.004,0.006l0.438,0.689"/>
<path fill="#2AAAE2" stroke="#2E368F" stroke-width="1.25" stroke-linecap="round" stroke-linejoin="round" stroke-opacity="0.5" d="
	M137.031,49.948l-0.997-6.93"/>
<path fill="#2AAAE2" stroke="#2E368F" stroke-width="1.25" stroke-linecap="round" stroke-linejoin="round" stroke-opacity="0.5" d="
	M24.494,120.121l0.905,5.526l1.671,3.871"/>
<path fill="#2AAAE2" stroke="#2E368F" stroke-width="1.25" stroke-linecap="round" stroke-linejoin="round" stroke-opacity="0.5" d="
	M34.674,142.473l0.753,1.445l1.358,2.61l2.564,4.927l4.296,7.657l6.315,5.254l7.091,3.896"/>
<path fill="#2AAAE2" stroke="#2E368F" stroke-width="1.25" stroke-linecap="round" stroke-linejoin="round" stroke-opacity="0.5" d="
	M26.895,105.28l-1.966,4.937l-0.016,0.041l-2.045,5.138l0.161,6.545"/>
<path fill="#2AAAE2" stroke="#2E368F" stroke-width="1.25" stroke-linecap="round" stroke-linejoin="round" stroke-opacity="0.5" d="
	M19.997,103.246l0.536,0.765l2.428,3.462l0.494,0.705l0.001,0.002l1.457,2.078"/>
<path fill="#2AAAE2" stroke="#2E368F" stroke-width="1.25" stroke-linecap="round" stroke-linejoin="round" stroke-opacity="0.5" d="
	M9.691,84.278l3.698,11.048l1.513,4.455l1.137,1.086l0.117,0.111l6.805,6.495"/>
<path fill="#2AAAE2" stroke="#2E368F" stroke-width="1.25" stroke-linecap="round" stroke-linejoin="round" stroke-opacity="0.5" d="
	M28.256,134.937l0.24,0.883l0.666,2.463l0.584,2.156l0.141,0.521l0.548,2.021l5.383,5.821l1.779,2.876l0.004,0.006l1.757,2.84"/>
<path fill="#2AAAE2" stroke="#2E368F" stroke-width="1.25" stroke-linecap="round" stroke-linejoin="round" stroke-opacity="0.5" d="
	M22.912,129.849l0.975,1.109l1.573,1.789l3.018,4.512l0.016,0.023l0.668,1"/>
<path fill="#2AAAE2" stroke="#2E368F" stroke-width="1.25" stroke-linecap="round" stroke-linejoin="round" stroke-opacity="0.5" d="
	M6.964,78.68l-0.06,2.652l1.164,7.1"/>
<path fill="#2AAAE2" stroke="#2E368F" stroke-width="1.25" stroke-linecap="round" stroke-linejoin="round" stroke-opacity="0.5" d="
	M23.455,108.178l-1.352,9.474l-0.038,8.039l0.847,4.158l2.072,4.399l0.155,0.331"/>
<path fill="#2AAAE2" stroke="#2E368F" stroke-width="1.25" stroke-linecap="round" stroke-linejoin="round" stroke-opacity="0.5" d="
	M4.778,59.307l-1.202,7.331l-1.489,2.3l1.849,5.324l0.698,2.009"/>
<path fill="#2AAAE2" stroke="#2E368F" stroke-width="1.25" stroke-linecap="round" stroke-linejoin="round" stroke-opacity="0.5" d="
	M16.039,100.866l0.415,0.867l2.687,9.832"/>
<path fill="#2AAAE2" stroke="#2E368F" stroke-width="1.25" stroke-linecap="round" stroke-linejoin="round" stroke-opacity="0.5" d="
	M55.835,180.396l2.834,1.982l0.505,0.354l0.679,0.475l0.486,0.165l0.084,0.028l0.538,0.183l9.219,3.13"/>
<path fill="#2AAAE2" stroke="#2E368F" stroke-width="1.25" stroke-linecap="round" stroke-linejoin="round" stroke-opacity="0.5" d="
	M21.527,131.271l3.612,3.309l4.748,6.381"/>
<path fill="#2AAAE2" stroke="#2E368F" stroke-width="1.25" stroke-linecap="round" stroke-linejoin="round" stroke-opacity="0.5" d="
	M37.597,151.679l0.791,7.568l5.35,4.871"/>
<path fill="#2AAAE2" stroke="#2E368F" stroke-width="1.25" stroke-linecap="round" stroke-linejoin="round" stroke-opacity="0.5" d="
	M155.02,84.845l2.907-10.273l-2.89-11.293l-1.987-5.389"/>
<path fill="#2AAAE2" stroke="#2E368F" stroke-width="1.25" stroke-linecap="round" stroke-linejoin="round" stroke-opacity="0.5" d="
	M4.866,82.009l-0.107,0.897l-0.022,0.178l-0.338,2.838l-0.351,2.937"/>
<path fill="#2AAAE2" stroke="#2E368F" stroke-width="1.25" stroke-linecap="round" stroke-linejoin="round" stroke-opacity="0.5" d="
	M3.936,74.262l-0.274,2.699l-0.395,2.288l0.034,0.09l1.364,3.556l0.072,0.189"/>
<path fill="#2AAAE2" stroke="#2E368F" stroke-width="1.25" stroke-linecap="round" stroke-linejoin="round" stroke-opacity="0.5" d="
	M162.057,78.515l-0.084-0.767l-0.035-0.303l-0.994-8.987l-1.694-5.545l-0.138-7.755l-1.252-8.573l-1.362-1.881l-1.403-2.651
	l-6.591-12.074l-2.248-0.944l-1.72-1.653l-0.863-3.012l-3.62-0.66l-11.93-5.289l-3.647-0.68l-5.355-0.997l-9.598-0.294l-0.313,0.123
	"/>
<path fill="#2AAAE2" stroke="#2E368F" stroke-width="1.25" stroke-linecap="round" stroke-linejoin="round" stroke-opacity="0.5" d="
	M3.387,92.095l0.661-3.236l0.248,0.711l0.937,2.69l1.245,3.498"/>
<path fill="#2AAAE2" stroke="#2E368F" stroke-width="1.25" stroke-linecap="round" stroke-linejoin="round" stroke-opacity="0.5" d="
	M4.665,82.895l-1.122,5.731"/>
<path fill="#2AAAE2" stroke="#2E368F" stroke-width="1.25" stroke-linecap="round" stroke-linejoin="round" stroke-opacity="0.5" d="
	M45.485,168.853l1.169,2.92l5.721,6.57l6.441,4.834l3.717,4.376l2.636,3.104l6.111,2.928l3.98,0.061l0,0l1.718,0.027l0.387,0.006
	l1.237,0.02l0.895,0.014l0.072,0.001l0.264,0.004l0.144,0.003l1.099,0.017l0.59,0.007l6.35,0.062"/>
<path fill="#2AAAE2" stroke="#2E368F" stroke-width="1.25" stroke-linecap="round" stroke-linejoin="round" stroke-opacity="0.5" d="
	M105.775,190.688l4.283,0.328l1.879-0.783l0.01-0.006l1.244-0.52"/>
<path fill="#2AAAE2" stroke="#2E368F" stroke-width="1.25" stroke-linecap="round" stroke-linejoin="round" stroke-opacity="0.5" d="
	M1.604,94.468l0.238,2.205l0.246,2.268l1.523,6.063"/>
<path fill="#2AAAE2" stroke="#2E368F" stroke-width="1.25" stroke-linecap="round" stroke-linejoin="round" stroke-opacity="0.5" d="
	M6.484,120.396l1.967,5.151l3.982,7.985"/>
<path fill="#2AAAE2" stroke="#2E368F" stroke-width="1.25" stroke-linecap="round" stroke-linejoin="round" stroke-opacity="0.5" d="
	M111.938,190.233l3.813,1.78l0.414,0.194l0.111-0.03l0.879-0.232l3.959-1.056l0.553-0.146l1.244-0.118l4.451-0.422l8.037-2.459
	l4.558-2.879l5.828-1.782l12.985-5.296l6.006-11.492l1.092-1.357l-0.91-9.649"/>
<path fill="#2AAAE2" stroke="#2E368F" stroke-width="1.25" stroke-linecap="round" stroke-linejoin="round" stroke-opacity="0.5" d="
	M3.301,79.339l-0.557,0.968l-0.351,2.675l-0.482,4.074l-0.24,3.09l-0.037,0.476l-0.575,9.574l-0.193,4.725l-0.037,0.898l0.705,5.608
	l0.001,0.003l0.032,0.077l0.108,0.265l2.775,6.756"/>
<path fill="#2AAAE2" stroke="#2E368F" stroke-width="1.25" stroke-linecap="round" stroke-linejoin="round" stroke-opacity="0.5" d="
	M116.164,192.208l2.888,1.22l3.858-2.803"/>
<path fill="#2AAAE2" stroke="#2E368F" stroke-width="1.25" stroke-linecap="round" stroke-linejoin="round" stroke-opacity="0.5" d="
	M75.26,193.645l0.779,0.138l6.116,1.067l0.055,0.009l1.787,0.313l0.932-0.116l4.117-0.508l0.319-0.04l0.363-0.045l0.885-0.109
	l0.529-0.063l1.145-0.259l3.65-0.823l3.59-0.812l0.067-0.002l0.13-0.003l6.913-0.161l2.632-0.688l3.25,0.29l1.17,0.286l5.362,1.311"
	/>
<path fill="#2AAAE2" stroke="#2E368F" stroke-width="1.25" stroke-linecap="round" stroke-linejoin="round" stroke-opacity="0.5" d="
	M160.223,146.312l0.656,1.202l1.13,2.067l1.896,3.467l1.053,2.24l-1.803-7.104l0.455-6.685l0.013-0.164l0.104-0.57l1.433-7.782
	l0.835-9.25l-0.025-0.136l-1.625-8.856l-0.519-7.619"/>
<path fill="#2AAAE2" stroke="#2E368F" stroke-width="1.25" stroke-linecap="round" stroke-linejoin="round" stroke-opacity="0.5" d="
	M163.583,113.839l0.241-6.717l0.049-1.319l0.076-8.297l0.094-1.702l0.003-0.064l0.017-0.301l0.164-2.965l0.146-2.64l-1.646-9.411
	l-0.69-2.607l-0.099-0.371"/>
<path fill="#2AAAE2" stroke="#2E368F" stroke-width="1.25" stroke-linecap="round" stroke-linejoin="round" stroke-opacity="0.5" d="
	M1.535,111.431l0.153,1.221l2.762,5.877l2.209,4.595"/>
<path fill="#2AAAE2" stroke="#2E368F" stroke-width="1.25" stroke-linecap="round" stroke-linejoin="round" stroke-opacity="0.5" d="
	M75.26,193.645l0.414,0.132l0.365,0.006"/>
<path fill="#2AAAE2" stroke="#2E368F" stroke-width="1.25" stroke-linecap="round" stroke-linejoin="round" stroke-opacity="0.5" d="
	M1.671,90.146l-1.046,3.348l0.231,11.33l0.01,0.098"/>
<path fill="#2AAAE2" stroke="#2E368F" stroke-width="1.25" stroke-linecap="round" stroke-linejoin="round" stroke-opacity="0.5" d="
	M4.73,116.015l1.929,7.108l1.5,5.53l6.093,12.731l4.077,5.728l6.542,10.817l5.735,5.841l5.759,6.358l12.362,10.108l10.772,6.152
	l3.034,1.163"/>
<path fill="#2AAAE2" stroke="#2E368F" stroke-width="1.25" stroke-linecap="round" stroke-linejoin="round" stroke-opacity="0.5" d="
	M30.606,163.771l4.755,4.611l7.145,5.531"/>
<path fill="#2AAAE2" stroke="#2E368F" stroke-width="1.25" stroke-linecap="round" stroke-linejoin="round" stroke-opacity="0.5" d="
	M89.365,194.508l0.384,0.015l2.362,0.095l0.515,0.02l1.282-0.553l0.517-0.223l0.146-0.064l0.059-0.025l0.423-0.182l0.886-0.382"/>
<path fill="#2AAAE2" stroke="#2E368F" stroke-width="1.25" stroke-linecap="round" stroke-linejoin="round" stroke-opacity="0.5" d="
	M164.675,100.192l0.274-3.33l0.006-0.074l0.189-2.309l0.279-3.4l-0.632-10.361l-2.756-2.903"/>
<path fill="#2AAAE2" stroke="#2E368F" stroke-width="1.25" stroke-linecap="round" stroke-linejoin="round" stroke-opacity="0.5" d="
	M163.609,141.5l0.117-0.734"/>
<path fill="#2AAAE2" stroke="#2E368F" stroke-width="1.25" stroke-linecap="round" stroke-linejoin="round" stroke-opacity="0.5" d="
	M82.155,194.85l0.065,0.017l1.996,0.454l0.031,0.007l3.099,0.705l4.766-1.415"/>
<path fill="#2AAAE2" stroke="#2E368F" stroke-width="1.25" stroke-linecap="round" stroke-linejoin="round" stroke-opacity="0.5" d="
	M93.908,194.083l0.729-0.217l1.535-0.456l3.552-1.02"/>
<path fill="#2AAAE2" stroke="#2E368F" stroke-width="1.25" stroke-linecap="round" stroke-linejoin="round" stroke-opacity="0.5" d="
	M165.531,109.31l1.515-6.382l0.671-2.827l-2.572-5.621"/>
<path fill="#2AAAE2" stroke="#2E368F" stroke-width="1.25" stroke-linecap="round" stroke-linejoin="round" stroke-opacity="0.5" d="
	M82.22,194.865l1.151,0.589l3.975,0.577"/>
<path fill="#2AAAE2" stroke="#2E368F" stroke-width="1.25" stroke-linecap="round" stroke-linejoin="round" stroke-opacity="0.5" d="
	M165.969,123.598l2.033-4.053l-1.768-8.095l0.812-8.522"/>
<path fill="#2AAAE2" stroke="#2E368F" stroke-width="1.25" stroke-linecap="round" stroke-linejoin="round" stroke-opacity="0.5" d="
	M94.638,193.866l8.664,0.254l7.864-1.878l2.523-0.125"/>
</svg>
