<?xml version="1.0" encoding="utf-8"?>
<!-- Generator: Adobe Illustrator 16.0.0, SVG Export Plug-In . SVG Version: 6.00 Build 0)  -->
<!DOCTYPE svg PUBLIC "-//W3C//DTD SVG 1.1//EN" "http://www.w3.org/Graphics/SVG/1.1/DTD/svg11.dtd">
<svg version="1.1" id="Layer_1" xmlns="http://www.w3.org/2000/svg" xmlns:xlink="http://www.w3.org/1999/xlink" x="0px" y="0px"
	 width="160.232px" height="158.3px" viewBox="0 0 160.232 158.3" enable-background="new 0 0 160.232 158.3" xml:space="preserve">
<path fill="#2AAAE2" stroke="#2E368F" stroke-miterlimit="10" d="M142.999,136.482l3.138-5.085l9.646-6.142l1.467-7.381
	l-0.025-0.617l1.675-2.404l-2.078-5.865l-0.027-0.078l-0.491-4.865l0.938-7.434l2.369-9.395l-0.672-6.582l-3.033-5.967l-0.939-2.864
	l-2.215-1.48l-0.965-1.31l-4.261-5.03l-2.214-5.928l-2.063-3.117l-2.018-4.376l-0.927-1.804l-0.915-3.123l-2.755-4.814l0.392-2.889
	l0.141-2.218l-0.91-1.936l-0.104-0.611l-1.369-2.545l-1.371-3.449l-1.958-3.119l-0.167-0.753l0.109-3.858l-0.445-4.1l-2.992-3.64
	l0.03-0.672l-0.504-0.368l-1.895-5.208l-4.871-1.886l-1.201-0.582l-3.214-1.104l-3.409-1.258l-8.724,1.015L97.879,2.4l-0.704,0.042
	L93.084,2.4l-6.798-1.523L80.541,3.38l-2.2,0.315l-5.289-0.627l-4.522-2.191l-0.479-0.1l-3.826,1.285L64.127,2.11l-1.94,0.36
	l-3.964,2.15l-6.521-0.004L49.683,5.52l-1.896,1.647l-0.18,0.117l-1.918,1.704l-6.191,4.173l-4.262,2.154L31.556,17.3l-2.709,1.698
	l-6.078,4.71l-4.267,5.015l-0.045,0.016l-4.551,3.217l-2.596,2.715l-1.918,2.207l-2.915,9.059l-1.975,3.922l-3.877,5.745
	l1.229,6.017l0.688,6.705l-1.339,5.32l0.271,1.412l1.753,4.635l2.824,3.484l0.676,1.509l0.233,1.378l0.145,5.746l0.476,0.775
	l-0.064,1.136l2.077,5.364l4.725,4.928l0.987,0.505l0.438,0.633l0.806,0.495l3.063,3.839l1.968,2.026l2.256,0.654l0.604,1.979
	l0.623,1.023l0.445,2.94l3.783,3.213l5.068,6.569l5.954,2.111l4.731,4.918l4.413,4.006l3.997,4.181l3.884,3.356l1.133,1.201
	l4.687,4.164l2.016,0.879l1.359,1.004l8.874,3.965l1.9-0.116l6.863-2.763l3.37-1.539l3.867-1.352l5.178-1.672l4.513-2.553
	l0.488-0.197l6.426-1.801l1.043,0.14l6.11,2.507l7.024-1.818l8.813-2.008l0.752-0.576l3.723-0.428L142.999,136.482z"/>
<path fill="#2AAAE2" stroke="#2E368F" stroke-width="1.25" stroke-linecap="round" stroke-linejoin="round" stroke-opacity="0.5" d="
	M136.746,61.867l0.075-0.354l0.046-0.215l0.821-3.852l-0.232-0.554l-0.799-1.903l-0.062-0.148l-0.01-0.019l-0.104-0.249l-0.302-0.72
	l-0.072-0.171l-0.782-0.585l-0.771-0.576l-0.106-0.079l-0.27-0.203l-0.858-0.641"/>
<path fill="#2AAAE2" stroke="#2E368F" stroke-width="1.25" stroke-linecap="round" stroke-linejoin="round" stroke-opacity="0.5" d="
	M137.131,65.322l0.058-2.459l-0.094-0.461l-0.135-0.651l-0.093-0.453"/>
<path fill="#2AAAE2" stroke="#2E368F" stroke-width="1.25" stroke-linecap="round" stroke-linejoin="round" stroke-opacity="0.5" d="
	M134.967,77.937l0.252-1.3l0.523-3.273l1.038-3.883l0.417-3.969l-0.067-0.19l-1.457-4.071"/>
<path fill="#2AAAE2" stroke="#2E368F" stroke-width="1.25" stroke-linecap="round" stroke-linejoin="round" stroke-opacity="0.5" d="
	M94.207,37.665l-3.651-1.383l-2.324-0.417"/>
<path fill="#2AAAE2" stroke="#2E368F" stroke-width="1.25" stroke-linecap="round" stroke-linejoin="round" stroke-opacity="0.5" d="
	M135.326,53.097l-0.272-1.012l-0.474-1.366l-0.048-0.14l-0.444-1.286"/>
<path fill="#2AAAE2" stroke="#2E368F" stroke-width="1.25" stroke-linecap="round" stroke-linejoin="round" stroke-opacity="0.5" d="
	M86.015,36.231l-4.729-1.385l-3.947-2.165l-1.184-0.649l-0.475-0.261"/>
<path fill="#2AAAE2" stroke="#2E368F" stroke-width="1.25" stroke-linecap="round" stroke-linejoin="round" stroke-opacity="0.5" d="
	M134.58,50.719l0.005-0.392"/>
<path fill="#2AAAE2" stroke="#2E368F" stroke-width="1.25" stroke-linecap="round" stroke-linejoin="round" stroke-opacity="0.5" d="
	M89.836,34.225l-3.363-0.76l-5.879-0.647"/>
<path fill="#2AAAE2" stroke="#2E368F" stroke-width="1.25" stroke-linecap="round" stroke-linejoin="round" stroke-opacity="0.5" d="
	M77.34,32.681l-2.099-1.473l-0.189-0.133l-0.288-0.203l-1.341-0.539l-3.52-1.033"/>
<path fill="#2AAAE2" stroke="#2E368F" stroke-width="1.25" stroke-linecap="round" stroke-linejoin="round" stroke-opacity="0.5" d="
	M132.827,84.226l1.188-2.303l0.382-0.742l0.07-0.141"/>
<path fill="#2AAAE2" stroke="#2E368F" stroke-width="1.25" stroke-linecap="round" stroke-linejoin="round" stroke-opacity="0.5" d="
	M74.763,30.872l-0.54-0.175l-0.446-0.144l-1.798-0.582l-1.295-0.42l-0.155-0.05L69.903,29.3l-3.736-1.203"/>
<path fill="#2AAAE2" stroke="#2E368F" stroke-width="1.25" stroke-linecap="round" stroke-linejoin="round" stroke-opacity="0.5" d="
	M134.149,82.766l0.92-2.991l-0.103-1.838l-0.077-1.382"/>
<path fill="#2AAAE2" stroke="#2E368F" stroke-width="1.25" stroke-linecap="round" stroke-linejoin="round" stroke-opacity="0.5" d="
	M134.014,81.923l0.375-0.696l0.514-0.955l0.167-0.497"/>
<path fill="#2AAAE2" stroke="#2E368F" stroke-width="1.25" stroke-linecap="round" stroke-linejoin="round" stroke-opacity="0.5" d="
	M76.888,31.911l-1.837-0.836"/>
<path fill="#2AAAE2" stroke="#2E368F" stroke-width="1.25" stroke-linecap="round" stroke-linejoin="round" stroke-opacity="0.5" d="
	M131.665,38.494l-0.007-0.211l-0.068-1.87l-1.674-1.307l-1.707-1.116l-1.778-1.279l-1.416-0.599"/>
<path fill="#2AAAE2" stroke="#2E368F" stroke-width="1.25" stroke-linecap="round" stroke-linejoin="round" stroke-opacity="0.5" d="
	M134.587,44.275l-0.437-1.509l-0.625-2.15l-0.909-1.136l-0.958-1.197"/>
<path fill="#2AAAE2" stroke="#2E368F" stroke-width="1.25" stroke-linecap="round" stroke-linejoin="round" stroke-opacity="0.5" d="
	M130.756,91.807l0.598-1.929l0.294-1.873"/>
<path fill="#2AAAE2" stroke="#2E368F" stroke-width="1.25" stroke-linecap="round" stroke-linejoin="round" stroke-opacity="0.5" d="
	M129.02,96.626l1.147-4.998"/>
<path fill="#2AAAE2" stroke="#2E368F" stroke-width="1.25" stroke-linecap="round" stroke-linejoin="round" stroke-opacity="0.5" d="
	M136.596,54.841l0.605-2.169l0.459-1.642l0.171-0.611l0.076-0.27l0.007-0.026l-0.656-2.183l-0.733-2.436l-0.107-0.14l-0.329-0.428
	l-0.125-0.163l-0.001-0.001l-0.391-0.508l-0.724-0.943l-0.011-0.011l-0.052-0.068l-0.305-0.397l-0.248-0.322"/>
<path fill="#2AAAE2" stroke="#2E368F" stroke-width="1.25" stroke-linecap="round" stroke-linejoin="round" stroke-opacity="0.5" d="
	M135.756,90.21l0.351-2.41l-1.056-3.29"/>
<path fill="#2AAAE2" stroke="#2E368F" stroke-width="1.25" stroke-linecap="round" stroke-linejoin="round" stroke-opacity="0.5" d="
	M133.939,94.378l-0.973-5.229"/>
<path fill="#2AAAE2" stroke="#2E368F" stroke-width="1.25" stroke-linecap="round" stroke-linejoin="round" stroke-opacity="0.5" d="
	M139.728,78.715l-0.005-1.099l-0.521-2.712"/>
<path fill="#2AAAE2" stroke="#2E368F" stroke-width="1.25" stroke-linecap="round" stroke-linejoin="round" stroke-opacity="0.5" d="
	M123.99,110.119l0.377-0.436l0.584-1.626"/>
<path fill="#2AAAE2" stroke="#2E368F" stroke-width="1.25" stroke-linecap="round" stroke-linejoin="round" stroke-opacity="0.5" d="
	M134.481,42.845l0.151-2.012l0.008-0.109l0.021-0.295l0.041-0.555l-0.162-3.084"/>
<path fill="#2AAAE2" stroke="#2E368F" stroke-width="1.25" stroke-linecap="round" stroke-linejoin="round" stroke-opacity="0.5" d="
	M136.657,54.989l0.347-1.364l0.198-0.953"/>
<path fill="#2AAAE2" stroke="#2E368F" stroke-width="1.25" stroke-linecap="round" stroke-linejoin="round" stroke-opacity="0.5" d="
	M135.627,94.248l-0.465-4.608"/>
<path fill="#2AAAE2" stroke="#2E368F" stroke-width="1.25" stroke-linecap="round" stroke-linejoin="round" stroke-opacity="0.5" d="
	M136.874,92.16l-0.123-4.764"/>
<path fill="#2AAAE2" stroke="#2E368F" stroke-width="1.25" stroke-linecap="round" stroke-linejoin="round" stroke-opacity="0.5" d="
	M28.581,91.4l1.045,4.926l0.929,3.248l2.369,4.322l3.739,3.091l0.792,0.716"/>
<path fill="#2AAAE2" stroke="#2E368F" stroke-width="1.25" stroke-linecap="round" stroke-linejoin="round" stroke-opacity="0.5" d="
	M135.963,44.773l-0.745-2.286l-0.235-0.721l-0.004-0.012l-0.022-0.067l-0.313-0.963"/>
<path fill="#2AAAE2" stroke="#2E368F" stroke-width="1.25" stroke-linecap="round" stroke-linejoin="round" stroke-opacity="0.5" d="
	M138.354,85.891l0.386-3.687l0.987-3.49l0.97-2.784l-0.249-3.559l-0.401-2.349l-0.563-3.17l-1.24-2.879l-0.146-0.27l-1.137-1.953"/>
<path fill="#2AAAE2" stroke="#2E368F" stroke-width="1.25" stroke-linecap="round" stroke-linejoin="round" stroke-opacity="0.5" d="
	M137.456,56.892l0.79-2.539l0.194-2.188l0.028-0.312l-0.028-0.36l-0.043-0.563l-0.011-0.133l-0.35-4.508l-1.813-2.443l-0.475-0.637
	l-0.035-0.048l-0.148-0.201l-0.352-0.473"/>
<path fill="#2AAAE2" stroke="#2E368F" stroke-width="1.25" stroke-linecap="round" stroke-linejoin="round" stroke-opacity="0.5" d="
	M134.981,41.766l0.162-1.89l0.096-1.107"/>
<path fill="#2AAAE2" stroke="#2E368F" stroke-width="1.25" stroke-linecap="round" stroke-linejoin="round" stroke-opacity="0.5" d="
	M136.359,34.398l-0.105-0.62l-0.103-0.611l-1.369-2.545l-1.371-3.449l-1.958-3.119l-0.167-0.753"/>
<path fill="#2AAAE2" stroke="#2E368F" stroke-width="1.25" stroke-linecap="round" stroke-linejoin="round" stroke-opacity="0.5" d="
	M104.601,9.873l-2.037-0.687l-1.816-1.185l-4.356-0.676l-4.918-1.394l-2.342-0.115l-3.893,0.37l-2.063,0.631l-1.704,0.521
	l-0.901-0.212l-2.549-0.602l-4.04-1.453l-3.542,1.278L70.39,6.366l-0.742,0.268l-3.571,0.765l-2.037,0.987l-2.334,0.222
	l-2.219-0.639l-2.367,1.373"/>
<path fill="#2AAAE2" stroke="#2E368F" stroke-width="1.25" stroke-linecap="round" stroke-linejoin="round" stroke-opacity="0.5" d="
	M136.226,43.846l0.407-3.025l0.392-2.889l0.14-2.218l-0.91-1.936"/>
<path fill="#2AAAE2" stroke="#2E368F" stroke-width="1.25" stroke-linecap="round" stroke-linejoin="round" stroke-opacity="0.5" d="
	M57.606,9.312l-0.488,0.03l-3.55,0.215l-1.502,0.728l-4.162,2.671l-0.47,0.302"/>
<path fill="#2AAAE2" stroke="#2E368F" stroke-width="1.25" stroke-linecap="round" stroke-linejoin="round" stroke-opacity="0.5" d="
	M129.228,17.038l-1.361-3.369l-0.056-0.138l-0.215-0.494l-1.178-2.689l-0.297-0.68l-0.82-1.882"/>
<path fill="#2AAAE2" stroke="#2E368F" stroke-width="1.25" stroke-linecap="round" stroke-linejoin="round" stroke-opacity="0.5" d="
	M83.174,6.817l-2.604,0.309"/>
<path fill="#2AAAE2" stroke="#2E368F" stroke-width="1.25" stroke-linecap="round" stroke-linejoin="round" stroke-opacity="0.5" d="
	M140.778,57.202l-1.076-3.175l-0.44-1.083l-0.704-1.729l-0.171-0.418"/>
<path fill="#2AAAE2" stroke="#2E368F" stroke-width="1.25" stroke-linecap="round" stroke-linejoin="round" stroke-opacity="0.5" d="
	M105.922,145.218l0.49-0.189l0.952-0.369l0.377-0.146l2.413-0.935l1.355-0.537"/>
<path fill="#2AAAE2" stroke="#2E368F" stroke-width="1.25" stroke-linecap="round" stroke-linejoin="round" stroke-opacity="0.5" d="
	M47.904,12.956l-3.984,2.247l-3.65,1.738l-4.014,1.581l-3.403,2.519"/>
<path fill="#2AAAE2" stroke="#2E368F" stroke-width="1.25" stroke-linecap="round" stroke-linejoin="round" stroke-opacity="0.5" d="
	M132.805,29.864l-0.162-0.19l-0.017-0.017l-0.232-0.275l-0.314-0.368l-1.453-1.707l0.183-1.051l0.034-0.203l0.438-2.54l0.006-0.212
	l0.109-3.858l-0.445-4.1l-2.993-3.64l-0.169-0.205l-0.304-0.835l-1.895-5.208l-4.871-1.886l-1.201-0.582l-3.214-1.104l-3.409-1.258
	l-8.723,1.015L97.879,2.4l-0.705,0.042l-5.309,0.311"/>
<path fill="#2AAAE2" stroke="#2E368F" stroke-width="1.25" stroke-linecap="round" stroke-linejoin="round" stroke-opacity="0.5" d="
	M152.032,99.324l-1.348-2.031l-0.849-1.274l-3.712-5.57"/>
<path fill="#2AAAE2" stroke="#2E368F" stroke-width="1.25" stroke-linecap="round" stroke-linejoin="round" stroke-opacity="0.5" d="
	M149.31,69.947l-0.812-1.254l-0.125-0.194l-0.593-0.918l-2.263-2.702l-2.19-2.254l-0.173-0.178l-0.211-0.217"/>
<path fill="#2AAAE2" stroke="#2E368F" stroke-width="1.25" stroke-linecap="round" stroke-linejoin="round" stroke-opacity="0.5" d="
	M28.891,113.63l-0.588-0.17l-0.079-0.023l-2.575-0.746l-0.563-0.163l-0.007-0.002l-0.276-0.08l-0.049-0.014l-0.037-0.011
	l-0.078-0.023l-0.503-0.146l-0.302-0.086l-2.257-0.654l-1.968-2.026l3.798,1.679l0.077,0.034l0.063,0.022l0.535,0.191l0.102,0.035
	l0.1,0.036l0.129,0.046l0.084,0.029l1,0.357l1.109,0.396"/>
<path fill="#2AAAE2" stroke="#2E368F" stroke-width="1.25" stroke-linecap="round" stroke-linejoin="round" stroke-opacity="0.5" d="
	M12.404,97.116l0.084,0.281l0.974,3.263l0.073,0.243l0.532,0.933l0.007,0.014l0.453,0.795l0.825,1.451l0.058,0.102l0.055,0.096
	l0.416,0.521l0.666,0.832l3.063,3.839"/>
<path fill="#2AAAE2" stroke="#2E368F" stroke-width="1.25" stroke-linecap="round" stroke-linejoin="round" stroke-opacity="0.5" d="
	M70.438,6.349l-0.223-0.073"/>
<path fill="#2AAAE2" stroke="#2E368F" stroke-width="1.25" stroke-linecap="round" stroke-linejoin="round" stroke-opacity="0.5" d="
	M103.268,6.336l-5.303-2.195l-0.506-0.209l-0.165-0.068l-2.236-0.403l-0.352,0.01l-3.098,0.081l-1.363,0.036"/>
<path fill="#2AAAE2" stroke="#2E368F" stroke-width="1.25" stroke-linecap="round" stroke-linejoin="round" stroke-opacity="0.5" d="
	M143.328,62.625l-1.09-2.622l-0.551-2.985l-3.131-5.803"/>
<path fill="#2AAAE2" stroke="#2E368F" stroke-width="1.25" stroke-linecap="round" stroke-linejoin="round" stroke-opacity="0.5" d="
	M157.224,117.257l0.025,0.617l-1.467,7.381l-0.271-5.541L157.224,117.257l1.675-2.404l-2.078-5.865l-0.027-0.078l-1.711-4.888
	l-2.812-4.444l-0.187-0.197l-0.053-0.057l-0.323-0.343l-0.784-0.836l-1.781-1.897"/>
<path fill="#2AAAE2" stroke="#2E368F" stroke-width="1.25" stroke-linecap="round" stroke-linejoin="round" stroke-opacity="0.5" d="
	M98.204,145.268l3.235,0.97l0.174,0.053l0.033,0.01l1.646,0.494l0.166,0.05l4.313-1.411l0.189-0.053l0.007-0.002l0.274-0.076
	l0.604-0.168l4.811-1.342l0.088-0.024"/>
<path fill="#2AAAE2" stroke="#2E368F" stroke-width="1.25" stroke-linecap="round" stroke-linejoin="round" stroke-opacity="0.5" d="
	M152.085,99.38l-1.479-2.363"/>
<path fill="#2AAAE2" stroke="#2E368F" stroke-width="1.25" stroke-linecap="round" stroke-linejoin="round" stroke-opacity="0.5" d="
	M115.407,143.037l-0.337,0.147l-1.325,0.584l0.646-0.435l0.148-0.102l3.116-2.098l1.42-1.01"/>
<path fill="#2AAAE2" stroke="#2E368F" stroke-width="1.25" stroke-linecap="round" stroke-linejoin="round" stroke-opacity="0.5" d="
	M80.104,152.542l6.644-1.58"/>
<path fill="#2AAAE2" stroke="#2E368F" stroke-width="1.25" stroke-linecap="round" stroke-linejoin="round" stroke-opacity="0.5" d="
	M94.707,3.471l-2.353-0.358l-1.382,0.278l-1.279,0.258l-3.922,0.789"/>
<path fill="#2AAAE2" stroke="#2E368F" stroke-width="1.25" stroke-linecap="round" stroke-linejoin="round" stroke-opacity="0.5" d="
	M25.08,112.526l0.794,1.609l2.063,4.177"/>
<path fill="#2AAAE2" stroke="#2E368F" stroke-width="1.25" stroke-linecap="round" stroke-linejoin="round" stroke-opacity="0.5" d="
	M9.453,89.802l0.11,1.13l0.146,1.512l0.151,1.544l0.069,0.119l2.97,5.107"/>
<path fill="#2AAAE2" stroke="#2E368F" stroke-width="1.25" stroke-linecap="round" stroke-linejoin="round" stroke-opacity="0.5" d="
	M9.396,40.319l-1.354,2.505l-1.564,3.113l-1.975,3.922l-0.053,0.104"/>
<path fill="#2AAAE2" stroke="#2E368F" stroke-width="1.25" stroke-linecap="round" stroke-linejoin="round" stroke-opacity="0.5" d="
	M62.715,4.628l-5.633,0.893"/>
<path fill="#2AAAE2" stroke="#2E368F" stroke-width="1.25" stroke-linecap="round" stroke-linejoin="round" stroke-opacity="0.5" d="
	M100.489,146.407l0.642-0.059l0.517-0.048"/>
<path fill="#2AAAE2" stroke="#2E368F" stroke-width="1.25" stroke-linecap="round" stroke-linejoin="round" stroke-opacity="0.5" d="
	M40.312,130.001l5.346,3.065l1.271,0.435"/>
<path fill="#2AAAE2" stroke="#2E368F" stroke-width="1.25" stroke-linecap="round" stroke-linejoin="round" stroke-opacity="0.5" d="
	M0.625,55.604l1.229,6.017l0.688,6.705l-1.339,5.32l0.271,1.412l1.753,4.635l2.824,3.484l0.063,0.078l0.509,0.813l0.119,0.189
	l0.188,0.302l0.133,0.211l0.234,0.376l0.198,0.318l0.088,0.141l0.513,0.816l0.06,0.097"/>
<path fill="#2AAAE2" stroke="#2E368F" stroke-width="1.25" stroke-linecap="round" stroke-linejoin="round" stroke-opacity="0.5" d="
	M13.056,101.269l1.699,2.458l0.057,0.079l0.491,0.712l0.438,0.633l0.806,0.495"/>
<path fill="#2AAAE2" stroke="#2E368F" stroke-width="1.25" stroke-linecap="round" stroke-linejoin="round" stroke-opacity="0.5" d="
	M4.502,49.859l-3.877,5.745l0.654,2.64l2.404,5.512"/>
<path fill="#2AAAE2" stroke="#2E368F" stroke-width="1.25" stroke-linecap="round" stroke-linejoin="round" stroke-opacity="0.5" d="
	M82.149,153.921l6.137-2.067"/>
<path fill="#2AAAE2" stroke="#2E368F" stroke-width="1.25" stroke-linecap="round" stroke-linejoin="round" stroke-opacity="0.5" d="
	M24.754,112.432l0.112,0.169l1.008,1.534"/>
<path fill="#2AAAE2" stroke="#2E368F" stroke-width="1.25" stroke-linecap="round" stroke-linejoin="round" stroke-opacity="0.5" d="
	M25.676,27.399l-4.421,0.293l-2.756,1.031l-0.045,0.016l-4.55,3.217l-2.596,2.715l-1.918,2.207l-2.915,9.059"/>
<path fill="#2AAAE2" stroke="#2E368F" stroke-width="1.25" stroke-linecap="round" stroke-linejoin="round" stroke-opacity="0.5" d="
	M113.657,143.792l3.836-0.828"/>
<path fill="#2AAAE2" stroke="#2E368F" stroke-width="1.25" stroke-linecap="round" stroke-linejoin="round" stroke-opacity="0.5" d="
	M157.283,78.876l-1.381-4.209l-0.939-2.864l-2.216-1.48l-2.854-1.908L148,66.418l-0.188-0.199l-1.457-1.538"/>
<path fill="#2AAAE2" stroke="#2E368F" stroke-width="1.25" stroke-linecap="round" stroke-linejoin="round" stroke-opacity="0.5" d="
	M101.47,3.366l-4.011,0.566"/>
<path fill="#2AAAE2" stroke="#2E368F" stroke-width="1.25" stroke-linecap="round" stroke-linejoin="round" stroke-opacity="0.5" d="
	M141.873,56.233l-1.459-4.47l-1.124-1.931"/>
<path fill="#2AAAE2" stroke="#2E368F" stroke-width="1.25" stroke-linecap="round" stroke-linejoin="round" stroke-opacity="0.5" d="
	M6.741,84.257l0.183,0.396l0.146,0.312l0.412,0.89l0.433,0.933l0.652,2.567l0.457,1.798l0.856,4.764l0.009,0.039l0.102,0.565
	l0.13,0.722"/>
<path fill="#2AAAE2" stroke="#2E368F" stroke-width="1.25" stroke-linecap="round" stroke-linejoin="round" stroke-opacity="0.5" d="
	M127.957,11.703l0.031-0.672l-0.504-0.368"/>
<path fill="#2AAAE2" stroke="#2E368F" stroke-width="1.25" stroke-linecap="round" stroke-linejoin="round" stroke-opacity="0.5" d="
	M90.973,3.391l-1.858-0.47l-5.396,0.326"/>
<path fill="#2AAAE2" stroke="#2E368F" stroke-width="1.25" stroke-linecap="round" stroke-linejoin="round" stroke-opacity="0.5" d="
	M85.573,153.944l1.967-0.687l3.867-1.352l5.178-1.672l4.514-2.553l0.487-0.197l1.707-0.689"/>
<path fill="#2AAAE2" stroke="#2E368F" stroke-width="1.25" stroke-linecap="round" stroke-linejoin="round" stroke-opacity="0.5" d="
	M45.117,11.622l-6.527,2.664"/>
<path fill="#2AAAE2" stroke="#2E368F" stroke-width="1.25" stroke-linecap="round" stroke-linejoin="round" stroke-opacity="0.5" d="
	M13.467,102.931l1.345,0.875"/>
<path fill="#2AAAE2" stroke="#2E368F" stroke-width="1.25" stroke-linecap="round" stroke-linejoin="round" stroke-opacity="0.5" d="
	M84.666,2.789L80.54,3.38l-2.199,0.315l-5.289-0.627l-4.522-2.191l-0.479-0.1l-3.826,1.285L64.127,2.11l-5.058,2.51h-0.848
	l-6.522-0.004L49.682,5.52l-1.896,1.647"/>
<path fill="#2AAAE2" stroke="#2E368F" stroke-width="1.25" stroke-linecap="round" stroke-linejoin="round" stroke-opacity="0.5" d="
	M51.698,4.616l-3.914,2.551l-0.179,0.117l-1.918,1.704l-6.192,4.173l-4.262,2.154l-3.68,1.985l-2.709,1.698l-6.078,4.71L18.5,28.723
	"/>
<path fill="#2AAAE2" stroke="#2E368F" stroke-width="1.25" stroke-linecap="round" stroke-linejoin="round" stroke-opacity="0.5" d="
	M107.963,145.38l0.024,0.006l3.191,0.723l2.493,0.566"/>
<path fill="#2AAAE2" stroke="#2E368F" stroke-width="1.25" stroke-linecap="round" stroke-linejoin="round" stroke-opacity="0.5" d="
	M24.639,112.398l0.119,0.787l0.302,1.982l0.446,2.94l3.782,3.213l5.068,6.569l5.954,2.111l4.731,4.918l4.413,4.006l3.997,4.181
	l3.884,3.356"/>
<path fill="#2AAAE2" stroke="#2E368F" stroke-width="1.25" stroke-linecap="round" stroke-linejoin="round" stroke-opacity="0.5" d="
	M146.136,131.397l2.446-2.978l3.534-4.445"/>
<path fill="#2AAAE2" stroke="#2E368F" stroke-width="1.25" stroke-linecap="round" stroke-linejoin="round" stroke-opacity="0.5" d="
	M68.947,154.354l-3.775-1.647l-2.016-0.879l2.001,0.869l0.773,0.335l1.284,0.294l2.981,0.68l0.572,0.13l0.697,0.159"/>
<path fill="#2AAAE2" stroke="#2E368F" stroke-width="1.25" stroke-linecap="round" stroke-linejoin="round" stroke-opacity="0.5" d="
	M6.051,83.177l0.676,1.509l0.211,0.469l0.152,0.339l0.373,0.834l0.418,0.933L7.748,89.58l-0.107,1.922v0.002l-0.063,1.082
	l-0.063,1.136l2.077,5.364l4.724,4.928l0.988,0.505"/>
<path fill="#2AAAE2" stroke="#2E368F" stroke-width="1.25" stroke-linecap="round" stroke-linejoin="round" stroke-opacity="0.5" d="
	M156.017,106.304l0.284-2.26l0.938-7.434l2.369-9.395l-0.672-6.581l-3.033-5.968"/>
<path fill="#2AAAE2" stroke="#2E368F" stroke-width="1.25" stroke-linecap="round" stroke-linejoin="round" stroke-opacity="0.5" d="
	M128.573,144.292l3.183-0.365l3.723-0.428l7.521-7.018l3.138-5.085l9.646-6.142"/>
<path fill="#2AAAE2" stroke="#2E368F" stroke-width="1.25" stroke-linecap="round" stroke-linejoin="round" stroke-opacity="0.5" d="
	M64.125,2.11l-1.939,0.36l-3.964,2.15"/>
<path fill="#2AAAE2" stroke="#2E368F" stroke-width="1.25" stroke-linecap="round" stroke-linejoin="round" stroke-opacity="0.5" d="
	M23.834,112.166l0.604,1.979l0.623,1.023"/>
<path fill="#2AAAE2" stroke="#2E368F" stroke-width="1.25" stroke-linecap="round" stroke-linejoin="round" stroke-opacity="0.5" d="
	M56.235,145.292l1.103,1.17l1.134,1.201l4.686,4.164"/>
<path fill="#2AAAE2" stroke="#2E368F" stroke-width="1.25" stroke-linecap="round" stroke-linejoin="round" stroke-opacity="0.5" d="
	M152.747,70.323l-0.964-1.31l-4.261-5.03l-2.214-5.928l-2.063-3.117l-2.035-3.076l-0.907-3.104l-0.915-3.123l-2.755-4.814"/>
<path fill="#2AAAE2" stroke="#2E368F" stroke-width="1.25" stroke-linecap="round" stroke-linejoin="round" stroke-opacity="0.5" d="
	M65.172,152.707l1.359,1.004l8.874,3.965l1.9-0.116l6.864-2.763l3.369-1.539"/>
<path fill="#2AAAE2" stroke="#2E368F" stroke-width="1.25" stroke-linecap="round" stroke-linejoin="round" stroke-opacity="0.5" d="
	M107.987,145.386l1.067,0.437l6.109,2.507l7.024-1.818l8.813-2.008l0.752-0.576"/>
<path fill="#2AAAE2" stroke="#2E368F" stroke-width="1.25" stroke-linecap="round" stroke-linejoin="round" stroke-opacity="0.5" d="
	M97.174,2.442L93.084,2.4l-6.798-1.523L80.54,3.38"/>
<path fill="#2AAAE2" stroke="#2E368F" stroke-width="1.25" stroke-linecap="round" stroke-linejoin="round" stroke-opacity="0.5" d="
	M6.727,84.686l0.232,1.378l0.193,1.141l0.224,1.323l0.002,0.013l0.37,1.039"/>
<path fill="#2AAAE2" stroke="#2E368F" stroke-width="1.25" stroke-linecap="round" stroke-linejoin="round" stroke-opacity="0.5" d="
	M156.793,108.91l-0.491-4.865"/>
<path fill="#2AAAE2" stroke="#2E368F" stroke-width="1.25" stroke-linecap="round" stroke-linejoin="round" stroke-opacity="0.5" d="
	M143.246,54.938l-2.017-4.376l-0.927-1.804"/>
<path fill="#2AAAE2" stroke="#2E368F" stroke-width="1.25" stroke-linecap="round" stroke-linejoin="round" stroke-opacity="0.5" d="
	M101.586,147.484l6.427-1.801l1.043,0.14"/>
<path fill="#2AAAE2" stroke="#2E368F" stroke-width="1.25" stroke-linecap="round" stroke-linejoin="round" stroke-opacity="0.5" d="
	M7.153,87.205l0.135,3.604l0.354,0.695"/>
<path fill="#2AAAE2" stroke="#2E368F" stroke-width="1.25" stroke-linecap="round" stroke-linejoin="round" stroke-opacity="0.5" d="
	M6.96,86.064l0.146,5.746l0.475,0.775"/>
</svg>
