<?xml version="1.0" encoding="utf-8"?>
<!-- Generator: Adobe Illustrator 16.0.0, SVG Export Plug-In . SVG Version: 6.00 Build 0)  -->
<!DOCTYPE svg PUBLIC "-//W3C//DTD SVG 1.1//EN" "http://www.w3.org/Graphics/SVG/1.1/DTD/svg11.dtd">
<svg version="1.1" id="Layer_1" xmlns="http://www.w3.org/2000/svg" xmlns:xlink="http://www.w3.org/1999/xlink" x="0px" y="0px"
	 width="190.486px" height="177.674px" viewBox="0 0 190.486 177.674" enable-background="new 0 0 190.486 177.674"
	 xml:space="preserve">
<path fill="#2AAAE2" stroke="#2E368F" stroke-miterlimit="10" d="M175.603,29.401l-4.117-3.848l0.378-3.045l-4.753-2.623
	l1.462-10.88l-10.851-2.458L156.4,5.3l-7.563-0.766l-3.989-0.904l-9.658-0.981l-7.65-0.642L124.554,3.2l-3.203-1.242l-7.459,0.323
	L109.894,2.1l-4.229-1.253l-2.713,0.634L97.24,0.625l-2.205,3.864l-0.837-0.108L91.069,4.13l-3.706,0.684l-3.846,3.005L83.07,7.82
	l-6.361,1.807l-1.595,0.278l-5.325-0.189l-8.809,4.472l-4.552,1.589l-6.096-0.665l-5.599,0.85l-3.875,2.054l-10.877,1.047
	l-5.64,5.251l-4.319,3.397l-5.871,8.052l-1.288,2.33l-0.588,5.913l-3.783,6.651l-4.143,7.201l0.191,1.118l-1.717,7.127l0.454,7.56
	l-2.143,8.66l0.949,7.58l-1.461,8.489l0.182,1.317l4.33,7.561l1.942,2.215l0.775,1.342l2.684,5.404l2.976,4.988l2.651,3.939
	l-0.037,0.815l1.438,4.06l2.278,4.19l8.43,9.13l2.771,4.688l4.105,4.485l5.271,5.475l6.565,4.693l9.694,1.377l5.859,3.569
	l0.975,0.247l2.412,1.768l7.454,3.057l11.445,4.336l4.093-1.656l0.203,0.092l5.887-1.545l3.034-0.317l2.903-0.058l2.965-2.27
	l2.954,0.041l0.996-0.209l7.434-0.863l0.999-0.878l6.025-1.19l6.006-4.613l2.67-3.284l0.064-0.033l4.525-3.356l4.752-1.849
	l5.201-3.983l3.313-3.411l5.446-1.638l6.318-5.601l5.559-4.235l2.727-4.828l2.088-6.184l0.196-1.376l2.192-6.696l1.205-4.401
	l4.417-5.597l3.013-5.555l0.503-0.646l0.762-1.685l3.201-9.261l-0.415-3.473l-0.094-1.906l0.842-1.327l3.046-6.186l-0.79-7.316
	l-4.884-6.327l0.165-2.759l-2.422-9.719l-0.146-8.693l-1.946-7.702L175.603,29.401z"/>
<path fill="#2AAAE2" stroke="#2E368F" stroke-width="1.25" stroke-linecap="round" stroke-linejoin="round" stroke-opacity="0.5" d="
	M97.646,61.205l1.52,0.152"/>
<path fill="#2AAAE2" stroke="#2E368F" stroke-width="1.25" stroke-linecap="round" stroke-linejoin="round" stroke-opacity="0.5" d="
	M126.07,64.486l5.04-8.092l3.542-6.482l0.217-3.896l0.017-0.304l0.007-0.091l0.01-0.174l0.006-0.114l0.005-0.082l0.052-0.925"/>
<path fill="#2AAAE2" stroke="#2E368F" stroke-width="1.25" stroke-linecap="round" stroke-linejoin="round" stroke-opacity="0.5" d="
	M128.089,30.972l3.564,1.249l3.148,4.685l0.08,3.678l0.051,2.35l0.028,1.329l0.002,0.064l0.069-1.302l0.109-2.056l-0.261-0.385"/>
<path fill="#2AAAE2" stroke="#2E368F" stroke-width="1.25" stroke-linecap="round" stroke-linejoin="round" stroke-opacity="0.5" d="
	M128.478,31.538l-0.39-0.566l-2.221-3.246l-2.021-0.501l-4.698-0.821l-2.465-0.43l-0.052-0.009l-1.086-0.19"/>
<path fill="#2AAAE2" stroke="#2E368F" stroke-width="1.25" stroke-linecap="round" stroke-linejoin="round" stroke-opacity="0.5" d="
	M135.311,46.223l0.006-1.766l-0.063-1.227l-0.11-2.261"/>
<path fill="#2AAAE2" stroke="#2E368F" stroke-width="1.25" stroke-linecap="round" stroke-linejoin="round" stroke-opacity="0.5" d="
	M139.994,49.21l-2.536-0.745l-2.135-2.228l-0.013-0.014"/>
<path fill="#2AAAE2" stroke="#2E368F" stroke-width="1.25" stroke-linecap="round" stroke-linejoin="round" stroke-opacity="0.5" d="
	M97.076,30.279l-1.081-0.003h-0.02h-0.032l-0.234-0.001l-2.702-0.007"/>
<path fill="#2AAAE2" stroke="#2E368F" stroke-width="1.25" stroke-linecap="round" stroke-linejoin="round" stroke-opacity="0.5" d="
	M135.323,46.237l0.058-2.891l-0.126-0.116"/>
<path fill="#2AAAE2" stroke="#2E368F" stroke-width="1.25" stroke-linecap="round" stroke-linejoin="round" stroke-opacity="0.5" d="
	M97.558,27.839l-0.808,1.063l-0.509,0.671l-0.533,0.702"/>
<path fill="#2AAAE2" stroke="#2E368F" stroke-width="1.25" stroke-linecap="round" stroke-linejoin="round" stroke-opacity="0.5" d="
	M99.208,24.545l-1.33,1.186l-1.636,3.842"/>
<path fill="#2AAAE2" stroke="#2E368F" stroke-width="1.25" stroke-linecap="round" stroke-linejoin="round" stroke-opacity="0.5" d="
	M91.683,31.215l1.323-0.947l-0.799,0.947l-1.104,1.308l-2.899,0.516"/>
<path fill="#2AAAE2" stroke="#2E368F" stroke-width="1.25" stroke-linecap="round" stroke-linejoin="round" stroke-opacity="0.5" d="
	M119.149,26.404l-2.252-1.902l-0.152-0.128l-0.698-0.203l-7.732-2.243l-4.987-1.075l-1.297-0.28l-4.99,2.825l-3.618,3.171"/>
<path fill="#2AAAE2" stroke="#2E368F" stroke-width="1.25" stroke-linecap="round" stroke-linejoin="round" stroke-opacity="0.5" d="
	M105.354,20.032l-3.324,0.541"/>
<path fill="#2AAAE2" stroke="#2E368F" stroke-width="1.25" stroke-linecap="round" stroke-linejoin="round" stroke-opacity="0.5" d="
	M136.591,110.931l1.374-5.247"/>
<path fill="#2AAAE2" stroke="#2E368F" stroke-width="1.25" stroke-linecap="round" stroke-linejoin="round" stroke-opacity="0.5" d="
	M137.27,113.344l-0.68-2.413l-0.004-0.014l-0.724-2.576"/>
<path fill="#2AAAE2" stroke="#2E368F" stroke-width="1.25" stroke-linecap="round" stroke-linejoin="round" stroke-opacity="0.5" d="
	M63.992,65.988l-1.021,2.078l-0.187,4.082l-0.927,5.192"/>
<path fill="#2AAAE2" stroke="#2E368F" stroke-width="1.25" stroke-linecap="round" stroke-linejoin="round" stroke-opacity="0.5" d="
	M157,77.44l-0.383-3.177l0.154-1.46l0.172-1.625l-1.138-3.589"/>
<path fill="#2AAAE2" stroke="#2E368F" stroke-width="1.25" stroke-linecap="round" stroke-linejoin="round" stroke-opacity="0.5" d="
	M134.561,134.101l0.865-2.926l1.021-3.411"/>
<path fill="#2AAAE2" stroke="#2E368F" stroke-width="1.25" stroke-linecap="round" stroke-linejoin="round" stroke-opacity="0.5" d="
	M108.789,17.018l-1.286,0.117l-5.247,0.477l-1.49,0.538l-0.343,0.123l-3.194,1.153"/>
<path fill="#2AAAE2" stroke="#2E368F" stroke-width="1.25" stroke-linecap="round" stroke-linejoin="round" stroke-opacity="0.5" d="
	M156.837,73.159l0.106-1.981"/>
<path fill="#2AAAE2" stroke="#2E368F" stroke-width="1.25" stroke-linecap="round" stroke-linejoin="round" stroke-opacity="0.5" d="
	M139.64,123.564l-0.065-3.447l-0.59-2.692"/>
<path fill="#2AAAE2" stroke="#2E368F" stroke-width="1.25" stroke-linecap="round" stroke-linejoin="round" stroke-opacity="0.5" d="
	M143.62,36.214l-0.262-0.251l-1.265-1.611l-1.213-1.968l-2.241-0.51"/>
<path fill="#2AAAE2" stroke="#2E368F" stroke-width="1.25" stroke-linecap="round" stroke-linejoin="round" stroke-opacity="0.5" d="
	M163.993,54.134l-0.111-1.35l-0.146-1.795l-0.166-2.012l-0.663-2.714l-2.122-3.204l-0.019-0.028l-0.479-0.221l-3.213-1.488
	l-3.29-0.16"/>
<path fill="#2AAAE2" stroke="#2E368F" stroke-width="1.25" stroke-linecap="round" stroke-linejoin="round" stroke-opacity="0.5" d="
	M58.561,80.138l-0.534,1.934l-0.149,2.16"/>
<path fill="#2AAAE2" stroke="#2E368F" stroke-width="1.25" stroke-linecap="round" stroke-linejoin="round" stroke-opacity="0.5" d="
	M138.219,29.723l-1.043-0.979l-1.049-1.566l-1.734-0.586l-1.341-0.136l-2.273-0.169l-1.823-0.012l-2.202-0.864l-1.127,0.107
	l-2.115-0.528l-1.186-0.501l-1.052-0.444l-1.821-0.636l-0.438-0.153l-0.978-0.341l-4.562-2.333"/>
<path fill="#2AAAE2" stroke="#2E368F" stroke-width="1.25" stroke-linecap="round" stroke-linejoin="round" stroke-opacity="0.5" d="
	M114.379,20.59l-2.595-1.951l-2.395-1.801l-1.888,0.297"/>
<path fill="#2AAAE2" stroke="#2E368F" stroke-width="1.25" stroke-linecap="round" stroke-linejoin="round" stroke-opacity="0.5" d="
	M122.324,24.489l-0.721-0.82l-2.152-0.26"/>
<path fill="#2AAAE2" stroke="#2E368F" stroke-width="1.25" stroke-linecap="round" stroke-linejoin="round" stroke-opacity="0.5" d="
	M78.634,21.205l-0.135-0.01l-3.595-0.263l-0.544-0.04l-3.33-0.28"/>
<path fill="#2AAAE2" stroke="#2E368F" stroke-width="1.25" stroke-linecap="round" stroke-linejoin="round" stroke-opacity="0.5" d="
	M111.706,147.9l4.569-1.101"/>
<path fill="#2AAAE2" stroke="#2E368F" stroke-width="1.25" stroke-linecap="round" stroke-linejoin="round" stroke-opacity="0.5" d="
	M119.015,23.256l-3.068-3.668l-4.161-0.949"/>
<path fill="#2AAAE2" stroke="#2E368F" stroke-width="1.25" stroke-linecap="round" stroke-linejoin="round" stroke-opacity="0.5" d="
	M100.765,18.15l-1.073,0.153"/>
<path fill="#2AAAE2" stroke="#2E368F" stroke-width="1.25" stroke-linecap="round" stroke-linejoin="round" stroke-opacity="0.5" d="
	M169.677,67.217l0.522-6.185l-2.554-6.093l-0.172-0.409l-3.739-3.541"/>
<path fill="#2AAAE2" stroke="#2E368F" stroke-width="1.25" stroke-linecap="round" stroke-linejoin="round" stroke-opacity="0.5" d="
	M82.202,18.957l-4.404-0.087l-2.894,2.062"/>
<path fill="#2AAAE2" stroke="#2E368F" stroke-width="1.25" stroke-linecap="round" stroke-linejoin="round" stroke-opacity="0.5" d="
	M164.664,89.843l0.697-3.193l0.896-2.649l-0.134-1.973l-0.01-0.157l-0.189-0.558l-0.149-0.446l-1.013-2.527l0.422-3.167l0.078-2.825
	"/>
<path fill="#2AAAE2" stroke="#2E368F" stroke-width="1.25" stroke-linecap="round" stroke-linejoin="round" stroke-opacity="0.5" d="
	M50.4,45.89l-4.163-1.214"/>
<path fill="#2AAAE2" stroke="#2E368F" stroke-width="1.25" stroke-linecap="round" stroke-linejoin="round" stroke-opacity="0.5" d="
	M166.125,82.028l0.224-2.612l-0.454-2.242"/>
<path fill="#2AAAE2" stroke="#2E368F" stroke-width="1.25" stroke-linecap="round" stroke-linejoin="round" stroke-opacity="0.5" d="
	M160.783,43.059l-0.033-0.388l-0.521-1.012"/>
<path fill="#2AAAE2" stroke="#2E368F" stroke-width="1.25" stroke-linecap="round" stroke-linejoin="round" stroke-opacity="0.5" d="
	M165.72,92.126l0.119-0.306l0.001-0.004l0.977-2.492"/>
<path fill="#2AAAE2" stroke="#2E368F" stroke-width="1.25" stroke-linecap="round" stroke-linejoin="round" stroke-opacity="0.5" d="
	M153.59,32.217l-2.17-2.487l-2.099-1.581l-0.94-0.707l-3.383-0.022"/>
<path fill="#2AAAE2" stroke="#2E368F" stroke-width="1.25" stroke-linecap="round" stroke-linejoin="round" stroke-opacity="0.5" d="
	M167.534,99.661l0.52-4.128l-2.214-3.717"/>
<path fill="#2AAAE2" stroke="#2E368F" stroke-width="1.25" stroke-linecap="round" stroke-linejoin="round" stroke-opacity="0.5" d="
	M99.813,160.439l3.852-0.041l5.044-1.115l2.552-1.297l2.251-0.121"/>
<path fill="#2AAAE2" stroke="#2E368F" stroke-width="1.25" stroke-linecap="round" stroke-linejoin="round" stroke-opacity="0.5" d="
	M149.599,28.196l-1.218-0.754"/>
<path fill="#2AAAE2" stroke="#2E368F" stroke-width="1.25" stroke-linecap="round" stroke-linejoin="round" stroke-opacity="0.5" d="
	M169.92,73.205l1.116-3.32l0.491-6.375l-1.323-4.057l-1.997-5.552l-1.17-2.339"/>
<path fill="#2AAAE2" stroke="#2E368F" stroke-width="1.25" stroke-linecap="round" stroke-linejoin="round" stroke-opacity="0.5" d="
	M124.339,155.273l2.628-0.389l4.574-4.721"/>
<path fill="#2AAAE2" stroke="#2E368F" stroke-width="1.25" stroke-linecap="round" stroke-linejoin="round" stroke-opacity="0.5" d="
	M140.458,23.914l-1.861,2.914"/>
<path fill="#2AAAE2" stroke="#2E368F" stroke-width="1.25" stroke-linecap="round" stroke-linejoin="round" stroke-opacity="0.5" d="
	M140.642,149.947l3.875-3.133l0.646-0.431l2.008-1.335l0.055-0.036"/>
<path fill="#2AAAE2" stroke="#2E368F" stroke-width="1.25" stroke-linecap="round" stroke-linejoin="round" stroke-opacity="0.5" d="
	M162.839,124.851l3.654-4.265l0.834-5.43l0.23-4.402l-0.282-3.525l0.582-3.672"/>
<path fill="#2AAAE2" stroke="#2E368F" stroke-width="1.25" stroke-linecap="round" stroke-linejoin="round" stroke-opacity="0.5" d="
	M148.416,26.253l-3.942-0.701l-2.596-0.876l-1.42-0.762"/>
<path fill="#2AAAE2" stroke="#2E368F" stroke-width="1.25" stroke-linecap="round" stroke-linejoin="round" stroke-opacity="0.5" d="
	M128.222,16.022l-3.526-0.807l-0.933-0.214l-0.009-0.002l-0.006-0.001l-0.664-0.152"/>
<path fill="#2AAAE2" stroke="#2E368F" stroke-width="1.25" stroke-linecap="round" stroke-linejoin="round" stroke-opacity="0.5" d="
	M146.652,145.505l0.573-0.492l0.538-0.475l1.709-1.505"/>
<path fill="#2AAAE2" stroke="#2E368F" stroke-width="1.25" stroke-linecap="round" stroke-linejoin="round" stroke-opacity="0.5" d="
	M157.224,135.77l3.194-4.578l1.006-4.48"/>
<path fill="#2AAAE2" stroke="#2E368F" stroke-width="1.25" stroke-linecap="round" stroke-linejoin="round" stroke-opacity="0.5" d="
	M63.045,20.543l-4.703-0.717l-1.425-0.217"/>
<path fill="#2AAAE2" stroke="#2E368F" stroke-width="1.25" stroke-linecap="round" stroke-linejoin="round" stroke-opacity="0.5" d="
	M176.005,84.56l-0.004-0.21l-0.063-3.159l-0.713-2.748l-0.176-0.674"/>
<path fill="#2AAAE2" stroke="#2E368F" stroke-width="1.25" stroke-linecap="round" stroke-linejoin="round" stroke-opacity="0.5" d="
	M104.178,13.617l-5.38-1.472l-5.439-3.239l-0.313-0.185l-4.395,0.297l-2.373,0.16l-1.32,0.089L83.77,9.552l-3.016,0.657
	l-3.448,0.753l-0.237,0.163l-0.117,0.08l-2.375,1.629"/>
<path fill="#2AAAE2" stroke="#2E368F" stroke-width="1.25" stroke-linecap="round" stroke-linejoin="round" stroke-opacity="0.5" d="
	M175.226,78.443l-0.273-2.947l0.71-2.368"/>
<path fill="#2AAAE2" stroke="#2E368F" stroke-width="1.25" stroke-linecap="round" stroke-linejoin="round" stroke-opacity="0.5" d="
	M62.431,22.681l-6.22-1.161l-8.471-2.729l-0.053,0.016l-3.58,1.087"/>
<path fill="#2AAAE2" stroke="#2E368F" stroke-width="1.25" stroke-linecap="round" stroke-linejoin="round" stroke-opacity="0.5" d="
	M172.569,95.162l0.354-2.709l1.414-1.805"/>
<path fill="#2AAAE2" stroke="#2E368F" stroke-width="1.25" stroke-linecap="round" stroke-linejoin="round" stroke-opacity="0.5" d="
	M34.476,31.024l-1.896,0.863l-1.821,3.882"/>
<path fill="#2AAAE2" stroke="#2E368F" stroke-width="1.25" stroke-linecap="round" stroke-linejoin="round" stroke-opacity="0.5" d="
	M29.558,34.131l1.201,1.638"/>
<path fill="#2AAAE2" stroke="#2E368F" stroke-width="1.25" stroke-linecap="round" stroke-linejoin="round" stroke-opacity="0.5" d="
	M161.23,130.811l1.607-5.96l0.08-0.297"/>
<path fill="#2AAAE2" stroke="#2E368F" stroke-width="1.25" stroke-linecap="round" stroke-linejoin="round" stroke-opacity="0.5" d="
	M76.271,12.583l-1.695,0.251l-2.48,0.366l-3.432,1.531"/>
<path fill="#2AAAE2" stroke="#2E368F" stroke-width="1.25" stroke-linecap="round" stroke-linejoin="round" stroke-opacity="0.5" d="
	M52.093,20.978l-7.97-1.082l-0.016-0.002l-2.321-0.315l-2.682,1.833l-2.386,0.745"/>
<path fill="#2AAAE2" stroke="#2E368F" stroke-width="1.25" stroke-linecap="round" stroke-linejoin="round" stroke-opacity="0.5" d="
	M124.694,15.215l-0.601-0.395l-0.028-0.02l-0.021-0.014l-0.68-0.448l-2.409-1.588l-3.211-0.264"/>
<path fill="#2AAAE2" stroke="#2E368F" stroke-width="1.25" stroke-linecap="round" stroke-linejoin="round" stroke-opacity="0.5" d="
	M116.681,159.626l4.334,0.655l1.539-0.322l0.101-0.069l2.112-1.467"/>
<path fill="#2AAAE2" stroke="#2E368F" stroke-width="1.25" stroke-linecap="round" stroke-linejoin="round" stroke-opacity="0.5" d="
	M167.837,114.859l1.697-3.289l0.109-0.768"/>
<path fill="#2AAAE2" stroke="#2E368F" stroke-width="1.25" stroke-linecap="round" stroke-linejoin="round" stroke-opacity="0.5" d="
	M72.517,16.166l-0.508-0.189l-0.479-0.179l-2.866-1.067l-1.193-0.444l-0.368,0.049l-0.646,0.085l-0.067,0.009L63.4,14.824
	l-1.002,0.133l-0.265,0.144l-3.765,2.075l-0.368,0.203l-4.521-0.288l-0.742-0.052"/>
<path fill="#2AAAE2" stroke="#2E368F" stroke-width="1.25" stroke-linecap="round" stroke-linejoin="round" stroke-opacity="0.5" d="
	M107.938,160.82l3.87,0.438l2.515-0.728"/>
<path fill="#2AAAE2" stroke="#2E368F" stroke-width="1.25" stroke-linecap="round" stroke-linejoin="round" stroke-opacity="0.5" d="
	M174.953,93.809l0.897-2.595l0.518-3.111l0.15-2.812l0.284-2.33"/>
<path fill="#2AAAE2" stroke="#2E368F" stroke-width="1.25" stroke-linecap="round" stroke-linejoin="round" stroke-opacity="0.5" d="
	M119.027,13.508l-1.283-1.022l-2.127-1.694l-1.718-1.354l-3.003-3.317l-4.685-0.702l-0.572,0.046"/>
<path fill="#2AAAE2" stroke="#2E368F" stroke-width="1.25" stroke-linecap="round" stroke-linejoin="round" stroke-opacity="0.5" d="
	M126.485,13.516l-0.717,0.189l-0.352,0.092l-2.054,0.541"/>
<path fill="#2AAAE2" stroke="#2E368F" stroke-width="1.25" stroke-linecap="round" stroke-linejoin="round" stroke-opacity="0.5" d="
	M122.653,159.89l5.26-1.26l1.857-2.144"/>
<path fill="#2AAAE2" stroke="#2E368F" stroke-width="1.25" stroke-linecap="round" stroke-linejoin="round" stroke-opacity="0.5" d="
	M179.109,69.5l-1.728-3.943l-1.284-2.89"/>
<path fill="#2AAAE2" stroke="#2E368F" stroke-width="1.25" stroke-linecap="round" stroke-linejoin="round" stroke-opacity="0.5" d="
	M98.021,167.328l4.792-0.719l2.44-2.451l1.907-1.646"/>
<path fill="#2AAAE2" stroke="#2E368F" stroke-width="1.25" stroke-linecap="round" stroke-linejoin="round" stroke-opacity="0.5" d="
	M58.621,154.346l2.185,1.161l2.092,0.231l4.354,1.479l3.638-0.104l3.465,2.029l2.795,1.277"/>
<path fill="#2AAAE2" stroke="#2E368F" stroke-width="1.25" stroke-linecap="round" stroke-linejoin="round" stroke-opacity="0.5" d="
	M128.159,160.223l3.688-1.678l0.918-0.418l0.048-0.021l0.34-0.248l0.521-0.379l2.855-2.084l2.347-3.023l2.865-1.906l4.478-0.219
	l0.848-4.518l2.338-1.983l2.357-0.778l2.563-2.281l2.423-3.099l0.479-1.817l0.059-0.221l0.435-1.65"/>
<path fill="#2AAAE2" stroke="#2E368F" stroke-width="1.25" stroke-linecap="round" stroke-linejoin="round" stroke-opacity="0.5" d="
	M175.917,105.579l0.762-3.568l0.22-1.022l0.056-0.26l0.059-0.276l-0.069-3.144l-0.388-2.717"/>
<path fill="#2AAAE2" stroke="#2E368F" stroke-width="1.25" stroke-linecap="round" stroke-linejoin="round" stroke-opacity="0.5" d="
	M165.864,124.893l2.979-4.449l0.881-6.932l2.439-3.833l1.134-1.853"/>
<path fill="#2AAAE2" stroke="#2E368F" stroke-width="1.25" stroke-linecap="round" stroke-linejoin="round" stroke-opacity="0.5" d="
	M131.678,9.907l-2.852,1.438l-3.408,2.452"/>
<path fill="#2AAAE2" stroke="#2E368F" stroke-width="1.25" stroke-linecap="round" stroke-linejoin="round" stroke-opacity="0.5" d="
	M54.469,17.862l-0.856-0.408l-0.873-0.415l-2.846-1.351l-5.138,1.691l-0.959,0.315"/>
<path fill="#2AAAE2" stroke="#2E368F" stroke-width="1.25" stroke-linecap="round" stroke-linejoin="round" stroke-opacity="0.5" d="
	M47.74,18.791l-0.212-0.079l-1.428-0.533l-1.228-0.458l-0.243-0.09l-0.103-0.039l-0.731,0.102l-3.162,0.441l-7.502,1.046"/>
<path fill="#2AAAE2" stroke="#2E368F" stroke-width="1.25" stroke-linecap="round" stroke-linejoin="round" stroke-opacity="0.5" d="
	M151.334,144.543l6.431-3.61l0.774-6.161"/>
<path fill="#2AAAE2" stroke="#2E368F" stroke-width="1.25" stroke-linecap="round" stroke-linejoin="round" stroke-opacity="0.5" d="
	M12.773,69.114l-0.121,0.2l-2.258,3.714l-0.97,1.786l-0.883,1.091L6.76,78.108"/>
<path fill="#2AAAE2" stroke="#2E368F" stroke-width="1.25" stroke-linecap="round" stroke-linejoin="round" stroke-opacity="0.5" d="
	M172,116.177l0.359-1.028l0.104-0.301l0.001-0.003l0.897-2.569l1.049-3.008l0.35-0.855l0.042-0.104l1.115-2.729l1.041-3.469
	l-0.002-0.445l-0.003-0.936"/>
<path fill="#2AAAE2" stroke="#2E368F" stroke-width="1.25" stroke-linecap="round" stroke-linejoin="round" stroke-opacity="0.5" d="
	M108.935,6.838l-3.296-1.373l-2.68-1.116L96.66,4.7l-0.624-0.081l-0.704-0.091l-0.049-0.006l-0.021-0.003l-0.229-0.03l-0.837-0.108
	L91.067,4.13l-3.706,0.684l-3.847,3.005l-1.775,1.388"/>
<path fill="#2AAAE2" stroke="#2E368F" stroke-width="1.25" stroke-linecap="round" stroke-linejoin="round" stroke-opacity="0.5" d="
	M177.07,89.017l0.479-0.805l0.664-1.116l0.229-0.383l-0.019-0.108l-0.112-0.705l-0.146-0.906"/>
<path fill="#2AAAE2" stroke="#2E368F" stroke-width="1.25" stroke-linecap="round" stroke-linejoin="round" stroke-opacity="0.5" d="
	M13.198,101.329l1.704,2.78l2.795,6.072l2.028,6.194"/>
<path fill="#2AAAE2" stroke="#2E368F" stroke-width="1.25" stroke-linecap="round" stroke-linejoin="round" stroke-opacity="0.5" d="
	M17.303,46.79l2.132-5.157l-0.073,0.717l-0.312,3.007l0.899,8.1l-1.845,5.925l-0.151,4.793l-4.739,2.931l-0.562,2.208"/>
<path fill="#2AAAE2" stroke="#2E368F" stroke-width="1.25" stroke-linecap="round" stroke-linejoin="round" stroke-opacity="0.5" d="
	M23.82,35.081l-2.906,2.502l-1.479,4.05"/>
<path fill="#2AAAE2" stroke="#2E368F" stroke-width="1.25" stroke-linecap="round" stroke-linejoin="round" stroke-opacity="0.5" d="
	M174.76,108.411l3.985-5.722l0.567-3.963l-1.839,2.641l-0.517,0.742"/>
<path fill="#2AAAE2" stroke="#2E368F" stroke-width="1.25" stroke-linecap="round" stroke-linejoin="round" stroke-opacity="0.5" d="
	M5.353,81.483l-0.155,0.671l-0.683,2.967l-0.073,0.317l0.116,0.547l0.063,0.302l1.064,5.015l4.799,7.485l2.354,5.466"/>
<path fill="#2AAAE2" stroke="#2E368F" stroke-width="1.25" stroke-linecap="round" stroke-linejoin="round" stroke-opacity="0.5" d="
	M178.245,50.085l-1.331-4.914l0.171,1.116l0.368,2.401l0.866,3.372l0.319,4.176l3.339,5.868l0.961,1.538l1.129,1.806l0.54,0.864"/>
<path fill="#2AAAE2" stroke="#2E368F" stroke-width="1.25" stroke-linecap="round" stroke-linejoin="round" stroke-opacity="0.5" d="
	M179.313,98.726l0.038-3.952l-1.033-3.852l-0.104-3.826"/>
<path fill="#2AAAE2" stroke="#2E368F" stroke-width="1.25" stroke-linecap="round" stroke-linejoin="round" stroke-opacity="0.5" d="
	M65.635,162.294l4.021,0.44l3.3-0.688"/>
<path fill="#2AAAE2" stroke="#2E368F" stroke-width="1.25" stroke-linecap="round" stroke-linejoin="round" stroke-opacity="0.5" d="
	M76.021,164.902l3.257,2.217l5.057,3.424l0.716,0.484l4.328-0.092"/>
<path fill="#2AAAE2" stroke="#2E368F" stroke-width="1.25" stroke-linecap="round" stroke-linejoin="round" stroke-opacity="0.5" d="
	M85.004,8.158l-0.696,0.224l-0.314,0.101l-2.252,0.724l-2.617,0.841l-0.034,0.011l-1.013,0.325l-0.635,0.231l-0.58,0.211
	l-1.225,0.445l-1.461,0.532l-1.534,0.167l-0.399,0.043l-0.863,0.094l-0.16,0.018l-2.338,0.255l-2.139,0.233L63.4,14.824"/>
<path fill="#2AAAE2" stroke="#2E368F" stroke-width="1.25" stroke-linecap="round" stroke-linejoin="round" stroke-opacity="0.5" d="
	M151.909,5.217l-0.038,0.004l-3.694,0.469l-0.961,0.122l-11.5,1.558h-0.003l-1.046,0.142l-5.444,1.245"/>
<path fill="#2AAAE2" stroke="#2E368F" stroke-width="1.25" stroke-linecap="round" stroke-linejoin="round" stroke-opacity="0.5" d="
	M178.426,86.605l1.109-2.516"/>
<path fill="#2AAAE2" stroke="#2E368F" stroke-width="1.25" stroke-linecap="round" stroke-linejoin="round" stroke-opacity="0.5" d="
	M176.914,45.171l-0.727-4.607l-1.596-3.97"/>
<path fill="#2AAAE2" stroke="#2E368F" stroke-width="1.25" stroke-linecap="round" stroke-linejoin="round" stroke-opacity="0.5" d="
	M4.441,85.438l-0.434,4.875l0.888,2.479"/>
<path fill="#2AAAE2" stroke="#2E368F" stroke-width="1.25" stroke-linecap="round" stroke-linejoin="round" stroke-opacity="0.5" d="
	M171.131,28.405l0.354-2.852l0.378-3.045l-4.753-2.623l-0.284-0.156"/>
<path fill="#2AAAE2" stroke="#2E368F" stroke-width="1.25" stroke-linecap="round" stroke-linejoin="round" stroke-opacity="0.5" d="
	M8.543,75.905L6.75,77.118l-2.342,5.871l-0.033,0.609l-0.366,6.715"/>
<path fill="#2AAAE2" stroke="#2E368F" stroke-width="1.25" stroke-linecap="round" stroke-linejoin="round" stroke-opacity="0.5" d="
	M76.966,168.779l3.703,1.479l0.899,0.158l3.48,0.61"/>
<path fill="#2AAAE2" stroke="#2E368F" stroke-width="1.25" stroke-linecap="round" stroke-linejoin="round" stroke-opacity="0.5" d="
	M95.42,173.674l2.625-0.052l2.904-0.058l2.964-2.27l0.414-0.316l0.558-0.428l0.421-0.322l2-1.877l1.563-1.465l0.645-0.346
	l4.828-2.594l6.945-0.594"/>
<path fill="#2AAAE2" stroke="#2E368F" stroke-width="1.25" stroke-linecap="round" stroke-linejoin="round" stroke-opacity="0.5" d="
	M80.669,170.259l4.903,1.582"/>
<path fill="#2AAAE2" stroke="#2E368F" stroke-width="1.25" stroke-linecap="round" stroke-linejoin="round" stroke-opacity="0.5" d="
	M4.408,82.989l-0.767,1.896"/>
<path fill="#2AAAE2" stroke="#2E368F" stroke-width="1.25" stroke-linecap="round" stroke-linejoin="round" stroke-opacity="0.5" d="
	M51.901,159.324l3.646,2.397l4.438,2.328l0.419,0.22l4.473,0.465l0.533,0.056l0.144-0.007l0.344-0.016l7.107-0.313"/>
<path fill="#2AAAE2" stroke="#2E368F" stroke-width="1.25" stroke-linecap="round" stroke-linejoin="round" stroke-opacity="0.5" d="
	M77.441,10.615l-3.271,0.596l-2.793,0.896"/>
<path fill="#2AAAE2" stroke="#2E368F" stroke-width="1.25" stroke-linecap="round" stroke-linejoin="round" stroke-opacity="0.5" d="
	M183.248,88.877l2.546-4.011l0.067-0.106l0.112-0.176l0.842-1.327l3.046-6.186l-0.79-7.316l-4.884-6.327l-0.23-0.298l-2.952-7.268
	l-0.444-9.425"/>
<path fill="#2AAAE2" stroke="#2E368F" stroke-width="1.25" stroke-linecap="round" stroke-linejoin="round" stroke-opacity="0.5" d="
	M107.306,168.352l3.604-1.937"/>
<path fill="#2AAAE2" stroke="#2E368F" stroke-width="1.25" stroke-linecap="round" stroke-linejoin="round" stroke-opacity="0.5" d="
	M171.189,123.804l-0.196,1.376l-2.088,6.184l1.438-4.979l0.046-0.14l0.096-0.289L171.189,123.804l2.191-6.696l1.205-4.401
	l0.137-0.499l2-4.588l1.938-4.653"/>
<path fill="#2AAAE2" stroke="#2E368F" stroke-width="1.25" stroke-linecap="round" stroke-linejoin="round" stroke-opacity="0.5" d="
	M159.65,8.368l-1.929-1.821L156.4,5.3l-7.563-0.766l-8.533-0.864l-6.399,0.211"/>
<path fill="#2AAAE2" stroke="#2E368F" stroke-width="1.25" stroke-linecap="round" stroke-linejoin="round" stroke-opacity="0.5" d="
	M117.707,164.275l5.879-0.901l2.241-0.349l5.171-2.728l0.064-0.033l4.524-3.356l1.995-1.479"/>
<path fill="#2AAAE2" stroke="#2E368F" stroke-width="1.25" stroke-linecap="round" stroke-linejoin="round" stroke-opacity="0.5" d="
	M60.402,164.27l-3.854-0.662l-0.422-0.072l-0.3-0.051l0.783,0.277l1.404,0.499l3.011,1.069l2.43-0.299l1.954-0.241"/>
<path fill="#2AAAE2" stroke="#2E368F" stroke-width="1.25" stroke-linecap="round" stroke-linejoin="round" stroke-opacity="0.5" d="
	M7.255,60.302l0.573,7.218l-0.426,5.742"/>
<path fill="#2AAAE2" stroke="#2E368F" stroke-width="1.25" stroke-linecap="round" stroke-linejoin="round" stroke-opacity="0.5" d="
	M80.33,171.509l2.466,1.115l0.555,0.251l3.718,1.68l0.139,0.063l1.715,0.775l0.203,0.092l5.887-1.545l3.034-0.317"/>
<path fill="#2AAAE2" stroke="#2E368F" stroke-width="1.25" stroke-linecap="round" stroke-linejoin="round" stroke-opacity="0.5" d="
	M16.501,117.938l-0.334,7.221l-0.038,0.815l1.438,4.06l2.277,4.19l8.431,9.13l2.77,4.688l4.106,4.485"/>
<path fill="#2AAAE2" stroke="#2E368F" stroke-width="1.25" stroke-linecap="round" stroke-linejoin="round" stroke-opacity="0.5" d="
	M83.517,7.819L83.069,7.82l-6.361,1.807L75.66,9.925l-0.222,0.063l-1.058,0.27l-4.245,1.089L68.88,12.38"/>
<path fill="#2AAAE2" stroke="#2E368F" stroke-width="1.25" stroke-linecap="round" stroke-linejoin="round" stroke-opacity="0.5" d="
	M135.588,156.908l4.752-1.848l5.202-3.984l3.313-3.411l5.445-1.638l6.319-5.601l5.558-4.235l2.728-4.828"/>
<path fill="#2AAAE2" stroke="#2E368F" stroke-width="1.25" stroke-linecap="round" stroke-linejoin="round" stroke-opacity="0.5" d="
	M186.222,89.601l-0.153-3.111l-0.095-1.906"/>
<path fill="#2AAAE2" stroke="#2E368F" stroke-width="1.25" stroke-linecap="round" stroke-linejoin="round" stroke-opacity="0.5" d="
	M61.024,165.33l-3.498-1.139l-0.844-0.119l-9.694-1.377l-6.566-4.693l-5.271-5.475l5.433,3.636l2.071,1.222l0.172,0.102l3.469,2.047
	l9.188,3.809l0.343,0.143"/>
<path fill="#2AAAE2" stroke="#2E368F" stroke-width="1.25" stroke-linecap="round" stroke-linejoin="round" stroke-opacity="0.5" d="
	M62.134,15.101l-3.211,0.483l-1.117,0.344l-0.354,0.109l-2.378,0.731"/>
<path fill="#2AAAE2" stroke="#2E368F" stroke-width="1.25" stroke-linecap="round" stroke-linejoin="round" stroke-opacity="0.5" d="
	M2.456,79.165L2.445,80.34l-0.062,6.282l-0.521,8.78l3.235,6.541"/>
<path fill="#2AAAE2" stroke="#2E368F" stroke-width="1.25" stroke-linecap="round" stroke-linejoin="round" stroke-opacity="0.5" d="
	M148.837,4.534l-3.99-0.904l-9.657-0.981l-7.65-0.642L124.554,3.2l-4.83,1.93"/>
<path fill="#2AAAE2" stroke="#2E368F" stroke-width="1.25" stroke-linecap="round" stroke-linejoin="round" stroke-opacity="0.5" d="
	M61.024,165.33l5.354,0.156l0.322,0.01l0.054,0.002"/>
<path fill="#2AAAE2" stroke="#2E368F" stroke-width="1.25" stroke-linecap="round" stroke-linejoin="round" stroke-opacity="0.5" d="
	M44.756,17.379l-3.614,0.61l-0.281,0.027l-10.877,1.047l-5.641,5.251l-4.318,3.397l-5.871,8.052l-1.288,2.33l-0.588,5.913
	l-0.287,2.873"/>
<path fill="#2AAAE2" stroke="#2E368F" stroke-width="1.25" stroke-linecap="round" stroke-linejoin="round" stroke-opacity="0.5" d="
	M76.708,9.627l-1.595,0.278l-2.443,0.426"/>
<path fill="#2AAAE2" stroke="#2E368F" stroke-width="1.25" stroke-linecap="round" stroke-linejoin="round" stroke-opacity="0.5" d="
	M124.552,3.2l-3.203-1.242l-7.459,0.323L109.892,2.1l-4.023-0.182l-2.917-0.437L97.24,0.625l-2.205,3.864"/>
<path fill="#2AAAE2" stroke="#2E368F" stroke-width="1.25" stroke-linecap="round" stroke-linejoin="round" stroke-opacity="0.5" d="
	M184.188,63.428l0.165-2.759l-2.422-9.719l-0.146-8.693l-1.947-7.702l-4.233-5.154l-4.117-3.848"/>
<path fill="#2AAAE2" stroke="#2E368F" stroke-width="1.25" stroke-linecap="round" stroke-linejoin="round" stroke-opacity="0.5" d="
	M86.199,174.699l1.007-0.082"/>
<path fill="#2AAAE2" stroke="#2E368F" stroke-width="1.25" stroke-linecap="round" stroke-linejoin="round" stroke-opacity="0.5" d="
	M174.587,112.706l4.417-5.597l3.013-5.555l1.266-2.331l3.201-9.261l-0.415-3.473"/>
<path fill="#2AAAE2" stroke="#2E368F" stroke-width="1.25" stroke-linecap="round" stroke-linejoin="round" stroke-opacity="0.5" d="
	M103.913,171.295l2.955,0.041l0.996-0.209l6.674-1.395l1.758-0.347l6.026-1.19l6.006-4.613l2.67-3.284"/>
<path fill="#2AAAE2" stroke="#2E368F" stroke-width="1.25" stroke-linecap="round" stroke-linejoin="round" stroke-opacity="0.5" d="
	M57.806,15.928l-1.378-0.151l-6.095-0.665l-5.599,0.85l-3.875,2.054"/>
<path fill="#2AAAE2" stroke="#2E368F" stroke-width="1.25" stroke-linecap="round" stroke-linejoin="round" stroke-opacity="0.5" d="
	M56.683,164.072l5.858,3.569l0.976,0.247l5.469,1.387"/>
<path fill="#2AAAE2" stroke="#2E368F" stroke-width="1.25" stroke-linecap="round" stroke-linejoin="round" stroke-opacity="0.5" d="
	M75.113,9.905l-5.325-0.189l-8.809,4.472l-4.553,1.589"/>
<path fill="#2AAAE2" stroke="#2E368F" stroke-width="1.25" stroke-linecap="round" stroke-linejoin="round" stroke-opacity="0.5" d="
	M12.276,44.006l-3.783,6.651l-4.143,7.201l0.19,1.118l1.253,7.343l-0.568,6.785l-3.522,6.953l0.479,9.289l-0.096,0.557l-1.462,8.489
	"/>
<path fill="#2AAAE2" stroke="#2E368F" stroke-width="1.25" stroke-linecap="round" stroke-linejoin="round" stroke-opacity="0.5" d="
	M7.08,109.484l-1.942-2.215l-4.33-7.561l-0.182-1.317l3.332,5.692L7.08,109.484l0.776,1.342l2.683,5.404l2.976,4.988l2.652,3.939"/>
<path fill="#2AAAE2" stroke="#2E368F" stroke-width="1.25" stroke-linecap="round" stroke-linejoin="round" stroke-opacity="0.5" d="
	M109.892,2.1l-4.229-1.253l-2.713,0.634"/>
<path fill="#2AAAE2" stroke="#2E368F" stroke-width="1.25" stroke-linecap="round" stroke-linejoin="round" stroke-opacity="0.5" d="
	M182.017,101.555l0.503-0.646l0.762-1.685"/>
<path fill="#2AAAE2" stroke="#2E368F" stroke-width="1.25" stroke-linecap="round" stroke-linejoin="round" stroke-opacity="0.5" d="
	M167.11,19.885l1.462-10.88l-10.851-2.458"/>
<path fill="#2AAAE2" stroke="#2E368F" stroke-width="1.25" stroke-linecap="round" stroke-linejoin="round" stroke-opacity="0.5" d="
	M63.517,167.889l2.411,1.768l7.454,3.057l11.446,4.336l4.092-1.656"/>
<path fill="#2AAAE2" stroke="#2E368F" stroke-width="1.25" stroke-linecap="round" stroke-linejoin="round" stroke-opacity="0.5" d="
	M107.864,171.127l7.433-0.863l0.999-0.878"/>
<path fill="#2AAAE2" stroke="#2E368F" stroke-width="1.25" stroke-linecap="round" stroke-linejoin="round" stroke-opacity="0.5" d="
	M4.542,58.976l-1.716,7.127l0.454,7.56l-2.143,8.66l0.948,7.58"/>
</svg>
