<?xml version="1.0" encoding="utf-8"?>
<!-- Generator: Adobe Illustrator 16.0.0, SVG Export Plug-In . SVG Version: 6.00 Build 0)  -->
<!DOCTYPE svg PUBLIC "-//W3C//DTD SVG 1.1//EN" "http://www.w3.org/Graphics/SVG/1.1/DTD/svg11.dtd">
<svg version="1.1" id="Layer_1" xmlns="http://www.w3.org/2000/svg" xmlns:xlink="http://www.w3.org/1999/xlink" x="0px" y="0px"
	 width="207.106px" height="192.775px" viewBox="0 0 207.106 192.775" enable-background="new 0 0 207.106 192.775"
	 xml:space="preserve">
<path fill="#2AAAE2" stroke="#2E368F" stroke-miterlimit="10" d="M14.556,29.759l0.522,0.996l-0.466,3.186L12.842,39.3l-3.621,5.041
	l-4.302,7.148L0.623,73.588l2.14,8.33l5.73,5.903l4.569,6.028l1.258,7.564l1.646,3.849l0.286,1.378l1.973,5.126l1.133,4.269
	l2.619,7.559l3.566,6.744l3.285,7.888l3.339,6.325l2.842,8.994l4.061,7.459l4.366,5.944l7.527,3.575l5.747,3.41l8.251,4.74
	l6.854,6.401l9.002,3.168l8.764,0.32l7.483,2.961l9.91,0.626l7.083-0.172l7.826-0.174l8.275-1.482l7.314,0.732l5.881-2.08
	l7.115-0.117l5.725-3.18l4.586-2.753l2.304-1.279l0.425,0.137l5.972-3.233l2.301-2.215l5.507,0.301l0.729-0.803l0.133,0.008
	l6.879-2.206l5.75-3.354l3.875-5.575l0.287-6.838l-1.539-5.055l-0.087-0.443l0.038-2.438l0.706-2.424l1.122-1.744l2.751-3.114
	l1.517-5.853l0.13-4.4l2.655-6.05l0.317-2.92l2.345-5.369l-2.098-5.956l1.033-2.64l0.229-1.861l2.364-5.213l0.054-10.126
	l-4.87-9.596l-1.143-2.387l-1.87-7.137l-4.508-9.261l-6.989-5.739l-0.44-1.309l-1.979-7.731l-2.046-1.778l-4.377-5.793l-3.901-1.999
	l-3.09-3.327l-6.121-4.986l-4.924-2.732l-3.491-4.434l-5.124-0.051l-4.438-1.903l-7.868-2.878l-6.733-4.623l-4.081-0.798
	l-3.157-1.523l-0.955,0.042l-3.042-3.175l-8.805-0.3l-1.601-0.582l-8.514-0.225l-2.194-1.188l-9.485-2.628l-7.993,0.132
	l-6.257-3.729L65.402,0.771l-5.913,1.98l-7.893,0.697l-9.388,0.303l-3.55,0.726l-2.77,0.825l-7.647,4.157l-10.222,4.217
	L14.556,29.759z"/>
<path fill="#2AAAE2" stroke="#2E368F" stroke-width="1.25" stroke-linecap="round" stroke-linejoin="round" stroke-opacity="0.5" d="
	M14.514,98.262l1.454,7.002l0.286,1.378l1.973,5.126l1.229,3.189"/>
<path fill="#2AAAE2" stroke="#2E368F" stroke-width="1.25" stroke-linecap="round" stroke-linejoin="round" stroke-opacity="0.5" d="
	M18.227,111.768l1.133,4.269l2.619,7.559l3.566,6.744l3.285,7.888l3.339,6.325l0.489,0.927"/>
<path fill="#2AAAE2" stroke="#2E368F" stroke-width="1.25" stroke-linecap="round" stroke-linejoin="round" stroke-opacity="0.5" d="
	M81.13,185.169l8.073,1.085l7.992,2.416"/>
<path fill="#2AAAE2" stroke="#2E368F" stroke-width="1.25" stroke-linecap="round" stroke-linejoin="round" stroke-opacity="0.5" d="
	M32.169,144.551l2.842,8.994l4.061,7.459l4.366,5.944l7.527,3.575l5.747,3.41l8.251,4.74l6.854,6.401l9.001,3.168l8.764,0.32
	l7.484,2.961l9.909,0.626l7.083-0.172l7.826-0.174l8.275-1.482l7.314,0.732l5.881-2.08l0.238-0.084"/>
<path fill="#2AAAE2" stroke="#2E368F" stroke-width="1.25" stroke-linecap="round" stroke-linejoin="round" stroke-opacity="0.5" d="
	M16.02,35.638l-1.973,2.25l-0.016,0.018l-1.04,1.188l-0.148,0.207l-3.621,5.041L4.92,51.49L1.104,71.125l-0.479,2.464l2.14,8.33
	l5.73,5.903l4.57,6.028l1.257,7.564l1.646,3.849"/>
<path fill="#2AAAE2" stroke="#2E368F" stroke-width="1.25" stroke-linecap="round" stroke-linejoin="round" stroke-opacity="0.5" d="
	M143.356,188.977l7.114-0.117l5.726-3.18l4.585-2.753l2.304-1.279l2.923-1.623l3.065-3.218l0.641-0.673l0.751-0.789l3.289-3.452
	l0.024-0.025l0.251-0.263l0.043-0.045l0.271-0.286l1.685-1.767"/>
<path fill="#2AAAE2" stroke="#2E368F" stroke-width="1.25" stroke-linecap="round" stroke-linejoin="round" stroke-opacity="0.5" d="
	M174.273,171.46l1.754-1.953l0.14-0.834l0.666-3.979"/>
<path fill="#2AAAE2" stroke="#2E368F" stroke-width="1.25" stroke-linecap="round" stroke-linejoin="round" stroke-opacity="0.5" d="
	M189.532,92.89l-3.955-7.626l-1.366-8.252l-0.046-0.277"/>
<path fill="#2AAAE2" stroke="#2E368F" stroke-width="1.25" stroke-linecap="round" stroke-linejoin="round" stroke-opacity="0.5" d="
	M184.362,77.367l-0.197-0.633l-3.856-8.936"/>
<path fill="#2AAAE2" stroke="#2E368F" stroke-width="1.25" stroke-linecap="round" stroke-linejoin="round" stroke-opacity="0.5" d="
	M15.988,29.773l-0.552,1.666l-0.824,2.501L12.842,39.3"/>
<path fill="#2AAAE2" stroke="#2E368F" stroke-width="1.25" stroke-linecap="round" stroke-linejoin="round" stroke-opacity="0.5" d="
	M193.905,135.194l0.542-8.441l-0.063-0.111l-0.094-0.17l-4.247-7.722"/>
<path fill="#2AAAE2" stroke="#2E368F" stroke-width="1.25" stroke-linecap="round" stroke-linejoin="round" stroke-opacity="0.5" d="
	M148.55,41.832l-5.355-6.579l-8.076-5.041l-6.502-6.501l-9.383-4.066l-5.317-4.011l-2.671-2.017"/>
<path fill="#2AAAE2" stroke="#2E368F" stroke-width="1.25" stroke-linecap="round" stroke-linejoin="round" stroke-opacity="0.5" d="
	M181.096,68.132l-5.646-7.876l-2.734-3.208l-2.097-2.459"/>
<path fill="#2AAAE2" stroke="#2E368F" stroke-width="1.25" stroke-linecap="round" stroke-linejoin="round" stroke-opacity="0.5" d="
	M163.085,181.647l0.425,0.137l5.973-3.233l2.3-2.215l0.84-0.81l1.527-1.47l1.941-2.751l0.001-0.001l0.437-0.616"/>
<path fill="#2AAAE2" stroke="#2E368F" stroke-width="1.25" stroke-linecap="round" stroke-linejoin="round" stroke-opacity="0.5" d="
	M18.146,17.911l-1.004,3.357l-1.174,3.396l-0.892,6.092l-0.466,3.186"/>
<path fill="#2AAAE2" stroke="#2E368F" stroke-width="1.25" stroke-linecap="round" stroke-linejoin="round" stroke-opacity="0.5" d="
	M178.224,60.383l-6.799-5.09l-3.009-4.223l-0.912-1.278"/>
<path fill="#2AAAE2" stroke="#2E368F" stroke-width="1.25" stroke-linecap="round" stroke-linejoin="round" stroke-opacity="0.5" d="
	M171.781,176.335l5.507,0.301l0.729-0.803l3.84-4.223l0.547-0.611l0.009-0.012l3.528-3.951l2.449-5.388l0.199-0.437"/>
<path fill="#2AAAE2" stroke="#2E368F" stroke-width="1.25" stroke-linecap="round" stroke-linejoin="round" stroke-opacity="0.5" d="
	M188.391,161.649l1.857-2.342l1.786-6.189l0.502-4.367l0.144-1.252l0.142-1.587l0.32-3.632l0.032-0.359l0.246-0.461l1.146-2.144
	l0.005-0.01l0.396-0.74l1.021-1.904l0.635-1.188l0.967-2.582l0.766-2.043l1.229-3.287l0.002-0.151l0.121-8.689l0.001-0.066"/>
<path fill="#2AAAE2" stroke="#2E368F" stroke-width="1.25" stroke-linecap="round" stroke-linejoin="round" stroke-opacity="0.5" d="
	M135.843,27.084l-3.802-2.899l-3.27-2.492l-0.531-0.406l-5.688-3.048l-1.823-0.977l-0.32-0.173l-0.132-0.071l-7.894-5.007
	l-0.274-0.175l-0.313-0.11l-0.973-0.344l-6.396-2.256l-1.781-0.628l-0.571-0.18l-0.543-0.169l-8.322-2.586l-8.531-0.056L84.1,5.505"
	/>
<path fill="#2AAAE2" stroke="#2E368F" stroke-width="1.25" stroke-linecap="round" stroke-linejoin="round" stroke-opacity="0.5" d="
	M199.585,127.408l2.816-8.302l-0.739-4.101l-0.054-0.296l-0.11-0.613l-0.027-0.15l-0.02-0.105l-0.067-0.376l-0.679-3.766
	l-2.721-7.093l-0.214-0.556l-0.372-0.972l-1.386-8.092"/>
<path fill="#2AAAE2" stroke="#2E368F" stroke-width="1.25" stroke-linecap="round" stroke-linejoin="round" stroke-opacity="0.5" d="
	M173.543,54.576l-5.416-4.555l-3.398-7.306l-4.895-6.592l-8.183-4.757l-7.633-3.363"/>
<path fill="#2AAAE2" stroke="#2E368F" stroke-width="1.25" stroke-linecap="round" stroke-linejoin="round" stroke-opacity="0.5" d="
	M136.041,25.786l-7.27-4.094"/>
<path fill="#2AAAE2" stroke="#2E368F" stroke-width="1.25" stroke-linecap="round" stroke-linejoin="round" stroke-opacity="0.5" d="
	M122.552,18.238l-2.021-1.123l-0.254-0.098"/>
<path fill="#2AAAE2" stroke="#2E368F" stroke-width="1.25" stroke-linecap="round" stroke-linejoin="round" stroke-opacity="0.5" d="
	M33.405,7.332l-5.16,2.129l-10.221,4.217l-3.47,16.081l0.522,0.996"/>
<path fill="#2AAAE2" stroke="#2E368F" stroke-width="1.25" stroke-linecap="round" stroke-linejoin="round" stroke-opacity="0.5" d="
	M52.742,7.101l-9.096-0.697l-7.754-1.1l-7.647,4.157"/>
<path fill="#2AAAE2" stroke="#2E368F" stroke-width="1.25" stroke-linecap="round" stroke-linejoin="round" stroke-opacity="0.5" d="
	M200.904,110.416l-1.027-9.237l-1.542-8.195"/>
<path fill="#2AAAE2" stroke="#2E368F" stroke-width="1.25" stroke-linecap="round" stroke-linejoin="round" stroke-opacity="0.5" d="
	M112.916,11.84l-2.095-0.458"/>
<path fill="#2AAAE2" stroke="#2E368F" stroke-width="1.25" stroke-linecap="round" stroke-linejoin="round" stroke-opacity="0.5" d="
	M200.795,92.607l-1.602-8.922l-4.275-10.252l-5.579-8.501l-5.018-6.583l-1.375-2.029l-0.54-0.795l-2.764-4.071l-0.897-1.122
	l-1.839-2.296l-2.77-3.455"/>
<path fill="#2AAAE2" stroke="#2E368F" stroke-width="1.25" stroke-linecap="round" stroke-linejoin="round" stroke-opacity="0.5" d="
	M193.269,150.218l0.085-0.286l0.706-2.424l0.722-2.468l-0.045-1.218l-0.089-2.423l-0.075-2.094"/>
<path fill="#2AAAE2" stroke="#2E368F" stroke-width="1.25" stroke-linecap="round" stroke-linejoin="round" stroke-opacity="0.5" d="
	M84.675,5.509L82.74,4.354l-6.256-3.729l-11.08,0.147l-5.913,1.98L51.599,3.45l-9.388,0.303l-3.55,0.726l-2.77,0.825"/>
<path fill="#2AAAE2" stroke="#2E368F" stroke-width="1.25" stroke-linecap="round" stroke-linejoin="round" stroke-opacity="0.5" d="
	M178.745,50.331l-2.856-6.313l-2.386-2.617l-3.731-4.091"/>
<path fill="#2AAAE2" stroke="#2E368F" stroke-width="1.25" stroke-linecap="round" stroke-linejoin="round" stroke-opacity="0.5" d="
	M192.898,158.609l0.397-5.068l0.009-0.543l0.008-0.479l0.003-0.151l0.038-2.437"/>
<path fill="#2AAAE2" stroke="#2E368F" stroke-width="1.25" stroke-linecap="round" stroke-linejoin="round" stroke-opacity="0.5" d="
	M194.735,143.823l1.548-5.377"/>
<path fill="#2AAAE2" stroke="#2E368F" stroke-width="1.25" stroke-linecap="round" stroke-linejoin="round" stroke-opacity="0.5" d="
	M182.403,170.999l0.19-0.021"/>
<path fill="#2AAAE2" stroke="#2E368F" stroke-width="1.25" stroke-linecap="round" stroke-linejoin="round" stroke-opacity="0.5" d="
	M198.307,137.844l1.203-5.291l0.068-0.156l2.655-6.05l0.317-2.92l0.546-4.991"/>
<path fill="#2AAAE2" stroke="#2E368F" stroke-width="1.25" stroke-linecap="round" stroke-linejoin="round" stroke-opacity="0.5" d="
	M155.424,25.639l-3.815-1.637l-4.438-1.903l-7.868-2.878l-6.732-4.623l-4.081-0.798l-3.035-0.594l-0.28-0.057l-0.977-0.189
	l-1.027-0.455l-0.272-0.121l-7.251-3.216l-0.655-0.076l-2.11-0.12l-1.18-0.068l-6.509-0.369l-1.815-0.125l-0.232-0.017l-0.081-0.005
	l-0.988-0.068"/>
<path fill="#2AAAE2" stroke="#2E368F" stroke-width="1.25" stroke-linecap="round" stroke-linejoin="round" stroke-opacity="0.5" d="
	M176.211,43.856l-5.881-6.253l-0.239-0.255l-0.207-0.219l-7.084-5.37l-0.48-0.611l-0.439-0.558l-1.656-2.104l-3.49-4.434
	l-5.124-0.051"/>
<path fill="#2AAAE2" stroke="#2E368F" stroke-width="1.25" stroke-linecap="round" stroke-linejoin="round" stroke-opacity="0.5" d="
	M202.552,123.427l2.345-5.369l-2.098-5.956l-0.283-0.802l-0.06-0.173l-0.023-0.063l-0.052-0.146l-0.367-1.042"/>
<path fill="#2AAAE2" stroke="#2E368F" stroke-width="1.25" stroke-linecap="round" stroke-linejoin="round" stroke-opacity="0.5" d="
	M178.018,175.833l0.134,0.008l6.878-2.206l5.751-3.354l3.874-5.575l0.288-6.837l-1.539-5.056l-0.091-0.293"/>
<path fill="#2AAAE2" stroke="#2E368F" stroke-width="1.25" stroke-linecap="round" stroke-linejoin="round" stroke-opacity="0.5" d="
	M194.06,147.508l1.122-1.744l2.751-3.114l1.517-5.853l0.13-4.4"/>
<path fill="#2AAAE2" stroke="#2E368F" stroke-width="1.25" stroke-linecap="round" stroke-linejoin="round" stroke-opacity="0.5" d="
	M193.402,152.813l-0.087-0.444"/>
<path fill="#2AAAE2" stroke="#2E368F" stroke-width="1.25" stroke-linecap="round" stroke-linejoin="round" stroke-opacity="0.5" d="
	M202.433,111.063l0.243-1.072"/>
<path fill="#2AAAE2" stroke="#2E368F" stroke-width="1.25" stroke-linecap="round" stroke-linejoin="round" stroke-opacity="0.5" d="
	M103.06,8.388l-0.04-0.022l-0.127-0.067l-0.479-0.259l-2.194-1.188l-9.484-2.628l-7.994,0.132"/>
<path fill="#2AAAE2" stroke="#2E368F" stroke-width="1.25" stroke-linecap="round" stroke-linejoin="round" stroke-opacity="0.5" d="
	M202.516,111.3l0.539-1.479l1.008-2.221l2.364-5.213l0.055-10.126l-4.87-9.596l-1.144-2.387l-3.379-7.057l-6.396-7.903"/>
<path fill="#2AAAE2" stroke="#2E368F" stroke-width="1.25" stroke-linecap="round" stroke-linejoin="round" stroke-opacity="0.5" d="
	M128.487,13.8l-3.158-1.523l-0.955,0.042l-1.479,0.065"/>
<path fill="#2AAAE2" stroke="#2E368F" stroke-width="1.25" stroke-linecap="round" stroke-linejoin="round" stroke-opacity="0.5" d="
	M200.468,80.28l-1.87-7.137l-4.508-9.261l-6.989-5.739l-0.44-1.309l-2.559-7.569l-1.466-1.94l-4.377-5.793l-3.9-1.999l-4.268-2.185"
	/>
<path fill="#2AAAE2" stroke="#2E368F" stroke-width="1.25" stroke-linecap="round" stroke-linejoin="round" stroke-opacity="0.5" d="
	M103.374,8.408l-0.481-0.11"/>
<path fill="#2AAAE2" stroke="#2E368F" stroke-width="1.25" stroke-linecap="round" stroke-linejoin="round" stroke-opacity="0.5" d="
	M163.751,32.057l-1.872-1.466"/>
<path fill="#2AAAE2" stroke="#2E368F" stroke-width="1.25" stroke-linecap="round" stroke-linejoin="round" stroke-opacity="0.5" d="
	M202.799,112.102l1.033-2.64l0.23-1.861"/>
<path fill="#2AAAE2" stroke="#2E368F" stroke-width="1.25" stroke-linecap="round" stroke-linejoin="round" stroke-opacity="0.5" d="
	M174.357,39.533l-3.091-3.326l-6.12-4.987l-4.925-2.732"/>
<path fill="#2AAAE2" stroke="#2E368F" stroke-width="1.25" stroke-linecap="round" stroke-linejoin="round" stroke-opacity="0.5" d="
	M112.878,8.972l-0.35-0.128l-1.602-0.582l-8.514-0.224"/>
<path fill="#2AAAE2" stroke="#2E368F" stroke-width="1.25" stroke-linecap="round" stroke-linejoin="round" stroke-opacity="0.5" d="
	M186.659,56.835l-1.979-7.731l-2.046-1.778"/>
<path fill="#2AAAE2" stroke="#2E368F" stroke-width="1.25" stroke-linecap="round" stroke-linejoin="round" stroke-opacity="0.5" d="
	M124.374,12.318l-3.042-3.175l-8.804-0.3"/>
</svg>
