<?xml version="1.0" encoding="utf-8"?>
<!-- Generator: Adobe Illustrator 16.0.0, SVG Export Plug-In . SVG Version: 6.00 Build 0)  -->
<!DOCTYPE svg PUBLIC "-//W3C//DTD SVG 1.1//EN" "http://www.w3.org/Graphics/SVG/1.1/DTD/svg11.dtd">
<svg version="1.1" id="Layer_1" xmlns="http://www.w3.org/2000/svg" xmlns:xlink="http://www.w3.org/1999/xlink" x="0px" y="0px"
	 width="179.864px" height="189.023px" viewBox="0 0 179.864 189.023" enable-background="new 0 0 179.864 189.023"
	 xml:space="preserve">
<path fill="#2AAAE2" stroke="#2E368F" stroke-miterlimit="10" d="M77.866,188.398l4.927-0.521l4.973,0.397l5.049-1.83l0.069-0.04
	l0.794-0.043l2.931-1.418l2.672-0.475l5.125-2.67l2.465-1.891l5.225-0.264l3.39-2.141l3.043-1.604h6.14l8.012-6.312l5.67-4.508
	l2.164-2.203l5.152-4.402l1.616-4.934l2.334-3.326l2.066-2.045l1.253-2.3l1.045-2.435l1.921-2.305l0.147-4.098l2.217-5.438
	l1.396-4.097l0.471-5.34l1.228-4.741l0.604-0.973l0.828-1.348l2.409-2.808l5.828-6.083l3.324-7.58l3.503-8.199l1.386-7.867
	l-0.779-1.742l-1.887-7.999l-4.11-7.068l-5.552-6.424l-4.268-7.268l-2.012-2.825l-1.832-2.94l-3.663-6.558l-8.217-8.747l-2.51-4.864
	l-8.895-8.898l-8.354-4.547l-3.63-0.162l-2.604-1.344l-2.173-2.526l-0.842-0.376l-0.359-0.361l-4.5-2.757l-1.479-0.502l-0.587-0.285
	l-1.116-0.294l-2.873-0.975l-3.115-1.746l-1.924,0.101l-0.659-0.434l-2.69,0.293l-0.771-0.044l-3.506-0.324l-1.388,0.48
	l-1.354-0.274l-1.639-0.526l-3.792,0.247l-1.79,0.371l-0.542-0.065l-4.743,1.086l-0.416,0.161l-0.418,0.087l-0.819,0.334
	l-6.374,0.607L65.041,5.25l-0.707,0.04l-3.446,0.718L59.34,6.954L56.513,8.99l-2.545,5.239l-2.072,2.524l-6.036,2.151l-1.432,4.242
	l-4.186,2.137l-1.499,4.96l-2.229,4.553l-1.473,3.13l-2.727,7.177l-1.265,3.084l-0.604,0.621l-5.766,5.575l-3.025,6.561
	l-2.578,5.589l-1.959,1.877l-4.93,6.588l-5.694,6.621l-5.871,9.265l1.997,3.126l-0.233,5.092l6.134,6.878l0.095,0.339l0.573,4.624
	l2.188,8.954l3.058,5.807l0.778,7.925l1.096,7.428l2.957,5.99l5.365,7.311l9.394,13.941l7.623,5.309l6.767,4.292l8.577,5.547
	l8.239,3.231l1.707,0.338l7.082,0.271L77.866,188.398z"/>
<path fill="#2AAAE2" stroke="#2E368F" stroke-width="1.25" stroke-linecap="round" stroke-linejoin="round" stroke-opacity="0.5" d="
	M122.946,23.918l-6.235-6.27"/>
<path fill="#2AAAE2" stroke="#2E368F" stroke-width="1.25" stroke-linecap="round" stroke-linejoin="round" stroke-opacity="0.5" d="
	M133.575,59.492l0.224-5.361l-2.131-5.205l-1.729-4.591l-1.792-4.709"/>
<path fill="#2AAAE2" stroke="#2E368F" stroke-width="1.25" stroke-linecap="round" stroke-linejoin="round" stroke-opacity="0.5" d="
	M121.306,18.187l-1.586-3.294l-1.366-1.513l-0.549-0.609l-0.259-0.287l-0.297-0.444l-0.021-0.03l-0.051-0.076l0,0l-0.166-0.248
	l-0.646-0.968l-2.267-3.391l-0.19-0.286l-0.187-0.279l-0.146-0.218l-0.038-0.045l-0.216-0.25l-0.529-0.618l-0.57-0.665l-0.644-0.313
	l-0.587-0.285l-1.117-0.294l-3.06-0.803l-1.748-0.214l-0.831-0.102l-1.132-0.139l-1.694-0.208"/>
<path fill="#2AAAE2" stroke="#2E368F" stroke-width="1.25" stroke-linecap="round" stroke-linejoin="round" stroke-opacity="0.5" d="
	M135.52,112.825l-1.718-3.56l-0.389-1.627l-0.291-1.215l-0.108-0.451l-0.035-0.148l-0.873-3.648l-0.276-3.369l-0.342-3.225
	l-1.365-7.631l-0.506-2.655"/>
<path fill="#2AAAE2" stroke="#2E368F" stroke-width="1.25" stroke-linecap="round" stroke-linejoin="round" stroke-opacity="0.5" d="
	M136.674,125.193l-0.678-6.221l-0.352-3.227"/>
<path fill="#2AAAE2" stroke="#2E368F" stroke-width="1.25" stroke-linecap="round" stroke-linejoin="round" stroke-opacity="0.5" d="
	M114.144,6.58l-1.352-0.949"/>
<path fill="#2AAAE2" stroke="#2E368F" stroke-width="1.25" stroke-linecap="round" stroke-linejoin="round" stroke-opacity="0.5" d="
	M104.236,2.955l-1.1-0.726l-1.175-0.775l-0.659-0.434l-2.69,0.293l-1.091,0.248L96.958,1.77l-1.001,0.37L95.78,2.205l-0.212,0.078
	L95.308,2.38L94.86,2.545l-0.115,0.043l-0.047,0.017l-0.562,0.208l-0.585,0.216"/>
<path fill="#2AAAE2" stroke="#2E368F" stroke-width="1.25" stroke-linecap="round" stroke-linejoin="round" stroke-opacity="0.5" d="
	M92.86,171.906l4.511,1.238l4.237-0.01"/>
<path fill="#2AAAE2" stroke="#2E368F" stroke-width="1.25" stroke-linecap="round" stroke-linejoin="round" stroke-opacity="0.5" d="
	M140.856,120.292l-2.742-6.211l-1.679-4.258l-3.234-3.643l-0.188-0.209"/>
<path fill="#2AAAE2" stroke="#2E368F" stroke-width="1.25" stroke-linecap="round" stroke-linejoin="round" stroke-opacity="0.5" d="
	M133.2,106.181l-0.223-0.357"/>
<path fill="#2AAAE2" stroke="#2E368F" stroke-width="1.25" stroke-linecap="round" stroke-linejoin="round" stroke-opacity="0.5" d="
	M94.744,2.588l-3.5-0.15l-0.408-0.017l-0.038-0.002l-0.422-0.018l-0.651-0.028l-0.174-0.007l-0.208,0.041L88.042,2.66l-1.87,0.366
	l-0.296,0.057l-0.434,0.085"/>
<path fill="#2AAAE2" stroke="#2E368F" stroke-width="1.25" stroke-linecap="round" stroke-linejoin="round" stroke-opacity="0.5" d="
	M129.756,37.324l1.164-3.691l0.798-3.677l-1.057-1.744l-0.183-1.767l-0.899-1.979l-1.341-2.821l-0.676-1.423l-0.385-0.619
	l-0.681-1.093l-0.146-0.236l-0.477-0.767l-0.584-0.937l-0.482-0.777"/>
<path fill="#2AAAE2" stroke="#2E368F" stroke-width="1.25" stroke-linecap="round" stroke-linejoin="round" stroke-opacity="0.5" d="
	M125.292,16.57l-1.629-2.755l-1.331-1.254l-0.048-0.045l-0.062-0.055l-2.246-2.116l-2.063-2.072l-0.359-0.361l-4.5-2.757
	l-1.478-0.502"/>
<path fill="#2AAAE2" stroke="#2E368F" stroke-width="1.25" stroke-linecap="round" stroke-linejoin="round" stroke-opacity="0.5" d="
	M109.874,4.074l-2.873-0.975l-3.115-1.746l-1.924,0.101"/>
<path fill="#2AAAE2" stroke="#2E368F" stroke-width="1.25" stroke-linecap="round" stroke-linejoin="round" stroke-opacity="0.5" d="
	M67.202,8.261l0.34-0.232l0.599-0.409l1.628-1.113l0.564-0.385l1.015-0.694l0.784-0.507l0.119-0.076l1.766-1.142L71.621,4.88
	l-0.369,0.182l-1.763,0.865"/>
<path fill="#2AAAE2" stroke="#2E368F" stroke-width="1.25" stroke-linecap="round" stroke-linejoin="round" stroke-opacity="0.5" d="
	M81.109,2.587l-0.102,0.016L79.09,2.905l-0.006,0.001l-0.563,0.088l-0.434,0.068l-0.48,0.076l-0.2,0.032l-1.114,0.175l-0.132,0.021
	l-2.146,0.337"/>
<path fill="#2AAAE2" stroke="#2E368F" stroke-width="1.25" stroke-linecap="round" stroke-linejoin="round" stroke-opacity="0.5" d="
	M91.244,2.438l-0.178-0.055l-0.213-0.067L90.75,2.284l-0.151-0.047L89.7,1.955l-0.375-0.118l-1.593-0.498l-2.297,0.032l-1.798,0.024
	l-0.004,0.001l-0.01,0.002L79.1,2.687l-0.843,0.24l-0.564,0.161L77.406,3.17"/>
<path fill="#2AAAE2" stroke="#2E368F" stroke-width="1.25" stroke-linecap="round" stroke-linejoin="round" stroke-opacity="0.5" d="
	M98.612,1.313l-0.771-0.044l-3.506-0.324l-1.388,0.48l-0.24,0.083l-0.051,0.017L91.255,2.01l-0.219,0.076l-0.438,0.151"/>
<path fill="#2AAAE2" stroke="#2E368F" stroke-width="1.25" stroke-linecap="round" stroke-linejoin="round" stroke-opacity="0.5" d="
	M141.743,152.587l0.245-3.297l0.077-2.354"/>
<path fill="#2AAAE2" stroke="#2E368F" stroke-width="1.25" stroke-linecap="round" stroke-linejoin="round" stroke-opacity="0.5" d="
	M122.806,170.704l8.622-5.063l5.149-3.956l1.842-1.462"/>
<path fill="#2AAAE2" stroke="#2E368F" stroke-width="1.25" stroke-linecap="round" stroke-linejoin="round" stroke-opacity="0.5" d="
	M65.239,8.985l3.209-2.309l0.264-0.188l0.777-0.561l-0.482,0.494l-0.206,0.21L67.566,7.89l-0.363,0.371l-3.24,3.632"/>
<path fill="#2AAAE2" stroke="#2E368F" stroke-width="1.25" stroke-linecap="round" stroke-linejoin="round" stroke-opacity="0.5" d="
	M128.132,20.455l-1.633-1.945"/>
<path fill="#2AAAE2" stroke="#2E368F" stroke-width="1.25" stroke-linecap="round" stroke-linejoin="round" stroke-opacity="0.5" d="
	M127.175,16.719l-0.705-2.698l-2.623-1.34l-0.023-0.012l-0.009-0.005l-0.28-0.145l-2.604-1.344l-2.173-2.526l-0.842-0.376"/>
<path fill="#2AAAE2" stroke="#2E368F" stroke-width="1.25" stroke-linecap="round" stroke-linejoin="round" stroke-opacity="0.5" d="
	M68.711,6.488l-1.593,0.359"/>
<path fill="#2AAAE2" stroke="#2E368F" stroke-width="1.25" stroke-linecap="round" stroke-linejoin="round" stroke-opacity="0.5" d="
	M93.639,185.47l1.211-0.215l1.759-0.313l2.672-0.475l5.125-2.67l2.465-1.891l2.139-1.641l3.186-1.34"/>
<path fill="#2AAAE2" stroke="#2E368F" stroke-width="1.25" stroke-linecap="round" stroke-linejoin="round" stroke-opacity="0.5" d="
	M135.345,27.95l-1.936-1.137l-1.178-2.81l-1.787-1.145l-0.502-2.873l-1.132-1.512l-1.637-1.754l-0.188-0.2"/>
<path fill="#2AAAE2" stroke="#2E368F" stroke-width="1.25" stroke-linecap="round" stroke-linejoin="round" stroke-opacity="0.5" d="
	M55.047,165.195l3.267,2.102l6.368,2.594"/>
<path fill="#2AAAE2" stroke="#2E368F" stroke-width="1.25" stroke-linecap="round" stroke-linejoin="round" stroke-opacity="0.5" d="
	M109.508,179.431l4.626-1.217l1.35-0.711l3.043-1.604h6.14l8.012-6.312l5.67-4.508l2.164-2.203l5.151-4.402l1.617-4.934l0.522-1.591
	"/>
<path fill="#2AAAE2" stroke="#2E368F" stroke-width="1.25" stroke-linecap="round" stroke-linejoin="round" stroke-opacity="0.5" d="
	M71.621,4.88l-6.579,0.37l-0.707,0.04l-3.446,0.718l-1.548,0.946L56.514,8.99l-2.545,5.239l-2.072,2.524l-6.036,2.151l-1.432,4.242"
	/>
<path fill="#2AAAE2" stroke="#2E368F" stroke-width="1.25" stroke-linecap="round" stroke-linejoin="round" stroke-opacity="0.5" d="
	M92.948,1.425l-1.353-0.274l-1.201-0.243"/>
<path fill="#2AAAE2" stroke="#2E368F" stroke-width="1.25" stroke-linecap="round" stroke-linejoin="round" stroke-opacity="0.5" d="
	M147.28,153.541l2.334-3.326l2.066-2.045l1.253-2.3l1.045-2.435l1.921-2.305"/>
<path fill="#2AAAE2" stroke="#2E368F" stroke-width="1.25" stroke-linecap="round" stroke-linejoin="round" stroke-opacity="0.5" d="
	M79.101,2.687l-0.615,0.059L78.232,2.77l-0.598,0.057l-0.198,0.019l-6.374,0.607L65.042,5.25"/>
<path fill="#2AAAE2" stroke="#2E368F" stroke-width="1.25" stroke-linecap="round" stroke-linejoin="round" stroke-opacity="0.5" d="
	M88.636,186.634l4.248-0.23l0.794-0.043l2.931-1.418"/>
<path fill="#2AAAE2" stroke="#2E368F" stroke-width="1.25" stroke-linecap="round" stroke-linejoin="round" stroke-opacity="0.5" d="
	M91.596,1.151l-1.639-0.526l-3.792,0.247l-1.79,0.371l-0.736,0.152"/>
<path fill="#2AAAE2" stroke="#2E368F" stroke-width="1.25" stroke-linecap="round" stroke-linejoin="round" stroke-opacity="0.5" d="
	M83.625,1.398l-4.662,0.967l-0.068,0.014l-0.221,0.046l-0.418,0.087l-0.819,0.334"/>
<path fill="#2AAAE2" stroke="#2E368F" stroke-width="1.25" stroke-linecap="round" stroke-linejoin="round" stroke-opacity="0.5" d="
	M106.869,179.908l5.225-0.264l3.39-2.141"/>
<path fill="#2AAAE2" stroke="#2E368F" stroke-width="1.25" stroke-linecap="round" stroke-linejoin="round" stroke-opacity="0.5" d="
	M45.784,22.454l-1.355,0.692l-4.186,2.137l-1.498,4.96l-2.23,4.553l-1.472,3.13l-2.728,7.177l-1.265,3.084l-1.095,2.667"/>
<path fill="#2AAAE2" stroke="#2E368F" stroke-width="1.25" stroke-linecap="round" stroke-linejoin="round" stroke-opacity="0.5" d="
	M81.799,186.698l1.855,0.849l0.425,0.194l0.416,0.188l5.154-1.176"/>
<path fill="#2AAAE2" stroke="#2E368F" stroke-width="1.25" stroke-linecap="round" stroke-linejoin="round" stroke-opacity="0.5" d="
	M154.649,134.181l0.772,3.006l0.478,3.943l0.147-4.098l2.217-5.438l1.397-4.097l0.47-5.34l1.228-4.742l0.199-0.769l0.043-0.166
	l0.184-0.696l1.248-4.749l-0.087-5.727"/>
<path fill="#2AAAE2" stroke="#2E368F" stroke-width="1.25" stroke-linecap="round" stroke-linejoin="round" stroke-opacity="0.5" d="
	M54.282,171.614l2.604,1.961l6.375,3.22l0.406,0.204l0.66,0.333"/>
<path fill="#2AAAE2" stroke="#2E368F" stroke-width="1.25" stroke-linecap="round" stroke-linejoin="round" stroke-opacity="0.5" d="
	M63.261,176.794l5.697,4.235"/>
<path fill="#2AAAE2" stroke="#2E368F" stroke-width="1.25" stroke-linecap="round" stroke-linejoin="round" stroke-opacity="0.5" d="
	M84.375,1.243l-0.542-0.065L79.09,2.264l-0.416,0.161"/>
<path fill="#2AAAE2" stroke="#2E368F" stroke-width="1.25" stroke-linecap="round" stroke-linejoin="round" stroke-opacity="0.5" d="
	M79.562,187.619l3.231,0.258l4.973,0.397l5.049-1.83l0.069-0.04"/>
<path fill="#2AAAE2" stroke="#2E368F" stroke-width="1.25" stroke-linecap="round" stroke-linejoin="round" stroke-opacity="0.5" d="
	M10.696,84.903l-0.549,1.388l-0.012,0.03l-3.174,8.014"/>
<path fill="#2AAAE2" stroke="#2E368F" stroke-width="1.25" stroke-linecap="round" stroke-linejoin="round" stroke-opacity="0.5" d="
	M141.013,22.979l-3.403-2.609l-8.021-5.817l-5.012-1.815l-0.762-0.074"/>
<path fill="#2AAAE2" stroke="#2E368F" stroke-width="1.25" stroke-linecap="round" stroke-linejoin="round" stroke-opacity="0.5" d="
	M23.302,61.959l-0.483,0.993l-0.126,0.26l-2.416,4.966l-3.359,3.162l-0.448,0.421l-1.271,1.194l-3.263,4.52l-0.598,0.828"/>
<path fill="#2AAAE2" stroke="#2E368F" stroke-width="1.25" stroke-linecap="round" stroke-linejoin="round" stroke-opacity="0.5" d="
	M17.098,125.937l1.464,9.519"/>
<path fill="#2AAAE2" stroke="#2E368F" stroke-width="1.25" stroke-linecap="round" stroke-linejoin="round" stroke-opacity="0.5" d="
	M11.936,77.475l-1.605,1.513l-0.193,7.333"/>
<path fill="#2AAAE2" stroke="#2E368F" stroke-width="1.25" stroke-linecap="round" stroke-linejoin="round" stroke-opacity="0.5" d="
	M69.012,185.837l5.008,1.448l3.848,1.112l4.927-0.521"/>
<path fill="#2AAAE2" stroke="#2E368F" stroke-width="1.25" stroke-linecap="round" stroke-linejoin="round" stroke-opacity="0.5" d="
	M162.937,52.934l-2.304-3.699l-1.832-2.94l-3.663-6.558l-8.217-8.747l-2.51-4.864l-8.895-8.898l-8.354-4.547l-3.631-0.162"/>
<path fill="#2AAAE2" stroke="#2E368F" stroke-width="1.25" stroke-linecap="round" stroke-linejoin="round" stroke-opacity="0.5" d="
	M31.052,48.187l-0.604,0.621l-5.767,5.575l-3.024,6.561l-2.578,5.589l-0.553,1.195l-2.06,4.033"/>
<path fill="#2AAAE2" stroke="#2E368F" stroke-width="1.25" stroke-linecap="round" stroke-linejoin="round" stroke-opacity="0.5" d="
	M8.337,104.065l0.214,1.728l0.032,0.256l0.032,0.271l0.573,4.624l2.188,8.954l3.057,5.807"/>
<path fill="#2AAAE2" stroke="#2E368F" stroke-width="1.25" stroke-linecap="round" stroke-linejoin="round" stroke-opacity="0.5" d="
	M14.204,123.361l0.229,2.343l0.779,7.925l1.095,7.428l2.957,5.99l5.366,7.311l9.393,13.941l7.623,5.309l6.768,4.292l8.577,5.547
	l8.238,3.231l1.707,0.338l7.082,0.271"/>
<path fill="#2AAAE2" stroke="#2E368F" stroke-width="1.25" stroke-linecap="round" stroke-linejoin="round" stroke-opacity="0.5" d="
	M178.62,81.5l-0.16-0.681l-1.887-7.999l-4.11-7.068l-5.552-6.424l-4.268-7.268l-2.012-2.825"/>
<path fill="#2AAAE2" stroke="#2E368F" stroke-width="1.25" stroke-linecap="round" stroke-linejoin="round" stroke-opacity="0.5" d="
	M8.422,105.62l0.1,0.36l0.095,0.339"/>
<path fill="#2AAAE2" stroke="#2E368F" stroke-width="1.25" stroke-linecap="round" stroke-linejoin="round" stroke-opacity="0.5" d="
	M161.601,116.482l1.188-1.385l2.409-2.808l5.828-6.083l3.324-7.58l3.503-8.199l1.386-7.867l-0.779-1.742"/>
<path fill="#2AAAE2" stroke="#2E368F" stroke-width="1.25" stroke-linecap="round" stroke-linejoin="round" stroke-opacity="0.5" d="
	M2.846,89.138L2.622,94.01l-0.234,5.092l6.134,6.878"/>
<path fill="#2AAAE2" stroke="#2E368F" stroke-width="1.25" stroke-linecap="round" stroke-linejoin="round" stroke-opacity="0.5" d="
	M19.079,66.533L17.12,68.41l-4.931,6.588l-5.693,6.621l-5.871,9.265l1.997,3.126"/>
<path fill="#2AAAE2" stroke="#2E368F" stroke-width="1.25" stroke-linecap="round" stroke-linejoin="round" stroke-opacity="0.5" d="
	M161.358,117.417l0.604-0.973l0.828-1.348"/>
</svg>
