<?xml version="1.0" encoding="utf-8"?>
<!-- Generator: Adobe Illustrator 16.0.0, SVG Export Plug-In . SVG Version: 6.00 Build 0)  -->
<!DOCTYPE svg PUBLIC "-//W3C//DTD SVG 1.1//EN" "http://www.w3.org/Graphics/SVG/1.1/DTD/svg11.dtd">
<svg version="1.1" id="Layer_1" xmlns="http://www.w3.org/2000/svg" xmlns:xlink="http://www.w3.org/1999/xlink" x="0px" y="0px"
	 width="151.843px" height="135.069px" viewBox="0 0 151.843 135.069" enable-background="new 0 0 151.843 135.069"
	 xml:space="preserve">
<path fill="#2AAAE2" stroke="#2E368F" stroke-miterlimit="10" d="M147.039,80.956l0.798-5.355l-0.231-1.329l1.31-3.195l2.303-4.128
	l-1.428-5.515l0.405-4.542l-0.112-6.796l-2.348-7.576l-1.851-0.849l-1.093-2.034l-4.677-5.008l-2.183-1.716l-1.082-2.149
	l-2.563-0.719l-6.082-1.298l-0.839-0.24l-5.218-1.939l-4.593-4.88l-4.381-7.045l-5.667-1.954l-4.738,2.771l-0.996-0.452l-2.546,0.5
	l-2.407-2.582l-1.986,0.03l-2.493-2.463l-6.714-5.135l-6.291,0.398l-4.335-3.593l-8.207-0.194l-8.938-1.343l-6.974,4.707
	l-5.679,2.492l-0.521,0.453L39.486,9.52l-1.341,1.44L33.77,9.614l-1.033,4.032l-3.097,1.342l-1.913,2.895l-0.291,0.25l-0.263,0.079
	l-0.145,0.27l-1.296,1.112l-2.104,1.871l-4.13,1.162l-2.033,5.629l-0.824,1.036l-2.574,0.801l-0.59,3.94l-1.209,4.608l0.155,1.218
	l-1.44,0.891l-2.791,5.043l-0.057,5.553l-2.077,6.108l0.098,0.982l-0.518,1.292l1.008,3.678l0.083,0.842l-1.297,7.052l-0.74,4.115
	L0.63,82.991l0.74,0.639l7.695,6.071l0.363,8.119l2.784-0.353l-0.651,3.899l1.393,7.298l9.332-0.707l1.294,0.446l-0.563,4.276
	l6.915,0.156l4.501,3.998l5.951,4.991l5.735,2.664l6.548,4.886l9.251,5.068l9.661-1.622l2.884-1.347l6.159,0.508l8.844-4.881
	l6.312-4.575l4.752-5.302l7.586,0.808l5.352-2.782l5.844-7.916l1.498-5.303l3.888-2.383l5.979-1.667l5.033-2.537l3.214-4.085
	l6.178-5.5L147.039,80.956z"/>
<path fill="#2AAAE2" stroke="#2E368F" stroke-width="1.25" stroke-linecap="round" stroke-linejoin="round" stroke-opacity="0.5" d="
	M78.137,20.066l-7.836-4.634l-5.807-1.694l-4.318,1.427l-1.077,0.356l-0.903,0.299"/>
<path fill="#2AAAE2" stroke="#2E368F" stroke-width="1.25" stroke-linecap="round" stroke-linejoin="round" stroke-opacity="0.5" d="
	M88.639,16.668l-8.25-1.713L80.27,14.93l-0.057-0.006l-7.208-0.846"/>
<path fill="#2AAAE2" stroke="#2E368F" stroke-width="1.25" stroke-linecap="round" stroke-linejoin="round" stroke-opacity="0.5" d="
	M43.859,17.856l-0.063-0.002l-0.456-0.02l-5.167-0.225l-0.315-0.014l-0.077,0.05l-0.342,0.216l-0.725,0.459l-2.883,1.829
	l-0.795,5.729"/>
<path fill="#2AAAE2" stroke="#2E368F" stroke-width="1.25" stroke-linecap="round" stroke-linejoin="round" stroke-opacity="0.5" d="
	M52.003,14.699l-5.035-0.978l-0.011-0.002l-1.273-0.248l-2.344,4.363"/>
<path fill="#2AAAE2" stroke="#2E368F" stroke-width="1.25" stroke-linecap="round" stroke-linejoin="round" stroke-opacity="0.5" d="
	M82.332,96.383l7.108-8.332l0.593-2.433l0.234-0.971l1.233-7.511"/>
<path fill="#2AAAE2" stroke="#2E368F" stroke-width="1.25" stroke-linecap="round" stroke-linejoin="round" stroke-opacity="0.5" d="
	M89.441,88.051l3.331-6.256"/>
<path fill="#2AAAE2" stroke="#2E368F" stroke-width="1.25" stroke-linecap="round" stroke-linejoin="round" stroke-opacity="0.5" d="
	M55.465,13.16l-1.461-0.943l-3.842,0.444l-0.166,0.02l-3.039,1.038"/>
<path fill="#2AAAE2" stroke="#2E368F" stroke-width="1.25" stroke-linecap="round" stroke-linejoin="round" stroke-opacity="0.5" d="
	M80.389,14.955l-1.229-1.752l-0.034-0.049l-1.972-2.807l-1.483-2.116l-0.459-0.654l-0.556-0.789l-0.631,0.069l-1.063,0.118
	l-0.358,0.04l-4.243,0.47l-5.662,1.616l-6.052-0.537L54.898,8.48l-0.813-0.039l-2.815-0.134l-3.778,2.134l-0.521,0.294l-0.577,0.325
	l-4.853,1.786"/>
<path fill="#2AAAE2" stroke="#2E368F" stroke-width="1.25" stroke-linecap="round" stroke-linejoin="round" stroke-opacity="0.5" d="
	M51.084,12.355l-1.088,0.326"/>
<path fill="#2AAAE2" stroke="#2E368F" stroke-width="1.25" stroke-linecap="round" stroke-linejoin="round" stroke-opacity="0.5" d="
	M28.647,22.487l-0.229,0.456l-0.629,1.258l-2.556,3.456l-1.277,0.794l-0.853,0.528"/>
<path fill="#2AAAE2" stroke="#2E368F" stroke-width="1.25" stroke-linecap="round" stroke-linejoin="round" stroke-opacity="0.5" d="
	M26.141,85.16l1.549,1.705l0.275,0.159l3.859,1.742l3.937,1.223l2.992,3.643l5.104,0.764l3.166,2.219l7.107,0.432l8.243-3.467"/>
<path fill="#2AAAE2" stroke="#2E368F" stroke-width="1.25" stroke-linecap="round" stroke-linejoin="round" stroke-opacity="0.5" d="
	M107.173,36.086l2.957-9.558l0.064-0.214l0.283-0.914l0.021-0.062l0.05-0.163l0.254-0.818l0.188-0.613l-5.257-3.014l-0.005-0.003
	l-0.832-0.477l-0.007-0.004l-1.606-0.922l-3.971-2.277l-0.801-0.459l-0.793-0.784l-0.527-0.52l-2.356-2.329l-2.493-2.463
	l-6.714-5.135l-6.291,0.398l-1.205,0.077"/>
<path fill="#2AAAE2" stroke="#2E368F" stroke-width="1.25" stroke-linecap="round" stroke-linejoin="round" stroke-opacity="0.5" d="
	M83.695,8.444l-2.518-1.182l-3.046-1.43l-2.197-1.031l-2.573,0.66l-1.181,0.303L71.144,6.03l-1.737,0.446"/>
<path fill="#2AAAE2" stroke="#2E368F" stroke-width="1.25" stroke-linecap="round" stroke-linejoin="round" stroke-opacity="0.5" d="
	M21.249,79.167l2.612,5.19l2.278,0.803l0.095,0.033l2.163,0.763"/>
<path fill="#2AAAE2" stroke="#2E368F" stroke-width="1.25" stroke-linecap="round" stroke-linejoin="round" stroke-opacity="0.5" d="
	M24.766,26.639l-1.66,2.34l-1.785,4.452"/>
<path fill="#2AAAE2" stroke="#2E368F" stroke-width="1.25" stroke-linecap="round" stroke-linejoin="round" stroke-opacity="0.5" d="
	M37.779,17.645l-2.424-0.226l-1.16-0.108l-0.638,0.751l-0.898,1.063l-0.993,1.172l-3.019,2.19l-0.956,0.926"/>
<path fill="#2AAAE2" stroke="#2E368F" stroke-width="1.25" stroke-linecap="round" stroke-linejoin="round" stroke-opacity="0.5" d="
	M46.404,11.898l-0.195,0.128l-3.887,2.552l-4.148,1.792l-2.817,1.049"/>
<path fill="#2AAAE2" stroke="#2E368F" stroke-width="1.25" stroke-linecap="round" stroke-linejoin="round" stroke-opacity="0.5" d="
	M63.341,108.617l9.458,1.279l9.101-5.714"/>
<path fill="#2AAAE2" stroke="#2E368F" stroke-width="1.25" stroke-linecap="round" stroke-linejoin="round" stroke-opacity="0.5" d="
	M111.358,64.401l1.132-3.491l-1.427-7.982"/>
<path fill="#2AAAE2" stroke="#2E368F" stroke-width="1.25" stroke-linecap="round" stroke-linejoin="round" stroke-opacity="0.5" d="
	M33.558,18.062l-1.928,0.496l-2.626,0.675l-0.153,0.04"/>
<path fill="#2AAAE2" stroke="#2E368F" stroke-width="1.25" stroke-linecap="round" stroke-linejoin="round" stroke-opacity="0.5" d="
	M73.361,5.461l-2.079-0.169l-1.221-0.099L69.927,5.21L63.662,6l-6.281,1.052l-3.296,1.389"/>
<path fill="#2AAAE2" stroke="#2E368F" stroke-width="1.25" stroke-linecap="round" stroke-linejoin="round" stroke-opacity="0.5" d="
	M12.581,71.639l2.573,5.798l0.547,0.784"/>
<path fill="#2AAAE2" stroke="#2E368F" stroke-width="1.25" stroke-linecap="round" stroke-linejoin="round" stroke-opacity="0.5" d="
	M47.49,10.441l-1.24,0.024l-3.469,0.857l-1.916,0.474l-0.154-0.047l-2.563-0.789l-4.376-1.346l-1.033,4.032l-0.429,1.673
	l-0.239,0.933l-0.135,0.524L30.4,17.239l-2.211,0.667l-0.464,0.14l-0.131,0.039l-0.157,0.048l-0.263,0.079l-0.144,0.27l-1.265,2.382
	l-0.11,0.21l-0.996,1.878l-0.452,0.518l-3.511,3.451l-2.557,1.905l-2.042,1.522l0.339,4.179l0.039,0.478l0.061,0.734l-0.197,1.699
	l-0.009,0.078L15.9,41.211"/>
<path fill="#2AAAE2" stroke="#2E368F" stroke-width="1.25" stroke-linecap="round" stroke-linejoin="round" stroke-opacity="0.5" d="
	M113.615,29.154l-1.137-1.39l-1.98-2.426"/>
<path fill="#2AAAE2" stroke="#2E368F" stroke-width="1.25" stroke-linecap="round" stroke-linejoin="round" stroke-opacity="0.5" d="
	M110.082,84.994l5.123-7.673l0.048-4.785"/>
<path fill="#2AAAE2" stroke="#2E368F" stroke-width="1.25" stroke-linecap="round" stroke-linejoin="round" stroke-opacity="0.5" d="
	M118.253,31.725l-3.569-4.09l-0.192-0.223l-0.904-1.036l-2.784-2.019"/>
<path fill="#2AAAE2" stroke="#2E368F" stroke-width="1.25" stroke-linecap="round" stroke-linejoin="round" stroke-opacity="0.5" d="
	M18.142,28.826l-1.499,0.466l-2.574,0.801l-0.59,3.94l-0.354,2.363l0.054,2.532l0.01,0.459l0.009,0.36l0.06,2.746l-0.293,1.571
	l-0.75,4.015l-0.634,3.79l-0.326,1.951l-1.008,4.649L9.981,59.68"/>
<path fill="#2AAAE2" stroke="#2E368F" stroke-width="1.25" stroke-linecap="round" stroke-linejoin="round" stroke-opacity="0.5" d="
	M99.109,100l2.025-2.424l2.889-5.859"/>
<path fill="#2AAAE2" stroke="#2E368F" stroke-width="1.25" stroke-linecap="round" stroke-linejoin="round" stroke-opacity="0.5" d="
	M35.234,98.576l4.333,1.769l0.823,0.272"/>
<path fill="#2AAAE2" stroke="#2E368F" stroke-width="1.25" stroke-linecap="round" stroke-linejoin="round" stroke-opacity="0.5" d="
	M32.738,13.646l-3.097,1.342l-1.913,2.895l-0.134,0.202"/>
<path fill="#2AAAE2" stroke="#2E368F" stroke-width="1.25" stroke-linecap="round" stroke-linejoin="round" stroke-opacity="0.5" d="
	M127.021,59.891l2.028-3.314l0.849-3.041"/>
<path fill="#2AAAE2" stroke="#2E368F" stroke-width="1.25" stroke-linecap="round" stroke-linejoin="round" stroke-opacity="0.5" d="
	M71.281,5.292l-5.546-2.906"/>
<path fill="#2AAAE2" stroke="#2E368F" stroke-width="1.25" stroke-linecap="round" stroke-linejoin="round" stroke-opacity="0.5" d="
	M51.609,7.77L45.24,8.144l-0.554,0.133L39.488,9.52l-1.341,1.44"/>
<path fill="#2AAAE2" stroke="#2E368F" stroke-width="1.25" stroke-linecap="round" stroke-linejoin="round" stroke-opacity="0.5" d="
	M27.729,17.883l-0.291,0.25"/>
<path fill="#2AAAE2" stroke="#2E368F" stroke-width="1.25" stroke-linecap="round" stroke-linejoin="round" stroke-opacity="0.5" d="
	M27.031,18.482l-1.297,1.112l-2.104,1.871l-2.156,1.916"/>
<path fill="#2AAAE2" stroke="#2E368F" stroke-width="1.25" stroke-linecap="round" stroke-linejoin="round" stroke-opacity="0.5" d="
	M10.899,86.397l0.73,3.313L11.914,91l0.387,1.755l3.645,1.06l1.622,0.472l0.354,0.102l0.707,0.207l0.312,0.09"/>
<path fill="#2AAAE2" stroke="#2E368F" stroke-width="1.25" stroke-linecap="round" stroke-linejoin="round" stroke-opacity="0.5" d="
	M9.82,57.034l-2.238,4.794l-0.523,2.471l-0.072,0.339l-0.897,4.248l-0.306,1.199L5.66,73.467l-0.008,0.16L5.62,74.559l-0.024,0.664
	l-0.111,3.065l5.622,6.962"/>
<path fill="#2AAAE2" stroke="#2E368F" stroke-width="1.25" stroke-linecap="round" stroke-linejoin="round" stroke-opacity="0.5" d="
	M103.283,19.324l-2.018-1.631l-0.41-0.44l-0.99-1.065l-0.637-0.681l-2.406-2.582l-1.987,0.03"/>
<path fill="#2AAAE2" stroke="#2E368F" stroke-width="1.25" stroke-linecap="round" stroke-linejoin="round" stroke-opacity="0.5" d="
	M15.945,93.814l2.089,1.379l0.623,0.411"/>
<path fill="#2AAAE2" stroke="#2E368F" stroke-width="1.25" stroke-linecap="round" stroke-linejoin="round" stroke-opacity="0.5" d="
	M23.63,21.465l-4.13,1.162l-2.033,5.629l-0.824,1.036"/>
<path fill="#2AAAE2" stroke="#2E368F" stroke-width="1.25" stroke-linecap="round" stroke-linejoin="round" stroke-opacity="0.5" d="
	M13.479,34.033l-1.209,4.608l0.155,1.218l0.011,0.087l0.04,0.314l0.487,3.804"/>
<path fill="#2AAAE2" stroke="#2E368F" stroke-width="1.25" stroke-linecap="round" stroke-linejoin="round" stroke-opacity="0.5" d="
	M123.098,29.015l-1.497-1.367l-3.152-2.878l-0.39-0.354l-5.354-5.145"/>
<path fill="#2AAAE2" stroke="#2E368F" stroke-width="1.25" stroke-linecap="round" stroke-linejoin="round" stroke-opacity="0.5" d="
	M79.337,5.755l-4.335-3.593l-8.207-0.194l-8.938-1.343l-6.974,4.707l-5.679,2.492l-0.521,0.453"/>
<path fill="#2AAAE2" stroke="#2E368F" stroke-width="1.25" stroke-linecap="round" stroke-linejoin="round" stroke-opacity="0.5" d="
	M18.033,95.193l0.628,1.223l0.024,0.052l0.229,0.149l3.88,2.54l1.372,0.008"/>
<path fill="#2AAAE2" stroke="#2E368F" stroke-width="1.25" stroke-linecap="round" stroke-linejoin="round" stroke-opacity="0.5" d="
	M135.117,35.733l-3.187-4.958l-0.033-0.053l-0.725-1.128l-2.968-0.848l-0.838-0.24l-2.162-0.618l-2.479-0.708l-0.536-0.57
	l-0.04-0.043l-4.593-4.88l-4.381-7.045l-5.667-1.954l-4.738,2.771"/>
<path fill="#2AAAE2" stroke="#2E368F" stroke-width="1.25" stroke-linecap="round" stroke-linejoin="round" stroke-opacity="0.5" d="
	M11.914,91l-1.729-1.289L9.164,88.95l-0.135-0.1l0.005,0.076l0.032,0.774L9.43,97.82l2.784-0.353l0.506-0.064l0.216-0.027
	l5.979-0.759"/>
<path fill="#2AAAE2" stroke="#2E368F" stroke-width="1.25" stroke-linecap="round" stroke-linejoin="round" stroke-opacity="0.5" d="
	M106.717,17.25l-3.945-1.791l-0.996-0.452l-2.546,0.5"/>
<path fill="#2AAAE2" stroke="#2E368F" stroke-width="1.25" stroke-linecap="round" stroke-linejoin="round" stroke-opacity="0.5" d="
	M12.425,39.859l-1.44,0.891l-2.791,5.043l-0.057,5.553L6.06,57.454l0.098,0.982l0.49,4.97l0.083,0.842l-1.297,7.052l-0.74,4.115
	l-0.101,0.563l-0.347,1.931l-0.558,3.101"/>
<path fill="#2AAAE2" stroke="#2E368F" stroke-width="1.25" stroke-linecap="round" stroke-linejoin="round" stroke-opacity="0.5" d="
	M141.286,86.025l2.646-4.085l1.122-2.657l-0.396-2.994l-0.3-2.252l-0.007-0.054l-0.06-0.457l-0.396-2.975"/>
<path fill="#2AAAE2" stroke="#2E368F" stroke-width="1.25" stroke-linecap="round" stroke-linejoin="round" stroke-opacity="0.5" d="
	M140.16,37.334l-2.228-4.422l-1.082-2.149l-2.563-0.719l-6.082-1.298"/>
<path fill="#2AAAE2" stroke="#2E368F" stroke-width="1.25" stroke-linecap="round" stroke-linejoin="round" stroke-opacity="0.5" d="
	M4.693,75.415l-4.062,7.576l0.779,0.544l0.006,0.004l7.581,5.288l0.033,0.023"/>
<path fill="#2AAAE2" stroke="#2E368F" stroke-width="1.25" stroke-linecap="round" stroke-linejoin="round" stroke-opacity="0.5" d="
	M12.436,39.946l-0.52,0.712"/>
<path fill="#2AAAE2" stroke="#2E368F" stroke-width="1.25" stroke-linecap="round" stroke-linejoin="round" stroke-opacity="0.5" d="
	M149.183,57.498l-0.264-0.865l-1.078-3.526l0.117-2.082l0.002-0.038l0.058-1.033l0.035-0.62l0.186-3.286l-2.354-4.378l-1.093-2.034
	l-4.678-5.008l-2.182-1.716"/>
<path fill="#2AAAE2" stroke="#2E368F" stroke-width="1.25" stroke-linecap="round" stroke-linejoin="round" stroke-opacity="0.5" d="
	M100.531,117.225l7.586,0.808l5.352-2.782l5.844-7.916l1.498-5.303l0.355-1.255l0.088-0.312l0.738-2.613l0.095-0.336l0.225-0.469
	l2.271-4.736"/>
<path fill="#2AAAE2" stroke="#2E368F" stroke-width="1.25" stroke-linecap="round" stroke-linejoin="round" stroke-opacity="0.5" d="
	M127.368,28.506l-5.219-1.939"/>
<path fill="#2AAAE2" stroke="#2E368F" stroke-width="1.25" stroke-linecap="round" stroke-linejoin="round" stroke-opacity="0.5" d="
	M129.493,92.685l7.251-3.95l2.792-1.665l1.75-1.045l-2.363,1.76"/>
<path fill="#2AAAE2" stroke="#2E368F" stroke-width="1.25" stroke-linecap="round" stroke-linejoin="round" stroke-opacity="0.5" d="
	M71.07,131.194l3.396,0.281l6.159,0.508l8.844-4.881l6.312-4.575l4.752-5.302l0.146-0.162l6.944-2.699"/>
<path fill="#2AAAE2" stroke="#2E368F" stroke-width="1.25" stroke-linecap="round" stroke-linejoin="round" stroke-opacity="0.5" d="
	M146.197,77.711l1.408-3.44l1.31-3.195l2.303-4.128l-1.428-5.515l-0.095-0.362l0.051-4.561l-1.785-5.523"/>
<path fill="#2AAAE2" stroke="#2E368F" stroke-width="1.25" stroke-linecap="round" stroke-linejoin="round" stroke-opacity="0.5" d="
	M19.338,99.158l2.841,4.371l1.866,1.356l3.011,2.191"/>
<path fill="#2AAAE2" stroke="#2E368F" stroke-width="1.25" stroke-linecap="round" stroke-linejoin="round" stroke-opacity="0.5" d="
	M0.632,82.991l0.74,0.639l7.695,6.071"/>
<path fill="#2AAAE2" stroke="#2E368F" stroke-width="1.25" stroke-linecap="round" stroke-linejoin="round" stroke-opacity="0.5" d="
	M6.156,58.436l-0.518,1.292l1.008,3.678"/>
<path fill="#2AAAE2" stroke="#2E368F" stroke-width="1.25" stroke-linecap="round" stroke-linejoin="round" stroke-opacity="0.5" d="
	M24.045,104.885l-0.211,1.605l-0.063,0.479l-0.188,1.435l-0.563,4.276l6.915,0.156l1.266,0.028l1.723,0.858l1.173,0.584l2.809,1.396
	"/>
<path fill="#2AAAE2" stroke="#2E368F" stroke-width="1.25" stroke-linecap="round" stroke-linejoin="round" stroke-opacity="0.5" d="
	M120.811,102.032l3.887-2.383l5.979-1.667l5.033-2.537l3.214-4.085l6.178-5.5l1.938-4.904l0.798-5.355l-0.231-1.329"/>
<path fill="#2AAAE2" stroke="#2E368F" stroke-width="1.25" stroke-linecap="round" stroke-linejoin="round" stroke-opacity="0.5" d="
	M149.789,61.433l0.406-4.542l-0.113-6.796l-2.348-7.576l-1.851-0.849"/>
<path fill="#2AAAE2" stroke="#2E368F" stroke-width="1.25" stroke-linecap="round" stroke-linejoin="round" stroke-opacity="0.5" d="
	M32.922,113.723l3.244,3.779l6.1,2.405"/>
<path fill="#2AAAE2" stroke="#2E368F" stroke-width="1.25" stroke-linecap="round" stroke-linejoin="round" stroke-opacity="0.5" d="
	M12.722,97.403l0.216,1.129"/>
<path fill="#2AAAE2" stroke="#2E368F" stroke-width="1.25" stroke-linecap="round" stroke-linejoin="round" stroke-opacity="0.5" d="
	M46.122,124.49l6.548,4.886l9.251,5.068l9.661-1.622l2.884-1.347"/>
<path fill="#2AAAE2" stroke="#2E368F" stroke-width="1.25" stroke-linecap="round" stroke-linejoin="round" stroke-opacity="0.5" d="
	M12.216,97.467l-0.651,3.899l1.393,7.298l9.332-0.707l1.294,0.446"/>
<path fill="#2AAAE2" stroke="#2E368F" stroke-width="1.25" stroke-linecap="round" stroke-linejoin="round" stroke-opacity="0.5" d="
	M29.935,112.836l4.501,3.998l5.951,4.991l5.735,2.664l0.458,0.212"/>
</svg>
