<?xml version="1.0" encoding="utf-8"?>
<!-- Generator: Adobe Illustrator 16.0.0, SVG Export Plug-In . SVG Version: 6.00 Build 0)  -->
<!DOCTYPE svg PUBLIC "-//W3C//DTD SVG 1.1//EN" "http://www.w3.org/Graphics/SVG/1.1/DTD/svg11.dtd">
<svg version="1.1" id="Layer_1" xmlns="http://www.w3.org/2000/svg" xmlns:xlink="http://www.w3.org/1999/xlink" x="0px" y="0px"
	 width="145.159px" height="172.586px" viewBox="0 0 145.159 172.586" enable-background="new 0 0 145.159 172.586"
	 xml:space="preserve">
<path fill="#2AAAE2" stroke="#2E368F" stroke-miterlimit="10" d="M0.777,96.652l0.85,7.683l5.313,8.951l3.382,9.83l1.053,6.359
	l0.972,8.884l1.789,4.298l9.637,8.561l7.532,2.168l7.865,5.515l2.271,1.007l3.202,2.741l4.317,0.908l2.195,1.157l1.434,0.345
	l1.323,1.001l4.826,1.188l1.52-0.336l1.936,1.021l2.546-0.108l0.185,0.056l0.878-0.1l1.546-0.066l2.619,1.101l1.516-0.2l1.008,0.329
	l4.227,0.181l4.144,2.603l7.117,0.235l3.495-1.881l3.816,1.113l7.557-2.25l2.729-1.313l3.703-0.23l7.213-1.427l5.604-6.308
	l0.916-0.771l3.152-1.63l4.542-6.26l4.534-3.408l1.76-4.894l1.013-2.713l-0.212-1.389l0.414-0.818l2.455-5.063l1.337-7.211
	l-1.681-5.515l1.592-4.178l0.813-5.5l0.47-5.121l1.334-5.239l-2.306-7.951l-2.215-5.406l-2.207-2.629l-0.031-0.051l-0.104-0.873
	l-1.813-2.14l-0.718-1.123l-1.47-4.328l-2.842-5.956l0.772-1.654l0.354-1.106l2.66-4.635l-0.295-1.471l0.14-0.134l1.002-5.617
	l-0.69-6.865l-0.146-2.008l-2.454-6.495l-0.33-0.564l0.006-0.122l-1.472-2.38l-3.353-4.956l-2.102-4.104l-3.811-3.869l-2.678-4.558
	l-3.453-4.023l-4.248-3.546l-4.641-4.239l-2.657-0.333l-6.209-1.472l-1.762-0.775l-8.576-3.949l-6.888,1.866L69.48,1.271
	l-1.753,0.572l-2.083-0.48l-9.688,2.531l-8.031,7.589l-0.641,0.789l-0.852,0.508l-2.627,3.769l-6.03,9.217l-0.28,8.085l-0.948,2.191
	l-0.8,1.698l-2.104,0.928l-7.191,5.342l-1.644,0.829l-5.784,4.394l-4.146,5.501l-1.608,2.646l-2.394,2.098L7.645,65.15L1.53,71.951
	l-0.909,8.392L0.777,96.652z"/>
<path fill="#2AAAE2" stroke="#2E368F" stroke-width="1.25" stroke-linecap="round" stroke-linejoin="round" stroke-opacity="0.5" d="
	M124.804,28.354l-4.064-4.327l-2.947-4.943l-4.521-4.443l-3.545-3.749"/>
<path fill="#2AAAE2" stroke="#2E368F" stroke-width="1.25" stroke-linecap="round" stroke-linejoin="round" stroke-opacity="0.5" d="
	M104.048,6.966l-0.611-0.145l-6.209-1.472L97.063,5.31l-1.598-0.736L86.89,0.625l-6.888,1.866l-10.519-1.22L67.73,1.843"/>
<path fill="#2AAAE2" stroke="#2E368F" stroke-width="1.25" stroke-linecap="round" stroke-linejoin="round" stroke-opacity="0.5" d="
	M46.322,17.699l-2.282,2.269l-1.486,5.197"/>
<path fill="#2AAAE2" stroke="#2E368F" stroke-width="1.25" stroke-linecap="round" stroke-linejoin="round" stroke-opacity="0.5" d="
	M131.611,43.159l0.23-4.208l0.006-0.122l-1.472-2.38l-3.353-4.956l-2.102-4.104l-3.811-3.869l-2.678-4.558l-3.453-4.023
	l-4.248-3.546l-4.641-4.239l-2.657-0.333"/>
<path fill="#2AAAE2" stroke="#2E368F" stroke-width="1.25" stroke-linecap="round" stroke-linejoin="round" stroke-opacity="0.5" d="
	M97.228,5.349l-1.762-0.775"/>
<path fill="#2AAAE2" stroke="#2E368F" stroke-width="1.25" stroke-linecap="round" stroke-linejoin="round" stroke-opacity="0.5" d="
	M128.402,66.391l0.168-0.164l0.311-0.3l0.177-0.172l0.23-0.224l5.033-4.897l0.14-0.134l1.002-5.617l-0.69-6.865l-0.146-2.008
	l-2.454-6.495l-0.33-0.564"/>
<path fill="#2AAAE2" stroke="#2E368F" stroke-width="1.25" stroke-linecap="round" stroke-linejoin="round" stroke-opacity="0.5" d="
	M73.38,3.144l-5.648-1.301l-2.083-0.48l-9.688,2.531l-8.031,7.589l-0.641,0.789"/>
<path fill="#2AAAE2" stroke="#2E368F" stroke-width="1.25" stroke-linecap="round" stroke-linejoin="round" stroke-opacity="0.5" d="
	M51.941,9.489l-4.651,2.783l-0.852,0.508l-2.627,3.769l-6.03,9.217l-0.28,8.085l-0.068,1.957"/>
<path fill="#2AAAE2" stroke="#2E368F" stroke-width="1.25" stroke-linecap="round" stroke-linejoin="round" stroke-opacity="0.5" d="
	M131.067,68.284l0.889-1.544l2.66-4.635l-0.295-1.471"/>
<path fill="#2AAAE2" stroke="#2E368F" stroke-width="1.25" stroke-linecap="round" stroke-linejoin="round" stroke-opacity="0.5" d="
	M36.927,45.515l-3.283,9.042"/>
<path fill="#2AAAE2" stroke="#2E368F" stroke-width="1.25" stroke-linecap="round" stroke-linejoin="round" stroke-opacity="0.5" d="
	M128.816,73.811l0.393-0.838l0.271-0.584l0.157-0.337l0.122-0.262l0.209-0.447l0.081-0.173l0.065-0.144l0.098-0.207l0.346-0.739
	l0.046-0.1l0.159-0.34l0.065-0.14l0.771-1.654l0.354-1.106"/>
<path fill="#2AAAE2" stroke="#2E368F" stroke-width="1.25" stroke-linecap="round" stroke-linejoin="round" stroke-opacity="0.5" d="
	M112.222,122.237l3.81-5.373l0.995-6.025l1.275-5.853l-0.821,1.776l-0.461,0.471l-5.949,6.066"/>
<path fill="#2AAAE2" stroke="#2E368F" stroke-width="1.25" stroke-linecap="round" stroke-linejoin="round" stroke-opacity="0.5" d="
	M118.037,98.999l2.563-6.287l4.172-6.368l0.174-0.394l0.349-0.783l2.691-6.088l1.531-4.956l0.294-0.952l0.083-0.267l0.045-0.146
	v-0.002l0.009-0.063v-0.001l0.062-0.425l0.093-0.659l0.067-0.474l0.044-0.315"/>
<path fill="#2AAAE2" stroke="#2E368F" stroke-width="1.25" stroke-linecap="round" stroke-linejoin="round" stroke-opacity="0.5" d="
	M124.18,91.588l0.161-0.924l0.953-5.498"/>
<path fill="#2AAAE2" stroke="#2E368F" stroke-width="1.25" stroke-linecap="round" stroke-linejoin="round" stroke-opacity="0.5" d="
	M118.302,104.986l2.401-6.004l3.477-7.394l0.93-2.032"/>
<path fill="#2AAAE2" stroke="#2E368F" stroke-width="1.25" stroke-linecap="round" stroke-linejoin="round" stroke-opacity="0.5" d="
	M37.5,33.851l-0.948,2.191l-0.8,1.698l-0.261,0.551l-0.521,1.107l-0.192,0.409l-0.025,0.055l-0.02,0.038l-0.001,0.002l-0.076,0.163
	l-0.393,0.834l-0.104,0.217l-0.193,0.309l-1.071,1.707l-2.02,3.22"/>
<path fill="#2AAAE2" stroke="#2E368F" stroke-width="1.25" stroke-linecap="round" stroke-linejoin="round" stroke-opacity="0.5" d="
	M120.187,106.681l2.033-5.035l1.799-9.031l3.634-5.292l1.609-9.523l0.55-4.629"/>
<path fill="#2AAAE2" stroke="#2E368F" stroke-width="1.25" stroke-linecap="round" stroke-linejoin="round" stroke-opacity="0.5" d="
	M34.97,39.398l-0.783,0.707l-0.468,0.423l-1.26,1.137l-0.392,0.637l-0.301,0.493l-1.637,2.677l-1.215,1.988"/>
<path fill="#2AAAE2" stroke="#2E368F" stroke-width="1.25" stroke-linecap="round" stroke-linejoin="round" stroke-opacity="0.5" d="
	M131.692,97.762l0.817-5.756l0.52-4.015"/>
<path fill="#2AAAE2" stroke="#2E368F" stroke-width="1.25" stroke-linecap="round" stroke-linejoin="round" stroke-opacity="0.5" d="
	M132.274,76.651l-0.009-0.037l-0.146-0.599l-0.03-0.121l-0.045-0.184l-0.17-0.698l-0.165-0.672l-0.854-3.489l-0.252-0.871"/>
<path fill="#2AAAE2" stroke="#2E368F" stroke-width="1.25" stroke-linecap="round" stroke-linejoin="round" stroke-opacity="0.5" d="
	M32.068,42.302l-0.485,0.422L31.104,43.3l-3.765,4.536l-8.891,8.099l-4.155,4.64l-5.328,5.957"/>
<path fill="#2AAAE2" stroke="#2E368F" stroke-width="1.25" stroke-linecap="round" stroke-linejoin="round" stroke-opacity="0.5" d="
	M131.669,82.526l0.604-5.875v-0.02l-0.01-0.409l-0.002-0.07l-0.015-0.602l-0.004-0.097l-0.059-2.321l1.188,4.042l0.356,1.221
	l0.113,0.385"/>
<path fill="#2AAAE2" stroke="#2E368F" stroke-width="1.25" stroke-linecap="round" stroke-linejoin="round" stroke-opacity="0.5" d="
	M132.187,73.132l-1.423-3.492"/>
<path fill="#2AAAE2" stroke="#2E368F" stroke-width="1.25" stroke-linecap="round" stroke-linejoin="round" stroke-opacity="0.5" d="
	M135.715,109.859l1.767-8.722"/>
<path fill="#2AAAE2" stroke="#2E368F" stroke-width="1.25" stroke-linecap="round" stroke-linejoin="round" stroke-opacity="0.5" d="
	M76.712,169.124l4.144,2.603l7.117,0.235l3.495-1.881l3.538-1.904"/>
<path fill="#2AAAE2" stroke="#2E368F" stroke-width="1.25" stroke-linecap="round" stroke-linejoin="round" stroke-opacity="0.5" d="
	M58.726,166.105l0.354,0.187l0.004,0.002l1.171,0.617l1.936,1.021l2.546-0.108l1.063-0.044l1.546-0.066l1.224-0.052l2.647,0.866
	l0.049,0.016l0.215,0.07l1.008,0.329l4.227,0.181l3.154,0.135"/>
<path fill="#2AAAE2" stroke="#2E368F" stroke-width="1.25" stroke-linecap="round" stroke-linejoin="round" stroke-opacity="0.5" d="
	M28.846,151.377l4.076,2.433l0.138,0.082l2.292,1.368l0.039,0.022l2.13,1.271l3.917,3.354l3.202,2.741l4.317,0.908l0.06,0.013
	l1.072,0.28l2.002,0.835l1.443,0.602l2.029,0.848l0.036,0.015l0.235,0.099l0.972-0.048l0.103-0.005l0.334-0.018l0.474-0.022
	l1.009-0.049l3.878-0.188l0.584-0.029"/>
<path fill="#2AAAE2" stroke="#2E368F" stroke-width="1.25" stroke-linecap="round" stroke-linejoin="round" stroke-opacity="0.5" d="
	M35.491,38.291l-1.436,1.433l-1.244,1.075l-1.171,1.014l-6.178,5.344l-9.468,7.839l-2.722,2.384l-2.394,2.098L7.647,65.15
	l-0.501,0.879l-2.898,7.193l-2.854,7.925"/>
<path fill="#2AAAE2" stroke="#2E368F" stroke-width="1.25" stroke-linecap="round" stroke-linejoin="round" stroke-opacity="0.5" d="
	M91.468,170.081l3.815,1.113l7.558-2.25l2.729-1.313l4.321-2.076"/>
<path fill="#2AAAE2" stroke="#2E368F" stroke-width="1.25" stroke-linecap="round" stroke-linejoin="round" stroke-opacity="0.5" d="
	M136.476,86.496l-0.538-3.162l-0.012-0.07l-0.315-1.849l-0.013-0.074l-0.007-0.044l-0.064-0.375l-0.229-0.678l-0.157-0.46
	l-1.47-4.328L130.83,69.5"/>
<path fill="#2AAAE2" stroke="#2E368F" stroke-width="1.25" stroke-linecap="round" stroke-linejoin="round" stroke-opacity="0.5" d="
	M33.068,152.961l4.116,2.388l3.324,1.883l5.217,2.956"/>
<path fill="#2AAAE2" stroke="#2E368F" stroke-width="1.25" stroke-linecap="round" stroke-linejoin="round" stroke-opacity="0.5" d="
	M35.752,37.74l-2.104,0.928l-7.191,5.342l-2.326,1.727l-5.102,3.496"/>
<path fill="#2AAAE2" stroke="#2E368F" stroke-width="1.25" stroke-linecap="round" stroke-linejoin="round" stroke-opacity="0.5" d="
	M67.344,167.713l2.619,1.101l1.301-0.271"/>
<path fill="#2AAAE2" stroke="#2E368F" stroke-width="1.25" stroke-linecap="round" stroke-linejoin="round" stroke-opacity="0.5" d="
	M138.312,103.112l1.11-5.513l-0.277-3.325"/>
<path fill="#2AAAE2" stroke="#2E368F" stroke-width="1.25" stroke-linecap="round" stroke-linejoin="round" stroke-opacity="0.5" d="
	M105.57,167.631l3.706-0.23l7.213-1.427l5.604-6.308l0.916-0.771l4.161-3.502"/>
<path fill="#2AAAE2" stroke="#2E368F" stroke-width="1.25" stroke-linecap="round" stroke-linejoin="round" stroke-opacity="0.5" d="
	M69.963,168.814l1.516-0.2"/>
<path fill="#2AAAE2" stroke="#2E368F" stroke-width="1.25" stroke-linecap="round" stroke-linejoin="round" stroke-opacity="0.5" d="
	M138.354,88.672l-0.454-3.729l-0.004-0.032l-0.037-0.306l-0.081-0.669l-0.002-0.016l-0.104-0.873l-1.813-2.14l-0.561-0.663"/>
<path fill="#2AAAE2" stroke="#2E368F" stroke-width="1.25" stroke-linecap="round" stroke-linejoin="round" stroke-opacity="0.5" d="
	M123.01,158.896l3.152-1.63l4.542-6.26l4.534-3.408l1.76-4.894l1.013-2.713l-0.212-1.389l-0.425-2.792l3.146-5.987l-0.471-4.735
	l-0.032-4.289l-0.012-1.674l-0.001-0.181l-0.012-1.403"/>
<path fill="#2AAAE2" stroke="#2E368F" stroke-width="1.25" stroke-linecap="round" stroke-linejoin="round" stroke-opacity="0.5" d="
	M53.909,166.059l1.36,0.076l0.331,0.013"/>
<path fill="#2AAAE2" stroke="#2E368F" stroke-width="1.25" stroke-linecap="round" stroke-linejoin="round" stroke-opacity="0.5" d="
	M26.455,44.01l-1.644,0.829l-5.784,4.394l-4.146,5.501l-1.608,2.646"/>
<path fill="#2AAAE2" stroke="#2E368F" stroke-width="1.25" stroke-linecap="round" stroke-linejoin="round" stroke-opacity="0.5" d="
	M56.808,166.199l0.633,0.026l0.381,0.016l1.264,0.053"/>
<path fill="#2AAAE2" stroke="#2E368F" stroke-width="1.25" stroke-linecap="round" stroke-linejoin="round" stroke-opacity="0.5" d="
	M64.736,167.824l0.185,0.056l0.878-0.1"/>
<path fill="#2AAAE2" stroke="#2E368F" stroke-width="1.25" stroke-linecap="round" stroke-linejoin="round" stroke-opacity="0.5" d="
	M8.466,115.178l0.256,0.945l0.082,0.303l0.206,0.763l0.854,3.16l0.443,1.64l1.291,4.778l1.72,7.083"/>
<path fill="#2AAAE2" stroke="#2E368F" stroke-width="1.25" stroke-linecap="round" stroke-linejoin="round" stroke-opacity="0.5" d="
	M52.091,164.684l0.495,0.374l1.323,1.001l4.826,1.188l1.52-0.336"/>
<path fill="#2AAAE2" stroke="#2E368F" stroke-width="1.25" stroke-linecap="round" stroke-linejoin="round" stroke-opacity="0.5" d="
	M135.857,80.907l-0.718-1.123"/>
<path fill="#2AAAE2" stroke="#2E368F" stroke-width="1.25" stroke-linecap="round" stroke-linejoin="round" stroke-opacity="0.5" d="
	M140.007,119.125l0.021-0.103l0.881-4.032l0.851-7.503"/>
<path fill="#2AAAE2" stroke="#2E368F" stroke-width="1.25" stroke-linecap="round" stroke-linejoin="round" stroke-opacity="0.5" d="
	M142.102,102.411l0.236-5.438l-0.363-2.523l-1.217-5.65l-0.328-0.537l-2.623-4.292l-0.031-0.051"/>
<path fill="#2AAAE2" stroke="#2E368F" stroke-width="1.25" stroke-linecap="round" stroke-linejoin="round" stroke-opacity="0.5" d="
	M6.556,110.377l1.849,5.133l0.226,0.621l0.381,1.058"/>
<path fill="#2AAAE2" stroke="#2E368F" stroke-width="1.25" stroke-linecap="round" stroke-linejoin="round" stroke-opacity="0.5" d="
	M7.648,65.15l-6.114,6.801l-0.909,8.392l0.152,16.309l0.85,7.683l5.313,8.951l1.69,2.846"/>
<path fill="#2AAAE2" stroke="#2E368F" stroke-width="1.25" stroke-linecap="round" stroke-linejoin="round" stroke-opacity="0.5" d="
	M137.799,138.603l0.414-0.818l2.455-5.063l1.337-7.211l-1.68-5.515l-0.298-0.973"/>
<path fill="#2AAAE2" stroke="#2E368F" stroke-width="1.25" stroke-linecap="round" stroke-linejoin="round" stroke-opacity="0.5" d="
	M11.372,129.475l0.972,8.884l1.789,4.298l9.637,8.561l7.532,2.168l0.196,0.057l0.077,0.023l1.483,0.427"/>
<path fill="#2AAAE2" stroke="#2E368F" stroke-width="1.25" stroke-linecap="round" stroke-linejoin="round" stroke-opacity="0.5" d="
	M31.302,153.385l7.865,5.515l2.271,1.007"/>
<path fill="#2AAAE2" stroke="#2E368F" stroke-width="1.25" stroke-linecap="round" stroke-linejoin="round" stroke-opacity="0.5" d="
	M140.758,88.799l-0.744-2.199l-2.207-2.629"/>
<path fill="#2AAAE2" stroke="#2E368F" stroke-width="1.25" stroke-linecap="round" stroke-linejoin="round" stroke-opacity="0.5" d="
	M9.863,120.349l0.457,2.767l1.053,6.359l0.036,0.223"/>
<path fill="#2AAAE2" stroke="#2E368F" stroke-width="1.25" stroke-linecap="round" stroke-linejoin="round" stroke-opacity="0.5" d="
	M48.957,163.556l2.195,1.157l1.434,0.345"/>
<path fill="#2AAAE2" stroke="#2E368F" stroke-width="1.25" stroke-linecap="round" stroke-linejoin="round" stroke-opacity="0.5" d="
	M140.325,119.996l1.592-4.178l0.813-5.5l0.47-5.121l1.334-5.239l-2.306-7.951l-2.215-5.406"/>
<path fill="#2AAAE2" stroke="#2E368F" stroke-width="1.25" stroke-linecap="round" stroke-linejoin="round" stroke-opacity="0.5" d="
	M6.938,113.286l3.382,9.83"/>
</svg>
