<?xml version="1.0" encoding="utf-8"?>
<!-- Generator: Adobe Illustrator 16.0.0, SVG Export Plug-In . SVG Version: 6.00 Build 0)  -->
<!DOCTYPE svg PUBLIC "-//W3C//DTD SVG 1.1//EN" "http://www.w3.org/Graphics/SVG/1.1/DTD/svg11.dtd">
<svg version="1.1" id="Layer_1" xmlns="http://www.w3.org/2000/svg" xmlns:xlink="http://www.w3.org/1999/xlink" x="0px" y="0px"
	 width="177.194px" height="203.756px" viewBox="0 0 177.194 203.756" enable-background="new 0 0 177.194 203.756"
	 xml:space="preserve">
<path fill="#2AAAE2" stroke="#2E368F" stroke-miterlimit="10" d="M42.284,196.196l4.513,6.935l8.256-0.98l0.23-0.116l1.179,0.179
	l5.948-1.189l0.61-0.268l4.661-1.815l0.779-0.478l6.486-0.981l1.831-2.935l1.739-0.574l4.821-4.643l2.013-0.681l1.775-1.031
	l1.06-0.392l0.209-0.264l1.134-0.503l0.332-0.427l0.599-0.348l2.916-4.178l0.544-0.699l2.318-1.205l2.073-0.461l1.419-0.256
	l0.531-0.179l6.117-1.782l3.398-1.42l5.744-3.426l5.191-4.832l3.452-2.529l7.541-2.574l0.625-4.836l3.792-3.235l0.697-4.248
	l3.875-3.731l0.428-3.484l3.685-4.878l-1.043-5.854l3.938-3.393l0.064-4.67l4.958-4.211l-0.168-4.705l6.611-5.24l1.083-8.051
	l0.497-1.496l0.74-0.884l1.722-6.526l0.029-0.086l5.565-7.494l7.761-7.759l-2.686-26.979l-1.647-2.175l-4.499-2.279l-0.365-0.986
	l-4.121-1.983l-0.925-1.522l-0.996-3.097l-23.02-13.093l-8.824-8.023l-6.646-2.828l-6.952-3.336l-7.467-2.551l-7.814-2.19
	l-7.667-2.813l-8.063-1.2l-8.27-0.046l-7.909-1.636l-8.11,2.139L53.051,7.17l-14.176,8.597l-0.46,0.825l-0.461,0.263l-7.936,11.561
	l0.439,4.068l-0.211,0.567l-2.8,4.752l0.066,0.74l-2.534,3.694l-1.554,5.882l-0.204,1.289l-4.211,2.467l-5.852,10.166l-5.395,3.482
	l-3.37,4.138l-1.8,3.799l-1.977,4.888l2.13,4.664l0.708,8.274l0.1,7.426l-0.812,7.644l2.026,3.223l0.089,4.902l0.089,0.244
	l0.088,2.528l0.566,5.058l-2.266,6.842l2.228,5.828l0.205,6.318l2.037,5.862l-0.854,6.626l4.194,11.963l0.483,2.154l3.239,3.365
	l2.722,4.035l2.549,1.442l3.144,1.351l2.211,2.514l1.583,3.205l0.849,0.517l0.979,1.586l6.207,3.015l3.162,2.619L42.284,196.196z"/>
<path fill="#2AAAE2" stroke="#2E368F" stroke-width="1.25" stroke-linecap="round" stroke-linejoin="round" stroke-opacity="0.5" d="
	M38.42,16.591l-0.461,0.263l-7.936,11.561l0.439,4.068l0.021,0.176l0.026,0.266l0.11,1.008"/>
<path fill="#2AAAE2" stroke="#2E368F" stroke-width="1.25" stroke-linecap="round" stroke-linejoin="round" stroke-opacity="0.5" d="
	M44.927,116.803l2.208,3.023l5.38,6.963"/>
<path fill="#2AAAE2" stroke="#2E368F" stroke-width="1.25" stroke-linecap="round" stroke-linejoin="round" stroke-opacity="0.5" d="
	M28.153,43.69l-0.166,6.352l-0.339,3.276l-0.085,0.829l-0.019,0.162l-0.003,0.028l-0.214,2.072"/>
<path fill="#2AAAE2" stroke="#2E368F" stroke-width="1.25" stroke-linecap="round" stroke-linejoin="round" stroke-opacity="0.5" d="
	M31.256,70.998l1.136,7.69l2.05,6.497l0.7,2.066l0.756,2.235l1.212,3.577"/>
<path fill="#2AAAE2" stroke="#2E368F" stroke-width="1.25" stroke-linecap="round" stroke-linejoin="round" stroke-opacity="0.5" d="
	M30.483,32.659l-0.23,0.391l-2.8,4.752l0.066,0.74l0.312,3.535l0.122,1.372"/>
<path fill="#2AAAE2" stroke="#2E368F" stroke-width="1.25" stroke-linecap="round" stroke-linejoin="round" stroke-opacity="0.5" d="
	M29.193,63.119l0.765,7.202l1.715,5.893"/>
<path fill="#2AAAE2" stroke="#2E368F" stroke-width="1.25" stroke-linecap="round" stroke-linejoin="round" stroke-opacity="0.5" d="
	M30.464,32.483l-0.211,0.567"/>
<path fill="#2AAAE2" stroke="#2E368F" stroke-width="1.25" stroke-linecap="round" stroke-linejoin="round" stroke-opacity="0.5" d="
	M161.595,75.733l0.999-2.381l0.048-0.108l3.021-7.2l-1.652-19.932l-0.057-0.685l-0.054-0.663l-0.053-0.632l-0.017-0.18l-0.003-0.042
	l-0.578-0.95l-0.925-1.521l-0.996-3.097l-17.385-9.887l-5.635-3.206l-8.824-8.023l-6.646-2.828l-6.953-3.336l-7.466-2.551
	l-7.814-2.19l-7.667-2.813l-8.063-1.2l-8.27-0.046l-7.909-1.636l-8.11,2.139L53.053,7.17l-14.175,8.597l-0.46,0.825l-3.406,6.105"/>
<path fill="#2AAAE2" stroke="#2E368F" stroke-width="1.25" stroke-linecap="round" stroke-linejoin="round" stroke-opacity="0.5" d="
	M26.813,55.649l-0.861,2.295l-0.106,0.285l-1.135,3.026l-0.639,1.702l1.306,1.864l0.157,0.225l0.779,1.112l0.453,0.647l0.341,0.486
	l0.355,0.51l0.178,0.252l0.114,0.165l2.509,6.686l1.038,3.985l0.261,0.994l0.484,1.865l0.063,0.232l0.512,1.331l1.388,3.611
	l0.444,1.156l0.243,0.631l0.07,1.047l0.13,1.941l0.474,7.08l-0.07,1.351l-0.049,0.965l0.316,0.842l0.282,0.752l0.094,0.251
	l0.186,0.495l1.658,4.416l0.095,0.252"/>
<path fill="#2AAAE2" stroke="#2E368F" stroke-width="1.25" stroke-linecap="round" stroke-linejoin="round" stroke-opacity="0.5" d="
	M27.52,38.542l-2.534,3.694l-1.554,5.882l-0.204,1.289l-0.883,5.564l2.329,6.191l0.035,0.093"/>
<path fill="#2AAAE2" stroke="#2E368F" stroke-width="1.25" stroke-linecap="round" stroke-linejoin="round" stroke-opacity="0.5" d="
	M41.684,118.307l0.786,0.877l1.905,2.117l0.339,0.377l1.958,3.225l0.734,1.208l3.629,5.974l1.941,7.5"/>
<path fill="#2AAAE2" stroke="#2E368F" stroke-width="1.25" stroke-linecap="round" stroke-linejoin="round" stroke-opacity="0.5" d="
	M35.938,106.146l0.009,0.377l0.001,0.027l0.001,0.025l0.004,0.18l0.041,1.59l1.275,2.819l0.501,1.109l-0.209-0.699l-0.062-0.202
	l-0.244-0.814l-1.101-3.684l-0.024-0.08l-0.042-0.141l-0.001-0.003l-0.044-0.147l-0.087-0.289L35.938,106.146l-0.137-0.452
	l-0.007-0.112l-0.228-3.647"/>
<path fill="#2AAAE2" stroke="#2E368F" stroke-width="1.25" stroke-linecap="round" stroke-linejoin="round" stroke-opacity="0.5" d="
	M37.77,112.274l0.771,1.188l3.144,4.844l-2.748-4.053l-0.396-0.791"/>
<path fill="#2AAAE2" stroke="#2E368F" stroke-width="1.25" stroke-linecap="round" stroke-linejoin="round" stroke-opacity="0.5" d="
	M34.453,88.078l0.115,0.935l0.328,2.684"/>
<path fill="#2AAAE2" stroke="#2E368F" stroke-width="1.25" stroke-linecap="round" stroke-linejoin="round" stroke-opacity="0.5" d="
	M51.071,134.973l0.104,1.313l0.137,1.665l0.633,7.859"/>
<path fill="#2AAAE2" stroke="#2E368F" stroke-width="1.25" stroke-linecap="round" stroke-linejoin="round" stroke-opacity="0.5" d="
	M26.313,66.158l0.352,1.097l0.032,0.1l0.291,0.989l0.561,1.907l0.696,2.367"/>
<path fill="#2AAAE2" stroke="#2E368F" stroke-width="1.25" stroke-linecap="round" stroke-linejoin="round" stroke-opacity="0.5" d="
	M108.019,148.108l3.926-1.442l1.885-0.693l0.379-0.139l0.196-0.072l2.415-0.888l0.572-1.082l0.023-0.049l1.841-3.485l1.834-3.475"/>
<path fill="#2AAAE2" stroke="#2E368F" stroke-width="1.25" stroke-linecap="round" stroke-linejoin="round" stroke-opacity="0.5" d="
	M128.764,131.317l0.5-0.253l1.82-3.727l2.601-5.315l7.92-4.136l0.1-0.052l0.629-0.329l0.008-0.011l0.829-1.162l4.196-5.881"/>
<path fill="#2AAAE2" stroke="#2E368F" stroke-width="1.25" stroke-linecap="round" stroke-linejoin="round" stroke-opacity="0.5" d="
	M34.009,86.922l0.561,2.091"/>
<path fill="#2AAAE2" stroke="#2E368F" stroke-width="1.25" stroke-linecap="round" stroke-linejoin="round" stroke-opacity="0.5" d="
	M29.092,76.905l0.729,1.571l1.65,2.85l1.15,1.985"/>
<path fill="#2AAAE2" stroke="#2E368F" stroke-width="1.25" stroke-linecap="round" stroke-linejoin="round" stroke-opacity="0.5" d="
	M35.094,99.56l-0.224,2.423l-0.211,2.276l0.503,1.541l0.021,0.063l0.063,0.193l0.112,0.344l0.636,1.945"/>
<path fill="#2AAAE2" stroke="#2E368F" stroke-width="1.25" stroke-linecap="round" stroke-linejoin="round" stroke-opacity="0.5" d="
	M44.376,121.301l1.064,3.84l1.567,5.656l4.304,7.154"/>
<path fill="#2AAAE2" stroke="#2E368F" stroke-width="1.25" stroke-linecap="round" stroke-linejoin="round" stroke-opacity="0.5" d="
	M25.534,65.046l0.09,1.685l0.784,5.916l0.465,3.887l1.242,2.217l2.916,6.516l0.212,0.473l0.111,0.234l0.163,0.342l0.531,1.117
	l1.146,2.402"/>
<path fill="#2AAAE2" stroke="#2E368F" stroke-width="1.25" stroke-linecap="round" stroke-linejoin="round" stroke-opacity="0.5" d="
	M31.354,85.974l0.104,0.688l1.177,7.78l-0.012,0.329l-0.046,1.245l-0.263,7.16v0.015l-0.029,0.778l-0.021,0.586l-0.014,0.381
	l3.612,4.261l1.406,1.969"/>
<path fill="#2AAAE2" stroke="#2E368F" stroke-width="1.25" stroke-linecap="round" stroke-linejoin="round" stroke-opacity="0.5" d="
	M99.341,162.357l5.113-6.266l2.823-3.348l1.021-1.212l1.542-1.828l2.843-2.659l0.617-0.578l0.527-0.494"/>
<path fill="#2AAAE2" stroke="#2E368F" stroke-width="1.25" stroke-linecap="round" stroke-linejoin="round" stroke-opacity="0.5" d="
	M42.471,119.184l1.689,3.337l1.28,2.62"/>
<path fill="#2AAAE2" stroke="#2E368F" stroke-width="1.25" stroke-linecap="round" stroke-linejoin="round" stroke-opacity="0.5" d="
	M119.257,140.258l2.208-2.479l7.384-5.531l4.809-7.738"/>
<path fill="#2AAAE2" stroke="#2E368F" stroke-width="1.25" stroke-linecap="round" stroke-linejoin="round" stroke-opacity="0.5" d="
	M168.355,47.599l-0.154-0.414l-0.164-0.443l-0.3-0.813l-0.365-0.986l-4.121-1.983"/>
<path fill="#2AAAE2" stroke="#2E368F" stroke-width="1.25" stroke-linecap="round" stroke-linejoin="round" stroke-opacity="0.5" d="
	M91.02,174.776l5.486-5.578l4.505-6.401l4.696-6.525l2.592-4.739"/>
<path fill="#2AAAE2" stroke="#2E368F" stroke-width="1.25" stroke-linecap="round" stroke-linejoin="round" stroke-opacity="0.5" d="
	M32.053,93.319l0.524,2.697"/>
<path fill="#2AAAE2" stroke="#2E368F" stroke-width="1.25" stroke-linecap="round" stroke-linejoin="round" stroke-opacity="0.5" d="
	M31.031,85.267l0.427,1.395"/>
<path fill="#2AAAE2" stroke="#2E368F" stroke-width="1.25" stroke-linecap="round" stroke-linejoin="round" stroke-opacity="0.5" d="
	M155.288,106.633l5.464-6.521l0.74-0.884l1.722-6.526l0.622-2.358l4.233-6.887"/>
<path fill="#2AAAE2" stroke="#2E368F" stroke-width="1.25" stroke-linecap="round" stroke-linejoin="round" stroke-opacity="0.5" d="
	M32.314,103.176l-1.313-1.209"/>
<path fill="#2AAAE2" stroke="#2E368F" stroke-width="1.25" stroke-linecap="round" stroke-linejoin="round" stroke-opacity="0.5" d="
	M29.835,102.241l-5.625-6.457l4.778,6.815l3.275,1.955"/>
<path fill="#2AAAE2" stroke="#2E368F" stroke-width="1.25" stroke-linecap="round" stroke-linejoin="round" stroke-opacity="0.5" d="
	M112.684,147.045l1.721-1.283"/>
<path fill="#2AAAE2" stroke="#2E368F" stroke-width="1.25" stroke-linecap="round" stroke-linejoin="round" stroke-opacity="0.5" d="
	M117.392,143.792l2.325-1.368l2.229-1.312l0.788-0.463l0.165-0.21l1.1-1.391l4.108-5.197"/>
<path fill="#2AAAE2" stroke="#2E368F" stroke-width="1.25" stroke-linecap="round" stroke-linejoin="round" stroke-opacity="0.5" d="
	M86.632,187.482l1.575-2.577l0.947-1.549l0.49-0.802l3.973-6.832"/>
<path fill="#2AAAE2" stroke="#2E368F" stroke-width="1.25" stroke-linecap="round" stroke-linejoin="round" stroke-opacity="0.5" d="
	M151.177,115.994l0.135-0.105l0.675-0.534l0.574-0.456l6.611-5.24l1.083-8.051l0.497-1.496"/>
<path fill="#2AAAE2" stroke="#2E368F" stroke-width="1.25" stroke-linecap="round" stroke-linejoin="round" stroke-opacity="0.5" d="
	M116.531,145.939l5.416-4.827"/>
<path fill="#2AAAE2" stroke="#2E368F" stroke-width="1.25" stroke-linecap="round" stroke-linejoin="round" stroke-opacity="0.5" d="
	M24.675,61.162l-1.752,4.893l-1.487,3.54"/>
<path fill="#2AAAE2" stroke="#2E368F" stroke-width="1.25" stroke-linecap="round" stroke-linejoin="round" stroke-opacity="0.5" d="
	M91.177,180.639l5.056-4.117l4.183-6.383l4.619-6.436l3.243-6.574"/>
<path fill="#2AAAE2" stroke="#2E368F" stroke-width="1.25" stroke-linecap="round" stroke-linejoin="round" stroke-opacity="0.5" d="
	M163.214,92.701l0.029-0.086l5.565-7.494l7.761-7.759l-1.98-19.901l-0.704-7.078l-1.647-2.175l-4.499-2.279"/>
<path fill="#2AAAE2" stroke="#2E368F" stroke-width="1.25" stroke-linecap="round" stroke-linejoin="round" stroke-opacity="0.5" d="
	M26.282,168.991l8.021,11.856l5.125,2.479"/>
<path fill="#2AAAE2" stroke="#2E368F" stroke-width="1.25" stroke-linecap="round" stroke-linejoin="round" stroke-opacity="0.5" d="
	M122.9,140.439l7.502-4.102"/>
<path fill="#2AAAE2" stroke="#2E368F" stroke-width="1.25" stroke-linecap="round" stroke-linejoin="round" stroke-opacity="0.5" d="
	M74.151,192.084l4.153-1.496l1.731-1.004"/>
<path fill="#2AAAE2" stroke="#2E368F" stroke-width="1.25" stroke-linecap="round" stroke-linejoin="round" stroke-opacity="0.5" d="
	M151.147,116.852l0.838-1.497"/>
<path fill="#2AAAE2" stroke="#2E368F" stroke-width="1.25" stroke-linecap="round" stroke-linejoin="round" stroke-opacity="0.5" d="
	M81.878,189.559l1.666-0.616l2.321-0.857l1.264-0.467l1.06-0.392l0.209-0.264l0.116-0.147l4.351-5.495l0.016-0.02l0.112-0.143
	l0.997-0.969l0.557-0.542l1.587-1.543l2.13-2.07"/>
<path fill="#2AAAE2" stroke="#2E368F" stroke-width="1.25" stroke-linecap="round" stroke-linejoin="round" stroke-opacity="0.5" d="
	M58.447,198.594l2.04-0.613l2.734-1.057"/>
<path fill="#2AAAE2" stroke="#2E368F" stroke-width="1.25" stroke-linecap="round" stroke-linejoin="round" stroke-opacity="0.5" d="
	M145.588,125.666l2.183-1.852l4.958-4.21l-0.168-4.706"/>
<path fill="#2AAAE2" stroke="#2E368F" stroke-width="1.25" stroke-linecap="round" stroke-linejoin="round" stroke-opacity="0.5" d="
	M3.818,82.5l0.016,0.191l0.277,3.242l0.005,0.056l0.041,0.478l1.133,4.254l0.42,2.346l0.016,0.075l0.55,3.072"/>
<path fill="#2AAAE2" stroke="#2E368F" stroke-width="1.25" stroke-linecap="round" stroke-linejoin="round" stroke-opacity="0.5" d="
	M4.278,93.573l0.167,2.648l0.011,0.185l0.379,6.016l-0.008,5.252l-0.003,1.978l-0.002,1.228l0.134,3.846l0.088,2.527l0.566,5.059
	l-2.266,6.841l2.228,5.828l0.205,6.319l2.037,5.861l-0.854,6.626l4.194,11.963l0.483,2.154l3.239,3.366l5.271,5.477l3.144,1.35
	l1.23,0.528l0.113,0.05l1.204,0.518l0.407,0.174l1.671,0.718"/>
<path fill="#2AAAE2" stroke="#2E368F" stroke-width="1.25" stroke-linecap="round" stroke-linejoin="round" stroke-opacity="0.5" d="
	M140.993,134.266l0.716-0.616l0.418-0.36l1.641-1.412l3.938-3.393l0.064-4.67"/>
<path fill="#2AAAE2" stroke="#2E368F" stroke-width="1.25" stroke-linecap="round" stroke-linejoin="round" stroke-opacity="0.5" d="
	M88.396,186.963l1.134-0.503l0.332-0.427l3.515-4.525l0.544-0.699l2.318-1.204l0.26-0.136l0.083-0.043l3.473-1.804l4.669-5.126
	l5.022-4.968l4.443-4.788"/>
<path fill="#2AAAE2" stroke="#2E368F" stroke-width="1.25" stroke-linecap="round" stroke-linejoin="round" stroke-opacity="0.5" d="
	M62.319,201.028l0.701-0.272l4.661-1.815l0.779-0.478l4.153-2.539l4.164-1.377l1.739-0.574l4.821-4.643l0.242-0.232l2.282-1.013"/>
<path fill="#2AAAE2" stroke="#2E368F" stroke-width="1.25" stroke-linecap="round" stroke-linejoin="round" stroke-opacity="0.5" d="
	M23.228,49.407l-4.211,2.467L13.165,62.04l-0.591,1.027l-2.128,2.78l-2.709,4.332"/>
<path fill="#2AAAE2" stroke="#2E368F" stroke-width="1.25" stroke-linecap="round" stroke-linejoin="round" stroke-opacity="0.5" d="
	M24.521,178.624l0.979,1.986l1.583,3.205l0.85,0.517l5.957,3.633l0.229,0.14l0.145,0.12l0.856,0.709l3.162,2.619l2.098,1.736
	l5.999,5.59l4.851,2.545l4.055,0.61l1.179,0.179l5.948-1.189l0.61-0.268"/>
<path fill="#2AAAE2" stroke="#2E368F" stroke-width="1.25" stroke-linecap="round" stroke-linejoin="round" stroke-opacity="0.5" d="
	M13.166,62.04l-5.395,3.482l-3.37,4.138l-1.8,3.799l-1.977,4.888l2.13,4.664l1.36,2.978"/>
<path fill="#2AAAE2" stroke="#2E368F" stroke-width="1.25" stroke-linecap="round" stroke-linejoin="round" stroke-opacity="0.5" d="
	M4.74,107.46l0.038,2.117l0.089,4.902l0.089,0.245"/>
<path fill="#2AAAE2" stroke="#2E368F" stroke-width="1.25" stroke-linecap="round" stroke-linejoin="round" stroke-opacity="0.5" d="
	M139.604,144.625l1.521-2.016l3.685-4.878l-1.043-5.854"/>
<path fill="#2AAAE2" stroke="#2E368F" stroke-width="1.25" stroke-linecap="round" stroke-linejoin="round" stroke-opacity="0.5" d="
	M14.878,171.27l2.723,4.033l2.548,1.443"/>
<path fill="#2AAAE2" stroke="#2E368F" stroke-width="1.25" stroke-linecap="round" stroke-linejoin="round" stroke-opacity="0.5" d="
	M68.462,198.463l6.486-0.981l1.831-2.935"/>
<path fill="#2AAAE2" stroke="#2E368F" stroke-width="1.25" stroke-linecap="round" stroke-linejoin="round" stroke-opacity="0.5" d="
	M33.891,187.965l0.373,0.26"/>
<path fill="#2AAAE2" stroke="#2E368F" stroke-width="1.25" stroke-linecap="round" stroke-linejoin="round" stroke-opacity="0.5" d="
	M2.756,83.011l0.708,8.274l0.1,7.426l-0.812,7.643l2.026,3.223"/>
<path fill="#2AAAE2" stroke="#2E368F" stroke-width="1.25" stroke-linecap="round" stroke-linejoin="round" stroke-opacity="0.5" d="
	M106.008,174.241l5.761-3.69l5.564-3.795"/>
<path fill="#2AAAE2" stroke="#2E368F" stroke-width="1.25" stroke-linecap="round" stroke-linejoin="round" stroke-opacity="0.5" d="
	M134.73,151.842l2.093-2.017l3.875-3.731l0.428-3.484"/>
<path fill="#2AAAE2" stroke="#2E368F" stroke-width="1.25" stroke-linecap="round" stroke-linejoin="round" stroke-opacity="0.5" d="
	M38.282,191.553l4.002,4.644l4.513,6.935l8.256-0.98l0.23-0.116"/>
<path fill="#2AAAE2" stroke="#2E368F" stroke-width="1.25" stroke-linecap="round" stroke-linejoin="round" stroke-opacity="0.5" d="
	M89.862,186.033l0.599-0.348l2.916-4.178"/>
<path fill="#2AAAE2" stroke="#2E368F" stroke-width="1.25" stroke-linecap="round" stroke-linejoin="round" stroke-opacity="0.5" d="
	M83.341,189.33l2.013-0.681l1.775-1.031"/>
<path fill="#2AAAE2" stroke="#2E368F" stroke-width="1.25" stroke-linecap="round" stroke-linejoin="round" stroke-opacity="0.5" d="
	M23.291,178.096l2.211,2.515"/>
<path fill="#2AAAE2" stroke="#2E368F" stroke-width="1.25" stroke-linecap="round" stroke-linejoin="round" stroke-opacity="0.5" d="
	M130.124,158.975l0.343-0.072l1.867-1.594l3.792-3.235l0.697-4.248"/>
<path fill="#2AAAE2" stroke="#2E368F" stroke-width="1.25" stroke-linecap="round" stroke-linejoin="round" stroke-opacity="0.5" d="
	M27.934,184.332l0.979,1.586l6.207,3.016"/>
<path fill="#2AAAE2" stroke="#2E368F" stroke-width="1.25" stroke-linecap="round" stroke-linejoin="round" stroke-opacity="0.5" d="
	M98.313,179.143l1.419-0.256l0.532-0.179"/>
<path fill="#2AAAE2" stroke="#2E368F" stroke-width="1.25" stroke-linecap="round" stroke-linejoin="round" stroke-opacity="0.5" d="
	M96.239,179.604l2.073-0.462l1.951-0.435l6.116-1.782l3.398-1.42l5.744-3.426l5.191-4.832l3.452-2.529l7.541-2.574l0.625-4.836"/>
</svg>
