<?xml version="1.0" encoding="utf-8"?>
<!-- Generator: Adobe Illustrator 16.0.0, SVG Export Plug-In . SVG Version: 6.00 Build 0)  -->
<!DOCTYPE svg PUBLIC "-//W3C//DTD SVG 1.1//EN" "http://www.w3.org/Graphics/SVG/1.1/DTD/svg11.dtd">
<svg version="1.1" id="Layer_1" xmlns="http://www.w3.org/2000/svg" xmlns:xlink="http://www.w3.org/1999/xlink" x="0px" y="0px"
	 width="157.157px" height="171.389px" viewBox="0 0 157.157 171.389" enable-background="new 0 0 157.157 171.389"
	 xml:space="preserve">
<path fill="#2AAAE2" stroke="#2E368F" stroke-miterlimit="10" d="M17.487,134.812l5.571,6.473l5.817,6.158l7.642,10.929l6.342,6.562
	l3.516,1.688l8.549,1.21l0.025,0.012l0.033-0.003l3.766,0.533l7.537,0.918l10.009,0.426l7.025,1.047l7.913-1.407l3.372-1.272
	l2.909,0.212l4.537-3.309l1.717-1.137l0.353-0.209l6.193-1.475l2.085-1.135l5.577-1.211l4.554-2.457l6.696-2.963l0.766-0.78
	l7.466-3.132l4.425-6.641l6.163-3.68l2.206-6.102l2.137-6.229l1.761-5.741l-0.266-3.706l0.39-1.242l1.127-5.711l1.052-5.734
	l0.082-0.94l-1.729-7.68l-1.251-7.714l-3.396-5.234l-1.628-5.477l-2.354-7.065l-2.739-4.611l-4.248-3.653l-1.675-1.416l-0.891-1.642
	l-5.552-2.635l-6.48-3.218l-2.974-1.746l-0.59-0.808l-4.397-4.673l-1.707-1.227l-0.903-0.955l-1.587-0.94l-0.107-0.808l-1.146-6.406
	l-0.911-1.733l-1.252-5.535l-0.281-2.381l-4.114-5.921l-5.676-2.802l-3.409-3.253l-3.795-3.743l-5.384-3.022L80.78,6.678
	l-4.801-1.956l-5.675-1.76l-6.284-2.046l-7.173-0.291L53.341,0.98l-4.145,0.766l-9.574,2.908l-6.414,3.053l-9.235,4.151
	l-4.332,5.398l-4.567,4.8l-3.096,5.573l-0.773,6.795l-0.522,7.118l0.596,3.662l1.561,4.948l0.256,3.883l1.638,8.015l0.054,0.955
	l-2.004,4.196l-4.442,6.205l-0.116,6.668L2.946,93.165l-0.463,7.39l-1.854,8.027l4.227,8.261l2.521,7.826l5.493,5.597
	L17.487,134.812z"/>
<path fill="#2AAAE2" stroke="#2E368F" stroke-width="1.25" stroke-linecap="round" stroke-linejoin="round" stroke-opacity="0.5" d="
	M72.337,5.685L64.51,5.151"/>
<path fill="#2AAAE2" stroke="#2E368F" stroke-width="1.25" stroke-linecap="round" stroke-linejoin="round" stroke-opacity="0.5" d="
	M27.634,11.973l-6.146,3.586l-1.848,1.697l4.332-5.398l9.235-4.151l6.414-3.053l9.574-2.908L53.34,0.98l3.507-0.355l7.173,0.291
	l6.284,2.046l5.675,1.76l4.801,1.956l5.578,1.788l5.384,3.022l3.795,3.743l3.409,3.253l1.449,1.381"/>
<path fill="#2AAAE2" stroke="#2E368F" stroke-width="1.25" stroke-linecap="round" stroke-linejoin="round" stroke-opacity="0.5" d="
	M12.75,47.029l0.692,3.193l0.069,0.313l0.183,0.845l1.09,3.711"/>
<path fill="#2AAAE2" stroke="#2E368F" stroke-width="1.25" stroke-linecap="round" stroke-linejoin="round" stroke-opacity="0.5" d="
	M112.798,49.95l-0.343-2.53l-0.016-0.114l-0.021-0.144l-0.032-0.25v-0.004l-0.003-0.018l-0.004-0.029l-0.062-0.45l-0.085-0.631
	l-0.094-0.695l-0.07-0.518l-0.012-0.09l-0.015-0.097l-0.062-0.46l-0.01-0.074l-0.008-0.051l-0.136-1.001l-1.375-6.833l-0.188-0.838
	l-1.252-5.535l-0.281-2.381l-4.114-5.921l-5.676-2.802"/>
<path fill="#2AAAE2" stroke="#2E368F" stroke-width="1.25" stroke-linecap="round" stroke-linejoin="round" stroke-opacity="0.5" d="
	M17.417,63.707l-0.055,1.517l-0.007,0.196l-0.074,2.042l-0.016,0.435l-0.03,0.834l-0.009,0.251l0.069,0.186l1.315,3.55"/>
<path fill="#2AAAE2" stroke="#2E368F" stroke-width="1.25" stroke-linecap="round" stroke-linejoin="round" stroke-opacity="0.5" d="
	M19.64,17.256l-4.567,4.8l-3.096,5.573l-0.773,6.795l-0.522,7.118l0.596,3.662l1.56,4.948l0.477,1.506l0.047,0.151l0.763,2.418"/>
<path fill="#2AAAE2" stroke="#2E368F" stroke-width="1.25" stroke-linecap="round" stroke-linejoin="round" stroke-opacity="0.5" d="
	M117.182,78.318l-1.652-6.996l-1.925-7.814"/>
<path fill="#2AAAE2" stroke="#2E368F" stroke-width="1.25" stroke-linecap="round" stroke-linejoin="round" stroke-opacity="0.5" d="
	M116.289,92.136l0.364-6.891l0.769-8.244"/>
<path fill="#2AAAE2" stroke="#2E368F" stroke-width="1.25" stroke-linecap="round" stroke-linejoin="round" stroke-opacity="0.5" d="
	M113.191,49.777l-0.229-1.724l-0.031-0.251l-0.029-0.214l-0.003-0.025l-0.033-0.246l-0.011-0.082l-0.037-0.279l-0.042-0.316
	l-0.028-0.209l-0.167-1.259l-0.065-0.505l-0.021-0.144l-0.021-0.168l-0.022-0.169l-0.016-0.116l-0.107-0.808l-1.146-6.406
	l-0.911-1.733"/>
<path fill="#2AAAE2" stroke="#2E368F" stroke-width="1.25" stroke-linecap="round" stroke-linejoin="round" stroke-opacity="0.5" d="
	M16.891,63.118l0.03,0.826l0.078,2.252l0.013,0.326l0.051,1.426l0.011,0.299l0.15,4.237l0.191,5.114l0.19,5.835"/>
<path fill="#2AAAE2" stroke="#2E368F" stroke-width="1.25" stroke-linecap="round" stroke-linejoin="round" stroke-opacity="0.5" d="
	M12.835,50.152l0.257,3.883l1.638,8.015l0.153,0.747l0.169,0.828"/>
<path fill="#2AAAE2" stroke="#2E368F" stroke-width="1.25" stroke-linecap="round" stroke-linejoin="round" stroke-opacity="0.5" d="
	M114.431,55.325l-0.491-5.265l-0.015-0.157l-0.092-0.959l-0.011-0.119l-0.041-0.092l-0.375-0.834l-0.183-0.407l-0.225-0.496
	l-0.141-0.312l-0.114-0.253"/>
<path fill="#2AAAE2" stroke="#2E368F" stroke-width="1.25" stroke-linecap="round" stroke-linejoin="round" stroke-opacity="0.5" d="
	M122.434,100.991l0.724-6.51l-1.284-3.012"/>
<path fill="#2AAAE2" stroke="#2E368F" stroke-width="1.25" stroke-linecap="round" stroke-linejoin="round" stroke-opacity="0.5" d="
	M119.151,81.444l0.583-4.517l0.019-0.146l0.195-1.514l-1.645-4.488l-0.566-1.543l-0.802-2.189"/>
<path fill="#2AAAE2" stroke="#2E368F" stroke-width="1.25" stroke-linecap="round" stroke-linejoin="round" stroke-opacity="0.5" d="
	M115.881,60.282l-0.415-6.617l-1.213-2.96l-0.328-0.802"/>
<path fill="#2AAAE2" stroke="#2E368F" stroke-width="1.25" stroke-linecap="round" stroke-linejoin="round" stroke-opacity="0.5" d="
	M14.729,62.05l0.054,0.955l0.072,1.296l0.004,0.065l0.012,0.207l0.021,0.353l0.225,4.015l0.017,0.063l0.309,1.381l0.309,1.378
	l0.056,0.244l1.626,7.253"/>
<path fill="#2AAAE2" stroke="#2E368F" stroke-width="1.25" stroke-linecap="round" stroke-linejoin="round" stroke-opacity="0.5" d="
	M120.345,79.095l-0.592-2.314"/>
<path fill="#2AAAE2" stroke="#2E368F" stroke-width="1.25" stroke-linecap="round" stroke-linejoin="round" stroke-opacity="0.5" d="
	M118.304,70.779l-1.43-6.425"/>
<path fill="#2AAAE2" stroke="#2E368F" stroke-width="1.25" stroke-linecap="round" stroke-linejoin="round" stroke-opacity="0.5" d="
	M116.386,55.09l-0.774-3.907l-0.008-0.042l-0.19-0.957l-0.043-0.219l-0.193-0.98l-0.031-0.161l-0.063-0.303l-0.774-1.038
	l-0.039-0.052l-1.689-2.259"/>
<path fill="#2AAAE2" stroke="#2E368F" stroke-width="1.25" stroke-linecap="round" stroke-linejoin="round" stroke-opacity="0.5" d="
	M15.748,71.763l-1.14,5.661"/>
<path fill="#2AAAE2" stroke="#2E368F" stroke-width="1.25" stroke-linecap="round" stroke-linejoin="round" stroke-opacity="0.5" d="
	M116.113,51.816l-0.51-0.675"/>
<path fill="#2AAAE2" stroke="#2E368F" stroke-width="1.25" stroke-linecap="round" stroke-linejoin="round" stroke-opacity="0.5" d="
	M15.131,69.004l-0.913,3.162L10.461,84.23l-1.523,7.714"/>
<path fill="#2AAAE2" stroke="#2E368F" stroke-width="1.25" stroke-linecap="round" stroke-linejoin="round" stroke-opacity="0.5" d="
	M122.339,157.45l0.189-0.086l6.696-2.963l0.766-0.78l5.44-5.548"/>
<path fill="#2AAAE2" stroke="#2E368F" stroke-width="1.25" stroke-linecap="round" stroke-linejoin="round" stroke-opacity="0.5" d="
	M114.02,45.01l-0.764-0.244l-0.508-0.161l-0.256-0.082"/>
<path fill="#2AAAE2" stroke="#2E368F" stroke-width="1.25" stroke-linecap="round" stroke-linejoin="round" stroke-opacity="0.5" d="
	M14.87,64.573l-1.757,4.211"/>
<path fill="#2AAAE2" stroke="#2E368F" stroke-width="1.25" stroke-linecap="round" stroke-linejoin="round" stroke-opacity="0.5" d="
	M118.551,49.8l-3.628-3.835l-0.903-0.955l-1.587-0.94"/>
<path fill="#2AAAE2" stroke="#2E368F" stroke-width="1.25" stroke-linecap="round" stroke-linejoin="round" stroke-opacity="0.5" d="
	M125.684,59.619l-2.508-4.222l-0.577-0.972l-0.029-0.046l-0.688-1.124l-0.41-0.669l-0.442-0.721l0.59,0.808l0.975,1.332l1.294,1.771
	l0.682,0.933"/>
<path fill="#2AAAE2" stroke="#2E368F" stroke-width="1.25" stroke-linecap="round" stroke-linejoin="round" stroke-opacity="0.5" d="
	M121.028,51.865l-4.397-4.673l-1.707-1.227"/>
<path fill="#2AAAE2" stroke="#2E368F" stroke-width="1.25" stroke-linecap="round" stroke-linejoin="round" stroke-opacity="0.5" d="
	M89.806,166.478l4.004,0.385l2.587,0.132l2.687-0.372l2.234-1.321l0.227-0.134l2.225-1.316l0.353-0.209l6.193-1.475l2.085-1.135
	l3.625-1.973"/>
<path fill="#2AAAE2" stroke="#2E368F" stroke-width="1.25" stroke-linecap="round" stroke-linejoin="round" stroke-opacity="0.5" d="
	M129.991,153.621l7.466-3.132l4.425-6.641l0.363-0.548l3.954-6.237"/>
<path fill="#2AAAE2" stroke="#2E368F" stroke-width="1.25" stroke-linecap="round" stroke-linejoin="round" stroke-opacity="0.5" d="
	M14.854,64.301l-2.076,2.9l-4.443,6.205L8.22,80.074L2.943,93.165l-0.463,7.39l2.332-5.716l0.664-1.627l3.042-9.389L9.81,79.84
	l1.568-5.728"/>
<path fill="#2AAAE2" stroke="#2E368F" stroke-width="1.25" stroke-linecap="round" stroke-linejoin="round" stroke-opacity="0.5" d="
	M60.061,166.994l1.284,0.007l9.873,0.046l5.479,0.705l8.864-0.159l4.245-1.115l0.014-0.004l0.229-0.06"/>
<path fill="#2AAAE2" stroke="#2E368F" stroke-width="1.25" stroke-linecap="round" stroke-linejoin="round" stroke-opacity="0.5" d="
	M35.825,148.217l6.887,9.106l5.464,5.877"/>
<path fill="#2AAAE2" stroke="#2E368F" stroke-width="1.25" stroke-linecap="round" stroke-linejoin="round" stroke-opacity="0.5" d="
	M112.398,161.032l5.577-1.211l4.554-2.457"/>
<path fill="#2AAAE2" stroke="#2E368F" stroke-width="1.25" stroke-linecap="round" stroke-linejoin="round" stroke-opacity="0.5" d="
	M14.782,63.005l-2.004,4.196"/>
<path fill="#2AAAE2" stroke="#2E368F" stroke-width="1.25" stroke-linecap="round" stroke-linejoin="round" stroke-opacity="0.5" d="
	M153.51,104.532l0.028-0.541l-1.35-3.756"/>
<path fill="#2AAAE2" stroke="#2E368F" stroke-width="1.25" stroke-linecap="round" stroke-linejoin="round" stroke-opacity="0.5" d="
	M128.319,58.14l-0.908-0.611l-4.078-2.742l-0.74-0.782"/>
<path fill="#2AAAE2" stroke="#2E368F" stroke-width="1.25" stroke-linecap="round" stroke-linejoin="round" stroke-opacity="0.5" d="
	M150.142,93.108l-2.735-6.808"/>
<path fill="#2AAAE2" stroke="#2E368F" stroke-width="1.25" stroke-linecap="round" stroke-linejoin="round" stroke-opacity="0.5" d="
	M132.255,62.248l-3.937-4.108l-1.501-1.189"/>
<path fill="#2AAAE2" stroke="#2E368F" stroke-width="1.25" stroke-linecap="round" stroke-linejoin="round" stroke-opacity="0.5" d="
	M141.881,143.849l6.163-3.68l2.205-6.102l2.138-6.229l1.761-5.741l-0.266-3.706l-0.144-1.966"/>
<path fill="#2AAAE2" stroke="#2E368F" stroke-width="1.25" stroke-linecap="round" stroke-linejoin="round" stroke-opacity="0.5" d="
	M41.65,158.758l2.809,2.508l6.526,4.9l2.674,1.131l0.509,0.216l0.756,0.318l0.025,0.012l0.033-0.003l7.671-0.733"/>
<path fill="#2AAAE2" stroke="#2E368F" stroke-width="1.25" stroke-linecap="round" stroke-linejoin="round" stroke-opacity="0.5" d="
	M92.077,167.899l2.527,0.185l2.909,0.212l4.537-3.309l-0.733,0.313"/>
<path fill="#2AAAE2" stroke="#2E368F" stroke-width="1.25" stroke-linecap="round" stroke-linejoin="round" stroke-opacity="0.5" d="
	M102.051,164.987l1.717-1.137"/>
<path fill="#2AAAE2" stroke="#2E368F" stroke-width="1.25" stroke-linecap="round" stroke-linejoin="round" stroke-opacity="0.5" d="
	M2.479,100.555l-1.854,8.027l4.228,8.261l2.521,7.826l5.493,5.597l4.621,4.546l5.571,6.473l5.817,6.158l7.642,10.929l6.342,6.562
	l3.516,1.688l8.549,1.21"/>
<path fill="#2AAAE2" stroke="#2E368F" stroke-width="1.25" stroke-linecap="round" stroke-linejoin="round" stroke-opacity="0.5" d="
	M147.31,83.714l-1.477-5.054l-0.676-2.154"/>
<path fill="#2AAAE2" stroke="#2E368F" stroke-width="1.25" stroke-linecap="round" stroke-linejoin="round" stroke-opacity="0.5" d="
	M156.45,105.704l-2.046-5.731l-1.584-5.091l-3.104-6.4"/>
<path fill="#2AAAE2" stroke="#2E368F" stroke-width="1.25" stroke-linecap="round" stroke-linejoin="round" stroke-opacity="0.5" d="
	M54.982,167.84l3.766,0.533l7.537,0.918l10.009,0.426l7.025,1.047l7.913-1.407l3.372-1.272"/>
<path fill="#2AAAE2" stroke="#2E368F" stroke-width="1.25" stroke-linecap="round" stroke-linejoin="round" stroke-opacity="0.5" d="
	M139.41,65.414l-1.896-3.5l-0.892-1.642l-5.551-2.635l-6.48-3.218l-2.974-1.746"/>
<path fill="#2AAAE2" stroke="#2E368F" stroke-width="1.25" stroke-linecap="round" stroke-linejoin="round" stroke-opacity="0.5" d="
	M153.882,118.392l0.39-1.242l1.127-5.711l1.052-5.734l0.082-0.94l-1.729-7.68l-1.251-7.714l-3.396-5.234l-1.628-5.477l-2.354-7.065
	l-2.739-4.611l-4.248-3.653l-1.675-1.416"/>
</svg>
