<?xml version="1.0" encoding="utf-8"?>
<!-- Generator: Adobe Illustrator 16.0.0, SVG Export Plug-In . SVG Version: 6.00 Build 0)  -->
<!DOCTYPE svg PUBLIC "-//W3C//DTD SVG 1.1//EN" "http://www.w3.org/Graphics/SVG/1.1/DTD/svg11.dtd">
<svg version="1.1" id="Layer_1" xmlns="http://www.w3.org/2000/svg" xmlns:xlink="http://www.w3.org/1999/xlink" x="0px" y="0px"
	 width="187.479px" height="196.113px" viewBox="0 0 187.479 196.113" enable-background="new 0 0 187.479 196.113"
	 xml:space="preserve">
<path fill="#2AAAE2" stroke="#2E368F" stroke-miterlimit="10" d="M4.102,107.896l4.747,8.4l3.852,6.229l1.262,3.06l2.382,2.771
	l1.519,2.421l2.659,6.008l4.086,6.175l2.669,6.852l4.971,5.208l4.358,5.993l3.266,0.246l3.864,3.786l4.722,1.73l3.882,2.317
	l4.256,5.2l1.633,3.3l5.842,3.613l3.196,3.333l9.031,5.02l9.378,5.928l11.006-1.435l5.289-2.166l2.965-0.125l7.936-2.518l3.434-0.52
	l1.2-0.468l6.349-0.768l3.569-1.835l0.533,0.013l1.47-1.042l3.222-1.655l8.92-1.275l3.904-2.074l5.563-0.108l7.123-2.925
	l8.231-3.757l0.554-0.711l3.458-0.809l3.616-5.743l3.288-3.322l6.405-8.002l-1.698-9.771l-0.554-1.509l1.195-5.65l4.203-9.625
	l-2.917-10.214l-0.954-2.683l-0.294-3.449l0.391-3.83l-0.17-3.638l0.264-0.664l0.052-2.323l1.969-5.385l-0.505-9.283l1.012-10.647
	l-1.728-2.857l-1.31-6.203l-5.313-7.643l-0.307-0.596l-0.256-0.214l-0.154-0.224l-5.105-8.599l-2.002-1.393l-4.151-3.848
	l-0.12-0.294l-5.148-6.688l-1.672-1.851l-3.604-5.215l-3.374-1.244l-4.375-2.896l-4.895-2.215l-2.903-2.667l-0.599-0.034
	l-6.213-5.403l-3.087,1.032l-5.135-4.11l-8,0.151l-0.985-0.643l-5.341-1.564l-1.405-0.974l-7.658-2.185l-8.185-2.969l-2.056-0.231
	L85.52,1.643L81.275,1.83l-0.218-0.068l-1.818,0.001l-3.688-1.142l-1.339,0.547l-7.498,0.153L63.81,1.095l-0.749,0.345l-6.991,0.575
	l-8.14,4.398l-5.128,3.556l-3.89,0.963l-7.104,5.979l-4.492,7.109l-0.313,0.389l-6.488,5.948l-6.153,5.727l-3.632,8.134
	l-0.809,1.364L5.82,52.636l-1.589,7.813L2.44,68.328l0.434,3.002l-0.23,1.924l-1.672,6.671l1.034,9.659l-1.378,9.361L4.102,107.896z
	"/>
<path fill="#2AAAE2" stroke="#2E368F" stroke-width="1.25" stroke-linecap="round" stroke-linejoin="round" stroke-opacity="0.5" d="
	M100.396,184.614l8.967-1.405l9.272-4.163"/>
<path fill="#2AAAE2" stroke="#2E368F" stroke-width="1.25" stroke-linecap="round" stroke-linejoin="round" stroke-opacity="0.5" d="
	M34.037,34.926l-3.894,2.106l-2.293,5.622l-4.195,2.433l-0.107,0.063l-1.872,1.086l-0.949,0.55l-2.432,2.905l-2.948,3.521
	l-0.627,1.896l-1.146,3.464l-0.809,2.437"/>
<path fill="#2AAAE2" stroke="#2E368F" stroke-width="1.25" stroke-linecap="round" stroke-linejoin="round" stroke-opacity="0.5" d="
	M12.693,113.078l1.195,3.615l1.041,3.15l0.257,0.774l0.279,0.845l1.189,5.049l0.435,1.844l0.283,1.2l0.06,0.256l0.428,0.967
	l2.66,6.008l4.086,6.175l2.669,6.852l4.971,5.208l4.358,5.992l3.266,0.247l5.562,0.423"/>
<path fill="#2AAAE2" stroke="#2E368F" stroke-width="1.25" stroke-linecap="round" stroke-linejoin="round" stroke-opacity="0.5" d="
	M27.427,41.779l-3.879,3.37"/>
<path fill="#2AAAE2" stroke="#2E368F" stroke-width="1.25" stroke-linecap="round" stroke-linejoin="round" stroke-opacity="0.5" d="
	M170.055,168.124l3.998-3.98l4.258-8.414l0.586-3.464l0.104-0.603l0.13-0.769l0.719-4.252"/>
<path fill="#2AAAE2" stroke="#2E368F" stroke-width="1.25" stroke-linecap="round" stroke-linejoin="round" stroke-opacity="0.5" d="
	M145.468,179.621l5.563-0.107l7.123-2.926l8.232-3.757l0.554-0.711l1.458-1.87l0.017-0.02l1.642-2.106l3.062-3.926"/>
<path fill="#2AAAE2" stroke="#2E368F" stroke-width="1.25" stroke-linecap="round" stroke-linejoin="round" stroke-opacity="0.5" d="
	M6.85,95.45l0.213,8.895l3.688,7.83l3.38,6.694l0.801,0.976"/>
<path fill="#2AAAE2" stroke="#2E368F" stroke-width="1.25" stroke-linecap="round" stroke-linejoin="round" stroke-opacity="0.5" d="
	M15.187,120.619l1.469,5.894"/>
<path fill="#2AAAE2" stroke="#2E368F" stroke-width="1.25" stroke-linecap="round" stroke-linejoin="round" stroke-opacity="0.5" d="
	M179.129,150.895l1.559-4.303l0.769-3.627l1.194-5.65l4.204-9.625l-2.917-10.213l-0.955-2.684l-0.5-1.405l-1.585-4.453l-0.308-0.865
	l-0.147-0.415"/>
<path fill="#2AAAE2" stroke="#2E368F" stroke-width="1.25" stroke-linecap="round" stroke-linejoin="round" stroke-opacity="0.5" d="
	M122.701,16.783l-6.453-4.215l-0.985-0.644l-5.341-1.563l-0.345-0.103l-0.163-0.047l-2.394-0.7L98.446,8.56l-5.976-2.595"/>
<path fill="#2AAAE2" stroke="#2E368F" stroke-width="1.25" stroke-linecap="round" stroke-linejoin="round" stroke-opacity="0.5" d="
	M39.869,161.26l3.863,3.786l4.723,1.73l3.318,1.216"/>
<path fill="#2AAAE2" stroke="#2E368F" stroke-width="1.25" stroke-linecap="round" stroke-linejoin="round" stroke-opacity="0.5" d="
	M161.369,45.084l-0.331-0.45l-0.011-0.013l-4.781-6.506l-4.277-4.31l-1.117-1.127l-1.924-2.052l-0.753-0.803l-1.854-1.975
	l-0.072-0.077l-0.905-0.964l-2.406-2.069l-1.966-1.691l-2.008-1.726l-1.039-0.468l-6.663-2.995l-0.352-0.111"/>
<path fill="#2AAAE2" stroke="#2E368F" stroke-width="1.25" stroke-linecap="round" stroke-linejoin="round" stroke-opacity="0.5" d="
	M131.088,17.892l-0.178-0.144l-1.527-1.222l-5.135-4.111l-8,0.152"/>
<path fill="#2AAAE2" stroke="#2E368F" stroke-width="1.25" stroke-linecap="round" stroke-linejoin="round" stroke-opacity="0.5" d="
	M25.367,28.724l-4.1,7.93l-0.783,8.772l-2.189,4.265"/>
<path fill="#2AAAE2" stroke="#2E368F" stroke-width="1.25" stroke-linecap="round" stroke-linejoin="round" stroke-opacity="0.5" d="
	M95.41,192.164l6.558-0.276l2.965-0.125l7.936-2.518l2.165-0.687l2.469-0.301l6.349-0.768l3.569-1.835l2.003-1.029l3.222-1.655
	l8.92-1.275l3.904-2.074l3.68-1.957"/>
<path fill="#2AAAE2" stroke="#2E368F" stroke-width="1.25" stroke-linecap="round" stroke-linejoin="round" stroke-opacity="0.5" d="
	M151.969,33.806l-0.768-1.301l-2.273-1.878"/>
<path fill="#2AAAE2" stroke="#2E368F" stroke-width="1.25" stroke-linecap="round" stroke-linejoin="round" stroke-opacity="0.5" d="
	M48.455,166.776l3.882,2.317l4.256,5.2l1.463,1.789"/>
<path fill="#2AAAE2" stroke="#2E368F" stroke-width="1.25" stroke-linecap="round" stroke-linejoin="round" stroke-opacity="0.5" d="
	M72.099,6.356l-0.746,0.104l-7.434,2.57"/>
<path fill="#2AAAE2" stroke="#2E368F" stroke-width="1.25" stroke-linecap="round" stroke-linejoin="round" stroke-opacity="0.5" d="
	M182.482,113.388l0.207-2.044l0.391-3.829l-0.17-3.639l-0.089-1.883l-0.089-1.899l-0.065-1.433l-0.018-0.343l-0.048-1.023
	l-0.581-5.979l-0.061-0.629l-0.327-3.369l-0.218-10.098"/>
<path fill="#2AAAE2" stroke="#2E368F" stroke-width="1.25" stroke-linecap="round" stroke-linejoin="round" stroke-opacity="0.5" d="
	M47.46,13.4l-1.075,0.64l-7.37,4.192l-6.751,4.864l-4.505,3.094l-0.965,0.663l-1.295,0.89"/>
<path fill="#2AAAE2" stroke="#2E368F" stroke-width="1.25" stroke-linecap="round" stroke-linejoin="round" stroke-opacity="0.5" d="
	M56.593,174.295l1.633,3.3l5.841,3.613l2.301,1.422l0.962,0.473l6.68,3.268l10.035,0.917"/>
<path fill="#2AAAE2" stroke="#2E368F" stroke-width="1.25" stroke-linecap="round" stroke-linejoin="round" stroke-opacity="0.5" d="
	M161.994,45.467l-0.115-0.101l-0.852-0.745"/>
<path fill="#2AAAE2" stroke="#2E368F" stroke-width="1.25" stroke-linecap="round" stroke-linejoin="round" stroke-opacity="0.5" d="
	M14.72,55.106l-3.832,4.56L8.23,67.539l-2.945,8.19l-0.288,9.242l-2.142,8.142l1.287,7.623"/>
<path fill="#2AAAE2" stroke="#2E368F" stroke-width="1.25" stroke-linecap="round" stroke-linejoin="round" stroke-opacity="0.5" d="
	M2.855,93.113l0.17,0.719l0.933,3.013l1.318,4.271"/>
<path fill="#2AAAE2" stroke="#2E368F" stroke-width="1.25" stroke-linecap="round" stroke-linejoin="round" stroke-opacity="0.5" d="
	M66.366,182.63l0.973,0.481"/>
<path fill="#2AAAE2" stroke="#2E368F" stroke-width="1.25" stroke-linecap="round" stroke-linejoin="round" stroke-opacity="0.5" d="
	M112.867,189.245l3.434-0.519l1.2-0.469"/>
<path fill="#2AAAE2" stroke="#2E368F" stroke-width="1.25" stroke-linecap="round" stroke-linejoin="round" stroke-opacity="0.5" d="
	M98.13,8.953l-5.658-2.987l-2.729-1.439l-0.429-0.136l-2.606-0.828l-5.435-1.728l-0.218-0.067l-1.819,0.001L73.19,1.774h-0.447
	l-0.269,0.001l-5.763-0.448l-2.905-0.226l-0.749,0.345l-7.669,3.535l-7.245,3.67l-5.345,1.323l-3.89,0.964l-7.104,5.978l-4.492,7.11
	"/>
<path fill="#2AAAE2" stroke="#2E368F" stroke-width="1.25" stroke-linecap="round" stroke-linejoin="round" stroke-opacity="0.5" d="
	M145.464,26.608l-2.794-2.564l-0.485-0.443l-2.903-2.667l-0.599-0.034l-0.758-0.043"/>
<path fill="#2AAAE2" stroke="#2E368F" stroke-width="1.25" stroke-linecap="round" stroke-linejoin="round" stroke-opacity="0.5" d="
	M182.021,91.317l0.976-4.544l1.828-10.031l-0.852-4.026l-1.31-6.203l-5.313-7.643l-0.563-0.809l-0.154-0.225l-5.106-8.599
	l-2.002-1.393l-3.06-2.128l-0.542-0.375l-0.113-0.078l-1.756-1.222"/>
<path fill="#2AAAE2" stroke="#2E368F" stroke-width="1.25" stroke-linecap="round" stroke-linejoin="round" stroke-opacity="0.5" d="
	M26.16,25.456l-0.665,0.858l-0.059,0.121l-3.304,6.972"/>
<path fill="#2AAAE2" stroke="#2E368F" stroke-width="1.25" stroke-linecap="round" stroke-linejoin="round" stroke-opacity="0.5" d="
	M169.524,47.848l-4.15-3.849l-0.533-0.495l-6.224-5.2l-0.153-0.129l-0.384-0.318"/>
<path fill="#2AAAE2" stroke="#2E368F" stroke-width="1.25" stroke-linecap="round" stroke-linejoin="round" stroke-opacity="0.5" d="
	M64.066,181.208l3.197,3.333l9.031,5.02l9.378,5.928l11.006-1.435l5.289-2.166"/>
<path fill="#2AAAE2" stroke="#2E368F" stroke-width="1.25" stroke-linecap="round" stroke-linejoin="round" stroke-opacity="0.5" d="
	M31.884,18.364l-4.569,5.661l-0.313,0.388l-0.842,1.043l-5.433,6.023"/>
<path fill="#2AAAE2" stroke="#2E368F" stroke-width="1.25" stroke-linecap="round" stroke-linejoin="round" stroke-opacity="0.5" d="
	M158.616,38.304l-0.291-0.418l-1.033-1.39l-0.73-0.983l-3.479-4.682l-7.376-4.438l-3.036-2.35"/>
<path fill="#2AAAE2" stroke="#2E368F" stroke-width="1.25" stroke-linecap="round" stroke-linejoin="round" stroke-opacity="0.5" d="
	M179.063,154.205L179,151.663"/>
<path fill="#2AAAE2" stroke="#2E368F" stroke-width="1.25" stroke-linecap="round" stroke-linejoin="round" stroke-opacity="0.5" d="
	M166.939,172.12l3.458-0.809l3.616-5.743l1.896-3.009"/>
<path fill="#2AAAE2" stroke="#2E368F" stroke-width="1.25" stroke-linecap="round" stroke-linejoin="round" stroke-opacity="0.5" d="
	M138.683,20.898l-6.213-5.404l-3.087,1.033"/>
<path fill="#2AAAE2" stroke="#2E368F" stroke-width="1.25" stroke-linecap="round" stroke-linejoin="round" stroke-opacity="0.5" d="
	M127.419,185.656l0.533,0.013l1.47-1.042"/>
<path fill="#2AAAE2" stroke="#2E368F" stroke-width="1.25" stroke-linecap="round" stroke-linejoin="round" stroke-opacity="0.5" d="
	M10.424,117.01l2.275,5.518l1.262,3.06l2.382,2.771l1.03,1.199"/>
<path fill="#2AAAE2" stroke="#2E368F" stroke-width="1.25" stroke-linecap="round" stroke-linejoin="round" stroke-opacity="0.5" d="
	M109.922,10.361l-1.405-0.974l-7.658-2.186l-8.185-2.968l-2.056-0.232l-3.912-0.44"/>
<path fill="#2AAAE2" stroke="#2E368F" stroke-width="1.25" stroke-linecap="round" stroke-linejoin="round" stroke-opacity="0.5" d="
	M158.901,37.796l-2.34-2.283"/>
<path fill="#2AAAE2" stroke="#2E368F" stroke-width="1.25" stroke-linecap="round" stroke-linejoin="round" stroke-opacity="0.5" d="
	M63.058,1.445l-6.991,0.575l-8.14,4.397l-5.128,3.557"/>
<path fill="#2AAAE2" stroke="#2E368F" stroke-width="1.25" stroke-linecap="round" stroke-linejoin="round" stroke-opacity="0.5" d="
	M174.014,165.568l3.288-3.322l6.405-8.002l-1.698-9.77l-0.554-1.51"/>
<path fill="#2AAAE2" stroke="#2E368F" stroke-width="1.25" stroke-linecap="round" stroke-linejoin="round" stroke-opacity="0.5" d="
	M74.806,1.161L74.21,1.173l-7.498,0.153"/>
<path fill="#2AAAE2" stroke="#2E368F" stroke-width="1.25" stroke-linecap="round" stroke-linejoin="round" stroke-opacity="0.5" d="
	M2.141,90.589l-0.17,0.961L1.505,99.6"/>
<path fill="#2AAAE2" stroke="#2E368F" stroke-width="1.25" stroke-linecap="round" stroke-linejoin="round" stroke-opacity="0.5" d="
	M27.002,24.413l-6.488,5.949l-6.153,5.726l-3.632,8.134"/>
<path fill="#2AAAE2" stroke="#2E368F" stroke-width="1.25" stroke-linecap="round" stroke-linejoin="round" stroke-opacity="0.5" d="
	M182.982,114.794l-0.293-3.449"/>
<path fill="#2AAAE2" stroke="#2E368F" stroke-width="1.25" stroke-linecap="round" stroke-linejoin="round" stroke-opacity="0.5" d="
	M182.732,100.095l0.308-3.828l0.007-0.093"/>
<path fill="#2AAAE2" stroke="#2E368F" stroke-width="1.25" stroke-linecap="round" stroke-linejoin="round" stroke-opacity="0.5" d="
	M177.35,58.87l-0.307-0.596l-0.256-0.213"/>
<path fill="#2AAAE2" stroke="#2E368F" stroke-width="1.25" stroke-linecap="round" stroke-linejoin="round" stroke-opacity="0.5" d="
	M79.235,1.768l-3.687-1.143L74.21,1.172"/>
<path fill="#2AAAE2" stroke="#2E368F" stroke-width="1.25" stroke-linecap="round" stroke-linejoin="round" stroke-opacity="0.5" d="
	M6.413,53.965l-1.779,8.831l-1.391,8.068L3.18,71.109l-0.217,0.866l-0.322,1.281l-1.672,6.672l1.034,9.658l-1.378,9.361l3.476,8.946
	l4.747,8.4l3.852,6.229"/>
<path fill="#2AAAE2" stroke="#2E368F" stroke-width="1.25" stroke-linecap="round" stroke-linejoin="round" stroke-opacity="0.5" d="
	M182.821,101.994l0.403-1.104l1.968-5.386l-0.504-9.283l1.012-10.647l-1.728-2.857"/>
<path fill="#2AAAE2" stroke="#2E368F" stroke-width="1.25" stroke-linecap="round" stroke-linejoin="round" stroke-opacity="0.5" d="
	M14.719,37.491l-3.99,6.73L9.92,45.585l-4.102,7.056l-1.589,7.813l-1.791,7.879l0.434,3.002"/>
<path fill="#2AAAE2" stroke="#2E368F" stroke-width="1.25" stroke-linecap="round" stroke-linejoin="round" stroke-opacity="0.5" d="
	M90.618,4.003l-5.103-2.354l-4.244,0.187"/>
<path fill="#2AAAE2" stroke="#2E368F" stroke-width="1.25" stroke-linecap="round" stroke-linejoin="round" stroke-opacity="0.5" d="
	M165.373,44l-0.12-0.294l-5.148-6.687l-1.672-1.852l-4.136-4.576l-2.844-1.883l-4.375-2.896l-4.895-2.215"/>
<path fill="#2AAAE2" stroke="#2E368F" stroke-width="1.25" stroke-linecap="round" stroke-linejoin="round" stroke-opacity="0.5" d="
	M16.343,128.357l1.518,2.421"/>
<path fill="#2AAAE2" stroke="#2E368F" stroke-width="1.25" stroke-linecap="round" stroke-linejoin="round" stroke-opacity="0.5" d="
	M3.054,69.807l-0.182,1.526l-0.23,1.924"/>
<path fill="#2AAAE2" stroke="#2E368F" stroke-width="1.25" stroke-linecap="round" stroke-linejoin="round" stroke-opacity="0.5" d="
	M158.433,35.169l-3.604-5.215l-3.374-1.244"/>
<path fill="#2AAAE2" stroke="#2E368F" stroke-width="1.25" stroke-linecap="round" stroke-linejoin="round" stroke-opacity="0.5" d="
	M182.909,103.877l0.264-0.664l0.052-2.322"/>
</svg>
