<?xml version="1.0" encoding="utf-8"?>
<!-- Generator: Adobe Illustrator 16.0.0, SVG Export Plug-In . SVG Version: 6.00 Build 0)  -->
<!DOCTYPE svg PUBLIC "-//W3C//DTD SVG 1.1//EN" "http://www.w3.org/Graphics/SVG/1.1/DTD/svg11.dtd">
<svg version="1.1" id="Layer_1" xmlns="http://www.w3.org/2000/svg" xmlns:xlink="http://www.w3.org/1999/xlink" x="0px" y="0px"
	 width="192.929px" height="190.816px" viewBox="0 0 192.929 190.816" enable-background="new 0 0 192.929 190.816"
	 xml:space="preserve">
<path fill="#2AAAE2" stroke="#2E368F" stroke-miterlimit="10" d="M146.954,154.25l0.05-0.236l1.187-0.679l7.35-6.472l3.409-4.131
	l4.146-5.005l6.692-7.137l2.332-3.604l0.122-0.413l1.186-1.938l0.978-1.981l4.958-6.451l1.944-5.136l1.542-2.142l0.312-2.348
	l-0.129-4.652l0.066-0.621l0.009-4.641l-0.494-0.939l0.445-3.746l0.443-1.957l0.849-6.634l0.239-0.955l0.371-2.381l1.25-3.671
	l1.442-6.861l-0.081-6.581l-0.217-3.305l0.027-3.405l1.149-5.833l-0.203-5.94l0.451-2.466l3.523-12.388l-0.116-5.219l-5.501-15.027
	l-4.485-4.711l-11.85-0.604L160.92,1.04l-6.863,0.04l-1.835-0.456l-11.287,0.075l-9.752,3.73l-1.045,0.221l-9.318,0.281
	l-11.105-0.324L98.738,5.673L87.862,7.171l-9.991,3.57l-2.562,0.846l-4.967,0.175L56.75,14.887l-10.468,2.029l-10.728,1.053
	L24.779,19.84l-13.062,3.425L5.682,34.752L3.17,41.281l-0.851,8.694l0.22,7.363l-1.235,5.286L0.623,75.324l1.103,8.344l1.314,3.479
	l0.017,0.142l0.537,1.317l1.229,3.255l1.732,8.078l0.773,3.072l0.853,5.063l0.884,2.489l0.145,1.282l-0.023,2.984l3.299,6.867
	l0.654,1.424l2.146,7.021l3.381,6.292l0.897,1.865l-0.345,8.14l2.821,9.479l2.424,2.885l2.364,4.183l3.998,3.536l4.48,3.247
	l3.688,3.099l0.479,0.245l2.634,3.21l3.109,4.409l4.97,1.911l0.676-0.03l3.949,2.445l4.166,2.413l4.76,0.287l2.604-0.034
	l4.537,1.684l4.232,0.679l4.081,0.105l3.378-1.627l0.629,0.141l1.966-0.434l0.623,0.023l1.366-0.462l2.367-1.049l4.188-0.435
	l6.338-2.205l1.623-0.641l1.722-0.996l0.538-0.078l3.365-1.278l0.313-0.121l3.231-1.282l3.734-0.64l2.403-1.004l2.931-0.53
	l2.08-0.725l3.613-1.854l2.37-2.201l2.089-0.906l3.221-2.126l0.854-0.646l3.229-2.634l2.148-3.011l2.658-1.704l2.521-3.61
	l0.176-0.121L146.954,154.25z"/>
<path fill="#2AAAE2" stroke="#2E368F" stroke-width="1.25" stroke-linecap="round" stroke-linejoin="round" stroke-opacity="0.5" d="
	M126.377,75.348l4.339-4.241"/>
<path fill="#2AAAE2" stroke="#2E368F" stroke-width="1.25" stroke-linecap="round" stroke-linejoin="round" stroke-opacity="0.5" d="
	M123.936,70.477l4.279-2.609l1.285-0.896l-1.11,0.631l2.601-2.914"/>
<path fill="#2AAAE2" stroke="#2E368F" stroke-width="1.25" stroke-linecap="round" stroke-linejoin="round" stroke-opacity="0.5" d="
	M135.78,61.414l-1.651,1.546"/>
<path fill="#2AAAE2" stroke="#2E368F" stroke-width="1.25" stroke-linecap="round" stroke-linejoin="round" stroke-opacity="0.5" d="
	M75.245,170.549l3.492,1.439l4.24,1.328"/>
<path fill="#2AAAE2" stroke="#2E368F" stroke-width="1.25" stroke-linecap="round" stroke-linejoin="round" stroke-opacity="0.5" d="
	M60.229,172.104l1.63-0.601l3.338-1.322"/>
<path fill="#2AAAE2" stroke="#2E368F" stroke-width="1.25" stroke-linecap="round" stroke-linejoin="round" stroke-opacity="0.5" d="
	M113.662,176.626l3.49-0.886l1.566-0.906l2.693-1.563l0.706-0.423l0.485-0.291l1.632-0.977"/>
<path fill="#2AAAE2" stroke="#2E368F" stroke-width="1.25" stroke-linecap="round" stroke-linejoin="round" stroke-opacity="0.5" d="
	M97.292,180.132l0.076-0.03l3.46-1.363l4.409,0.128l2.463-0.148l1.475-0.089l0.314-0.143l2.666-1.188l0.099-0.044l1.408-0.628
	l0.2-0.089"/>
<path fill="#2AAAE2" stroke="#2E368F" stroke-width="1.25" stroke-linecap="round" stroke-linejoin="round" stroke-opacity="0.5" d="
	M136.074,164.505l2.951-2.084l2.518-2.289"/>
<path fill="#2AAAE2" stroke="#2E368F" stroke-width="1.25" stroke-linecap="round" stroke-linejoin="round" stroke-opacity="0.5" d="
	M159.767,107.859l1.622-2.636l1.104-2.376"/>
<path fill="#2AAAE2" stroke="#2E368F" stroke-width="1.25" stroke-linecap="round" stroke-linejoin="round" stroke-opacity="0.5" d="
	M95.867,181.624l1.501-1.522"/>
<path fill="#2AAAE2" stroke="#2E368F" stroke-width="1.25" stroke-linecap="round" stroke-linejoin="round" stroke-opacity="0.5" d="
	M147.458,151.217l0.398-1.105l0.008-0.021l0.844-2.345"/>
<path fill="#2AAAE2" stroke="#2E368F" stroke-width="1.25" stroke-linecap="round" stroke-linejoin="round" stroke-opacity="0.5" d="
	M112.155,177.298l4.648,0.451l0.646,0.062l0.671,0.065l3.867-1.025l3.614-1.854l2.37-2.2"/>
<path fill="#2AAAE2" stroke="#2E368F" stroke-width="1.25" stroke-linecap="round" stroke-linejoin="round" stroke-opacity="0.5" d="
	M126.629,173.377l1.345-0.582l2.089-0.907l3.22-2.126l0.855-0.645l3.228-2.635l2.149-3.011l2.657-1.704l2.521-3.609"/>
<path fill="#2AAAE2" stroke="#2E368F" stroke-width="1.25" stroke-linecap="round" stroke-linejoin="round" stroke-opacity="0.5" d="
	M60.637,178.039l4.483,0.83l4.972-0.117"/>
<path fill="#2AAAE2" stroke="#2E368F" stroke-width="1.25" stroke-linecap="round" stroke-linejoin="round" stroke-opacity="0.5" d="
	M147.856,150.111l0.74-0.367l0.009-0.005l0.216-0.105l0.168-0.084l2.072-1.027l3.716-2.746l0.003-0.014l0.05-0.207l0.371-1.537
	l1.334-1.669l1.303-1.896l1.325-1.94l2.593-3.079l1.595-2.673l2.871-2.903l2.046-3.186l2.634-7.032"/>
<path fill="#2AAAE2" stroke="#2E368F" stroke-width="1.25" stroke-linecap="round" stroke-linejoin="round" stroke-opacity="0.5" d="
	M84.429,186.199l2.107,0.186l0.034,0.003l1.86,0.161l3.957-1.665l0.778-0.5l0.647-0.415l1.087-0.697l2.963-1.376l2.648-1.542
	l2.56-0.87"/>
<path fill="#2AAAE2" stroke="#2E368F" stroke-width="1.25" stroke-linecap="round" stroke-linejoin="round" stroke-opacity="0.5" d="
	M141.472,160.406l3.222-2.248l0.176-0.12l2.085-3.787l0.051-0.236l0.067-0.321l0.756-1.949l0.574-1.479l0.203-0.524"/>
<path fill="#2AAAE2" stroke="#2E368F" stroke-width="1.25" stroke-linecap="round" stroke-linejoin="round" stroke-opacity="0.5" d="
	M113.665,178.703l2.234-0.401l0.778-0.143l0.301-0.054l2.93-0.53l2.08-0.725"/>
<path fill="#2AAAE2" stroke="#2E368F" stroke-width="1.25" stroke-linecap="round" stroke-linejoin="round" stroke-opacity="0.5" d="
	M19.858,126.301l1.312,3.126l1.257,2.728l1.208,2.598"/>
<path fill="#2AAAE2" stroke="#2E368F" stroke-width="1.25" stroke-linecap="round" stroke-linejoin="round" stroke-opacity="0.5" d="
	M93.168,184.383l3.368-0.563l3.08-0.708l0.099-0.021l0.478-0.11l3.2-0.47l0.538-0.079l3.364-1.278l0.313-0.121l3.23-1.281
	l3.734-0.641l2.404-1.004"/>
<path fill="#2AAAE2" stroke="#2E368F" stroke-width="1.25" stroke-linecap="round" stroke-linejoin="round" stroke-opacity="0.5" d="
	M147.828,151.742l1.161-2.192"/>
<path fill="#2AAAE2" stroke="#2E368F" stroke-width="1.25" stroke-linecap="round" stroke-linejoin="round" stroke-opacity="0.5" d="
	M172.977,119.189l0.511-0.564l1.729-1.913l1.815-2.122l0.707-0.826l0.813-0.95"/>
<path fill="#2AAAE2" stroke="#2E368F" stroke-width="1.25" stroke-linecap="round" stroke-linejoin="round" stroke-opacity="0.5" d="
	M39.475,173.112l2.634,3.21l3.109,4.409l4.97,1.911l0.676-0.03l2.67-0.118l1.192-0.052l0.841-0.037"/>
<path fill="#2AAAE2" stroke="#2E368F" stroke-width="1.25" stroke-linecap="round" stroke-linejoin="round" stroke-opacity="0.5" d="
	M181.474,87.395l1.155-1.913l0.35-0.579l0.022-0.04l0.13-0.212l0.125-0.208l-0.092-0.502l-0.217-1.207l-0.163-0.909l-0.015-0.084
	l-0.041-0.228l-0.109-0.608l0.074-0.322l0.001-0.009l0.812-3.558l0.111-1.702l0.132-1.976l0.012-0.155l-0.048-0.921l-0.188-3.689"/>
<path fill="#2AAAE2" stroke="#2E368F" stroke-width="1.25" stroke-linecap="round" stroke-linejoin="round" stroke-opacity="0.5" d="
	M181.442,93.797l0.03-0.236l0.394-3.07"/>
<path fill="#2AAAE2" stroke="#2E368F" stroke-width="1.25" stroke-linecap="round" stroke-linejoin="round" stroke-opacity="0.5" d="
	M66.342,187.724l4.537,1.684l4.232,0.68l4.081,0.104l3.378-1.627l0.029-0.014l0.03-0.017l0.271-0.131l0.374-0.203l0.39-0.214
	l2.501-1.368l0.403-0.231"/>
<path fill="#2AAAE2" stroke="#2E368F" stroke-width="1.25" stroke-linecap="round" stroke-linejoin="round" stroke-opacity="0.5" d="
	M180.336,111.69l-0.342,0.345l-1.846,1.87l-1.65,1.673l1.112-1.496l0.941-1.27l2.024-3.146l0.18-0.278l0.463-0.72"/>
<path fill="#2AAAE2" stroke="#2E368F" stroke-width="1.25" stroke-linecap="round" stroke-linejoin="round" stroke-opacity="0.5" d="
	M172.3,122.475l4.197-6.896"/>
<path fill="#2AAAE2" stroke="#2E368F" stroke-width="1.25" stroke-linecap="round" stroke-linejoin="round" stroke-opacity="0.5" d="
	M50.863,182.612l3.949,2.445l4.166,2.413l4.76,0.287l2.604-0.034l1.062-0.015"/>
<path fill="#2AAAE2" stroke="#2E368F" stroke-width="1.25" stroke-linecap="round" stroke-linejoin="round" stroke-opacity="0.5" d="
	M182.799,104.119l0.23-2.19l0.066-0.621l0.009-4.64l-0.494-0.94l-0.283-0.538l-0.071-0.137l-0.411-0.783l-0.002-0.004l-0.212-0.402
	l-0.01-0.016l-0.024-0.051l-0.028-0.053l-0.096-0.184"/>
<path fill="#2AAAE2" stroke="#2E368F" stroke-width="1.25" stroke-linecap="round" stroke-linejoin="round" stroke-opacity="0.5" d="
	M183.288,69.461l0.109-0.407l0.128-0.481l1.806-6.759l0.926-8.403l-0.847-8.104l1.243-5.705"/>
<path fill="#2AAAE2" stroke="#2E368F" stroke-width="1.25" stroke-linecap="round" stroke-linejoin="round" stroke-opacity="0.5" d="
	M14.107,110.751l0.017,4.315l1.048,4.278l0.664,2.842l0.759,2.531l2.795,5.097l0.296,0.54l0.147,0.272"/>
<path fill="#2AAAE2" stroke="#2E368F" stroke-width="1.25" stroke-linecap="round" stroke-linejoin="round" stroke-opacity="0.5" d="
	M182.729,81.513l0.021-0.053l0.009-0.017l0.56-1.332l0.041-0.098l0.98-2.335l-0.627-5.418"/>
<path fill="#2AAAE2" stroke="#2E368F" stroke-width="1.25" stroke-linecap="round" stroke-linejoin="round" stroke-opacity="0.5" d="
	M20.738,137.084l0.062,1.652l0.079,2.238l0.019,0.094l0.548,3.015l1.063,2.908"/>
<path fill="#2AAAE2" stroke="#2E368F" stroke-width="1.25" stroke-linecap="round" stroke-linejoin="round" stroke-opacity="0.5" d="
	M182.31,90.629l0.065-0.336l0.038-0.189l0.486-2.445l0.151-1.641l0.019-0.204l0.006-0.059l0.056-1.104"/>
<path fill="#2AAAE2" stroke="#2E368F" stroke-width="1.25" stroke-linecap="round" stroke-linejoin="round" stroke-opacity="0.5" d="
	M154.78,145.762l3.922-2.922l0.156-0.116l1.788-2.151l1.723-2.071l0.726-0.771l6.692-7.137l2.332-3.604l-0.501,0.606l-1.146,1.39
	l-2.123,2.572l-2.904,2.732l-0.395,0.37"/>
<path fill="#2AAAE2" stroke="#2E368F" stroke-width="1.25" stroke-linecap="round" stroke-linejoin="round" stroke-opacity="0.5" d="
	M181.845,94.269l0.003-0.024l0.313-2.317l0.021-0.143l0.099-0.727l0.092-0.677l0.042-0.277"/>
<path fill="#2AAAE2" stroke="#2E368F" stroke-width="1.25" stroke-linecap="round" stroke-linejoin="round" stroke-opacity="0.5" d="
	M172.119,126.988l0.122-0.413l0.534-1.8l0.714-2.406l0.464-1.563l5.13-6.649l0.503-0.695l1.152-1.604l0.567-0.787l1.542-2.142
	l0.312-2.347l-0.129-4.653"/>
<path fill="#2AAAE2" stroke="#2E368F" stroke-width="1.25" stroke-linecap="round" stroke-linejoin="round" stroke-opacity="0.5" d="
	M183.165,83.94l0.194-3.926"/>
<path fill="#2AAAE2" stroke="#2E368F" stroke-width="1.25" stroke-linecap="round" stroke-linejoin="round" stroke-opacity="0.5" d="
	M19.594,137.609l-0.029,0.691l-0.345,8.14l2.82,9.479l2.425,2.885l2.363,4.183l3.998,3.536l4.481,3.247l3.688,3.1l0.479,0.244
	l2.951,1.512l0.601,0.308"/>
<path fill="#2AAAE2" stroke="#2E368F" stroke-width="1.25" stroke-linecap="round" stroke-linejoin="round" stroke-opacity="0.5" d="
	M97.884,183.826l1.831-0.735"/>
<path fill="#2AAAE2" stroke="#2E368F" stroke-width="1.25" stroke-linecap="round" stroke-linejoin="round" stroke-opacity="0.5" d="
	M85.165,188.271l0.623,0.024l1.366-0.462L85.165,188.271l-1.966,0.434l-0.628-0.141"/>
<path fill="#2AAAE2" stroke="#2E368F" stroke-width="1.25" stroke-linecap="round" stroke-linejoin="round" stroke-opacity="0.5" d="
	M181.848,94.244l1.076-3.981l0.157-1.833l0.038-0.432l0.035-0.402l0.023-0.268l0.285-3.281"/>
<path fill="#2AAAE2" stroke="#2E368F" stroke-width="1.25" stroke-linecap="round" stroke-linejoin="round" stroke-opacity="0.5" d="
	M87.154,187.834l2.368-1.049l4.187-0.436l6.339-2.205l1.623-0.64l1.722-0.996"/>
<path fill="#2AAAE2" stroke="#2E368F" stroke-width="1.25" stroke-linecap="round" stroke-linejoin="round" stroke-opacity="0.5" d="
	M168.842,8.187l-11.843,0.366l-7.077,1.408"/>
<path fill="#2AAAE2" stroke="#2E368F" stroke-width="1.25" stroke-linecap="round" stroke-linejoin="round" stroke-opacity="0.5" d="
	M172.241,126.575l1.186-1.938l0.978-1.981l2.247-4.553l3.955-5.513l0.133-0.734"/>
<path fill="#2AAAE2" stroke="#2E368F" stroke-width="1.25" stroke-linecap="round" stroke-linejoin="round" stroke-opacity="0.5" d="
	M147.004,154.014l1.187-0.679l7.35-6.472l3.409-4.131l4.146-5.005"/>
<path fill="#2AAAE2" stroke="#2E368F" stroke-width="1.25" stroke-linecap="round" stroke-linejoin="round" stroke-opacity="0.5" d="
	M9.941,107.445l-0.364,3.32l-0.014,0.123l-0.037,0.339l-0.053,0.482l-0.032,0.291l-0.105,0.961l-0.029,0.274l-0.031,0.915"/>
<path fill="#2AAAE2" stroke="#2E368F" stroke-width="1.25" stroke-linecap="round" stroke-linejoin="round" stroke-opacity="0.5" d="
	M12.05,119.77l0.651,1.148l0.354,0.615l1.838,3.23l0.429,0.569l2.671,3.538l1.018,4.493l0.444,1.976l0.141,2.269l-0.585-4.243"/>
<path fill="#2AAAE2" stroke="#2E368F" stroke-width="1.25" stroke-linecap="round" stroke-linejoin="round" stroke-opacity="0.5" d="
	M136.108,10.521l-9.013,0.72l-6.71,1.563"/>
<path fill="#2AAAE2" stroke="#2E368F" stroke-width="1.25" stroke-linecap="round" stroke-linejoin="round" stroke-opacity="0.5" d="
	M14.893,124.765l0.895,1.361"/>
<path fill="#2AAAE2" stroke="#2E368F" stroke-width="1.25" stroke-linecap="round" stroke-linejoin="round" stroke-opacity="0.5" d="
	M7.455,96.61l2.524,5.84l-0.381,5.173"/>
<path fill="#2AAAE2" stroke="#2E368F" stroke-width="1.25" stroke-linecap="round" stroke-linejoin="round" stroke-opacity="0.5" d="
	M183.879,83.229l0.758-2.224l0.03-0.094l0.292-0.858l1.25-3.671l1.443-6.861l-0.081-6.581l-0.217-3.305l0.027-3.405l0.037-4.759
	l0.002-0.182l0.018-1.969"/>
<path fill="#2AAAE2" stroke="#2E368F" stroke-width="1.25" stroke-linecap="round" stroke-linejoin="round" stroke-opacity="0.5" d="
	M183.082,88.429l0.103-0.402l0.035-0.139l1.13-4.498l0.239-0.955l0.37-2.381"/>
<path fill="#2AAAE2" stroke="#2E368F" stroke-width="1.25" stroke-linecap="round" stroke-linejoin="round" stroke-opacity="0.5" d="
	M2.958,79.872l0.56,2.463l1.531,6.426"/>
<path fill="#2AAAE2" stroke="#2E368F" stroke-width="1.25" stroke-linecap="round" stroke-linejoin="round" stroke-opacity="0.5" d="
	M9.243,107.787l-0.015,1.854l-0.001,0.131l-0.003,0.407l-0.007,0.81l-0.007,0.858l-0.023,2.985l3.299,6.866l0.654,1.425l1.633,3.558
	l0.053,0.115l0.875,1.907"/>
<path fill="#2AAAE2" stroke="#2E368F" stroke-width="1.25" stroke-linecap="round" stroke-linejoin="round" stroke-opacity="0.5" d="
	M174.403,122.656l4.958-6.45l1.944-5.137"/>
<path fill="#2AAAE2" stroke="#2E368F" stroke-width="1.25" stroke-linecap="round" stroke-linejoin="round" stroke-opacity="0.5" d="
	M2.021,77.602l1.021,9.548l0.017,0.143l0.537,1.316l2.79,6.851l2.026,6.082"/>
<path fill="#2AAAE2" stroke="#2E368F" stroke-width="1.25" stroke-linecap="round" stroke-linejoin="round" stroke-opacity="0.5" d="
	M186.777,52.934l0.613-3.35l0.048-0.263l0.199-1.085l0.053-0.289l0.639-3.49l0.451-2.467l3.523-12.388l-0.116-5.219l-5.501-15.027
	l-4.485-4.711l-11.85-0.604l-9.432-3.001l-6.863,0.04l-3.099,0.018"/>
<path fill="#2AAAE2" stroke="#2E368F" stroke-width="1.25" stroke-linecap="round" stroke-linejoin="round" stroke-opacity="0.5" d="
	M182.328,95.188l0.729-3.208l0.443-1.957l0.849-6.634"/>
<path fill="#2AAAE2" stroke="#2E368F" stroke-width="1.25" stroke-linecap="round" stroke-linejoin="round" stroke-opacity="0.5" d="
	M8.774,107.95l0.088,0.785l0.034,0.311l0.171,1.521l0.145,1.282"/>
<path fill="#2AAAE2" stroke="#2E368F" stroke-width="1.25" stroke-linecap="round" stroke-linejoin="round" stroke-opacity="0.5" d="
	M13.141,123.124l2.146,7.02l3.38,6.292l0.898,1.865"/>
<path fill="#2AAAE2" stroke="#2E368F" stroke-width="1.25" stroke-linecap="round" stroke-linejoin="round" stroke-opacity="0.5" d="
	M187.42,51.472l0.271-3.523"/>
<path fill="#2AAAE2" stroke="#2E368F" stroke-width="1.25" stroke-linecap="round" stroke-linejoin="round" stroke-opacity="0.5" d="
	M6.903,100.459l0.429,2.555l0.853,5.063l0.884,2.489"/>
<path fill="#2AAAE2" stroke="#2E368F" stroke-width="1.25" stroke-linecap="round" stroke-linejoin="round" stroke-opacity="0.5" d="
	M80.852,11.393l-5.542,0.196l-4.967,0.175L56.75,14.889l-10.468,2.029l-10.728,1.053l-10.775,1.871l-13.063,3.425L5.682,34.755
	L3.17,41.283l-0.851,8.694l0.22,7.363l0.039,1.281l-0.963,8.454"/>
<path fill="#2AAAE2" stroke="#2E368F" stroke-width="1.25" stroke-linecap="round" stroke-linejoin="round" stroke-opacity="0.5" d="
	M3.595,88.608l1.229,3.255l1.732,8.078l0.773,3.072"/>
<path fill="#2AAAE2" stroke="#2E368F" stroke-width="1.25" stroke-linecap="round" stroke-linejoin="round" stroke-opacity="0.5" d="
	M182.611,95.727l0.445-3.746"/>
<path fill="#2AAAE2" stroke="#2E368F" stroke-width="1.25" stroke-linecap="round" stroke-linejoin="round" stroke-opacity="0.5" d="
	M154.057,1.081l-1.835-0.456L140.935,0.7l-9.752,3.73l-1.045,0.221l-8.813,1.869"/>
<path fill="#2AAAE2" stroke="#2E368F" stroke-width="1.25" stroke-linecap="round" stroke-linejoin="round" stroke-opacity="0.5" d="
	M2.541,57.342l-1.235,5.287L0.625,75.327l1.103,8.345l1.314,3.478"/>
<path fill="#2AAAE2" stroke="#2E368F" stroke-width="1.25" stroke-linecap="round" stroke-linejoin="round" stroke-opacity="0.5" d="
	M187.383,56.23l1.148-5.833l-0.203-5.939"/>
<path fill="#2AAAE2" stroke="#2E368F" stroke-width="1.25" stroke-linecap="round" stroke-linejoin="round" stroke-opacity="0.5" d="
	M130.138,4.652l-9.318,0.281l-11.105-0.324L98.738,5.675L87.862,7.173l-9.991,3.571l-2.562,0.845"/>
</svg>
