<?xml version="1.0" encoding="utf-8"?>
<!-- Generator: Adobe Illustrator 16.0.0, SVG Export Plug-In . SVG Version: 6.00 Build 0)  -->
<!DOCTYPE svg PUBLIC "-//W3C//DTD SVG 1.1//EN" "http://www.w3.org/Graphics/SVG/1.1/DTD/svg11.dtd">
<svg version="1.1" id="Layer_1" xmlns="http://www.w3.org/2000/svg" xmlns:xlink="http://www.w3.org/1999/xlink" x="0px" y="0px"
	 width="187.865px" height="187.775px" viewBox="0 0 187.865 187.775" enable-background="new 0 0 187.865 187.775"
	 xml:space="preserve">
<path fill="#2AAAE2" stroke="#2E368F" stroke-miterlimit="10" d="M27.769,145.397l3.975,6.325l5.055,6.282l9.345,12.324
	l11.46,11.817l5.026,5.004l5.587-0.364l0.32,0.199l9.581-0.809l8.314-1.008l0.039-0.007l0.997-0.092l6.325-0.591l6.235-0.796
	l6.266-1.114l4.728-0.529l6.34-0.067l3.604-0.788l6.234-1.154l1.977-0.81l5.954-0.625l1.669-0.932l5.536-0.188l6.811-2.177
	l7.061-1.171l7.989-2.409l7.184-6.689l3.354-7.977l1.015-7.005l1.363-4.849l0.846-1.613l1.966-6.586l0.885-6.523l-0.312-2.808
	l0.774-5.382l0.636-6.472l2.475-9.195l1.604-10.915l1.255-8.101l-1.208-6.497l-0.517-5.101l-0.05-1.713l-1.556-5.201l-2.461-6.722
	l-7.374-8.756l-1.92-2.927l-7.567-4.613l-6.793-3.107l-6.8-1.536l-6.301-2.697l-7.197-1.415l-6.73-1.104l-6.455-1.547l-2.781-0.46
	l-3.621-4.55l-4.807-2.893l-0.316-0.481l-2.772-3.783l-5.097-3.421l-5.018-6.248l-6.036-3.758l-6.822-1.822l-6.756-4.494
	L70.23,0.622L59.241,4.987L54.4,8.105l-11.274,6.586l-3.612,2.688l-0.63,0.416l-0.256,0.243l-1.779,1.325l-6.973,3.47L23.6,27.349
	l-7.413,4.336l-1.482,2.364l-0.529,0.342l-6.614,6.023l-6.936,9.508l1.142,12.973l0.729,3.458l4.691,12.17l0.376,1.058l0.038,0.188
	l0.444,5.563l-0.154,5.245L5.7,94.594l-1.602,9.643l0.485,1.272l-0.083,0.418l0.991,1.975l1.54,4.044l7.585,14.04l7.242,13.887
	L27.769,145.397z"/>
<path fill="#2AAAE2" stroke="#2E368F" stroke-width="1.25" stroke-linecap="round" stroke-linejoin="round" stroke-opacity="0.5" d="
	M67.334,2.891l-5.367,2.265l-6.013,2.537l-2.423,1.295l-1.974,1.055l-4.863,2.601l-7.183,4.739l-0.63,0.416l-0.255,0.243
	l-4.19,3.988l-0.544,0.517l-2.352,2.238"/>
<path fill="#2AAAE2" stroke="#2E368F" stroke-width="1.25" stroke-linecap="round" stroke-linejoin="round" stroke-opacity="0.5" d="
	M78.126,6.137L67.334,2.892l-4.199,1.09L61.77,4.335l-2.528,0.656"/>
<path fill="#2AAAE2" stroke="#2E368F" stroke-width="1.25" stroke-linecap="round" stroke-linejoin="round" stroke-opacity="0.5" d="
	M34.438,22.029l-6.52,3.795"/>
<path fill="#2AAAE2" stroke="#2E368F" stroke-width="1.25" stroke-linecap="round" stroke-linejoin="round" stroke-opacity="0.5" d="
	M21.255,29.839l-6.553,4.213l-0.529,0.343l-6.612,6.02l-6.936,9.508l1.142,12.973l0.729,3.458l4.691,12.17l0.376,1.058l0.962,2.706"
	/>
<path fill="#2AAAE2" stroke="#2E368F" stroke-width="1.25" stroke-linecap="round" stroke-linejoin="round" stroke-opacity="0.5" d="
	M106.677,21.277l-1.76-2.193l-5.019-6.248l-6.036-3.758l-6.821-1.822l-6.757-4.494L70.229,0.625L59.24,4.99l-4.396,2.891
	L54.75,7.944l-3.192,2.099"/>
<path fill="#2AAAE2" stroke="#2E368F" stroke-width="1.25" stroke-linecap="round" stroke-linejoin="round" stroke-opacity="0.5" d="
	M142.681,81.028l-0.686-9.217l-1.571-5.772l-0.873-3.205l-0.123-0.449l-0.147-0.914l-0.041-0.25l-0.159-0.994l-0.304-1.881
	l-0.458-2.841l-0.191-1.192l-0.104-0.644l-0.013-0.078l-0.144-0.881l-5.471-7.438l-5.34-5.083l-4.762-5.018l-0.766-0.96l-3.621-4.55
	l-4.807-2.893"/>
<path fill="#2AAAE2" stroke="#2E368F" stroke-width="1.25" stroke-linecap="round" stroke-linejoin="round" stroke-opacity="0.5" d="
	M59.241,4.99L54.4,8.108l-11.273,6.586l-3.613,2.688"/>
<path fill="#2AAAE2" stroke="#2E368F" stroke-width="1.25" stroke-linecap="round" stroke-linejoin="round" stroke-opacity="0.5" d="
	M116.107,31.325l-3.005-4.556l-0.316-0.481l-2.772-3.783l-5.096-3.421"/>
<path fill="#2AAAE2" stroke="#2E368F" stroke-width="1.25" stroke-linecap="round" stroke-linejoin="round" stroke-opacity="0.5" d="
	M38.628,18.041l-1.78,1.325l-6.972,3.47l-6.277,4.517l-7.413,4.336l-1.482,2.363"/>
<path fill="#2AAAE2" stroke="#2E368F" stroke-width="1.25" stroke-linecap="round" stroke-linejoin="round" stroke-opacity="0.5" d="
	M23.285,121.705l4.651,4.482l0.101,0.097l0.059,0.055l0.01,0.016l0.653,0.995l2.607,3.976l3.249,3.176l2.942,3.51l6.865,6.336
	l8.023,9.442l2.902,2.925l0.178,0.182l3.337,3.361l6.783,5.543"/>
<path fill="#2AAAE2" stroke="#2E368F" stroke-width="1.25" stroke-linecap="round" stroke-linejoin="round" stroke-opacity="0.5" d="
	M144.264,85.291l-1.028-7.878l-0.355-2.563l-1.624-7.762l-1.704-4.256"/>
<path fill="#2AAAE2" stroke="#2E368F" stroke-width="1.25" stroke-linecap="round" stroke-linejoin="round" stroke-opacity="0.5" d="
	M55.35,156.713l3.905,5.732"/>
<path fill="#2AAAE2" stroke="#2E368F" stroke-width="1.25" stroke-linecap="round" stroke-linejoin="round" stroke-opacity="0.5" d="
	M144.545,78.659l-1.763-7.149l-1.009-3.761l-2.535-6.528"/>
<path fill="#2AAAE2" stroke="#2E368F" stroke-width="1.25" stroke-linecap="round" stroke-linejoin="round" stroke-opacity="0.5" d="
	M58.34,164.738l10.134,14.868l0.112,0.164l0.229,0.066l9.626,2.853"/>
<path fill="#2AAAE2" stroke="#2E368F" stroke-width="1.25" stroke-linecap="round" stroke-linejoin="round" stroke-opacity="0.5" d="
	M141.414,62.498l-2.638-4.152"/>
<path fill="#2AAAE2" stroke="#2E368F" stroke-width="1.25" stroke-linecap="round" stroke-linejoin="round" stroke-opacity="0.5" d="
	M7.563,79.579l0.038,0.188l0.444,5.563l-0.154,5.245l-0.026,0.873l-0.397,2.67L7.34,94.961l-0.078,0.526L6.942,97.62l-0.104,0.693
	l-0.168,0.943l-0.086,0.489l-1.228,6.911l-0.043,0.24l-0.02,0.113"/>
<path fill="#2AAAE2" stroke="#2E368F" stroke-width="1.25" stroke-linecap="round" stroke-linejoin="round" stroke-opacity="0.5" d="
	M22.663,122.79l4.987,3.518l1.107,1.043"/>
<path fill="#2AAAE2" stroke="#2E368F" stroke-width="1.25" stroke-linecap="round" stroke-linejoin="round" stroke-opacity="0.5" d="
	M61.968,175.177l7.273,5.527l6.693,4.075l1.056,0.643l0.228,0.139l0.026,0.017"/>
<path fill="#2AAAE2" stroke="#2E368F" stroke-width="1.25" stroke-linecap="round" stroke-linejoin="round" stroke-opacity="0.5" d="
	M145.577,62.461l-5.231-6.856l-2.219-1.292"/>
<path fill="#2AAAE2" stroke="#2E368F" stroke-width="1.25" stroke-linecap="round" stroke-linejoin="round" stroke-opacity="0.5" d="
	M61.705,178.342l5.547,5.322l0.837,0.805l0.019,0.02l0.137,0.016l8.48,1.012l0.435,0.053l0.087,0.01h0.016l0.47-0.021l5.844-0.258
	l2.803-0.124l0.057-0.002l0.039-0.007l7.088-1.159"/>
<path fill="#2AAAE2" stroke="#2E368F" stroke-width="1.25" stroke-linecap="round" stroke-linejoin="round" stroke-opacity="0.5" d="
	M149.567,61.795l-0.815-0.871l-5.022-5.349l-5.719-1.984"/>
<path fill="#2AAAE2" stroke="#2E368F" stroke-width="1.25" stroke-linecap="round" stroke-linejoin="round" stroke-opacity="0.5" d="
	M68.106,184.487l0.27,0.045l7.159,1.211l0.107,0.018l1.516,0.258l0.05,0.008l0.067,0.012l0.842,0.143l8.314-1.009"/>
<path fill="#2AAAE2" stroke="#2E368F" stroke-width="1.25" stroke-linecap="round" stroke-linejoin="round" stroke-opacity="0.5" d="
	M6.197,97.391l-0.381,4.058l-0.057,0.61l-0.428,4.552l-0.025,0.271l-0.012,0.132l0.42,0.88l1.134,2.37l1.575,3.29L8.78,114.3
	l0.275,0.576l-0.376-0.74l-0.251-0.489l-0.361-0.71l-2.604-5.12l-0.962-1.891"/>
<path fill="#2AAAE2" stroke="#2E368F" stroke-width="1.25" stroke-linecap="round" stroke-linejoin="round" stroke-opacity="0.5" d="
	M152.725,69.206l-3.157-7.411l-2.857-5.167l-0.152-0.273l6.439,4.895"/>
<path fill="#2AAAE2" stroke="#2E368F" stroke-width="1.25" stroke-linecap="round" stroke-linejoin="round" stroke-opacity="0.5" d="
	M9.057,114.877l0.379,0.485l1.31,1.677l2.976,3.807"/>
<path fill="#2AAAE2" stroke="#2E368F" stroke-width="1.25" stroke-linecap="round" stroke-linejoin="round" stroke-opacity="0.5" d="
	M7.466,94.119l-1.27,3.271l-1.563,7.872l-0.021,0.1l-0.027,0.146l-0.083,0.418l0.991,1.975l2.943,5.842l0.244,0.395"/>
<path fill="#2AAAE2" stroke="#2E368F" stroke-width="1.25" stroke-linecap="round" stroke-linejoin="round" stroke-opacity="0.5" d="
	M86.471,185.164l0.997-0.092l6.325-0.591l6.235-0.796l6.266-1.114l4.728-0.529l6.34-0.066l3.604-0.789l6.234-1.154l1.977-0.81
	l5.954-0.625l1.669-0.932l4.023-2.245"/>
<path fill="#2AAAE2" stroke="#2E368F" stroke-width="1.25" stroke-linecap="round" stroke-linejoin="round" stroke-opacity="0.5" d="
	M146.557,56.354l-3.666-2.53"/>
<path fill="#2AAAE2" stroke="#2E368F" stroke-width="1.25" stroke-linecap="round" stroke-linejoin="round" stroke-opacity="0.5" d="
	M56.685,177.119l4.804,5.506l0.962,0.595l2.283,1.413l3.146,1.945l0.021,0.014l0.315,0.195l0.32,0.199l9.581-0.809"/>
<path fill="#2AAAE2" stroke="#2E368F" stroke-width="1.25" stroke-linecap="round" stroke-linejoin="round" stroke-opacity="0.5" d="
	M136.8,177.666l5.536-0.188l6.811-2.177l7.061-1.171l7.989-2.409l7.184-6.689l3.354-7.977l1.015-7.005l1.363-4.849l0.468-1.665"/>
<path fill="#2AAAE2" stroke="#2E368F" stroke-width="1.25" stroke-linecap="round" stroke-linejoin="round" stroke-opacity="0.5" d="
	M4.099,104.235l0.514,1.127"/>
<path fill="#2AAAE2" stroke="#2E368F" stroke-width="1.25" stroke-linecap="round" stroke-linejoin="round" stroke-opacity="0.5" d="
	M9.436,115.362l2.773,4.495"/>
<path fill="#2AAAE2" stroke="#2E368F" stroke-width="1.25" stroke-linecap="round" stroke-linejoin="round" stroke-opacity="0.5" d="
	M7.891,90.576L5.7,94.594l-1.602,9.643l0.485,1.272"/>
<path fill="#2AAAE2" stroke="#2E368F" stroke-width="1.25" stroke-linecap="round" stroke-linejoin="round" stroke-opacity="0.5" d="
	M177.111,145.203l0.847-1.613l1.965-6.586l0.885-6.523l-0.311-2.808l-0.397-3.596"/>
<path fill="#2AAAE2" stroke="#2E368F" stroke-width="1.25" stroke-linecap="round" stroke-linejoin="round" stroke-opacity="0.5" d="
	M5.493,107.9l1.54,4.044l7.585,14.04l7.242,13.887l5.908,5.526l3.975,6.325l5.055,6.282l9.345,12.324l11.46,11.817l5.026,5.004
	l5.587-0.364"/>
<path fill="#2AAAE2" stroke="#2E368F" stroke-width="1.25" stroke-linecap="round" stroke-linejoin="round" stroke-opacity="0.5" d="
	M185.377,87.211l0.286-6.091l-0.147-5.108l-0.05-1.713l-1.556-5.2l-2.461-6.723l-7.374-8.756l-0.407-0.485"/>
<path fill="#2AAAE2" stroke="#2E368F" stroke-width="1.25" stroke-linecap="round" stroke-linejoin="round" stroke-opacity="0.5" d="
	M180.496,127.673l0.774-5.382l0.636-6.472l2.475-9.195l1.604-10.915l1.255-8.101l-1.208-6.497l-0.517-5.101"/>
<path fill="#2AAAE2" stroke="#2E368F" stroke-width="1.25" stroke-linecap="round" stroke-linejoin="round" stroke-opacity="0.5" d="
	M174.076,53.62l-1.92-2.927l-7.567-4.613l-6.793-3.106l-6.8-1.537l-6.301-2.697l-7.197-1.415l-6.73-1.104l-6.455-1.548l-2.781-0.46"
	/>
</svg>
