<?xml version="1.0" encoding="utf-8"?>
<!-- Generator: Adobe Illustrator 16.0.0, SVG Export Plug-In . SVG Version: 6.00 Build 0)  -->
<!DOCTYPE svg PUBLIC "-//W3C//DTD SVG 1.1//EN" "http://www.w3.org/Graphics/SVG/1.1/DTD/svg11.dtd">
<svg version="1.1" id="Layer_1" xmlns="http://www.w3.org/2000/svg" xmlns:xlink="http://www.w3.org/1999/xlink" x="0px" y="0px"
	 width="250.442px" height="191.812px" viewBox="0 0 250.442 191.812" enable-background="new 0 0 250.442 191.812"
	 xml:space="preserve">
<path fill="#2AAAE2" stroke="#2E368F" stroke-miterlimit="10" d="M53.834,14.946l-5.855,7.193l-2.373,3.128l-0.564,0.366
	l-1.943,0.625l-3.015,3.651l-2.838,3.061l-7.146,4.396l-4.883,6.236l-5.604,6.552l-5.341,7.005l-0.988,6.772l-1.011,1.628
	l-0.543,7.519l-0.229,0.642l-3.813,8.904l-6.692,8.075l-0.368,9.553l4.078,7.973l2.805,6.955l0.659,8.986l-0.816,5.309l0.671,5.897
	l2.646,4.3l3.291,2.595l0.812,4.202l2.521,0.608l1.742,3.611l2.659,1.137l2.524,2.853l4.317,2.411l3.104,2.976l1.299,2.229
	l1.664,2.248l0.839,1.457l1.788,2.692l1.492,2.172l3.582,3.818l4.524,1.645l3.833-0.73l4.529,1.387l5.853,0.814l3.158,0.337
	l5.835,2.058l4.698,2.193l2.729-0.045l2.698,1.052l3.491,3.142l3.795-2.053l1.007,0.642l3.337,2.523l3.768-1.806l3.184,0.341
	l3.519-0.73l5.183,0.257l2.061,3.402l3.757,1.807l4.422-0.076l2.852,0.35l4.376-1.205l5.154-1.03l4.549-1.377l1.472-0.056
	l6.237-1.403l7.21,2.479l6.768-1.477l6.937-0.046l6.41-3.66l4.348-0.74l6.858-2.209l6.48-0.868l5.345-2.571l2.342-4.008l2.6-1.218
	l0.496-1.463l4.347-0.996l5.551-4.615l0.832-1.181l2.35-0.633l6.018-4.126l3.865-7.115l2.84-5.082l6.276-5.792l3.865-8.492
	l4.821-3.506l2.161-4.074l4.609-8.854l-0.562-10.271l2.064-12.696l-4.239-12.847l6.909-12.608l-4.522-11.43l-1.358-11.729
	l-2.104-11.662l0.308-11.698l-1.859-8.441l-9.094-7.41l-21.614-1.734l-2.497,0.085l-6.873-2.802l-19.979,5.201l-12.05-0.103
	l-16.48,1.256l-16.521,0.5L118.943,6.68L103.507,10.2l-14.91,2.597L75.45,10.614l-11.939,0.896L53.834,14.946z"/>
<path fill="#2AAAE2" stroke="#2E368F" stroke-width="1.25" stroke-linecap="round" stroke-linejoin="round" stroke-opacity="0.5" d="
	M148.041,28.764l0.324-0.134l2.103-0.864l5.915-2.433l0.851-0.364l0.474-0.203l8.138-3.479"/>
<path fill="#2AAAE2" stroke="#2E368F" stroke-width="1.25" stroke-linecap="round" stroke-linejoin="round" stroke-opacity="0.5" d="
	M137.562,32.004l-6.963,6.059l-5.275,3.142l-3.206,1.909l-14.621,13.646l-0.401,0.376l-4.256,3.201l-4.293,3.227l6.342-5.169"/>
<path fill="#2AAAE2" stroke="#2E368F" stroke-width="1.25" stroke-linecap="round" stroke-linejoin="round" stroke-opacity="0.5" d="
	M98.546,63.563l-0.827,0.811l-0.414,0.404L84.674,77.09l-4.813,9.646"/>
<path fill="#2AAAE2" stroke="#2E368F" stroke-width="1.25" stroke-linecap="round" stroke-linejoin="round" stroke-opacity="0.5" d="
	M120.538,182.16l-0.01-0.067l-0.732-4.767"/>
<path fill="#2AAAE2" stroke="#2E368F" stroke-width="1.25" stroke-linecap="round" stroke-linejoin="round" stroke-opacity="0.5" d="
	M173.236,21.871l-7.394-0.586l-6.778,1.287l-2.069,0.393l-1.315,0.25l-1.279,0.243l-7.633,1.45l-0.397,0.075l-1.859,0.354
	l-2.135,1.277l-8.099,4.848l-0.068,0.04l-0.459,0.275l-2.166,1.511l-5.285,3.684l-1.461,1.563l-0.366,0.391l-3.693,3.943
	l-9.204,9.822"/>
<path fill="#2AAAE2" stroke="#2E368F" stroke-width="1.25" stroke-linecap="round" stroke-linejoin="round" stroke-opacity="0.5" d="
	M118.744,181.265l1.794,0.896l3.075,2.256"/>
<path fill="#2AAAE2" stroke="#2E368F" stroke-width="1.25" stroke-linecap="round" stroke-linejoin="round" stroke-opacity="0.5" d="
	M173.236,21.871l9.473-3.03"/>
<path fill="#2AAAE2" stroke="#2E368F" stroke-width="1.25" stroke-linecap="round" stroke-linejoin="round" stroke-opacity="0.5" d="
	M118.595,41.032l-3.896,2.983l-2.675,2.053l3.81-2.612l0.188-0.128l4.442-3.044l2.266-1.556l7.037-4.438l3.981-2.514"/>
<path fill="#2AAAE2" stroke="#2E368F" stroke-width="1.25" stroke-linecap="round" stroke-linejoin="round" stroke-opacity="0.5" d="
	M113.716,181.858l1.712,0.952l4.061,3.159l0.775,1.189"/>
<path fill="#2AAAE2" stroke="#2E368F" stroke-width="1.25" stroke-linecap="round" stroke-linejoin="round" stroke-opacity="0.5" d="
	M90.745,66.415l-5.023,5.976l-7.977,9.973"/>
<path fill="#2AAAE2" stroke="#2E368F" stroke-width="1.25" stroke-linecap="round" stroke-linejoin="round" stroke-opacity="0.5" d="
	M112.025,46.068l-9.669,9.229"/>
<path fill="#2AAAE2" stroke="#2E368F" stroke-width="1.25" stroke-linecap="round" stroke-linejoin="round" stroke-opacity="0.5" d="
	M187.168,14.679l-8.068,1.127l-8.552,1.263l-3.689,1.46l-0.111,0.044l-1.419,0.562l-3.555,1.407l-7.373,2.918"/>
<path fill="#2AAAE2" stroke="#2E368F" stroke-width="1.25" stroke-linecap="round" stroke-linejoin="round" stroke-opacity="0.5" d="
	M95.376,158.974l1.31,6.892l2.409,6.214l1.578,2.692"/>
<path fill="#2AAAE2" stroke="#2E368F" stroke-width="1.25" stroke-linecap="round" stroke-linejoin="round" stroke-opacity="0.5" d="
	M120.464,40.284l-1.869,0.748l-11.394,6.88l-0.166,0.1"/>
<path fill="#2AAAE2" stroke="#2E368F" stroke-width="1.25" stroke-linecap="round" stroke-linejoin="round" stroke-opacity="0.5" d="
	M166.857,18.527l-0.718,0.158l-4.367,1.854"/>
<path fill="#2AAAE2" stroke="#2E368F" stroke-width="1.25" stroke-linecap="round" stroke-linejoin="round" stroke-opacity="0.5" d="
	M134.276,31.462l-1.366,0.451l-1.691,0.788l-18.136,8.436l-0.645,0.3l-10.188,9.813"/>
<path fill="#2AAAE2" stroke="#2E368F" stroke-width="1.25" stroke-linecap="round" stroke-linejoin="round" stroke-opacity="0.5" d="
	M132.86,187.637l1.749-0.063l1.472-0.056l6.237-1.403l7.21,2.479l6.768-1.477l6.937-0.046l6.41-3.66l4.348-0.74l6.858-2.209
	l6.48-0.868l5.345-2.571l2.342-4.008"/>
<path fill="#2AAAE2" stroke="#2E368F" stroke-width="1.25" stroke-linecap="round" stroke-linejoin="round" stroke-opacity="0.5" d="
	M142.375,26.614l-2.472,1.01l-8.686,5.077"/>
<path fill="#2AAAE2" stroke="#2E368F" stroke-width="1.25" stroke-linecap="round" stroke-linejoin="round" stroke-opacity="0.5" d="
	M191.034,174.882l3.98-1.866l2.6-1.218l0.496-1.463l2.197-6.481"/>
<path fill="#2AAAE2" stroke="#2E368F" stroke-width="1.25" stroke-linecap="round" stroke-linejoin="round" stroke-opacity="0.5" d="
	M181.046,10.005l-1.796,0.87l-5.686,2.755l-12.414,6.207"/>
<path fill="#2AAAE2" stroke="#2E368F" stroke-width="1.25" stroke-linecap="round" stroke-linejoin="round" stroke-opacity="0.5" d="
	M112.88,39.558l-6.73,3.421l-11.166,8.359"/>
<path fill="#2AAAE2" stroke="#2E368F" stroke-width="1.25" stroke-linecap="round" stroke-linejoin="round" stroke-opacity="0.5" d="
	M195.761,6.307l-3.042,0.104l-4.388,0.146l-2.979,1.232l-10.216,4.223l-7.104,3.127l-18.192,8.309l-2.469,1.127l-1.002,0.408"/>
<path fill="#2AAAE2" stroke="#2E368F" stroke-width="1.25" stroke-linecap="round" stroke-linejoin="round" stroke-opacity="0.5" d="
	M56.04,81.626l-6.339,5.196l-7.713,8.646"/>
<path fill="#2AAAE2" stroke="#2E368F" stroke-width="1.25" stroke-linecap="round" stroke-linejoin="round" stroke-opacity="0.5" d="
	M198.11,170.335l4.347-0.996l5.551-4.615l0.832-1.181l3.776-5.361"/>
<path fill="#2AAAE2" stroke="#2E368F" stroke-width="1.25" stroke-linecap="round" stroke-linejoin="round" stroke-opacity="0.5" d="
	M67.968,176.527l3.48,1.021l3.153,0.989l2.352,1.955l4.355,1.559l4.124,1.148l2.013,1.278l1.007,0.642l3.337,2.523l3.768-1.806
	l3.184,0.341l3.519-0.73l5.183,0.257l2.061,3.402l3.757,1.807l4.422-0.076l2.852,0.35l4.376-1.205l5.154-1.03l4.549-1.377"/>
<path fill="#2AAAE2" stroke="#2E368F" stroke-width="1.25" stroke-linecap="round" stroke-linejoin="round" stroke-opacity="0.5" d="
	M221.648,148.242l6.321-7.863l1.908-5.041l4.175-3.035l4.821-3.506l2.161-4.074l4.609-8.854l-0.562-10.271l2.064-12.696
	l-4.239-12.847l6.909-12.608l-4.522-11.43l-1.358-11.729l-2.104-11.662l0.308-11.698l-1.859-8.441l-3.341-1.228l-12.512-4.492
	l-6.496-0.566l-5.128-0.438l-10.011-0.854l-0.544,0.059l-19.886,2.146l-1.253,0.135l-13.955,5.155"/>
<path fill="#2AAAE2" stroke="#2E368F" stroke-width="1.25" stroke-linecap="round" stroke-linejoin="round" stroke-opacity="0.5" d="
	M208.839,163.543l2.35-0.633l6.017-4.126l3.866-7.115l2.84-5.082l6.276-5.792l3.864-8.492"/>
<path fill="#2AAAE2" stroke="#2E368F" stroke-width="1.25" stroke-linecap="round" stroke-linejoin="round" stroke-opacity="0.5" d="
	M240.281,12.486l-9.094-7.41L211.25,3.476l-1.678-0.135l-2.497,0.085l-12.589,0.428"/>
<path fill="#2AAAE2" stroke="#2E368F" stroke-width="1.25" stroke-linecap="round" stroke-linejoin="round" stroke-opacity="0.5" d="
	M16.487,125.515l-2.176,5.42l-0.225,0.558l0.26,2.909"/>
<path fill="#2AAAE2" stroke="#2E368F" stroke-width="1.25" stroke-linecap="round" stroke-linejoin="round" stroke-opacity="0.5" d="
	M207.076,3.427l-6.873-2.802L180.85,5.663l-0.626,0.163l-1.349,0.351l-16.15,0.946l-19.559,4.188l-2.821,0.605l-15.289,3.079"/>
<path fill="#2AAAE2" stroke="#2E368F" stroke-width="1.25" stroke-linecap="round" stroke-linejoin="round" stroke-opacity="0.5" d="
	M12.102,137.336l1.798,4.62l0.061,0.311l0.811,4.202l2.521,0.608l1.801,0.434"/>
<path fill="#2AAAE2" stroke="#2E368F" stroke-width="1.25" stroke-linecap="round" stroke-linejoin="round" stroke-opacity="0.5" d="
	M18.933,72.766l-5.859,6.909l-2.017,3.173l-0.22,0.349l-1.016,1.595"/>
<path fill="#2AAAE2" stroke="#2E368F" stroke-width="1.25" stroke-linecap="round" stroke-linejoin="round" stroke-opacity="0.5" d="
	M180.223,5.826l-12.05-0.103l-16.48,1.256l-16.521,0.5l-16.234-0.802l-15.438,3.521l-14.91,2.597l-13.146-2.183l-11.94,0.896
	l-9.668,3.438l-5.856,7.193l-2.373,3.128l-0.187,0.244l-0.62,0.82l-1.029,1.354l-9.323,12.042"/>
<path fill="#2AAAE2" stroke="#2E368F" stroke-width="1.25" stroke-linecap="round" stroke-linejoin="round" stroke-opacity="0.5" d="
	M8.185,114.074l0.097,3.024l0.169,5.229l-0.283,1.839l-0.816,5.309l0.671,5.897l2.646,4.3l3.291,2.595"/>
<path fill="#2AAAE2" stroke="#2E368F" stroke-width="1.25" stroke-linecap="round" stroke-linejoin="round" stroke-opacity="0.5" d="
	M17.29,147.077l1.742,3.61l2.659,1.138"/>
<path fill="#2AAAE2" stroke="#2E368F" stroke-width="1.25" stroke-linecap="round" stroke-linejoin="round" stroke-opacity="0.5" d="
	M18.801,63.979l-5.876,7.358l-0.357,0.597l-0.27,0.449l-0.435,0.729l-0.158,0.263l-0.207,0.347l-3.813,8.904L0.993,90.7
	l-0.368,9.553l4.078,7.973l2.804,6.955l0.774,1.92"/>
<path fill="#2AAAE2" stroke="#2E368F" stroke-width="1.25" stroke-linecap="round" stroke-linejoin="round" stroke-opacity="0.5" d="
	M23.564,47.223l-4.491,6.805l-0.771,1.891l-3.647,8.949l-2.228,6.248l-0.445,1.251l-0.255,0.713l-0.229,0.642"/>
<path fill="#2AAAE2" stroke="#2E368F" stroke-width="1.25" stroke-linecap="round" stroke-linejoin="round" stroke-opacity="0.5" d="
	M79.811,183.077l0.35,0.313l3.491,3.142l3.795-2.053"/>
<path fill="#2AAAE2" stroke="#2E368F" stroke-width="1.25" stroke-linecap="round" stroke-linejoin="round" stroke-opacity="0.5" d="
	M21.367,151.459l0.324,0.366l2.524,2.853l4.317,2.411l3.104,2.975l0.859,0.825l2.104,3.652l0.839,1.457l1.788,2.692l1.492,2.172
	l3.583,3.818l4.523,1.645l3.833-0.73"/>
<path fill="#2AAAE2" stroke="#2E368F" stroke-width="1.25" stroke-linecap="round" stroke-linejoin="round" stroke-opacity="0.5" d="
	M45.04,25.635l-1.943,0.625l-3.015,3.651"/>
<path fill="#2AAAE2" stroke="#2E368F" stroke-width="1.25" stroke-linecap="round" stroke-linejoin="round" stroke-opacity="0.5" d="
	M45.604,25.269l-0.564,0.366l-2.489,1.614l-2.469,2.662l-2.838,3.061l-7.146,4.396l-4.884,6.236l-5.604,6.552L14.27,57.16
	l-0.988,6.772"/>
<path fill="#2AAAE2" stroke="#2E368F" stroke-width="1.25" stroke-linecap="round" stroke-linejoin="round" stroke-opacity="0.5" d="
	M27.408,44.194l-5.98,4.646l-4.226,8.778l-3.921,6.313l-1.011,1.628l-0.543,7.519"/>
<path fill="#2AAAE2" stroke="#2E368F" stroke-width="1.25" stroke-linecap="round" stroke-linejoin="round" stroke-opacity="0.5" d="
	M7.507,115.18l0.659,8.986"/>
<path fill="#2AAAE2" stroke="#2E368F" stroke-width="1.25" stroke-linecap="round" stroke-linejoin="round" stroke-opacity="0.5" d="
	M50.166,175.444l0.494,0.149l4.529,1.386l5.853,0.815l3.158,0.337l5.835,2.058l4.698,2.193l2.729-0.045l2.698,1.052"/>
<path fill="#2AAAE2" stroke="#2E368F" stroke-width="1.25" stroke-linecap="round" stroke-linejoin="round" stroke-opacity="0.5" d="
	M31.638,160.063l1.299,2.229l1.664,2.248"/>
</svg>
