<?xml version="1.0" encoding="utf-8"?>
<!-- Generator: Adobe Illustrator 16.0.0, SVG Export Plug-In . SVG Version: 6.00 Build 0)  -->
<!DOCTYPE svg PUBLIC "-//W3C//DTD SVG 1.1//EN" "http://www.w3.org/Graphics/SVG/1.1/DTD/svg11.dtd">
<svg version="1.1" id="Layer_1" xmlns="http://www.w3.org/2000/svg" xmlns:xlink="http://www.w3.org/1999/xlink" x="0px" y="0px"
	 width="134.942px" height="133.332px" viewBox="0 0 134.942 133.332" enable-background="new 0 0 134.942 133.332"
	 xml:space="preserve">
<path fill="#2AAAE2" stroke="#2E368F" stroke-miterlimit="10" d="M133.557,88l-0.014-0.028l0.141-4.947l-0.973-4.288l-0.842-3.993
	l0.051-2.869l0.074-0.459l1.203-4.802l-0.82-4.282l-3.246-2.964l-1.762-5.529l-2.91-2.26l0.416-0.533l0.893-2.157l0.855-1.535
	l0.295-0.4l1.115-1.727l0.17-2.058l-0.867-3.32l-2.506-4.447l0.6-2.755l-0.493-2.328l-0.904-3.711l-1.246-3.346l-4.039-4.975
	l-2.881-2.55l-1.215-2.579l-4.49-0.941l-2.54-0.59l-0.662-0.19l-0.572-0.681l-4.221-2.935l-2.305,0.194l-5.723-4.652l-5.664,1.547
	l-1.873,0.603L85.536,5.33l-1.523-0.866l-1.758-1.227l-3.367-1.756l-3.307-0.856L72.16,1.044l-3.216,0.819l-2.172,1.943L66.7,3.819
	l-0.437-0.244l-0.532,0.413l-1.438,0.251L61.68,5.911L60.09,7.94l-4.059,0.399l-2.212,2.012l-1.226,0.287l-2.735,1.505l-3.918,3.706
	l-0.255,3.658l-2.43,3.206l-2.318,2.77l-3.372,1.205l-2.769,3.883l-0.835,0.787l-0.148,0.382l-1.91,1.037l-1.742,4.179l-3.535,1.37
	l-1.706,3.082l-3.452,2.566l-4.864,2.623l-4.801,2.257l-3.816,1.853l-0.782,1.787L4.34,55.818l-1.33,2.42l-0.593,0.534l-0.296,1.083
	l-0.157,0.286l-0.475,2.031l-0.864,3.165l2,4.48l0.076,0.66l1.166,4.66l-0.184,4.779l0.267,3.655l-0.007,0.382l0.127,6.977
	l5.01,3.229l5.234,1.835l3.747-0.633l0.075,0.087l2.415,3.932l2.896,5.62l2.28,0.794l1.232,1.507l1.481,0.937l0.015,0.032
	l5.338,3.384l0.616,0.532l0.687,0.155l1.642,0.462l2.534,1.088l1.06,0.264l2.026,2.421l4.48,0.808l3.151,2.047l2.398,2.892
	l1.012,0.475l4.553,1.747l5.194,5.061l1.144,0.814l8.081,2.288l1.44-0.69l3.158-1.201l4.814,0.908l1.453,0.162l2.689-1.291
	l3.135,0.822l6.934-3.886l3.641-2.569l1.716-0.234l4.407,0.271l4.908,0.507l1.297-0.423l1.015-0.422l1.006-0.212l0.512-0.419
	l1.313-0.546l3.271-2.275l0.856-0.93l3.394-3.036l1.491-1.327l3.35-1.124l3.432-2.119l0.578-0.819l0.522-0.82l0.039-0.449
	l1.459-3.295l0.116-4.96l-1.172-3.462l0.042-0.124l0.14-0.278l0.076-0.349l0.682-4.97L133.557,88z"/>
<path fill="#2AAAE2" stroke="#2E368F" stroke-width="1.25" stroke-linecap="round" stroke-linejoin="round" stroke-opacity="0.5" d="
	M35.201,32.191l-1.941,2.57l-0.793,1.05l-0.454,0.6l-0.007,0.004l-2.739,1.406l-0.306,0.158l-1.854,0.952l-0.322,0.901l-0.214,0.599
	l-1.391,3.893l-2.487,4.88"/>
<path fill="#2AAAE2" stroke="#2E368F" stroke-width="1.25" stroke-linecap="round" stroke-linejoin="round" stroke-opacity="0.5" d="
	M48.68,21.659l-0.933,0.525l-0.005,0.003l-4.195,2.363l-0.651,0.233l-1.959,0.7l-3.372,1.205l-2.769,3.883"/>
<path fill="#2AAAE2" stroke="#2E368F" stroke-width="1.25" stroke-linecap="round" stroke-linejoin="round" stroke-opacity="0.5" d="
	M26.785,39.832l-1.74,1.483l-0.125,0.093l-3.452,2.566l-4.864,2.623l-4.801,2.257l-3.816,1.853l-0.782,1.787l-1.42,3.245
	L3.01,58.238l-0.593,0.534l-0.296,1.083l-0.632,2.317l-0.864,3.165l2,4.48l0.99,2.218l1.808,2.386l0.014,0.018l0.841,1.109"/>
<path fill="#2AAAE2" stroke="#2E368F" stroke-width="1.25" stroke-linecap="round" stroke-linejoin="round" stroke-opacity="0.5" d="
	M77.942,4.411L74.969,3.95l-2.114-0.329l-0.399,0.015l-0.674,0.237l-3.059,1.074l-0.554,0.195l-0.184,0.064L67.58,5.349
	l-0.438,0.154l-0.759,0.266l-3.854,5.36l-0.728,0.573l-0.029,0.023l-0.316,0.248l-0.409,0.322l-0.96,0.756l-1.698,1.337"/>
<path fill="#2AAAE2" stroke="#2E368F" stroke-width="1.25" stroke-linecap="round" stroke-linejoin="round" stroke-opacity="0.5" d="
	M38.2,27.365l-3.404,3.206l-0.835,0.787l-0.148,0.382l-0.171,0.443l-1.457,3.768l-0.179,0.464"/>
<path fill="#2AAAE2" stroke="#2E368F" stroke-width="1.25" stroke-linecap="round" stroke-linejoin="round" stroke-opacity="0.5" d="
	M2.121,59.855l-0.157,0.286l-0.475,2.031"/>
<path fill="#2AAAE2" stroke="#2E368F" stroke-width="1.25" stroke-linecap="round" stroke-linejoin="round" stroke-opacity="0.5" d="
	M7.205,52.494L4.34,55.818l-1.33,2.42"/>
<path fill="#2AAAE2" stroke="#2E368F" stroke-width="1.25" stroke-linecap="round" stroke-linejoin="round" stroke-opacity="0.5" d="
	M8.223,76.042l-0.287,0.58l-0.057,0.115l-2.744,5.541l1.576,3.691l1.294,1.209l3.952,3.23l2.438,1.587"/>
<path fill="#2AAAE2" stroke="#2E368F" stroke-width="1.25" stroke-linecap="round" stroke-linejoin="round" stroke-opacity="0.5" d="
	M108.586,13.369l-1.627-1.933l-0.572-0.681l-4.221-2.935l-2.305,0.194l-0.014,0.001h-0.004l-3.325,0.279L92.713,6.95l-3.859-0.267
	l-1.105-0.076L87.504,6.59l-0.545-0.037l-0.356-0.025l-0.077-0.005l-1.238-0.421l-0.254-0.086l-1.878-0.638l-0.127-0.043
	L80.33,4.418l-0.118-0.04l-0.068,0.001l-2.201,0.032l-3.859,0.057l-0.639,0.009"/>
<path fill="#2AAAE2" stroke="#2E368F" stroke-width="1.25" stroke-linecap="round" stroke-linejoin="round" stroke-opacity="0.5" d="
	M89.665,6.357L87.57,6.508l-0.172,0.013l-0.438,0.032"/>
<path fill="#2AAAE2" stroke="#2E368F" stroke-width="1.25" stroke-linecap="round" stroke-linejoin="round" stroke-opacity="0.5" d="
	M28.858,99.683l0.183,0.015l3.501,0.282l4.554,0.136l0.163,0.004"/>
<path fill="#2AAAE2" stroke="#2E368F" stroke-width="1.25" stroke-linecap="round" stroke-linejoin="round" stroke-opacity="0.5" d="
	M15.812,92.786l1.396,1.6l0.008,0.01l0.018,0.02l0.29,0.332l0.537,0.615l0.075,0.087l0.848,0.971"/>
<path fill="#2AAAE2" stroke="#2E368F" stroke-width="1.25" stroke-linecap="round" stroke-linejoin="round" stroke-opacity="0.5" d="
	M2.625,69.817l0.076,0.66l1.166,4.66l-0.184,4.779l0.267,3.655l0.101,1.381"/>
<path fill="#2AAAE2" stroke="#2E368F" stroke-width="1.25" stroke-linecap="round" stroke-linejoin="round" stroke-opacity="0.5" d="
	M33.642,32.183l-3.481,4.773l-1.2,1.023"/>
<path fill="#2AAAE2" stroke="#2E368F" stroke-width="1.25" stroke-linecap="round" stroke-linejoin="round" stroke-opacity="0.5" d="
	M62.286,7.724L61.622,7.79l-0.547,0.053L60.09,7.94l-4.059,0.399l-2.212,2.012l-2.861,2.602l-3.654,5.392l-1.695,2.482l-0.018,0.026
	l-2.069,3.03l-0.626,0.9"/>
<path fill="#2AAAE2" stroke="#2E368F" stroke-width="1.25" stroke-linecap="round" stroke-linejoin="round" stroke-opacity="0.5" d="
	M118.316,22.624l-1.423-1.427l-1.582-1.586l-2.27-2.274"/>
<path fill="#2AAAE2" stroke="#2E368F" stroke-width="1.25" stroke-linecap="round" stroke-linejoin="round" stroke-opacity="0.5" d="
	M99.862,8.014l-5.723-4.652l-5.664,1.547l-1.873,0.603l-0.506,0.162l-0.032,0.011l-0.817,0.263l-0.213,0.068"/>
<path fill="#2AAAE2" stroke="#2E368F" stroke-width="1.25" stroke-linecap="round" stroke-linejoin="round" stroke-opacity="0.5" d="
	M18.136,95.449l2.415,3.932l1.264,1.929l1.703,1.785l2.209,2.316"/>
<path fill="#2AAAE2" stroke="#2E368F" stroke-width="1.25" stroke-linecap="round" stroke-linejoin="round" stroke-opacity="0.5" d="
	M115.311,19.611l-2.98-5.166l-3.744-1.076l-1.355-0.389"/>
<path fill="#2AAAE2" stroke="#2E368F" stroke-width="1.25" stroke-linecap="round" stroke-linejoin="round" stroke-opacity="0.5" d="
	M16.939,94.396l0.585,0.352"/>
<path fill="#2AAAE2" stroke="#2E368F" stroke-width="1.25" stroke-linecap="round" stroke-linejoin="round" stroke-opacity="0.5" d="
	M30.161,36.956l-3.535,1.37l-1.706,3.082"/>
<path fill="#2AAAE2" stroke="#2E368F" stroke-width="1.25" stroke-linecap="round" stroke-linejoin="round" stroke-opacity="0.5" d="
	M94.413,65.265l2.715-3.887l4.272-5.146"/>
<path fill="#2AAAE2" stroke="#2E368F" stroke-width="1.25" stroke-linecap="round" stroke-linejoin="round" stroke-opacity="0.5" d="
	M33.813,31.74l-1.91,1.037l-1.742,4.179"/>
<path fill="#2AAAE2" stroke="#2E368F" stroke-width="1.25" stroke-linecap="round" stroke-linejoin="round" stroke-opacity="0.5" d="
	M3.95,83.572l-0.007,0.382l0.127,6.977l5.01,3.229l5.234,1.835l3.747-0.633"/>
<path fill="#2AAAE2" stroke="#2E368F" stroke-width="1.25" stroke-linecap="round" stroke-linejoin="round" stroke-opacity="0.5" d="
	M80.143,4.379l-4.352-0.91L74.969,3.95"/>
<path fill="#2AAAE2" stroke="#2E368F" stroke-width="1.25" stroke-linecap="round" stroke-linejoin="round" stroke-opacity="0.5" d="
	M34.652,105.332l6.363,2.761l0.393,0.172l2.475,1.405l1.221,0.292l3.385,0.813"/>
<path fill="#2AAAE2" stroke="#2E368F" stroke-width="1.25" stroke-linecap="round" stroke-linejoin="round" stroke-opacity="0.5" d="
	M86.602,5.512L85.536,5.33l-0.193-0.032l-2.363-0.403l-0.131-0.022L82.773,4.86l-1.755-0.298L80.33,4.418"/>
<path fill="#2AAAE2" stroke="#2E368F" stroke-width="1.25" stroke-linecap="round" stroke-linejoin="round" stroke-opacity="0.5" d="
	M121.695,31.897l0.058-2.54l-0.295-4.008l-2.488-2.644l-2.076-1.508"/>
<path fill="#2AAAE2" stroke="#2E368F" stroke-width="1.25" stroke-linecap="round" stroke-linejoin="round" stroke-opacity="0.5" d="
	M20.551,99.381l2.896,5.62l2.28,0.794l1.86,0.649l1.484,0.517"/>
<path fill="#2AAAE2" stroke="#2E368F" stroke-width="1.25" stroke-linecap="round" stroke-linejoin="round" stroke-opacity="0.5" d="
	M88.903,71.16l3.202-2.149l4.103-5.984"/>
<path fill="#2AAAE2" stroke="#2E368F" stroke-width="1.25" stroke-linecap="round" stroke-linejoin="round" stroke-opacity="0.5" d="
	M113.588,44.01l1.021-0.464l2.086-0.948l1.803-0.856l2.253-1.07l2.268-3.183l0.066-0.094l0.116-0.402l0.854-2.947l-1.141-5.669
	l-1.457-3.028"/>
<path fill="#2AAAE2" stroke="#2E368F" stroke-width="1.25" stroke-linecap="round" stroke-linejoin="round" stroke-opacity="0.5" d="
	M66.255,4.975l-3.261,1.268l-1.168,0.454l-0.751,1.146"/>
<path fill="#2AAAE2" stroke="#2E368F" stroke-width="1.25" stroke-linecap="round" stroke-linejoin="round" stroke-opacity="0.5" d="
	M68.169,5.142l-0.732-0.064l-1.182-0.103l1.088,0.307l0.184,0.052l0.053,0.015"/>
<path fill="#2AAAE2" stroke="#2E368F" stroke-width="1.25" stroke-linecap="round" stroke-linejoin="round" stroke-opacity="0.5" d="
	M41.015,108.093l4.858,3.08l4.015,5.286l5.027,1.092l2.961-0.024l4.139-0.885l4.269-1.25"/>
<path fill="#2AAAE2" stroke="#2E368F" stroke-width="1.25" stroke-linecap="round" stroke-linejoin="round" stroke-opacity="0.5" d="
	M25.727,105.795l1.232,1.507l1.481,0.937l4.964,3.136l3.334,1.43l2.534,1.088l1.06,0.264l0.403,0.1l2.229,0.555l0.456,0.113
	l2.262,0.563"/>
<path fill="#2AAAE2" stroke="#2E368F" stroke-width="1.25" stroke-linecap="round" stroke-linejoin="round" stroke-opacity="0.5" d="
	M76.012,1.817l-0.941,0.394L71.857,3.56L67.95,4.516l-0.285,0.07l-0.228,0.492"/>
<path fill="#2AAAE2" stroke="#2E368F" stroke-width="1.25" stroke-linecap="round" stroke-linejoin="round" stroke-opacity="0.5" d="
	M123.01,38.461l0.19-1.468"/>
<path fill="#2AAAE2" stroke="#2E368F" stroke-width="1.25" stroke-linecap="round" stroke-linejoin="round" stroke-opacity="0.5" d="
	M80.193,2.291L77.625,2l-1.613-0.183l-2.448,0.371"/>
<path fill="#2AAAE2" stroke="#2E368F" stroke-width="1.25" stroke-linecap="round" stroke-linejoin="round" stroke-opacity="0.5" d="
	M103.955,69.44l2.976-2.356l1.726-4.304l0.202-0.505l0.175-0.435"/>
<path fill="#2AAAE2" stroke="#2E368F" stroke-width="1.25" stroke-linecap="round" stroke-linejoin="round" stroke-opacity="0.5" d="
	M112.744,54.846l2.621-1.412l3.646-0.966l0.414-0.11l1.484-1.244l0.113-0.094l0.763-0.64"/>
<path fill="#2AAAE2" stroke="#2E368F" stroke-width="1.25" stroke-linecap="round" stroke-linejoin="round" stroke-opacity="0.5" d="
	M85.536,5.33l-1.523-0.866l-3.819-2.173l-2.325-0.744l-2.717-0.816"/>
<path fill="#2AAAE2" stroke="#2E368F" stroke-width="1.25" stroke-linecap="round" stroke-linejoin="round" stroke-opacity="0.5" d="
	M124.831,35.401l0.6-2.755l-0.493-2.328l-0.904-3.711l-1.246-3.346l-4.039-4.975l-2.881-2.55l-1.215-2.579l-4.49-0.941l-2.54-0.59
	l-0.662-0.19"/>
<path fill="#2AAAE2" stroke="#2E368F" stroke-width="1.25" stroke-linecap="round" stroke-linejoin="round" stroke-opacity="0.5" d="
	M108.656,62.78l1.203-1.345"/>
<path fill="#2AAAE2" stroke="#2E368F" stroke-width="1.25" stroke-linecap="round" stroke-linejoin="round" stroke-opacity="0.5" d="
	M40.735,114.255l3.493,1.434l2.61,1.695l3.151,2.047l0.567,0.368l3.122,1.632l0.283,0.148l1.222,0.639l1.842,0.963l0.03,0.017
	l1.344,0.495l0.179,0.064l4.457,1.641"/>
<path fill="#2AAAE2" stroke="#2E368F" stroke-width="1.25" stroke-linecap="round" stroke-linejoin="round" stroke-opacity="0.5" d="
	M40.332,114.155l2.026,2.421l4.48,0.808"/>
<path fill="#2AAAE2" stroke="#2E368F" stroke-width="1.25" stroke-linecap="round" stroke-linejoin="round" stroke-opacity="0.5" d="
	M117.967,57.299l0.375-3.445"/>
<path fill="#2AAAE2" stroke="#2E368F" stroke-width="1.25" stroke-linecap="round" stroke-linejoin="round" stroke-opacity="0.5" d="
	M111.453,61.401l2.988-1.385l3.274-2.522l0.252-0.195l0.067,2.624"/>
<path fill="#2AAAE2" stroke="#2E368F" stroke-width="1.25" stroke-linecap="round" stroke-linejoin="round" stroke-opacity="0.5" d="
	M84.012,4.464l-1.758-1.227l-3.367-1.756l-3.307-0.856L72.16,1.044l-3.216,0.819l-2.172,1.943L66.7,3.819l-0.969,0.169l-1.438,0.251
	L61.68,5.911L60.09,7.94"/>
<path fill="#2AAAE2" stroke="#2E368F" stroke-width="1.25" stroke-linecap="round" stroke-linejoin="round" stroke-opacity="0.5" d="
	M58.399,123.692l1.043,0.815l1.152,0.903l1.126,0.882l5.175,3.751"/>
<path fill="#2AAAE2" stroke="#2E368F" stroke-width="1.25" stroke-linecap="round" stroke-linejoin="round" stroke-opacity="0.5" d="
	M28.44,108.238l0.015,0.032l5.338,3.384l0.616,0.532l0.687,0.155l1.642,0.462"/>
<path fill="#2AAAE2" stroke="#2E368F" stroke-width="1.25" stroke-linecap="round" stroke-linejoin="round" stroke-opacity="0.5" d="
	M122.973,56.829l0.029-0.496l0.139-2.447l0.01-0.179l0.027-0.49l0.591-0.755l0.69-0.884l0.416-0.533l0.893-2.157l0.353-0.855
	l0.503-0.68l0.295-0.4l1.115-1.727l0.17-2.058l-0.867-3.32l-2.506-4.447l-0.154-0.274"/>
<path fill="#2AAAE2" stroke="#2E368F" stroke-width="1.25" stroke-linecap="round" stroke-linejoin="round" stroke-opacity="0.5" d="
	M120.894,56.402l0.532-1.394l0.274-0.719l1.024-2.814"/>
<path fill="#2AAAE2" stroke="#2E368F" stroke-width="1.25" stroke-linecap="round" stroke-linejoin="round" stroke-opacity="0.5" d="
	M125.768,48.888l0.855-1.535"/>
<path fill="#2AAAE2" stroke="#2E368F" stroke-width="1.25" stroke-linecap="round" stroke-linejoin="round" stroke-opacity="0.5" d="
	M55.183,122.218l3.501,2.59l0.048,0.035l1.085,0.803l0.21,0.155l0.144,0.107l5.376,4.391"/>
<path fill="#2AAAE2" stroke="#2E368F" stroke-width="1.25" stroke-linecap="round" stroke-linejoin="round" stroke-opacity="0.5" d="
	M49.989,119.431l2.398,2.892l1.012,0.475l4.553,1.747l0.085,0.032l0.177,0.069l0.518,0.197"/>
<path fill="#2AAAE2" stroke="#2E368F" stroke-width="1.25" stroke-linecap="round" stroke-linejoin="round" stroke-opacity="0.5" d="
	M119.752,72.571l-0.66-4.098l-1.301-4.587"/>
<path fill="#2AAAE2" stroke="#2E368F" stroke-width="1.25" stroke-linecap="round" stroke-linejoin="round" stroke-opacity="0.5" d="
	M75.09,130.459l1.879,0.356l4.814,0.908l1.453,0.162l2.689-1.291l2.949-1.416l5.238-2.875l3.748-2.75"/>
<path fill="#2AAAE2" stroke="#2E368F" stroke-width="1.25" stroke-linecap="round" stroke-linejoin="round" stroke-opacity="0.5" d="
	M57.952,124.544l5.194,5.061l1.144,0.814l8.081,2.288l1.44-0.69l3.158-1.201"/>
<path fill="#2AAAE2" stroke="#2E368F" stroke-width="1.25" stroke-linecap="round" stroke-linejoin="round" stroke-opacity="0.5" d="
	M98.629,121.673l1.198,0.084l3.333,0.235l0.973,0.067l4.362-0.283"/>
<path fill="#2AAAE2" stroke="#2E368F" stroke-width="1.25" stroke-linecap="round" stroke-linejoin="round" stroke-opacity="0.5" d="
	M124.461,54.7l-0.191-0.619l-0.501-1.619"/>
<path fill="#2AAAE2" stroke="#2E368F" stroke-width="1.25" stroke-linecap="round" stroke-linejoin="round" stroke-opacity="0.5" d="
	M66.7,3.819l-0.437-0.244l-0.532,0.413"/>
<path fill="#2AAAE2" stroke="#2E368F" stroke-width="1.25" stroke-linecap="round" stroke-linejoin="round" stroke-opacity="0.5" d="
	M53.819,10.351l-1.226,0.287l-2.735,1.505l-3.918,3.706l-0.255,3.658l-0.094,1.346"/>
<path fill="#2AAAE2" stroke="#2E368F" stroke-width="1.25" stroke-linecap="round" stroke-linejoin="round" stroke-opacity="0.5" d="
	M125.834,91.704l-1.289-3.48l-1.793-3.082"/>
<path fill="#2AAAE2" stroke="#2E368F" stroke-width="1.25" stroke-linecap="round" stroke-linejoin="round" stroke-opacity="0.5" d="
	M45.685,19.507l-2.43,3.206l-2.318,2.77"/>
<path fill="#2AAAE2" stroke="#2E368F" stroke-width="1.25" stroke-linecap="round" stroke-linejoin="round" stroke-opacity="0.5" d="
	M125.649,55.599l-1.379-1.518"/>
<path fill="#2AAAE2" stroke="#2E368F" stroke-width="1.25" stroke-linecap="round" stroke-linejoin="round" stroke-opacity="0.5" d="
	M131.28,75.767l0.641-3.893l0.074-0.459l1.203-4.802l-0.82-4.282l-3.246-2.964L128.62,58.9l-1.681-2.325l-1.29-0.976l-1.188-0.899
	l-0.106-0.082l-1.204-0.911"/>
<path fill="#2AAAE2" stroke="#2E368F" stroke-width="1.25" stroke-linecap="round" stroke-linejoin="round" stroke-opacity="0.5" d="
	M117.124,117.899l3.081-3.702l1.858-2.743"/>
<path fill="#2AAAE2" stroke="#2E368F" stroke-width="1.25" stroke-linecap="round" stroke-linejoin="round" stroke-opacity="0.5" d="
	M124.639,81.265l1.574-4.127l0.685-4.291"/>
<path fill="#2AAAE2" stroke="#2E368F" stroke-width="1.25" stroke-linecap="round" stroke-linejoin="round" stroke-opacity="0.5" d="
	M96.856,125.438l0.697-0.19l2.082-0.286l1.715-0.234l1.343-0.185l4.024-0.209"/>
<path fill="#2AAAE2" stroke="#2E368F" stroke-width="1.25" stroke-linecap="round" stroke-linejoin="round" stroke-opacity="0.5" d="
	M102.693,124.543l0.853-0.25l2.844-0.176l2.144-0.134l4.722,0.402l0.065,0.006l0.05,0.004l0.202,0.018l0.412,0.035l0.512-0.419
	l0.716-0.587l0.045-0.035l2.09-1.715l0.16-0.129"/>
<path fill="#2AAAE2" stroke="#2E368F" stroke-width="1.25" stroke-linecap="round" stroke-linejoin="round" stroke-opacity="0.5" d="
	M85.926,130.595l3.135,0.822l6.934-3.886l3.641-2.569"/>
<path fill="#2AAAE2" stroke="#2E368F" stroke-width="1.25" stroke-linecap="round" stroke-linejoin="round" stroke-opacity="0.5" d="
	M115.211,123.442l1.565-0.811l0.729-1.068l2.326-3.535l0.357-0.545"/>
<path fill="#2AAAE2" stroke="#2E368F" stroke-width="1.25" stroke-linecap="round" stroke-linejoin="round" stroke-opacity="0.5" d="
	M113.984,124.448l-1.006,0.212l-0.199,0.042l-0.815,0.38l1.015-0.422"/>
<path fill="#2AAAE2" stroke="#2E368F" stroke-width="1.25" stroke-linecap="round" stroke-linejoin="round" stroke-opacity="0.5" d="
	M125.906,113.431l2.796-3.554l1.358-4.385l0.438-3.369l0.809-1.733l0.144-0.309l0.479-1.029l-0.096-0.539l-0.033-0.184l-0.461-2.591
	l0.93-3.38L133.348,89l0.152-0.478l0.041-0.125v-0.396l0.002-0.029l0.141-4.947l-0.973-4.288l-0.842-3.993l0.051-2.869"/>
<path fill="#2AAAE2" stroke="#2E368F" stroke-width="1.25" stroke-linecap="round" stroke-linejoin="round" stroke-opacity="0.5" d="
	M101.35,124.728l4.408,0.271l4.908,0.507l1.297-0.423"/>
<path fill="#2AAAE2" stroke="#2E368F" stroke-width="1.25" stroke-linecap="round" stroke-linejoin="round" stroke-opacity="0.5" d="
	M130.817,103.909l0.632-3.822l0.002-0.006"/>
<path fill="#2AAAE2" stroke="#2E368F" stroke-width="1.25" stroke-linecap="round" stroke-linejoin="round" stroke-opacity="0.5" d="
	M114.496,124.029l1.313-0.546l3.271-2.275l0.856-0.93l3.394-3.036l1.491-1.327l1.207-1.073l2.633-2.602"/>
<path fill="#2AAAE2" stroke="#2E368F" stroke-width="1.25" stroke-linecap="round" stroke-linejoin="round" stroke-opacity="0.5" d="
	M131.834,98.513l0.565-2.309l0.794-3.744l0.307-3.938"/>
<path fill="#2AAAE2" stroke="#2E368F" stroke-width="1.25" stroke-linecap="round" stroke-linejoin="round" stroke-opacity="0.5" d="
	M129.131,59.367l-1.762-5.529l-2.91-2.26"/>
<path fill="#2AAAE2" stroke="#2E368F" stroke-width="1.25" stroke-linecap="round" stroke-linejoin="round" stroke-opacity="0.5" d="
	M124.821,115.915l3.35-1.124l3.432-2.119l0.578-0.819l0.522-0.82l0.039-0.449l0.386-4.452"/>
<path fill="#2AAAE2" stroke="#2E368F" stroke-width="1.25" stroke-linecap="round" stroke-linejoin="round" stroke-opacity="0.5" d="
	M132.742,110.583l1.459-3.295l0.116-4.96l-1.172-3.462l-0.008-0.023l-0.035-0.102l-0.414-1.223"/>
<path fill="#2AAAE2" stroke="#2E368F" stroke-width="1.25" stroke-linecap="round" stroke-linejoin="round" stroke-opacity="0.5" d="
	M133.403,98.115l0.682-4.97L133.557,88l-0.014-0.028"/>
<path fill="#2AAAE2" stroke="#2E368F" stroke-width="1.25" stroke-linecap="round" stroke-linejoin="round" stroke-opacity="0.5" d="
	M133.187,98.742l0.14-0.278l0.076-0.349L133.187,98.742l-0.042,0.124"/>
</svg>
