<?xml version="1.0" encoding="utf-8"?>
<!-- Generator: Adobe Illustrator 16.0.0, SVG Export Plug-In . SVG Version: 6.00 Build 0)  -->
<!DOCTYPE svg PUBLIC "-//W3C//DTD SVG 1.1//EN" "http://www.w3.org/Graphics/SVG/1.1/DTD/svg11.dtd">
<svg version="1.1" id="Layer_1" xmlns="http://www.w3.org/2000/svg" xmlns:xlink="http://www.w3.org/1999/xlink" x="0px" y="0px"
	 width="187.111px" height="177.701px" viewBox="0 0 187.111 177.701" enable-background="new 0 0 187.111 177.701"
	 xml:space="preserve">
<path fill="#2AAAE2" stroke="#2E368F" stroke-miterlimit="10" d="M8.021,100.254l-1.172,8.233l3.704,7.491l4.146,5.366l4.452,5.188
	l5.365,4.69l0.857,2.365l0.143,0.98l0.818,1.668l3.7,4.884l7.299,5.136l0.409,0.176l3.892,3.57l3.423,0.323l1.75,0.341l3.924,2.109
	l3.916,4.721l8.253,2.049l3.355,2.873l3.73,5.197l7.531,4.271l11.444,2.07l1.047-0.646l8.541,1.442l1.164-0.302l4.813,2.62
	l6.885-1.394l10.595-0.991l7.004-3.594l0.651,0.043l3.09-1.698l1.979,0.002l10.687-3.049l7.146-5.523l4.896-2.678l5.342-3.625
	l1.321-1.519l1.151-0.422l4.472-4.544l2.942-6.053l-0.471-4.872l0.024-2.076l1.067-4.229l0.528-1.552l4.7-6.167l1.314-8.266
	l1.539-8.241l0.754-1.373l3.83-8.644l0.505-8.85l-3.557-7.396l-0.693-1.738l0.344-1.718l0.296-8.34l-1.738-2.607l-1.313-3.338
	l-0.147-7.955l-2.674-2.491l-0.277-1.013l-2.522-8.914l-6.82-2.385l-3.464-3.941l-2.887-4.238l-4.694-3.798l-0.181-0.323
	l-2.168-1.817l-6.569-4.436l-6.713-1.035l-1.049-0.995l-1.396-1.123l-1.484-2.333l-6.376-2.697l-6.788-3.983l-11.499,0.563
	l-1.073-0.046l-1.513-0.612l-2.528,0.377l-2.483-0.61l-5.728-1.235l-5.161-1.769l-0.155-0.099L85.323,3.44l-8.667-0.712
	L65.277,0.622l-2.88,1.353L59.542,1.85l-2.209,2.865l-2.746,1.397l-6.802,4.595l-6.636,4.43l-6.063,7.771l-0.964,0.604l-6.468,0.239
	l-9.468,3.964l-5.872,7.704l-4.087,7.08l0.836,8.891l-0.018,0.041l-3.494,7.622l-0.368,8.47L0.62,74.574l0.4,2.325L1.96,83.92
	l2.792,5.048l-0.051,0.354l1.761,3.175l1.765,5.098L8.021,100.254z"/>
<path fill="#2AAAE2" stroke="#2E368F" stroke-width="1.25" stroke-linecap="round" stroke-linejoin="round" stroke-opacity="0.5" d="
	M159.019,151.29l4.49-6.097l0.477-2.711l0.085-0.487l1.493-8.533"/>
<path fill="#2AAAE2" stroke="#2E368F" stroke-width="1.25" stroke-linecap="round" stroke-linejoin="round" stroke-opacity="0.5" d="
	M115.716,170.231l7.143,0.466l0.377,0.022l5.777,0.379l0.651,0.043l3.09-1.699l4.123-2.268l6.007-4.965"/>
<path fill="#2AAAE2" stroke="#2E368F" stroke-width="1.25" stroke-linecap="round" stroke-linejoin="round" stroke-opacity="0.5" d="
	M174.534,80.562l2.162-8.863l-1.313-7.704"/>
<path fill="#2AAAE2" stroke="#2E368F" stroke-width="1.25" stroke-linecap="round" stroke-linejoin="round" stroke-opacity="0.5" d="
	M65.982,143.059l3.406,5.577l2.994,2.795"/>
<path fill="#2AAAE2" stroke="#2E368F" stroke-width="1.25" stroke-linecap="round" stroke-linejoin="round" stroke-opacity="0.5" d="
	M147.451,163.67l5.116-2.798l4.896-2.678l5.342-3.625l1.321-1.519l2.167-2.487l0.201-0.23l4.614-7.463"/>
<path fill="#2AAAE2" stroke="#2E368F" stroke-width="1.25" stroke-linecap="round" stroke-linejoin="round" stroke-opacity="0.5" d="
	M171.931,136.331l0.077-0.305l0.075-0.298l0.163-0.645l1.068-4.229l0.322-1.281l0.205-0.27l4.7-6.168l1.314-8.266l1.539-8.241
	l0.023-0.129"/>
<path fill="#2AAAE2" stroke="#2E368F" stroke-width="1.25" stroke-linecap="round" stroke-linejoin="round" stroke-opacity="0.5" d="
	M99.717,174.456l4.813,2.62l6.884-1.393l1.565-0.316"/>
<path fill="#2AAAE2" stroke="#2E368F" stroke-width="1.25" stroke-linecap="round" stroke-linejoin="round" stroke-opacity="0.5" d="
	M111.414,175.684l10.595-0.992l7.004-3.593"/>
<path fill="#2AAAE2" stroke="#2E368F" stroke-width="1.25" stroke-linecap="round" stroke-linejoin="round" stroke-opacity="0.5" d="
	M164.126,153.052l1.151-0.422l1.217-2.297"/>
<path fill="#2AAAE2" stroke="#2E368F" stroke-width="1.25" stroke-linecap="round" stroke-linejoin="round" stroke-opacity="0.5" d="
	M181.397,106.63l0.754-1.373l3.83-8.644l0.505-8.849l-3.558-7.396l-0.724-1.505l-0.004-0.063l-0.023-0.313l-0.595-8.073"/>
<path fill="#2AAAE2" stroke="#2E368F" stroke-width="1.25" stroke-linecap="round" stroke-linejoin="round" stroke-opacity="0.5" d="
	M67.668,156.986l3.333,3.734l0.297,0.334l2.827,1.801l0.646,0.408l1.26,0.804l4.006,2.551l8.679,6.476l1.297,0.222l8.541,1.442
	l1.164-0.302l7.744-2.007"/>
<path fill="#2AAAE2" stroke="#2E368F" stroke-width="1.25" stroke-linecap="round" stroke-linejoin="round" stroke-opacity="0.5" d="
	M165.277,152.63l4.472-4.544l2.943-6.053l-0.471-4.872l-0.14-1.433"/>
<path fill="#2AAAE2" stroke="#2E368F" stroke-width="1.25" stroke-linecap="round" stroke-linejoin="round" stroke-opacity="0.5" d="
	M132.754,169.442l1.98,0.002l10.686-3.049l7.147-5.523"/>
<path fill="#2AAAE2" stroke="#2E368F" stroke-width="1.25" stroke-linecap="round" stroke-linejoin="round" stroke-opacity="0.5" d="
	M182.515,69.467l-1.378-3.502l-1.313-3.338l-0.147-7.955l-2.674-2.491l-2.995-2.791l-6.406-5.188l-4.332-4.739l-2.864-1.536
	l-0.651-0.349"/>
<path fill="#2AAAE2" stroke="#2E368F" stroke-width="1.25" stroke-linecap="round" stroke-linejoin="round" stroke-opacity="0.5" d="
	M58.369,142.01l2.512,7.035l0.422,1.185l0.2,0.558l5.495,5.63l0.67,0.57l2.439,2.075l0.688,0.585l2.05,1.746l0.311,0.262"/>
<path fill="#2AAAE2" stroke="#2E368F" stroke-width="1.25" stroke-linecap="round" stroke-linejoin="round" stroke-opacity="0.5" d="
	M182.93,80.368l-0.692-1.738l-0.059-0.143"/>
<path fill="#2AAAE2" stroke="#2E368F" stroke-width="1.25" stroke-linecap="round" stroke-linejoin="round" stroke-opacity="0.5" d="
	M173.314,130.854l0.527-1.552"/>
<path fill="#2AAAE2" stroke="#2E368F" stroke-width="1.25" stroke-linecap="round" stroke-linejoin="round" stroke-opacity="0.5" d="
	M172.222,137.161l0.024-2.076"/>
<path fill="#2AAAE2" stroke="#2E368F" stroke-width="1.25" stroke-linecap="round" stroke-linejoin="round" stroke-opacity="0.5" d="
	M122.869,18.477l-7.972-1.199l-6.83-1.31l-0.153-0.027l-4.303-0.824"/>
<path fill="#2AAAE2" stroke="#2E368F" stroke-width="1.25" stroke-linecap="round" stroke-linejoin="round" stroke-opacity="0.5" d="
	M182.236,78.63l0.343-1.718l0.296-8.34l-1.738-2.607"/>
<path fill="#2AAAE2" stroke="#2E368F" stroke-width="1.25" stroke-linecap="round" stroke-linejoin="round" stroke-opacity="0.5" d="
	M167.5,40.003l-0.118-0.134l-3.464-3.94l-2.887-4.239l-4.694-3.797l-0.285-0.231l-5.521-3.271l-6.942-1.467l-0.156-0.062
	l-2.515-0.997l-0.393-0.156l-2.325-0.921l-0.908-0.361l-0.172-0.066l-0.133-0.053l-0.624-0.209l-3.019-1.006l-2.998-1l-6.584-2.064
	l-3.396-1.066l-2.829-0.771"/>
<path fill="#2AAAE2" stroke="#2E368F" stroke-width="1.25" stroke-linecap="round" stroke-linejoin="round" stroke-opacity="0.5" d="
	M37.093,112.489l3.709,6.271l1.799,4.61"/>
<path fill="#2AAAE2" stroke="#2E368F" stroke-width="1.25" stroke-linecap="round" stroke-linejoin="round" stroke-opacity="0.5" d="
	M106.365,17.465l-8.146-2.637l-10.943-2.081l-6.904-1.466l-0.03-0.006l-1.579-0.336l-0.042-0.009l-0.014-0.004l-1.287-0.272
	l-1.029-0.218"/>
<path fill="#2AAAE2" stroke="#2E368F" stroke-width="1.25" stroke-linecap="round" stroke-linejoin="round" stroke-opacity="0.5" d="
	M55.813,147.864l-4.552-3.023l-2.01-1.335l1.834,1.042l0.226,0.128l1.043,0.442l6.8,2.876l2.147,2.234"/>
<path fill="#2AAAE2" stroke="#2E368F" stroke-width="1.25" stroke-linecap="round" stroke-linejoin="round" stroke-opacity="0.5" d="
	M137.119,20.359l-4.889-3.64l-0.728-0.539"/>
<path fill="#2AAAE2" stroke="#2E368F" stroke-width="1.25" stroke-linecap="round" stroke-linejoin="round" stroke-opacity="0.5" d="
	M49.567,25.924l-5.863,4.764l-7.974,3.944"/>
<path fill="#2AAAE2" stroke="#2E368F" stroke-width="1.25" stroke-linecap="round" stroke-linejoin="round" stroke-opacity="0.5" d="
	M33.96,116.88l0.046,0.099l1.418,2.92l1.833,3.776l1.45,1.515l0.028,0.026l4.127,4.307l0.266,8.811l5.744,4.854l0.381,0.32"/>
<path fill="#2AAAE2" stroke="#2E368F" stroke-width="1.25" stroke-linecap="round" stroke-linejoin="round" stroke-opacity="0.5" d="
	M109.326,13.103l-1.835-0.558l-5.653-1.713l-0.446-0.136l-0.604-0.184l-0.355-0.106l-0.192-0.06l-0.076-0.022l-0.91-0.276
	l-1.012-0.307l-0.903-0.068l-7.527-0.571l-1.617,0.266l-0.799,0.132l-3.858,0.634l-1.571,0.261l-0.821,0.135"/>
<path fill="#2AAAE2" stroke="#2E368F" stroke-width="1.25" stroke-linecap="round" stroke-linejoin="round" stroke-opacity="0.5" d="
	M81.383,10.61l-0.241-0.083L75.454,8.55L73.36,7.822l-1.643,0.379L69.52,8.709l-4.084,0.943l-10.23,2.159l-0.139,0.027"/>
<path fill="#2AAAE2" stroke="#2E368F" stroke-width="1.25" stroke-linecap="round" stroke-linejoin="round" stroke-opacity="0.5" d="
	M177.003,52.181l-0.277-1.013l-2.522-8.914l-6.82-2.385"/>
<path fill="#2AAAE2" stroke="#2E368F" stroke-width="1.25" stroke-linecap="round" stroke-linejoin="round" stroke-opacity="0.5" d="
	M69.51,164.583l8.24,2.803"/>
<path fill="#2AAAE2" stroke="#2E368F" stroke-width="1.25" stroke-linecap="round" stroke-linejoin="round" stroke-opacity="0.5" d="
	M58.273,152.688l1.331,1.975l0.565,0.84l0.457,0.677l0.59,0.877l0.257,0.38l0.879,0.833l0.979,0.928l0.228,0.092l0.639,0.262
	l0.329,0.137l0.23,0.095l0.131,0.053l0.078,0.032l0.396,0.162l0.317,0.13l0.325,0.133l8.768,2.976"/>
<path fill="#2AAAE2" stroke="#2E368F" stroke-width="1.25" stroke-linecap="round" stroke-linejoin="round" stroke-opacity="0.5" d="
	M48.872,143.185l1.528,2.682l0.391,0.687l0.999,1.753l6.483,4.383l0.212,0.144l1.623,2.131l0.945,1.244l0.784,1.029l0.404,0.528
	l0.601,0.789l0.231,0.307l0.256,0.336"/>
<path fill="#2AAAE2" stroke="#2E368F" stroke-width="1.25" stroke-linecap="round" stroke-linejoin="round" stroke-opacity="0.5" d="
	M98.241,9.742l-2.807-0.65"/>
<path fill="#2AAAE2" stroke="#2E368F" stroke-width="1.25" stroke-linecap="round" stroke-linejoin="round" stroke-opacity="0.5" d="
	M35.424,119.897l-5.78-3.389l-1.721-1.992l-3.095-4.509l1.612,2.221l0.457,0.609l1.354,1.812l1.394,1.859"/>
<path fill="#2AAAE2" stroke="#2E368F" stroke-width="1.25" stroke-linecap="round" stroke-linejoin="round" stroke-opacity="0.5" d="
	M140.524,21.709l-0.299-0.469l-0.05-0.075l-0.726-1.14l-0.155-0.242l-0.601-0.944l-0.255-0.398l-0.179-0.278l-1.485-2.333
	l-6.376-2.697l-6.788-3.983l-11.499,0.563l-1.073-0.046l-3.746-0.162l-0.605-0.025l-2.717-0.117l-5.184-1.776l-5.161-1.769
	l-0.681-0.233l-8.63,0.997l-8.452,1.37L64.968,5.851"/>
<path fill="#2AAAE2" stroke="#2E368F" stroke-width="1.25" stroke-linecap="round" stroke-linejoin="round" stroke-opacity="0.5" d="
	M61.474,157.435l0.768,0.767l1.568,1.572l1.946,1.948l1.182,1.183l0.56,0.365l2.014,1.313l-1.265-1.103l-0.073-0.064l-1.996-1.741
	l-1.212-1.056l-0.896-0.781l-0.737-0.643"/>
<path fill="#2AAAE2" stroke="#2E368F" stroke-width="1.25" stroke-linecap="round" stroke-linejoin="round" stroke-opacity="0.5" d="
	M73.359,7.823l-2.182,0.19l-0.57,0.051L60.104,7.973"/>
<path fill="#2AAAE2" stroke="#2E368F" stroke-width="1.25" stroke-linecap="round" stroke-linejoin="round" stroke-opacity="0.5" d="
	M23.842,107.845l0.986,2.164"/>
<path fill="#2AAAE2" stroke="#2E368F" stroke-width="1.25" stroke-linecap="round" stroke-linejoin="round" stroke-opacity="0.5" d="
	M32.899,33.908L26.2,38.999l-2.514,7.802l-2.046,8.179l-4.108,7.295"/>
<path fill="#2AAAE2" stroke="#2E368F" stroke-width="1.25" stroke-linecap="round" stroke-linejoin="round" stroke-opacity="0.5" d="
	M143.431,22.862l-1.42-1.346l-1.08-1.024l-0.225-0.213l-1.049-0.995l-1.217-0.845"/>
<path fill="#2AAAE2" stroke="#2E368F" stroke-width="1.25" stroke-linecap="round" stroke-linejoin="round" stroke-opacity="0.5" d="
	M38.707,125.188l0.224,0.528"/>
<path fill="#2AAAE2" stroke="#2E368F" stroke-width="1.25" stroke-linecap="round" stroke-linejoin="round" stroke-opacity="0.5" d="
	M139.657,19.284l-1.396-1.123"/>
<path fill="#2AAAE2" stroke="#2E368F" stroke-width="1.25" stroke-linecap="round" stroke-linejoin="round" stroke-opacity="0.5" d="
	M65.756,161.722l0.502,0.699l3.73,5.197l7.532,4.271l11.443,2.069l1.047-0.646"/>
<path fill="#2AAAE2" stroke="#2E368F" stroke-width="1.25" stroke-linecap="round" stroke-linejoin="round" stroke-opacity="0.5" d="
	M47.819,144.758l2.972,1.795"/>
<path fill="#2AAAE2" stroke="#2E368F" stroke-width="1.25" stroke-linecap="round" stroke-linejoin="round" stroke-opacity="0.5" d="
	M62.051,2.321l-3.092,1.572L58.57,4.091L57.665,4.55l-0.328,0.167l-2.746,1.397l-6.802,4.595l-6.636,4.43L35.09,22.91l-0.009,0.012
	l-0.914,0.59"/>
<path fill="#2AAAE2" stroke="#2E368F" stroke-width="1.25" stroke-linecap="round" stroke-linejoin="round" stroke-opacity="0.5" d="
	M156.337,27.892l-0.181-0.324l-2.168-1.817l-6.569-4.436l-6.713-1.035"/>
<path fill="#2AAAE2" stroke="#2E368F" stroke-width="1.25" stroke-linecap="round" stroke-linejoin="round" stroke-opacity="0.5" d="
	M59.362,156.519l3.539,3.028l3.355,2.873"/>
<path fill="#2AAAE2" stroke="#2E368F" stroke-width="1.25" stroke-linecap="round" stroke-linejoin="round" stroke-opacity="0.5" d="
	M37.827,23.378l-2.324,0.086l-0.483,0.02l-0.699,0.024l-0.152,0.005l-0.041,0.003l-6.468,0.238l-9.468,3.964l-5.872,7.704
	l-4.087,7.08l0.836,8.891"/>
<path fill="#2AAAE2" stroke="#2E368F" stroke-width="1.25" stroke-linecap="round" stroke-linejoin="round" stroke-opacity="0.5" d="
	M68.03,2.222l-5.629-0.244l-2.855-0.125l-2.209,2.865"/>
<path fill="#2AAAE2" stroke="#2E368F" stroke-width="1.25" stroke-linecap="round" stroke-linejoin="round" stroke-opacity="0.5" d="
	M26.197,131.386l3.387,6.558l4.548,5.177l3.499,3.21l0.064,0.06l0.05,0.047l3.892,3.569l3.423,0.323l1.75,0.341l2.597,0.507
	l0.676,0.134l6.389,1.247l1.971,1.717l2.188,1.906"/>
<path fill="#2AAAE2" stroke="#2E368F" stroke-width="1.25" stroke-linecap="round" stroke-linejoin="round" stroke-opacity="0.5" d="
	M35.09,22.911l-0.964,0.604"/>
<path fill="#2AAAE2" stroke="#2E368F" stroke-width="1.25" stroke-linecap="round" stroke-linejoin="round" stroke-opacity="0.5" d="
	M111.04,9.664l-1.513-0.612l-2.528,0.377l-0.312,0.048"/>
<path fill="#2AAAE2" stroke="#2E368F" stroke-width="1.25" stroke-linecap="round" stroke-linejoin="round" stroke-opacity="0.5" d="
	M93.627,5.813l-0.155-0.099l-8.145-2.271L76.66,2.731L65.281,0.625l-2.88,1.353"/>
<path fill="#2AAAE2" stroke="#2E368F" stroke-width="1.25" stroke-linecap="round" stroke-linejoin="round" stroke-opacity="0.5" d="
	M11.923,43.756l-2.854,7.637l-0.018,0.041l-3.495,7.622l-0.367,8.47l-4.563,7.052l0.4,2.325"/>
<path fill="#2AAAE2" stroke="#2E368F" stroke-width="1.25" stroke-linecap="round" stroke-linejoin="round" stroke-opacity="0.5" d="
	M0.822,75.39l0.202,1.513l0.939,7.021l2.792,5.048l1.307,2.359l0.403,1.169l1.765,5.098"/>
<path fill="#2AAAE2" stroke="#2E368F" stroke-width="1.25" stroke-linecap="round" stroke-linejoin="round" stroke-opacity="0.5" d="
	M49.405,151.176l1.328,1.604l3.915,4.721l8.253,2.049"/>
<path fill="#2AAAE2" stroke="#2E368F" stroke-width="1.25" stroke-linecap="round" stroke-linejoin="round" stroke-opacity="0.5" d="
	M8.674,91.986l-0.311,3.93l-0.134,1.68l-0.209,2.658l-1.173,8.233l3.705,7.491l4.146,5.366l4.452,5.188l5.365,4.69l0.857,2.365
	l0.961,2.648"/>
<path fill="#2AAAE2" stroke="#2E368F" stroke-width="1.25" stroke-linecap="round" stroke-linejoin="round" stroke-opacity="0.5" d="
	M106.999,9.429l-2.484-0.61l-5.727-1.235"/>
<path fill="#2AAAE2" stroke="#2E368F" stroke-width="1.25" stroke-linecap="round" stroke-linejoin="round" stroke-opacity="0.5" d="
	M46.81,150.669l3.924,2.109"/>
<path fill="#2AAAE2" stroke="#2E368F" stroke-width="1.25" stroke-linecap="round" stroke-linejoin="round" stroke-opacity="0.5" d="
	M37.695,146.388l-0.359-0.129l0.409,0.177"/>
<path fill="#2AAAE2" stroke="#2E368F" stroke-width="1.25" stroke-linecap="round" stroke-linejoin="round" stroke-opacity="0.5" d="
	M25.376,133.591l0.143,0.98l0.818,1.668l3.7,4.884l7.299,5.136"/>
<path fill="#2AAAE2" stroke="#2E368F" stroke-width="1.25" stroke-linecap="round" stroke-linejoin="round" stroke-opacity="0.5" d="
	M4.757,88.97l-0.051,0.354l1.761,3.175"/>
</svg>
