<?xml version="1.0" encoding="utf-8"?>
<!-- Generator: Adobe Illustrator 16.0.0, SVG Export Plug-In . SVG Version: 6.00 Build 0)  -->
<!DOCTYPE svg PUBLIC "-//W3C//DTD SVG 1.1//EN" "http://www.w3.org/Graphics/SVG/1.1/DTD/svg11.dtd">
<svg version="1.1" id="Layer_1" xmlns="http://www.w3.org/2000/svg" xmlns:xlink="http://www.w3.org/1999/xlink" x="0px" y="0px"
	 width="284.633px" height="278.813px" viewBox="0 0 284.633 278.813" enable-background="new 0 0 284.633 278.813"
	 xml:space="preserve">
<path fill="#2AAAE2" stroke="#2E368F" stroke-miterlimit="10" d="M199.518,273.709l5.358-1.619l5.102-2.388l4.663-2.521l3.709-3.157
	l0.61-0.738l3-0.668l12.587-13.545l5.503-5.681l4.357-5.264l0.994-0.56l5.078-3.025l2.094-0.001l2.369-1.634l5.703-1.438
	l2.766-1.485l1.793-3.476l1.432-3.191l1.557-1.521l1.925-3.939l2.147-2.664l2.652-8.704l3.015-8.985l3.773-9.146l1.855-6.472
	l-0.773-7.361l1.221-6.109l-0.514-3.592l-3.619-8.744l-1.635-6.127l-1.659-4.136l-4.059-4.1l-2.217-6.181l-3.06-7.479l-4.074-7.334
	l-4.661-7.696l-5.318-7.757l-7.215-7.515l-7.494-6.993l-4.154-9.08l-5.229-7.538l-3.344-2.752l-1.265-8.118l-1.607-11.387
	l-5.072-9.821l-3.654-2.313l-1.03-0.717l-5.146-6.085l-5.524-10.255l-0.722-1.123L184.95,0.626L156.565,2.12l-3.733,0.99
	l-3.804,0.743l-9.244,9.668l-4.233,2.272l-6.082,2.654l-6.359,2.775l-6.563,2.611l-9.786,4.33l-5.72,3.858l-10.23,3.405
	l-5.723,3.298l-4.136,4.634l-4.139,4.563l-4.047,4.563l-3.742,2.75l-3.213,1.249l-5.673,1.966l-5.444,1.729l-5.055,3.016
	l-6.21,1.065l-4.942,3.932l-1.374,1.401l-5.669,5.14l-4.043,2.486l-4.522,5.597l-4.11,6.214l-0.709,4.009l-3.339,5.265l-1.721,7.686
	l-4.289,7.805l-4.808,8.834l-3.28,10.738l3.197,10.598l2.656,6.71l-0.305,10.059l12.361,8.366l4.301,3.878l8.07,3.486l6.097,5.262
	l2.08,4.511l5.777,7.585l8.156,6.499l9.623,5.722l1.727,1.977l7.728,8.913l1.453,0.813l10.98,6.012l0.237,0.027l2.54,3.663
	l12.882,5.033l12.515,2.219l7.339,2.73l1.448,0.792l2.278,3.123l10.015,5.044l8.254,7.523l2.104,0.331l8.171,3.977l2.338,0.527
	l6.861,4.729l2.085,1.729l5.31,8.936l11.92,4.052l7.289-0.783l6.47-1.294L199.518,273.709z"/>
<path fill="#2AAAE2" stroke="#2E368F" stroke-width="1.25" stroke-linecap="round" stroke-linejoin="round" stroke-opacity="0.5" d="
	M18.676,92.069l-0.614,0.97l-3.339,5.266l-1.721,7.686l-4.289,7.805l-4.808,8.834l-3.28,10.738l3.197,10.598l2.656,6.71
	l-0.305,10.059l12.361,8.366l4.301,3.878l8.07,3.486l6.097,5.262l0.462,0.397"/>
<path fill="#2AAAE2" stroke="#2E368F" stroke-width="1.25" stroke-linecap="round" stroke-linejoin="round" stroke-opacity="0.5" d="
	M83.056,221.944l0.498,0.092l4.025,0.743l0.089,0.018l3.399,0.627l2.208,0.406l0.075,0.016l0.391,0.13l4.017,1.336l5.225,1.739
	l3.174,1.056l2.922,0.834l13.706,2.168l14.696,0.558l12.083,7.45l10.449,8.977l4.577,2.703l8.21,4.846"/>
<path fill="#2AAAE2" stroke="#2E368F" stroke-width="1.25" stroke-linecap="round" stroke-linejoin="round" stroke-opacity="0.5" d="
	M37.002,181.724l2.08,4.511l5.777,7.585l8.156,6.499l9.623,5.722l1.727,1.977l7.728,8.913l1.453,0.812l10.98,6.013l0.237,0.026
	l10.542,1.242l2.453,0.289"/>
<path fill="#2AAAE2" stroke="#2E368F" stroke-width="1.25" stroke-linecap="round" stroke-linejoin="round" stroke-opacity="0.5" d="
	M101.043,32.025l-10.23,3.405l-5.723,3.298l-4.136,4.634l-4.139,4.563l-4.047,4.563l-3.742,2.75l-0.96,0.706l-4.577,3.358"/>
<path fill="#2AAAE2" stroke="#2E368F" stroke-width="1.25" stroke-linecap="round" stroke-linejoin="round" stroke-opacity="0.5" d="
	M69.026,55.238l-3.213,1.249l-5.673,1.966l-5.444,1.729l-5.055,3.016l-6.21,1.065l-4.942,3.932l-1.374,1.401l-5.669,5.14
	l-4.043,2.486l-4.522,5.597l-4.11,6.214l-0.709,4.009"/>
<path fill="#2AAAE2" stroke="#2E368F" stroke-width="1.25" stroke-linecap="round" stroke-linejoin="round" stroke-opacity="0.5" d="
	M217.056,143.545l-1.172-4.57l-0.552-2.152l-0.132-0.513l-0.101-0.391l-0.517-2.013l-0.133-0.517l-0.803-3.131l-0.843-5.785
	l-0.252-1.735l-0.14-0.96l-0.117-0.807l-0.831-5.706"/>
<path fill="#2AAAE2" stroke="#2E368F" stroke-width="1.25" stroke-linecap="round" stroke-linejoin="round" stroke-opacity="0.5" d="
	M95.305,225.021l4.49,1.695l3.188,0.333"/>
<path fill="#2AAAE2" stroke="#2E368F" stroke-width="1.25" stroke-linecap="round" stroke-linejoin="round" stroke-opacity="0.5" d="
	M221.967,154.195l-2.103-6.322l-1.248-3.754l-0.863-2.594l-2.27-5.457l-0.9-2.161"/>
<path fill="#2AAAE2" stroke="#2E368F" stroke-width="1.25" stroke-linecap="round" stroke-linejoin="round" stroke-opacity="0.5" d="
	M157.917,252.83l7.947,3.255l4.496,1.84l18.666,7.182l1.082,0.417l2.748,0.792l17.303-1.068l8.801-1.96l3-0.669l12.587-13.545
	l5.503-5.681l4.357-5.264l0.742-0.896"/>
<path fill="#2AAAE2" stroke="#2E368F" stroke-width="1.25" stroke-linecap="round" stroke-linejoin="round" stroke-opacity="0.5" d="
	M212.805,124.475l0.306-4.672l0.179-2.756l0.237-3.641"/>
<path fill="#2AAAE2" stroke="#2E368F" stroke-width="1.25" stroke-linecap="round" stroke-linejoin="round" stroke-opacity="0.5" d="
	M180.292,2.817l-3.314-0.12l-19.996,0.342l-4.148,0.071l-3.803,0.743l-9.245,9.668l-0.696,0.727l-3.537,1.547l-6.082,2.654
	l-6.359,2.775l-6.563,2.611l-9.786,4.33l-5.72,3.858l-2.976,2.008"/>
<path fill="#2AAAE2" stroke="#2E368F" stroke-width="1.25" stroke-linecap="round" stroke-linejoin="round" stroke-opacity="0.5" d="
	M127.395,233.056l10.873,5.156l10.373,6.37"/>
<path fill="#2AAAE2" stroke="#2E368F" stroke-width="1.25" stroke-linecap="round" stroke-linejoin="round" stroke-opacity="0.5" d="
	M227.44,164.213l-5.049-12.121l-3.775-7.974"/>
<path fill="#2AAAE2" stroke="#2E368F" stroke-width="1.25" stroke-linecap="round" stroke-linejoin="round" stroke-opacity="0.5" d="
	M139.786,13.521l-4.233,2.272"/>
<path fill="#2AAAE2" stroke="#2E368F" stroke-width="1.25" stroke-linecap="round" stroke-linejoin="round" stroke-opacity="0.5" d="
	M213.11,119.803l1.547-8.163"/>
<path fill="#2AAAE2" stroke="#2E368F" stroke-width="1.25" stroke-linecap="round" stroke-linejoin="round" stroke-opacity="0.5" d="
	M146.688,248.029l2.076,1.175l1.01,0.571l7.687,4.353l8.403,1.956"/>
<path fill="#2AAAE2" stroke="#2E368F" stroke-width="1.25" stroke-linecap="round" stroke-linejoin="round" stroke-opacity="0.5" d="
	M215.483,136.068l-2.604-12.684"/>
<path fill="#2AAAE2" stroke="#2E368F" stroke-width="1.25" stroke-linecap="round" stroke-linejoin="round" stroke-opacity="0.5" d="
	M84.763,223.779l2.54,3.664l12.882,5.033l12.515,2.218l7.339,2.731l1.194,0.442l2.982,1.11"/>
<path fill="#2AAAE2" stroke="#2E368F" stroke-width="1.25" stroke-linecap="round" stroke-linejoin="round" stroke-opacity="0.5" d="
	M145.765,249.071l4.01,0.704"/>
<path fill="#2AAAE2" stroke="#2E368F" stroke-width="1.25" stroke-linecap="round" stroke-linejoin="round" stroke-opacity="0.5" d="
	M215.528,109.688l0.605-13.968l3.655-16.112"/>
<path fill="#2AAAE2" stroke="#2E368F" stroke-width="1.25" stroke-linecap="round" stroke-linejoin="round" stroke-opacity="0.5" d="
	M245.013,237.315l0.137-0.082l4.426-2.689l0.117-0.072l1.193-0.727l0.041-0.023l0.786-0.479l0.752-0.457l3.588-2.609l2.496-1.816"/>
<path fill="#2AAAE2" stroke="#2E368F" stroke-width="1.25" stroke-linecap="round" stroke-linejoin="round" stroke-opacity="0.5" d="
	M120.039,237.426l1.448,0.792l2.699,1.477l10.246,5.531l9.079,7.457"/>
<path fill="#2AAAE2" stroke="#2E368F" stroke-width="1.25" stroke-linecap="round" stroke-linejoin="round" stroke-opacity="0.5" d="
	M215.196,41.482l-1.035-1.224l-0.92-1.087l-0.113-0.137l-5.146-6.085l-5.523-10.255l-0.721-1.123L189.231,5.967l-4.281-5.342
	l-19.973,1.053l-8.412,0.441l-3.732,0.99"/>
<path fill="#2AAAE2" stroke="#2E368F" stroke-width="1.25" stroke-linecap="round" stroke-linejoin="round" stroke-opacity="0.5" d="
	M121.487,238.218l2.278,3.123l10.015,5.044l8.254,7.522l2.104,0.331l10.611,1.667"/>
<path fill="#2AAAE2" stroke="#2E368F" stroke-width="1.25" stroke-linecap="round" stroke-linejoin="round" stroke-opacity="0.5" d="
	M244.407,238.128l0.994-0.56l5.078-3.025l1.379-0.822l0.986-0.344l2.877-1.005l3.99-1.393l4.426-5.218l2.498-2.444l1.557-1.521
	l1.925-3.939"/>
<path fill="#2AAAE2" stroke="#2E368F" stroke-width="1.25" stroke-linecap="round" stroke-linejoin="round" stroke-opacity="0.5" d="
	M250.479,234.543l2.094-0.001l2.369-1.634l0.779-0.535"/>
<path fill="#2AAAE2" stroke="#2E368F" stroke-width="1.25" stroke-linecap="round" stroke-linejoin="round" stroke-opacity="0.5" d="
	M144.138,254.239l8.17,3.978l2.34,0.526l9.018,2.034"/>
<path fill="#2AAAE2" stroke="#2E368F" stroke-width="1.25" stroke-linecap="round" stroke-linejoin="round" stroke-opacity="0.5" d="
	M223.819,88.782l1.844-9.938l0.143-0.771l0.096-0.509l0.032-0.18l0.121-0.654l0.274-1.475v-0.008l-0.068-0.6l-0.009-0.07
	l-0.007-0.044l-0.143-0.911l-0.027-0.177l-0.318-2.055l-1.264-8.118l-1.608-11.387l-5.071-9.821"/>
<path fill="#2AAAE2" stroke="#2E368F" stroke-width="1.25" stroke-linecap="round" stroke-linejoin="round" stroke-opacity="0.5" d="
	M227.575,86.21l-0.5-4.4l-0.223-1.949l-0.105-0.931l-0.041-0.364l-0.377-3.31"/>
<path fill="#2AAAE2" stroke="#2E368F" stroke-width="1.25" stroke-linecap="round" stroke-linejoin="round" stroke-opacity="0.5" d="
	M154.647,258.743l6.86,4.729l2.085,1.729l0.173,0.146l0.868,0.719l7.65,6.345"/>
<path fill="#2AAAE2" stroke="#2E368F" stroke-width="1.25" stroke-linecap="round" stroke-linejoin="round" stroke-opacity="0.5" d="
	M214.157,39.752l3.656,2.313l-1.32-0.692L214.157,39.752l-1.029-0.717"/>
<path fill="#2AAAE2" stroke="#2E368F" stroke-width="1.25" stroke-linecap="round" stroke-linejoin="round" stroke-opacity="0.5" d="
	M228.78,85.395l-1.523-4.845l-0.51-1.62"/>
<path fill="#2AAAE2" stroke="#2E368F" stroke-width="1.25" stroke-linecap="round" stroke-linejoin="round" stroke-opacity="0.5" d="
	M163.766,265.345l6.771,9.015"/>
<path fill="#2AAAE2" stroke="#2E368F" stroke-width="1.25" stroke-linecap="round" stroke-linejoin="round" stroke-opacity="0.5" d="
	M237.282,93.172l-6.135-9.086l-4.441-5.521"/>
<path fill="#2AAAE2" stroke="#2E368F" stroke-width="1.25" stroke-linecap="round" stroke-linejoin="round" stroke-opacity="0.5" d="
	M254.942,232.909l5.703-1.438l2.766-1.485l1.793-3.476l1.432-3.191"/>
<path fill="#2AAAE2" stroke="#2E368F" stroke-width="1.25" stroke-linecap="round" stroke-linejoin="round" stroke-opacity="0.5" d="
	M268.113,220.341l2.003-2.484l2.147-2.664l2.652-8.704l3.015-8.985l3.773-9.146l1.855-6.472l-0.773-7.361l-0.26-2.462"/>
<path fill="#2AAAE2" stroke="#2E368F" stroke-width="1.25" stroke-linecap="round" stroke-linejoin="round" stroke-opacity="0.5" d="
	M163.593,265.2l5.309,8.937l11.922,4.052l7.287-0.784l6.471-1.293l4.937-2.4l5.358-1.619l5.102-2.388l4.663-2.521l3.709-3.157
	l0.61-0.738"/>
<path fill="#2AAAE2" stroke="#2E368F" stroke-width="1.25" stroke-linecap="round" stroke-linejoin="round" stroke-opacity="0.5" d="
	M281.106,178.843l-0.09-3.522l-0.497-6.512"/>
<path fill="#2AAAE2" stroke="#2E368F" stroke-width="1.25" stroke-linecap="round" stroke-linejoin="round" stroke-opacity="0.5" d="
	M226.53,75.08l-0.285-0.545"/>
<path fill="#2AAAE2" stroke="#2E368F" stroke-width="1.25" stroke-linecap="round" stroke-linejoin="round" stroke-opacity="0.5" d="
	M273.884,145.509l-1.36-3.792l-2.217-6.182l-3.06-7.479l-4.074-7.334l-4.661-7.696l-5.317-7.757l-7.215-7.515l-7.496-6.993
	l-4.153-9.08l-5.229-7.538l-3.344-2.752"/>
<path fill="#2AAAE2" stroke="#2E368F" stroke-width="1.25" stroke-linecap="round" stroke-linejoin="round" stroke-opacity="0.5" d="
	M227.25,75.076l-1.175-1.629"/>
<path fill="#2AAAE2" stroke="#2E368F" stroke-width="1.25" stroke-linecap="round" stroke-linejoin="round" stroke-opacity="0.5" d="
	M281.394,161.767l-1.519-5.688l-1.635-6.126l-1.659-4.136l-4.059-4.1"/>
<path fill="#2AAAE2" stroke="#2E368F" stroke-width="1.25" stroke-linecap="round" stroke-linejoin="round" stroke-opacity="0.5" d="
	M282.787,174.524l1.221-6.11l-0.514-3.591l-3.619-8.745"/>
</svg>
