<?xml version="1.0" encoding="utf-8"?>
<!-- Generator: Adobe Illustrator 16.0.0, SVG Export Plug-In . SVG Version: 6.00 Build 0)  -->
<!DOCTYPE svg PUBLIC "-//W3C//DTD SVG 1.1//EN" "http://www.w3.org/Graphics/SVG/1.1/DTD/svg11.dtd">
<svg version="1.1" id="Layer_1" xmlns="http://www.w3.org/2000/svg" xmlns:xlink="http://www.w3.org/1999/xlink" x="0px" y="0px"
	 width="200.095px" height="188.249px" viewBox="0 0 200.095 188.249" enable-background="new 0 0 200.095 188.249"
	 xml:space="preserve">
<path fill="#2AAAE2" stroke="#2E368F" stroke-miterlimit="10" d="M22.22,25.582l-8.124,3.304l-6.762,7.523l-1.646,9.654
	l-4.422,8.763l-0.64,11.996l1.661,12.286l3.604,10.482l1.992,4.345l0.113,0.208l2.51,5.423l2.737,10.692l3.867,10.012l4.333,10.026
	l4.459,10.125l3.638,10.96l7.313,8.663l9.517,4.657l7.424,7.338l9.285,3.188l4.446,1.317l4.967,2.407l13.605,2.184l13.045,4.12
	l0.605,0.208l2.101,0.542l5.923,1.616l0.142-0.075l7.206-2.035l1.771,0.058l10.038-3.668l5.597-0.641l14.439-3.386l2.657-1.338
	l2.304-0.355l7.41-4.016l6.575-4.174l6.242-4.705l2.181-2.828l4.585-6.795l1.923-5.512l0.857-12.838l0.066-0.96l0.495-2.727
	l0.208-0.741l2.297-4.662l3.099-7.765l1.569-4.862l1.343-3.258l0.669-3.685l2.629-6.537l2.004-8.061l2.188-8.147l0.302-4.08
	l0.902-3.487l-2.688-9.453l-0.693-4.551l-1.867-5.443l-3.801-6.671l-5.957-10.262l-4.136-8.983l-5.729-8.781l-9.537-4.155
	l-7.72-5.748l-8.68-4.969l-9.565-3.716l-10.304-1.132l-9.646-0.953l-8.908-0.902l-8.44,0.415l-7.621,2.022l-6.694,1.423
	l-6.173,2.189l-4.892,3.881l-1.362,2.979l-0.249,0.023L65.7,14.349l-9.43,1.556l-4.173,3.036l-4.923,0.006l-8.06,2.981l-8.79,0.666
	L22.22,25.582z"/>
<path fill="#2AAAE2" stroke="#2E368F" stroke-width="1.25" stroke-linecap="round" stroke-linejoin="round" stroke-opacity="0.5" d="
	M56.971,18.938l-4.876,0.005l-4.924,0.006l-8.059,2.982l-8.79,0.666l-8.104,2.984l-8.124,3.304l-6.762,7.523l-1.646,9.654
	l-4.422,8.763l-0.64,11.996l1.661,12.286l3.604,10.481"/>
<path fill="#2AAAE2" stroke="#2E368F" stroke-width="1.25" stroke-linecap="round" stroke-linejoin="round" stroke-opacity="0.5" d="
	M126.205,179.726l5.15,0.438l0.334,0.029l3.093,0.264l9.292-3.063"/>
<path fill="#2AAAE2" stroke="#2E368F" stroke-width="1.25" stroke-linecap="round" stroke-linejoin="round" stroke-opacity="0.5" d="
	M7.998,94.144l-0.114-0.208l-1.991-4.345L7.998,94.144l2.509,5.423l2.738,10.693l3.867,10.011l4.333,10.026l4.459,10.125
	l3.638,10.96l7.313,8.663l9.517,4.657l7.424,7.338l9.285,3.188l4.446,1.317l4.967,2.407l13.605,2.185l13.045,4.119"/>
<path fill="#2AAAE2" stroke="#2E368F" stroke-width="1.25" stroke-linecap="round" stroke-linejoin="round" stroke-opacity="0.5" d="
	M92.388,182.246l3.501,1.184l4.802,1.622l0.789,0.023l10.453,0.336l3.188,0.104l1.771,0.057l10.038-3.668"/>
<path fill="#2AAAE2" stroke="#2E368F" stroke-width="1.25" stroke-linecap="round" stroke-linejoin="round" stroke-opacity="0.5" d="
	M92.982,10.074L85.392,12.3l-1.434,0.419l-6.122,0.563l-0.672,0.063l-2.11,0.192l-0.249,0.023l-9.107,0.792l-9.43,1.555
	l-4.173,3.036"/>
<path fill="#2AAAE2" stroke="#2E368F" stroke-width="1.25" stroke-linecap="round" stroke-linejoin="round" stroke-opacity="0.5" d="
	M180.643,146.519l-0.365-3.045l-0.065-0.549l-0.006-0.045l-0.31-2.595l-0.204-1.646l-0.001-0.01l-0.005-0.041l-0.196-1.584
	l-0.032-0.263l-0.071-0.593l-0.007-0.037l-0.005-0.037l-0.021-0.191l-0.002-0.016l-0.002-0.01l-0.019-0.138l-0.008-0.065
	l-0.026-0.212l-0.044-0.354l-0.058-0.472l-0.006-0.047l-0.054-0.433l-0.008-0.057l-0.058-0.465l-0.002-0.01l-0.019-0.15
	l-0.014-0.098l-0.069-0.563l-0.047-0.365l-0.277-2.222l-0.035-0.28l-0.009-0.062l-0.021-0.173l-0.017-0.135l-0.009-0.062
	l-0.145-1.146l-0.028-0.224l-0.758-6.041"/>
<path fill="#2AAAE2" stroke="#2E368F" stroke-width="1.25" stroke-linecap="round" stroke-linejoin="round" stroke-opacity="0.5" d="
	M86.208,178.319l6.181,3.927l4.972,2.176l2.081,0.909l0.104,0.048l0.012,0.005l0.192,0.084l-0.605-0.208l-6.865-2.355"/>
<path fill="#2AAAE2" stroke="#2E368F" stroke-width="1.25" stroke-linecap="round" stroke-linejoin="round" stroke-opacity="0.5" d="
	M120.233,15.524l-0.412-0.242l-1.184-0.697l-0.146-0.085l-5.533-3.254l-3.492-1.861l-6.025-3.217l-5.736,1.001l-9.092,3.863
	L85.392,12.3"/>
<path fill="#2AAAE2" stroke="#2E368F" stroke-width="1.25" stroke-linecap="round" stroke-linejoin="round" stroke-opacity="0.5" d="
	M168.796,73.233l-2.319-8.878l-0.35-1.332l-0.002-0.005l-0.052-0.158l-0.437-1.32l-0.256-0.767l-0.248-0.754l-0.272-0.825"/>
<path fill="#2AAAE2" stroke="#2E368F" stroke-width="1.25" stroke-linecap="round" stroke-linejoin="round" stroke-opacity="0.5" d="
	M166.127,63.023l-0.137-0.199l-0.189-0.278l-1.71-2.492l-1.064-1.558l-1.907-2.78l-0.135-0.198l-0.56-1.667l-1.183-3.527
	l-0.405-1.207l-0.574-1.72l-4.092-7.209l-5.11-5.975l-3.257-6.96l-5.412-5.069l-10.478-5.571l-4.291-1.096"/>
<path fill="#2AAAE2" stroke="#2E368F" stroke-width="1.25" stroke-linecap="round" stroke-linejoin="round" stroke-opacity="0.5" d="
	M124.44,182.188l2.487-0.284l5.597-0.64l14.438-3.387l2.658-1.338"/>
<path fill="#2AAAE2" stroke="#2E368F" stroke-width="1.25" stroke-linecap="round" stroke-linejoin="round" stroke-opacity="0.5" d="
	M178.919,153.667l1.725-7.147l0.008-5.062l0.001-0.787"/>
<path fill="#2AAAE2" stroke="#2E368F" stroke-width="1.25" stroke-linecap="round" stroke-linejoin="round" stroke-opacity="0.5" d="
	M127.632,16.7l-2.009-1.185l-8.492-5.011l-7.665-1.121"/>
<path fill="#2AAAE2" stroke="#2E368F" stroke-width="1.25" stroke-linecap="round" stroke-linejoin="round" stroke-opacity="0.5" d="
	M99.75,185.467l2.101,0.542l6.021,1.553l0.042-0.012l7.206-2.035"/>
<path fill="#2AAAE2" stroke="#2E368F" stroke-width="1.25" stroke-linecap="round" stroke-linejoin="round" stroke-opacity="0.5" d="
	M176.771,105.749l-0.858-9.184l-3.083-12.972"/>
<path fill="#2AAAE2" stroke="#2E368F" stroke-width="1.25" stroke-linecap="round" stroke-linejoin="round" stroke-opacity="0.5" d="
	M143.297,177.516l0.777-0.12l3.942-0.608l0.355-0.055l1.249-0.192l2.303-0.354l7.411-4.017l6.575-4.174l6.242-4.705l2.181-2.828
	l4.585-6.795l1.922-5.512l0.858-12.838l0.066-0.96l0.088-1.286l0.029-0.431l0.046-0.653l0.026-0.4l0.028-0.416l0.055-0.795
	l0.045-0.644l0.005-0.074l0.006-0.062l0.011-0.153l0.047-0.69l0.013-0.184l0.002-0.023l0.008-0.113l0.005-0.051l0.022-0.345v-0.001
	l0.032-0.472l0.009-0.123l0.047-0.688l0.048-0.692l0.008-0.088l0.076-1.129l0.146-2.126l0.011-0.159"/>
<path fill="#2AAAE2" stroke="#2E368F" stroke-width="1.25" stroke-linecap="round" stroke-linejoin="round" stroke-opacity="0.5" d="
	M172.075,78.44l-0.053-2.123l-0.105-4.176l-0.005-0.228l-0.007-0.275l-0.037-1.469l-0.073-2.913l-2.066-2.613l-1.519-1.916
	l-0.938-1.099l-0.146-0.171l-4.021-4.696l-1.104-1.287l-1.575-1.625"/>
<path fill="#2AAAE2" stroke="#2E368F" stroke-width="1.25" stroke-linecap="round" stroke-linejoin="round" stroke-opacity="0.5" d="
	M173.085,87.776l-0.256-4.183l-0.397-6.519l-0.279-4.565l-0.246-0.871"/>
<path fill="#2AAAE2" stroke="#2E368F" stroke-width="1.25" stroke-linecap="round" stroke-linejoin="round" stroke-opacity="0.5" d="
	M172.151,72.51l-0.239-0.596"/>
<path fill="#2AAAE2" stroke="#2E368F" stroke-width="1.25" stroke-linecap="round" stroke-linejoin="round" stroke-opacity="0.5" d="
	M101.85,186.009l5.923,1.615l0.142-0.074"/>
<path fill="#2AAAE2" stroke="#2E368F" stroke-width="1.25" stroke-linecap="round" stroke-linejoin="round" stroke-opacity="0.5" d="
	M181.351,128.918l0.68-3.518l0.511-2.648l0.037-0.191l0.135-0.698l0.073-0.377l0.121-0.626l0.056-0.291l0.596-3.076l0.024-0.132
	l0.421-2.178"/>
<path fill="#2AAAE2" stroke="#2E368F" stroke-width="1.25" stroke-linecap="round" stroke-linejoin="round" stroke-opacity="0.5" d="
	M176.971,92.489l-1.583-8.336l-1.541-8.705l-1.979-5.277"/>
<path fill="#2AAAE2" stroke="#2E368F" stroke-width="1.25" stroke-linecap="round" stroke-linejoin="round" stroke-opacity="0.5" d="
	M183.015,121.664l1.528-6.739l-1.146,4.349l-0.236,0.896l-0.057,0.215l-0.392,1.479"/>
<path fill="#2AAAE2" stroke="#2E368F" stroke-width="1.25" stroke-linecap="round" stroke-linejoin="round" stroke-opacity="0.5" d="
	M182.534,107.742l-1.033-8.165l-4.023-14.799l-3.104-7.183"/>
<path fill="#2AAAE2" stroke="#2E368F" stroke-width="1.25" stroke-linecap="round" stroke-linejoin="round" stroke-opacity="0.5" d="
	M181.766,134.357l0.495-2.726l0.091-0.502l0.082-0.452l0.081-0.447l0.254-1.4l0.063-0.347l0.071-0.391"/>
<path fill="#2AAAE2" stroke="#2E368F" stroke-width="1.25" stroke-linecap="round" stroke-linejoin="round" stroke-opacity="0.5" d="
	M169.728,64.644l-1.722-4.062l-0.674-1.589l-1.215-0.641l-3.015-1.592"/>
<path fill="#2AAAE2" stroke="#2E368F" stroke-width="1.25" stroke-linecap="round" stroke-linejoin="round" stroke-opacity="0.5" d="
	M184.544,114.924l1.772-7.49l-1.23-8.32l-0.324-1.017l-0.531-1.654L180.205,83.9l-3.503-7.456"/>
<path fill="#2AAAE2" stroke="#2E368F" stroke-width="1.25" stroke-linecap="round" stroke-linejoin="round" stroke-opacity="0.5" d="
	M182.261,131.632l0.208-0.741l0.172-0.609l0.154-0.553l0.973-3.443l0.085-0.301l0.013-0.045l0.06-0.212l0.118-0.421l0.066-0.234
	l0.157-0.556l0.078-0.276l0.028-0.106l0.623-2.207l0.435-1.538l0.757-2.603l0.052-0.181l0.837-2.877l0.769-2.643l0.688-2.87
	l1.476-6.147l0.043-0.182"/>
<path fill="#2AAAE2" stroke="#2E368F" stroke-width="1.25" stroke-linecap="round" stroke-linejoin="round" stroke-opacity="0.5" d="
	M184.761,98.097l-1.197-7.535"/>
<path fill="#2AAAE2" stroke="#2E368F" stroke-width="1.25" stroke-linecap="round" stroke-linejoin="round" stroke-opacity="0.5" d="
	M187.845,112.087l0.093-0.757l0.366-2.998l0.476-3.893l-1.505-6.949l-3.629-16.184l-1.877-8.685"/>
<path fill="#2AAAE2" stroke="#2E368F" stroke-width="1.25" stroke-linecap="round" stroke-linejoin="round" stroke-opacity="0.5" d="
	M189.93,110.604l0.003-0.185l0.012-0.724v-0.021l0.002-0.146l0.001-0.04l0.025-1.561l0.052-3.32l0.002-0.126l0.025-1.598l0.05-8.854
	"/>
<path fill="#2AAAE2" stroke="#2E368F" stroke-width="1.25" stroke-linecap="round" stroke-linejoin="round" stroke-opacity="0.5" d="
	M174.164,67.855l-3.766-8.009l-11.563-10.731"/>
<path fill="#2AAAE2" stroke="#2E368F" stroke-width="1.25" stroke-linecap="round" stroke-linejoin="round" stroke-opacity="0.5" d="
	M182.469,130.891l2.297-4.663l-2.125,4.054"/>
<path fill="#2AAAE2" stroke="#2E368F" stroke-width="1.25" stroke-linecap="round" stroke-linejoin="round" stroke-opacity="0.5" d="
	M185.071,121.702l0.059-0.125l0.454-0.959l0.595-1.251l1.387-2.929l0.523-1.296l0.523-1.288l0.267-0.658l0.221-0.541l0.831-2.051
	l0.182-0.628l0.598-2.066l0.032-0.108l0.449-1.555l0.885-3.058l0.449-1.551l0.612-3.559l0.354-2.065l0.415-2.413l0.118-0.69
	l-0.33-3.466l-1.198-12.549l-1.492-7.497l-2.572-9.121l-2.118-5.938"/>
<path fill="#2AAAE2" stroke="#2E368F" stroke-width="1.25" stroke-linecap="round" stroke-linejoin="round" stroke-opacity="0.5" d="
	M187.937,87.148l-0.928-7.996l-1.478-9.104l-4.334-7.245l-3.932-6.307"/>
<path fill="#2AAAE2" stroke="#2E368F" stroke-width="1.25" stroke-linecap="round" stroke-linejoin="round" stroke-opacity="0.5" d="
	M184.766,126.228l3.099-7.764l1.569-4.862l0.466-1.444"/>
<path fill="#2AAAE2" stroke="#2E368F" stroke-width="1.25" stroke-linecap="round" stroke-linejoin="round" stroke-opacity="0.5" d="
	M184.766,126.228l2.455-6.182l2.073-6.11l0.604-1.778l1.387-5.101l0.265-0.973l0.91-3.354l1.172-4.308l0.198-1.765l0.286-2.541
	l0.249-2.204l0.022-0.43l0.229-4.502l0.143-2.76"/>
<path fill="#2AAAE2" stroke="#2E368F" stroke-width="1.25" stroke-linecap="round" stroke-linejoin="round" stroke-opacity="0.5" d="
	M189.434,113.602l1.343-3.258l0.669-3.686l0.104-0.574"/>
<path fill="#2AAAE2" stroke="#2E368F" stroke-width="1.25" stroke-linecap="round" stroke-linejoin="round" stroke-opacity="0.5" d="
	M135.491,18.071l-7.302-4.973l-5.63-3.652"/>
<path fill="#2AAAE2" stroke="#2E368F" stroke-width="1.25" stroke-linecap="round" stroke-linejoin="round" stroke-opacity="0.5" d="
	M194.165,93.975l2.205-6.682l1.125-3.408l0.117-0.354l0.253-0.978l0.108-0.418l0.594-2.303l0.902-3.486l-2.688-9.454"/>
<path fill="#2AAAE2" stroke="#2E368F" stroke-width="1.25" stroke-linecap="round" stroke-linejoin="round" stroke-opacity="0.5" d="
	M139.041,15.344l-7.929-4.505L117.84,6.767"/>
<path fill="#2AAAE2" stroke="#2E368F" stroke-width="1.25" stroke-linecap="round" stroke-linejoin="round" stroke-opacity="0.5" d="
	M192.461,102.731l1.781-4.929l1.836-5.741"/>
<path fill="#2AAAE2" stroke="#2E368F" stroke-width="1.25" stroke-linecap="round" stroke-linejoin="round" stroke-opacity="0.5" d="
	M89.223,8.327l-6.08,1.743l-0.297,0.163l-5.682,3.109"/>
<path fill="#2AAAE2" stroke="#2E368F" stroke-width="1.25" stroke-linecap="round" stroke-linejoin="round" stroke-opacity="0.5" d="
	M83.143,10.07l-2.623,0.858"/>
<path fill="#2AAAE2" stroke="#2E368F" stroke-width="1.25" stroke-linecap="round" stroke-linejoin="round" stroke-opacity="0.5" d="
	M193.632,98.424l0.217-1.799l0.316-2.65l0.366-3.054l0.271-1.097l1.882-7.657l0.484-1.977l0.078-0.317l0.036-0.144l0.176-0.718
	l0.606-2.464l-0.481-3.823l-0.4-3.2l-0.401-2.633l-0.693-4.55l-1.867-5.444l-3.801-6.671l-5.957-10.261l-4.136-8.984L174.6,22.2
	l-9.537-4.154l-7.72-5.748l-8.68-4.97l-9.565-3.716L128.794,2.48l-9.646-0.953l-8.908-0.902l-8.44,0.415l-7.621,2.022l-6.694,1.423
	l-6.173,2.19l-4.892,3.881l-1.362,2.979"/>
<path fill="#2AAAE2" stroke="#2E368F" stroke-width="1.25" stroke-linecap="round" stroke-linejoin="round" stroke-opacity="0.5" d="
	M191.445,106.659l2.629-6.537l2.004-8.061l2.188-8.147l0.302-4.079"/>
<path fill="#2AAAE2" stroke="#2E368F" stroke-width="1.25" stroke-linecap="round" stroke-linejoin="round" stroke-opacity="0.5" d="
	M105.507,3.104l-7.555-0.127l-3.777,0.086"/>
</svg>
