<?xml version="1.0" encoding="utf-8"?>
<!-- Generator: Adobe Illustrator 16.0.0, SVG Export Plug-In . SVG Version: 6.00 Build 0)  -->
<!DOCTYPE svg PUBLIC "-//W3C//DTD SVG 1.1//EN" "http://www.w3.org/Graphics/SVG/1.1/DTD/svg11.dtd">
<svg version="1.1" id="Layer_1" xmlns="http://www.w3.org/2000/svg" xmlns:xlink="http://www.w3.org/1999/xlink" x="0px" y="0px"
	 width="197.592px" height="180.056px" viewBox="0 0 197.592 180.056" enable-background="new 0 0 197.592 180.056"
	 xml:space="preserve">
<path fill="#2AAAE2" stroke="#2E368F" stroke-miterlimit="10" d="M14.396,30.023l-1.808,3.648L9.062,53.021l-0.076,1.255
	l-2.198,4.05l-6.162,9.388l4.732,12.474l0.896,8.359l1.611,11.116l2.923,10.485l5.49,10.733l3.601,9.134l-0.183,12.468l7.875,6.668
	l9.138,4.011l9.583,3.529l7.964,6.606l8.581,2.114l8.79,2.189l1.843,1.692l5.366,4.234l4.151,0.718l3.914,1.008l7.932,3.104
	l7.854-0.438l4.62,1.51l3.255-1.833l3.119,1.043l7.98-3.454l7.056-2.241l7.262-4.806l6.149-4.097l4.013-9.096l3.113-4.091
	l0.54-0.188l3.208-3.869l0.205-0.383l0.629-0.659l4.62-4.574l2.297-4.82l0.174-0.222l2.077-1.596l0.924-1.665l0.362-1.007
	l0.014-0.026l4.354-5.538l8.454-9.113l7.639-6.485l7.056-6.366l2.995-6.014l1.324-9.586l0.842-7.738l-1.269-7.61l-0.178-14.009
	l-0.708-7.043l-2.554-6.381l-3.569-6.472l-1.729-2.538l-1.28-1.243l-2.19-2.753l-8.172-6.965l-1.495-0.889l-1.741-4.44l-6.68-4.628
	l-6.521-5.142l-7.26-3.479l-7.289-3.172l-6.924-3.619l-7.604,1.422l-2.697,0.813l-0.736,0.01l-9.633,3.43l-5.291,2.658l-1.823,1.75
	l-1.119-0.277l-4.383,0.778l-5.514,2.694l-6.914,0.827l-9.558,3.283l-1.854,1.293L75.11,21.26l-9.084,5.611l-11.005,1.577
	L44.01,28.352l-10.324,1.771L23.36,31.285L14.396,30.023z"/>
<path fill="#2AAAE2" stroke="#2E368F" stroke-width="1.25" stroke-linecap="round" stroke-linejoin="round" stroke-opacity="0.5" d="
	M5.02,77.024l0.338,3.161l0.896,8.359l1.61,11.116l2.924,10.485l5.49,10.733"/>
<path fill="#2AAAE2" stroke="#2E368F" stroke-width="1.25" stroke-linecap="round" stroke-linejoin="round" stroke-opacity="0.5" d="
	M11.934,48.851l-2.948,5.425l-2.198,4.05l-6.162,9.388l4.732,12.474"/>
<path fill="#2AAAE2" stroke="#2E368F" stroke-width="1.25" stroke-linecap="round" stroke-linejoin="round" stroke-opacity="0.5" d="
	M84.977,17.53l-1.067,0.404l-3.628,1.371l-5.171,1.955l-9.084,5.611l-11.005,1.577L44.01,28.353l-10.324,1.771L23.36,31.286
	l-8.964-1.265l-1.605,7.728l-1.164,7.427"/>
<path fill="#2AAAE2" stroke="#2E368F" stroke-width="1.25" stroke-linecap="round" stroke-linejoin="round" stroke-opacity="0.5" d="
	M15.919,119.973l0.357,0.908l3.601,9.134"/>
<path fill="#2AAAE2" stroke="#2E368F" stroke-width="1.25" stroke-linecap="round" stroke-linejoin="round" stroke-opacity="0.5" d="
	M19.879,129.899l-0.002,0.115l-0.183,12.468l7.874,6.668l9.139,4.011l9.583,3.529l7.964,6.606l8.581,2.114l8.79,2.189"/>
<path fill="#2AAAE2" stroke="#2E368F" stroke-width="1.25" stroke-linecap="round" stroke-linejoin="round" stroke-opacity="0.5" d="
	M96.563,17.373l-8.66,0.117h-0.005l-2.921,0.04l-2.84,0.482l9.558-3.283l6.914-0.827l2.88-0.345"/>
<path fill="#2AAAE2" stroke="#2E368F" stroke-width="1.25" stroke-linecap="round" stroke-linejoin="round" stroke-opacity="0.5" d="
	M14.396,30.023l-1.808,3.648L9.062,53.021l-0.076,1.255"/>
<path fill="#2AAAE2" stroke="#2E368F" stroke-width="1.25" stroke-linecap="round" stroke-linejoin="round" stroke-opacity="0.5" d="
	M82.137,18.013l-1.855,1.293"/>
<path fill="#2AAAE2" stroke="#2E368F" stroke-width="1.25" stroke-linecap="round" stroke-linejoin="round" stroke-opacity="0.5" d="
	M68.438,164.673l3.188,2.93l1.843,1.692l5.366,4.234l4.151,0.718"/>
<path fill="#2AAAE2" stroke="#2E368F" stroke-width="1.25" stroke-linecap="round" stroke-linejoin="round" stroke-opacity="0.5" d="
	M73.468,169.295l5.874,4.015l3.645,0.938l3.914,1.008l7.932,3.104l7.854-0.437l5.838-0.322l0.985-0.354l0.755-0.271l0.961-0.346
	h0.001l0.184-0.064l0.788-0.284l0.068-0.024l1.863-0.668l-1.905,1.072l-0.204,0.116l-0.365,0.205l-0.639,0.358l-0.455,0.257
	l-3.255,1.833l-4.62-1.51"/>
<path fill="#2AAAE2" stroke="#2E368F" stroke-width="1.25" stroke-linecap="round" stroke-linejoin="round" stroke-opacity="0.5" d="
	M159.812,71.556l-0.074-7.442l-2.693-6.455l-3.148-4.948l-0.36-0.565l-0.982-1.546"/>
<path fill="#2AAAE2" stroke="#2E368F" stroke-width="1.25" stroke-linecap="round" stroke-linejoin="round" stroke-opacity="0.5" d="
	M126.599,161.308l2.364-1.591l0.088-0.059l0.553-0.372l2.839-1.908l1.673-1.124l3.922-2.066l3.184-1.682l0.554-0.292l0.095-0.049
	l2.388-1.26l0.242-0.128l1.109-0.689l0.427-0.264l0.096-0.061l0.204-0.127l1.358-0.846l3.248-2.017l4.685-5.001l0.004-0.005
	l0.014-0.021l0.79-1.186l0.956-1.437"/>
<path fill="#2AAAE2" stroke="#2E368F" stroke-width="1.25" stroke-linecap="round" stroke-linejoin="round" stroke-opacity="0.5" d="
	M132.847,25.679l-4.255-4.844l-5.45-5.367l6.985,2.44l6.421,2.597l3.416,6.329l5.467,3.479l1.658,2.059l0.412,1.766l0.835,3.578"/>
<path fill="#2AAAE2" stroke="#2E368F" stroke-width="1.25" stroke-linecap="round" stroke-linejoin="round" stroke-opacity="0.5" d="
	M123.142,15.468l-7.248-3.195l-6.271-1.564l-1.119-0.277l-4.383,0.778l-5.514,2.694"/>
<path fill="#2AAAE2" stroke="#2E368F" stroke-width="1.25" stroke-linecap="round" stroke-linejoin="round" stroke-opacity="0.5" d="
	M153.796,142.937l0.893-0.946l1.904-2.018l0.795-0.845l0.932-0.986l0.154-0.117l1.235-0.949l1.107-0.852l0.108-0.083l2.077-1.596
	l0.924-1.665l0.362-1.007"/>
<path fill="#2AAAE2" stroke="#2E368F" stroke-width="1.25" stroke-linecap="round" stroke-linejoin="round" stroke-opacity="0.5" d="
	M152.771,51.424l-0.056-0.212l-0.161-0.602l-0.004-0.013l-0.509-1.903l-0.044-0.164l-0.809-3.015l-0.178-0.665l-0.722-2.7
	l-1.923-6.413l-0.867-1.602"/>
<path fill="#2AAAE2" stroke="#2E368F" stroke-width="1.25" stroke-linecap="round" stroke-linejoin="round" stroke-opacity="0.5" d="
	M116.14,172.497l7.329-5.883l1.055-0.811l1.769-1.354l2.171-1.665l0.048-0.037l0.645-0.494l5.263-4.035l3.62-4.029"/>
<path fill="#2AAAE2" stroke="#2E368F" stroke-width="1.25" stroke-linecap="round" stroke-linejoin="round" stroke-opacity="0.5" d="
	M162.314,83.901l0.979-8.025l-1.648-11.27"/>
<path fill="#2AAAE2" stroke="#2E368F" stroke-width="1.25" stroke-linecap="round" stroke-linejoin="round" stroke-opacity="0.5" d="
	M163.003,134.546l1.286-2.672l0.014-0.026l0.426-0.888l0.564-1.778l0.039-0.123l0.049-0.154l0.881-2.747l0.083-0.259l0.041-0.128
	l0.205-0.642l1.321-4.122l0.58-4.511l-0.131-4.212l-0.008-0.207l-0.024-0.858l-0.021-0.096l-0.031-0.159l-0.005-0.026v-0.002
	l-0.134-0.688l-0.019-0.099l-0.012-0.053l-0.018-0.09l-0.049-0.254l-0.043-0.223l-0.203-1.044l-0.117-0.604l-0.054-0.275
	l-0.285-1.469l-0.197-1.014l-0.798-11.65l0.467-2.423l0.583-3.023l-0.108,6.496"/>
<path fill="#2AAAE2" stroke="#2E368F" stroke-width="1.25" stroke-linecap="round" stroke-linejoin="round" stroke-opacity="0.5" d="
	M114.129,175.589l0.168-0.107l1.474-0.962l0.555-0.361l0.587-0.383l0.033-0.022l0.743-0.483l0.109-0.071l0.021-0.014l2.515-1.641
	l0.521-0.341l0.154-0.1l0.693-0.453l4.334-4.457l2.454-3.418l0.021-0.027"/>
<path fill="#2AAAE2" stroke="#2E368F" stroke-width="1.25" stroke-linecap="round" stroke-linejoin="round" stroke-opacity="0.5" d="
	M155.628,141.771l0.15-0.171l1.647-1.851l0.582-0.652l0.465-1.073"/>
<path fill="#2AAAE2" stroke="#2E368F" stroke-width="1.25" stroke-linecap="round" stroke-linejoin="round" stroke-opacity="0.5" d="
	M114.129,175.589l0.188-0.108l1.765-1.026l0.545-0.314l0.639-0.372l0.041-0.024l1.293-0.752l0.506-0.294l0.242-0.142l0.425-0.246
	l1.235-1.205"/>
<path fill="#2AAAE2" stroke="#2E368F" stroke-width="1.25" stroke-linecap="round" stroke-linejoin="round" stroke-opacity="0.5" d="
	M159.231,58.615l-4.372-5.176l-0.322-0.383l-2.373-4.233l-0.165-0.293"/>
<path fill="#2AAAE2" stroke="#2E368F" stroke-width="1.25" stroke-linecap="round" stroke-linejoin="round" stroke-opacity="0.5" d="
	M167.627,107.607l1.062-7.176"/>
<path fill="#2AAAE2" stroke="#2E368F" stroke-width="1.25" stroke-linecap="round" stroke-linejoin="round" stroke-opacity="0.5" d="
	M163.419,79.279l0.275-9.492l0.089-3.028l0.161-0.864l0.125-0.673l0.146-0.771l0.156-0.836l0.025-0.146l0.498-2.668l0.288-1.539
	l0.107-0.572l-4.724-3.081l-0.271-0.177l-5.069-3.311l-0.245-0.16"/>
<path fill="#2AAAE2" stroke="#2E368F" stroke-width="1.25" stroke-linecap="round" stroke-linejoin="round" stroke-opacity="0.5" d="
	M167.396,88.028l-1.017-12.674l-0.985-7.015l-1.18-3.892"/>
<path fill="#2AAAE2" stroke="#2E368F" stroke-width="1.25" stroke-linecap="round" stroke-linejoin="round" stroke-opacity="0.5" d="
	M168.093,110.007l0.067-1.036"/>
<path fill="#2AAAE2" stroke="#2E368F" stroke-width="1.25" stroke-linecap="round" stroke-linejoin="round" stroke-opacity="0.5" d="
	M168.044,109.754l0.116-0.783l0.152-1.044l1.161-7.871l0.864-5.601l-0.85-6.355"/>
<path fill="#2AAAE2" stroke="#2E368F" stroke-width="1.25" stroke-linecap="round" stroke-linejoin="round" stroke-opacity="0.5" d="
	M160.297,55.43l-6.132-7.55l-1.037-1.275l-2.115-1.754"/>
<path fill="#2AAAE2" stroke="#2E368F" stroke-width="1.25" stroke-linecap="round" stroke-linejoin="round" stroke-opacity="0.5" d="
	M112.02,176.777l0.435,0.08l0.358-0.126l3.862-1.346l2.36-0.823l7.188-3.536"/>
<path fill="#2AAAE2" stroke="#2E368F" stroke-width="1.25" stroke-linecap="round" stroke-linejoin="round" stroke-opacity="0.5" d="
	M164.529,63.796l-0.132-0.328"/>
<path fill="#2AAAE2" stroke="#2E368F" stroke-width="1.25" stroke-linecap="round" stroke-linejoin="round" stroke-opacity="0.5" d="
	M160.568,55.606l-2.369-3.354l-4.033-4.372"/>
<path fill="#2AAAE2" stroke="#2E368F" stroke-width="1.25" stroke-linecap="round" stroke-linejoin="round" stroke-opacity="0.5" d="
	M168.273,110.935l1.023-1.307l0.672-0.855l0.123-0.319l1.102-2.857l0.529-1.373l0.607-1.576l0.575-1.279l1.301-2.88l0.263-0.583
	l0.135-0.299l0.053-0.118l0.15-0.332l0.523-1.159"/>
<path fill="#2AAAE2" stroke="#2E368F" stroke-width="1.25" stroke-linecap="round" stroke-linejoin="round" stroke-opacity="0.5" d="
	M172.353,97.597l1.072-5.261l0.401-2.984l0.488-3.656l0.104-0.772"/>
<path fill="#2AAAE2" stroke="#2E368F" stroke-width="1.25" stroke-linecap="round" stroke-linejoin="round" stroke-opacity="0.5" d="
	M172.577,86.744l-0.65-12.959"/>
<path fill="#2AAAE2" stroke="#2E368F" stroke-width="1.25" stroke-linecap="round" stroke-linejoin="round" stroke-opacity="0.5" d="
	M171.291,80.768l0.598-6.573l0.038-0.409l0.477-5.249l0.206-2.255l-1.465-1.713l-2.689-3.148l-3.271-2.159"/>
<path fill="#2AAAE2" stroke="#2E368F" stroke-width="1.25" stroke-linecap="round" stroke-linejoin="round" stroke-opacity="0.5" d="
	M168.361,112.284l0.434-0.604l0.086-0.121l1.527-2.709l0.086-0.149l0.225-0.398l0.422-0.748l0.411-0.729l0.214-0.378l2.563-5.055
	l-1.212,1.627l-0.649,0.87l-0.181,0.241l-1.093,1.466"/>
<path fill="#2AAAE2" stroke="#2E368F" stroke-width="1.25" stroke-linecap="round" stroke-linejoin="round" stroke-opacity="0.5" d="
	M141.451,152.711l0.416-0.545"/>
<path fill="#2AAAE2" stroke="#2E368F" stroke-width="1.25" stroke-linecap="round" stroke-linejoin="round" stroke-opacity="0.5" d="
	M174.327,101.391l0.824-4.447l0.035-0.188l0.063-0.33l0.081-0.432l0.38-5.479l-0.518-8.059"/>
<path fill="#2AAAE2" stroke="#2E368F" stroke-width="1.25" stroke-linecap="round" stroke-linejoin="round" stroke-opacity="0.5" d="
	M112.813,176.731l1.149,0.137l7.698-1.682"/>
<path fill="#2AAAE2" stroke="#2E368F" stroke-width="1.25" stroke-linecap="round" stroke-linejoin="round" stroke-opacity="0.5" d="
	M168.88,111.558l2.125-2.848l0.586-0.783l1.593-2.135l0.083-0.249l0.015-0.044l0.433-1.29l0.057-0.171l0.999-2.991l2.035-6.09
	l0.259-0.775l0.548-1.641"/>
<path fill="#2AAAE2" stroke="#2E368F" stroke-width="1.25" stroke-linecap="round" stroke-linejoin="round" stroke-opacity="0.5" d="
	M110.561,177.598l3.119,1.043l7.98-3.454l7.056-2.241l7.262-4.806l6.149-4.097l4.013-9.096"/>
<path fill="#2AAAE2" stroke="#2E368F" stroke-width="1.25" stroke-linecap="round" stroke-linejoin="round" stroke-opacity="0.5" d="
	M173.273,71.277l0.293-6.148l-3.715-4.635"/>
<path fill="#2AAAE2" stroke="#2E368F" stroke-width="1.25" stroke-linecap="round" stroke-linejoin="round" stroke-opacity="0.5" d="
	M139.149,161.568l4.939-6.179l2.363-3.556l0.659-0.992l1.071-1.61"/>
<path fill="#2AAAE2" stroke="#2E368F" stroke-width="1.25" stroke-linecap="round" stroke-linejoin="round" stroke-opacity="0.5" d="
	M168.794,111.679l1.36-1.238l3.742-5.613"/>
<path fill="#2AAAE2" stroke="#2E368F" stroke-width="1.25" stroke-linecap="round" stroke-linejoin="round" stroke-opacity="0.5" d="
	M173.267,105.544l0.631-0.717l4.722-12.052"/>
<path fill="#2AAAE2" stroke="#2E368F" stroke-width="1.25" stroke-linecap="round" stroke-linejoin="round" stroke-opacity="0.5" d="
	M178.178,74.263l1.114-5.948l-2.478-5.146"/>
<path fill="#2AAAE2" stroke="#2E368F" stroke-width="1.25" stroke-linecap="round" stroke-linejoin="round" stroke-opacity="0.5" d="
	M144.978,156.476l1.162-1.527l3.113-4.091l1.013-1.331l0.114-0.15l1.693-2.228l2.438-3.202l0.041-0.048l4.661-5.578l1.539-1.958
	l0.174-0.222"/>
<path fill="#2AAAE2" stroke="#2E368F" stroke-width="1.25" stroke-linecap="round" stroke-linejoin="round" stroke-opacity="0.5" d="
	M176.804,94.958l1.683-2.022l0.133-0.159l5.559-6.687l5.5-7.16l1.28-7.075l0.405-6.832"/>
<path fill="#2AAAE2" stroke="#2E368F" stroke-width="1.25" stroke-linecap="round" stroke-linejoin="round" stroke-opacity="0.5" d="
	M190.957,71.854l-0.335-0.718l-2.85-6.099l-2.942-5.391"/>
<path fill="#2AAAE2" stroke="#2E368F" stroke-width="1.25" stroke-linecap="round" stroke-linejoin="round" stroke-opacity="0.5" d="
	M164.303,131.847l4.354-5.538l8.454-9.113l2.161-2.33"/>
<path fill="#2AAAE2" stroke="#2E368F" stroke-width="1.25" stroke-linecap="round" stroke-linejoin="round" stroke-opacity="0.5" d="
	M189.098,85.32l2.14-4.588l0.308-0.655l0.67-1.437l-0.811,1.106l-0.307,0.42l-0.621,0.853l-3.29,4.506l-4.883,5.642"/>
<path fill="#2AAAE2" stroke="#2E368F" stroke-width="1.25" stroke-linecap="round" stroke-linejoin="round" stroke-opacity="0.5" d="
	M192.214,78.641l2.415-6.815l-2.114-6.205"/>
<path fill="#2AAAE2" stroke="#2E368F" stroke-width="1.25" stroke-linecap="round" stroke-linejoin="round" stroke-opacity="0.5" d="
	M150.38,149.376l2.369-2.479l0.457-0.479l0.629-0.658l4.62-4.575l2.297-4.82"/>
<path fill="#2AAAE2" stroke="#2E368F" stroke-width="1.25" stroke-linecap="round" stroke-linejoin="round" stroke-opacity="0.5" d="
	M149.253,150.857l0.54-0.188l3.208-3.869l-2.735,2.728"/>
<path fill="#2AAAE2" stroke="#2E368F" stroke-width="1.25" stroke-linecap="round" stroke-linejoin="round" stroke-opacity="0.5" d="
	M153.001,146.8l0.205-0.383"/>
<path fill="#2AAAE2" stroke="#2E368F" stroke-width="1.25" stroke-linecap="round" stroke-linejoin="round" stroke-opacity="0.5" d="
	M177.11,117.195l7.64-6.485l7.056-6.367l2.995-6.013l1.324-9.586l0.842-7.738l-1.27-7.61l-0.177-14.009l-0.708-7.044l-2.554-6.38
	l-3.569-6.472l-1.729-2.538l-1.28-1.243"/>
<path fill="#2AAAE2" stroke="#2E368F" stroke-width="1.25" stroke-linecap="round" stroke-linejoin="round" stroke-opacity="0.5" d="
	M133.639,2.767l-1.298,0.018l-5.233,0.075l-0.736,0.01l-9.633,3.43l-5.291,2.658l-1.823,1.75"/>
<path fill="#2AAAE2" stroke="#2E368F" stroke-width="1.25" stroke-linecap="round" stroke-linejoin="round" stroke-opacity="0.5" d="
	M140.684,5.207l-7.045-2.439l-3.834-0.721l-2.697,0.813"/>
<path fill="#2AAAE2" stroke="#2E368F" stroke-width="1.25" stroke-linecap="round" stroke-linejoin="round" stroke-opacity="0.5" d="
	M188.689,39.491l-3.01-3.781l-2.191-2.753l-8.171-6.965l-1.496-0.889"/>
<path fill="#2AAAE2" stroke="#2E368F" stroke-width="1.25" stroke-linecap="round" stroke-linejoin="round" stroke-opacity="0.5" d="
	M177.087,33.419l-3.267-8.314l-1.74-4.44l-6.68-4.628l-6.521-5.142l-7.26-3.479l-7.289-3.172l-6.925-3.619l-7.604,1.422"/>
</svg>
