<?xml version="1.0" encoding="utf-8"?>
<!-- Generator: Adobe Illustrator 16.0.0, SVG Export Plug-In . SVG Version: 6.00 Build 0)  -->
<!DOCTYPE svg PUBLIC "-//W3C//DTD SVG 1.1//EN" "http://www.w3.org/Graphics/SVG/1.1/DTD/svg11.dtd">
<svg version="1.1" id="Layer_1" xmlns="http://www.w3.org/2000/svg" xmlns:xlink="http://www.w3.org/1999/xlink" x="0px" y="0px"
	 width="264.473px" height="194.024px" viewBox="0 0 264.473 194.024" enable-background="new 0 0 264.473 194.024"
	 xml:space="preserve">
<path fill="#2AAAE2" stroke="#2E368F" stroke-miterlimit="10" d="M263.322,104.404l-0.216-0.559l-1.215-7.466l-0.77-3.669
	l-2.723-5.495l-5.177-5.72l-2.866-7.616l-3.573-5.374l-2.245-7.226l-1.27-0.817l-1.54-1.108l-3.633-6.26l-5.482-6.372l-6.656-2.896
	l-2.405-2.251l-7.718-8.339l-10.348-2.477l-4.748-5.473l-9.585-3.139l-1.572-0.608l-7.759-2.463l-10.498-4.804l-2.229,0.294
	l-10.857-3.331l-10.349,1.449l-2.313-0.011l-6.809-1.56l-5.63-1.956l-9.729-1.224l-1.64-0.447l-3.12-1.407l-8.476-0.537
	l-7.212-4.923L88.154,1.351L75.829,6.914L64.583,11.08L51.752,15.31L29.51,26.697l-1.231,3.181l-1.527,3.611l-0.491,0.665
	l-1.081,0.932l-1.944,0.1l-4.819,14.962l-2.201,4.956l-1.447,4.729l-1.551,3.377l-2.956,2.855L6.213,76.431L5.85,82.887l0.058,6.642
	l-1.462,9.238L1.68,110.332l1.099,2.208l-2.152,10.759l2.985,10.431l3.092,10.691l3.063,11l8.214,7.897l0.4,1.009l10.076,8.649
	l6.21,0.945l5.635,2.082l10.607,2.322l10.36,2.229l3.817-0.76l1.066,1.006l5.237-1.621l6.995,0.598l7.152,3.667l8.791-3.278
	l5.324,4.743l4.539-2.872l9.048,1.729l0.39-0.322l7.107,2.128l8.387-0.538l7.486,3.418l3.828,1.971l1.067,0.339l3.045,1.438
	l5.251,1.196l2.252-1.181l4.301,0.01l13.482-4.847l7.408-1.839l7.769-4.528l5.511-3.531l0.569-0.119l7.939-1.337l6.628-2.434
	l1.604-0.806l4.799-0.021l8.189-2.63l4.33-4.276l8.854-6.166l1.858-2.254l2.366-1.519l6.612-9.338l1.231-2.247l0.322-0.357
	l2.898-3.121l5.924-9.407l2.759-4.515l3.779-12.557l0.225-1.054l2.428-4.932l-0.596-3.657L263.322,104.404z"/>
<path fill="#2AAAE2" stroke="#2E368F" stroke-width="1.25" stroke-linecap="round" stroke-linejoin="round" stroke-opacity="0.5" d="
	M6.161,87.913L5.906,89.53l-1.462,9.238L1.68,110.334l1.098,2.208l-2.152,10.759l2.985,10.43l3.092,10.692l3.063,11l8.213,7.897
	l0.959,0.923"/>
<path fill="#2AAAE2" stroke="#2E368F" stroke-width="1.25" stroke-linecap="round" stroke-linejoin="round" stroke-opacity="0.5" d="
	M17.575,59.002l-0.339,0.327l-3.29,3.177l-0.73,0.706l-2.955,2.855L6.213,76.433L5.85,82.889l0.058,6.642"/>
<path fill="#2AAAE2" stroke="#2E368F" stroke-width="1.25" stroke-linecap="round" stroke-linejoin="round" stroke-opacity="0.5" d="
	M17.979,163.321l0.4,1.009l10.076,8.649l6.21,0.945l6.038,0.92l11.737,0.898l9.658,1.238l0.063,0.01"/>
<path fill="#2AAAE2" stroke="#2E368F" stroke-width="1.25" stroke-linecap="round" stroke-linejoin="round" stroke-opacity="0.5" d="
	M121.896,164.512l7.727-5.378l1.235-0.521l2.291-1.356l0.537-0.318l5.15-3.051l0.546-0.323"/>
<path fill="#2AAAE2" stroke="#2E368F" stroke-width="1.25" stroke-linecap="round" stroke-linejoin="round" stroke-opacity="0.5" d="
	M34.666,173.926l5.636,2.082l10.606,2.322l10.36,2.229l3.817-0.76l3.843-0.764l1.527-0.305l0.625,0.016l1.518,0.036l0.087,0.002
	l6.049,0.143l2.861-0.396l5.355-0.741l7.649-3.638"/>
<path fill="#2AAAE2" stroke="#2E368F" stroke-width="1.25" stroke-linecap="round" stroke-linejoin="round" stroke-opacity="0.5" d="
	M47.084,33.966l-14.907,0.764l-0.983,0.053l-4.73,0.24L26.1,35.043l-0.918,0.047l-1.945,0.1l-4.819,14.962l-1.872,5.811
	l-1.776,3.875l-1.55,3.377"/>
<path fill="#2AAAE2" stroke="#2E368F" stroke-width="1.25" stroke-linecap="round" stroke-linejoin="round" stroke-opacity="0.5" d="
	M133.148,157.256l4.324-2.303l0.631-0.268l7.229-3.049l5.188-2.187l3.848-4.035l3.433-3.602l0.884-0.925l7.816-6.834l0.091-0.079
	l2.287-2"/>
<path fill="#2AAAE2" stroke="#2E368F" stroke-width="1.25" stroke-linecap="round" stroke-linejoin="round" stroke-opacity="0.5" d="
	M179.813,39.211l-12.683-7.572l-12.778-5.137l-12.415-5.345l-10.832-4.614"/>
<path fill="#2AAAE2" stroke="#2E368F" stroke-width="1.25" stroke-linecap="round" stroke-linejoin="round" stroke-opacity="0.5" d="
	M166.501,134.057l4.347-2.428l1.183-0.661l3.442-1.923l1.718-0.96l0.285-0.221l0.028-0.022l6.194-4.789l0.819-0.634"/>
<path fill="#2AAAE2" stroke="#2E368F" stroke-width="1.25" stroke-linecap="round" stroke-linejoin="round" stroke-opacity="0.5" d="
	M86.715,178.787l2.69-1.047l4.933-1.921l5.226-0.599l4.815-0.551l7.797-2.284l1.18-0.345l0.063-0.035l1.372-0.75l2.046-1.117
	l1.346-0.732l3.822-2.089l5.648-3.814"/>
<path fill="#2AAAE2" stroke="#2E368F" stroke-width="1.25" stroke-linecap="round" stroke-linejoin="round" stroke-opacity="0.5" d="
	M154.368,145.416l1.302-0.913l7.654-5.558"/>
<path fill="#2AAAE2" stroke="#2E368F" stroke-width="1.25" stroke-linecap="round" stroke-linejoin="round" stroke-opacity="0.5" d="
	M133.56,159.633l2.143-2.085l1.458-0.895l8.173-5.017"/>
<path fill="#2AAAE2" stroke="#2E368F" stroke-width="1.25" stroke-linecap="round" stroke-linejoin="round" stroke-opacity="0.5" d="
	M68.929,179.037l1.786-0.261l0.366-0.028"/>
<path fill="#2AAAE2" stroke="#2E368F" stroke-width="1.25" stroke-linecap="round" stroke-linejoin="round" stroke-opacity="0.5" d="
	M18.415,50.149l-2.201,4.957l-1.447,4.729"/>
<path fill="#2AAAE2" stroke="#2E368F" stroke-width="1.25" stroke-linecap="round" stroke-linejoin="round" stroke-opacity="0.5" d="
	M81.596,178.533l5.325,0.732l2.483-1.525"/>
<path fill="#2AAAE2" stroke="#2E368F" stroke-width="1.25" stroke-linecap="round" stroke-linejoin="round" stroke-opacity="0.5" d="
	M199.294,117.688l-6.258,3.662l-1.701,0.996"/>
<path fill="#2AAAE2" stroke="#2E368F" stroke-width="1.25" stroke-linecap="round" stroke-linejoin="round" stroke-opacity="0.5" d="
	M99.563,175.222l2.546,0.141l10.439-0.54l0.635-0.609l0.602-0.579l0.267-0.256l1.26-1.211l0.479-0.462l1.03-0.99l0.61-0.587
	l0.288-0.278l0.462-0.441"/>
<path fill="#2AAAE2" stroke="#2E368F" stroke-width="1.25" stroke-linecap="round" stroke-linejoin="round" stroke-opacity="0.5" d="
	M193.036,121.351l-0.426,0.194"/>
<path fill="#2AAAE2" stroke="#2E368F" stroke-width="1.25" stroke-linecap="round" stroke-linejoin="round" stroke-opacity="0.5" d="
	M131.604,162.24l8.709-5.118l1.716-1.15l4.464-2.991"/>
<path fill="#2AAAE2" stroke="#2E368F" stroke-width="1.25" stroke-linecap="round" stroke-linejoin="round" stroke-opacity="0.5" d="
	M188.229,123.419l3.105-1.072"/>
<path fill="#2AAAE2" stroke="#2E368F" stroke-width="1.25" stroke-linecap="round" stroke-linejoin="round" stroke-opacity="0.5" d="
	M161.281,143.296l1.607-1.357l3.706-3.128l0.958-0.99l1.816-1.886l1.046-1.082l4.315-4.958l0.74-0.85"/>
<path fill="#2AAAE2" stroke="#2E368F" stroke-width="1.25" stroke-linecap="round" stroke-linejoin="round" stroke-opacity="0.5" d="
	M27.564,32.394l-0.813,1.1l-0.49,0.665L25.18,35.09"/>
<path fill="#2AAAE2" stroke="#2E368F" stroke-width="1.25" stroke-linecap="round" stroke-linejoin="round" stroke-opacity="0.5" d="
	M174.731,129.895l2.115-1.097l0.028-0.016l5.606-2.908l5.746-2.455l4.382-1.874"/>
<path fill="#2AAAE2" stroke="#2E368F" stroke-width="1.25" stroke-linecap="round" stroke-linejoin="round" stroke-opacity="0.5" d="
	M116.82,170.714l3.509-1.725"/>
<path fill="#2AAAE2" stroke="#2E368F" stroke-width="1.25" stroke-linecap="round" stroke-linejoin="round" stroke-opacity="0.5" d="
	M169.203,30.885l-11.447-4.41l-10.343-5.422l-4.718-4.699l-3.453-3.438l-0.004-0.004l-0.364-0.08l-3.637-0.794l-6.58-1.438
	l-0.394-0.086l-3.132-0.684l-9.009-0.225l-0.176-0.005l-2.206-0.055"/>
<path fill="#2AAAE2" stroke="#2E368F" stroke-width="1.25" stroke-linecap="round" stroke-linejoin="round" stroke-opacity="0.5" d="
	M60.803,17.414l-14.026,2.313l-17.533,9.623l-0.964,0.529l-1.527,3.611"/>
<path fill="#2AAAE2" stroke="#2E368F" stroke-width="1.25" stroke-linecap="round" stroke-linejoin="round" stroke-opacity="0.5" d="
	M114.051,173.377l0.262,0.138l0.761,0.402l5.021-0.294l0.898-0.627l0.645-0.448l0.282-0.197l0.041-0.027l6.503-4.529l5.362-3.739
	l4.236-1.644l8.692-5.428l1.761-1.098l6.995-4.257l5.872-6.148l11.05-10.312l2.009-2.734l2.437-3.651"/>
<path fill="#2AAAE2" stroke="#2E368F" stroke-width="1.25" stroke-linecap="round" stroke-linejoin="round" stroke-opacity="0.5" d="
	M193.04,38.94l-8.391-12.18l-12.42-0.169"/>
<path fill="#2AAAE2" stroke="#2E368F" stroke-width="1.25" stroke-linecap="round" stroke-linejoin="round" stroke-opacity="0.5" d="
	M116.124,9.606l-5.948-4.059l-7.212-4.923L88.156,1.354L75.831,6.917l-11.246,4.166l-12.831,4.229l-17.803,9.113l-4.438,2.273
	L28.28,29.88"/>
<path fill="#2AAAE2" stroke="#2E368F" stroke-width="1.25" stroke-linecap="round" stroke-linejoin="round" stroke-opacity="0.5" d="
	M163.656,23.044l-9.785-3.95l-0.796-0.44l-10.461-5.314l-1.274-0.975l-6.103-0.327"/>
<path fill="#2AAAE2" stroke="#2E368F" stroke-width="1.25" stroke-linecap="round" stroke-linejoin="round" stroke-opacity="0.5" d="
	M113.183,174.212l6.908-0.4l0.178-0.05l0.971-0.278l0.065-0.019l4.719-1.352"/>
<path fill="#2AAAE2" stroke="#2E368F" stroke-width="1.25" stroke-linecap="round" stroke-linejoin="round" stroke-opacity="0.5" d="
	M137.672,164.195l0.505-0.558"/>
<path fill="#2AAAE2" stroke="#2E368F" stroke-width="1.25" stroke-linecap="round" stroke-linejoin="round" stroke-opacity="0.5" d="
	M128.657,10.6l-5.424-2.445l-0.718-0.324l-0.745-0.337l-3.12-1.407l-8.475-0.537"/>
<path fill="#2AAAE2" stroke="#2E368F" stroke-width="1.25" stroke-linecap="round" stroke-linejoin="round" stroke-opacity="0.5" d="
	M205.64,34.021l-10.785-5.674l-10.592-3.566"/>
<path fill="#2AAAE2" stroke="#2E368F" stroke-width="1.25" stroke-linecap="round" stroke-linejoin="round" stroke-opacity="0.5" d="
	M254.472,84.852l-2.534-6.6l-4.205-8.208l-0.808-1.079l-0.298-0.399l-0.26-0.379l-2.58-3.764l-0.874-1.276l-1.488-2.171
	l-9.257-2.345"/>
<path fill="#2AAAE2" stroke="#2E368F" stroke-width="1.25" stroke-linecap="round" stroke-linejoin="round" stroke-opacity="0.5" d="
	M235.383,155.535l10.13-11.196l0.321-0.357l2.898-3.12l5.924-9.408l2.759-4.515l3.779-12.557l0.225-1.054l1.832-8.589l0.071-0.335
	l-0.216-0.559l-3.927-10.11l-1.191-4.638l-3.517-4.247l-2.131-2.57l-0.355-0.431"/>
<path fill="#2AAAE2" stroke="#2E368F" stroke-width="1.25" stroke-linecap="round" stroke-linejoin="round" stroke-opacity="0.5" d="
	M132.29,10.37l-8.88-2.431l-1.64-0.447"/>
<path fill="#2AAAE2" stroke="#2E368F" stroke-width="1.25" stroke-linecap="round" stroke-linejoin="round" stroke-opacity="0.5" d="
	M65.087,179.801l1.066,1.006l5.238-1.621l1.294-0.398"/>
<path fill="#2AAAE2" stroke="#2E368F" stroke-width="1.25" stroke-linecap="round" stroke-linejoin="round" stroke-opacity="0.5" d="
	M116.672,177.565l3.344-2.036l0.167-0.104"/>
<path fill="#2AAAE2" stroke="#2E368F" stroke-width="1.25" stroke-linecap="round" stroke-linejoin="round" stroke-opacity="0.5" d="
	M185.878,23.048l-9.925-0.739l-9.913-0.897"/>
<path fill="#2AAAE2" stroke="#2E368F" stroke-width="1.25" stroke-linecap="round" stroke-linejoin="round" stroke-opacity="0.5" d="
	M117.366,180.338l2.815-4.913"/>
<path fill="#2AAAE2" stroke="#2E368F" stroke-width="1.25" stroke-linecap="round" stroke-linejoin="round" stroke-opacity="0.5" d="
	M230.661,48.229l-4.703-4.4l-2.405-2.251l-7.718-8.339l-10.348-2.477l-0.234-0.056l-0.438-0.106l-0.104-0.023"/>
<path fill="#2AAAE2" stroke="#2E368F" stroke-width="1.25" stroke-linecap="round" stroke-linejoin="round" stroke-opacity="0.5" d="
	M145.063,13.306l-6.294-2.187l-5.629-1.956l-9.729-1.224"/>
<path fill="#2AAAE2" stroke="#2E368F" stroke-width="1.25" stroke-linecap="round" stroke-linejoin="round" stroke-opacity="0.5" d="
	M71.392,179.186l6.995,0.598l2.471,0.211"/>
<path fill="#2AAAE2" stroke="#2E368F" stroke-width="1.25" stroke-linecap="round" stroke-linejoin="round" stroke-opacity="0.5" d="
	M243.788,64.423l-1.441-3.773l-0.057-0.145l-0.204-0.532l-0.355-0.617l-3.633-6.26l-5.482-6.372l-6.656-2.896"/>
<path fill="#2AAAE2" stroke="#2E368F" stroke-width="1.25" stroke-linecap="round" stroke-linejoin="round" stroke-opacity="0.5" d="
	M146.017,184.119l-7.13,0.924l-1.999-0.079l-0.367-0.014l-0.188-0.008l-3.559-0.142l6.529,0.774l7.375,1.379"/>
<path fill="#2AAAE2" stroke="#2E368F" stroke-width="1.25" stroke-linecap="round" stroke-linejoin="round" stroke-opacity="0.5" d="
	M165.588,181.171l2.988-0.691l6.314-1.851"/>
<path fill="#2AAAE2" stroke="#2E368F" stroke-width="1.25" stroke-linecap="round" stroke-linejoin="round" stroke-opacity="0.5" d="
	M115.868,180.704l-3.117,1.928"/>
<path fill="#2AAAE2" stroke="#2E368F" stroke-width="1.25" stroke-linecap="round" stroke-linejoin="round" stroke-opacity="0.5" d="
	M78.387,179.782l7.151,3.667l8.791-3.278l5.324,4.743l4.539-2.872l9.048,1.729l0.39-0.322l0.385-0.319l0.024-0.021l3.326-2.77
	l-4.541,2.321"/>
<path fill="#2AAAE2" stroke="#2E368F" stroke-width="1.25" stroke-linecap="round" stroke-linejoin="round" stroke-opacity="0.5" d="
	M157.891,12.738l-10.002-0.05l-2.313-0.011l-6.809-1.56"/>
<path fill="#2AAAE2" stroke="#2E368F" stroke-width="1.25" stroke-linecap="round" stroke-linejoin="round" stroke-opacity="0.5" d="
	M263.106,103.847l-1.215-7.466l-0.77-3.669l-2.723-5.495l-5.177-5.72l-2.866-7.616l-3.573-5.374l-0.615-0.927"/>
<path fill="#2AAAE2" stroke="#2E368F" stroke-width="1.25" stroke-linecap="round" stroke-linejoin="round" stroke-opacity="0.5" d="
	M261.419,113.328l2.429-4.932l-0.597-3.657"/>
<path fill="#2AAAE2" stroke="#2E368F" stroke-width="1.25" stroke-linecap="round" stroke-linejoin="round" stroke-opacity="0.5" d="
	M113.631,183.447l7.107,2.128l8.387-0.538l3.649-0.235"/>
<path fill="#2AAAE2" stroke="#2E368F" stroke-width="1.25" stroke-linecap="round" stroke-linejoin="round" stroke-opacity="0.5" d="
	M205.253,30.707l-6.511-5.107"/>
<path fill="#2AAAE2" stroke="#2E368F" stroke-width="1.25" stroke-linecap="round" stroke-linejoin="round" stroke-opacity="0.5" d="
	M181.764,177.347l6.904-1.813l6.303-2.538l5.46-1.104l1.157,0.185l0.919,0.145l3.646,0.574l1.116-0.005l4.798-0.021l8.19-2.63
	l4.329-4.275"/>
<path fill="#2AAAE2" stroke="#2E368F" stroke-width="1.25" stroke-linecap="round" stroke-linejoin="round" stroke-opacity="0.5" d="
	M222.125,167.577l2.462-1.715l8.854-6.167l1.859-2.253l5.454-6.606"/>
<path fill="#2AAAE2" stroke="#2E368F" stroke-width="1.25" stroke-linecap="round" stroke-linejoin="round" stroke-opacity="0.5" d="
	M170.725,182.303l2.392-0.597l5.055-1.824"/>
<path fill="#2AAAE2" stroke="#2E368F" stroke-width="1.25" stroke-linecap="round" stroke-linejoin="round" stroke-opacity="0.5" d="
	M169.947,14.832l-0.852-0.262l-10.858-3.331l-10.349,1.449"/>
<path fill="#2AAAE2" stroke="#2E368F" stroke-width="1.25" stroke-linecap="round" stroke-linejoin="round" stroke-opacity="0.5" d="
	M246.784,68.507l-2.245-7.226l-1.27-0.817l-1.54-1.108"/>
<path fill="#2AAAE2" stroke="#2E368F" stroke-width="1.25" stroke-linecap="round" stroke-linejoin="round" stroke-opacity="0.5" d="
	M205.487,30.763l-4.748-5.473l-9.585-3.139l-1.572-0.608l-7.759-2.463l-10.498-4.804l-2.229,0.294"/>
<path fill="#2AAAE2" stroke="#2E368F" stroke-width="1.25" stroke-linecap="round" stroke-linejoin="round" stroke-opacity="0.5" d="
	M197.644,172.56l4.862-0.341"/>
<path fill="#2AAAE2" stroke="#2E368F" stroke-width="1.25" stroke-linecap="round" stroke-linejoin="round" stroke-opacity="0.5" d="
	M129.125,185.037l7.486,3.418l3.828,1.971l1.068,0.339l3.843,1.222l0.691,0.22l3.762,1.193l2.252-1.181l6.733-3.53l0.598-0.312
	l0.813-0.427"/>
<path fill="#2AAAE2" stroke="#2E368F" stroke-width="1.25" stroke-linecap="round" stroke-linejoin="round" stroke-opacity="0.5" d="
	M235.301,157.442l2.366-1.52l6.612-9.338l1.232-2.247"/>
<path fill="#2AAAE2" stroke="#2E368F" stroke-width="1.25" stroke-linecap="round" stroke-linejoin="round" stroke-opacity="0.5" d="
	M141.508,190.765l3.046,1.438l5.251,1.196"/>
<path fill="#2AAAE2" stroke="#2E368F" stroke-width="1.25" stroke-linecap="round" stroke-linejoin="round" stroke-opacity="0.5" d="
	M177.625,183.651l6.677-4.858l6.225-1.31l0.57-0.12l7.938-1.337l6.628-2.434l1.605-0.806"/>
<path fill="#2AAAE2" stroke="#2E368F" stroke-width="1.25" stroke-linecap="round" stroke-linejoin="round" stroke-opacity="0.5" d="
	M152.056,192.219l4.3,0.01l13.482-4.847l7.408-1.839l7.77-4.528l5.51-3.53"/>
</svg>
