<?xml version="1.0" encoding="utf-8"?>
<!-- Generator: Adobe Illustrator 16.0.0, SVG Export Plug-In . SVG Version: 6.00 Build 0)  -->
<!DOCTYPE svg PUBLIC "-//W3C//DTD SVG 1.1//EN" "http://www.w3.org/Graphics/SVG/1.1/DTD/svg11.dtd">
<svg version="1.1" id="Layer_1" xmlns="http://www.w3.org/2000/svg" xmlns:xlink="http://www.w3.org/1999/xlink" x="0px" y="0px"
	 width="281.911px" height="289.761px" viewBox="0 0 281.911 289.761" enable-background="new 0 0 281.911 289.761"
	 xml:space="preserve">
<path fill="#2AAAE2" stroke="#2E368F" stroke-miterlimit="10" d="M3.712,160.334l3.778,7.889l0.317,5.963l8.613,11.93l2.166,1.71
	l6.039,7.183l5.856,9.786l5.778,9.575l5.364,10.454l3.29,0.837l4.834,9.043l6.592,3.306l0.984,3.294l10.549,8.406l13.451,7.706
	l5.393,3.354l4.28,5.132l12.96,10.021l2.011,0.88l4.911,0.825l0.986,0.928l2.972-0.262l1.328,0.226l8.638,10.62l20.155-5.585
	l5.52-7.812l2.192-0.776l13.182,2.121l18.163-10.073l2.624-0.856l3.086,0.288l7.93-3.874l4.23,0.753l11.861-3.215l0.132,0.017
	l0.33-0.143l4.215-1.144l0.964-0.845l1.559-0.313l1.159-0.536l0.989-0.434l14.048-2.411l11.113-6.289l4.471-4.843l5.522-0.639
	l3.557-5.873l4.539-2.519l0.932-8.622l2.37-6.114l5.824-11.242l3.95-14.133l-1.402-8.645l0.262-4.77l-1.775-7.231l0.806-8.768
	l2.6-14.983l1.374-16.26l-4.072-7.964l0.508-3.208l0.952-15.177l-3.303-8.279l0.033-3.419l2.03-5.573l-7.155-17.297l-10.14-8.85
	l-11.802-6.687l-4.27-0.828l-4.392-6.504l-4.544-0.298l-0.15-0.25l-0.012-0.053l-0.042-0.035l-0.474-0.787l-0.699-0.194
	l-6.172-5.172l-2.058-3.107l-2.407-5.483l-10.329-8.895l-10.954-8.27l-7.371-1.849l-2.841-3.307l-7.819-0.931l-11.288-6.784
	l-13.469-1.718l-3.71-1.832L139.889,3.14l-5.764-0.755l-0.744-0.468l-1.411,0.187l-6.739-0.882l-14.576,1.796L98.09,3.849
	l-4.852-1.707l-4.579,1.609l-6.392-0.203l-2.677,3.394l-1.49,0.523l-11.048,6.486l-9.154,9.033l-9.83,8.099l-4.479,4.819
	l-4.063,2.021l-6.046,7.228l-2.515,1.48l-4.506,7.98l-1.734,1.212l-8.294,13.334l0.058,3.75l-1.121,2.267l-4.651,3.99L6.476,94.831
	l0.195,1.202l0.853,13.58L1.97,121.9l-0.112,14.598l0.256,0.914l-1.489,11.021l1.791,2.944L3.712,160.334z"/>
<path fill="#2AAAE2" stroke="#2E368F" stroke-width="1.25" stroke-linecap="round" stroke-linejoin="round" stroke-opacity="0.5" d="
	M253.935,233.101l0.075-0.646l0.63-5.435l0.038-0.33l0.983-8.473"/>
<path fill="#2AAAE2" stroke="#2E368F" stroke-width="1.25" stroke-linecap="round" stroke-linejoin="round" stroke-opacity="0.5" d="
	M121.473,261.731l13.684,3.604l12.229,7.781l0.041,0.026l0.892,0.566l0.569,0.362l1.657-0.733l1.617-0.715l0.756-0.335l0.777-0.344
	l12.11-5.357l0.63-0.277"/>
<path fill="#2AAAE2" stroke="#2E368F" stroke-width="1.25" stroke-linecap="round" stroke-linejoin="round" stroke-opacity="0.5" d="
	M55.763,183.506l9.354,3.521l6.869,8.167"/>
<path fill="#2AAAE2" stroke="#2E368F" stroke-width="1.25" stroke-linecap="round" stroke-linejoin="round" stroke-opacity="0.5" d="
	M247.903,240.071l0.757-0.875l0.244-0.282l0.01-0.012l0.709-0.819l4.312-4.981l3.252-4.608"/>
<path fill="#2AAAE2" stroke="#2E368F" stroke-width="1.25" stroke-linecap="round" stroke-linejoin="round" stroke-opacity="0.5" d="
	M146.637,273.992l0.012,0.002l2.855,0.46l0.328,0.052l0.847,0.139l0.52,0.083l1.476,0.236l13.182,2.121l17.489-9.701l0.674-0.372
	l2.624-0.856l10.999-3.589l0.063-0.021l1.306-0.426l12.144-2.114l0.479-0.172l1.756-0.63l3.252-1.168l3.062-1.098l1.521-0.546
	l2.039-0.732l0.909-0.326"/>
<path fill="#2AAAE2" stroke="#2E368F" stroke-width="1.25" stroke-linecap="round" stroke-linejoin="round" stroke-opacity="0.5" d="
	M216.639,258.035l3.556-0.745l0.488-0.103l1.089-0.229l0.513-0.105l0.246-0.042l0.566-0.1l14.048-2.412l11.113-6.289l4.471-4.842
	l2.791-3.021l1.199-1.3l0.007-0.044l1.728-11.27"/>
<path fill="#2AAAE2" stroke="#2E368F" stroke-width="1.25" stroke-linecap="round" stroke-linejoin="round" stroke-opacity="0.5" d="
	M252.729,243.169l5.522-0.639l3.557-5.873l3.195-5.277l2.274-5.862l2.37-6.114l5.824-11.242l3.95-14.133l-1.402-8.645l-1.089-6.716
	l-0.548-3.957l-0.581-4.189l-0.443-3.201l-0.47-3.391"/>
<path fill="#2AAAE2" stroke="#2E368F" stroke-width="1.25" stroke-linecap="round" stroke-linejoin="round" stroke-opacity="0.5" d="
	M276.384,174.711l0.122-1.329l0.806-8.767l2.601-14.984l1.374-16.259l-4.073-7.964l-2.885-5.642l-4.424-13.626"/>
<path fill="#2AAAE2" stroke="#2E368F" stroke-width="1.25" stroke-linecap="round" stroke-linejoin="round" stroke-opacity="0.5" d="
	M131.021,12.542l-13.128,2.815l-12.148,2.593"/>
<path fill="#2AAAE2" stroke="#2E368F" stroke-width="1.25" stroke-linecap="round" stroke-linejoin="round" stroke-opacity="0.5" d="
	M207.47,31.629l-0.364-0.456l-1.324-1.656l-3.309-4.14l-0.41-0.513l-1.398-1.751l-0.465-0.582l-10.217-7.858l-6.178-3.714
	l-11.288-6.785l-13.469-1.717l-1.998-0.255l-14.03,1.884"/>
<path fill="#2AAAE2" stroke="#2E368F" stroke-width="1.25" stroke-linecap="round" stroke-linejoin="round" stroke-opacity="0.5" d="
	M75.079,42.205l-10.37,0.667l-2.979,5.384l-3.526,6.379"/>
<path fill="#2AAAE2" stroke="#2E368F" stroke-width="1.25" stroke-linecap="round" stroke-linejoin="round" stroke-opacity="0.5" d="
	M85.091,33.291l-3.355,0.914l-6.24,4.009"/>
<path fill="#2AAAE2" stroke="#2E368F" stroke-width="1.25" stroke-linecap="round" stroke-linejoin="round" stroke-opacity="0.5" d="
	M271.333,106.493l2.658-7.294l0.745-2.043l0.666-1.831l2.03-5.573l-7.155-17.297l-10.14-8.85l-11.802-6.687l-4.27-0.829
	l-5.479-1.063l-2.426-0.471l-0.523-0.104l-0.572-0.111l-0.397-0.075l-0.914-0.18l-2.073-0.133l-2.211-0.141l-0.247-0.018
	l-2.188-0.14l-1.421-2.334l-2.073-3.405l-0.1-0.162l-0.3-0.492l-0.985-1.62l-1.354-1.107l-0.366-0.3l-0.448-0.368l-0.979-0.802
	l-4.396-3.598l-5.801-8.063l-1.153-1.605l-1.511-2.097l-0.116-0.165l-0.056-0.075l-2.279-1.866l-0.571-0.471l-2.459-2.015"/>
<path fill="#2AAAE2" stroke="#2E368F" stroke-width="1.25" stroke-linecap="round" stroke-linejoin="round" stroke-opacity="0.5" d="
	M140.79,4.571l2.229-0.485l-1.698,0.512l-2.483,0.743l-9.835,2.952l-4.23,1.269l-10.183,3.05"/>
<path fill="#2AAAE2" stroke="#2E368F" stroke-width="1.25" stroke-linecap="round" stroke-linejoin="round" stroke-opacity="0.5" d="
	M57.532,204.682l-0.814,8.714l-0.28,2.989l-0.119,1.284l8.295,9.701l4.432,1.178l3.05,0.813l5.246,1.396l0.64,0.154l0.041,0.01
	l9.979,2.415"/>
<path fill="#2AAAE2" stroke="#2E368F" stroke-width="1.25" stroke-linecap="round" stroke-linejoin="round" stroke-opacity="0.5" d="
	M64.709,42.872l-3.538,5.626l-0.86,0.654"/>
<path fill="#2AAAE2" stroke="#2E368F" stroke-width="1.25" stroke-linecap="round" stroke-linejoin="round" stroke-opacity="0.5" d="
	M146.599,277.115l2.177-0.771l1.705-0.604l2.192-0.776"/>
<path fill="#2AAAE2" stroke="#2E368F" stroke-width="1.25" stroke-linecap="round" stroke-linejoin="round" stroke-opacity="0.5" d="
	M61.171,48.498l-0.317,0.313l-6.559,6.437L51.5,66.392"/>
<path fill="#2AAAE2" stroke="#2E368F" stroke-width="1.25" stroke-linecap="round" stroke-linejoin="round" stroke-opacity="0.5" d="
	M213.387,259.203l4.926-0.993l1.077-0.217l1.56-0.313l1.159-0.536l0.988-0.434"/>
<path fill="#2AAAE2" stroke="#2E368F" stroke-width="1.25" stroke-linecap="round" stroke-linejoin="round" stroke-opacity="0.5" d="
	M77.979,230.91l3.22,2.976l3.626,3.354l0.063,0.06l0.702,0.778l2.835,3.149l4.35,4.83l1.56,1.344"/>
<path fill="#2AAAE2" stroke="#2E368F" stroke-width="1.25" stroke-linecap="round" stroke-linejoin="round" stroke-opacity="0.5" d="
	M278.021,185.383l0.263-4.769l-1.776-7.232"/>
<path fill="#2AAAE2" stroke="#2E368F" stroke-width="1.25" stroke-linecap="round" stroke-linejoin="round" stroke-opacity="0.5" d="
	M275.293,106.615l0.077-7.871l0.032-3.419"/>
<path fill="#2AAAE2" stroke="#2E368F" stroke-width="1.25" stroke-linecap="round" stroke-linejoin="round" stroke-opacity="0.5" d="
	M261.808,236.657l4.539-2.519l0.933-8.622"/>
<path fill="#2AAAE2" stroke="#2E368F" stroke-width="1.25" stroke-linecap="round" stroke-linejoin="round" stroke-opacity="0.5" d="
	M47.598,74.891l-9.911,6.419l-7.12,12.311"/>
<path fill="#2AAAE2" stroke="#2E368F" stroke-width="1.25" stroke-linecap="round" stroke-linejoin="round" stroke-opacity="0.5" d="
	M244.068,56.091l-4.393-6.503l-4.544-0.298l-0.099-0.007l-2.542-0.167l-2.944-0.193l-1.9-0.124l-0.141-0.01l-0.333-0.384
	l-2.606-3.011l-1.832-2.116l-2.259-2.607"/>
<path fill="#2AAAE2" stroke="#2E368F" stroke-width="1.25" stroke-linecap="round" stroke-linejoin="round" stroke-opacity="0.5" d="
	M85.591,238.077l3.896,11.221l0.689,1.989l0.511,1.472l0.409,0.154l6.054,2.286l8.654,3.267"/>
<path fill="#2AAAE2" stroke="#2E368F" stroke-width="1.25" stroke-linecap="round" stroke-linejoin="round" stroke-opacity="0.5" d="
	M48.592,196.642l1.564,7.813l0.1,0.498l0.388,1.941l5.794,9.489"/>
<path fill="#2AAAE2" stroke="#2E368F" stroke-width="1.25" stroke-linecap="round" stroke-linejoin="round" stroke-opacity="0.5" d="
	M28.403,133.236l-9.044,9.139l-4.892,9.69l-0.396,0.784l-0.68,1.345l-1.311,2.596l-0.841,1.667l7.057,13.958l1.089,3.246
	l1.309,3.896l0.158,0.473l0.358,1.07l0.366,1.091l1.047,3.123l0.141,0.42l0.44,1.311l0.505,0.675l0.165,0.221l5.586,7.458"/>
<path fill="#2AAAE2" stroke="#2E368F" stroke-width="1.25" stroke-linecap="round" stroke-linejoin="round" stroke-opacity="0.5" d="
	M277.212,125.408l0.508-3.208l0.952-15.177l-3.302-8.279"/>
<path fill="#2AAAE2" stroke="#2E368F" stroke-width="1.25" stroke-linecap="round" stroke-linejoin="round" stroke-opacity="0.5" d="
	M91.097,252.913l7.191,12.875l12.594,11.837l0.986,0.927l2.972-0.261l1.07-0.093l12.056-1.057l4.376-0.386"/>
<path fill="#2AAAE2" stroke="#2E368F" stroke-width="1.25" stroke-linecap="round" stroke-linejoin="round" stroke-opacity="0.5" d="
	M81.949,24.852l-1.033,0.235l-0.225,0.054l-10.988,2.521l-11.626,6.905l-5.479,4.578l-0.087,0.071l-3.168,2.648l-7.532,8.388"/>
<path fill="#2AAAE2" stroke="#2E368F" stroke-width="1.25" stroke-linecap="round" stroke-linejoin="round" stroke-opacity="0.5" d="
	M43.672,200.611l6.584,4.343"/>
<path fill="#2AAAE2" stroke="#2E368F" stroke-width="1.25" stroke-linecap="round" stroke-linejoin="round" stroke-opacity="0.5" d="
	M129.092,278.001l17.018,0.727l2.666-2.383"/>
<path fill="#2AAAE2" stroke="#2E368F" stroke-width="1.25" stroke-linecap="round" stroke-linejoin="round" stroke-opacity="0.5" d="
	M69.044,228.549l5.94,2.906l9.84,5.784"/>
<path fill="#2AAAE2" stroke="#2E368F" stroke-width="1.25" stroke-linecap="round" stroke-linejoin="round" stroke-opacity="0.5" d="
	M26.224,93.618l-3.477-7.454l-0.776-1.663"/>
<path fill="#2AAAE2" stroke="#2E368F" stroke-width="1.25" stroke-linecap="round" stroke-linejoin="round" stroke-opacity="0.5" d="
	M12.551,132.424l-1.205,14.18l0.234,3.229l0.043,0.604l0.461,6.354"/>
<path fill="#2AAAE2" stroke="#2E368F" stroke-width="1.25" stroke-linecap="round" stroke-linejoin="round" stroke-opacity="0.5" d="
	M186.642,266.154l3.086,0.288l7.93-3.874l0.046-0.023"/>
<path fill="#2AAAE2" stroke="#2E368F" stroke-width="1.25" stroke-linecap="round" stroke-linejoin="round" stroke-opacity="0.5" d="
	M200.58,22.316l-6.115-7.121l-2.841-3.307l-7.819-0.931"/>
<path fill="#2AAAE2" stroke="#2E368F" stroke-width="1.25" stroke-linecap="round" stroke-linejoin="round" stroke-opacity="0.5" d="
	M26.224,93.618l-9.341,10.794l-3.495,5.04l-3.955,5.707l-2.024,2.922l1.531,6.382l0.771,3.208l0.453,1.889l0.816,3.402"/>
<path fill="#2AAAE2" stroke="#2E368F" stroke-width="1.25" stroke-linecap="round" stroke-linejoin="round" stroke-opacity="0.5" d="
	M20.891,69.776l0.1,1.338l0.027,0.392l0.103,1.37l0.852,11.625l-2.015,10.494"/>
<path fill="#2AAAE2" stroke="#2E368F" stroke-width="1.25" stroke-linecap="round" stroke-linejoin="round" stroke-opacity="0.5" d="
	M159.048,2.457l-3.71-1.832l-15.447,2.517l-5.764-0.756l-2.155-0.28l-6.739-0.882L110.656,3.02L98.092,3.851l-2.087,0.138
	l-7.344-0.234L82.27,3.551l-2.677,3.394l-6.737,8.542l-3.805,2.54"/>
<path fill="#2AAAE2" stroke="#2E368F" stroke-width="1.25" stroke-linecap="round" stroke-linejoin="round" stroke-opacity="0.5" d="
	M229.548,48.923l-0.09-0.212l-0.851-2.007l-0.09-0.202l-2.99-6.812l-2.408-5.483l-10.329-8.895l-10.954-8.27l-7.371-1.849"/>
<path fill="#2AAAE2" stroke="#2E368F" stroke-width="1.25" stroke-linecap="round" stroke-linejoin="round" stroke-opacity="0.5" d="
	M197.656,262.568l4.23,0.753l11.861-3.215l0.462-0.126l4.215-1.144l0.964-0.845"/>
<path fill="#2AAAE2" stroke="#2E368F" stroke-width="1.25" stroke-linecap="round" stroke-linejoin="round" stroke-opacity="0.5" d="
	M20.696,179.558l0.052,0.303l0.307,1.785l0.178,1.038l1.468,2.914l0.067,0.137"/>
<path fill="#2AAAE2" stroke="#2E368F" stroke-width="1.25" stroke-linecap="round" stroke-linejoin="round" stroke-opacity="0.5" d="
	M115.91,278.198l0.258,0.317l8.638,10.62l19.274-5.341l0.881-0.245l5.52-7.811"/>
<path fill="#2AAAE2" stroke="#2E368F" stroke-width="1.25" stroke-linecap="round" stroke-linejoin="round" stroke-opacity="0.5" d="
	M36.102,47.881l-9.638,6.733l-1.733,1.212L16.436,69.16l0.058,3.75l0.01,0.664l0.01,0.625l0.026,1.766l0.014,0.939l0.075,5.02"/>
<path fill="#2AAAE2" stroke="#2E368F" stroke-width="1.25" stroke-linecap="round" stroke-linejoin="round" stroke-opacity="0.5" d="
	M23.878,187.939l3.373,6.704l0.603,1.073l0.976,1.742l5.893,10.529l7.548,1.582l0.017,0.003l2.722,0.57l0.524,0.108l2.179,3.354
	l2.648,4.071l3.428,5.913l1.812,3.126l1.456,2.514"/>
<path fill="#2AAAE2" stroke="#2E368F" stroke-width="1.25" stroke-linecap="round" stroke-linejoin="round" stroke-opacity="0.5" d="
	M74.646,16.491l-5.595,1.533l-8.031,2.201l-9.067,10.543l-1.884,1.91l-6.216,6.309l-0.122,0.125l-10.245,6.04l-2.516,1.48
	l-4.506,7.98"/>
<path fill="#2AAAE2" stroke="#2E368F" stroke-width="1.25" stroke-linecap="round" stroke-linejoin="round" stroke-opacity="0.5" d="
	M8.953,146.552l-0.029,0.118l-0.738,3.098l-1.511,6.337l-0.348,1.457l-0.044,0.184l-0.805,3.369l1.775,2.728l0.951,1.462
	l0.378,0.579l2.268,3.485l3.358,5.161l7.021,8.155"/>
<path fill="#2AAAE2" stroke="#2E368F" stroke-width="1.25" stroke-linecap="round" stroke-linejoin="round" stroke-opacity="0.5" d="
	M13.331,94.194l-3.118,7.584l-0.133,0.324l-1.74,4.231l-0.001,0.002l-0.221,0.538l1.313,8.284"/>
<path fill="#2AAAE2" stroke="#2E368F" stroke-width="1.25" stroke-linecap="round" stroke-linejoin="round" stroke-opacity="0.5" d="
	M213.749,260.106l0.132,0.017l0.33-0.143"/>
<path fill="#2AAAE2" stroke="#2E368F" stroke-width="1.25" stroke-linecap="round" stroke-linejoin="round" stroke-opacity="0.5" d="
	M8.939,124.463l-1.533,5.363l-1.118,3.909l0.011,0.124l0.763,8.729l0.147,1.688l0.217,2.479l-0.75,9.348"/>
<path fill="#2AAAE2" stroke="#2E368F" stroke-width="1.25" stroke-linecap="round" stroke-linejoin="round" stroke-opacity="0.5" d="
	M235.034,49.283l-0.052-0.243l-0.013-0.053l-0.042-0.035l-1.173-0.982l-6.172-5.172l-2.057-3.106"/>
<path fill="#2AAAE2" stroke="#2E368F" stroke-width="1.25" stroke-linecap="round" stroke-linejoin="round" stroke-opacity="0.5" d="
	M45.006,210.145l-0.607,4.416l-0.262,1.896l-0.848,6.157l1.628,3.046l4.834,9.043l6.592,3.307l7.219,3.62l1.334,0.459l10.548,3.633
	l0.171,0.058l0.61,0.211l2.431,0.836l11.521,4.463"/>
<path fill="#2AAAE2" stroke="#2E368F" stroke-width="1.25" stroke-linecap="round" stroke-linejoin="round" stroke-opacity="0.5" d="
	M50.068,32.679l-6.478,3.226l-4.062,2.021l-6.047,7.228"/>
<path fill="#2AAAE2" stroke="#2E368F" stroke-width="1.25" stroke-linecap="round" stroke-linejoin="round" stroke-opacity="0.5" d="
	M6.886,93.737l0.047,0.123l3.147,8.242"/>
<path fill="#2AAAE2" stroke="#2E368F" stroke-width="1.25" stroke-linecap="round" stroke-linejoin="round" stroke-opacity="0.5" d="
	M98.091,3.85l-4.852-1.707L88.66,3.752"/>
<path fill="#2AAAE2" stroke="#2E368F" stroke-width="1.25" stroke-linecap="round" stroke-linejoin="round" stroke-opacity="0.5" d="
	M16.502,73.574l-0.521,1.08l-2.31,4.791l-0.593,1.248L6.886,93.737l-0.408,1.097l4.242-15.667l4.651-3.99l0.608-0.521"/>
<path fill="#2AAAE2" stroke="#2E368F" stroke-width="1.25" stroke-linecap="round" stroke-linejoin="round" stroke-opacity="0.5" d="
	M75.443,245.72l0.185,0.074"/>
<path fill="#2AAAE2" stroke="#2E368F" stroke-width="1.25" stroke-linecap="round" stroke-linejoin="round" stroke-opacity="0.5" d="
	M8.584,165.882l2.461,7.201"/>
<path fill="#2AAAE2" stroke="#2E368F" stroke-width="1.25" stroke-linecap="round" stroke-linejoin="round" stroke-opacity="0.5" d="
	M134.127,2.386l-0.744-0.467l-1.411,0.187"/>
<path fill="#2AAAE2" stroke="#2E368F" stroke-width="1.25" stroke-linecap="round" stroke-linejoin="round" stroke-opacity="0.5" d="
	M79.593,6.942l-1.49,0.523l-11.048,6.486L57.9,22.985l-9.829,8.099l-4.479,4.819"/>
<path fill="#2AAAE2" stroke="#2E368F" stroke-width="1.25" stroke-linecap="round" stroke-linejoin="round" stroke-opacity="0.5" d="
	M7.405,129.826l-4.188,3.916l-0.696,0.651l-0.219,1.617l-0.188,1.403l-1.489,11.021l1.791,2.944l3.867,6.363"/>
<path fill="#2AAAE2" stroke="#2E368F" stroke-width="1.25" stroke-linecap="round" stroke-linejoin="round" stroke-opacity="0.5" d="
	M6.478,94.834l0.195,1.202l1.666,10.301"/>
<path fill="#2AAAE2" stroke="#2E368F" stroke-width="1.25" stroke-linecap="round" stroke-linejoin="round" stroke-opacity="0.5" d="
	M114.84,278.291l1.328,0.226"/>
<path fill="#2AAAE2" stroke="#2E368F" stroke-width="1.25" stroke-linecap="round" stroke-linejoin="round" stroke-opacity="0.5" d="
	M234.929,48.952l-0.474-0.787l-0.699-0.194"/>
<path fill="#2AAAE2" stroke="#2E368F" stroke-width="1.25" stroke-linecap="round" stroke-linejoin="round" stroke-opacity="0.5" d="
	M235.133,49.29l-0.15-0.25"/>
<path fill="#2AAAE2" stroke="#2E368F" stroke-width="1.25" stroke-linecap="round" stroke-linejoin="round" stroke-opacity="0.5" d="
	M56.343,238.008l0.984,3.294l10.549,8.406l13.451,7.706l5.393,3.354l7.231,4.496"/>
<path fill="#2AAAE2" stroke="#2E368F" stroke-width="1.25" stroke-linecap="round" stroke-linejoin="round" stroke-opacity="0.5" d="
	M16.492,72.91l-1.121,2.267"/>
<path fill="#2AAAE2" stroke="#2E368F" stroke-width="1.25" stroke-linecap="round" stroke-linejoin="round" stroke-opacity="0.5" d="
	M7.255,163.841l0.235,4.382l0.317,5.963l8.613,11.93l2.166,1.71l5.854,4.619l1.361,1.075l0.507,0.399"/>
<path fill="#2AAAE2" stroke="#2E368F" stroke-width="1.25" stroke-linecap="round" stroke-linejoin="round" stroke-opacity="0.5" d="
	M86.72,260.768l4.28,5.132l12.96,10.021l2.011,0.879l4.911,0.826"/>
<path fill="#2AAAE2" stroke="#2E368F" stroke-width="1.25" stroke-linecap="round" stroke-linejoin="round" stroke-opacity="0.5" d="
	M2.416,151.381l1.296,8.953l3.778,7.889"/>
<path fill="#2AAAE2" stroke="#2E368F" stroke-width="1.25" stroke-linecap="round" stroke-linejoin="round" stroke-opacity="0.5" d="
	M6.673,96.036l0.853,13.58l-5.554,12.287l-0.112,14.598l0.256,0.914"/>
<path fill="#2AAAE2" stroke="#2E368F" stroke-width="1.25" stroke-linecap="round" stroke-linejoin="round" stroke-opacity="0.5" d="
	M42.269,209.571l1.868,6.885"/>
<path fill="#2AAAE2" stroke="#2E368F" stroke-width="1.25" stroke-linecap="round" stroke-linejoin="round" stroke-opacity="0.5" d="
	M18.588,187.824l6.039,7.183l5.857,9.786l5.777,9.575l5.364,10.454l3.29,0.837"/>
</svg>
