<?xml version="1.0" encoding="utf-8"?>
<!-- Generator: Adobe Illustrator 16.0.0, SVG Export Plug-In . SVG Version: 6.00 Build 0)  -->
<!DOCTYPE svg PUBLIC "-//W3C//DTD SVG 1.1//EN" "http://www.w3.org/Graphics/SVG/1.1/DTD/svg11.dtd">
<svg version="1.1" id="Layer_1" xmlns="http://www.w3.org/2000/svg" xmlns:xlink="http://www.w3.org/1999/xlink" x="0px" y="0px"
	 width="207.493px" height="207.989px" viewBox="0 0 207.493 207.989" enable-background="new 0 0 207.493 207.989"
	 xml:space="preserve">
<path fill="#2AAAE2" stroke="#2E368F" stroke-miterlimit="10" d="M10.122,130.524l4.448,7.754l4.447,7.647l2.985,5.578l0.515,2.722
	l2.765,2.59l1.653,2.567l5.924,5.746l6.278,7.854l7.418,7.227l6.83,5.813l7.539,5.526l7.226,5.477l3.884,2.148l0.362,0.276
	l9.061,5.983l10.987-0.638l6.754,1.854l2.494-0.133l2.515,0.846l10.271-3.932l6.599-3.273l6.175-0.38l2.275-1.064l4.406-3.564
	l3.758-1.312l6.176-3.399l8.306-2.76l3.543-1.238l1.531-0.449l8.399-2.066l8.364-2.173l6.787-4.57l2.306-3.3l3.45-2.058l5.365-9.353
	l4.828-7.351l1.788-8.839l2.499-8.607l0.145-2.146l3.407-6.704l0.887-9.15l-0.437-3.844l-0.036-5.021l-0.129-5.636l0.41-4.596
	l0.259-3.327l1.329-6.539l-2.26-9.563l-1.446-3.71l-0.717-5.067l-5.646-7.846l-5.244-8.154l-6.625-5.508l-7.137-4.452l-0.993-1.34
	l-1.608-3.265l-2.243-2.353l-1.989-6.292L164,29.276l-2.091-3.063l-8.463-6.863l-6.002-8.292l-4.407,0.122l-2.558-1.766
	l-11.731-1.354l-11.264,0.93l-8.12-1.972l-9.632-1.625L99.38,5.302L87.918,0.743l-6.017,0.37l-2.295-0.488L75.57,1.521L65.336,2.256
	l-2.077,0.159l-2.083,1.768l-5.185,2.399l-6.296,6.126l-4.717,2.982l-0.496,0.496l-7.817,2.608l-2.629,6.219l-0.831,0.595
	l-0.553,2.167l-2.797,2.676l-5.672,9.786l-4.231,10.205l-5.305,7.647l-5.041,7.947l-5.933,7.837l0.063,9.331L3.156,93.499
	l-0.034,0.96l-2.497,7.997l2.567,9.956l1.262,9.464l3.995,5.034L10.122,130.524z"/>
<path fill="#2AAAE2" stroke="#2E368F" stroke-width="1.25" stroke-linecap="round" stroke-linejoin="round" stroke-opacity="0.5" d="
	M178.701,48.928l-1.901-3.855l-1.608-3.265l-2.243-2.353l-1.829-1.916"/>
<path fill="#2AAAE2" stroke="#2E368F" stroke-width="1.25" stroke-linecap="round" stroke-linejoin="round" stroke-opacity="0.5" d="
	M201.177,135.529l3.408-6.704l0.886-9.151l-0.436-3.843l-0.624-5.507l0.459-5.151l0.41-4.595l0.259-3.327l0.528-6.789"/>
<path fill="#2AAAE2" stroke="#2E368F" stroke-width="1.25" stroke-linecap="round" stroke-linejoin="round" stroke-opacity="0.5" d="
	M205.539,97.251l1.329-6.539l-2.26-9.563l-1.446-3.71l-2.103-5.397l-1.284-1.3l-1.681-1.697l-0.85-0.858l-2.679-2.709"/>
<path fill="#2AAAE2" stroke="#2E368F" stroke-width="1.25" stroke-linecap="round" stroke-linejoin="round" stroke-opacity="0.5" d="
	M164.643,29.916l-0.565-0.523l-0.192-0.179l-4.779-4.423l-6.696-4.789l-2.105-1.505l-0.87-0.622l-7.059-5.048l-0.012-0.009"/>
<path fill="#2AAAE2" stroke="#2E368F" stroke-width="1.25" stroke-linecap="round" stroke-linejoin="round" stroke-opacity="0.5" d="
	M109.507,202.633l4.549-1.456l8.166-2.612l8.628-4.354"/>
<path fill="#2AAAE2" stroke="#2E368F" stroke-width="1.25" stroke-linecap="round" stroke-linejoin="round" stroke-opacity="0.5" d="
	M32.268,62.922l-4.135,8.279l-2.46,10.082"/>
<path fill="#2AAAE2" stroke="#2E368F" stroke-width="1.25" stroke-linecap="round" stroke-linejoin="round" stroke-opacity="0.5" d="
	M183.102,173.88l3.449-2.057l5.366-9.354l4.828-7.35l1.788-8.839l2.499-8.608l0.144-2.145l0.48-7.15"/>
<path fill="#2AAAE2" stroke="#2E368F" stroke-width="1.25" stroke-linecap="round" stroke-linejoin="round" stroke-opacity="0.5" d="
	M203.162,77.438l-0.717-5.067l-5.646-7.846l-5.244-8.154l-6.626-5.508l-7.136-4.452l-0.993-1.34"/>
<path fill="#2AAAE2" stroke="#2E368F" stroke-width="1.25" stroke-linecap="round" stroke-linejoin="round" stroke-opacity="0.5" d="
	M172.947,39.455l-1.989-6.292l-6.959-3.886l-0.115-0.063"/>
<path fill="#2AAAE2" stroke="#2E368F" stroke-width="1.25" stroke-linecap="round" stroke-linejoin="round" stroke-opacity="0.5" d="
	M116.68,201.387l0.19-0.068l2.946-1.082l0.556-0.204l0.433-0.159l3.259-1.195l4.692-1.725l5.176-1.804l3.759-1.312l6.176-3.399
	l2.022-1.114l9.825-2.884l1.531-0.449l8.399-2.065l8.363-2.174l6.787-4.57l2.307-3.3l3.563-5.1l5.092-6.825"/>
<path fill="#2AAAE2" stroke="#2E368F" stroke-width="1.25" stroke-linecap="round" stroke-linejoin="round" stroke-opacity="0.5" d="
	M111.413,9.393l-2.932-1.063l-0.091-0.032l-6.375-2.307l-2.284-0.597l-0.353-0.094l-9.743-2.544l-7.734-1.644l-2.296-0.488
	L75.57,1.521l-7.631,1.692"/>
<path fill="#2AAAE2" stroke="#2E368F" stroke-width="1.25" stroke-linecap="round" stroke-linejoin="round" stroke-opacity="0.5" d="
	M121.386,9.941l-3.901-0.949l-8.12-1.972l-9.632-1.625"/>
<path fill="#2AAAE2" stroke="#2E368F" stroke-width="1.25" stroke-linecap="round" stroke-linejoin="round" stroke-opacity="0.5" d="
	M48.586,157.749l1.907,4.271l1.539,3.446l0.807,0.355l1.427,0.627l0.213,0.093l0.441,0.195l5.651,2.484"/>
<path fill="#2AAAE2" stroke="#2E368F" stroke-width="1.25" stroke-linecap="round" stroke-linejoin="round" stroke-opacity="0.5" d="
	M147.953,14.571l-4.917-3.391l-2.558-1.766l-11.731-1.354l-11.264,0.93"/>
<path fill="#2AAAE2" stroke="#2E368F" stroke-width="1.25" stroke-linecap="round" stroke-linejoin="round" stroke-opacity="0.5" d="
	M205.035,115.831l-0.036-5.021l-0.129-5.637"/>
<path fill="#2AAAE2" stroke="#2E368F" stroke-width="1.25" stroke-linecap="round" stroke-linejoin="round" stroke-opacity="0.5" d="
	M163.999,29.277l-2.091-3.063l-8.463-6.862l-6.002-8.292l-4.407,0.122"/>
<path fill="#2AAAE2" stroke="#2E368F" stroke-width="1.25" stroke-linecap="round" stroke-linejoin="round" stroke-opacity="0.5" d="
	M143.865,190.438l8.305-2.761l3.544-1.237"/>
<path fill="#2AAAE2" stroke="#2E368F" stroke-width="1.25" stroke-linecap="round" stroke-linejoin="round" stroke-opacity="0.5" d="
	M31.668,136.716l1.687,4.448l0.774,2.05l0.815,2.151l7.284,5.104l4.609,7.122l3.654,4.427"/>
<path fill="#2AAAE2" stroke="#2E368F" stroke-width="1.25" stroke-linecap="round" stroke-linejoin="round" stroke-opacity="0.5" d="
	M52.839,165.821l2.46,6.295l6.377,6.475l8.766,4.76l9.104,4.68"/>
<path fill="#2AAAE2" stroke="#2E368F" stroke-width="1.25" stroke-linecap="round" stroke-linejoin="round" stroke-opacity="0.5" d="
	M99.38,5.303L87.918,0.745l-6.017,0.37"/>
<path fill="#2AAAE2" stroke="#2E368F" stroke-width="1.25" stroke-linecap="round" stroke-linejoin="round" stroke-opacity="0.5" d="
	M91.842,203.206l3.182,1.069l0.795,0.267l5.132,1.728l0.17,0.057l0.573,0.192l2.515,0.846l10.271-3.932l6.599-3.273l0.646-0.321
	l0.238-0.119l2.104-1.042"/>
<path fill="#2AAAE2" stroke="#2E368F" stroke-width="1.25" stroke-linecap="round" stroke-linejoin="round" stroke-opacity="0.5" d="
	M75.83,188.65l1.131,0.775l8.938,6.041"/>
<path fill="#2AAAE2" stroke="#2E368F" stroke-width="1.25" stroke-linecap="round" stroke-linejoin="round" stroke-opacity="0.5" d="
	M51.675,15.087L42.122,19.3l-0.198,0.087l-2.251,1.606l-5.637,4.023l-0.831,0.592l-0.553,2.167l-0.352,1.375l-0.144,0.562
	l-1.82,7.138"/>
<path fill="#2AAAE2" stroke="#2E368F" stroke-width="1.25" stroke-linecap="round" stroke-linejoin="round" stroke-opacity="0.5" d="
	M17.27,119.7l2.484,11.119l4.896,9.018l9.479,3.377"/>
<path fill="#2AAAE2" stroke="#2E368F" stroke-width="1.25" stroke-linecap="round" stroke-linejoin="round" stroke-opacity="0.5" d="
	M15.04,82.067l-1.913,3.73l-0.469,0.913l-2.026,3.953l0.409,3.274l0.103,0.814l0.843,6.741"/>
<path fill="#2AAAE2" stroke="#2E368F" stroke-width="1.25" stroke-linecap="round" stroke-linejoin="round" stroke-opacity="0.5" d="
	M18.964,63.758l-3.005,6.747l-0.236,0.529l-0.586,1.317l-1.93,10.027l-0.549,4.332"/>
<path fill="#2AAAE2" stroke="#2E368F" stroke-width="1.25" stroke-linecap="round" stroke-linejoin="round" stroke-opacity="0.5" d="
	M75.57,1.523L65.336,2.257l-4.16,1.928l-5.185,2.399l-6.296,6.126l-2.72,2.646l-2.493,0.833l-7.817,2.607l-2.629,6.22"/>
<path fill="#2AAAE2" stroke="#2E368F" stroke-width="1.25" stroke-linecap="round" stroke-linejoin="round" stroke-opacity="0.5" d="
	M65.336,2.258l-2.077,0.16l-2.083,1.768"/>
<path fill="#2AAAE2" stroke="#2E368F" stroke-width="1.25" stroke-linecap="round" stroke-linejoin="round" stroke-opacity="0.5" d="
	M17.348,63.999l-0.135,0.582l-1.49,6.453"/>
<path fill="#2AAAE2" stroke="#2E368F" stroke-width="1.25" stroke-linecap="round" stroke-linejoin="round" stroke-opacity="0.5" d="
	M87.211,203.364l5.233,1.434l6.754,1.854l2.494-0.133"/>
<path fill="#2AAAE2" stroke="#2E368F" stroke-width="1.25" stroke-linecap="round" stroke-linejoin="round" stroke-opacity="0.5" d="
	M25.221,47.041l-4.767,6.144l-0.179,0.229l-1.215,1.565l-0.109,0.565l-0.005,0.028l-1.733,9.008"/>
<path fill="#2AAAE2" stroke="#2E368F" stroke-width="1.25" stroke-linecap="round" stroke-linejoin="round" stroke-opacity="0.5" d="
	M129.525,198.714l4.405-3.564"/>
<path fill="#2AAAE2" stroke="#2E368F" stroke-width="1.25" stroke-linecap="round" stroke-linejoin="round" stroke-opacity="0.5" d="
	M11.041,93.939l-3.313,7.854"/>
<path fill="#2AAAE2" stroke="#2E368F" stroke-width="1.25" stroke-linecap="round" stroke-linejoin="round" stroke-opacity="0.5" d="
	M121.075,200.158l6.175-0.38l2.275-1.064l-7.805,1.123"/>
<path fill="#2AAAE2" stroke="#2E368F" stroke-width="1.25" stroke-linecap="round" stroke-linejoin="round" stroke-opacity="0.5" d="
	M32.302,29.15l-3.431,8.479L23.8,47.735l-3.523,5.677"/>
<path fill="#2AAAE2" stroke="#2E368F" stroke-width="1.25" stroke-linecap="round" stroke-linejoin="round" stroke-opacity="0.5" d="
	M49.695,12.711l-4.717,2.982l-0.496,0.496"/>
<path fill="#2AAAE2" stroke="#2E368F" stroke-width="1.25" stroke-linecap="round" stroke-linejoin="round" stroke-opacity="0.5" d="
	M18.951,55.545l-0.771,1.238l-4.175,8.456l-3.188,9.809"/>
<path fill="#2AAAE2" stroke="#2E368F" stroke-width="1.25" stroke-linecap="round" stroke-linejoin="round" stroke-opacity="0.5" d="
	M45.581,172.228l8.912,5.459l6.796,6.185"/>
<path fill="#2AAAE2" stroke="#2E368F" stroke-width="1.25" stroke-linecap="round" stroke-linejoin="round" stroke-opacity="0.5" d="
	M9.417,92.833l-3.538,9.396l-1.373,10.03"/>
<path fill="#2AAAE2" stroke="#2E368F" stroke-width="1.25" stroke-linecap="round" stroke-linejoin="round" stroke-opacity="0.5" d="
	M62.964,192.269l9.07,6.905l0.362,0.276l9.061,5.983l10.987-0.638"/>
<path fill="#2AAAE2" stroke="#2E368F" stroke-width="1.25" stroke-linecap="round" stroke-linejoin="round" stroke-opacity="0.5" d="
	M32.652,27.775l-2.797,2.676l-5.672,9.786l-4.231,10.205l-5.305,7.647l-5.041,7.947l-5.933,7.837l0.063,9.331L3.156,93.499
	l-0.034,0.96"/>
<path fill="#2AAAE2" stroke="#2E368F" stroke-width="1.25" stroke-linecap="round" stroke-linejoin="round" stroke-opacity="0.5" d="
	M35.979,165.673l7.646,6.854l6.876,5.868"/>
<path fill="#2AAAE2" stroke="#2E368F" stroke-width="1.25" stroke-linecap="round" stroke-linejoin="round" stroke-opacity="0.5" d="
	M3.592,92.956l-0.47,1.504l-2.497,7.997l2.567,9.956l1.262,9.464l3.995,5.034"/>
<path fill="#2AAAE2" stroke="#2E368F" stroke-width="1.25" stroke-linecap="round" stroke-linejoin="round" stroke-opacity="0.5" d="
	M5.959,121.536l2.49,5.375l1.673,3.613l4.448,7.754l4.447,7.647l2.985,5.578"/>
<path fill="#2AAAE2" stroke="#2E368F" stroke-width="1.25" stroke-linecap="round" stroke-linejoin="round" stroke-opacity="0.5" d="
	M20.852,145.399l1.151,6.104l0.515,2.722l2.765,2.59l2.694,2.524"/>
<path fill="#2AAAE2" stroke="#2E368F" stroke-width="1.25" stroke-linecap="round" stroke-linejoin="round" stroke-opacity="0.5" d="
	M25.282,156.815l1.653,2.566l5.924,5.747l6.278,7.854l7.418,7.227l6.83,5.813l7.539,5.525l7.226,5.478l3.884,2.148"/>
</svg>
