<?xml version="1.0" encoding="utf-8"?>
<!-- Generator: Adobe Illustrator 16.0.0, SVG Export Plug-In . SVG Version: 6.00 Build 0)  -->
<!DOCTYPE svg PUBLIC "-//W3C//DTD SVG 1.1//EN" "http://www.w3.org/Graphics/SVG/1.1/DTD/svg11.dtd">
<svg version="1.1" id="Layer_1" xmlns="http://www.w3.org/2000/svg" xmlns:xlink="http://www.w3.org/1999/xlink" x="0px" y="0px"
	 width="194.023px" height="208.213px" viewBox="0 0 194.023 208.213" enable-background="new 0 0 194.023 208.213"
	 xml:space="preserve">
<path fill="#2AAAE2" stroke="#2E368F" stroke-miterlimit="10" d="M5.148,144.063l2.307,3.566l7.998,8.361l6.396,4.086l2.132,7.215
	l7.412,3.993l6.981,4.56l1.114,0.356l4.272,7.146l8.032,2.304l4.007,1.186l1.235,1.051l8.087,2.979l2.655-0.004l1.564,1.938
	l2.794,0.195l0.55,0.626l6.563,3.838l1.623,3.693l7.41-1.603l4.496,2.434l0.768,0.02l4.686,3.231l4.729-1.55l3.299,1.616
	l10.538,1.543l5.364-0.417l3.888,1.159l7.475-5.171l3.423-0.423l6.536-4.782l3.061-3.276l5.209-3.671l6.5-3.012l3.829-3.581
	l6.708-0.514l5.131-6.127l4.774-6.232l3.26-6.761l4.173-5.279l5.291-9.969l-0.168-3.044l1.239-4.032l-0.046-5.187l-0.348-6.823
	l-3.053-7.292l0.445-5.365l1.152-8.892l-0.478-9.489l0.789-13.172l0.91-5.252l1.532-3.503l-0.614-1.799l-6.041-11.962l-0.817-1.186
	l-2.688-5.081l-3.639-7.831l-3.813-6.813l-3.023-3.398l-1.229-2.699l-5.295-8.025l-2.652-3.385l-3.295-3.672l-4.819-3.354
	l-4.784-4.614l-7.089-4.254l-8.408-6.148l-12.436-1.893l-4.777,2.289l-2.664-0.11l-10.616,5.034l-7.332,4.84l-1.118,0.618
	l-5.77,2.717l-3.295,1.741l-5.845,2.144L71.101,19.1l-8.441,2.942l-9.422,2.196l-10.792-0.475l-7.266,7.63l-6.271,9.262
	l-8.191,9.373l-4.673,15.198l-0.046,0.055l-0.311,1.104l1.325,6.13l0.587,4.177l0.418,1.037l0.315,6.848l-1.396,6.499l-3.599,1.966
	l-9.271,13.711l0.13,1.137l-0.959,7.073l-1.39,1.434l-1.227,8.244L5.148,144.063z"/>
<path fill="#2AAAE2" stroke="#2E368F" stroke-width="1.25" stroke-linecap="round" stroke-linejoin="round" stroke-opacity="0.5" d="
	M111.309,7.04l-1.153,0.559l-5.174,2.512l-3.746,1.816l-5.864,2.549l-4.04,1.756l-1.188,0.437l-2.963,1.087l-5.845,2.145
	l-10.233-0.797l-8.441,2.942l-9.423,2.196l-10.791-0.475l-7.266,7.631l-6.271,9.261l-8.191,9.373l-4.673,15.198"/>
<path fill="#2AAAE2" stroke="#2E368F" stroke-width="1.25" stroke-linecap="round" stroke-linejoin="round" stroke-opacity="0.5" d="
	M186.903,138.222l1.422-8.624l0.425-3.624l0.296-3.563l0.445-5.365l1.152-8.892l-0.477-9.489l0.789-13.172l0.909-5.252"/>
<path fill="#2AAAE2" stroke="#2E368F" stroke-width="1.25" stroke-linecap="round" stroke-linejoin="round" stroke-opacity="0.5" d="
	M125.327,203.43l8.197-1.014l3.423-0.423l6.536-4.782l3.061-3.276"/>
<path fill="#2AAAE2" stroke="#2E368F" stroke-width="1.25" stroke-linecap="round" stroke-linejoin="round" stroke-opacity="0.5" d="
	M174.665,42.854l-1.905-4.185l-1.229-2.699l-5.295-8.025l-2.651-3.385l-3.296-3.672l-4.818-3.354l-4.785-4.614l-7.088-4.254
	l-8.409-6.148l-12.435-1.893l-4.778,2.289l-0.66,0.314l-0.078,0.037l-17.632,8.446l-3.36,1.583l-5.769,2.717l-3.295,1.741"/>
<path fill="#2AAAE2" stroke="#2E368F" stroke-width="1.25" stroke-linecap="round" stroke-linejoin="round" stroke-opacity="0.5" d="
	M188.392,88.181l3.475-7.938l1.532-3.503l-0.614-1.798l-6.041-11.962l-0.817-1.187"/>
<path fill="#2AAAE2" stroke="#2E368F" stroke-width="1.25" stroke-linecap="round" stroke-linejoin="round" stroke-opacity="0.5" d="
	M144.411,195.438l2.133-1.503l5.209-3.671l6.5-3.012l3.83-3.581"/>
<path fill="#2AAAE2" stroke="#2E368F" stroke-width="1.25" stroke-linecap="round" stroke-linejoin="round" stroke-opacity="0.5" d="
	M187.36,153.839l3.198-5.844l0.692-2.25l1.24-4.032l-0.047-5.187l-0.348-6.823l-3.053-7.292"/>
<path fill="#2AAAE2" stroke="#2E368F" stroke-width="1.25" stroke-linecap="round" stroke-linejoin="round" stroke-opacity="0.5" d="
	M114.517,204.147l5.055,1.509l0.063,0.018l2.53,0.755l3.887,1.159l7.475-5.171"/>
<path fill="#2AAAE2" stroke="#2E368F" stroke-width="1.25" stroke-linecap="round" stroke-linejoin="round" stroke-opacity="0.5" d="
	M158.004,183.983l4.079-0.313l6.708-0.514l5.131-6.127l4.773-6.232l3.261-6.761l4.172-5.279l5.292-9.969l-0.169-3.044"/>
<path fill="#2AAAE2" stroke="#2E368F" stroke-width="1.25" stroke-linecap="round" stroke-linejoin="round" stroke-opacity="0.5" d="
	M187.827,65.39l-1.902-3.597l-2.688-5.081l-3.639-7.831l-3.813-6.813l-3.023-3.398"/>
<path fill="#2AAAE2" stroke="#2E368F" stroke-width="1.25" stroke-linecap="round" stroke-linejoin="round" stroke-opacity="0.5" d="
	M33.654,128.964l-0.255,1.989l-0.219,1.705l-0.095,0.741l-0.177,1.373l-0.716,5.576l0.373,1.553l2.218,9.216l7.896,8.684l5.47,8.691
	l5.695,7.62l6.447,3.835"/>
<path fill="#2AAAE2" stroke="#2E368F" stroke-width="1.25" stroke-linecap="round" stroke-linejoin="round" stroke-opacity="0.5" d="
	M33.624,45.126L20.459,60.182l-0.214,0.244l-1.783,2.04l-0.063,0.072l-0.104,0.12l-2.249,2.57l-0.047,0.055l-0.311,1.104l1.326,6.13
	"/>
<path fill="#2AAAE2" stroke="#2E368F" stroke-width="1.25" stroke-linecap="round" stroke-linejoin="round" stroke-opacity="0.5" d="
	M58.206,176.719l2.088,3.229l3.133,4.845l2.533,1.992l2.314,1.821l1.313,1.031l0.516,0.406l0.101,0.034l2.278,0.774l3.259,1.111
	l1.288,0.439l0.3,0.102l0.562,0.191l1.365,0.465l0.927,0.314l0.455,0.155l0.836,0.408l2.795,1.366l1.043,0.51l0.201,0.098
	l1.488,0.729l1.44,0.705l2.478,0.993l0.213,0.086l1.551,0.621l3.85,1.545l0.379,0.15l1.381,0.555l1.554,0.762l2.456,1.203
	l0.227,0.109l0.437,0.214l3.299,1.615l10.538,1.543l5.365-0.417"/>
<path fill="#2AAAE2" stroke="#2E368F" stroke-width="1.25" stroke-linecap="round" stroke-linejoin="round" stroke-opacity="0.5" d="
	M30.771,114.505l-0.585,4.061l-0.011,0.079l-0.867,6.015l-0.116,0.812l-0.52,11.212l3.895,5.221"/>
<path fill="#2AAAE2" stroke="#2E368F" stroke-width="1.25" stroke-linecap="round" stroke-linejoin="round" stroke-opacity="0.5" d="
	M26.69,94.19l0.364,2.156l0.558,3.314l0.937,5.551l0.346,2.053"/>
<path fill="#2AAAE2" stroke="#2E368F" stroke-width="1.25" stroke-linecap="round" stroke-linejoin="round" stroke-opacity="0.5" d="
	M15.999,65.283l0.009,0.065l0.08,0.568l0.927,6.601l0.586,4.177l0.419,1.037l0.265,0.653l3.267,8.089l0.688,1.709l0.263,0.646
	l0.014,0.036l0.359,0.889l0.731,1.815l0.181,0.443l0.589,1.456l1.425,4.012l0.193,0.544l2.555,7.188"/>
<path fill="#2AAAE2" stroke="#2E368F" stroke-width="1.25" stroke-linecap="round" stroke-linejoin="round" stroke-opacity="0.5" d="
	M28.943,104.039l-0.034,2.192l-0.016,1.033l-0.222,14.225l0.637,3.169"/>
<path fill="#2AAAE2" stroke="#2E368F" stroke-width="1.25" stroke-linecap="round" stroke-linejoin="round" stroke-opacity="0.5" d="
	M117.974,2.914l-2.664-0.11l-10.616,5.034l-7.332,4.84l-1.118,0.618"/>
<path fill="#2AAAE2" stroke="#2E368F" stroke-width="1.25" stroke-linecap="round" stroke-linejoin="round" stroke-opacity="0.5" d="
	M84.268,195.407l0.584,0.44l0.459,0.068"/>
<path fill="#2AAAE2" stroke="#2E368F" stroke-width="1.25" stroke-linecap="round" stroke-linejoin="round" stroke-opacity="0.5" d="
	M18.284,78.386l1.733,8.016l0.578,1.125l0.625,1.215l0.385,0.75l0.011,0.018l0.494,0.964l0.816,1.588l0.17,0.33l2.646,5.146
	l0.252,0.489"/>
<path fill="#2AAAE2" stroke="#2E368F" stroke-width="1.25" stroke-linecap="round" stroke-linejoin="round" stroke-opacity="0.5" d="
	M18.02,77.731l0.315,6.849l0.681,4.73l0.085,0.59l0.432,3l0.161,1.119l0.03,0.209l0.296,2.063l0.491,3.034l0.063,0.402l0.03,0.186
	l0.022,0.139l0.257,1.586l1.834,11.354l1.095,8.421"/>
<path fill="#2AAAE2" stroke="#2E368F" stroke-width="1.25" stroke-linecap="round" stroke-linejoin="round" stroke-opacity="0.5" d="
	M18.335,84.579l-1.396,6.499l-0.177,0.824l-0.588,2.736l-0.002,0.018l-0.098,0.56l-0.192,1.118l-1.293,7.486l-0.077,0.441
	l-0.053,0.311l-0.016,0.052l-0.039,0.151l-0.451,1.712l-0.242,0.916l-1.778,6.729"/>
<path fill="#2AAAE2" stroke="#2E368F" stroke-width="1.25" stroke-linecap="round" stroke-linejoin="round" stroke-opacity="0.5" d="
	M86.87,197.399l0.709,0.488l2.005,1.381l0.854,0.591l2.835,1.953l0.035,0.024l0.239,0.165l4.686,3.231l4.729-1.55"/>
<path fill="#2AAAE2" stroke="#2E368F" stroke-width="1.25" stroke-linecap="round" stroke-linejoin="round" stroke-opacity="0.5" d="
	M85.512,196.015l1.358,1.386l0.608,0.473l1.868,1.449l3.434,2.663l0.767,0.019"/>
<path fill="#2AAAE2" stroke="#2E368F" stroke-width="1.25" stroke-linecap="round" stroke-linejoin="round" stroke-opacity="0.5" d="
	M80.182,193.478l3.992,3.85l4.109,2.225l4.496,2.435"/>
<path fill="#2AAAE2" stroke="#2E368F" stroke-width="1.25" stroke-linecap="round" stroke-linejoin="round" stroke-opacity="0.5" d="
	M13.955,106.487l-3.378,3.407l-0.01,0.01l-0.133,0.135l-0.031,0.091l-0.975,2.915l-0.859,2.565l-0.043,0.128l-0.002,0.006
	l-0.059,0.176l-1.87,5.586l-0.066,0.197l-0.668,1.996l-0.495,8.217"/>
<path fill="#2AAAE2" stroke="#2E368F" stroke-width="1.25" stroke-linecap="round" stroke-linejoin="round" stroke-opacity="0.5" d="
	M77.029,192.404l0.176,0.396l0.007,0.019l0.24,0.55l0.039,0.087l1.761,4.005l1.623,3.694l7.409-1.604"/>
<path fill="#2AAAE2" stroke="#2E368F" stroke-width="1.25" stroke-linecap="round" stroke-linejoin="round" stroke-opacity="0.5" d="
	M68.275,188.606l0.987,1.121l0.458,0.521l0.536,0.609l1.88,2.138l0.55,0.626l6.564,3.838"/>
<path fill="#2AAAE2" stroke="#2E368F" stroke-width="1.25" stroke-linecap="round" stroke-linejoin="round" stroke-opacity="0.5" d="
	M14.591,103.82l-4.159,3.867l-0.825,0.769l-0.584,0.543l-0.064,0.068l-0.428,0.438l-1.668,1.722l-0.341,0.353l-0.145,0.148
	l-1.259,1.301l-0.297,0.304l-0.005,0.005l-1.575,1.627l-1.39,1.433l-1.227,8.245l4.521,19.42l2.306,3.566l7.998,8.361l6.396,4.086
	l2.132,7.215l7.412,3.993l6.981,4.56l1.114,0.356"/>
<path fill="#2AAAE2" stroke="#2E368F" stroke-width="1.25" stroke-linecap="round" stroke-linejoin="round" stroke-opacity="0.5" d="
	M63.562,185.634l3.737,4.633l0.258,0.32l0.222,0.274l1.564,1.938l2.794,0.195"/>
<path fill="#2AAAE2" stroke="#2E368F" stroke-width="1.25" stroke-linecap="round" stroke-linejoin="round" stroke-opacity="0.5" d="
	M16.189,152.96l5.226,5.133l5.238,4.511"/>
<path fill="#2AAAE2" stroke="#2E368F" stroke-width="1.25" stroke-linecap="round" stroke-linejoin="round" stroke-opacity="0.5" d="
	M26.604,162.533l0.046,0.065l0.003,0.004l5.259,7.699"/>
<path fill="#2AAAE2" stroke="#2E368F" stroke-width="1.25" stroke-linecap="round" stroke-linejoin="round" stroke-opacity="0.5" d="
	M50.654,182.458l5.146,4.377l1.235,1.051l8.087,2.979l2.655-0.004"/>
<path fill="#2AAAE2" stroke="#2E368F" stroke-width="1.25" stroke-linecap="round" stroke-linejoin="round" stroke-opacity="0.5" d="
	M10.436,101.563l-5.959,5.99l-0.024,0.025l-0.242,0.244l-0.01,0.067l-0.959,7.073"/>
<path fill="#2AAAE2" stroke="#2E368F" stroke-width="1.25" stroke-linecap="round" stroke-linejoin="round" stroke-opacity="0.5" d="
	M16.94,91.078l-3.599,1.966L4.07,106.755l0.13,1.137"/>
<path fill="#2AAAE2" stroke="#2E368F" stroke-width="1.25" stroke-linecap="round" stroke-linejoin="round" stroke-opacity="0.5" d="
	M38.713,174.902l0.774,1.298l4.272,7.146l8.032,2.303l4.007,1.187"/>
</svg>
