<?xml version="1.0" encoding="utf-8"?>
<!-- Generator: Adobe Illustrator 16.0.0, SVG Export Plug-In . SVG Version: 6.00 Build 0)  -->
<!DOCTYPE svg PUBLIC "-//W3C//DTD SVG 1.1//EN" "http://www.w3.org/Graphics/SVG/1.1/DTD/svg11.dtd">
<svg version="1.1" id="Layer_1" xmlns="http://www.w3.org/2000/svg" xmlns:xlink="http://www.w3.org/1999/xlink" x="0px" y="0px"
	 width="180.691px" height="157.305px" viewBox="0 0 180.691 157.305" enable-background="new 0 0 180.691 157.305"
	 xml:space="preserve">
<path fill="#2AAAE2" stroke="#2E368F" stroke-miterlimit="10" d="M172.312,86.534l3.988-6.516l1.705-5.87l2.061-6.635l-0.104-8.662
	l-0.449-1.69l-0.324-0.552l-2.133-6.182l-5.056-6.158l-4.009-5.811l-1.558-1.737l-5.005-3.868l-0.986-0.896l-1.873-2.23
	l-1.969-1.251l-7.615-3.438l-5.361-2.017l-3.496-2.405l-6.049-3.457l-4.188-1.184l-3.748-1.893l-6.151-4.168l-4.107-0.936
	l-2.278-1.173l-7.021-1.763l-6.986-3.124L91.26,1.255l-3.893,0.854l-4.265-0.434l-8.658-1.052l-6.978,0.854l-1.278-0.288
	l-9.573,2.601l-0.718,0.188L47.71,8.63l-6.293,2.644l-4.885,4.761l-8.438,1.703l-6.187,7.224l-0.947,1.305l-0.462,0.808
	l-1.514,0.817l-4.155,7.274l-4.63,7.148l-0.581,3.053l-1.031,2.558l-1.854,7.87l-0.388,3.889l-0.979,2.985l-0.283,2.348
	l-0.245,0.659L4.6,69.024l-0.091,0.754l-2.64,4.592l-0.05,7.859l-0.008,0.059l-0.271,1.647l-0.572,1.721l-0.069,2.159l-0.002,0.009
	l0.001,0.028l-0.018,0.539l-0.214,0.682l0.134,1.838L0.624,96.4l0.382,0.784l0.002,0.197l0.317,11.319l3.021,5.631l0.574,3.919
	l5.118,6.188l0.188,0.419l6.149,5.567l5.769,3.989l3.843,0.986l0.617,0.318l1.611,1.651l4.907,2.99l1.858,1.767l7.191,3.691
	l4.636,1.12l3.031,1.854l2.838,0.362l3.649,1.688l6.455,0.799l0.997,0.277l2.245,0.321l7.652,2.542l1.114-0.036l0.196,0.084
	l12.293,1.843l10.495-2.433l9.351-5.325l8.121-3.844l8.291-3.878l6.838-5.539l0.876-1.854l4.114-3.096l4.289-6.829l6.631-4.53
	l3.438-3.317l0.619-0.423l6.416-4.565l4.34-5.692l4.217-6.34l4.351-6.799L172.312,86.534z"/>
<path fill="#2AAAE2" stroke="#2E368F" stroke-width="1.25" stroke-linecap="round" stroke-linejoin="round" stroke-opacity="0.5" d="
	M29.071,135.262l1.429,0.533l2.68,1.002l0.316,0.114l1.483,0.533"/>
<path fill="#2AAAE2" stroke="#2E368F" stroke-width="1.25" stroke-linecap="round" stroke-linejoin="round" stroke-opacity="0.5" d="
	M109.334,123.735l0.628-1.171l4.234-8.235"/>
<path fill="#2AAAE2" stroke="#2E368F" stroke-width="1.25" stroke-linecap="round" stroke-linejoin="round" stroke-opacity="0.5" d="
	M22.689,133.2l2.908,1.573l0.179,0.098l1.683,0.909l0.938,0.508l0.396,0.214l0.249,0.063l2.736,0.672l0.069,0.017l0.899,0.222
	l2.158,0.528l0.426,0.104"/>
<path fill="#2AAAE2" stroke="#2E368F" stroke-width="1.25" stroke-linecap="round" stroke-linejoin="round" stroke-opacity="0.5" d="
	M40.693,142.333l0.541,0.269l6.247,3.083l5.908-0.091l0.758-0.012l1.437-0.021l8.015-0.62"/>
<path fill="#2AAAE2" stroke="#2E368F" stroke-width="1.25" stroke-linecap="round" stroke-linejoin="round" stroke-opacity="0.5" d="
	M31.848,137.252l3.558,1.388l1.324,0.925l0.551,0.385l0.927,0.646l0.714,0.5l0.245,0.172l1.527,1.066l0.162,0.08l0.236,0.019
	l6.603,0.484l0.012,0.001"/>
<path fill="#2AAAE2" stroke="#2E368F" stroke-width="1.25" stroke-linecap="round" stroke-linejoin="round" stroke-opacity="0.5" d="
	M112.189,28.83l-4.927-7.026l-8.326-6.235L90.868,11"/>
<path fill="#2AAAE2" stroke="#2E368F" stroke-width="1.25" stroke-linecap="round" stroke-linejoin="round" stroke-opacity="0.5" d="
	M9.13,51.831l-0.475,4.135l-0.492,4.309l-1.664,5.177L6.05,66.849l-0.186,0.574l-0.343,0.595L5.503,68.05l-0.565,0.982l-0.386,0.672
	l-0.043,0.074l-2.64,4.592l-0.05,7.859v0.016l-0.005,0.566l0.029,0.208l0.036,0.263l0.104,0.776l0.079,0.57l0.282,2.066l0.523,3.834
	l0.057,5.548l0.023,2.163l0.626,2.189l0.262,0.917l1.149,4.021l0.282,0.993"/>
<path fill="#2AAAE2" stroke="#2E368F" stroke-width="1.25" stroke-linecap="round" stroke-linejoin="round" stroke-opacity="0.5" d="
	M63.564,150.082l7.022,1.617l1.428,0.328l0.538,0.124l0.743-0.198l12.874-3.432"/>
<path fill="#2AAAE2" stroke="#2E368F" stroke-width="1.25" stroke-linecap="round" stroke-linejoin="round" stroke-opacity="0.5" d="
	M6.853,117.334l3.188,7.106l0.188,0.419l6.149,5.568l5.769,3.988l3.843,0.986l0.409,0.104l1.061,0.272"/>
<path fill="#2AAAE2" stroke="#2E368F" stroke-width="1.25" stroke-linecap="round" stroke-linejoin="round" stroke-opacity="0.5" d="
	M2.744,107.624l0.877,1.732l0.52,1.026l2.896,5.721l0.34,0.552"/>
<path fill="#2AAAE2" stroke="#2E368F" stroke-width="1.25" stroke-linecap="round" stroke-linejoin="round" stroke-opacity="0.5" d="
	M25.989,135.403l0.616,0.319l2.131,1.098l1.098,0.423l2.975,1.151l2.478,0.957l1.994,0.597"/>
<path fill="#2AAAE2" stroke="#2E368F" stroke-width="1.25" stroke-linecap="round" stroke-linejoin="round" stroke-opacity="0.5" d="
	M2.065,84.63l-0.491,1.566l-0.669,2.123l-0.022,0.072l-0.214,0.682l0.134,1.838l0.158,2.176l0.314,4.35"/>
<path fill="#2AAAE2" stroke="#2E368F" stroke-width="1.25" stroke-linecap="round" stroke-linejoin="round" stroke-opacity="0.5" d="
	M55.788,149.688l6.998,1.959l0.997,0.277l2.244,0.321l4.322,0.616l2.7,0.386l8.967,1.276l4.023,0.572l1.589-1.184l1.106-0.824
	l0.882-0.653l0.243-0.184l7.594-5.646"/>
<path fill="#2AAAE2" stroke="#2E368F" stroke-width="1.25" stroke-linecap="round" stroke-linejoin="round" stroke-opacity="0.5" d="
	M115.099,136.827l4.52-8.537"/>
<path fill="#2AAAE2" stroke="#2E368F" stroke-width="1.25" stroke-linecap="round" stroke-linejoin="round" stroke-opacity="0.5" d="
	M26.606,135.723l1.611,1.65l4.907,2.99l1.801,1.097l4.082-0.188l0.157-0.007"/>
<path fill="#2AAAE2" stroke="#2E368F" stroke-width="1.25" stroke-linecap="round" stroke-linejoin="round" stroke-opacity="0.5" d="
	M89.618,152.437l7.677-3.488l9.073-7.295l8.693-4.805l0.036-0.021l-0.813,1.48"/>
<path fill="#2AAAE2" stroke="#2E368F" stroke-width="1.25" stroke-linecap="round" stroke-linejoin="round" stroke-opacity="0.5" d="
	M143.4,108.265l7.179-6.741"/>
<path fill="#2AAAE2" stroke="#2E368F" stroke-width="1.25" stroke-linecap="round" stroke-linejoin="round" stroke-opacity="0.5" d="
	M0.96,93.087l0.047,4.099l0.002,0.197l0.317,11.319l3.021,5.631l1.864,3.473"/>
<path fill="#2AAAE2" stroke="#2E368F" stroke-width="1.25" stroke-linecap="round" stroke-linejoin="round" stroke-opacity="0.5" d="
	M27.519,23.284L24.84,24.73l-1.452,0.784L20.5,27.073l-1.515,0.817l-4.154,7.274l-4.63,7.148L9.62,45.366l-1.011,5.302l0.045,5.297"
	/>
<path fill="#2AAAE2" stroke="#2E368F" stroke-width="1.25" stroke-linecap="round" stroke-linejoin="round" stroke-opacity="0.5" d="
	M55.897,3.979l7.258-0.829l0.137-0.018l1.849-0.211l-1.129,0.441l-1.853,0.53l-0.193,0.055L60.62,4.331l-6.935,1.981l-2.682,2.111
	l-3.924,3.094l-1.708,1.004l-2.184,1.284l-0.236,0.141l-2.551,1.499l-0.03,0.019"/>
<path fill="#2AAAE2" stroke="#2E368F" stroke-width="1.25" stroke-linecap="round" stroke-linejoin="round" stroke-opacity="0.5" d="
	M7.995,57.186l-1.084,2.917l-0.827,2.226l-0.999,2.688L4.84,65.676l-0.239,3.35l-0.048,0.68"/>
<path fill="#2AAAE2" stroke="#2E368F" stroke-width="1.25" stroke-linecap="round" stroke-linejoin="round" stroke-opacity="0.5" d="
	M4.349,114.333l0.574,3.919l5.118,6.188"/>
<path fill="#2AAAE2" stroke="#2E368F" stroke-width="1.25" stroke-linecap="round" stroke-linejoin="round" stroke-opacity="0.5" d="
	M83.297,3.344l-7.354-0.194l-0.197-0.005l-0.734-0.021l-0.091-0.004l-0.209-0.004l-0.211-0.004L65.14,2.922"/>
<path fill="#2AAAE2" stroke="#2E368F" stroke-width="1.25" stroke-linecap="round" stroke-linejoin="round" stroke-opacity="0.5" d="
	M87.63,153.915l9.722-1.886"/>
<path fill="#2AAAE2" stroke="#2E368F" stroke-width="1.25" stroke-linecap="round" stroke-linejoin="round" stroke-opacity="0.5" d="
	M66.028,152.247l7.652,2.542l1.114-0.036l7.223-0.228"/>
<path fill="#2AAAE2" stroke="#2E368F" stroke-width="1.25" stroke-linecap="round" stroke-linejoin="round" stroke-opacity="0.5" d="
	M1.821,82.245l-0.008,0.043l-0.271,1.647L0.9,87.815l-0.002,0.009l0.001,0.028l0.006,0.467"/>
<path fill="#2AAAE2" stroke="#2E368F" stroke-width="1.25" stroke-linecap="round" stroke-linejoin="round" stroke-opacity="0.5" d="
	M40.402,15.446l-6.794,2.458l-6.56,3.298l-3.661,4.313"/>
<path fill="#2AAAE2" stroke="#2E368F" stroke-width="1.25" stroke-linecap="round" stroke-linejoin="round" stroke-opacity="0.5" d="
	M33.125,140.364l1.858,1.767l7.191,3.691l4.636,1.12l2.249,0.544l3.62,1.674l3.649,1.689l6.456,0.798"/>
<path fill="#2AAAE2" stroke="#2E368F" stroke-width="1.25" stroke-linecap="round" stroke-linejoin="round" stroke-opacity="0.5" d="
	M106,13.192l-6.3-5.027l-7.924-4.5"/>
<path fill="#2AAAE2" stroke="#2E368F" stroke-width="1.25" stroke-linecap="round" stroke-linejoin="round" stroke-opacity="0.5" d="
	M9.62,45.367l-1.031,2.558l-1.854,7.87l-0.388,3.889l-0.264,2.646"/>
<path fill="#2AAAE2" stroke="#2E368F" stroke-width="1.25" stroke-linecap="round" stroke-linejoin="round" stroke-opacity="0.5" d="
	M133.948,21.801l-6.544-3.123l-6.74-4.711l-7.097-4.131"/>
<path fill="#2AAAE2" stroke="#2E368F" stroke-width="1.25" stroke-linecap="round" stroke-linejoin="round" stroke-opacity="0.5" d="
	M75.746,3.144l7.301-0.509l1.246,0.146l1.502,0.177l5.665,0.669l0.316,0.037l-0.425-0.096"/>
<path fill="#2AAAE2" stroke="#2E368F" stroke-width="1.25" stroke-linecap="round" stroke-linejoin="round" stroke-opacity="0.5" d="
	M115.251,145.078l0.762-0.508l6.462-7.26"/>
<path fill="#2AAAE2" stroke="#2E368F" stroke-width="1.25" stroke-linecap="round" stroke-linejoin="round" stroke-opacity="0.5" d="
	M151.308,111.539l5.693-6.258l4.02-5.678"/>
<path fill="#2AAAE2" stroke="#2E368F" stroke-width="1.25" stroke-linecap="round" stroke-linejoin="round" stroke-opacity="0.5" d="
	M74.712,3.115l-7.245-1.637L66.188,1.19l-9.573,2.601l-0.718,0.188L47.71,8.632l-6.293,2.644l-4.885,4.761l-0.734,0.716"/>
<path fill="#2AAAE2" stroke="#2E368F" stroke-width="1.25" stroke-linecap="round" stroke-linejoin="round" stroke-opacity="0.5" d="
	M6.348,59.683l-0.979,2.985l-0.283,2.348"/>
<path fill="#2AAAE2" stroke="#2E368F" stroke-width="1.25" stroke-linecap="round" stroke-linejoin="round" stroke-opacity="0.5" d="
	M1.821,82.229l-0.008,0.059"/>
<path fill="#2AAAE2" stroke="#2E368F" stroke-width="1.25" stroke-linecap="round" stroke-linejoin="round" stroke-opacity="0.5" d="
	M4.601,69.024L4.51,69.778"/>
<path fill="#2AAAE2" stroke="#2E368F" stroke-width="1.25" stroke-linecap="round" stroke-linejoin="round" stroke-opacity="0.5" d="
	M46.812,146.942l3.031,1.854l2.838,0.362"/>
<path fill="#2AAAE2" stroke="#2E368F" stroke-width="1.25" stroke-linecap="round" stroke-linejoin="round" stroke-opacity="0.5" d="
	M172.951,85.063l0.818-2.465l0.922-3.244l0.014-0.044l0.676-2.377"/>
<path fill="#2AAAE2" stroke="#2E368F" stroke-width="1.25" stroke-linecap="round" stroke-linejoin="round" stroke-opacity="0.5" d="
	M161.326,102.007l1.087-1.634l0.145-0.218l3.193-4.8l4.085-4.795"/>
<path fill="#2AAAE2" stroke="#2E368F" stroke-width="1.25" stroke-linecap="round" stroke-linejoin="round" stroke-opacity="0.5" d="
	M36.532,16.035l-8.438,1.703l-6.187,7.224l-0.947,1.305l-0.462,0.808"/>
<path fill="#2AAAE2" stroke="#2E368F" stroke-width="1.25" stroke-linecap="round" stroke-linejoin="round" stroke-opacity="0.5" d="
	M153.123,29.222l-4.838-3.063l-1.104-0.697l-0.233-0.147l-1.985-1.366l-0.075-0.052l-1.266-0.871l-3.496-2.405l-6.049-3.457
	l-4.188-1.184l-2.871-0.813l-6.68-3.889l-4.457-2.294l-2.278-1.173l-7.021-1.763l-6.986-3.124l-8.338-1.666L87.365,2.11"/>
<path fill="#2AAAE2" stroke="#2E368F" stroke-width="1.25" stroke-linecap="round" stroke-linejoin="round" stroke-opacity="0.5" d="
	M74.795,154.753l0.197,0.084l12.293,1.843l10.495-2.433l9.35-5.325l8.121-3.844l8.291-3.878l6.838-5.539l0.876-1.854l2.891-6.119"/>
<path fill="#2AAAE2" stroke="#2E368F" stroke-width="1.25" stroke-linecap="round" stroke-linejoin="round" stroke-opacity="0.5" d="
	M139.66,123.883l6.63-4.529l3.438-3.318l1.911-1.844"/>
<path fill="#2AAAE2" stroke="#2E368F" stroke-width="1.25" stroke-linecap="round" stroke-linejoin="round" stroke-opacity="0.5" d="
	M131.256,133.808l4.115-3.097l4.289-6.829l0.309-0.49"/>
<path fill="#2AAAE2" stroke="#2E368F" stroke-width="1.25" stroke-linecap="round" stroke-linejoin="round" stroke-opacity="0.5" d="
	M0.802,90.911L0.625,96.4l0.382,0.784"/>
<path fill="#2AAAE2" stroke="#2E368F" stroke-width="1.25" stroke-linecap="round" stroke-linejoin="round" stroke-opacity="0.5" d="
	M0.899,87.853l-0.018,0.539"/>
<path fill="#2AAAE2" stroke="#2E368F" stroke-width="1.25" stroke-linecap="round" stroke-linejoin="round" stroke-opacity="0.5" d="
	M91.418,2.521L87.366,2.11l-4.265-0.433l-8.659-1.053l-6.977,0.854"/>
<path fill="#2AAAE2" stroke="#2E368F" stroke-width="1.25" stroke-linecap="round" stroke-linejoin="round" stroke-opacity="0.5" d="
	M162.776,34.743l-2.335-2.784l-1.873-2.23l-1.142-0.501l-0.155-0.068l-5.563-2.442l-4.525-1.255"/>
<path fill="#2AAAE2" stroke="#2E368F" stroke-width="1.25" stroke-linecap="round" stroke-linejoin="round" stroke-opacity="0.5" d="
	M1.542,83.936L0.97,85.656L0.9,87.815"/>
<path fill="#2AAAE2" stroke="#2E368F" stroke-width="1.25" stroke-linecap="round" stroke-linejoin="round" stroke-opacity="0.5" d="
	M149.728,116.034l0.619-0.423l6.416-4.565l4.34-5.691l4.217-6.34l4.351-6.8l2.643-5.681l3.988-6.516l1.705-5.87l2.061-6.635
	l-0.104-8.662"/>
<path fill="#2AAAE2" stroke="#2E368F" stroke-width="1.25" stroke-linecap="round" stroke-linejoin="round" stroke-opacity="0.5" d="
	M176.157,54.312l-1.966-5.982l-0.015-0.046l-0.336-1.021l-1.844-2.991l-4.01-5.811l-1.557-1.737l-5.005-3.868l-0.986-0.896"/>
<path fill="#2AAAE2" stroke="#2E368F" stroke-width="1.25" stroke-linecap="round" stroke-linejoin="round" stroke-opacity="0.5" d="
	M158.568,29.728l-1.969-1.251l-7.615-3.438l-5.361-2.017"/>
<path fill="#2AAAE2" stroke="#2E368F" stroke-width="1.25" stroke-linecap="round" stroke-linejoin="round" stroke-opacity="0.5" d="
	M129.89,15.978l-3.748-1.893l-6.151-4.168l-4.107-0.936"/>
<path fill="#2AAAE2" stroke="#2E368F" stroke-width="1.25" stroke-linecap="round" stroke-linejoin="round" stroke-opacity="0.5" d="
	M179.187,56.609l0.324,0.552l0.449,1.69L179.187,56.609l-2.133-6.182l-5.056-6.158"/>
</svg>
