<?xml version="1.0" encoding="utf-8"?>
<!-- Generator: Adobe Illustrator 16.0.0, SVG Export Plug-In . SVG Version: 6.00 Build 0)  -->
<!DOCTYPE svg PUBLIC "-//W3C//DTD SVG 1.1//EN" "http://www.w3.org/Graphics/SVG/1.1/DTD/svg11.dtd">
<svg version="1.1" id="Layer_1" xmlns="http://www.w3.org/2000/svg" xmlns:xlink="http://www.w3.org/1999/xlink" x="0px" y="0px"
	 width="150.396px" height="178.756px" viewBox="0 0 150.396 178.756" enable-background="new 0 0 150.396 178.756"
	 xml:space="preserve">
<path fill="#2AAAE2" stroke="#2E368F" stroke-miterlimit="10" d="M1.937,51.988l1.762,3.275l1.01,5.07l1.597,2.063l0.509,0.854
	l-1.456,4.259l0.232,0.455l0.618,6.035l2.162,4.339l1.408,2.053l1.053,3.77l1.465,1.65l0.238,0.672l-0.88,3.322l-0.309,2.27
	l1.717,5.504l0.135,0.813l-1.745,2.275l-2.709,4.323l-1.179,4.558l-0.324,2.32l0.418,3.146l0.432,3.108l0.563,3.438l0.6,3.374
	l0.933,3.862l3.609,5.124l0.069,0.104l1.925,6.354l1.018,1.524l0.432,2.433l1.911,3.367l3.897,8.022l4.258,3.846l3.855,2.504
	l6.125,3.091l2.675-0.103l3.524,2.006l6.293,2.938l4.622-2.926l1.1,0.56l5.302,1.634l1.762,1.539l1.218,0.284l5.073,2.607
	l6.115,1.698l7.284,2.726l4.896-1.347l0.841,0.309l0.696-0.73l1.305-0.373l5.414-3.318l3.979-3.931l1.104-6.361l3.949-3.418
	l2.904-3.448l1.43-4.269l4.104-2.973l2.42-3.564l0.903-2.655l1.769-2.094l2.948-2.583l1.365-4.632l3.338-3.824l2.354-4.64
	l0.877-4.988l0.06-2.852l-0.282-6.294l-0.052-0.222l0.729-2.768l0.479-0.494l0.839-2.727l2.694-1.688l-1.46-1.462l0.003-0.006
	l0.292-1.809l0.041-0.134l-0.013-0.044l0.754-4.665L131.45,86.8l-0.196-0.443l-0.016-0.217l0.534-6.801l-0.002-0.007l4.922-2.44
	l2.05-1.831l1.135-1.729l0.935-1.042l6.013-5.421l1.914-5.745l0.016-0.022l1.018-3.077l-0.635-1.546l0.254-0.614l-1.021-1.256
	l-0.663-1.616l0.429-2.947l-1.709-3.509l-0.119-4.139l-2.492-4.432l-1.978-3.693l-1.305-4.612l-3.526-4.318l-0.96-0.762
	l-1.918-2.188l-2.641-4.885l-1.066-0.692l-4.212-2.361l-5.877-5.582l-5.292,0.481l-3.109-0.215l-3.648-1.705l-1.583,0.297
	l-2.591-0.869l-2.424-0.064l-4.615,0.938l-3.442-0.367l-1.463,0.093L85.241,6.35l-4.583-1.21l-7.347-1.815l-2.318-1.6l-3.409-1.101
	l-2.945,0.164l-2.407,0.366l-8.197,1.213L52.67,2.437l-3.128,0.651l-2.047,0.789l-1.013,0.271l-4.635,0.725l-6.146,2.818
	l-2.441,0.89l-3.125-0.173L27.047,8l-2.846,0.439l-6.435,0.866l-5.028,5.246l-4.018,2.397l-1.256,2.758L5.46,22.146l-1.239,6.596
	l0.119,2.185l-0.078,0.744l-1.224,3.428l-0.86,5.217l-0.101,0.633L1.43,42.728L0.629,45.59l0.5,3.407L1.937,51.988z"/>
<path fill="#2AAAE2" stroke="#2E368F" stroke-width="1.25" stroke-linecap="round" stroke-linejoin="round" stroke-opacity="0.5" d="
	M135.305,72.816l0.305-0.229l2.001-1.493l1.575-1.175l2.425-1.809l2.272-2.416"/>
<path fill="#2AAAE2" stroke="#2E368F" stroke-width="1.25" stroke-linecap="round" stroke-linejoin="round" stroke-opacity="0.5" d="
	M147.795,58.168l-0.953-2.942l-0.207-0.639l-1.059-3.267l-0.07-0.218v-0.014l0.015-0.729l0.113-6.318"/>
<path fill="#2AAAE2" stroke="#2E368F" stroke-width="1.25" stroke-linecap="round" stroke-linejoin="round" stroke-opacity="0.5" d="
	M100.52,123.786l0.595-1.249l1.803-4.57"/>
<path fill="#2AAAE2" stroke="#2E368F" stroke-width="1.25" stroke-linecap="round" stroke-linejoin="round" stroke-opacity="0.5" d="
	M146.127,63.784l0.036-0.088l0.223-0.539l1.477-3.583l0.188-0.455l0.17-0.414l0.916-2.225l0.254-0.614l-1.021-1.256l-0.762-0.938
	l-0.084-0.102l-0.421-0.521l-0.3-0.367l-0.25-0.31l-1.045-1.284"/>
<path fill="#2AAAE2" stroke="#2E368F" stroke-width="1.25" stroke-linecap="round" stroke-linejoin="round" stroke-opacity="0.5" d="
	M104.073,128.627l0.095-0.617l0.229-1.479l-0.452,0.554l-4.468,5.467l-3.783,7.297"/>
<path fill="#2AAAE2" stroke="#2E368F" stroke-width="1.25" stroke-linecap="round" stroke-linejoin="round" stroke-opacity="0.5" d="
	M67.605,162.549l7.81-1.465"/>
<path fill="#2AAAE2" stroke="#2E368F" stroke-width="1.25" stroke-linecap="round" stroke-linejoin="round" stroke-opacity="0.5" d="
	M104.397,126.531l-1.099-7.201"/>
<path fill="#2AAAE2" stroke="#2E368F" stroke-width="1.25" stroke-linecap="round" stroke-linejoin="round" stroke-opacity="0.5" d="
	M123.209,87.54l0.613-0.555l0.55-0.498l0.305-0.273l0.885-0.8l0.521-0.471l1.477-2.211l0.509-0.766l0.539-0.808l0.151-0.227
	l0.269-0.402l0.067-0.103l0.287-0.43l0.238-0.356l0.893-0.724l0.992-0.804l1.463-1.183l1.244-1.011l0.67-0.948l1.768-2.511
	l0.43-0.609l0.534-0.761"/>
<path fill="#2AAAE2" stroke="#2E368F" stroke-width="1.25" stroke-linecap="round" stroke-linejoin="round" stroke-opacity="0.5" d="
	M137.076,71.854l2.042-1.022l2.275-1.14l0.873-0.438l0.436-0.219l0.874-0.437l0.411-0.597l4.75-6.877l0.017-0.021l-0.005-0.018
	l-0.213-0.957l-0.316-1.426"/>
<path fill="#2AAAE2" stroke="#2E368F" stroke-width="1.25" stroke-linecap="round" stroke-linejoin="round" stroke-opacity="0.5" d="
	M81.979,160.526l9.328-2.723l1.773-0.541l4.054-7.67l2.485-6.107"/>
<path fill="#2AAAE2" stroke="#2E368F" stroke-width="1.25" stroke-linecap="round" stroke-linejoin="round" stroke-opacity="0.5" d="
	M146.551,52.374l-1.031-2.015"/>
<path fill="#2AAAE2" stroke="#2E368F" stroke-width="1.25" stroke-linecap="round" stroke-linejoin="round" stroke-opacity="0.5" d="
	M39.96,165.065l3.524,2.006l6.293,2.938l4.622-2.926l0.019-0.012l0.902-0.572l0.326-0.206l1.662-0.068l0.195-0.009l0.012-0.001
	l0.092-0.003l0.343-0.015l0.066-0.003l0.483-0.021l0.08-0.003l2.933-0.122l2.724-0.599l3.026,0.51l9.088,1.847"/>
<path fill="#2AAAE2" stroke="#2E368F" stroke-width="1.25" stroke-linecap="round" stroke-linejoin="round" stroke-opacity="0.5" d="
	M16.806,141.905l0.432,2.433l1.911,3.367l3.897,8.022l4.257,3.846l3.856,2.504l6.125,3.091l2.675-0.103L46.8,164.8"/>
<path fill="#2AAAE2" stroke="#2E368F" stroke-width="1.25" stroke-linecap="round" stroke-linejoin="round" stroke-opacity="0.5" d="
	M11.668,125.257l1.117,4.677l0.287,1.2l0.313,1.308l0.479,1.586l1.925,6.354l1.018,1.524l3.458,5.187l2.338,3.331"/>
<path fill="#2AAAE2" stroke="#2E368F" stroke-width="1.25" stroke-linecap="round" stroke-linejoin="round" stroke-opacity="0.5" d="
	M106.491,104.63l5.471-4.909l0.438-0.82"/>
<path fill="#2AAAE2" stroke="#2E368F" stroke-width="1.25" stroke-linecap="round" stroke-linejoin="round" stroke-opacity="0.5" d="
	M148.753,61.104l1.018-3.078l-0.636-1.546"/>
<path fill="#2AAAE2" stroke="#2E368F" stroke-width="1.25" stroke-linecap="round" stroke-linejoin="round" stroke-opacity="0.5" d="
	M143.576,68.6l3.247-1.729l1.914-5.745"/>
<path fill="#2AAAE2" stroke="#2E368F" stroke-width="1.25" stroke-linecap="round" stroke-linejoin="round" stroke-opacity="0.5" d="
	M101.277,136.107l2.796-7.48l2.385-6.024"/>
<path fill="#2AAAE2" stroke="#2E368F" stroke-width="1.25" stroke-linecap="round" stroke-linejoin="round" stroke-opacity="0.5" d="
	M146.46,47.771l-0.036-1.233l-0.119-4.139l-2.492-4.432l-1.978-3.693l-1.305-4.612l-3.526-4.318l-0.96-0.762l-3.146-2.497"/>
<path fill="#2AAAE2" stroke="#2E368F" stroke-width="1.25" stroke-linecap="round" stroke-linejoin="round" stroke-opacity="0.5" d="
	M128.065,81.968l0.885-0.737l1.22-1.021l0.232-0.193l0.056-0.047l1.228-1.024l2.092-1.75"/>
<path fill="#2AAAE2" stroke="#2E368F" stroke-width="1.25" stroke-linecap="round" stroke-linejoin="round" stroke-opacity="0.5" d="
	M127.34,18.338l-1.873-0.992l-6.655-3.314"/>
<path fill="#2AAAE2" stroke="#2E368F" stroke-width="1.25" stroke-linecap="round" stroke-linejoin="round" stroke-opacity="0.5" d="
	M148.367,54.61l-0.663-1.616l-0.66-1.605l-0.107-0.266"/>
<path fill="#2AAAE2" stroke="#2E368F" stroke-width="1.25" stroke-linecap="round" stroke-linejoin="round" stroke-opacity="0.5" d="
	M85.943,166.742l7.416-2.032l0.508-0.139l-0.499,0.127l-2.797,0.714l-1.9-0.001l-7.006-0.003"/>
<path fill="#2AAAE2" stroke="#2E368F" stroke-width="1.25" stroke-linecap="round" stroke-linejoin="round" stroke-opacity="0.5" d="
	M130.402,80.014l0.96-0.476l0.408-0.203l4.922-2.439l3.185-3.561l0.935-1.042l6.013-5.421"/>
<path fill="#2AAAE2" stroke="#2E368F" stroke-width="1.25" stroke-linecap="round" stroke-linejoin="round" stroke-opacity="0.5" d="
	M54.418,167.071l2.101-0.454l0.995-0.215l0.463-0.102l0.179-0.037l0.059-0.015l0.308-0.064l0.062-0.015"/>
<path fill="#2AAAE2" stroke="#2E368F" stroke-width="1.25" stroke-linecap="round" stroke-linejoin="round" stroke-opacity="0.5" d="
	M147.704,52.994l0.429-2.947l-1.709-3.509"/>
<path fill="#2AAAE2" stroke="#2E368F" stroke-width="1.25" stroke-linecap="round" stroke-linejoin="round" stroke-opacity="0.5" d="
	M8.492,120.397l0.896,2.7l2.012,4.769l1.674,3.268"/>
<path fill="#2AAAE2" stroke="#2E368F" stroke-width="1.25" stroke-linecap="round" stroke-linejoin="round" stroke-opacity="0.5" d="
	M107.013,124.925l4.529-7.903l-0.407-7.558"/>
<path fill="#2AAAE2" stroke="#2E368F" stroke-width="1.25" stroke-linecap="round" stroke-linejoin="round" stroke-opacity="0.5" d="
	M136.692,76.895l2.05-1.831l1.135-1.729"/>
<path fill="#2AAAE2" stroke="#2E368F" stroke-width="1.25" stroke-linecap="round" stroke-linejoin="round" stroke-opacity="0.5" d="
	M119.95,95.582l2.517-4.85l1.532-1.294l0.556-0.47l1.121-0.946l0.632-0.532l1.913-1.616l1.435-1.212l0.369-1.104l1.339-4.021"/>
<path fill="#2AAAE2" stroke="#2E368F" stroke-width="1.25" stroke-linecap="round" stroke-linejoin="round" stroke-opacity="0.5" d="
	M9.146,111.137l0.482,5.27"/>
<path fill="#2AAAE2" stroke="#2E368F" stroke-width="1.25" stroke-linecap="round" stroke-linejoin="round" stroke-opacity="0.5" d="
	M58.154,166.264l1.054,0.342l0.136,0.044l1.092,0.353l5.188,1.679l9.079,2.349l4.925,1.42l7.328,0.794l2.386-2.563l2.336-2.509
	l6.087-6.205"/>
<path fill="#2AAAE2" stroke="#2E368F" stroke-width="1.25" stroke-linecap="round" stroke-linejoin="round" stroke-opacity="0.5" d="
	M21.742,89.231l-2.982,3.731l-2.567,3.953l-0.673,1.035l-0.023,0.036"/>
<path fill="#2AAAE2" stroke="#2E368F" stroke-width="1.25" stroke-linecap="round" stroke-linejoin="round" stroke-opacity="0.5" d="
	M93.867,164.571l0.168-0.362l2.948-6.351l2.187-5.215l1.454-4.983l2.952-3.758l0.172-0.219"/>
<path fill="#2AAAE2" stroke="#2E368F" stroke-width="1.25" stroke-linecap="round" stroke-linejoin="round" stroke-opacity="0.5" d="
	M136.044,24.582l-1.918-2.187l-2.641-4.886l-1.066-0.692l-4.212-2.361l-5.877-5.582l-5.292,0.482"/>
<path fill="#2AAAE2" stroke="#2E368F" stroke-width="1.25" stroke-linecap="round" stroke-linejoin="round" stroke-opacity="0.5" d="
	M56.518,166.617l1.396,0.137l1.938,0.19l0.581,0.057"/>
<path fill="#2AAAE2" stroke="#2E368F" stroke-width="1.25" stroke-linecap="round" stroke-linejoin="round" stroke-opacity="0.5" d="
	M103.32,141.864l2.734-6.636"/>
<path fill="#2AAAE2" stroke="#2E368F" stroke-width="1.25" stroke-linecap="round" stroke-linejoin="round" stroke-opacity="0.5" d="
	M105.812,11.525l-3.087,0.256l-5.407,0.594l-0.615,0.067"/>
<path fill="#2AAAE2" stroke="#2E368F" stroke-width="1.25" stroke-linecap="round" stroke-linejoin="round" stroke-opacity="0.5" d="
	M19.892,90.291l-2.345,3.849l-1.807,1.612l-0.468,0.418l-0.438,0.391l-0.274,0.245l-0.085,0.075l-0.077,0.068l-0.311,0.277
	l-0.893,1.165l-1.745,2.275l-2.709,4.323l-1.179,4.558l-0.324,2.32l0.418,3.146l0.432,3.109l0.563,3.438l0.6,3.374l0.933,3.862
	l3.609,5.124l0.069,0.104"/>
<path fill="#2AAAE2" stroke="#2E368F" stroke-width="1.25" stroke-linecap="round" stroke-linejoin="round" stroke-opacity="0.5" d="
	M93.412,13.136l-9.003,0.146l-0.388,0.037l-0.014,0.001l-5.194,0.485"/>
<path fill="#2AAAE2" stroke="#2E368F" stroke-width="1.25" stroke-linecap="round" stroke-linejoin="round" stroke-opacity="0.5" d="
	M111.615,124.67l0.049-0.39l0.643-5.107l0.06-0.478l0.254-2.021l4.436-7.357"/>
<path fill="#2AAAE2" stroke="#2E368F" stroke-width="1.25" stroke-linecap="round" stroke-linejoin="round" stroke-opacity="0.5" d="
	M80.571,174.373l6.577,2.411l0.841,0.309l0.396-0.647l0.084-0.136l3.758-6.154l-0.374,0.219l-4.896,2.868"/>
<path fill="#2AAAE2" stroke="#2E368F" stroke-width="1.25" stroke-linecap="round" stroke-linejoin="round" stroke-opacity="0.5" d="
	M123.688,93.998l0.666-0.54l0.199-4.487"/>
<path fill="#2AAAE2" stroke="#2E368F" stroke-width="1.25" stroke-linecap="round" stroke-linejoin="round" stroke-opacity="0.5" d="
	M92.226,170.154l3.652-3.939"/>
<path fill="#2AAAE2" stroke="#2E368F" stroke-width="1.25" stroke-linecap="round" stroke-linejoin="round" stroke-opacity="0.5" d="
	M102.916,145.477l0.832-1.793l1.842-4.579l3.027-6.327l1.546-2.9l1.146-2.147"/>
<path fill="#2AAAE2" stroke="#2E368F" stroke-width="1.25" stroke-linecap="round" stroke-linejoin="round" stroke-opacity="0.5" d="
	M98.127,162.57l0.996-3.899l1.801-3.644"/>
<path fill="#2AAAE2" stroke="#2E368F" stroke-width="1.25" stroke-linecap="round" stroke-linejoin="round" stroke-opacity="0.5" d="
	M117.971,9.56l-2.934-0.203l-3.109-0.216l-1.305-0.091l-3.928-1.316l-2.591-0.87l-2.424-0.064l-4.615,0.938L95.14,8.128
	l-6.679-0.784l-5.135-0.881"/>
<path fill="#2AAAE2" stroke="#2E368F" stroke-width="1.25" stroke-linecap="round" stroke-linejoin="round" stroke-opacity="0.5" d="
	M54.399,167.083l1.1,0.561l5.302,1.633l0.507,0.156"/>
<path fill="#2AAAE2" stroke="#2E368F" stroke-width="1.25" stroke-linecap="round" stroke-linejoin="round" stroke-opacity="0.5" d="
	M110.131,130.301l1.18-2.571l0.354-3.448"/>
<path fill="#2AAAE2" stroke="#2E368F" stroke-width="1.25" stroke-linecap="round" stroke-linejoin="round" stroke-opacity="0.5" d="
	M112.306,119.173l1.636-3.963"/>
<path fill="#2AAAE2" stroke="#2E368F" stroke-width="1.25" stroke-linecap="round" stroke-linejoin="round" stroke-opacity="0.5" d="
	M62.178,169.807l1.386,1.181l0.216,0.112l5.073,2.606l6.115,1.698l-5.466-2.431l-2.702-1.168L62.178,169.807l-0.871-0.375
	l-0.649-0.281l-0.418-0.181"/>
<path fill="#2AAAE2" stroke="#2E368F" stroke-width="1.25" stroke-linecap="round" stroke-linejoin="round" stroke-opacity="0.5" d="
	M125.314,90.409l0.992-2.919"/>
<path fill="#2AAAE2" stroke="#2E368F" stroke-width="1.25" stroke-linecap="round" stroke-linejoin="round" stroke-opacity="0.5" d="
	M116.787,111.446l1.954-2.86l2.584-3.887"/>
<path fill="#2AAAE2" stroke="#2E368F" stroke-width="1.25" stroke-linecap="round" stroke-linejoin="round" stroke-opacity="0.5" d="
	M104.23,151.794l1.354-2.813l0.346-1.242"/>
<path fill="#2AAAE2" stroke="#2E368F" stroke-width="1.25" stroke-linecap="round" stroke-linejoin="round" stroke-opacity="0.5" d="
	M74.969,175.405l7.283,2.726l4.896-1.347"/>
<path fill="#2AAAE2" stroke="#2E368F" stroke-width="1.25" stroke-linecap="round" stroke-linejoin="round" stroke-opacity="0.5" d="
	M111.928,9.142l-3.648-1.705l-1.583,0.297"/>
<path fill="#2AAAE2" stroke="#2E368F" stroke-width="1.25" stroke-linecap="round" stroke-linejoin="round" stroke-opacity="0.5" d="
	M12.777,81.221l2.398,4.312l1.107,3.992l0.19,0.683l0.077,0.28l-0.063,0.19l-0.031,0.096l-1.192,3.643l-0.02,0.057l-0.147,0.467
	l-0.313,0.975l-0.043,0.135l-0.003,0.011l-0.264,0.823"/>
<path fill="#2AAAE2" stroke="#2E368F" stroke-width="1.25" stroke-linecap="round" stroke-linejoin="round" stroke-opacity="0.5" d="
	M14.74,96.057l-0.341,0.893"/>
<path fill="#2AAAE2" stroke="#2E368F" stroke-width="1.25" stroke-linecap="round" stroke-linejoin="round" stroke-opacity="0.5" d="
	M87.989,177.093l0.696-0.73l1.305-0.373l5.414-3.318l3.98-3.931l1.103-6.361l3.949-3.418l2.905-3.447l1.429-4.27l4.104-2.972
	l2.42-3.565l0.903-2.655l0.675-1.985"/>
<path fill="#2AAAE2" stroke="#2E368F" stroke-width="1.25" stroke-linecap="round" stroke-linejoin="round" stroke-opacity="0.5" d="
	M16.284,89.523l0.174,1.249"/>
<path fill="#2AAAE2" stroke="#2E368F" stroke-width="1.25" stroke-linecap="round" stroke-linejoin="round" stroke-opacity="0.5" d="
	M129.428,92.03l0.073-3.652l0.167-3.473"/>
<path fill="#2AAAE2" stroke="#2E368F" stroke-width="1.25" stroke-linecap="round" stroke-linejoin="round" stroke-opacity="0.5" d="
	M14.786,95.912l-0.265-2.044l-0.221-1.695l-0.028-0.223l-0.027,1.407l0.498,2.688"/>
<path fill="#2AAAE2" stroke="#2E368F" stroke-width="1.25" stroke-linecap="round" stroke-linejoin="round" stroke-opacity="0.5" d="
	M67.311,5.791l-2.125-1.007l-5.143-1.439"/>
<path fill="#2AAAE2" stroke="#2E368F" stroke-width="1.25" stroke-linecap="round" stroke-linejoin="round" stroke-opacity="0.5" d="
	M60.801,169.275l1.761,1.539l1.218,0.285"/>
<path fill="#2AAAE2" stroke="#2E368F" stroke-width="1.25" stroke-linecap="round" stroke-linejoin="round" stroke-opacity="0.5" d="
	M97.066,7.737L93.624,7.37l-1.463,0.093l-6.923-1.11l-4.583-1.21l-7.347-1.816l-0.17-0.042l-1.319-0.326l-0.176-0.044L68.73,2.032
	l-0.806-0.244l-3.291-0.997l2.946-0.164"/>
<path fill="#2AAAE2" stroke="#2E368F" stroke-width="1.25" stroke-linecap="round" stroke-linejoin="round" stroke-opacity="0.5" d="
	M128.107,105.512l0.119-0.073l1.69-1.062l0.305-0.188l0.202-0.127l0.198-0.125l2.694-1.688l-1.46-1.462l-0.202-0.202l-0.777-0.778
	l-0.01-0.01l-0.142-0.143l-0.766-0.765"/>
<path fill="#2AAAE2" stroke="#2E368F" stroke-width="1.25" stroke-linecap="round" stroke-linejoin="round" stroke-opacity="0.5" d="
	M125.715,102.169l3.041-1.948l0.696-0.445l0.511-0.886l0.523-1.776l0.001-0.002l0.131-0.445l0.393-1.327l0.058-0.489l0.199-1.683
	l0.199-3.886l-0.213-2.922l-0.016-0.216l0.534-6.802l-0.002-0.007"/>
<path fill="#2AAAE2" stroke="#2E368F" stroke-width="1.25" stroke-linecap="round" stroke-linejoin="round" stroke-opacity="0.5" d="
	M8.303,59.231l-0.89,2.259L7.068,62.5l-0.021,0.06L6.89,63.026l-0.031,0.089l-0.047,0.137l-1.456,4.259l0.247,0.409l0.001,0.002
	l2.963,4.93l2.564,4.021l2.813,3.742"/>
<path fill="#2AAAE2" stroke="#2E368F" stroke-width="1.25" stroke-linecap="round" stroke-linejoin="round" stroke-opacity="0.5" d="
	M4.18,50.126l1.896,4.811"/>
<path fill="#2AAAE2" stroke="#2E368F" stroke-width="1.25" stroke-linecap="round" stroke-linejoin="round" stroke-opacity="0.5" d="
	M5.008,55.879l3.296,3.354l0.001,0.001l0.037,0.039"/>
<path fill="#2AAAE2" stroke="#2E368F" stroke-width="1.25" stroke-linecap="round" stroke-linejoin="round" stroke-opacity="0.5" d="
	M116.198,142.051l1.769-2.094l2.948-2.583l1.365-4.632l1.087-3.684l1.063-7.233"/>
<path fill="#2AAAE2" stroke="#2E368F" stroke-width="1.25" stroke-linecap="round" stroke-linejoin="round" stroke-opacity="0.5" d="
	M9.778,80.391l1.053,3.77l1.465,1.65l0.32,0.358l0.077,0.087l1.79,2.017l-0.211,3.678"/>
<path fill="#2AAAE2" stroke="#2E368F" stroke-width="1.25" stroke-linecap="round" stroke-linejoin="round" stroke-opacity="0.5" d="
	M5.356,67.51l0.233,0.455L6.207,74l2.162,4.339l1.408,2.053l1.245,1.813l0.168,0.245"/>
<path fill="#2AAAE2" stroke="#2E368F" stroke-width="1.25" stroke-linecap="round" stroke-linejoin="round" stroke-opacity="0.5" d="
	M64.635,0.79l-2.407,0.366L54.03,2.369l-1.952,0.289l-1.593,0.424l-0.061,0.017L47.49,3.88l-1.013,0.271"/>
<path fill="#2AAAE2" stroke="#2E368F" stroke-width="1.25" stroke-linecap="round" stroke-linejoin="round" stroke-opacity="0.5" d="
	M122.28,132.742l3.338-3.824l2.354-4.64l0.877-4.988l0.06-2.851l-0.282-6.294l-0.052-0.223l-0.362-1.534l0.001-0.113l0.005-0.699
	l0.005-1.021l0.005-1.117"/>
<path fill="#2AAAE2" stroke="#2E368F" stroke-width="1.25" stroke-linecap="round" stroke-linejoin="round" stroke-opacity="0.5" d="
	M73.309,3.325L70.99,1.727l-3.409-1.102l2.345,1.121l0.199,0.096l3.015,1.44"/>
<path fill="#2AAAE2" stroke="#2E368F" stroke-width="1.25" stroke-linecap="round" stroke-linejoin="round" stroke-opacity="0.5" d="
	M12.616,86.17l-0.082,0.313l-0.88,3.321l-0.309,2.271l1.717,5.504l0.135,0.813"/>
<path fill="#2AAAE2" stroke="#2E368F" stroke-width="1.25" stroke-linecap="round" stroke-linejoin="round" stroke-opacity="0.5" d="
	M5.035,60.268l1.27,2.129l0.509,0.854"/>
<path fill="#2AAAE2" stroke="#2E368F" stroke-width="1.25" stroke-linecap="round" stroke-linejoin="round" stroke-opacity="0.5" d="
	M128.222,106.555l1.656-1.963l0.344-0.402"/>
<path fill="#2AAAE2" stroke="#2E368F" stroke-width="1.25" stroke-linecap="round" stroke-linejoin="round" stroke-opacity="0.5" d="
	M130.878,99.805l-0.193-1.343l-0.196-1.352"/>
<path fill="#2AAAE2" stroke="#2E368F" stroke-width="1.25" stroke-linecap="round" stroke-linejoin="round" stroke-opacity="0.5" d="
	M49.89,3.616l-2.887,0.451L46.479,4.15l-4.635,0.725l-6.146,2.819l-2.441,0.889l-0.482,0.176l-0.046,0.019l-0.069,0.023"/>
<path fill="#2AAAE2" stroke="#2E368F" stroke-width="1.25" stroke-linecap="round" stroke-linejoin="round" stroke-opacity="0.5" d="
	M49.538,3.091L47.491,3.88"/>
<path fill="#2AAAE2" stroke="#2E368F" stroke-width="1.25" stroke-linecap="round" stroke-linejoin="round" stroke-opacity="0.5" d="
	M3.698,55.264l1.01,5.071l1.597,2.063"/>
<path fill="#2AAAE2" stroke="#2E368F" stroke-width="1.25" stroke-linecap="round" stroke-linejoin="round" stroke-opacity="0.5" d="
	M54.03,2.369l-1.364,0.07l-3.128,0.65l0.947-0.009"/>
<path fill="#2AAAE2" stroke="#2E368F" stroke-width="1.25" stroke-linecap="round" stroke-linejoin="round" stroke-opacity="0.5" d="
	M4.051,33.866l-0.644,2.036l-0.491,2.732l-0.843,2.314l-0.647,1.78l-0.801,2.861l0.5,3.407l0.812,2.988l1.762,3.274l0.273,0.51"/>
<path fill="#2AAAE2" stroke="#2E368F" stroke-width="1.25" stroke-linecap="round" stroke-linejoin="round" stroke-opacity="0.5" d="
	M5.301,25.729l-0.229,2.104l-0.154,1.549l-0.355,3.589l-0.057,0.548"/>
<path fill="#2AAAE2" stroke="#2E368F" stroke-width="1.25" stroke-linecap="round" stroke-linejoin="round" stroke-opacity="0.5" d="
	M12.296,85.811l0.238,0.672"/>
<path fill="#2AAAE2" stroke="#2E368F" stroke-width="1.25" stroke-linecap="round" stroke-linejoin="round" stroke-opacity="0.5" d="
	M131.857,100.786l0.003-0.006l0.292-1.808l0.028-0.179l0.754-4.665l-1.484-7.326l-0.196-0.444"/>
<path fill="#2AAAE2" stroke="#2E368F" stroke-width="1.25" stroke-linecap="round" stroke-linejoin="round" stroke-opacity="0.5" d="
	M128.574,109.924l0.729-2.768l0.354-1.344l0.767-1.751"/>
<path fill="#2AAAE2" stroke="#2E368F" stroke-width="1.25" stroke-linecap="round" stroke-linejoin="round" stroke-opacity="0.5" d="
	M32.772,8.759L30.129,8.41l-3.087-0.408l-2.846,0.44l-6.435,0.866l-5.028,5.245l-4.018,2.397l-1.255,2.758l-1.702,3.742l-0.168,0.76
	l-0.021,0.09l-1.018,4.613l-0.219,2.015l-0.078,0.744L4.221,31.99"/>
<path fill="#2AAAE2" stroke="#2E368F" stroke-width="1.25" stroke-linecap="round" stroke-linejoin="round" stroke-opacity="0.5" d="
	M4.258,31.674l-1.223,3.429l-0.861,5.217l-0.1,0.632"/>
<path fill="#2AAAE2" stroke="#2E368F" stroke-width="1.25" stroke-linecap="round" stroke-linejoin="round" stroke-opacity="0.5" d="
	M132.152,98.973l0.041-0.135l-0.013-0.044"/>
<path fill="#2AAAE2" stroke="#2E368F" stroke-width="1.25" stroke-linecap="round" stroke-linejoin="round" stroke-opacity="0.5" d="
	M33.256,8.583L30.131,8.41"/>
<path fill="#2AAAE2" stroke="#2E368F" stroke-width="1.25" stroke-linecap="round" stroke-linejoin="round" stroke-opacity="0.5" d="
	M129.304,107.156l0.479-0.494l0.839-2.726"/>
<path fill="#2AAAE2" stroke="#2E368F" stroke-width="1.25" stroke-linecap="round" stroke-linejoin="round" stroke-opacity="0.5" d="
	M5.592,24.212L5.4,24.651"/>
<path fill="#2AAAE2" stroke="#2E368F" stroke-width="1.25" stroke-linecap="round" stroke-linejoin="round" stroke-opacity="0.5" d="
	M7.462,19.71l-2.005,2.44l-1.24,6.595l0.12,2.185"/>
</svg>
