<?xml version="1.0" encoding="utf-8"?>
<!-- Generator: Adobe Illustrator 16.0.0, SVG Export Plug-In . SVG Version: 6.00 Build 0)  -->
<!DOCTYPE svg PUBLIC "-//W3C//DTD SVG 1.1//EN" "http://www.w3.org/Graphics/SVG/1.1/DTD/svg11.dtd">
<svg version="1.1" id="Layer_1" xmlns="http://www.w3.org/2000/svg" xmlns:xlink="http://www.w3.org/1999/xlink" x="0px" y="0px"
	 width="169.664px" height="164.956px" viewBox="0 0 169.664 164.956" enable-background="new 0 0 169.664 164.956"
	 xml:space="preserve">
<path fill="#2AAAE2" stroke="#2E368F" stroke-miterlimit="10" d="M143.223,115.643l1.164-2.338l0.342-0.088l3.186-1.713l7.899-5.559
	l5.927-5.035l1.203-1.309l1.227-3.148l1.185-2.174l0.124-1.188l0.014-0.075l2.065-2.505l1.018-1.314l-0.524-1.955l0.233-2.293
	l0.246-2.82l0.511-2.903l-0.125-2.928l0.071-3.163l-0.97-3.152l-0.373-3.236l-0.702-2.853l-0.117-3.352l-0.763-3.194l-0.671-6.39
	l-2.619-6.538l1.441-4.794l-0.836-4.67l-0.238-3.996l2.289-7.899l-1.251-2.335l-5.142-5.059l-4.625-4.863L151.48,6.57l-3.896-1.172
	l-3.961-0.674l-3.681-0.714l-3.411-2.026l-7.822,0.07l-5.912-1.046l-6.049,0.507l-4.155,0.255l-0.119-0.02l-7.609-1.125
	l-1.303,0.252L98.065,3.03l-1.063,1.168L93.041,2.75l-2.146,1.56l-2.701,0.557l-2.482-0.51L83.346,4.89l-8.191,0.652l-5.599,1.42
	l-0.565,0.05L58.677,9.027L50.145,8.37l-8.192-1.181l-8.551,0.185l-8.104,1.872l-7.691,5.128l-3.018,3.358l-3.385,9.371L5.87,33.219
	l0.873,6.988l-0.026,0.159l-1.764,8.695L3.77,56.919l-1.047,2.709l-2.096,5.334l1.688,1.671l3.188,5.249l3.73,7.199l5.224,3.539
	l0.447,3.484l0.605,0.479l0.117,0.851l2.063,3.562l0.471,1.164l0.879,5.325l0.348,3.37l0.051,1.455l0.111,0.127l0.055,0.536
	l1.99,1.799l-0.858,2.56l-0.133,3.098l3.149,1.354l-0.188,1.221l-0.257,1.08l2.074,6.222l2.763,5.081l3.095,4.951l4.106,3.097
	l2.036,4.009l1.4,1.422l2.5,3.452l1.751,3.004l2.205,4.345l2.929,3.188l4.901,6.259l8.112,1.711l4.182,1.512l1.26-0.064l0.788,0.801
	l6.49,1.26l8.064-4.218l1.742-4.344l0.854-0.488l1.271-1.133l3.369-0.642l3.993-5.074l5.207-1.203l2.119-3.279l4.771-1.939
	l2.394-3.76l1.432-0.19l3.318-0.438l1.326-2.026l3.589-1.822l1.892-2.287l0.547-1.546l2.016-1.35l1.521-0.5l1.666-1.773l1.938-1.79
	l3.041,0.019l1.622-1.805l2.692-0.625l1.671-1.787l0.519-1.229l0.586-0.273l2.526-1.974L143.223,115.643z"/>
<path fill="#2AAAE2" stroke="#2E368F" stroke-width="1.25" stroke-linecap="round" stroke-linejoin="round" stroke-opacity="0.5" d="
	M92.228,41.271l-1.049,3.708"/>
<path fill="#2AAAE2" stroke="#2E368F" stroke-width="1.25" stroke-linecap="round" stroke-linejoin="round" stroke-opacity="0.5" d="
	M85.222,55.411l12.771,0.78l-2.816,0.341l-11.785,1.422"/>
<path fill="#2AAAE2" stroke="#2E368F" stroke-width="1.25" stroke-linecap="round" stroke-linejoin="round" stroke-opacity="0.5" d="
	M106.234,52.368l-0.87,0.403l-7.372,3.42"/>
<path fill="#2AAAE2" stroke="#2E368F" stroke-width="1.25" stroke-linecap="round" stroke-linejoin="round" stroke-opacity="0.5" d="
	M93.901,39.879l-0.914,0.185l-5.554,1.719"/>
<path fill="#2AAAE2" stroke="#2E368F" stroke-width="1.25" stroke-linecap="round" stroke-linejoin="round" stroke-opacity="0.5" d="
	M94.544,37.309l-0.067,0.267l-0.159,0.636l-0.179,0.716l-0.005,0.02l-0.043,0.173l-0.189,0.758"/>
<path fill="#2AAAE2" stroke="#2E368F" stroke-width="1.25" stroke-linecap="round" stroke-linejoin="round" stroke-opacity="0.5" d="
	M101.427,41.935l-0.441-0.277l-0.063-0.04l-0.688-0.431l-0.682-0.428"/>
<path fill="#2AAAE2" stroke="#2E368F" stroke-width="1.25" stroke-linecap="round" stroke-linejoin="round" stroke-opacity="0.5" d="
	M104.229,48.04l0.189-3.221l-0.657-1.815"/>
<path fill="#2AAAE2" stroke="#2E368F" stroke-width="1.25" stroke-linecap="round" stroke-linejoin="round" stroke-opacity="0.5" d="
	M108.408,50.106l-3.044,2.665"/>
<path fill="#2AAAE2" stroke="#2E368F" stroke-width="1.25" stroke-linecap="round" stroke-linejoin="round" stroke-opacity="0.5" d="
	M100.234,41.187l-0.938-0.726l-0.732-0.567L98,39.805l-3.146-2.272l-0.31-0.224l-0.564,0.323l-1.797,1.027l-0.049,0.028
	l-0.019,0.009l-1.773,1.015"/>
<path fill="#2AAAE2" stroke="#2E368F" stroke-width="1.25" stroke-linecap="round" stroke-linejoin="round" stroke-opacity="0.5" d="
	M106.196,47.854l-0.648-1.993l-1.007-0.851"/>
<path fill="#2AAAE2" stroke="#2E368F" stroke-width="1.25" stroke-linecap="round" stroke-linejoin="round" stroke-opacity="0.5" d="
	M113.614,53.215l-2.774-1.85l-2.432-1.259"/>
<path fill="#2AAAE2" stroke="#2E368F" stroke-width="1.25" stroke-linecap="round" stroke-linejoin="round" stroke-opacity="0.5" d="
	M93.979,37.632l-3.111,0.35l-3.376,1.008"/>
<path fill="#2AAAE2" stroke="#2E368F" stroke-width="1.25" stroke-linecap="round" stroke-linejoin="round" stroke-opacity="0.5" d="
	M100.721,40.607l-2.396-1.02l-2.797-2.13l-0.676,0.076"/>
<path fill="#2AAAE2" stroke="#2E368F" stroke-width="1.25" stroke-linecap="round" stroke-linejoin="round" stroke-opacity="0.5" d="
	M105.339,41.965l-2.224-0.32l-2.193-0.027"/>
<path fill="#2AAAE2" stroke="#2E368F" stroke-width="1.25" stroke-linecap="round" stroke-linejoin="round" stroke-opacity="0.5" d="
	M107.979,40.42l-2.641,1.545l-0.051,0.029l-0.274,0.161"/>
<path fill="#2AAAE2" stroke="#2E368F" stroke-width="1.25" stroke-linecap="round" stroke-linejoin="round" stroke-opacity="0.5" d="
	M58.539,52.909l-4.259-2.893"/>
<path fill="#2AAAE2" stroke="#2E368F" stroke-width="1.25" stroke-linecap="round" stroke-linejoin="round" stroke-opacity="0.5" d="
	M110.185,39.418l-2.544,1.579"/>
<path fill="#2AAAE2" stroke="#2E368F" stroke-width="1.25" stroke-linecap="round" stroke-linejoin="round" stroke-opacity="0.5" d="
	M98.772,35.359l-4.771,0.398"/>
<path fill="#2AAAE2" stroke="#2E368F" stroke-width="1.25" stroke-linecap="round" stroke-linejoin="round" stroke-opacity="0.5" d="
	M52.419,53.145l0.62,3.359"/>
<path fill="#2AAAE2" stroke="#2E368F" stroke-width="1.25" stroke-linecap="round" stroke-linejoin="round" stroke-opacity="0.5" d="
	M55.813,51.849l-2.979-1.633"/>
<path fill="#2AAAE2" stroke="#2E368F" stroke-width="1.25" stroke-linecap="round" stroke-linejoin="round" stroke-opacity="0.5" d="
	M81.521,31.498l-4.287-1.767l-3.337,1.017"/>
<path fill="#2AAAE2" stroke="#2E368F" stroke-width="1.25" stroke-linecap="round" stroke-linejoin="round" stroke-opacity="0.5" d="
	M59.275,112.584l3.833-2.008l-4.786,4.457"/>
<path fill="#2AAAE2" stroke="#2E368F" stroke-width="1.25" stroke-linecap="round" stroke-linejoin="round" stroke-opacity="0.5" d="
	M48.826,57.494l-1.688-2.418l-0.16-2.886"/>
<path fill="#2AAAE2" stroke="#2E368F" stroke-width="1.25" stroke-linecap="round" stroke-linejoin="round" stroke-opacity="0.5" d="
	M116.778,35.447l-2.412,1.537l-0.909,0.579l-1.136-0.118l-1.753,0.34"/>
<path fill="#2AAAE2" stroke="#2E368F" stroke-width="1.25" stroke-linecap="round" stroke-linejoin="round" stroke-opacity="0.5" d="
	M48.039,51.427l0.841,1.598"/>
<path fill="#2AAAE2" stroke="#2E368F" stroke-width="1.25" stroke-linecap="round" stroke-linejoin="round" stroke-opacity="0.5" d="
	M89.764,147.439l1.448-0.794l1.954-1.42l0.51-0.372l0.458-0.332l0.171-0.129l0.213-0.16l0.659-0.493l0.649-0.488l1.157-0.868
	l1.146-0.858l0.234-0.177"/>
<path fill="#2AAAE2" stroke="#2E368F" stroke-width="1.25" stroke-linecap="round" stroke-linejoin="round" stroke-opacity="0.5" d="
	M98.129,141.524l0.651-0.305l1.153-0.539l0.73-0.342l0.535-0.251l0.125-0.058l1.034-0.354l0.021-0.008l0.105-0.036l0.188-0.063
	l1.065-0.365l0.722-0.246l0.597-0.203l0.746-0.256l0.313-0.106"/>
<path fill="#2AAAE2" stroke="#2E368F" stroke-width="1.25" stroke-linecap="round" stroke-linejoin="round" stroke-opacity="0.5" d="
	M113.268,135.847l0.495-0.252l3.588-1.822l1.892-2.286l0.547-1.547l0.512-1.447"/>
<path fill="#2AAAE2" stroke="#2E368F" stroke-width="1.25" stroke-linecap="round" stroke-linejoin="round" stroke-opacity="0.5" d="
	M120.248,32.489l-3.36,2.926l-1.55,1.846l1.44-1.814"/>
<path fill="#2AAAE2" stroke="#2E368F" stroke-width="1.25" stroke-linecap="round" stroke-linejoin="round" stroke-opacity="0.5" d="
	M115.996,34.795l-1.63,2.188"/>
<path fill="#2AAAE2" stroke="#2E368F" stroke-width="1.25" stroke-linecap="round" stroke-linejoin="round" stroke-opacity="0.5" d="
	M109.039,31.332l-2.395,0.901"/>
<path fill="#2AAAE2" stroke="#2E368F" stroke-width="1.25" stroke-linecap="round" stroke-linejoin="round" stroke-opacity="0.5" d="
	M42.916,108.459l4.041-3.961"/>
<path fill="#2AAAE2" stroke="#2E368F" stroke-width="1.25" stroke-linecap="round" stroke-linejoin="round" stroke-opacity="0.5" d="
	M92.5,146.204l0.689-0.674l1.166-1.14l0.161-0.158"/>
<path fill="#2AAAE2" stroke="#2E368F" stroke-width="1.25" stroke-linecap="round" stroke-linejoin="round" stroke-opacity="0.5" d="
	M105.805,138.499l0.467-0.062l1.414-0.187l1.432-0.19l3.318-0.438l1.327-2.026"/>
<path fill="#2AAAE2" stroke="#2E368F" stroke-width="1.25" stroke-linecap="round" stroke-linejoin="round" stroke-opacity="0.5" d="
	M143.049,84.343l1.109-2.87l-0.387-2.137"/>
<path fill="#2AAAE2" stroke="#2E368F" stroke-width="1.25" stroke-linecap="round" stroke-linejoin="round" stroke-opacity="0.5" d="
	M109.643,30.026l-1.886-1.578l-2.285,0.013"/>
<path fill="#2AAAE2" stroke="#2E368F" stroke-width="1.25" stroke-linecap="round" stroke-linejoin="round" stroke-opacity="0.5" d="
	M119.534,32.123l-1.188-0.201l-0.808-0.059"/>
<path fill="#2AAAE2" stroke="#2E368F" stroke-width="1.25" stroke-linecap="round" stroke-linejoin="round" stroke-opacity="0.5" d="
	M41.901,110.763l-2.174,0.706"/>
<path fill="#2AAAE2" stroke="#2E368F" stroke-width="1.25" stroke-linecap="round" stroke-linejoin="round" stroke-opacity="0.5" d="
	M119.789,129.94l2.016-1.349l1.521-0.5l1.666-1.774l1.939-1.789l3.041,0.019l1.622-1.806l2.691-0.625l1.672-1.787l0.518-1.229
	l0.663-1.572"/>
<path fill="#2AAAE2" stroke="#2E368F" stroke-width="1.25" stroke-linecap="round" stroke-linejoin="round" stroke-opacity="0.5" d="
	M63.166,27.241l-4.163-1.063l-4.563-1.159"/>
<path fill="#2AAAE2" stroke="#2E368F" stroke-width="1.25" stroke-linecap="round" stroke-linejoin="round" stroke-opacity="0.5" d="
	M100.666,140.338l0.311-0.085l0.882-0.242l0.099-0.026l0.105-0.029l0.238-0.066h0.002l1.438-0.686"/>
<path fill="#2AAAE2" stroke="#2E368F" stroke-width="1.25" stroke-linecap="round" stroke-linejoin="round" stroke-opacity="0.5" d="
	M82.741,151.903l1.729-1.32l1.765-1.346l0.048-0.037l0.521-0.191l3.031-1.111l2.644-1.378l0.711-0.989"/>
<path fill="#2AAAE2" stroke="#2E368F" stroke-width="1.25" stroke-linecap="round" stroke-linejoin="round" stroke-opacity="0.5" d="
	M27.039,69.899l-1.377,2.415"/>
<path fill="#2AAAE2" stroke="#2E368F" stroke-width="1.25" stroke-linecap="round" stroke-linejoin="round" stroke-opacity="0.5" d="
	M136.475,119.1l0.586-0.273l2.527-1.974l3.635-1.21l1.164-2.338l0.49-0.986l3.184-2.791l-0.761-1.644l-1.551-3.343l-0.012-0.027"/>
<path fill="#2AAAE2" stroke="#2E368F" stroke-width="1.25" stroke-linecap="round" stroke-linejoin="round" stroke-opacity="0.5" d="
	M33.108,44.365l0.99,2.862"/>
<path fill="#2AAAE2" stroke="#2E368F" stroke-width="1.25" stroke-linecap="round" stroke-linejoin="round" stroke-opacity="0.5" d="
	M48.608,28.235l-3.389-0.886l-3.087-0.509"/>
<path fill="#2AAAE2" stroke="#2E368F" stroke-width="1.25" stroke-linecap="round" stroke-linejoin="round" stroke-opacity="0.5" d="
	M86.235,149.237l0.569-0.229"/>
<path fill="#2AAAE2" stroke="#2E368F" stroke-width="1.25" stroke-linecap="round" stroke-linejoin="round" stroke-opacity="0.5" d="
	M77.061,23.821l-1.52-0.013l-4.802-0.117l-4.429-0.825l-3.543-0.135"/>
<path fill="#2AAAE2" stroke="#2E368F" stroke-width="1.25" stroke-linecap="round" stroke-linejoin="round" stroke-opacity="0.5" d="
	M96.984,142.382l0.176-0.101l1.621-1.063"/>
<path fill="#2AAAE2" stroke="#2E368F" stroke-width="1.25" stroke-linecap="round" stroke-linejoin="round" stroke-opacity="0.5" d="
	M62.173,24.38l-4.384,0.805"/>
<path fill="#2AAAE2" stroke="#2E368F" stroke-width="1.25" stroke-linecap="round" stroke-linejoin="round" stroke-opacity="0.5" d="
	M147.3,107.884l0.605-2.022l0.407-1.354"/>
<path fill="#2AAAE2" stroke="#2E368F" stroke-width="1.25" stroke-linecap="round" stroke-linejoin="round" stroke-opacity="0.5" d="
	M77.923,155.612l2.664-1.518l0.341-0.193l1.264-0.72l2.279-2.599"/>
<path fill="#2AAAE2" stroke="#2E368F" stroke-width="1.25" stroke-linecap="round" stroke-linejoin="round" stroke-opacity="0.5" d="
	M49.348,27.449l-6.747-3.781"/>
<path fill="#2AAAE2" stroke="#2E368F" stroke-width="1.25" stroke-linecap="round" stroke-linejoin="round" stroke-opacity="0.5" d="
	M147.906,105.862l2.881-1.69l1.469-1.144l4.41-4.367l1.231-2.612"/>
<path fill="#2AAAE2" stroke="#2E368F" stroke-width="1.25" stroke-linecap="round" stroke-linejoin="round" stroke-opacity="0.5" d="
	M29.442,120.398l-0.037,0.556l-0.175,2.68l1.09,2.721l1.757,2.467l0.081,0.012l1.598,0.252l2.389,0.377"/>
<path fill="#2AAAE2" stroke="#2E368F" stroke-width="1.25" stroke-linecap="round" stroke-linejoin="round" stroke-opacity="0.5" d="
	M15.308,85.136l0.2,1.446l0.116,0.851l2.063,3.562l0.471,1.164l0.793,1.957"/>
<path fill="#2AAAE2" stroke="#2E368F" stroke-width="1.25" stroke-linecap="round" stroke-linejoin="round" stroke-opacity="0.5" d="
	M69.785,160.471l4.371-0.443l1.938-1.029l2.015-1.071l0.568-0.71l2.146-2.688"/>
<path fill="#2AAAE2" stroke="#2E368F" stroke-width="1.25" stroke-linecap="round" stroke-linejoin="round" stroke-opacity="0.5" d="
	M24.781,110.747l-0.063,0.978l-0.03,0.461l-0.047,0.709l-0.118,1.8l0.04,0.783l0.132,2.607l0.196,0.705l1.663,1.312l0.017,0.005
	l1.246,0.372l1.589,0.476"/>
<path fill="#2AAAE2" stroke="#2E368F" stroke-width="1.25" stroke-linecap="round" stroke-linejoin="round" stroke-opacity="0.5" d="
	M11.236,68.737l-0.65,2.737l0.563,1.31l0.003,0.008l0.316,0.733l0.69,1.61l0.168,0.415l0.037,0.096l1.063,2.654l0.285,1.174
	l0.718,2.956l0.025,0.189l0.446,3.484l0.605,0.479"/>
<path fill="#2AAAE2" stroke="#2E368F" stroke-width="1.25" stroke-linecap="round" stroke-linejoin="round" stroke-opacity="0.5" d="
	M21.591,104.771l-0.858,2.56l-0.133,3.098l3.15,1.354l0.092,0.041l0.615,0.264l0.229,0.099"/>
<path fill="#2AAAE2" stroke="#2E368F" stroke-width="1.25" stroke-linecap="round" stroke-linejoin="round" stroke-opacity="0.5" d="
	M19.354,100.002l0.03,0.852l0.051,1.455l0.111,0.127l2.045,2.335l-1.99-1.799l-0.055-0.536"/>
<path fill="#2AAAE2" stroke="#2E368F" stroke-width="1.25" stroke-linecap="round" stroke-linejoin="round" stroke-opacity="0.5" d="
	M70.472,22.613l-2.296-0.319l-0.654-0.09l-3.705-0.515l-3.346-0.227l-0.342-0.023l-0.875-0.059"/>
<path fill="#2AAAE2" stroke="#2E368F" stroke-width="1.25" stroke-linecap="round" stroke-linejoin="round" stroke-opacity="0.5" d="
	M162.093,94.191l1.938-2.303l-1.845,2.153l-0.488,0.57l-2.28,2.351"/>
<path fill="#2AAAE2" stroke="#2E368F" stroke-width="1.25" stroke-linecap="round" stroke-linejoin="round" stroke-opacity="0.5" d="
	M164.032,91.888l1.007-1.976l0.069-0.135l0.851-1.67"/>
<path fill="#2AAAE2" stroke="#2E368F" stroke-width="1.25" stroke-linecap="round" stroke-linejoin="round" stroke-opacity="0.5" d="
	M33.728,131.728l1.665,1.693l0.191,0.194l0.839,0.854l0.674,0.288l0.099,0.042l2.955,1.263"/>
<path fill="#2AAAE2" stroke="#2E368F" stroke-width="1.25" stroke-linecap="round" stroke-linejoin="round" stroke-opacity="0.5" d="
	M113.776,12.459l-2.768-0.485l-1.897,0.047"/>
<path fill="#2AAAE2" stroke="#2E368F" stroke-width="1.25" stroke-linecap="round" stroke-linejoin="round" stroke-opacity="0.5" d="
	M99.002,141.7l0.462-0.273l1.234-0.73l0.107-0.063l1.052-0.621"/>
<path fill="#2AAAE2" stroke="#2E368F" stroke-width="1.25" stroke-linecap="round" stroke-linejoin="round" stroke-opacity="0.5" d="
	M32.158,128.833l1.957,2.423"/>
<path fill="#2AAAE2" stroke="#2E368F" stroke-width="1.25" stroke-linecap="round" stroke-linejoin="round" stroke-opacity="0.5" d="
	M18.158,92.159l0.879,5.326l0.348,3.369"/>
<path fill="#2AAAE2" stroke="#2E368F" stroke-width="1.25" stroke-linecap="round" stroke-linejoin="round" stroke-opacity="0.5" d="
	M75.592,20.91l-3.118,0.019l-4.952,1.275"/>
<path fill="#2AAAE2" stroke="#2E368F" stroke-width="1.25" stroke-linecap="round" stroke-linejoin="round" stroke-opacity="0.5" d="
	M168.574,89.198l-0.524-1.955l0.233-2.293l0.246-2.819l0.51-2.903l-0.125-2.928l0.072-3.163l-0.97-3.152l-0.373-3.236l-0.702-2.853
	l-0.117-3.352l-0.763-3.194l-0.671-6.39l-2.619-6.538l1.441-4.794l-0.836-4.67l-0.238-3.996l-0.002-0.05l-0.05-0.824l-0.025-0.434"
	/>
<path fill="#2AAAE2" stroke="#2E368F" stroke-width="1.25" stroke-linecap="round" stroke-linejoin="round" stroke-opacity="0.5" d="
	M91.796,13.31l-3.419-0.079l-3.418,2.654"/>
<path fill="#2AAAE2" stroke="#2E368F" stroke-width="1.25" stroke-linecap="round" stroke-linejoin="round" stroke-opacity="0.5" d="
	M44.498,22.865l-4.293-3.82L31.58,18.15"/>
<path fill="#2AAAE2" stroke="#2E368F" stroke-width="1.25" stroke-linecap="round" stroke-linejoin="round" stroke-opacity="0.5" d="
	M76.053,160.896l2.873-1.724l-1.558,0.742l-2.949,1.408l-4.947,0.803l-2.854,0.145l-1.26,0.064l-4.182-1.512l-3.716-1.343"/>
<path fill="#2AAAE2" stroke="#2E368F" stroke-width="1.25" stroke-linecap="round" stroke-linejoin="round" stroke-opacity="0.5" d="
	M60.471,21.462l-5.303-3.502l-0.571-0.377l-0.985,0.11l-4.084,0.454"/>
<path fill="#2AAAE2" stroke="#2E368F" stroke-width="1.25" stroke-linecap="round" stroke-linejoin="round" stroke-opacity="0.5" d="
	M35.3,133.35l0.042,0.083l2.037,4.009l1.399,1.422l2.5,3.452l1.751,3.005l2.205,4.344l2.929,3.188l1.315,1.431"/>
<path fill="#2AAAE2" stroke="#2E368F" stroke-width="1.25" stroke-linecap="round" stroke-linejoin="round" stroke-opacity="0.5" d="
	M99.217,144.479l1.304-0.529l4.772-1.939l2.393-3.76"/>
<path fill="#2AAAE2" stroke="#2E368F" stroke-width="1.25" stroke-linecap="round" stroke-linejoin="round" stroke-opacity="0.5" d="
	M48.164,152.853l4.901,6.259l8.112,1.711"/>
<path fill="#2AAAE2" stroke="#2E368F" stroke-width="1.25" stroke-linecap="round" stroke-linejoin="round" stroke-opacity="0.5" d="
	M86.908,152.655l0.754-0.679l2.245-2.022l1.019-0.515l1.781-0.901l3.157-1.594"/>
<path fill="#2AAAE2" stroke="#2E368F" stroke-width="1.25" stroke-linecap="round" stroke-linejoin="round" stroke-opacity="0.5" d="
	M78.926,159.172l2.186-1.922l0.917-0.807"/>
<path fill="#2AAAE2" stroke="#2E368F" stroke-width="1.25" stroke-linecap="round" stroke-linejoin="round" stroke-opacity="0.5" d="
	M13.712,79.474l-1.507-2.59l-0.623-2.389l-0.035-0.14l-1.102-2.208l-0.646-1.301l-0.001-0.002L9.06,69.29l0.588,1.405l0.376,0.897
	l0.661,1.579l0.897,1.324"/>
<path fill="#2AAAE2" stroke="#2E368F" stroke-width="1.25" stroke-linecap="round" stroke-linejoin="round" stroke-opacity="0.5" d="
	M23.75,111.782l-0.189,1.221l-0.189,1.234l1.191,1.24"/>
<path fill="#2AAAE2" stroke="#2E368F" stroke-width="1.25" stroke-linecap="round" stroke-linejoin="round" stroke-opacity="0.5" d="
	M84.49,14.498l-6.729,1.226"/>
<path fill="#2AAAE2" stroke="#2E368F" stroke-width="1.25" stroke-linecap="round" stroke-linejoin="round" stroke-opacity="0.5" d="
	M74.629,18.051l-7.584,1.365"/>
<path fill="#2AAAE2" stroke="#2E368F" stroke-width="1.25" stroke-linecap="round" stroke-linejoin="round" stroke-opacity="0.5" d="
	M162.469,96.684l3.002-3.641l0.001-0.002l0.02-0.024l2.065-2.505l1.018-1.314l-1.052,1.188l-0.007,0.007l-1.939,2.19l-0.139,0.156
	l-0.008,0.008l-0.597,0.674l-2.101,2.861l-2.551,3.476l-6.242,5.069"/>
<path fill="#2AAAE2" stroke="#2E368F" stroke-width="1.25" stroke-linecap="round" stroke-linejoin="round" stroke-opacity="0.5" d="
	M9.528,68.118L9.06,69.29"/>
<path fill="#2AAAE2" stroke="#2E368F" stroke-width="1.25" stroke-linecap="round" stroke-linejoin="round" stroke-opacity="0.5" d="
	M163.139,30.961l2.289-7.899l-1.251-2.335l-5.142-5.059l-4.625-4.863l-2.931-4.235l-3.896-1.172l-3.962-0.674l-3.681-0.714
	l-3.411-2.026l-7.822,0.07l-5.913-1.046l-6.048,0.507l-4.155,0.255l-1.838,0.112"/>
<path fill="#2AAAE2" stroke="#2E368F" stroke-width="1.25" stroke-linecap="round" stroke-linejoin="round" stroke-opacity="0.5" d="
	M13.686,50.561l-3.164,6.435l1.219,7.765"/>
<path fill="#2AAAE2" stroke="#2E368F" stroke-width="1.25" stroke-linecap="round" stroke-linejoin="round" stroke-opacity="0.5" d="
	M66.619,162.27l0.788,0.801l6.49,1.26l8.065-4.217l1.741-4.345l0.528-1.315l1.599-0.306l3.369-0.641l3.993-5.075l5.207-1.203
	l2.119-3.279"/>
<path fill="#2AAAE2" stroke="#2E368F" stroke-width="1.25" stroke-linecap="round" stroke-linejoin="round" stroke-opacity="0.5" d="
	M59.547,18.279l-7.851-1.341l-5.553-0.61"/>
<path fill="#2AAAE2" stroke="#2E368F" stroke-width="1.25" stroke-linecap="round" stroke-linejoin="round" stroke-opacity="0.5" d="
	M83.705,155.769l0.854-0.487l1.272-1.134"/>
<path fill="#2AAAE2" stroke="#2E368F" stroke-width="1.25" stroke-linecap="round" stroke-linejoin="round" stroke-opacity="0.5" d="
	M112.592,1.77l-0.119-0.02l-7.609-1.125l-1.303,0.252L98.064,3.03l-1.063,1.168l-0.336,0.368l-0.562,0.616l-0.822,0.903l-0.42,0.461
	l-1.346,1.479"/>
<path fill="#2AAAE2" stroke="#2E368F" stroke-width="1.25" stroke-linecap="round" stroke-linejoin="round" stroke-opacity="0.5" d="
	M96.666,4.566l-3.569,0.608"/>
<path fill="#2AAAE2" stroke="#2E368F" stroke-width="1.25" stroke-linecap="round" stroke-linejoin="round" stroke-opacity="0.5" d="
	M149.258,108.521l2.421-1.508l5.028-3.622"/>
<path fill="#2AAAE2" stroke="#2E368F" stroke-width="1.25" stroke-linecap="round" stroke-linejoin="round" stroke-opacity="0.5" d="
	M5.055,66.092l4.969,5.5"/>
<path fill="#2AAAE2" stroke="#2E368F" stroke-width="1.25" stroke-linecap="round" stroke-linejoin="round" stroke-opacity="0.5" d="
	M23.561,113.002l-0.257,1.08l2.074,6.222l2.763,5.081l3.095,4.951l4.106,3.097"/>
<path fill="#2AAAE2" stroke="#2E368F" stroke-width="1.25" stroke-linecap="round" stroke-linejoin="round" stroke-opacity="0.5" d="
	M63.922,15.112l-4.794-0.574l-4.06-0.39"/>
<path fill="#2AAAE2" stroke="#2E368F" stroke-width="1.25" stroke-linecap="round" stroke-linejoin="round" stroke-opacity="0.5" d="
	M97.002,4.198L93.041,2.75l-2.146,1.56l-1.193,0.867L88.914,5.75l-1.862,1.355"/>
<path fill="#2AAAE2" stroke="#2E368F" stroke-width="1.25" stroke-linecap="round" stroke-linejoin="round" stroke-opacity="0.5" d="
	M14.877,21.831l-1.695,2.741l-1.504,7.444"/>
<path fill="#2AAAE2" stroke="#2E368F" stroke-width="1.25" stroke-linecap="round" stroke-linejoin="round" stroke-opacity="0.5" d="
	M164.169,96.454l1.185-2.174l0.124-1.188l0.015-0.075"/>
<path fill="#2AAAE2" stroke="#2E368F" stroke-width="1.25" stroke-linecap="round" stroke-linejoin="round" stroke-opacity="0.5" d="
	M144.387,113.305l0.342-0.088l3.187-1.713l7.898-5.559l5.927-5.035l1.203-1.309l1.227-3.148l1.309-3.361"/>
<path fill="#2AAAE2" stroke="#2E368F" stroke-width="1.25" stroke-linecap="round" stroke-linejoin="round" stroke-opacity="0.5" d="
	M90.895,4.31l-2.701,0.557l-1.919,0.396"/>
<path fill="#2AAAE2" stroke="#2E368F" stroke-width="1.25" stroke-linecap="round" stroke-linejoin="round" stroke-opacity="0.5" d="
	M29.082,14.164l-8.806-0.189l-2.675,0.399"/>
<path fill="#2AAAE2" stroke="#2E368F" stroke-width="1.25" stroke-linecap="round" stroke-linejoin="round" stroke-opacity="0.5" d="
	M66.544,11.959l-9.445-0.187"/>
<path fill="#2AAAE2" stroke="#2E368F" stroke-width="1.25" stroke-linecap="round" stroke-linejoin="round" stroke-opacity="0.5" d="
	M32.952,7.664L28.717,9.05l-0.894,0.428l-10.221,4.896"/>
<path fill="#2AAAE2" stroke="#2E368F" stroke-width="1.25" stroke-linecap="round" stroke-linejoin="round" stroke-opacity="0.5" d="
	M25.295,9.246l-7.692,5.128l-3.017,3.358L11.2,27.103l-0.672,1.861l-1.304,7.152"/>
<path fill="#2AAAE2" stroke="#2E368F" stroke-width="1.25" stroke-linecap="round" stroke-linejoin="round" stroke-opacity="0.5" d="
	M11.201,27.103l-5.333,6.116l0.873,6.988l0.138,1.081"/>
<path fill="#2AAAE2" stroke="#2E368F" stroke-width="1.25" stroke-linecap="round" stroke-linejoin="round" stroke-opacity="0.5" d="
	M2.313,66.633L5.5,71.882l3.731,7.199l5.224,3.539"/>
<path fill="#2AAAE2" stroke="#2E368F" stroke-width="1.25" stroke-linecap="round" stroke-linejoin="round" stroke-opacity="0.5" d="
	M6.741,40.207l-0.026,0.159l-1.764,8.695l-1.184,7.858l-0.012,0.075l-1.035,2.634l-2.096,5.334l1.688,1.671l4.813,4.761"/>
<path fill="#2AAAE2" stroke="#2E368F" stroke-width="1.25" stroke-linecap="round" stroke-linejoin="round" stroke-opacity="0.5" d="
	M88.193,4.867l-2.481-0.51L83.345,4.89l-6.224,1.402l-7.566,0.67l-0.565,0.05L58.676,9.027L50.144,8.37l-8.192-1.181L33.4,7.374
	l-8.104,1.872l7.656-1.582l6.229,2.852"/>
<path fill="#2AAAE2" stroke="#2E368F" stroke-width="1.25" stroke-linecap="round" stroke-linejoin="round" stroke-opacity="0.5" d="
	M83.344,4.89l-8.191,0.652l-5.599,1.42"/>
<path fill="#2AAAE2" stroke="#2E368F" stroke-width="1.25" stroke-linecap="round" stroke-linejoin="round" stroke-opacity="0.5" d="
	M3.768,56.919l-1.047,2.709"/>
</svg>
