<?xml version="1.0" encoding="utf-8"?>
<!-- Generator: Adobe Illustrator 16.0.0, SVG Export Plug-In . SVG Version: 6.00 Build 0)  -->
<!DOCTYPE svg PUBLIC "-//W3C//DTD SVG 1.1//EN" "http://www.w3.org/Graphics/SVG/1.1/DTD/svg11.dtd">
<svg version="1.1" id="Layer_1" xmlns="http://www.w3.org/2000/svg" xmlns:xlink="http://www.w3.org/1999/xlink" x="0px" y="0px"
	 width="174.842px" height="181.724px" viewBox="0 0 174.842 181.724" enable-background="new 0 0 174.842 181.724"
	 xml:space="preserve">
<path fill="#2AAAE2" stroke="#2E368F" stroke-miterlimit="10" d="M43.57,172.609l1.122,0.28l4.322,1.576l1.264,1.816l3.454,4.666
	l6.277-6.601l0.1-0.015l4.271,2.754l4.355-1.353l4.479,0.861l0.668-0.271l3.282-0.938l4.461,2.44l5.54-3.773l8.568,3.697
	l2.922-5.027l4.451-3.893l7.975,0.063l0.293-7.486l1.38-2.06l3.944-0.987l3.251-3.337l2.405-2.36l2.223-3.064l2.372-2.639
	l3.246-2.644l-0.373-2.696l2.911-1.854l2.887-2.246l2.947-3.04l5.257-3.023l6.594-4.811l1.46-1.971l1.78-1.055l0.457-1.963
	l0.206-0.277l3.662-2.303l0.09-0.609l5.567-2.75l3.644-7.954l4.693-7.3l2.236-9.061l-6.075-6.329l1.172-1.701l-3.204-7.314
	l-3.916-8.623l-3.66-7.761l-6.526-5.935l-4.951-7.653l-3.776-4.651l-1.934-4.758l-3.711-3.619l-3.299-9.582l-4.471-6.804
	l-6.869,0.798l-3.198-1.491l0.636-8.76l-7.145-0.051l-1.076,0.312l-2.144-1.438l-5.021,0.011l-3.598,0.043l-2.504-0.65l-2.139-1.002
	l-0.67-0.696l-6.52-1.568L85.28,2.944l-0.924-0.21l-1.438-2.109l-4.043,0.526l-2.651,1.046l-1.05,0.011l-3.403,0.885l-0.813,0.733
	l-1.317,0.279l-6.086-1.431l1.256,4.182l-3.538,0.492l-3.698,0.673l-0.733,5.985l-4.21,2.532l-0.756,2.479l-3.042,3.955l-0.58,2.491
	l-2.849,3.54l-3.312,4.105l-2.169,2.745l-5.039,3.502l-6.218,3.165l-0.461,0.57l-0.586,0.493l-1.608,2.942l-1.047,1.58l-0.048,0.024
	l-7.723,2.588l-1.348,4.332L14.241,56.4l-0.155,3.3l-1.861,3.87l-0.298,0.469l-4.812,5.115l1.63,6.404l-0.023,0.42L7.718,81.4
	l-4.664,5.176l0.889,2.969l-0.831,1.338l1.351,7.196l-0.823,3.883l-3.018,6.471l6.324,10.074l3.531,7.273l1.516,4.348l4.379,7.945
	l2.613,6.477l2.563,2.662l0.526,0.918l2.281,10.123l6.906,4.248l1.745,2.469l6.004,2.504L43.57,172.609z"/>
<path fill="#2AAAE2" stroke="#2E368F" stroke-width="1.25" stroke-linecap="round" stroke-linejoin="round" stroke-opacity="0.5" d="
	M52.708,87.943l-2.969,1.724l-4.865,2.863"/>
<path fill="#2AAAE2" stroke="#2E368F" stroke-width="1.25" stroke-linecap="round" stroke-linejoin="round" stroke-opacity="0.5" d="
	M75.011,36.224l-0.067,1.548L74.745,42.5"/>
<path fill="#2AAAE2" stroke="#2E368F" stroke-width="1.25" stroke-linecap="round" stroke-linejoin="round" stroke-opacity="0.5" d="
	M71.125,51.584l-2.132,5.604l-0.268,0.701l-0.321,0.847"/>
<path fill="#2AAAE2" stroke="#2E368F" stroke-width="1.25" stroke-linecap="round" stroke-linejoin="round" stroke-opacity="0.5" d="
	M82.262,16.018l-3.369,2.513L74,22.275l0.057,0.403"/>
<path fill="#2AAAE2" stroke="#2E368F" stroke-width="1.25" stroke-linecap="round" stroke-linejoin="round" stroke-opacity="0.5" d="
	M101.386,114.323l-0.815-4.324l1.331-8.254l-2.113-3.832"/>
<path fill="#2AAAE2" stroke="#2E368F" stroke-width="1.25" stroke-linecap="round" stroke-linejoin="round" stroke-opacity="0.5" d="
	M117.152,28.214l-0.431-2.664l-0.089-0.231l-0.743-1.924l-0.186-0.482l-0.086-0.223l-0.054-0.136l-0.073-0.193l-2.396-2.45
	l-1.834-1.878l-1.976-3.278l-0.028-0.047l-0.323-0.537l-0.627-1.039l-0.211-0.354l-0.051-0.084l-0.168,0.025l-0.586,0.087
	l-0.204,0.03l-0.417,0.062l-0.46,0.069l-1.334,0.198l-0.366,0.054l-0.402,0.06l-0.074,0.011l-0.217,0.032l-1.783,0.265l-2.673-1.396
	l-0.156-0.082l-0.426-0.222l-0.943-0.493l-0.608,0.092l-0.021,0.002l-0.419,0.063l-0.641,0.096l-0.063,0.009l-2.841,0.424"/>
<path fill="#2AAAE2" stroke="#2E368F" stroke-width="1.25" stroke-linecap="round" stroke-linejoin="round" stroke-opacity="0.5" d="
	M100.826,135.32l0.574-1.342l-1.347-3.969"/>
<path fill="#2AAAE2" stroke="#2E368F" stroke-width="1.25" stroke-linecap="round" stroke-linejoin="round" stroke-opacity="0.5" d="
	M118.322,52.807l0.208-0.504l0.013-0.03l1.458-3.534l-0.676-3.922l-0.444-3.899"/>
<path fill="#2AAAE2" stroke="#2E368F" stroke-width="1.25" stroke-linecap="round" stroke-linejoin="round" stroke-opacity="0.5" d="
	M68.993,57.188l-4.287,5.336l-0.668,2.351"/>
<path fill="#2AAAE2" stroke="#2E368F" stroke-width="1.25" stroke-linecap="round" stroke-linejoin="round" stroke-opacity="0.5" d="
	M101.795,130.219l-1.002-3.274l-0.956-3.042l-1.091-3.197"/>
<path fill="#2AAAE2" stroke="#2E368F" stroke-width="1.25" stroke-linecap="round" stroke-linejoin="round" stroke-opacity="0.5" d="
	M35.556,112.07l-0.723,1.11l-0.151,0.232l-0.552,0.848l-0.841,1.293l0.224,0.257l3.182,3.642"/>
<path fill="#2AAAE2" stroke="#2E368F" stroke-width="1.25" stroke-linecap="round" stroke-linejoin="round" stroke-opacity="0.5" d="
	M116.723,25.55l-0.424-2.146l-0.076-0.382l-0.494-0.354l-0.161-0.115"/>
<path fill="#2AAAE2" stroke="#2E368F" stroke-width="1.25" stroke-linecap="round" stroke-linejoin="round" stroke-opacity="0.5" d="
	M43.133,149.764l2.764,7.134l0.228,0.588l0.448,1.159l1.938,3.378l-0.181,2.858l-0.026,0.414l-0.185,2.935l-0.063,0.964l5.761,3.186
	l0.639-0.119l6.25-1.165"/>
<path fill="#2AAAE2" stroke="#2E368F" stroke-width="1.25" stroke-linecap="round" stroke-linejoin="round" stroke-opacity="0.5" d="
	M38.921,103.583l-3.967,5.166l-0.272,4.664"/>
<path fill="#2AAAE2" stroke="#2E368F" stroke-width="1.25" stroke-linecap="round" stroke-linejoin="round" stroke-opacity="0.5" d="
	M96.147,11.649l-1.467-0.232"/>
<path fill="#2AAAE2" stroke="#2E368F" stroke-width="1.25" stroke-linecap="round" stroke-linejoin="round" stroke-opacity="0.5" d="
	M106.378,12.841l-1.161-0.796l-1.851-1.266l-1.169,0.283l-0.173,0.042l-0.05,0.012l-0.789,0.19l-2.406,0.583"/>
<path fill="#2AAAE2" stroke="#2E368F" stroke-width="1.25" stroke-linecap="round" stroke-linejoin="round" stroke-opacity="0.5" d="
	M69.141,31.962l-0.319,5.392l-2.155,6.196l0.199,4.464l0.588,4.688L65.672,57.1"/>
<path fill="#2AAAE2" stroke="#2E368F" stroke-width="1.25" stroke-linecap="round" stroke-linejoin="round" stroke-opacity="0.5" d="
	M119.732,61.324l-0.242-4.235l-0.947-4.816"/>
<path fill="#2AAAE2" stroke="#2E368F" stroke-width="1.25" stroke-linecap="round" stroke-linejoin="round" stroke-opacity="0.5" d="
	M76.688,16.179l-3.17,1.853l-1.295,4.013l-0.535,1.582l-0.03,0.086l-0.34,1"/>
<path fill="#2AAAE2" stroke="#2E368F" stroke-width="1.25" stroke-linecap="round" stroke-linejoin="round" stroke-opacity="0.5" d="
	M102.024,11.104l-0.203-0.314l-0.462-0.711l-0.388,0.099l-0.508,0.13l-0.285,0.073l-3.428,0.878l-0.027,0.007l-0.571,0.147"/>
<path fill="#2AAAE2" stroke="#2E368F" stroke-width="1.25" stroke-linecap="round" stroke-linejoin="round" stroke-opacity="0.5" d="
	M107.089,12.838l-0.967-0.422l-0.859-0.375l-0.046,0.004"/>
<path fill="#2AAAE2" stroke="#2E368F" stroke-width="1.25" stroke-linecap="round" stroke-linejoin="round" stroke-opacity="0.5" d="
	M117.008,21.684l-1.074-1.231l-0.886-1.014l-1.146-0.886l-1.333-1.028l-1.92-1.635l-1.39-1.182"/>
<path fill="#2AAAE2" stroke="#2E368F" stroke-width="1.25" stroke-linecap="round" stroke-linejoin="round" stroke-opacity="0.5" d="
	M34.13,114.26l-2.852,2.15l1.055,3.461"/>
<path fill="#2AAAE2" stroke="#2E368F" stroke-width="1.25" stroke-linecap="round" stroke-linejoin="round" stroke-opacity="0.5" d="
	M31.44,129.606l0.437,2.371l3.086,5.919l0.879,3.699"/>
<path fill="#2AAAE2" stroke="#2E368F" stroke-width="1.25" stroke-linecap="round" stroke-linejoin="round" stroke-opacity="0.5" d="
	M96.752,11.259l-3.454-1.665l-0.276-0.08l-1.406-0.401l-1.508-0.43L84.68,7.1l-3.289-0.821L77.923,5.24"/>
<path fill="#2AAAE2" stroke="#2E368F" stroke-width="1.25" stroke-linecap="round" stroke-linejoin="round" stroke-opacity="0.5" d="
	M121.328,38.85l-0.178-1.633l-0.001-0.012l-0.013-0.11"/>
<path fill="#2AAAE2" stroke="#2E368F" stroke-width="1.25" stroke-linecap="round" stroke-linejoin="round" stroke-opacity="0.5" d="
	M110.647,15.89l-0.662-0.787l-1.05-0.932"/>
<path fill="#2AAAE2" stroke="#2E368F" stroke-width="1.25" stroke-linecap="round" stroke-linejoin="round" stroke-opacity="0.5" d="
	M121.15,37.217l0.959-1.152l0.897-1.081l0.237-1.947l-1.696-1.983l-0.49-0.669L120.26,29.3l-0.406-0.555l-0.406-0.553l-0.103-0.137
	l-0.272-0.374l-0.176-0.427l-0.029-0.074l-1.479-3.617"/>
<path fill="#2AAAE2" stroke="#2E368F" stroke-width="1.25" stroke-linecap="round" stroke-linejoin="round" stroke-opacity="0.5" d="
	M45.896,156.898l0.593,4.888"/>
<path fill="#2AAAE2" stroke="#2E368F" stroke-width="1.25" stroke-linecap="round" stroke-linejoin="round" stroke-opacity="0.5" d="
	M119.447,28.192l-0.58-1.012"/>
<path fill="#2AAAE2" stroke="#2E368F" stroke-width="1.25" stroke-linecap="round" stroke-linejoin="round" stroke-opacity="0.5" d="
	M60.356,173.581l1.329-0.379l1.396-0.399l0.498-0.142l0.661-0.189l0.868-0.021l3.992-0.104l0.603-0.148l6.465-1.595l4.367-0.421"/>
<path fill="#2AAAE2" stroke="#2E368F" stroke-width="1.25" stroke-linecap="round" stroke-linejoin="round" stroke-opacity="0.5" d="
	M73.376,7.983l-2.954,1.151l-2.642,1.878"/>
<path fill="#2AAAE2" stroke="#2E368F" stroke-width="1.25" stroke-linecap="round" stroke-linejoin="round" stroke-opacity="0.5" d="
	M100.465,10.308l-0.003-0.001l-2.728-1.414"/>
<path fill="#2AAAE2" stroke="#2E368F" stroke-width="1.25" stroke-linecap="round" stroke-linejoin="round" stroke-opacity="0.5" d="
	M44.747,80.583L36.219,80.1l-4.763,3.257"/>
<path fill="#2AAAE2" stroke="#2E368F" stroke-width="1.25" stroke-linecap="round" stroke-linejoin="round" stroke-opacity="0.5" d="
	M111.506,123.2l-0.839-5.449l-0.836-7.873"/>
<path fill="#2AAAE2" stroke="#2E368F" stroke-width="1.25" stroke-linecap="round" stroke-linejoin="round" stroke-opacity="0.5" d="
	M120.983,27.452l-0.896-2.871l-0.574-1.093l-0.817-1.557l-2.143-2.158l-0.532-0.246l-2.119-0.974"/>
<path fill="#2AAAE2" stroke="#2E368F" stroke-width="1.25" stroke-linecap="round" stroke-linejoin="round" stroke-opacity="0.5" d="
	M120.791,29.682l-1.139-3.005"/>
<path fill="#2AAAE2" stroke="#2E368F" stroke-width="1.25" stroke-linecap="round" stroke-linejoin="round" stroke-opacity="0.5" d="
	M128.477,38.185l-3.256-0.487l-0.934-4.018l-1.626-2.128l-1.871-1.87l-0.575-0.574l-0.361-0.363"/>
<path fill="#2AAAE2" stroke="#2E368F" stroke-width="1.25" stroke-linecap="round" stroke-linejoin="round" stroke-opacity="0.5" d="
	M59.686,39.806l-1.25,2.921l0.545,3.706"/>
<path fill="#2AAAE2" stroke="#2E368F" stroke-width="1.25" stroke-linecap="round" stroke-linejoin="round" stroke-opacity="0.5" d="
	M79.82,3.568l-1.729-0.067l-4.733-0.182l-2.396,0.507l-1.316,0.279L63.56,2.674l1.257,4.182l0.805,2.681"/>
<path fill="#2AAAE2" stroke="#2E368F" stroke-width="1.25" stroke-linecap="round" stroke-linejoin="round" stroke-opacity="0.5" d="
	M98.266,7.073l-0.026-0.019L96.84,6.141L96.396,5.85l-0.759-0.493l-0.913-0.183l-2.51-0.502L91.168,3.93l-0.092-0.065l-1.515-1.074
	l-2.146,1.021l-0.012,0.006l-1.74,0.828"/>
<path fill="#2AAAE2" stroke="#2E368F" stroke-width="1.25" stroke-linecap="round" stroke-linejoin="round" stroke-opacity="0.5" d="
	M63.666,12.249l-2.854,2.058"/>
<path fill="#2AAAE2" stroke="#2E368F" stroke-width="1.25" stroke-linecap="round" stroke-linejoin="round" stroke-opacity="0.5" d="
	M86.036,5.192l-0.372-0.546l-1.303-1.912l-1.438-2.109L78.88,1.151l-2.65,1.046l-1.223,0.482l-3.23,0.414l-0.813,0.733"/>
<path fill="#2AAAE2" stroke="#2E368F" stroke-width="1.25" stroke-linecap="round" stroke-linejoin="round" stroke-opacity="0.5" d="
	M60.057,174.299l0.054,0.033l4.271,2.754l4.355-1.353l4.479,0.861l0.668-0.271l2.479-1.003l1.858-0.753"/>
<path fill="#2AAAE2" stroke="#2E368F" stroke-width="1.25" stroke-linecap="round" stroke-linejoin="round" stroke-opacity="0.5" d="
	M86.581,173.8l0.587,0.253l8.568,3.697l2.922-5.027l4.451-3.893l1.945-1.701"/>
<path fill="#2AAAE2" stroke="#2E368F" stroke-width="1.25" stroke-linecap="round" stroke-linejoin="round" stroke-opacity="0.5" d="
	M44.745,166.602l0.244,0.54l1.98,4.38l2.045,2.943l1.264,1.816l3.454,4.666l6.277-6.601l0.046-0.048l0.218-0.227"/>
<path fill="#2AAAE2" stroke="#2E368F" stroke-width="1.25" stroke-linecap="round" stroke-linejoin="round" stroke-opacity="0.5" d="
	M103.109,168.831l7.975,0.063l0.293-7.486l0.003-0.07l1.69-3.258"/>
<path fill="#2AAAE2" stroke="#2E368F" stroke-width="1.25" stroke-linecap="round" stroke-linejoin="round" stroke-opacity="0.5" d="
	M107.293,12.808l-0.195-0.3l-0.521-0.8l-0.885-2.325l-0.284-0.746l-0.287-0.752l-3.011-1.618l-0.657-0.17l-2.504-0.65l-2.139-1.002
	l-1.079-0.504"/>
<path fill="#2AAAE2" stroke="#2E368F" stroke-width="1.25" stroke-linecap="round" stroke-linejoin="round" stroke-opacity="0.5" d="
	M134.956,98.915l6.562-0.065l3.285-0.033"/>
<path fill="#2AAAE2" stroke="#2E368F" stroke-width="1.25" stroke-linecap="round" stroke-linejoin="round" stroke-opacity="0.5" d="
	M129.627,34.505l0.453-4.655l-4.156-2.55"/>
<path fill="#2AAAE2" stroke="#2E368F" stroke-width="1.25" stroke-linecap="round" stroke-linejoin="round" stroke-opacity="0.5" d="
	M133.788,31.5l-2.312-3.142l-0.722-0.426l-0.275-0.164l-2.087-1.235l-3.66-2.195l-1.246-0.747l-0.684-0.159l-0.055-0.013
	l-0.034-0.008l-2.271-0.533l0.203-1.957l0.105-1.026l0.013-0.116l0.117-1.125l-0.988-0.241l-0.268-0.065l-0.062-0.015l-0.526-0.128
	l-0.11-0.027l-1.495-0.364l-3.255-1.226"/>
<path fill="#2AAAE2" stroke="#2E368F" stroke-width="1.25" stroke-linecap="round" stroke-linejoin="round" stroke-opacity="0.5" d="
	M76.362,175.323L77,175.295l0.167,0.091l4.461,2.44l5.54-3.773"/>
<path fill="#2AAAE2" stroke="#2E368F" stroke-width="1.25" stroke-linecap="round" stroke-linejoin="round" stroke-opacity="0.5" d="
	M35.774,161.116l2.845,1.522l3.104,1.739l3.267,2.765"/>
<path fill="#2AAAE2" stroke="#2E368F" stroke-width="1.25" stroke-linecap="round" stroke-linejoin="round" stroke-opacity="0.5" d="
	M137.927,105.381l4.534-4.666l2.342-1.899l-1.563-6.698"/>
<path fill="#2AAAE2" stroke="#2E368F" stroke-width="1.25" stroke-linecap="round" stroke-linejoin="round" stroke-opacity="0.5" d="
	M107.879,12.721l-0.781-0.213"/>
<path fill="#2AAAE2" stroke="#2E368F" stroke-width="1.25" stroke-linecap="round" stroke-linejoin="round" stroke-opacity="0.5" d="
	M38.348,52.833l-4.56,3.465l-2.135,4.225"/>
<path fill="#2AAAE2" stroke="#2E368F" stroke-width="1.25" stroke-linecap="round" stroke-linejoin="round" stroke-opacity="0.5" d="
	M76.229,2.197l-1.051,0.011l-3.402,0.885"/>
<path fill="#2AAAE2" stroke="#2E368F" stroke-width="1.25" stroke-linecap="round" stroke-linejoin="round" stroke-opacity="0.5" d="
	M24.364,72.935l-6.739-3.867l-1.391,0.361l-2.924,0.758"/>
<path fill="#2AAAE2" stroke="#2E368F" stroke-width="1.25" stroke-linecap="round" stroke-linejoin="round" stroke-opacity="0.5" d="
	M111.572,13.079l-0.967-0.059l-2.104-0.129l-0.405-0.111"/>
<path fill="#2AAAE2" stroke="#2E368F" stroke-width="1.25" stroke-linecap="round" stroke-linejoin="round" stroke-opacity="0.5" d="
	M124.732,24.338l-2.375-1.678l-0.609-0.43l-0.669-0.473"/>
<path fill="#2AAAE2" stroke="#2E368F" stroke-width="1.25" stroke-linecap="round" stroke-linejoin="round" stroke-opacity="0.5" d="
	M96.811,4.445L96.14,3.749l-6.52-1.568l-4.336,0.763l-0.924-0.21"/>
<path fill="#2AAAE2" stroke="#2E368F" stroke-width="1.25" stroke-linecap="round" stroke-linejoin="round" stroke-opacity="0.5" d="
	M119.895,18.413l-0.205-0.353l-0.038-0.046l-0.089-0.106l-1.393-1.659l-0.341-0.405l-0.509-0.608"/>
<path fill="#2AAAE2" stroke="#2E368F" stroke-width="1.25" stroke-linecap="round" stroke-linejoin="round" stroke-opacity="0.5" d="
	M64.816,6.856l-3.538,0.492L57.58,8.021l-0.734,5.985l-4.21,2.532l-0.756,2.479l-3.042,3.955l-0.58,2.491"/>
<path fill="#2AAAE2" stroke="#2E368F" stroke-width="1.25" stroke-linecap="round" stroke-linejoin="round" stroke-opacity="0.5" d="
	M122.357,22.66l-1.604-2.765"/>
<path fill="#2AAAE2" stroke="#2E368F" stroke-width="1.25" stroke-linecap="round" stroke-linejoin="round" stroke-opacity="0.5" d="
	M111.377,161.407l1.38-2.06l3.944-0.987l3.251-3.337l2.405-2.36l2.223-3.064l2.372-2.639l3.246-2.644l-0.373-2.696l-0.064-0.457
	l-0.027-0.213l-0.218-1.559"/>
<path fill="#2AAAE2" stroke="#2E368F" stroke-width="1.25" stroke-linecap="round" stroke-linejoin="round" stroke-opacity="0.5" d="
	M20.422,138.618l1.43,3.14l5.851,7.978"/>
<path fill="#2AAAE2" stroke="#2E368F" stroke-width="1.25" stroke-linecap="round" stroke-linejoin="round" stroke-opacity="0.5" d="
	M17.271,67.649l-1.034,0.663l-0.47,0.301l-2.457,1.574l-1.019,8.663"/>
<path fill="#2AAAE2" stroke="#2E368F" stroke-width="1.25" stroke-linecap="round" stroke-linejoin="round" stroke-opacity="0.5" d="
	M8.523,101.118l1.229,4.58l1.971,3.475"/>
<path fill="#2AAAE2" stroke="#2E368F" stroke-width="1.25" stroke-linecap="round" stroke-linejoin="round" stroke-opacity="0.5" d="
	M16.223,56.418l0.16,0.568l0.375,1.333l0.317,1.123l0.841,2.988l-2.148,6.183"/>
<path fill="#2AAAE2" stroke="#2E368F" stroke-width="1.25" stroke-linecap="round" stroke-linejoin="round" stroke-opacity="0.5" d="
	M7.405,90.242L5.723,95.03l-0.028,0.086l-0.043,0.122l-0.242,0.688l0.353,2.18l0.223,1.362l0.022,0.149l0.783,4.834"/>
<path fill="#2AAAE2" stroke="#2E368F" stroke-width="1.25" stroke-linecap="round" stroke-linejoin="round" stroke-opacity="0.5" d="
	M119.785,16.171l0.013-0.191l0.636-8.76l-7.145-0.051l-1.076,0.312l-5.837,1.694l-0.279,0.081"/>
<path fill="#2AAAE2" stroke="#2E368F" stroke-width="1.25" stroke-linecap="round" stroke-linejoin="round" stroke-opacity="0.5" d="
	M36.335,164.604l1.615,1.285l4.715,3.753l3.635,3.649"/>
<path fill="#2AAAE2" stroke="#2E368F" stroke-width="1.25" stroke-linecap="round" stroke-linejoin="round" stroke-opacity="0.5" d="
	M123.291,21.242l-3.506-5.071l-0.202-0.291l-0.041-0.059"/>
<path fill="#2AAAE2" stroke="#2E368F" stroke-width="1.25" stroke-linecap="round" stroke-linejoin="round" stroke-opacity="0.5" d="
	M129.825,141.62l2.911-1.854l2.887-2.246l2.947-3.04l0.819-0.848l0.005-0.004"/>
<path fill="#2AAAE2" stroke="#2E368F" stroke-width="1.25" stroke-linecap="round" stroke-linejoin="round" stroke-opacity="0.5" d="
	M60.011,174.347l0.1-0.015"/>
<path fill="#2AAAE2" stroke="#2E368F" stroke-width="1.25" stroke-linecap="round" stroke-linejoin="round" stroke-opacity="0.5" d="
	M140.593,41.471l-1.832-2.428l-1.636-1.232"/>
<path fill="#2AAAE2" stroke="#2E368F" stroke-width="1.25" stroke-linecap="round" stroke-linejoin="round" stroke-opacity="0.5" d="
	M112.213,7.481l-2.143-1.438l-5.021,0.011l-3.597,0.043"/>
<path fill="#2AAAE2" stroke="#2E368F" stroke-width="1.25" stroke-linecap="round" stroke-linejoin="round" stroke-opacity="0.5" d="
	M73.885,176.325l3.282-0.938"/>
<path fill="#2AAAE2" stroke="#2E368F" stroke-width="1.25" stroke-linecap="round" stroke-linejoin="round" stroke-opacity="0.5" d="
	M139.391,133.631l5.314-3.29l0.076-0.998l0.256-3.343l0.168-2.194"/>
<path fill="#2AAAE2" stroke="#2E368F" stroke-width="1.25" stroke-linecap="round" stroke-linejoin="round" stroke-opacity="0.5" d="
	M39.93,35.853l-5.039,3.502l-6.218,3.165l-0.46,0.57l-0.586,0.493l0.485-0.217l0.12-0.054l5.354-2.388l5.048-3.432L39.93,35.853
	l2.169-2.745l3.313-4.105l2.848-3.54l0.369-0.459"/>
<path fill="#2AAAE2" stroke="#2E368F" stroke-width="1.25" stroke-linecap="round" stroke-linejoin="round" stroke-opacity="0.5" d="
	M27.627,43.583l-1.609,2.942l-0.796,1.456l-0.163,0.298l-0.386,0.707l-5.388,3.175l-3.432,2.888L14.247,56.4l-0.156,3.3
	l-0.047,1.005l-0.002,0.032l-0.093,1.962l-0.042,0.893"/>
<path fill="#2AAAE2" stroke="#2E368F" stroke-width="1.25" stroke-linecap="round" stroke-linejoin="round" stroke-opacity="0.5" d="
	M39.015,167.473l4.557,5.136l1.122,0.28l4.322,1.576"/>
<path fill="#2AAAE2" stroke="#2E368F" stroke-width="1.25" stroke-linecap="round" stroke-linejoin="round" stroke-opacity="0.5" d="
	M28.088,158.008l3.178,4.492l1.745,2.469l6.004,2.504l0.312,0.129"/>
<path fill="#2AAAE2" stroke="#2E368F" stroke-width="1.25" stroke-linecap="round" stroke-linejoin="round" stroke-opacity="0.5" d="
	M8.846,75.336l-0.119,0.642L7.723,81.4l-4.664,5.176l0.89,2.969l1.364,4.556"/>
<path fill="#2AAAE2" stroke="#2E368F" stroke-width="1.25" stroke-linecap="round" stroke-linejoin="round" stroke-opacity="0.5" d="
	M144.781,129.343l2.532-1.962l4.566-2.706l1.78-1.056l0.457-1.963l0.04-0.174l0.261-1.123l0.947-4.072"/>
<path fill="#2AAAE2" stroke="#2E368F" stroke-width="1.25" stroke-linecap="round" stroke-linejoin="round" stroke-opacity="0.5" d="
	M14.091,59.7l-1.86,3.87l-0.151,0.313l-0.146,0.156l-4.811,5.115l1.63,6.404l-0.023,0.42"/>
<path fill="#2AAAE2" stroke="#2E368F" stroke-width="1.25" stroke-linecap="round" stroke-linejoin="round" stroke-opacity="0.5" d="
	M5.602,92.731l-0.133,0.622l-0.158,0.748l-0.846,3.978l-0.823,3.883l-3.017,6.471l6.324,10.074l3.531,7.273l1.516,4.348l4.379,7.945
	l1.62,2.94l2.506,4.37l0.155,0.269l0.127,0.222l0.031,0.056l0.734,1.282l0.527,0.918l1.104,1.93"/>
<path fill="#2AAAE2" stroke="#2E368F" stroke-width="1.25" stroke-linecap="round" stroke-linejoin="round" stroke-opacity="0.5" d="
	M26.018,46.525l-1.047,1.58l-0.19,0.289"/>
<path fill="#2AAAE2" stroke="#2E368F" stroke-width="1.25" stroke-linecap="round" stroke-linejoin="round" stroke-opacity="0.5" d="
	M22.078,148.129l2.281,10.123l6.905,4.248"/>
<path fill="#2AAAE2" stroke="#2E368F" stroke-width="1.25" stroke-linecap="round" stroke-linejoin="round" stroke-opacity="0.5" d="
	M12.229,63.57l-0.299,0.469"/>
<path fill="#2AAAE2" stroke="#2E368F" stroke-width="1.25" stroke-linecap="round" stroke-linejoin="round" stroke-opacity="0.5" d="
	M163.286,92.125l4.856-7.051l1.172-1.701l-3.204-7.314l-3.916-8.623l-3.661-7.761l-6.526-5.935l-4.951-7.653l-3.775-4.651
	l-1.935-4.758l-3.711-3.619l-3.299-9.582l-4.471-6.804l-6.869,0.798l-3.198-1.491"/>
<path fill="#2AAAE2" stroke="#2E368F" stroke-width="1.25" stroke-linecap="round" stroke-linejoin="round" stroke-opacity="0.5" d="
	M154.158,121.483l0.166-0.104l3.663-2.303l0.089-0.609l0.3-2.041l0.003-0.027l0.796-5.426"/>
<path fill="#2AAAE2" stroke="#2E368F" stroke-width="1.25" stroke-linecap="round" stroke-linejoin="round" stroke-opacity="0.5" d="
	M24.971,48.105l-0.048,0.024l-7.722,2.588l-1.348,4.332"/>
<path fill="#2AAAE2" stroke="#2E368F" stroke-width="1.25" stroke-linecap="round" stroke-linejoin="round" stroke-opacity="0.5" d="
	M3.947,89.545l-0.831,1.338l1.35,7.195"/>
<path fill="#2AAAE2" stroke="#2E368F" stroke-width="1.25" stroke-linecap="round" stroke-linejoin="round" stroke-opacity="0.5" d="
	M158.376,116.426l3.194-3.549l1.879-7.518l2.193-6.251"/>
<path fill="#2AAAE2" stroke="#2E368F" stroke-width="1.25" stroke-linecap="round" stroke-linejoin="round" stroke-opacity="0.5" d="
	M20.502,145.383l0.259,0.465l0.056,0.081"/>
<path fill="#2AAAE2" stroke="#2E368F" stroke-width="1.25" stroke-linecap="round" stroke-linejoin="round" stroke-opacity="0.5" d="
	M154.118,121.657l0.206-0.277"/>
<path fill="#2AAAE2" stroke="#2E368F" stroke-width="1.25" stroke-linecap="round" stroke-linejoin="round" stroke-opacity="0.5" d="
	M138.57,134.479l5.257-3.023l6.594-4.811l1.46-1.97"/>
<path fill="#2AAAE2" stroke="#2E368F" stroke-width="1.25" stroke-linecap="round" stroke-linejoin="round" stroke-opacity="0.5" d="
	M16.376,138.073l2.613,6.478l2.562,2.661"/>
<path fill="#2AAAE2" stroke="#2E368F" stroke-width="1.25" stroke-linecap="round" stroke-linejoin="round" stroke-opacity="0.5" d="
	M158.076,118.467l5.568-2.75l3.643-7.954l4.693-7.3l2.236-9.061l-6.075-6.329"/>
</svg>
