<?xml version="1.0" encoding="utf-8"?>
<!-- Generator: Adobe Illustrator 16.0.0, SVG Export Plug-In . SVG Version: 6.00 Build 0)  -->
<!DOCTYPE svg PUBLIC "-//W3C//DTD SVG 1.1//EN" "http://www.w3.org/Graphics/SVG/1.1/DTD/svg11.dtd">
<svg version="1.1" id="Layer_1" xmlns="http://www.w3.org/2000/svg" xmlns:xlink="http://www.w3.org/1999/xlink" x="0px" y="0px"
	 width="163.399px" height="148.339px" viewBox="0 0 163.399 148.339" enable-background="new 0 0 163.399 148.339"
	 xml:space="preserve">
<path fill="#2AAAE2" stroke="#2E368F" stroke-miterlimit="10" d="M158.351,60.605l-0.745-1.624l-0.474-2.88l0.344-4.047
	l-3.157-4.523l-1.143-6.214l-6.531-4.07l-0.431-0.197l-0.813-0.719l-0.143-0.188l-4.3-4.369l-4.378-2.729l-1.011-0.85l-0.754-0.146
	l-4.809-2.35l-0.083-0.094l-0.499-0.191l-6.471-2.294l-5.627-2.381l-2.402-0.481l-6.112-3.662l-3.802-0.539l-3.868-5.319
	l-5.274-0.735l-3.783-2.834l-4.517-0.356L83.125,4.06l-1.706,0.228l-8.613,0.273l-6.702-0.417l-9.438-3.373l-9.974-0.146
	l-6.487,4.757l-0.863-0.058l-1.982,0.942l-4.624,0.869l-3.279,1.656l-5.163,0.603l-2.896,2.32l-2.524,1.254l-3.077,0.659
	l-0.752,1.244l-1.313,0.652l-0.772,2.797l-3.539,5.854L9.06,24.635l-4.916,8.682L5.4,39.54l-1.361,2.409l0.74,4.705l-0.598,2.249
	l0.62,8.164l0.365,0.568l0.097,3.556l0.081,0.199l-0.23,0.635l-4.487,7.27l3.68,8.511l0.506,1.092l0.011,0.575l-0.419,5.336
	l-0.399,5.837l-3.021,7.566l2.789,6.156l-1.139,6.064l4.052,6.365l5.585,5.215l4.314,2.285l4.188,2.707l1.017,2.376l7.988,3.415
	l7.505,0.752l4.316,0.738l3.726,2.582l4.81,2.24l5.729,1.721l5.729,3.434l10.802,2.036l5.984-0.199l5.907,1.615l8.256-2.236
	l9.823,1.313l4.13-7.112l1.989,0.239l6.086,0.693l8.222-2.193l4.209-6.838l0.313-0.336l3.908-3.453l5.016-3.832l0.421-0.737
	l0.205-0.062l4.744-4.369l4.445-6.137l4.202-5.283l-1.353-6.347l-0.047-0.251l-0.033-1.188l0.246-1.137l2.127-4.011l0.072-1.073
	l0.166-0.356l0.037-0.14l0.419-0.715l0.801-3.953l2.095-4.961l0.6-0.93l-0.068-0.324l0.034-0.082l0.104-0.479l2.522-2.099
	l2.079-3.354l2.723-5.528l-3.563-6.77l-0.297-1.397L158.351,60.605z"/>
<path fill="#2AAAE2" stroke="#2E368F" stroke-width="1.25" stroke-linecap="round" stroke-linejoin="round" stroke-opacity="0.5" d="
	M17.515,69.378l-0.92,6.686l1.899,7.874"/>
<path fill="#2AAAE2" stroke="#2E368F" stroke-width="1.25" stroke-linecap="round" stroke-linejoin="round" stroke-opacity="0.5" d="
	M53.094,18.851l-9.013-4.61l-0.021-0.01l-0.115,0.005l-1.024,0.041l-5.079,0.206l-1.91,1.741l-2.239,2.042"/>
<path fill="#2AAAE2" stroke="#2E368F" stroke-width="1.25" stroke-linecap="round" stroke-linejoin="round" stroke-opacity="0.5" d="
	M14.604,35.532l0.862,5.775l-3.438,3.869"/>
<path fill="#2AAAE2" stroke="#2E368F" stroke-width="1.25" stroke-linecap="round" stroke-linejoin="round" stroke-opacity="0.5" d="
	M110.29,34.319l-4.325-5.111l-1.643-2.339l-3.505-4.991l-6.325-7.619l-0.175-0.007l-0.588-0.024l-1.172-0.048l-9.211-0.378"/>
<path fill="#2AAAE2" stroke="#2E368F" stroke-width="1.25" stroke-linecap="round" stroke-linejoin="round" stroke-opacity="0.5" d="
	M6.735,41.758l-0.792,5.999l-0.457,3.416l-0.413,3.089l0.092,3.372l0.097,3.556l0.081,0.199l1.238,3.04L7.14,65.8l0.563,1.383
	l0.101,0.376l0.209,0.789l0.204,0.772l0.158,0.609l0.367,1.388l0.655,2.482"/>
<path fill="#2AAAE2" stroke="#2E368F" stroke-width="1.25" stroke-linecap="round" stroke-linejoin="round" stroke-opacity="0.5" d="
	M7.655,93.722l-0.074,1.023l-0.188,2.592L7.391,97.36l-0.099,1.337l-0.026,0.371l0.065,0.287l1.507,6.396l0.138,0.586l0.495,0.856
	l2.741,4.731l0.166,0.285l2.514,6.324l0.857,0.34l1.535,0.61l0.431,0.171l0.366,0.146l0.616,0.245l4.113,1.634"/>
<path fill="#2AAAE2" stroke="#2E368F" stroke-width="1.25" stroke-linecap="round" stroke-linejoin="round" stroke-opacity="0.5" d="
	M66.575,17.047l-6.318,0.779l-5.466,0.565"/>
<path fill="#2AAAE2" stroke="#2E368F" stroke-width="1.25" stroke-linecap="round" stroke-linejoin="round" stroke-opacity="0.5" d="
	M3.644,68.685l1.459,4.916l0.416,1.402l2.496,7.344"/>
<path fill="#2AAAE2" stroke="#2E368F" stroke-width="1.25" stroke-linecap="round" stroke-linejoin="round" stroke-opacity="0.5" d="
	M7.31,83.966l0.031,0.365l0.004,0.047l0.122,1.438l0.146,1.726l0.424,0.922l1.601,3.477l0.124,0.27"/>
<path fill="#2AAAE2" stroke="#2E368F" stroke-width="1.25" stroke-linecap="round" stroke-linejoin="round" stroke-opacity="0.5" d="
	M88.721,88.884l3.17-2.438l9.167-7.645l3.891-2.862l2.275-1.674l3.279-4.329l4.053-5.352"/>
<path fill="#2AAAE2" stroke="#2E368F" stroke-width="1.25" stroke-linecap="round" stroke-linejoin="round" stroke-opacity="0.5" d="
	M37.783,124.865l1.077-0.027l0.367-0.008l0.756-0.02l0.798-0.02l0.379-0.008l1.038-0.025l1.547-0.038l2.112-0.052l1.344-0.142
	l0.093-0.01l0.595-0.063l4.331-0.457l5.07-3.756"/>
<path fill="#2AAAE2" stroke="#2E368F" stroke-width="1.25" stroke-linecap="round" stroke-linejoin="round" stroke-opacity="0.5" d="
	M71.281,107.047l6.491-5.575l2.066-2.161l1.576-2.815l0.006-0.01l2.016-3.6"/>
<path fill="#2AAAE2" stroke="#2E368F" stroke-width="1.25" stroke-linecap="round" stroke-linejoin="round" stroke-opacity="0.5" d="
	M94.559,84.826l9.854-6.186l6.092-8.703"/>
<path fill="#2AAAE2" stroke="#2E368F" stroke-width="1.25" stroke-linecap="round" stroke-linejoin="round" stroke-opacity="0.5" d="
	M81.415,96.496l0.011-0.013"/>
<path fill="#2AAAE2" stroke="#2E368F" stroke-width="1.25" stroke-linecap="round" stroke-linejoin="round" stroke-opacity="0.5" d="
	M14.255,121.669l3.753,1.715l3.37,1.539l2.396,0.768l1.107,0.354l1.221,0.392l4.338,1.392l2.126-0.672l4.401-1.392l3.673-0.502
	l0.445-0.062l0.299-0.054l2.36-0.428"/>
<path fill="#2AAAE2" stroke="#2E368F" stroke-width="1.25" stroke-linecap="round" stroke-linejoin="round" stroke-opacity="0.5" d="
	M83.767,97.582l3.621-3.25l4.395-5.012"/>
<path fill="#2AAAE2" stroke="#2E368F" stroke-width="1.25" stroke-linecap="round" stroke-linejoin="round" stroke-opacity="0.5" d="
	M5.342,61.389l-0.23,0.635l-4.486,7.27l3.679,8.511l0.506,1.092l0.048,0.104l2.488,5.377"/>
<path fill="#2AAAE2" stroke="#2E368F" stroke-width="1.25" stroke-linecap="round" stroke-linejoin="round" stroke-opacity="0.5" d="
	M32.456,9.137l-2.968,0.388l-2.005,0.262l-2.998,0.392l-3.089,1.535l-2.524,1.254l-3.828,1.903l-1.314,0.652l-0.771,2.797
	l-0.566,2.053l-0.708,2.565l-0.194,0.703l-0.688,2.496"/>
<path fill="#2AAAE2" stroke="#2E368F" stroke-width="1.25" stroke-linecap="round" stroke-linejoin="round" stroke-opacity="0.5" d="
	M74.524,105.312l4.841-4.679"/>
<path fill="#2AAAE2" stroke="#2E368F" stroke-width="1.25" stroke-linecap="round" stroke-linejoin="round" stroke-opacity="0.5" d="
	M106.094,28.708l-4.31-5.979l-1.803-3.748l-0.313-0.654l-1.61-3.348l-1.207-2.51l-0.008-0.017l-1.415-0.276l-1.841-0.359
	l-0.934-0.181l-0.831-0.162l-4.915-0.959L80.767,9.17l-0.853-0.187"/>
<path fill="#2AAAE2" stroke="#2E368F" stroke-width="1.25" stroke-linecap="round" stroke-linejoin="round" stroke-opacity="0.5" d="
	M47.698,5.885l-7.492-0.503l-0.863-0.058l0.184,0.03l0.436,0.21l0.598,0.29l7.871,3.814"/>
<path fill="#2AAAE2" stroke="#2E368F" stroke-width="1.25" stroke-linecap="round" stroke-linejoin="round" stroke-opacity="0.5" d="
	M93.479,90.91l5.278-3.084l2.964-2.09l2.172-1.529"/>
<path fill="#2AAAE2" stroke="#2E368F" stroke-width="1.25" stroke-linecap="round" stroke-linejoin="round" stroke-opacity="0.5" d="
	M4.856,79.001l-0.037,0.471L4.4,84.808l-0.398,5.837L0.979,98.21l2.789,6.158l0.86,1.896l2.369,7.88"/>
<path fill="#2AAAE2" stroke="#2E368F" stroke-width="1.25" stroke-linecap="round" stroke-linejoin="round" stroke-opacity="0.5" d="
	M15.469,123.578l1.112,0.719l4.188,2.707l1.165,0.754l2.869,0.281l0.536,0.054l5.229,0.514l0.716-0.521l1.282-0.93"/>
<path fill="#2AAAE2" stroke="#2E368F" stroke-width="1.25" stroke-linecap="round" stroke-linejoin="round" stroke-opacity="0.5" d="
	M99.247,88.787l4.646-4.58l1.813-2.912l1.268-2.033"/>
<path fill="#2AAAE2" stroke="#2E368F" stroke-width="1.25" stroke-linecap="round" stroke-linejoin="round" stroke-opacity="0.5" d="
	M11.682,22.938l-1.312,2.74"/>
<path fill="#2AAAE2" stroke="#2E368F" stroke-width="1.25" stroke-linecap="round" stroke-linejoin="round" stroke-opacity="0.5" d="
	M79.245,105.479l6.739-3.835l4.25-3.15"/>
<path fill="#2AAAE2" stroke="#2E368F" stroke-width="1.25" stroke-linecap="round" stroke-linejoin="round" stroke-opacity="0.5" d="
	M47.293,124.516l0.348,0.046l0.508,0.066l5.319,0.691l0.366,0.049l0.509,0.065l8.5-1.597l2.44-2.551l1.823-1.902"/>
<path fill="#2AAAE2" stroke="#2E368F" stroke-width="1.25" stroke-linecap="round" stroke-linejoin="round" stroke-opacity="0.5" d="
	M103.595,85.529l3.378-6.268l7.332-6.831"/>
<path fill="#2AAAE2" stroke="#2E368F" stroke-width="1.25" stroke-linecap="round" stroke-linejoin="round" stroke-opacity="0.5" d="
	M82.249,4.262l-0.83,0.026l-8.613,0.273l-6.702-0.417l-9.437-3.373l-9.975-0.146l-6.487,4.757"/>
<path fill="#2AAAE2" stroke="#2E368F" stroke-width="1.25" stroke-linecap="round" stroke-linejoin="round" stroke-opacity="0.5" d="
	M92.654,11.636l-0.54-0.85l-0.014-0.021l-1.201-1.89l-0.639-0.396l-1.477-0.914l-1.216-0.752L83.126,4.06l-1.707,0.228"/>
<path fill="#2AAAE2" stroke="#2E368F" stroke-width="1.25" stroke-linecap="round" stroke-linejoin="round" stroke-opacity="0.5" d="
	M39.342,5.324l-1.982,0.942L32.888,8.39l-3.432,0.401l-5.163,0.603l-2.896,2.32"/>
<path fill="#2AAAE2" stroke="#2E368F" stroke-width="1.25" stroke-linecap="round" stroke-linejoin="round" stroke-opacity="0.5" d="
	M12.39,20.373l-2.973,3.8l-0.36,0.461l-4.916,8.682l1.257,6.223l0.548,2.716l-1.169,4.398l-0.598,2.249l0.62,8.164l0.365,0.568"/>
<path fill="#2AAAE2" stroke="#2E368F" stroke-width="1.25" stroke-linecap="round" stroke-linejoin="round" stroke-opacity="0.5" d="
	M3.768,104.369l-1.139,6.063l4.052,6.364l5.585,5.216l4.315,2.284"/>
<path fill="#2AAAE2" stroke="#2E368F" stroke-width="1.25" stroke-linecap="round" stroke-linejoin="round" stroke-opacity="0.5" d="
	M114.71,26.202l-3.346-2.075l-0.095-0.059l-0.25-0.155l-0.762-0.473l-1.075-0.667l-6.791-2.345l-2.725-2.101"/>
<path fill="#2AAAE2" stroke="#2E368F" stroke-width="1.25" stroke-linecap="round" stroke-linejoin="round" stroke-opacity="0.5" d="
	M65.284,121.287l2.938-1.523l1.491-1.236l3.313-0.892l0.302-0.271l0.212-0.188l5.095-4.551l1.651-3.52l1.131-1.965l6.689-3.99
	l1.404-0.838l0.286-0.126l5.096-2.241l8.071-8.91l0.388-0.586"/>
<path fill="#2AAAE2" stroke="#2E368F" stroke-width="1.25" stroke-linecap="round" stroke-linejoin="round" stroke-opacity="0.5" d="
	M31.283,128.085l5.563,1.031l5.031-3.56l0.395-0.278"/>
<path fill="#2AAAE2" stroke="#2E368F" stroke-width="1.25" stroke-linecap="round" stroke-linejoin="round" stroke-opacity="0.5" d="
	M37.359,6.266l-4.624,0.869l-3.279,1.656"/>
<path fill="#2AAAE2" stroke="#2E368F" stroke-width="1.25" stroke-linecap="round" stroke-linejoin="round" stroke-opacity="0.5" d="
	M41.877,125.557l1.421,0.339l4.851-1.268"/>
<path fill="#2AAAE2" stroke="#2E368F" stroke-width="1.25" stroke-linecap="round" stroke-linejoin="round" stroke-opacity="0.5" d="
	M50.537,125.949l3.298-0.58"/>
<path fill="#2AAAE2" stroke="#2E368F" stroke-width="1.25" stroke-linecap="round" stroke-linejoin="round" stroke-opacity="0.5" d="
	M72.743,118.412l0.797-1.234"/>
<path fill="#2AAAE2" stroke="#2E368F" stroke-width="1.25" stroke-linecap="round" stroke-linejoin="round" stroke-opacity="0.5" d="
	M103.271,20.393l-3.046-4.898l-0.08-0.129l-1.641-2.639l-0.469-0.252l-0.827-0.447l-1.297-0.699l-0.028-0.017l-0.152-0.081
	l-4.19-2.262l-1.278-0.49"/>
<path fill="#2AAAE2" stroke="#2E368F" stroke-width="1.25" stroke-linecap="round" stroke-linejoin="round" stroke-opacity="0.5" d="
	M154.318,47.531l-1.143-6.214l-6.531-4.07l-0.431-0.197l-0.813-0.719l-4.257-3.765"/>
<path fill="#2AAAE2" stroke="#2E368F" stroke-width="1.25" stroke-linecap="round" stroke-linejoin="round" stroke-opacity="0.5" d="
	M157.296,64.397l-0.105-1.291l-0.084-1.033l-0.234-2.905l0.068-0.805l0.053-0.628l0.14-1.634l0.344-4.047l-3.157-4.523l-2.142-3.069
	"/>
<path fill="#2AAAE2" stroke="#2E368F" stroke-width="1.25" stroke-linecap="round" stroke-linejoin="round" stroke-opacity="0.5" d="
	M49.396,127.33l3.714,0.511l3.77,0.481l7.531-4.229"/>
<path fill="#2AAAE2" stroke="#2E368F" stroke-width="1.25" stroke-linecap="round" stroke-linejoin="round" stroke-opacity="0.5" d="
	M134.948,31.228l-1.836-2.055l-1.572-1.76l-1.531-1.714l-0.083-0.094l-0.499-0.191l-6.471-2.294l-5.627-2.381l-2.402-0.481
	l-3.986-0.799l-4.568-1.532l-0.2-0.068l-0.274-0.092l-0.163-0.054l-0.456-0.153l-0.611-0.205l-1.268-1.133l-0.268-0.24l-0.256-0.229
	l-3.497-3.123l-0.199-0.149l-0.742-0.556l-0.052-0.039l-0.17-0.127l-0.172-0.129l-1.061-0.793l-1.113-0.834l-3.782-2.834
	L87.57,6.813"/>
<path fill="#2AAAE2" stroke="#2E368F" stroke-width="1.25" stroke-linecap="round" stroke-linejoin="round" stroke-opacity="0.5" d="
	M145.4,36.331l-0.143-0.188l-4.3-4.369l-4.378-2.729l-0.991-0.618l-0.772-0.378l-4.809-2.35"/>
<path fill="#2AAAE2" stroke="#2E368F" stroke-width="1.25" stroke-linecap="round" stroke-linejoin="round" stroke-opacity="0.5" d="
	M60.546,127.699l2.396-1.17l0.422-0.179l0.268-0.112l6.979-2.963l5.629-5.835l2.183-2.399l0.217-0.168l4.122-5.943l0.862-1.268
	l6.174-5.474"/>
<path fill="#2AAAE2" stroke="#2E368F" stroke-width="1.25" stroke-linecap="round" stroke-linejoin="round" stroke-opacity="0.5" d="
	M154.404,77.74l0.009-0.01l3.694-3.256l0.179-4.141l0.596-1.737l0.037-0.109l0.662-1.942l-2.475-4.472"/>
<path fill="#2AAAE2" stroke="#2E368F" stroke-width="1.25" stroke-linecap="round" stroke-linejoin="round" stroke-opacity="0.5" d="
	M146.087,96.697l1.459-1.658l0.139-0.158l0.042-0.049l0.117-0.133l2.416-4.232l0.525-0.924l0.425-0.741l0.042-0.073l0.674-1.048
	l0.11-0.174l0.039-0.062l0.022-0.035l2.682-4.17l0.6-0.929l-0.068-0.323l-0.08-0.38l-0.166-0.789l-0.018-0.085l-0.033-0.156
	l-0.023-0.109l-0.024-0.121l-0.553-2.617"/>
<path fill="#2AAAE2" stroke="#2E368F" stroke-width="1.25" stroke-linecap="round" stroke-linejoin="round" stroke-opacity="0.5" d="
	M136.581,29.045l-1.011-0.85l-0.754-0.146"/>
<path fill="#2AAAE2" stroke="#2E368F" stroke-width="1.25" stroke-linecap="round" stroke-linejoin="round" stroke-opacity="0.5" d="
	M5.397,39.539l-1.361,2.409l0.74,4.705"/>
<path fill="#2AAAE2" stroke="#2E368F" stroke-width="1.25" stroke-linecap="round" stroke-linejoin="round" stroke-opacity="0.5" d="
	M18.872,12.968l-3.076,0.659l-0.752,1.244"/>
<path fill="#2AAAE2" stroke="#2E368F" stroke-width="1.25" stroke-linecap="round" stroke-linejoin="round" stroke-opacity="0.5" d="
	M103.397,16.222l-0.342-0.443l-2.541-3.291l-0.106-0.137l-0.114-0.15l-0.221-0.284l-0.298-0.104l-2.793-0.976"/>
<path fill="#2AAAE2" stroke="#2E368F" stroke-width="1.25" stroke-linecap="round" stroke-linejoin="round" stroke-opacity="0.5" d="
	M12.956,18.32l-3.538,5.854"/>
<path fill="#2AAAE2" stroke="#2E368F" stroke-width="1.25" stroke-linecap="round" stroke-linejoin="round" stroke-opacity="0.5" d="
	M160.023,67.492l-0.812-3.818l-0.297-1.397l-0.564-1.672l-0.745-1.624l-0.524-1.143l-0.088-0.103"/>
<path fill="#2AAAE2" stroke="#2E368F" stroke-width="1.25" stroke-linecap="round" stroke-linejoin="round" stroke-opacity="0.5" d="
	M155.311,81.988l0.034-0.082l0.104-0.48l0.408-1.86l0.131-0.597l0.026-0.118"/>
<path fill="#2AAAE2" stroke="#2E368F" stroke-width="1.25" stroke-linecap="round" stroke-linejoin="round" stroke-opacity="0.5" d="
	M147.531,101.367l0.475-1.016l0.545-1.168l0.663-1.422l1.835-3.934l0.145-0.312l0.07-0.151l0.166-0.355l0.037-0.139l1.22-4.67
	l2.095-4.961"/>
<path fill="#2AAAE2" stroke="#2E368F" stroke-width="1.25" stroke-linecap="round" stroke-linejoin="round" stroke-opacity="0.5" d="
	M62.626,126.979l1.006-0.741"/>
<path fill="#2AAAE2" stroke="#2E368F" stroke-width="1.25" stroke-linecap="round" stroke-linejoin="round" stroke-opacity="0.5" d="
	M4.809,78.897l0.011,0.575"/>
<path fill="#2AAAE2" stroke="#2E368F" stroke-width="1.25" stroke-linecap="round" stroke-linejoin="round" stroke-opacity="0.5" d="
	M155.858,79.565l2.585-3.094l1.274-4.369l-0.8-3.615"/>
<path fill="#2AAAE2" stroke="#2E368F" stroke-width="1.25" stroke-linecap="round" stroke-linejoin="round" stroke-opacity="0.5" d="
	M157.605,58.981l-0.474-2.88"/>
<path fill="#2AAAE2" stroke="#2E368F" stroke-width="1.25" stroke-linecap="round" stroke-linejoin="round" stroke-opacity="0.5" d="
	M106.371,17.927l-1.358-1.87l-3.868-5.319l-5.274-0.735"/>
<path fill="#2AAAE2" stroke="#2E368F" stroke-width="1.25" stroke-linecap="round" stroke-linejoin="round" stroke-opacity="0.5" d="
	M151.466,92.871l0.419-0.717l0.801-3.953"/>
<path fill="#2AAAE2" stroke="#2E368F" stroke-width="1.25" stroke-linecap="round" stroke-linejoin="round" stroke-opacity="0.5" d="
	M86.739,140.102l9.036-2.922"/>
<path fill="#2AAAE2" stroke="#2E368F" stroke-width="1.25" stroke-linecap="round" stroke-linejoin="round" stroke-opacity="0.5" d="
	M97.078,138.802l4.104-1.125l5.451-2.26"/>
<path fill="#2AAAE2" stroke="#2E368F" stroke-width="1.25" stroke-linecap="round" stroke-linejoin="round" stroke-opacity="0.5" d="
	M155.45,81.425l2.522-2.098l2.079-3.355l2.723-5.528l-3.563-6.77"/>
<path fill="#2AAAE2" stroke="#2E368F" stroke-width="1.25" stroke-linecap="round" stroke-linejoin="round" stroke-opacity="0.5" d="
	M24.803,128.039l2.461,0.985"/>
<path fill="#2AAAE2" stroke="#2E368F" stroke-width="1.25" stroke-linecap="round" stroke-linejoin="round" stroke-opacity="0.5" d="
	M130.884,124.967l5.769-1.745l0.205-0.063l4.744-4.369l4.445-6.135l0.153-0.388l0.229-0.567l0.061-0.153l0.06-0.144l0.938-2.346
	l0.203-4.253l0.373-1.724l0.654-3.021l0.102-0.473l0.246-1.139l0.149-0.688"/>
<path fill="#2AAAE2" stroke="#2E368F" stroke-width="1.25" stroke-linecap="round" stroke-linejoin="round" stroke-opacity="0.5" d="
	M95.308,139.783l6.982-0.611l0.975-0.086l0.563-0.049"/>
<path fill="#2AAAE2" stroke="#2E368F" stroke-width="1.25" stroke-linecap="round" stroke-linejoin="round" stroke-opacity="0.5" d="
	M20.769,127.003l1.017,2.377l7.988,3.414l7.505,0.753l4.316,0.737l1.881,0.321l3.62,0.628"/>
<path fill="#2AAAE2" stroke="#2E368F" stroke-width="1.25" stroke-linecap="round" stroke-linejoin="round" stroke-opacity="0.5" d="
	M146.047,112.656l4.202-5.285l-1.353-6.346l-0.047-0.251l-0.135-0.714"/>
<path fill="#2AAAE2" stroke="#2E368F" stroke-width="1.25" stroke-linecap="round" stroke-linejoin="round" stroke-opacity="0.5" d="
	M55.652,140.707l0.205,0.121l5.729,3.435l10.802,2.036l5.983-0.199l1.726-0.059l6.753-2.338"/>
<path fill="#2AAAE2" stroke="#2E368F" stroke-width="1.25" stroke-linecap="round" stroke-linejoin="round" stroke-opacity="0.5" d="
	M102.29,139.171l2.851,0.344l0.534,0.064l0.814,0.1l1.989,0.24l6.086,0.691l8.222-2.193l4.209-6.836l0.082-0.135l0.23-0.201
	l3.908-3.455l5.016-3.83l0.421-0.738"/>
<path fill="#2AAAE2" stroke="#2E368F" stroke-width="1.25" stroke-linecap="round" stroke-linejoin="round" stroke-opacity="0.5" d="
	M101.21,141.031l4.464-1.451"/>
<path fill="#2AAAE2" stroke="#2E368F" stroke-width="1.25" stroke-linecap="round" stroke-linejoin="round" stroke-opacity="0.5" d="
	M148.851,100.774l-0.033-1.187"/>
<path fill="#2AAAE2" stroke="#2E368F" stroke-width="1.25" stroke-linecap="round" stroke-linejoin="round" stroke-opacity="0.5" d="
	M41.595,134.285l3.726,2.582l4.81,2.241l5.729,1.72"/>
<path fill="#2AAAE2" stroke="#2E368F" stroke-width="1.25" stroke-linecap="round" stroke-linejoin="round" stroke-opacity="0.5" d="
	M114.926,20.258l-6.112-3.662l-3.802-0.539"/>
<path fill="#2AAAE2" stroke="#2E368F" stroke-width="1.25" stroke-linecap="round" stroke-linejoin="round" stroke-opacity="0.5" d="
	M149.063,98.449l2.127-4.01l0.002-0.923"/>
<path fill="#2AAAE2" stroke="#2E368F" stroke-width="1.25" stroke-linecap="round" stroke-linejoin="round" stroke-opacity="0.5" d="
	M151.19,94.439l0.072-1.074"/>
<path fill="#2AAAE2" stroke="#2E368F" stroke-width="1.25" stroke-linecap="round" stroke-linejoin="round" stroke-opacity="0.5" d="
	M126.995,131.582l0.313-0.336"/>
<path fill="#2AAAE2" stroke="#2E368F" stroke-width="1.25" stroke-linecap="round" stroke-linejoin="round" stroke-opacity="0.5" d="
	M78.372,146.099l5.908,1.615l8.256-2.236l9.823,1.314l4.13-7.113"/>
</svg>
