<?xml version="1.0" encoding="utf-8"?>
<!-- Generator: Adobe Illustrator 16.0.0, SVG Export Plug-In . SVG Version: 6.00 Build 0)  -->
<!DOCTYPE svg PUBLIC "-//W3C//DTD SVG 1.1//EN" "http://www.w3.org/Graphics/SVG/1.1/DTD/svg11.dtd">
<svg version="1.1" id="Layer_1" xmlns="http://www.w3.org/2000/svg" xmlns:xlink="http://www.w3.org/1999/xlink" x="0px" y="0px"
	 width="199.516px" height="167.22px" viewBox="0 0 199.516 167.22" enable-background="new 0 0 199.516 167.22"
	 xml:space="preserve">
<path fill="#2AAAE2" stroke="#2E368F" stroke-miterlimit="10" d="M169.185,156.54l1.431-2.154l0.777-1.436l1.307-1.791l1.084-0.661
	l1.984-1.424l2.525-1.769l0.865-1.111l0.638-0.534l2.738-2.848l2.719-2.587l1.462-4.057l0.66-4.313l0.748-6.243l1.813-3.691
	l1.789-2.722l1.128-3.286l0.996-0.939l2.065-2.049l0.795-2.658l2.181-3.793l-2.146-4.346l-1.675-3.977l-1.631-3.346l-2.731-2.623
	l-1.938-1.5l-1.106-1.647l-0.257-0.161l-0.158-0.295l-2.412-3.66l-2.631-4.89l-1.38-2.403l-4.913-3.948l-2.499-3.007l-1.282-2.002
	l-0.451-0.31l-0.16-0.073l-1.366-1.73l-0.994-1.076l-3.549-5.203l-5.693-2.031l-4.825-3.719l-0.267-0.242l-0.265-0.297l-0.127-0.06
	l-3.992-3.642l-3.119-1.005l-2.749-3.675l-2.378-0.362l-4.539-3.108l-2.251-0.833l-5.555-4.798l-5.417-3.047l-1.029-1.234
	l-0.41-2.073l-4.378-7.384l-5.221-1.701l-2.974-1.882l-3.922-0.664l-3.884-5.674l-6.146-2.032l-2.222-1.211l-2.632-2.234
	l-3.169-1.262l-2.91-2.123l-4.889-2.483l-6.495-0.876l-7.061,0.809l-4.548,0.939l-1.366,0.911L58.84,3.423l-2.757,0.441L54.65,3.866
	l-4.705,2.422L45.851,9.43l-0.374,0.236l-3.854,1.766l-6.259,0.739l-3.775,3.313l-2.015,4.857L27.6,25.022l-0.446,5.086
	l-1.957,4.439l-1.547,3.675l-0.363,0.733l-2.32,4.246l-0.734,1.908l-1.822,2.178l-4.096,2.665l-1.553,4.36l-0.037,1.424l-4.179,1.46
	l-3.443,3.658l2.94,5.9l0.055,0.697l-3.67,3.445l-2.554,4.332l1.017,5.203L2.784,85.12L1.56,90.138l-0.937,5.17l1.316,5.19
	l0.245,4.858l1.067,5.133l-0.318,6.428l1.852,2.551l1.753,3.932l1.78,0.938l9.234,0.857l7.535,1.554l6.954,4.302l5.024,1.536
	l8.684,2.675l3.577,1.022l1.03,0.467l1.155,1.298l1.117,2.666l0.64,4.353l5.104,2.6l5.233,4.123l1.662,2.086l5.149,2.257
	l2.188-0.354l3.5,0.651l2.548,0.588l3.226,2.135l7.008-1.833l3.374-0.425l8.436,0.502l9.327-1.631l9.151-0.182l4.278,0.078
	l5.229,0.669l2.735,0.493l5.592,2.572l6.997,3.696l7.153,3.501l5.402-0.213l3.03-1.873l2.685-0.727l1.981-2.146l1.775-2.34
	L169.185,156.54z"/>
<path fill="#2AAAE2" stroke="#2E368F" stroke-width="1.25" stroke-linecap="round" stroke-linejoin="round" stroke-opacity="0.5" d="
	M8.287,67.274l-0.188,0.178l-3.67,3.445l-2.554,4.332l1.017,5.203l-0.105,4.689l-1.225,5.017l-0.937,5.17l1.316,5.191l0.245,4.858
	l1.068,5.133l-0.319,6.429l1.852,2.551"/>
<path fill="#2AAAE2" stroke="#2E368F" stroke-width="1.25" stroke-linecap="round" stroke-linejoin="round" stroke-opacity="0.5" d="
	M5.103,60.855l4.679,1.173"/>
<path fill="#2AAAE2" stroke="#2E368F" stroke-width="1.25" stroke-linecap="round" stroke-linejoin="round" stroke-opacity="0.5" d="
	M56.084,3.865L54.65,3.867l-4.705,2.422l-4.095,3.142l-0.374,0.236l-2.036,1.287l-0.155,0.098l-1.21,0.765"/>
<path fill="#2AAAE2" stroke="#2E368F" stroke-width="1.25" stroke-linecap="round" stroke-linejoin="round" stroke-opacity="0.5" d="
	M72.739,5.808l-1.138-0.741l-0.215-0.139l-1.763-0.64l-2.519-0.916L62.78,3.189l-1.604,0.096L58.84,3.424l-2.757,0.441l-1.685,0.27"
	/>
<path fill="#2AAAE2" stroke="#2E368F" stroke-width="1.25" stroke-linecap="round" stroke-linejoin="round" stroke-opacity="0.5" d="
	M3.204,115.921l1.583,3.549L6.54,123.4l1.78,0.938l9.234,0.856l7.536,1.554l6.954,4.301l5.023,1.537l8.685,2.674l3.576,1.023
	l1.03,0.467l0.755,0.342l0.277,0.127l7.341,3.326l9.044,3.881l1.707-0.858l0.613-0.308l3.364-1.693l0.865-0.436l0.01-0.004
	l0.549-0.277l1.456-0.731l0.168-0.085"/>
<path fill="#2AAAE2" stroke="#2E368F" stroke-width="1.25" stroke-linecap="round" stroke-linejoin="round" stroke-opacity="0.5" d="
	M14.061,55.271l-1.336,0.467l-4.178,1.46l-3.444,3.658l2.941,5.9l0.054,0.697"/>
<path fill="#2AAAE2" stroke="#2E368F" stroke-width="1.25" stroke-linecap="round" stroke-linejoin="round" stroke-opacity="0.5" d="
	M45.478,9.667l-3.853,1.766L41.13,11.66"/>
<path fill="#2AAAE2" stroke="#2E368F" stroke-width="1.25" stroke-linecap="round" stroke-linejoin="round" stroke-opacity="0.5" d="
	M41.625,11.433l-6.259,0.739l-3.775,3.313l-2.015,4.857l-1.975,4.681l-0.446,5.086l-1.957,4.439l-1.547,3.675l-0.33,0.784"/>
<path fill="#2AAAE2" stroke="#2E368F" stroke-width="1.25" stroke-linecap="round" stroke-linejoin="round" stroke-opacity="0.5" d="
	M144.181,62.663l-0.687-3.336l-0.301-1.468l-0.205-1l-1.016-4.955l-3.641-7.133l-0.063-0.124l-0.79-1.548l-2.079-1.796l-5.555-4.798
	l-5.417-3.047l-0.884-0.497l-0.368-0.208l-1.977-1.11l-3.222-1.304l-0.028-0.011l-5.957-2.411l-4.141-7.417l-0.293-0.426
	l-0.061-0.09l-1.005-1.464l-3.884-5.674l-6.146-2.032l-2.222-1.211L90.241,7.42l-0.262-0.143"/>
<path fill="#2AAAE2" stroke="#2E368F" stroke-width="1.25" stroke-linecap="round" stroke-linejoin="round" stroke-opacity="0.5" d="
	M23.651,38.223l-0.363,0.733l-2.32,4.246l-0.734,1.908l-1.021,2.654"/>
<path fill="#2AAAE2" stroke="#2E368F" stroke-width="1.25" stroke-linecap="round" stroke-linejoin="round" stroke-opacity="0.5" d="
	M144.893,62.448l-1.698-4.589"/>
<path fill="#2AAAE2" stroke="#2E368F" stroke-width="1.25" stroke-linecap="round" stroke-linejoin="round" stroke-opacity="0.5" d="
	M76.342,140.119l0.8,0.004l12.287,1.066l10.04-5.101"/>
<path fill="#2AAAE2" stroke="#2E368F" stroke-width="1.25" stroke-linecap="round" stroke-linejoin="round" stroke-opacity="0.5" d="
	M99.869,136.185l7.084-2.073l1.78-0.521l1.056-0.309l0.969-0.381l1.427-0.563l7.261-2.863l10.132,0.795l9.682-1.776l9.859-2.026"/>
<path fill="#2AAAE2" stroke="#2E368F" stroke-width="1.25" stroke-linecap="round" stroke-linejoin="round" stroke-opacity="0.5" d="
	M20.232,45.11l-1.822,2.178l-4.096,2.665l-1.553,4.36l-0.037,1.424"/>
<path fill="#2AAAE2" stroke="#2E368F" stroke-width="1.25" stroke-linecap="round" stroke-linejoin="round" stroke-opacity="0.5" d="
	M76.726,5.217l-1.83-0.375l-5.271-0.554"/>
<path fill="#2AAAE2" stroke="#2E368F" stroke-width="1.25" stroke-linecap="round" stroke-linejoin="round" stroke-opacity="0.5" d="
	M167.474,125.365l0.317-1.739l0.013-0.066l0.061-0.329l0.74-4.044l0.162-1.018l0.632-3.951"/>
<path fill="#2AAAE2" stroke="#2E368F" stroke-width="1.25" stroke-linecap="round" stroke-linejoin="round" stroke-opacity="0.5" d="
	M156.945,78.021l-1.179-3.792l-0.652-2.097l-0.301-0.967l-0.437-1.407l-0.365-1.174l-7.861-6.794l-3.161-4.931"/>
<path fill="#2AAAE2" stroke="#2E368F" stroke-width="1.25" stroke-linecap="round" stroke-linejoin="round" stroke-opacity="0.5" d="
	M110.757,132.901l9.052-1.409"/>
<path fill="#2AAAE2" stroke="#2E368F" stroke-width="1.25" stroke-linecap="round" stroke-linejoin="round" stroke-opacity="0.5" d="
	M100.325,137.587l8.408-3.996"/>
<path fill="#2AAAE2" stroke="#2E368F" stroke-width="1.25" stroke-linecap="round" stroke-linejoin="round" stroke-opacity="0.5" d="
	M73.463,141.567l1.966,0.25l0.017,0.003l3.776,0.481"/>
<path fill="#2AAAE2" stroke="#2E368F" stroke-width="1.25" stroke-linecap="round" stroke-linejoin="round" stroke-opacity="0.5" d="
	M159.91,74.972l-3.499-3.296l-2.033-1.918"/>
<path fill="#2AAAE2" stroke="#2E368F" stroke-width="1.25" stroke-linecap="round" stroke-linejoin="round" stroke-opacity="0.5" d="
	M90.245,7.42l-1.8-1.313l-2.91-2.123l-4.889-2.483l-6.495-0.876l-7.061,0.809l-4.548,0.939l-1.366,0.911"/>
<path fill="#2AAAE2" stroke="#2E368F" stroke-width="1.25" stroke-linecap="round" stroke-linejoin="round" stroke-opacity="0.5" d="
	M166.69,128.484l1.93-3.287l1.583-4.901l0.26-0.584l0.083-0.187l0.522-1.187l0.609-1.379"/>
<path fill="#2AAAE2" stroke="#2E368F" stroke-width="1.25" stroke-linecap="round" stroke-linejoin="round" stroke-opacity="0.5" d="
	M138.102,137.253l8.4,1.986l8.844-2.207"/>
<path fill="#2AAAE2" stroke="#2E368F" stroke-width="1.25" stroke-linecap="round" stroke-linejoin="round" stroke-opacity="0.5" d="
	M75.429,141.817l4.542,2.833"/>
<path fill="#2AAAE2" stroke="#2E368F" stroke-width="1.25" stroke-linecap="round" stroke-linejoin="round" stroke-opacity="0.5" d="
	M171.238,86.351l-2.588-4.2l-0.639-1.037l-1.241-2.013l-6.173-6.086l-4.188-1.338"/>
<path fill="#2AAAE2" stroke="#2E368F" stroke-width="1.25" stroke-linecap="round" stroke-linejoin="round" stroke-opacity="0.5" d="
	M170.462,119.712l1.094-1.176l0.676-0.727"/>
<path fill="#2AAAE2" stroke="#2E368F" stroke-width="1.25" stroke-linecap="round" stroke-linejoin="round" stroke-opacity="0.5" d="
	M171.858,84.628l-3.847-3.515"/>
<path fill="#2AAAE2" stroke="#2E368F" stroke-width="1.25" stroke-linecap="round" stroke-linejoin="round" stroke-opacity="0.5" d="
	M160.621,140.169l3.475-3.582l0.454-1.379"/>
<path fill="#2AAAE2" stroke="#2E368F" stroke-width="1.25" stroke-linecap="round" stroke-linejoin="round" stroke-opacity="0.5" d="
	M117.981,30.339l-0.075-0.187"/>
<path fill="#2AAAE2" stroke="#2E368F" stroke-width="1.25" stroke-linecap="round" stroke-linejoin="round" stroke-opacity="0.5" d="
	M183.383,94.204l-1.115-1.033l-3.6-3.971l-6.511-5.797"/>
<path fill="#2AAAE2" stroke="#2E368F" stroke-width="1.25" stroke-linecap="round" stroke-linejoin="round" stroke-opacity="0.5" d="
	M69.484,143.568l5.229,2.872"/>
<path fill="#2AAAE2" stroke="#2E368F" stroke-width="1.25" stroke-linecap="round" stroke-linejoin="round" stroke-opacity="0.5" d="
	M107.939,20.152l-0.438-0.168"/>
<path fill="#2AAAE2" stroke="#2E368F" stroke-width="1.25" stroke-linecap="round" stroke-linejoin="round" stroke-opacity="0.5" d="
	M94.246,9.604l-2.632-2.234l-3.169-1.262"/>
<path fill="#2AAAE2" stroke="#2E368F" stroke-width="1.25" stroke-linecap="round" stroke-linejoin="round" stroke-opacity="0.5" d="
	M165.094,141.505l1.348-1.322l-0.053-4.403"/>
<path fill="#2AAAE2" stroke="#2E368F" stroke-width="1.25" stroke-linecap="round" stroke-linejoin="round" stroke-opacity="0.5" d="
	M167.261,139.056l1.698-2.168l1.9-2.971l-0.688-4.646"/>
<path fill="#2AAAE2" stroke="#2E368F" stroke-width="1.25" stroke-linecap="round" stroke-linejoin="round" stroke-opacity="0.5" d="
	M116.698,23.16l-3.306-2.094l-2.973-1.882l-3.923-0.664"/>
<path fill="#2AAAE2" stroke="#2E368F" stroke-width="1.25" stroke-linecap="round" stroke-linejoin="round" stroke-opacity="0.5" d="
	M179.744,113.58l4.993-1.424l1.671-2.662l2.074-2.334"/>
<path fill="#2AAAE2" stroke="#2E368F" stroke-width="1.25" stroke-linecap="round" stroke-linejoin="round" stroke-opacity="0.5" d="
	M186.389,108.732l1.561-3.22l0.426-1.489l0.197-1.318"/>
<path fill="#2AAAE2" stroke="#2E368F" stroke-width="1.25" stroke-linecap="round" stroke-linejoin="round" stroke-opacity="0.5" d="
	M123.547,32.961l-0.146-0.737l-0.41-2.073l-4.378-7.384l-5.221-1.701"/>
<path fill="#2AAAE2" stroke="#2E368F" stroke-width="1.25" stroke-linecap="round" stroke-linejoin="round" stroke-opacity="0.5" d="
	M75.903,155.194l0.063,0.04l2.693,1.784l3.227,2.134l7.007-1.833l1.946-0.51l1.428,0.086l8.436,0.502l9.327-1.633l9.151-0.18
	l4.278,0.077l4.647,0.086h0.016"/>
<path fill="#2AAAE2" stroke="#2E368F" stroke-width="1.25" stroke-linecap="round" stroke-linejoin="round" stroke-opacity="0.5" d="
	M156.025,64.293l-5.617-5.334l-6.053-4.175"/>
<path fill="#2AAAE2" stroke="#2E368F" stroke-width="1.25" stroke-linecap="round" stroke-linejoin="round" stroke-opacity="0.5" d="
	M184.65,87.284l-0.272-0.313l-2.082-2.379l-1.431-1.365l-0.099-0.094l-0.229-0.22l-1.398-1.339l-0.201-0.147l-6.202-4.562"/>
<path fill="#2AAAE2" stroke="#2E368F" stroke-width="1.25" stroke-linecap="round" stroke-linejoin="round" stroke-opacity="0.5" d="
	M88.892,157.319l3.374-0.424"/>
<path fill="#2AAAE2" stroke="#2E368F" stroke-width="1.25" stroke-linecap="round" stroke-linejoin="round" stroke-opacity="0.5" d="
	M124.431,33.458l-1.029-1.234"/>
<path fill="#2AAAE2" stroke="#2E368F" stroke-width="1.25" stroke-linecap="round" stroke-linejoin="round" stroke-opacity="0.5" d="
	M123.459,155.662l5.229,0.669l2.736,0.493l5.35,0.964"/>
<path fill="#2AAAE2" stroke="#2E368F" stroke-width="1.25" stroke-linecap="round" stroke-linejoin="round" stroke-opacity="0.5" d="
	M190.907,94.671l-1.428-2.928l-0.712-1.061l-1.106-1.647l-0.257-0.161l-0.049-0.031l-0.038-0.023l-2.94-1.848"/>
<path fill="#2AAAE2" stroke="#2E368F" stroke-width="1.25" stroke-linecap="round" stroke-linejoin="round" stroke-opacity="0.5" d="
	M180.537,82.913l-3.48-4.191"/>
<path fill="#2AAAE2" stroke="#2E368F" stroke-width="1.25" stroke-linecap="round" stroke-linejoin="round" stroke-opacity="0.5" d="
	M162.337,67.409l-5.179-5.001l-3.896-6.845l-7.733-1.799l-4.903-5.176"/>
<path fill="#2AAAE2" stroke="#2E368F" stroke-width="1.25" stroke-linecap="round" stroke-linejoin="round" stroke-opacity="0.5" d="
	M69.881,155.271l2.729,0.508l3.5,0.65l2.548,0.59"/>
<path fill="#2AAAE2" stroke="#2E368F" stroke-width="1.25" stroke-linecap="round" stroke-linejoin="round" stroke-opacity="0.5" d="
	M50.36,136.751l1.155,1.297l0.871,0.978l0.176,0.198l0.332,0.373"/>
<path fill="#2AAAE2" stroke="#2E368F" stroke-width="1.25" stroke-linecap="round" stroke-linejoin="round" stroke-opacity="0.5" d="
	M131.424,156.824l5.591,2.573l6.997,3.696l7.154,3.501l5.401-0.214l3.03-1.872l2.685-0.728l1.981-2.147l1.775-2.338l3.145-2.757
	l1.431-2.155l0.777-1.435l0.803-1.483l0.021-0.037l0.042-0.076"/>
<path fill="#2AAAE2" stroke="#2E368F" stroke-width="1.25" stroke-linecap="round" stroke-linejoin="round" stroke-opacity="0.5" d="
	M51.516,138.048l1.118,2.666l0.729,1.736"/>
<path fill="#2AAAE2" stroke="#2E368F" stroke-width="1.25" stroke-linecap="round" stroke-linejoin="round" stroke-opacity="0.5" d="
	M192.854,115.913l0.996-0.939l2.065-2.049l0.796-2.658l2.18-3.793l-2.146-4.346l-1.675-3.977l-1.631-3.346l-2.731-2.623l-1.938-1.5"
	/>
<path fill="#2AAAE2" stroke="#2E368F" stroke-width="1.25" stroke-linecap="round" stroke-linejoin="round" stroke-opacity="0.5" d="
	M143.377,46.054l-1.186-0.81l-4.539-3.108l-2.251-0.833"/>
<path fill="#2AAAE2" stroke="#2E368F" stroke-width="1.25" stroke-linecap="round" stroke-linejoin="round" stroke-opacity="0.5" d="
	M168.354,68.082l-4.786-4.452l-4.51-4.594l-4.235-4.751l-0.265-0.297l-0.127-0.06l-5.643-2.682l-1.47-1.965l-2.749-3.675
	l-2.378-0.362"/>
<path fill="#2AAAE2" stroke="#2E368F" stroke-width="1.25" stroke-linecap="round" stroke-linejoin="round" stroke-opacity="0.5" d="
	M180.244,78.665l-1.89-1.957l-3.746-4.168l-1.197-1.869l-1.281-2.002"/>
<path fill="#2AAAE2" stroke="#2E368F" stroke-width="1.25" stroke-linecap="round" stroke-linejoin="round" stroke-opacity="0.5" d="
	M172.195,151.468l0.504-0.309l1.084-0.661l1.984-1.424l2.525-1.769l0.865-1.111l1.047-1.342"/>
<path fill="#2AAAE2" stroke="#2E368F" stroke-width="1.25" stroke-linecap="round" stroke-linejoin="round" stroke-opacity="0.5" d="
	M52.634,140.714l0.639,4.354l5.104,2.6l5.232,4.123l0.903,0.711"/>
<path fill="#2AAAE2" stroke="#2E368F" stroke-width="1.25" stroke-linecap="round" stroke-linejoin="round" stroke-opacity="0.5" d="
	M187.355,88.843l-0.109-0.264l0.158,0.295"/>
<path fill="#2AAAE2" stroke="#2E368F" stroke-width="1.25" stroke-linecap="round" stroke-linejoin="round" stroke-opacity="0.5" d="
	M170.986,68.044l0.53,0.242l0.16,0.073l0.452,0.31l-0.393-0.214l-0.03-0.017l-0.122-0.067L170.986,68.044l-3.303-1.806l-2.076-5.961
	"/>
<path fill="#2AAAE2" stroke="#2E368F" stroke-width="1.25" stroke-linecap="round" stroke-linejoin="round" stroke-opacity="0.5" d="
	M63.61,151.79l1.662,2.086l5.15,2.258l2.188-0.355"/>
<path fill="#2AAAE2" stroke="#2E368F" stroke-width="1.25" stroke-linecap="round" stroke-linejoin="round" stroke-opacity="0.5" d="
	M187.246,88.579l-2.411-3.66l-1.183-1.792"/>
<path fill="#2AAAE2" stroke="#2E368F" stroke-width="1.25" stroke-linecap="round" stroke-linejoin="round" stroke-opacity="0.5" d="
	M179.159,146.194l0.638-0.534l2.738-2.848l2.719-2.587l1.462-4.057l0.659-4.313l0.748-6.243l1.813-3.691l1.789-2.722l1.128-3.286
	l0.098-0.285"/>
<path fill="#2AAAE2" stroke="#2E368F" stroke-width="1.25" stroke-linecap="round" stroke-linejoin="round" stroke-opacity="0.5" d="
	M184.834,84.919l-2.632-4.89l-1.38-2.403l-4.913-3.948l-2.499-3.007"/>
<path fill="#2AAAE2" stroke="#2E368F" stroke-width="1.25" stroke-linecap="round" stroke-linejoin="round" stroke-opacity="0.5" d="
	M154.431,53.928l-3.992-3.642l-3.119-1.005"/>
<path fill="#2AAAE2" stroke="#2E368F" stroke-width="1.25" stroke-linecap="round" stroke-linejoin="round" stroke-opacity="0.5" d="
	M171.517,68.286l-1.366-1.73l-0.994-1.076l-3.549-5.203l-5.693-2.031l-4.825-3.719l-0.267-0.242"/>
<path fill="#2AAAE2" stroke="#2E368F" stroke-width="1.25" stroke-linecap="round" stroke-linejoin="round" stroke-opacity="0.5" d="
	M171.393,152.95l1.307-1.791"/>
</svg>
