<?xml version="1.0" encoding="utf-8"?>
<!-- Generator: Adobe Illustrator 16.0.0, SVG Export Plug-In . SVG Version: 6.00 Build 0)  -->
<!DOCTYPE svg PUBLIC "-//W3C//DTD SVG 1.1//EN" "http://www.w3.org/Graphics/SVG/1.1/DTD/svg11.dtd">
<svg version="1.1" id="Layer_1" xmlns="http://www.w3.org/2000/svg" xmlns:xlink="http://www.w3.org/1999/xlink" x="0px" y="0px"
	 width="204.138px" height="194.524px" viewBox="0 0 204.138 194.524" enable-background="new 0 0 204.138 194.524"
	 xml:space="preserve">
<path fill="#2AAAE2" stroke="#2E368F" stroke-miterlimit="10" d="M5.758,128.664l2.411,0.79l1.174,2.991l2.249,4.484l2.689,3.99
	l2.547,4.551l0.414,0.311l0.998,1.862l-1.324,7.688l1.548,2.455l4.34,2.412l1.382,1.203l1.071,2.261l4.585,1.959l3.788-0.229
	l0.772,0.193l-0.489,3.051l3.542-0.818l1.967,2.381l2.998,1.046l1.541,2.479l4.627,1.564l2.227-0.188l1.097,1.665l5.572,0.483
	l1.773,0.768l1.127,0.584l1.138,0.574l3.826,1.63l0.162-0.011l3.896,1.941l2.849,0.386l1.811,1.551l5.22,2.711l2.658-0.543
	l1.674,1.461l1.877,2.271l5.006-0.285l0.25,0.233l1.663,0.181l3.159,0.771l1.339-0.094l4.161,0.361l2.731,1.609l2.979-0.852
	l1.109,0.197l2.031,1.201l2.146-1.388l6.054-1.157l1.313-0.497l0.184-0.028l2.709-1.066l3.012-1.143l7.86-1.485l4.705-1.659
	l10.252-3.38l3.981-4.322l8.053-9.163l2.21-4.435l7.95-2.007l3.396-1.843l3.722-5.054l-0.035-0.148l4.285-4.506l6.998-5.619
	l0.508-10.262l-1.281-10.233l6.433-8.46l1.64-9.474l0.965-9.985l3.98-9.627l2.553-10.111l-4.58-9.964l-0.604-10.382l-2.562-10.49
	l0.168-10.217l-3.238-9.949l-7.063-10.361l-8.692-3.89l-11.638-4.666l-4.903,1.519l-6.272-1.184l-7.498,1.932l-6.359,0.91
	l-9.711-4.813l-8.047-1.548l-4.785-0.676l-2.619-0.575l-0.4,0.149l-3.703-0.521l-5.07-1.496L96.921,2.59l-5.442,1.205L84.06,3.091
	l-1.616,0.452l-3.881,2.365l-2.442,0.774L68.22,6.559l-8.356,2.171l-8.468,2.036l-10.585,1.615l-1.298,0.899l-4.028,6.74
	l-0.218,0.362l-1.337,0.758l-0.264,1.865l-0.27,1.091l-2.058,3.453l-0.323,0.027l-0.1,0.196l-2.337-0.085l-0.255,0.931l-2.256-0.017
	l1.547,2.539l-1.043,2.041l-1.049,1.992l-3.153,3.049l-0.405,1.645l0.128,0.795l-2.684,5.223l-0.429,2.307l0.107,3.481l-0.157,0.689
	l-0.273,0.702l-0.227,1.494l0.472,3.006l-0.437,1.308l-0.134,1.646l-1.256,2.879l-0.382,2.765l-1.615,3.837l-0.385,3.232
	l-0.008,0.021l-0.917,1.253l-1.642,3.639l-3.671,4.48l0.357,1.578l-0.083,0.601l-3.806,2.972l0.716,3.105l1.199,0.699l-0.089,0.454
	l-0.023,1.597l1.483,4.328l-7.228,2.19l1.718,1.592l2.905,1.85l0.039,0.734l0.693,1.548l0.136,2.313l0.062,0.192l-0.323,1.001
	l1.123,1.954l-0.462,2.996l1.305,1.231l-0.992,2.743l-5.595,3.728l4.316,3.449L5.758,128.664z"/>
<path fill="#2AAAE2" stroke="#2E368F" stroke-width="1.25" stroke-linecap="round" stroke-linejoin="round" stroke-opacity="0.5" d="
	M27.872,89.973l-0.189,3.401l-0.34,6.116l0.087,1.271l0.592,8.663"/>
<path fill="#2AAAE2" stroke="#2E368F" stroke-width="1.25" stroke-linecap="round" stroke-linejoin="round" stroke-opacity="0.5" d="
	M28.822,42.327l-1.593,2.594l-0.266,0.432l-0.049,0.081l-0.029,0.047l-0.273,0.444l-1.655,2.696l-1.109,1.805l-0.364,2.275
	l-0.166,1.034l-0.041,0.26l-0.125,0.777l-0.359,2.242l-0.737,4.604l-0.061,0.383l-0.264,1.647l-0.336,3.7L20.78,78.365"/>
<path fill="#2AAAE2" stroke="#2E368F" stroke-width="1.25" stroke-linecap="round" stroke-linejoin="round" stroke-opacity="0.5" d="
	M30.774,34.596l-0.253,0.688l-0.076,0.206l-0.057,0.155l-0.007,0.021l-0.004,0.01l-2.778,7.562l-0.614,1.674l-0.373,1.015"/>
<path fill="#2AAAE2" stroke="#2E368F" stroke-width="1.25" stroke-linecap="round" stroke-linejoin="round" stroke-opacity="0.5" d="
	M24.492,116.228l1.182,1.458l5.845,5.506"/>
<path fill="#2AAAE2" stroke="#2E368F" stroke-width="1.25" stroke-linecap="round" stroke-linejoin="round" stroke-opacity="0.5" d="
	M20.973,64.975l-0.876,1.481l-0.287,0.483l-3.01,5.085l-1.058,1.788l-0.154,0.262l0,0l-0.373,0.631l-0.112,0.188L15.098,74.9
	l-0.342,0.579l0.203,1.572l0.067,0.516l0.013,0.104l0.023,0.183l0.134,1.037l0.359,2.781l0.336,2.599"/>
<path fill="#2AAAE2" stroke="#2E368F" stroke-width="1.25" stroke-linecap="round" stroke-linejoin="round" stroke-opacity="0.5" d="
	M14.937,107.303l5.085,6.606l1.068,1.417l5.226,4.449"/>
<path fill="#2AAAE2" stroke="#2E368F" stroke-width="1.25" stroke-linecap="round" stroke-linejoin="round" stroke-opacity="0.5" d="
	M38.989,18.069l-0.445,0.611l-0.599,0.822l-4.696,6.451h-0.001l-1.114,1.529l-0.237,0.326l-0.614,0.842l-0.027,0.037l-0.003,0.005
	l-0.697,0.957l-0.583,2.002l-0.105,0.361l-0.541,1.858l-0.015,0.055l-1.13,3.88"/>
<path fill="#2AAAE2" stroke="#2E368F" stroke-width="1.25" stroke-linecap="round" stroke-linejoin="round" stroke-opacity="0.5" d="
	M16.464,94.797l-1.289,3.674l-1.16,3.308"/>
<path fill="#2AAAE2" stroke="#2E368F" stroke-width="1.25" stroke-linecap="round" stroke-linejoin="round" stroke-opacity="0.5" d="
	M28.598,38.697l-0.972,2.321l-1.919,4.583l-1.502,3.589l-2.03,5.729l-0.013,0.038l-0.117,0.331"/>
<path fill="#2AAAE2" stroke="#2E368F" stroke-width="1.25" stroke-linecap="round" stroke-linejoin="round" stroke-opacity="0.5" d="
	M15.555,81.672l-0.54,1.734l-1.179,4.034l-0.225,0.771L12.2,91.591l-0.113,0.271l0.166,0.19l0.695,0.795l0.009,0.011l0.631,0.724
	l0.956,1.093"/>
<path fill="#2AAAE2" stroke="#2E368F" stroke-width="1.25" stroke-linecap="round" stroke-linejoin="round" stroke-opacity="0.5" d="
	M19.59,60.908l0.091-0.207l1.079-2.472l0.051-0.117l0.203-0.465l0.808-1.85l0.223-0.51l-0.049,0.294l-0.272,1.648l-0.299,1.819
	l-0.068,0.408l-1.547,7.479"/>
<path fill="#2AAAE2" stroke="#2E368F" stroke-width="1.25" stroke-linecap="round" stroke-linejoin="round" stroke-opacity="0.5" d="
	M13.495,98.808l0.053,3.078l-0.584,1.659l-0.404,1.146l-1.182,3.699l0.749,3.198l0.115,0.488l0.014,0.062l0.054,0.232l0.106,0.449"
	/>
<path fill="#2AAAE2" stroke="#2E368F" stroke-width="1.25" stroke-linecap="round" stroke-linejoin="round" stroke-opacity="0.5" d="
	M23.798,128.217l2.54,4.744l2.504,3.081"/>
<path fill="#2AAAE2" stroke="#2E368F" stroke-width="1.25" stroke-linecap="round" stroke-linejoin="round" stroke-opacity="0.5" d="
	M12.253,92.053l0.361,3.143l0.742,3.222l-1.943,2.921l1.551,2.208"/>
<path fill="#2AAAE2" stroke="#2E368F" stroke-width="1.25" stroke-linecap="round" stroke-linejoin="round" stroke-opacity="0.5" d="
	M35.485,20.025l-0.167,0.327l-1.036,2.038l-0.732,1.438l-0.001,0.002L33.513,23.9l-0.117,0.195l-2.058,3.453l-0.141,0.235
	l-0.509,0.854l-0.008,0.014l-0.953,1.601l-0.113,0.188l-0.005,0.011l-1.163,1.948l-0.032,0.057l-0.278,0.466l-1.088,6.061
	l-0.387,1.946l-0.227,1.142l-0.608,3.055l-0.119,0.479"/>
<path fill="#2AAAE2" stroke="#2E368F" stroke-width="1.25" stroke-linecap="round" stroke-linejoin="round" stroke-opacity="0.5" d="
	M12.31,112.371l-0.12,0.224l-0.01,0.019l-0.464,0.863l0.021,1.091l0.015,0.77l0.001,0.073l0.004,0.205v0.011l0.013,0.664l0.01,0.527
	l1.942,6.836l0.101,0.357l0.026,0.093l0.254,0.621l1,2.448"/>
<path fill="#2AAAE2" stroke="#2E368F" stroke-width="1.25" stroke-linecap="round" stroke-linejoin="round" stroke-opacity="0.5" d="
	M69,7.58l-8.865,1.73l-9.883,2.623"/>
<path fill="#2AAAE2" stroke="#2E368F" stroke-width="1.25" stroke-linecap="round" stroke-linejoin="round" stroke-opacity="0.5" d="
	M13.836,87.441l-1.722,3.401l0.086,0.748"/>
<path fill="#2AAAE2" stroke="#2E368F" stroke-width="1.25" stroke-linecap="round" stroke-linejoin="round" stroke-opacity="0.5" d="
	M76.121,6.687L68.22,6.563l-8.356,2.171l-8.468,2.036l-10.585,1.615l-1.298,0.9l-4.028,6.739l-0.218,0.358l-1.599,2.614
	l-0.002,0.009l-0.27,1.091"/>
<path fill="#2AAAE2" stroke="#2E368F" stroke-width="1.25" stroke-linecap="round" stroke-linejoin="round" stroke-opacity="0.5" d="
	M22.162,54.958l-0.024,0.024l-1.675,1.77l-0.909,0.961l-0.463,1.061l-0.761,1.744l-1.256,2.879l-0.382,2.765l-0.125,0.896
	l-0.027,0.196l-0.301,2.177l-0.023,0.163l-0.008,0.06l-0.065,0.472l-0.007,0.052l-0.07,0.501l-0.485,1.169L15.559,71.9l-0.053,0.126
	L15.41,72.26l-0.112,0.271l-0.086,0.205l-0.072,0.177l-0.498,1.198l-0.077,0.186l-0.156,0.376l-0.445,1.072l-0.197,0.365
	l-0.778,1.448l-1.632,3.033l-0.313,0.897l-0.72,2.068l-1.355,1.057l-0.055,0.043l-0.186,0.146l-3.806,2.972l0.716,3.105l1.199,0.7
	l0.252,0.146l0.007,0.004l0.028,0.018l0.113,0.064l2.632,1.538l1.04,0.607"/>
<path fill="#2AAAE2" stroke="#2E368F" stroke-width="1.25" stroke-linecap="round" stroke-linejoin="round" stroke-opacity="0.5" d="
	M22.175,54.92l-0.037,0.063"/>
<path fill="#2AAAE2" stroke="#2E368F" stroke-width="1.25" stroke-linecap="round" stroke-linejoin="round" stroke-opacity="0.5" d="
	M6.223,103.983l0.112,1.89l0.136,2.313l0.062,0.192l0.852,2.624l-0.052,0.332l-0.462,2.996l1.305,1.23l0.195,0.186l0.224,0.213
	l0.697,0.663l0.518,0.491l0.127,0.119l0.142,0.137l0.133,0.127l0.541,0.514l1.589,1.511"/>
<path fill="#2AAAE2" stroke="#2E368F" stroke-width="1.25" stroke-linecap="round" stroke-linejoin="round" stroke-opacity="0.5" d="
	M35.267,20.383l-1.337,0.758l-0.264,1.865"/>
<path fill="#2AAAE2" stroke="#2E368F" stroke-width="1.25" stroke-linecap="round" stroke-linejoin="round" stroke-opacity="0.5" d="
	M10.753,118.009l-0.043,1.986l-0.046,2.128l0.213,0.522l1.401,3.457l0.208,2.736l0.614,2.237"/>
<path fill="#2AAAE2" stroke="#2E368F" stroke-width="1.25" stroke-linecap="round" stroke-linejoin="round" stroke-opacity="0.5" d="
	M9.869,93.351l-0.564,2.948l-0.128,0.666l-0.142,0.741l-0.519,0.155l-0.073,0.022l-0.235,0.072l-7.228,2.19l1.718,1.592l2.905,1.85
	l0.62,0.395l0.091,0.06l1.546,0.982l0.642,0.41"/>
<path fill="#2AAAE2" stroke="#2E368F" stroke-width="1.25" stroke-linecap="round" stroke-linejoin="round" stroke-opacity="0.5" d="
	M91.447,3.805l-5.813,0.138L78.698,5.87l-0.135,0.043l-2.442,0.773l-6.067,1.926"/>
<path fill="#2AAAE2" stroke="#2E368F" stroke-width="1.25" stroke-linecap="round" stroke-linejoin="round" stroke-opacity="0.5" d="
	M15.555,71.582l-0.049,0.442"/>
<path fill="#2AAAE2" stroke="#2E368F" stroke-width="1.25" stroke-linecap="round" stroke-linejoin="round" stroke-opacity="0.5" d="
	M26.661,40.928l-1.718,3.305"/>
<path fill="#2AAAE2" stroke="#2E368F" stroke-width="1.25" stroke-linecap="round" stroke-linejoin="round" stroke-opacity="0.5" d="
	M7.958,128.916l0.211,0.538l1.174,2.991l2.249,4.484l2.689,3.99l2.547,4.551l0.414,0.311l1.009,0.756l2.663,1.994l0.075,0.056
	l0.003,0.003l0.657,0.492"/>
<path fill="#2AAAE2" stroke="#2E368F" stroke-width="1.25" stroke-linecap="round" stroke-linejoin="round" stroke-opacity="0.5" d="
	M5.603,103.589l0.039,0.735l0.693,1.548"/>
<path fill="#2AAAE2" stroke="#2E368F" stroke-width="1.25" stroke-linecap="round" stroke-linejoin="round" stroke-opacity="0.5" d="
	M16.239,69.431l-0.762,0.963l-0.091,1.083v0.002l-0.031,0.361l-0.046,0.557l-0.011,0.133"/>
<path fill="#2AAAE2" stroke="#2E368F" stroke-width="1.25" stroke-linecap="round" stroke-linejoin="round" stroke-opacity="0.5" d="
	M17.242,145.781l0.998,1.863l0.648,1.21l2.444,1.636l1.49,0.995l0.729,0.488l0.03,0.015l0.369,0.189l4.206,2.155"/>
<path fill="#2AAAE2" stroke="#2E368F" stroke-width="1.25" stroke-linecap="round" stroke-linejoin="round" stroke-opacity="0.5" d="
	M6.837,91.579l-0.089,0.454l-0.023,1.596l1.483,4.328"/>
<path fill="#2AAAE2" stroke="#2E368F" stroke-width="1.25" stroke-linecap="round" stroke-linejoin="round" stroke-opacity="0.5" d="
	M91.479,3.798L84.06,3.094l-1.616,0.452l-3.881,2.366"/>
<path fill="#2AAAE2" stroke="#2E368F" stroke-width="1.25" stroke-linecap="round" stroke-linejoin="round" stroke-opacity="0.5" d="
	M10.079,117.368l-0.071,0.118L8,120.877"/>
<path fill="#2AAAE2" stroke="#2E368F" stroke-width="1.25" stroke-linecap="round" stroke-linejoin="round" stroke-opacity="0.5" d="
	M54.345,174.281l0.638,0.356l0.178,0.1l3.439,1.926l2.51,1.403l0.221,0.044l6.611,1.317"/>
<path fill="#2AAAE2" stroke="#2E368F" stroke-width="1.25" stroke-linecap="round" stroke-linejoin="round" stroke-opacity="0.5" d="
	M16.692,66.16l-1.615,3.837l-0.385,3.232l-0.001,0.013l-0.057,0.471l-0.069,0.581"/>
<path fill="#2AAAE2" stroke="#2E368F" stroke-width="1.25" stroke-linecap="round" stroke-linejoin="round" stroke-opacity="0.5" d="
	M60.229,173.543l1.379,1.036l1.051,0.788l4.085,3.064l0.292,0.22l0.906,0.775l1.099,0.942l0.202,0.172l3.012,2.58l1.811,1.551
	l5.22,2.711l2.658-0.543l0.402-0.082l0.126-0.026l3.145-0.641l0.363-0.075l0.757-0.154l6.366,3.453l4.676,0.187"/>
<path fill="#2AAAE2" stroke="#2E368F" stroke-width="1.25" stroke-linecap="round" stroke-linejoin="round" stroke-opacity="0.5" d="
	M14.409,74.67l-0.96,1.865l-0.462,0.897l-1.274,2.476l-2.871,4.073l-0.031,0.22l-0.083,0.601"/>
<path fill="#2AAAE2" stroke="#2E368F" stroke-width="1.25" stroke-linecap="round" stroke-linejoin="round" stroke-opacity="0.5" d="
	M8.176,115.561l-0.992,2.743l-5.595,3.728l4.316,3.449l-0.147,3.185l2.411,0.79"/>
<path fill="#2AAAE2" stroke="#2E368F" stroke-width="1.25" stroke-linecap="round" stroke-linejoin="round" stroke-opacity="0.5" d="
	M79.844,186.9l1.831-0.295l0.48-0.077l0.107-0.017l2.984-0.48l0.559-0.09l0.664-0.105l1.146-0.186l6.925,1.597"/>
<path fill="#2AAAE2" stroke="#2E368F" stroke-width="1.25" stroke-linecap="round" stroke-linejoin="round" stroke-opacity="0.5" d="
	M100.979,181.321l9.365-4.313"/>
<path fill="#2AAAE2" stroke="#2E368F" stroke-width="1.25" stroke-linecap="round" stroke-linejoin="round" stroke-opacity="0.5" d="
	M123.901,171.339l-1.546-0.41l-6.117-1.625"/>
<path fill="#2AAAE2" stroke="#2E368F" stroke-width="1.25" stroke-linecap="round" stroke-linejoin="round" stroke-opacity="0.5" d="
	M19.918,49.822l-0.99,2.541l-0.273,0.702l-0.227,1.494l0.472,3.006l0.19,1.208"/>
<path fill="#2AAAE2" stroke="#2E368F" stroke-width="1.25" stroke-linecap="round" stroke-linejoin="round" stroke-opacity="0.5" d="
	M22.789,39.307l-0.697,1.355l-2.684,5.223l-0.429,2.307l0.107,3.481l-0.157,0.689"/>
<path fill="#2AAAE2" stroke="#2E368F" stroke-width="1.25" stroke-linecap="round" stroke-linejoin="round" stroke-opacity="0.5" d="
	M22.804,160.199l1.382,1.203l1.071,2.261l4.585,1.959l3.788-0.229l0.811-0.049l1.391-0.084l0.743-0.045"/>
<path fill="#2AAAE2" stroke="#2E368F" stroke-width="1.25" stroke-linecap="round" stroke-linejoin="round" stroke-opacity="0.5" d="
	M18.24,147.645l-1.324,7.688l1.548,2.455l4.34,2.411l3.767,2.095"/>
<path fill="#2AAAE2" stroke="#2E368F" stroke-width="1.25" stroke-linecap="round" stroke-linejoin="round" stroke-opacity="0.5" d="
	M31.197,27.785l-0.282-0.012l-2.337-0.085l-0.255,0.931l-0.672,2.449l-0.037,0.072l-1.043,2.041l-1.049,1.992l-3.153,3.049
	l-0.405,1.645l0.128,0.795"/>
<path fill="#2AAAE2" stroke="#2E368F" stroke-width="1.25" stroke-linecap="round" stroke-linejoin="round" stroke-opacity="0.5" d="
	M123.997,40.648l1.156-2.317l0.554-1.414"/>
<path fill="#2AAAE2" stroke="#2E368F" stroke-width="1.25" stroke-linecap="round" stroke-linejoin="round" stroke-opacity="0.5" d="
	M14.692,73.23l-0.008,0.021l-0.41,1.035"/>
<path fill="#2AAAE2" stroke="#2E368F" stroke-width="1.25" stroke-linecap="round" stroke-linejoin="round" stroke-opacity="0.5" d="
	M33.63,165.393l0.772,0.193l1.671,0.417l1.628,0.407l0.263,0.064l1.67,0.417"/>
<path fill="#2AAAE2" stroke="#2E368F" stroke-width="1.25" stroke-linecap="round" stroke-linejoin="round" stroke-opacity="0.5" d="
	M14.684,73.251l-0.917,1.253l-1.642,3.639l-3.671,4.48l0.357,1.578"/>
<path fill="#2AAAE2" stroke="#2E368F" stroke-width="1.25" stroke-linecap="round" stroke-linejoin="round" stroke-opacity="0.5" d="
	M120.753,171.557l3.147-0.218l2.88-2.148"/>
<path fill="#2AAAE2" stroke="#2E368F" stroke-width="1.25" stroke-linecap="round" stroke-linejoin="round" stroke-opacity="0.5" d="
	M37.964,166.476l0.227,0.288l0.558,0.706l0.052,0.037l1.943,1.37l0.249,0.175l0.118,0.083l1.309,2.109l1.541,2.479l4.627,1.564
	l2.227-0.188l4.346-0.364"/>
<path fill="#2AAAE2" stroke="#2E368F" stroke-width="1.25" stroke-linecap="round" stroke-linejoin="round" stroke-opacity="0.5" d="
	M135.116,60.398l1.604-3.646l-4.533-6.07"/>
<path fill="#2AAAE2" stroke="#2E368F" stroke-width="1.25" stroke-linecap="round" stroke-linejoin="round" stroke-opacity="0.5" d="
	M143.329,11.62l-0.211-0.105l-1.306-0.646l-1.541-0.766l-9.711-4.812l-8.047-1.548l-4.785-0.677l-3.02-0.426l-3.703-0.521
	l-5.07-1.496l-9.014,1.967l-5.442,1.205l-0.032,0.007l-0.362,0.08l-3.491,0.773"/>
<path fill="#2AAAE2" stroke="#2E368F" stroke-width="1.25" stroke-linecap="round" stroke-linejoin="round" stroke-opacity="0.5" d="
	M28.323,28.619l-2.256-0.017l1.547,2.539"/>
<path fill="#2AAAE2" stroke="#2E368F" stroke-width="1.25" stroke-linecap="round" stroke-linejoin="round" stroke-opacity="0.5" d="
	M85.617,186.092l0.857,0.138"/>
<path fill="#2AAAE2" stroke="#2E368F" stroke-width="1.25" stroke-linecap="round" stroke-linejoin="round" stroke-opacity="0.5" d="
	M50.815,175.102l1.097,1.665l5.572,0.483l1.773,0.768l5.218,2.26"/>
<path fill="#2AAAE2" stroke="#2E368F" stroke-width="1.25" stroke-linecap="round" stroke-linejoin="round" stroke-opacity="0.5" d="
	M31.338,27.55l-0.323,0.027l-0.1,0.196"/>
<path fill="#2AAAE2" stroke="#2E368F" stroke-width="1.25" stroke-linecap="round" stroke-linejoin="round" stroke-opacity="0.5" d="
	M65.51,180.795l-0.162,0.011l-0.873-0.528l0.339,0.17L65.51,180.795l3.896,1.941l2.849,0.386"/>
<path fill="#2AAAE2" stroke="#2E368F" stroke-width="1.25" stroke-linecap="round" stroke-linejoin="round" stroke-opacity="0.5" d="
	M99.839,188.645l1.577,0.398l5.049,0.855"/>
<path fill="#2AAAE2" stroke="#2E368F" stroke-width="1.25" stroke-linecap="round" stroke-linejoin="round" stroke-opacity="0.5" d="
	M81.944,186.841l1.674,1.461l1.95,1.7"/>
<path fill="#2AAAE2" stroke="#2E368F" stroke-width="1.25" stroke-linecap="round" stroke-linejoin="round" stroke-opacity="0.5" d="
	M18.901,57.565l-0.437,1.308l-0.134,1.646"/>
<path fill="#2AAAE2" stroke="#2E368F" stroke-width="1.25" stroke-linecap="round" stroke-linejoin="round" stroke-opacity="0.5" d="
	M6.533,108.377l-0.323,1.001l1.123,1.955"/>
<path fill="#2AAAE2" stroke="#2E368F" stroke-width="1.25" stroke-linecap="round" stroke-linejoin="round" stroke-opacity="0.5" d="
	M59.257,178.018l1.127,0.584l1.138,0.574l3.826,1.63"/>
<path fill="#2AAAE2" stroke="#2E368F" stroke-width="1.25" stroke-linecap="round" stroke-linejoin="round" stroke-opacity="0.5" d="
	M86.292,186.353l4.208,3.937l0.25,0.233l1.663,0.182l2.803,0.305l3.368-0.386"/>
<path fill="#2AAAE2" stroke="#2E368F" stroke-width="1.25" stroke-linecap="round" stroke-linejoin="round" stroke-opacity="0.5" d="
	M117.728,3.069l-2.619-0.574l-0.4,0.148"/>
<path fill="#2AAAE2" stroke="#2E368F" stroke-width="1.25" stroke-linecap="round" stroke-linejoin="round" stroke-opacity="0.5" d="
	M34.402,165.586l-0.489,3.051l3.542-0.818l1.346-0.312"/>
<path fill="#2AAAE2" stroke="#2E368F" stroke-width="1.25" stroke-linecap="round" stroke-linejoin="round" stroke-opacity="0.5" d="
	M132.118,176.535l1.94-1.766l2.285-2.271"/>
<path fill="#2AAAE2" stroke="#2E368F" stroke-width="1.25" stroke-linecap="round" stroke-linejoin="round" stroke-opacity="0.5" d="
	M83.618,188.302l1.877,2.272l5.006-0.286"/>
<path fill="#2AAAE2" stroke="#2E368F" stroke-width="1.25" stroke-linecap="round" stroke-linejoin="round" stroke-opacity="0.5" d="
	M92.414,190.703l3.159,0.771l1.339-0.094l4.161,0.362"/>
<path fill="#2AAAE2" stroke="#2E368F" stroke-width="1.25" stroke-linecap="round" stroke-linejoin="round" stroke-opacity="0.5" d="
	M95.904,189.795l2.664,0.82l0.017,0.007L99.813,191l0.136,0.042l1.798,0.555l5.036,0.904l1.109,0.198l1.647,0.297l2.529-0.483
	l6.054-1.157l1.313-0.497l2.893-1.096l3.012-1.142l2.145-0.813"/>
<path fill="#2AAAE2" stroke="#2E368F" stroke-width="1.25" stroke-linecap="round" stroke-linejoin="round" stroke-opacity="0.5" d="
	M38.567,168.811l2.426,0.241"/>
<path fill="#2AAAE2" stroke="#2E368F" stroke-width="1.25" stroke-linecap="round" stroke-linejoin="round" stroke-opacity="0.5" d="
	M99.813,191l1.26,0.743l2.731,1.608l2.979-0.852"/>
<path fill="#2AAAE2" stroke="#2E368F" stroke-width="1.25" stroke-linecap="round" stroke-linejoin="round" stroke-opacity="0.5" d="
	M37.455,167.818l1.967,2.381l2.998,1.046"/>
<path fill="#2AAAE2" stroke="#2E368F" stroke-width="1.25" stroke-linecap="round" stroke-linejoin="round" stroke-opacity="0.5" d="
	M119.435,190.858l0.184-0.028l2.709-1.066"/>
<path fill="#2AAAE2" stroke="#2E368F" stroke-width="1.25" stroke-linecap="round" stroke-linejoin="round" stroke-opacity="0.5" d="
	M107.892,192.699l2.031,1.2l2.146-1.388"/>
<path fill="#2AAAE2" stroke="#2E368F" stroke-width="1.25" stroke-linecap="round" stroke-linejoin="round" stroke-opacity="0.5" d="
	M149.712,171.891l4.406-0.511l2.258-0.916"/>
<path fill="#2AAAE2" stroke="#2E368F" stroke-width="1.25" stroke-linecap="round" stroke-linejoin="round" stroke-opacity="0.5" d="
	M140.476,180.831l9.765-2.829l4.408-4.525"/>
<path fill="#2AAAE2" stroke="#2E368F" stroke-width="1.25" stroke-linecap="round" stroke-linejoin="round" stroke-opacity="0.5" d="
	M160.401,8.446l4.903-1.519l11.638,4.666l-6.784-2.415l-8.027-0.406L160.401,8.446l-6.272-1.184l-7.498,1.932l-6.359,0.91"/>
<path fill="#2AAAE2" stroke="#2E368F" stroke-width="1.25" stroke-linecap="round" stroke-linejoin="round" stroke-opacity="0.5" d="
	M125.339,188.621l7.86-1.486l4.705-1.659l10.252-3.38l3.981-4.322l8.053-9.163l2.21-4.435"/>
<path fill="#2AAAE2" stroke="#2E368F" stroke-width="1.25" stroke-linecap="round" stroke-linejoin="round" stroke-opacity="0.5" d="
	M161.681,164.356l0.72-0.181l7.95-2.007l3.396-1.842l3.722-5.055l-0.035-0.147l-2.502-10.842"/>
<path fill="#2AAAE2" stroke="#2E368F" stroke-width="1.25" stroke-linecap="round" stroke-linejoin="round" stroke-opacity="0.5" d="
	M177.433,155.125l4.285-4.506l6.998-5.619l0.508-10.263l-1.281-10.233l6.433-8.46l1.64-9.474l0.965-9.984l3.98-9.627l2.553-10.112
	l-4.58-9.964l-0.604-10.381l-2.562-10.491l0.168-10.216l-3.238-9.95l-7.063-10.361l-8.692-3.89"/>
</svg>
