<?xml version="1.0" encoding="utf-8"?>
<!-- Generator: Adobe Illustrator 16.0.0, SVG Export Plug-In . SVG Version: 6.00 Build 0)  -->
<!DOCTYPE svg PUBLIC "-//W3C//DTD SVG 1.1//EN" "http://www.w3.org/Graphics/SVG/1.1/DTD/svg11.dtd">
<svg version="1.1" id="Layer_1" xmlns="http://www.w3.org/2000/svg" xmlns:xlink="http://www.w3.org/1999/xlink" x="0px" y="0px"
	 width="228.365px" height="196.846px" viewBox="0 0 228.365 196.846" enable-background="new 0 0 228.365 196.846"
	 xml:space="preserve">
<path fill="#2AAAE2" stroke="#2E368F" stroke-miterlimit="10" d="M169.768,195.942l6.544-4.955l5.018-1.408l6.576-1.093l7.167-0.221
	l4.67-5.817l2.483-3.837l10.923-1.247l2.515-8.157l1.69-11.195l2.276-6.704l2.34-6.612l0.312-6.742l-0.991-6.688l-0.022-0.365
	l2.308-5.207l0.271-0.802l1.275-5.496l0.475-5.514l2.146-5.811l-2.198-4.949l0.254-0.44l-0.259-3.117l0.327-1.425l0.084-4.825
	l-0.274-1.283l-0.074-4.109l1.196-9.358l-0.451-6.364l-2.276-2.86l-3.402-2.727l-1.291-5.614l-3.278-2.875l-4.656-1.936
	l-5.342-1.536l-3.065-2.379l-3.359-0.722l-2.77-2.479l-6.123-7.743l-2.564-1.06l-1.071-0.075l-5.807-1.81l-6.636-7.154l-2.123-4.609
	l-1.657-4.54l-0.566-0.286l-1.821-0.412l-6.072-4.677l-3.68-0.312l-4.856-5.257l-10.146-0.072l-8.886-0.417l-0.178-0.074
	l-9.146-3.364l-9.548,1.553l-8.016-5.141l-1.174-0.486l-9.62-0.89L88.652,2.71L81.45,1.451l-8.095-0.822L66.957,1.24l-5.564,3.409
	l-4.724-1.866l-9.326,6.391l-0.075,0.082l-1.887,0.143l-2.545,1.964l-3.791,2.373l-0.451,0.92l-4.419,4.426l-5.415,6.935
	l-3.09,4.981l-0.872,5.92l-0.309,0.441l-9.313,0.226l-1.454,7.573l-4.851,8.59l0.803,8.207l0.253,0.743l-1.464,3.041L9.115,67.4
	l-3.396,5.302l-2.181,2.012L0.63,82.132l0.76,6.412l2.36,2.906l3.036,8.569l2.166,3.911l2.8,2.24l0.844,4.026l4.415,4.669
	l1.731,5.17l0.262,4.228l1.698,0.807l5.649,9.128l-0.509,11.691l4.628,2.337l3.022,3.96l6.976,8.584l6.199,3.53l1.775,2.056
	l8.287,4.745l6.863,2.619l1.734,1.319l7.959,3.015l1.637,0.549l6.493,4.753l8.876,2.933l10.375,0.093l9.813-0.434l2.824-0.131
	l3.866,0.141l8.646,3.197l1.403,0.092l2.713,1.68l11.895,1.552l6.531,3.747l7.349-0.885l6.753-0.015L169.768,195.942z"/>
<path fill="#2AAAE2" stroke="#2E368F" stroke-width="1.25" stroke-linecap="round" stroke-linejoin="round" stroke-opacity="0.5" d="
	M60.492,102.888l3.324,1.861l11.797,3.512l14.323-6.935"/>
<path fill="#2AAAE2" stroke="#2E368F" stroke-width="1.25" stroke-linecap="round" stroke-linejoin="round" stroke-opacity="0.5" d="
	M41.848,56.721l-0.466,2.113l1.652,5.385"/>
<path fill="#2AAAE2" stroke="#2E368F" stroke-width="1.25" stroke-linecap="round" stroke-linejoin="round" stroke-opacity="0.5" d="
	M159.146,90.616l-5.642-0.244l-6.583-0.256"/>
<path fill="#2AAAE2" stroke="#2E368F" stroke-width="1.25" stroke-linecap="round" stroke-linejoin="round" stroke-opacity="0.5" d="
	M35.336,49.347l0.058,1.851l1.021,4.938"/>
<path fill="#2AAAE2" stroke="#2E368F" stroke-width="1.25" stroke-linecap="round" stroke-linejoin="round" stroke-opacity="0.5" d="
	M180.868,156.696l1.947-0.39l4.996-2.042"/>
<path fill="#2AAAE2" stroke="#2E368F" stroke-width="1.25" stroke-linecap="round" stroke-linejoin="round" stroke-opacity="0.5" d="
	M77.549,34.028l-2.26-4.627l-0.243-0.498l-0.02-0.041l-0.567-0.076l-1.081-0.144l-3.163-0.421l-1.107-0.148l-1.061-0.141"/>
<path fill="#2AAAE2" stroke="#2E368F" stroke-width="1.25" stroke-linecap="round" stroke-linejoin="round" stroke-opacity="0.5" d="
	M84.917,46.054l-1.395-4.135l-2.913-5.159"/>
<path fill="#2AAAE2" stroke="#2E368F" stroke-width="1.25" stroke-linecap="round" stroke-linejoin="round" stroke-opacity="0.5" d="
	M190.403,84.726l2.524-3.254l1.282-1.656"/>
<path fill="#2AAAE2" stroke="#2E368F" stroke-width="1.25" stroke-linecap="round" stroke-linejoin="round" stroke-opacity="0.5" d="
	M159.127,153.117l0.719,0.353l0.012,0.005l5.173,2.53"/>
<path fill="#2AAAE2" stroke="#2E368F" stroke-width="1.25" stroke-linecap="round" stroke-linejoin="round" stroke-opacity="0.5" d="
	M222.641,111.365l0.638-2.396l0.944-3.555l0.836-3.142l-0.123-0.091l-0.3-0.225l-0.824-0.613l-0.557-0.414l-0.563-0.421
	l-0.124-0.094l-0.101-0.072l-1.89-1.409l-0.039-0.029l-0.364-0.271l0.438-1.114l0.158-0.403l0.926-2.359l0.102-0.259l0.034-0.088
	l0.112-0.284l0.109-0.275l-0.573-0.322l-0.313-0.176l-0.326-0.186l-1.496-0.841l-5.014-2.818l-0.281-0.158l-0.554-0.313"/>
<path fill="#2AAAE2" stroke="#2E368F" stroke-width="1.25" stroke-linecap="round" stroke-linejoin="round" stroke-opacity="0.5" d="
	M220.176,98.634l-5.78,4.303"/>
<path fill="#2AAAE2" stroke="#2E368F" stroke-width="1.25" stroke-linecap="round" stroke-linejoin="round" stroke-opacity="0.5" d="
	M193.365,88.802l2.646-4.021"/>
<path fill="#2AAAE2" stroke="#2E368F" stroke-width="1.25" stroke-linecap="round" stroke-linejoin="round" stroke-opacity="0.5" d="
	M147.561,152.209l5.884,1.364l6.412-0.1"/>
<path fill="#2AAAE2" stroke="#2E368F" stroke-width="1.25" stroke-linecap="round" stroke-linejoin="round" stroke-opacity="0.5" d="
	M197.426,82.431l-3.215-2.615l-5.035,1.461"/>
<path fill="#2AAAE2" stroke="#2E368F" stroke-width="1.25" stroke-linecap="round" stroke-linejoin="round" stroke-opacity="0.5" d="
	M31.95,51.085l0.095,6.717"/>
<path fill="#2AAAE2" stroke="#2E368F" stroke-width="1.25" stroke-linecap="round" stroke-linejoin="round" stroke-opacity="0.5" d="
	M63.178,27.727l-2.97,1.12l-2.21-0.811"/>
<path fill="#2AAAE2" stroke="#2E368F" stroke-width="1.25" stroke-linecap="round" stroke-linejoin="round" stroke-opacity="0.5" d="
	M70.215,28.222l-0.269-0.303l-0.052-0.057l-4.143-4.625l-2.644,4.213"/>
<path fill="#2AAAE2" stroke="#2E368F" stroke-width="1.25" stroke-linecap="round" stroke-linejoin="round" stroke-opacity="0.5" d="
	M78.837,30.809l-1.557-1.742l-1.063-1.19l-2.539-0.005l-3.782-0.008"/>
<path fill="#2AAAE2" stroke="#2E368F" stroke-width="1.25" stroke-linecap="round" stroke-linejoin="round" stroke-opacity="0.5" d="
	M32.419,38.852l-2.09,3.117l1.138,3.697l-0.279,2.91l0.054,3.935"/>
<path fill="#2AAAE2" stroke="#2E368F" stroke-width="1.25" stroke-linecap="round" stroke-linejoin="round" stroke-opacity="0.5" d="
	M221.481,93.527l-0.263-0.339l-0.03-0.021l-0.335-0.215l-2.917-1.875"/>
<path fill="#2AAAE2" stroke="#2E368F" stroke-width="1.25" stroke-linecap="round" stroke-linejoin="round" stroke-opacity="0.5" d="
	M214.333,89.508l-2.313-3.269l-1.868-0.599"/>
<path fill="#2AAAE2" stroke="#2E368F" stroke-width="1.25" stroke-linecap="round" stroke-linejoin="round" stroke-opacity="0.5" d="
	M35.648,94.177l-2.655,0.001"/>
<path fill="#2AAAE2" stroke="#2E368F" stroke-width="1.25" stroke-linecap="round" stroke-linejoin="round" stroke-opacity="0.5" d="
	M47.236,23.185l-2.04,0.242l-5.175,1.92l-2.269,2.522L35.372,30.7l-1.437,5.651"/>
<path fill="#2AAAE2" stroke="#2E368F" stroke-width="1.25" stroke-linecap="round" stroke-linejoin="round" stroke-opacity="0.5" d="
	M54.298,21.857l-1.475-0.077l-4.666,2.523"/>
<path fill="#2AAAE2" stroke="#2E368F" stroke-width="1.25" stroke-linecap="round" stroke-linejoin="round" stroke-opacity="0.5" d="
	M24.468,63.698l-0.461,2.998l-0.251,7.714l1.491,4.715"/>
<path fill="#2AAAE2" stroke="#2E368F" stroke-width="1.25" stroke-linecap="round" stroke-linejoin="round" stroke-opacity="0.5" d="
	M19.256,103.654l2.356-2.985l0.536-0.679l0.374-0.474l2.304-2.919"/>
<path fill="#2AAAE2" stroke="#2E368F" stroke-width="1.25" stroke-linecap="round" stroke-linejoin="round" stroke-opacity="0.5" d="
	M85.751,34.767l-2.254-3.757l-7.543-4.401l-3.806-0.529"/>
<path fill="#2AAAE2" stroke="#2E368F" stroke-width="1.25" stroke-linecap="round" stroke-linejoin="round" stroke-opacity="0.5" d="
	M196.813,179.229l5.412-0.618l10.923-1.247l2.515-8.157l1.69-11.195l2.276-6.704l2.34-6.612l0.312-6.742l-0.991-6.688l-0.047-0.314
	l0.022-0.051l2.309-5.207l0.27-0.802l1.276-5.496l0.474-5.514l2.146-5.811l-2.198-4.949l-0.076-0.17l-0.366-1.479l-0.435-1.752
	l-0.4-1.616l-0.024-0.058l-0.037-0.081l-0.244-0.536l-0.37-0.813l-0.407-0.893l-1.233-1.596"/>
<path fill="#2AAAE2" stroke="#2E368F" stroke-width="1.25" stroke-linecap="round" stroke-linejoin="round" stroke-opacity="0.5" d="
	M123.331,163.364l6.232,2.009l9.87,2.769"/>
<path fill="#2AAAE2" stroke="#2E368F" stroke-width="1.25" stroke-linecap="round" stroke-linejoin="round" stroke-opacity="0.5" d="
	M22.403,99.103l-0.397,0.575l-0.586,0.848l-2.164,3.129l4.698,1.581"/>
<path fill="#2AAAE2" stroke="#2E368F" stroke-width="1.25" stroke-linecap="round" stroke-linejoin="round" stroke-opacity="0.5" d="
	M34.717,113.148l3.206,1.609l3.44,3.864"/>
<path fill="#2AAAE2" stroke="#2E368F" stroke-width="1.25" stroke-linecap="round" stroke-linejoin="round" stroke-opacity="0.5" d="
	M20.36,92.478l-1.624,6.026l2.684,2.021"/>
<path fill="#2AAAE2" stroke="#2E368F" stroke-width="1.25" stroke-linecap="round" stroke-linejoin="round" stroke-opacity="0.5" d="
	M28.643,53.385l-5.576,2.971l-2.201,1.563l-0.554,3.383l-2.986,5.126l-1.868,1.631"/>
<path fill="#2AAAE2" stroke="#2E368F" stroke-width="1.25" stroke-linecap="round" stroke-linejoin="round" stroke-opacity="0.5" d="
	M208.79,62.356l-1.621-0.154l-3.923-0.056l-5.518,1.018l-3.635,1.756"/>
<path fill="#2AAAE2" stroke="#2E368F" stroke-width="1.25" stroke-linecap="round" stroke-linejoin="round" stroke-opacity="0.5" d="
	M216.526,71.551l-1.628-4.035l-3.924-1.522"/>
<path fill="#2AAAE2" stroke="#2E368F" stroke-width="1.25" stroke-linecap="round" stroke-linejoin="round" stroke-opacity="0.5" d="
	M152.086,172.139l3.683,5.577l5.036-1.813"/>
<path fill="#2AAAE2" stroke="#2E368F" stroke-width="1.25" stroke-linecap="round" stroke-linejoin="round" stroke-opacity="0.5" d="
	M225.099,101.471l0.438-1.908l0.327-1.425l0.084-4.825l-0.274-1.283l-0.147-0.697l-0.359-1.681l-0.179-0.84"/>
<path fill="#2AAAE2" stroke="#2E368F" stroke-width="1.25" stroke-linecap="round" stroke-linejoin="round" stroke-opacity="0.5" d="
	M50.824,8.987l-2.046,0.153l-0.058,0.004l-1.459,0.107l-1.888,0.144l-2.545,1.964l-3.791,2.373l-0.451,0.92l-1.674,3.409
	l-1.382,2.76l-0.558,0.757l-1.633,2.214l0.079,4.489l-2.769,2.997l-0.309,0.333"/>
<path fill="#2AAAE2" stroke="#2E368F" stroke-width="1.25" stroke-linecap="round" stroke-linejoin="round" stroke-opacity="0.5" d="
	M221.29,131.264l-0.022-0.365"/>
<path fill="#2AAAE2" stroke="#2E368F" stroke-width="1.25" stroke-linecap="round" stroke-linejoin="round" stroke-opacity="0.5" d="
	M55.659,9.647l-0.306-0.204l-0.421-0.281L53.18,7.994l-0.146,0.038l-4.256,1.108"/>
<path fill="#2AAAE2" stroke="#2E368F" stroke-width="1.25" stroke-linecap="round" stroke-linejoin="round" stroke-opacity="0.5" d="
	M23.703,38.542l0.231,1.628l0.271,1.922l0.07,0.49l-0.779,0.753l-0.244,0.237l-2.551,2.468l-2.251,4.169"/>
<path fill="#2AAAE2" stroke="#2E368F" stroke-width="1.25" stroke-linecap="round" stroke-linejoin="round" stroke-opacity="0.5" d="
	M225.673,92.029l-0.074-4.11l-0.057-2.95l-0.331-2.711l-0.238-1.962l-0.486-3.879"/>
<path fill="#2AAAE2" stroke="#2E368F" stroke-width="1.25" stroke-linecap="round" stroke-linejoin="round" stroke-opacity="0.5" d="
	M30.501,30.833l-1.12,0.57l-0.172,0.087l-0.917,0.466l-1.395,2.482l-0.15,0.267l-0.422,0.532l-1.677,2.114l-0.945,1.189l0.025,1.914
	l0.004,0.353l-0.479,2.765"/>
<path fill="#2AAAE2" stroke="#2E368F" stroke-width="1.25" stroke-linecap="round" stroke-linejoin="round" stroke-opacity="0.5" d="
	M18.958,49.731l-0.507,0.478l-3.705,3.489l-0.09,2.816l-0.072,2.225l-1.902,2.48l-1.097,1.428l-0.104,0.136l-0.917,1.797L9.2,67.259
	l-0.09,0.14L5.714,72.7l-2.217,3.461l-2.872,5.968"/>
<path fill="#2AAAE2" stroke="#2E368F" stroke-width="1.25" stroke-linecap="round" stroke-linejoin="round" stroke-opacity="0.5" d="
	M9.578,72.412l-3.661,2.979l-1.989,5.979"/>
<path fill="#2AAAE2" stroke="#2E368F" stroke-width="1.25" stroke-linecap="round" stroke-linejoin="round" stroke-opacity="0.5" d="
	M14.321,104.959l-0.247,4.206l1.649,0.554l0.007,0.003l0.003,0.001l0.428,0.143l4.604,1.541"/>
<path fill="#2AAAE2" stroke="#2E368F" stroke-width="1.25" stroke-linecap="round" stroke-linejoin="round" stroke-opacity="0.5" d="
	M225.542,84.968l-0.325-3.566"/>
<path fill="#2AAAE2" stroke="#2E368F" stroke-width="1.25" stroke-linecap="round" stroke-linejoin="round" stroke-opacity="0.5" d="
	M24.754,119.076l0.21,3.499l2.276,2.831"/>
<path fill="#2AAAE2" stroke="#2E368F" stroke-width="1.25" stroke-linecap="round" stroke-linejoin="round" stroke-opacity="0.5" d="
	M177.487,45.202L173.6,44.68l-9.821-1.461l-7.585-0.183"/>
<path fill="#2AAAE2" stroke="#2E368F" stroke-width="1.25" stroke-linecap="round" stroke-linejoin="round" stroke-opacity="0.5" d="
	M29.491,126.785l4.42,4.985l4.698,5.047"/>
<path fill="#2AAAE2" stroke="#2E368F" stroke-width="1.25" stroke-linecap="round" stroke-linejoin="round" stroke-opacity="0.5" d="
	M30.596,28.784l-1.388,2.706"/>
<path fill="#2AAAE2" stroke="#2E368F" stroke-width="1.25" stroke-linecap="round" stroke-linejoin="round" stroke-opacity="0.5" d="
	M79.726,165.927l0.579,0.317l8.169,0.684"/>
<path fill="#2AAAE2" stroke="#2E368F" stroke-width="1.25" stroke-linecap="round" stroke-linejoin="round" stroke-opacity="0.5" d="
	M135.342,31.573l-1.586-3.667l-1.523-1.268"/>
<path fill="#2AAAE2" stroke="#2E368F" stroke-width="1.25" stroke-linecap="round" stroke-linejoin="round" stroke-opacity="0.5" d="
	M5.046,93.033l0.005,0.022l1.144,4.97l0.588,1.991l2.166,3.911l2.8,2.239l2.375,1.899"/>
<path fill="#2AAAE2" stroke="#2E368F" stroke-width="1.25" stroke-linecap="round" stroke-linejoin="round" stroke-opacity="0.5" d="
	M175.11,191.323l1.201-0.336l5.018-1.408l6.576-1.093l7.167-0.221l4.67-5.817l2.483-3.837"/>
<path fill="#2AAAE2" stroke="#2E368F" stroke-width="1.25" stroke-linecap="round" stroke-linejoin="round" stroke-opacity="0.5" d="
	M14.656,56.515l-2.074,2.101l0.101,2.604"/>
<path fill="#2AAAE2" stroke="#2E368F" stroke-width="1.25" stroke-linecap="round" stroke-linejoin="round" stroke-opacity="0.5" d="
	M225.541,103.121l0.254-0.44l-0.259-3.117"/>
<path fill="#2AAAE2" stroke="#2E368F" stroke-width="1.25" stroke-linecap="round" stroke-linejoin="round" stroke-opacity="0.5" d="
	M225.598,87.919l1.196-9.357l-0.451-6.364l-2.276-2.861l-3.402-2.726l-1.291-5.614l-3.279-2.875l-4.655-1.936l-5.343-1.536
	l-3.064-2.379l-3.359-0.723l-0.624-0.134l-0.088-0.019l-2.214-0.477"/>
<path fill="#2AAAE2" stroke="#2E368F" stroke-width="1.25" stroke-linecap="round" stroke-linejoin="round" stroke-opacity="0.5" d="
	M58.914,162.203l3.839,3.306l3.891,3.348l2.601-0.61l0.27-0.063l3.548-0.832"/>
<path fill="#2AAAE2" stroke="#2E368F" stroke-width="1.25" stroke-linecap="round" stroke-linejoin="round" stroke-opacity="0.5" d="
	M127.366,20.031l-4.763-3.853l-2.217-1.488"/>
<path fill="#2AAAE2" stroke="#2E368F" stroke-width="1.25" stroke-linecap="round" stroke-linejoin="round" stroke-opacity="0.5" d="
	M5.714,72.699L3.533,74.71l-2.908,7.418l1.977,6.091l1.145,3.229l3.036,8.569"/>
<path fill="#2AAAE2" stroke="#2E368F" stroke-width="1.25" stroke-linecap="round" stroke-linejoin="round" stroke-opacity="0.5" d="
	M53.634,7.62l-3.857,0.171l-1.055,1.354"/>
<path fill="#2AAAE2" stroke="#2E368F" stroke-width="1.25" stroke-linecap="round" stroke-linejoin="round" stroke-opacity="0.5" d="
	M38.588,14.652l-4.419,4.426l-5.415,6.935l-3.09,4.981l-0.872,5.92l-0.309,0.441l-3.102,4.423l-2.578,5.414l-4.95,3.689
	l-1.651,1.962"/>
<path fill="#2AAAE2" stroke="#2E368F" stroke-width="1.25" stroke-linecap="round" stroke-linejoin="round" stroke-opacity="0.5" d="
	M98.871,14.814l-8.473-6.487L87.216,7.83l-6.793-0.148l-3.041,0.617"/>
<path fill="#2AAAE2" stroke="#2E368F" stroke-width="1.25" stroke-linecap="round" stroke-linejoin="round" stroke-opacity="0.5" d="
	M141.639,189.658l2.204,2.094l0.766,0.728l3.821,3.629l3.47-3.659l0.157-0.167l0.392-0.413"/>
<path fill="#2AAAE2" stroke="#2E368F" stroke-width="1.25" stroke-linecap="round" stroke-linejoin="round" stroke-opacity="0.5" d="
	M69.243,168.245l1.925,0.751"/>
<path fill="#2AAAE2" stroke="#2E368F" stroke-width="1.25" stroke-linecap="round" stroke-linejoin="round" stroke-opacity="0.5" d="
	M16.865,112.981l0.444,0.842l1.181,2.242l0.247,3.969l0.262,4.228l1.698,0.807l1.66,0.789l2.66,1.183l0.958,0.428l1.214,0.539
	l1.752,0.778l0.642,0.285l0.106,0.192l1.863,3.353l2.509,4.517l0.138,0.25l0.698,0.778l4.585,5.127"/>
<path fill="#2AAAE2" stroke="#2E368F" stroke-width="1.25" stroke-linecap="round" stroke-linejoin="round" stroke-opacity="0.5" d="
	M0.625,82.128l0.76,6.413l2.36,2.906"/>
<path fill="#2AAAE2" stroke="#2E368F" stroke-width="1.25" stroke-linecap="round" stroke-linejoin="round" stroke-opacity="0.5" d="
	M69.964,170.652l5.745,3.437l6.098,3.469l1.543,0.986l2.991,1.916l2.915,1.866l8.994-0.527"/>
<path fill="#2AAAE2" stroke="#2E368F" stroke-width="1.25" stroke-linecap="round" stroke-linejoin="round" stroke-opacity="0.5" d="
	M199.047,51.414l-7.447-6.19l-6.874-2.547l-1.464-0.603l-4.508-1.853l-1.729-0.712l-0.061-0.024l-1.728-0.71"/>
<path fill="#2AAAE2" stroke="#2E368F" stroke-width="1.25" stroke-linecap="round" stroke-linejoin="round" stroke-opacity="0.5" d="
	M11.362,59.703l-1.439,2.991l-1.464,3.041l0.651,1.662"/>
<path fill="#2AAAE2" stroke="#2E368F" stroke-width="1.25" stroke-linecap="round" stroke-linejoin="round" stroke-opacity="0.5" d="
	M34.062,137.13l0.854,7.192l4.833,5.502l0.053,0.061l2.081,2.367l7.669,6.95l7.315,3.456l5.887,2.851"/>
<path fill="#2AAAE2" stroke="#2E368F" stroke-width="1.25" stroke-linecap="round" stroke-linejoin="round" stroke-opacity="0.5" d="
	M67.598,5.891l-4.688-0.643l-1.521-0.602L56.663,2.78l-9.326,6.39l-0.074,0.082"/>
<path fill="#2AAAE2" stroke="#2E368F" stroke-width="1.25" stroke-linecap="round" stroke-linejoin="round" stroke-opacity="0.5" d="
	M89.823,176.602l1.49,0.981l4.393,2.898l2.343,1.211l0.201,0.104l6.243,3.229l10.657,0.183l1.068,0.396l0.184,0.067l0.767,0.283
	l8.646,3.197l1.402,0.092l10.14,0.666l4.468,2.564l6.532,3.747l7.348-0.886l6.753-0.014l7.311,0.619l6.544-4.955"/>
<path fill="#2AAAE2" stroke="#2E368F" stroke-width="1.25" stroke-linecap="round" stroke-linejoin="round" stroke-opacity="0.5" d="
	M27.189,128.005l4.362,4.609"/>
<path fill="#2AAAE2" stroke="#2E368F" stroke-width="1.25" stroke-linecap="round" stroke-linejoin="round" stroke-opacity="0.5" d="
	M24.483,37.355l-9.313,0.226l-1.454,7.573l-4.851,8.59l0.803,8.207l0.253,0.743"/>
<path fill="#2AAAE2" stroke="#2E368F" stroke-width="1.25" stroke-linecap="round" stroke-linejoin="round" stroke-opacity="0.5" d="
	M11.747,106.168l0.844,4.027l4.415,4.669l0.872,0.922"/>
<path fill="#2AAAE2" stroke="#2E368F" stroke-width="1.25" stroke-linecap="round" stroke-linejoin="round" stroke-opacity="0.5" d="
	M199.671,51.548l-2.77-2.479l-6.123-7.743l-2.564-1.06l-1.071-0.075l-6.69-0.465l-2.031-0.143l-1.454-0.101"/>
<path fill="#2AAAE2" stroke="#2E368F" stroke-width="1.25" stroke-linecap="round" stroke-linejoin="round" stroke-opacity="0.5" d="
	M134.312,13.95l-5.936-2.344l-0.229-0.091l-0.573-0.229l-9.614-0.678l-9.711-2.243l-7.017-5.733L90.026,2.947l-1.38-0.241
	l-7.202-1.258l-8.094-0.823l-6.399,0.612l-5.564,3.409"/>
<path fill="#2AAAE2" stroke="#2E368F" stroke-width="1.25" stroke-linecap="round" stroke-linejoin="round" stroke-opacity="0.5" d="
	M67.477,172.683l0.399,0.324l2.165,1.747l3.475,2.808l0.024,0.021l0.094,0.076l1.286,0.942l6.493,4.753l8.876,2.933l10.375,0.092
	l9.813-0.433l2.823-0.131l3.101-0.145"/>
<path fill="#2AAAE2" stroke="#2E368F" stroke-width="1.25" stroke-linecap="round" stroke-linejoin="round" stroke-opacity="0.5" d="
	M172.577,26.619l-1.657-4.54l-0.566-0.287l-1.821-0.411l-1.079-0.243l-4.346-0.983l-2.605-0.589l-1.458-1.079l-3.155-2.338
	l-3.109-2.302l-9.58,0.656"/>
<path fill="#2AAAE2" stroke="#2E368F" stroke-width="1.25" stroke-linecap="round" stroke-linejoin="round" stroke-opacity="0.5" d="
	M187.142,40.192l-5.807-1.81l-6.636-7.154l-2.123-4.609l-2.146-4.658l-0.009-0.017l-0.068-0.152"/>
<path fill="#2AAAE2" stroke="#2E368F" stroke-width="1.25" stroke-linecap="round" stroke-linejoin="round" stroke-opacity="0.5" d="
	M127.219,189.244l2.714,1.68l11.894,1.552"/>
<path fill="#2AAAE2" stroke="#2E368F" stroke-width="1.25" stroke-linecap="round" stroke-linejoin="round" stroke-opacity="0.5" d="
	M143.195,14.18l-8.305-3.533l-0.178-0.074l-9.146-3.365l-9.548,1.554l-8.016-5.141l-1.174-0.486l-9.62-0.89l-8.563,0.463"/>
<path fill="#2AAAE2" stroke="#2E368F" stroke-width="1.25" stroke-linecap="round" stroke-linejoin="round" stroke-opacity="0.5" d="
	M167.452,21.137l-6.199-1.687"/>
<path fill="#2AAAE2" stroke="#2E368F" stroke-width="1.25" stroke-linecap="round" stroke-linejoin="round" stroke-opacity="0.5" d="
	M20.697,125.067l5.65,9.128l-0.51,11.691l4.628,2.337l5.852,2.955"/>
<path fill="#2AAAE2" stroke="#2E368F" stroke-width="1.25" stroke-linecap="round" stroke-linejoin="round" stroke-opacity="0.5" d="
	M17.006,114.864l1.731,5.17"/>
<path fill="#2AAAE2" stroke="#2E368F" stroke-width="1.25" stroke-linecap="round" stroke-linejoin="round" stroke-opacity="0.5" d="
	M30.467,148.224l3.022,3.96l6.976,8.584l6.199,3.53l2.796,1.592l9.214,4.081l4.917,3.747l1.734,1.319l7.959,3.015l1.637,0.549"/>
<path fill="#2AAAE2" stroke="#2E368F" stroke-width="1.25" stroke-linecap="round" stroke-linejoin="round" stroke-opacity="0.5" d="
	M113.303,185.814l3.866,0.141"/>
<path fill="#2AAAE2" stroke="#2E368F" stroke-width="1.25" stroke-linecap="round" stroke-linejoin="round" stroke-opacity="0.5" d="
	M161.607,19.454l-2.828-3.062l-4.856-5.257l-10.146-0.072l-8.886-0.417"/>
<path fill="#2AAAE2" stroke="#2E368F" stroke-width="1.25" stroke-linecap="round" stroke-linejoin="round" stroke-opacity="0.5" d="
	M46.664,164.298l1.776,2.056l8.287,4.745l6.862,2.619"/>
<path fill="#2AAAE2" stroke="#2E368F" stroke-width="1.25" stroke-linecap="round" stroke-linejoin="round" stroke-opacity="0.5" d="
	M168.531,21.38l-6.072-4.676l-3.68-0.312"/>
</svg>
