<?xml version="1.0" encoding="utf-8"?>
<!-- Generator: Adobe Illustrator 16.0.0, SVG Export Plug-In . SVG Version: 6.00 Build 0)  -->
<!DOCTYPE svg PUBLIC "-//W3C//DTD SVG 1.1//EN" "http://www.w3.org/Graphics/SVG/1.1/DTD/svg11.dtd">
<svg version="1.1" id="Layer_1" xmlns="http://www.w3.org/2000/svg" xmlns:xlink="http://www.w3.org/1999/xlink" x="0px" y="0px"
	 width="86.268px" height="77.053px" viewBox="0 0 86.268 77.053" enable-background="new 0 0 86.268 77.053" xml:space="preserve">
<path opacity="0.5" fill="#27AAE1" stroke="#1C75BC" stroke-width="0.25" stroke-miterlimit="10" d="M-227.19-177.475
	c-2.594,1.906-10.014,18.255,5.025,26.752c9.765,5.517,20.183,5.94,28.249-3.479c6.992-8.164,4.474-18.783-3.222-26.322
	c-9.006-8.821-17.718-8.278-27.052,1.048L-227.19-177.475z"/>
<path opacity="0.5" fill="#27AAE1" stroke="#1C75BC" stroke-width="0.25" stroke-miterlimit="10" d="M-144.19-184.141
	c-4.813,6.377-8.043,13.86-8.333,21.976c-0.192,5.378,3.414,8.969,6.666,12.856c2.396,2.865,4.896,7.236,8.667,8.509
	c5.838,1.971,16.491,2.184,21.734-1.324c4.658-3.116,5.167-8.888,7.191-14.091c1.936-4.976,2.288-10.014,0.483-15.525
	c-1.247-3.809-3.268-10.024-6.132-12.995c-3.613-3.748-11.706-4.569-16.676-3.765c-3.492,0.565-9.129,5.078-12.267,3.691
	L-144.19-184.141z"/>
<path opacity="0.5" fill="#27AAE1" stroke="#1C75BC" stroke-width="0.25" stroke-miterlimit="10" d="M-176.092-139.351
	c-6.131,1.664-14.56,9.179-15.591,15.944c-0.873,5.725,3.868,12.264,9.259,13.057c5.996,0.882,12.299-0.003,17.258-3.083
	c4.443-2.759,3.975-9.228,3.407-14.25c-0.633-5.593-4.665-12.246-11.333-11.668H-176.092z"/>
<path opacity="0.5" fill="#27AAE1" stroke="#1C75BC" stroke-width="0.25" stroke-miterlimit="10" d="M-127.523-118.475
	c7.511,3.15,10.826,15.129,8.925,22.518c-0.978,3.799-5.141,5.592-8.762,6.075c-3.158,0.421-10.894,1.574-13.764,0.34
	c-5.37-2.308-9.083-11.523-9.066-16.949c0.02-6.188,3.813-9.519,9.074-11.574c3.736-1.46,6.693-1.742,10.926-1.742L-127.523-118.475
	z"/>
<path opacity="0.5" fill="#27AAE1" stroke="#1C75BC" stroke-width="0.25" stroke-miterlimit="10" d="M-60.856-179.141
	c-6.919-6.616-14.972,4.446-17.84,9.917c-2.9,5.532-7.069,18.796-1.436,23.658c4.404,3.8,14.791,5.55,20.691,4.757
	c3.843-0.517,7.816-3.7,10.333-6.591c3.729-4.285,2.579-10.115,2.585-15.741c0.006-5.772-3.679-8.59-7.426-12.242
	c-1.248-1.216-2.271-2.944-3.907-3.425L-60.856-179.141z"/>
<path opacity="0.5" fill="#27AAE1" stroke="#1C75BC" stroke-width="0.25" stroke-miterlimit="10" d="M-15.19-187.141
	c-5.749,5.188-6.031,10.402-5.667,17.667c0.303,6.058-2.777,11.78-1.684,17.351c1.773,9.034,7.443,26.047,19.685,22.648
	c5.29-1.469,8.806-9.026,9.333-13.926c0.624-5.794,2.007-10.647,2-16.742c-0.003-2.982,0.961-6.338-0.085-9.184
	c-0.912-2.483-3.06-5.05-4.322-7.408c-2.115-3.951-4.89-9.998-9.593-11.667c-3.505-1.244-5.686,0.798-8.667,0.926L-15.19-187.141z"
	/>
<path opacity="0.5" fill="#27AAE1" stroke="#1C75BC" stroke-width="0.25" stroke-miterlimit="10" d="M-230.778-128.683
	c-2.688,1.508-3.656,3.917-2.999,7c0.547,2.567,2.353,3.241,3.257,5.668c0.722,1.939,0.933,6.236,0.417,8.34
	c-0.5,2.035-2.284,3.426-3.008,5.326c-4.401,11.558,12.852,15.147,19.268,8.258c6.726-7.221,10.845-17.684,7.057-26.933
	c-1.495-3.649-3.998-7.438-7.724-9.576c-5.388-3.091-10.363,0.546-15.6,0.583L-230.778-128.683z"/>
<path opacity="0.5" fill="#27AAE1" stroke="#1C75BC" stroke-width="0.25" stroke-miterlimit="10" d="M-91.466-130.843
	c-12.532-6.917-19.791,24.357-3.009,23.101c4.985-0.373,9.517-7.216,10.009-12.008c0.281-2.734-0.25-6.676-3.999-9.343
	L-91.466-130.843z"/>
<path opacity="0.5" fill="#27AAE1" stroke="#1C75BC" stroke-width="0.25" stroke-miterlimit="10" d="M-43.856-122.808
	c-6.758-0.171-10.811,11.915-11.341,16.974c-0.404,3.853-0.109,8.404,0.267,12.084c0.272,2.657-0.215,6.38,0.642,8.942
	c0.908,2.717,3.449,4.606,4.792,7.006c1.535,2.744,1.985,4.73,5.308,5.344c5.413,1.001,9.815-2.841,13.259-6.091
	c7.534-7.11,18.654-10.699,15.733-22.95c-1.146-4.81-1.707-10.43-3.327-14.975c-1.018-2.856-4.254-3.916-6.69-5.685
	c-2.349-1.706-4.958-5.257-7.634-5.991c-2.43-0.666-7.726,1.9-8.399,4.283c-0.562,0.065-1.37,0.193-1.942,0.058L-43.856-122.808z"/>
<path opacity="0.5" fill="#27AAE1" stroke="#1C75BC" stroke-width="0.25" stroke-miterlimit="10" d="M-222.856-56.808
	c4.645,7.33,8.631,12.246,10.684,21.011c1.748,7.463,1.955,16.543,5.908,23.339c2.439,4.194,6.785,10.608,11.467,12.335
	c3.897,1.437,7.503,1.358,10.366-1.668c1.971-2.083,4.34-4.861,4.915-7.618c1.216-5.832-0.329-12.755-0.006-18.732
	c0.422-7.831-0.271-15.514-3.741-22.676c-6.053-12.495-17.869-22.976-31.926-24.341c-5.561-0.541-9.411-0.359-11.584,5.025
	c-1.833,4.54-1.585,7.094,0.918,10.992L-222.856-56.808z"/>
<path opacity="0.5" fill="#27AAE1" stroke="#1C75BC" stroke-width="0.25" stroke-miterlimit="10" d="M-155.014-62.702
	c0.574,1.561-5.028,8.098-4.842,12.234c0.285,6.332,3.836,13.109,8.658,17.334c3.363,2.947,6.593,3.14,10.949,3.333
	c5.064,0.225,10.567,0.824,15.059-1.749c11.611-6.653,12.244-28.334,3.992-37.76c-5.468-6.245-11.236-5.303-18.982-4.581
	c-3.949,0.368-5.939,1.563-8.917,4.091c-1.708,1.451-2.592,1.158-4.342,2.991L-155.014-62.702z"/>
<path opacity="0.5" fill="#27AAE1" stroke="#1C75BC" stroke-width="0.25" stroke-miterlimit="10" d="M-63.19-52.142
	c-5.349,0-11.252-0.844-16.242,1.252c-5.135,2.158-11.207,6.02-15.1,10.074c-5.44,5.666-4.365,13.261,3.317,15.416
	c9.749,2.733,21.094,5.112,31.449,3.332c6.733-1.158,15.329-7.207,19.752-12.397c1.882-2.208,3.78-5.978,3.832-8.925
	c0.073-4.149-2.775-4.482-5.916-6.176c-3.158-1.703-5.403-3.782-9.084-3.907c-3.027-0.103-5.987,1.005-9.008,0.667L-63.19-52.142z"
	/>
<path opacity="0.5" fill="#27AAE1" stroke="#1C75BC" stroke-width="0.25" stroke-miterlimit="10" d="M-86.523-88.808
	c-6.028-0.398-10.405,8.671-9.666,13.759c0.811,5.574,7.077,8.826,12.323,6.915c7.598-2.769,10.893-22.084,0.01-20.674H-86.523z"/>
<path opacity="0.5" fill="#27AAE1" stroke="#1C75BC" stroke-width="0.25" stroke-miterlimit="10" d="M-173.523-94.142
	c-5.363-1.521-9.501-0.515-12.343,4.242c-1.461,2.447-4.553,7.258-3.656,10.425c0.758,2.672,4.108,4.013,6.758,4.583
	c4.149,0.893,11.381-2.22,12.833-6.325c1.145-3.236,1.44-11.433-2.926-12.259L-173.523-94.142z"/>
<path opacity="0.5" fill="#27AAE1" stroke="#1C75BC" stroke-width="0.25" stroke-miterlimit="10" d="M-6.856-73.142
	c-16.116,3.069-22.631,21.882-11.933,34.083c9.102,10.379,23.172,10.933,36.384,8.933c13.107-1.984,23.216-9.629,22.215-23.733
	c-0.598-8.426-5.433-20.922-13.343-25.201c-5.15-2.786-12.195-4.414-18.006-2.324c-5.285,1.901-9.519,5.442-14.318,7.242
	L-6.856-73.142z"/>
<path opacity="0.5" fill="#27AAE1" stroke="#1C75BC" stroke-width="0.25" stroke-miterlimit="10" d="M23.477-120.142
	c-5.722,1.492-26.62,7.055-24.357,16.759c2.097,8.991,24.62,9.613,30.632,5.168c3.759-2.779,7.14-12.283,5.399-17.268
	c-1.045-2.992-6.446-4.657-9.008-5.326L23.477-120.142z"/>
<path opacity="0.5" fill="#27AAE1" stroke="#1C75BC" stroke-width="0.25" stroke-miterlimit="10" d="M39.144-187.142
	c3.621-1.811,9.761-0.712,13.551-0.055c8.011,1.388,18.175,4.362,24.216,10.057c7.37,6.949,9.221,14.625,9.232,24.534
	c0.01,8.182-1.508,13.625-8.657,18.047c-7.073,4.375-17.251,7.932-25.707,7.416c-6.58-0.401-15.197-5.62-20.66-9.348
	c-4.672-3.189-6.865-6.577-7.885-12.05c-1.689-9.055-3.219-21.234,3.51-28.774c3.037-3.402,8.189-5.771,11.4-8.827L39.144-187.142z"
	/>
<path opacity="0.5" fill="#27AAE1" stroke="#1C75BC" stroke-width="0.25" stroke-miterlimit="10" d="M90.143-117.475
	c-12.938-0.306-23.936,4.967-31.746,15.314c-6.732,8.92-7.744,25.66-5.408,36.104c3.402,15.216,21.058,15.96,31.172,6.907
	c13.309-11.912,25.042-26.195,22-45.341c-0.992-6.242-6.188-11.828-12.018-13.317L90.143-117.475z"/>
<path opacity="0.5" fill="#27AAE1" stroke="#1C75BC" stroke-width="0.25" stroke-miterlimit="10" d="M-131.69,23.025
	c-11.163,9.582-30.769,21.696-38.099,3.038c-3.879-9.875-7.747-39.571,11.576-35.462c9.835,2.091,32.286,16.241,26.023,27.924
	L-131.69,23.025z"/>
<path opacity="0.5" fill="#27AAE1" stroke="#1C75BC" stroke-width="0.25" stroke-miterlimit="10" d="M-71.559,56.343
	c-8.977-1.105-23.469-4.225-27.446-13.632c-5.62-13.294,12.183-24.917,21.791-29.384c9.373-4.358,18.721-4.48,26.278,2.938
	c7.08,6.951,16.45,18.259,16.883,28.665c0.504,12.103-9.587,16.501-19.506,16.414c-4.972-0.044-8.58-4.462-13.5-3.5L-71.559,56.343z
	"/>
<path opacity="0.5" fill="#27AAE1" stroke="#1C75BC" stroke-width="0.25" stroke-miterlimit="10" d="M57.567,0.125
	C32.811,0.283,11.526,16.448,2.561,39.614c-5.696,14.715-1.556,28.213,14.034,33.658c24.376,8.514,58.656,2.938,67.375-24.997
	c2.085-6.681,1.778-15.052,2.109-22.01c0.278-5.845-0.224-10.047-3.887-14.776C78.262,6.415,71.875-0.177,65.067,0.625L57.567,0.125
	z"/>
<path opacity="0.5" fill="#27AAE1" stroke="#1C75BC" stroke-width="0.25" stroke-miterlimit="10" d="M-34.69-10.475
	c2.798-3.162,4.368-12.94,10.514-11.532c4.027,0.922,10.408,13.988,8.021,18.055c-2.289,3.9-14.88-1.386-17.536-3.523L-34.69-10.475
	z"/>
<path opacity="0.5" fill="#27AAE1" stroke="#1C75BC" stroke-width="0.25" stroke-miterlimit="10" d="M-219.19,15.025
	c9.24-1.211,23.994,12.472,16.818,21.641c-5.879,7.511-22.299,13.162-27.831,3.383c-2.228-3.938-4.337-13.277-2.374-17.913
	c1.644-3.881,6.408-4.696,9.887-5.611L-219.19,15.025z"/>
<path opacity="0.5" fill="#27AAE1" stroke="#1C75BC" stroke-width="0.25" stroke-miterlimit="10" d="M-190.125,89.318
	c10.99-8.57,31.238-9.758,44.633-11.398c7.989-0.979,17.971-1.786,25.768,0.398c8.761,2.455,16.475,11.361,7.001,17.889
	c-13.774,9.491-31.001,8.981-45.905,13.709c-7.542,2.393-14.469,5.332-21.998,6.791c-9.58,1.856-18.398,0.683-27.913,0.524
	c-1.588-2.488-4.528-2.105-5.585-5.415c-1.078-3.373,0.876-6.635,3.122-8.873c3.983-3.969,9.687-7.351,14.876-9.125L-190.125,89.318
	z"/>
<circle opacity="0.5" fill="#27AAE1" stroke="#1C75BC" stroke-width="0.25" stroke-miterlimit="10" cx="235.06" cy="-78.232" r="119.977"/>
<g>
</g>
<g>
</g>
<g>
</g>
<g>
</g>
<g>
</g>
<g>
</g>
</svg>
